<?xml version="1.0" encoding="UTF-8" standalone="no"?>
<!-- Created with Inkscape (http://www.inkscape.org/) -->
<svg
   xmlns:dc="http://purl.org/dc/elements/1.1/"
   xmlns:cc="http://creativecommons.org/ns#"
   xmlns:rdf="http://www.w3.org/1999/02/22-rdf-syntax-ns#"
   xmlns:svg="http://www.w3.org/2000/svg"
   xmlns="http://www.w3.org/2000/svg"
   xmlns:sodipodi="http://sodipodi.sourceforge.net/DTD/sodipodi-0.dtd"
   xmlns:inkscape="http://www.inkscape.org/namespaces/inkscape"
   width="100"
   height="100"
   id="svg5111"
   sodipodi:version="0.32"
   inkscape:version="0.46dev+devel"
   version="1.0"
   sodipodi:docname="_0001-solved.svg"
   inkscape:output_extension="org.inkscape.output.svg.inkscape">
  <defs
     id="defs5113" />
  <sodipodi:namedview
     id="base"
     pagecolor="#ffffff"
     bordercolor="#666666"
     borderopacity="1.0"
     gridtolerance="10000"
     guidetolerance="10"
     objecttolerance="10"
     inkscape:pageopacity="0.0"
     inkscape:pageshadow="2"
     inkscape:zoom="2.8"
     inkscape:cx="55.789141"
     inkscape:cy="41.881051"
     inkscape:document-units="px"
     inkscape:current-layer="layer1"
     width="100px"
     inkscape:window-width="784"
     inkscape:window-height="643"
     inkscape:window-x="44"
     inkscape:window-y="58" />
  <metadata
     id="metadata5116">
    <rdf:RDF>
      <cc:Work
         rdf:about="">
        <dc:format>image/svg+xml</dc:format>
        <dc:type
           rdf:resource="http://purl.org/dc/dcmitype/StillImage" />
      </cc:Work>
    </rdf:RDF>
  </metadata>
  <g
     inkscape:label="Layer 1"
     inkscape:groupmode="layer"
     id="layer1">
    <rect
       style="font-size:16px;fill:#000000;fill-opacity:0;stroke:none;stroke-width:0.23999999;stroke-linejoin:miter;stroke-miterlimit:79.84031677;font-family:Times New Roman"
       x="-2.6788331e-007"
       y="0"
       width="99.837082"
       height="99.837082"
       transform="matrix(0,1,1,0,0,0)"
       stroke-miterlimit="79.8403193612775"
       id="rect3552" />
    <path
       style="font-size:16px;fill:#bf6200;stroke:none;stroke-width:0.249;stroke-linejoin:miter;marker-start:none;marker-end:none;stroke-miterlimit:79.84031677;font-family:Times New Roman"
       d="M 66.612778,66.612804 L 66.612778,100 L 33.225582,100 L 33.225582,66.612804 L 66.612778,66.612804 z"
       stroke-miterlimit="79.8403193612775"
       id="path3554" />
    <g
       style="font-size:16px;stroke:none;stroke-width:0.164;stroke-linejoin:miter;stroke-miterlimit:79.84031677;font-family:Times New Roman"
       id="Group_25"
       stroke-miterlimit="79.8403193612775"
       transform="matrix(1.3354344,0,0,-1.3354344,-1003.1263,471.27214)">
      <path
         style="fill:#ff7ffe;marker-start:none;marker-end:none"
         d="M 786.826,315.543 L 786.456,312.495 L 788.3,311.455 L 790.337,312.024 L 790.707,315.072 L 791.469,312.339 L 794.202,313.101 L 791.785,311.207 L 792.354,309.169 L 794.197,308.13 L 796.614,310.024 L 795.221,307.553 L 797.692,306.159 L 794.643,306.529 L 793.604,304.685 L 794.173,302.647 L 797.221,302.277 L 794.488,301.515 L 795.25,298.782 L 793.356,301.199 L 791.318,300.631 L 790.279,298.787 L 792.172,296.37 L 789.701,297.764 L 788.308,295.292 L 788.678,298.341 L 786.834,299.38 L 784.796,298.812 L 784.426,295.763 L 783.664,298.496 L 780.931,297.734 L 783.348,299.628 L 782.78,301.667 L 780.936,302.706 L 778.519,300.812 L 779.913,303.283 L 777.441,304.677 L 780.49,304.307 L 781.529,306.15 L 780.961,308.188 L 777.912,308.558 L 780.646,309.32 L 779.883,312.054 L 781.778,309.636 L 783.816,310.205 L 784.855,312.048 L 782.961,314.466 L 785.432,313.072 L 786.826,315.543 z M 785.432,313.072 L 784.855,312.048 L 785.854,310.773 L 786.261,310.887 L 786.456,312.495 L 785.432,313.072 z M 791.469,312.339 L 790.337,312.024 L 790.142,310.416 L 790.511,310.209 L 791.785,311.207 L 791.469,312.339 z M 788.3,311.455 L 786.261,310.887 L 786.218,310.529 L 786.078,310.488 L 785.854,310.773 L 783.816,310.205 L 782.776,308.362 L 783.019,308.052 L 782.963,307.946 L 782.569,307.993 L 781.529,306.15 L 782.098,304.112 L 782.52,304.061 L 782.547,303.969 L 782.211,303.705 L 782.78,301.667 L 784.623,300.627 L 784.964,300.894 L 785.044,300.852 L 784.991,300.42 L 786.834,299.38 L 788.873,299.949 L 788.923,300.363 L 789.021,300.392 L 789.279,300.062 L 791.318,300.631 L 792.357,302.474 L 792.123,302.773 L 792.183,302.889 L 792.565,302.842 L 793.604,304.685 L 793.036,306.724 L 792.686,306.766 L 792.643,306.912 L 792.922,307.131 L 792.354,309.169 L 790.511,310.209 L 790.243,309.998 L 790.101,310.073 L 790.142,310.416 L 788.3,311.455 z M 781.778,309.636 L 780.646,309.32 L 780.961,308.188 L 782.569,307.993 L 782.776,308.362 L 781.778,309.636 z M 794.197,308.13 L 792.922,307.131 L 793.036,306.724 L 794.643,306.529 L 795.221,307.553 L 794.197,308.13 z M 780.49,304.307 L 779.913,303.283 L 780.936,302.706 L 782.211,303.705 L 782.098,304.112 L 780.49,304.307 z M 792.565,302.842 L 792.357,302.474 L 793.356,301.199 L 794.488,301.515 L 794.173,302.647 L 792.565,302.842 z M 784.623,300.627 L 783.348,299.628 L 783.664,298.496 L 784.796,298.812 L 784.991,300.42 L 784.623,300.627 z M 789.279,300.062 L 788.873,299.949 L 788.678,298.341 L 789.701,297.764 L 790.279,298.787 L 789.279,300.062 z"
         id="path3557" />
      <path
         style="fill:#ffe200;marker-start:none;marker-end:none"
         d="M 786.181,310.501 L 786.158,310.31 L 787.863,308.134 L 790.039,309.839 L 790.064,310.045 L 790.206,309.97 L 790.039,309.839 L 789.706,307.095 L 792.451,306.762 L 792.606,306.883 L 792.65,306.738 L 792.451,306.762 L 790.275,305.056 L 791.98,302.88 L 792.147,302.86 L 792.086,302.745 L 791.98,302.88 L 789.236,303.213 L 788.903,300.468 L 788.984,300.364 L 788.887,300.335 L 788.903,300.468 L 787.197,302.645 L 785.021,300.939 L 785.007,300.824 L 784.927,300.866 L 785.021,300.939 L 785.354,303.684 L 782.609,304.017 L 782.511,303.94 L 782.484,304.032 L 782.609,304.017 L 784.786,305.722 L 783.08,307.898 L 782.926,307.917 L 782.982,308.024 L 783.08,307.898 L 785.825,307.565 L 786.158,310.31 L 786.041,310.459 L 786.181,310.501 z M 787.863,308.134 L 786.962,307.427 L 788.57,307.232 L 787.863,308.134 z M 785.825,307.565 L 785.687,306.429 L 786.962,307.427 L 785.825,307.565 z M 788.57,307.232 L 789.568,305.958 L 789.706,307.095 L 788.57,307.232 z M 785.687,306.429 L 784.786,305.722 L 785.492,304.821 L 785.687,306.429 z M 789.568,305.958 L 789.374,304.35 L 790.275,305.056 L 789.568,305.958 z M 785.492,304.821 L 785.354,303.684 L 786.491,303.546 L 785.492,304.821 z M 789.374,304.35 L 788.099,303.351 L 789.236,303.213 L 789.374,304.35 z M 786.491,303.546 L 787.197,302.645 L 788.099,303.351 L 786.491,303.546 z"
         id="path3559" />
    </g>
  </g>
</svg>
