<?xml version="1.0" encoding="UTF-8" standalone="no"?>
<!-- Created with Inkscape (http://www.inkscape.org/) -->
<svg
   xmlns:dc="http://purl.org/dc/elements/1.1/"
   xmlns:cc="http://creativecommons.org/ns#"
   xmlns:rdf="http://www.w3.org/1999/02/22-rdf-syntax-ns#"
   xmlns:svg="http://www.w3.org/2000/svg"
   xmlns="http://www.w3.org/2000/svg"
   xmlns:sodipodi="http://sodipodi.sourceforge.net/DTD/sodipodi-0.dtd"
   xmlns:inkscape="http://www.inkscape.org/namespaces/inkscape"
   width="100"
   height="100"
   id="svg5111"
   sodipodi:version="0.32"
   inkscape:version="0.46dev+devel"
   version="1.0"
   sodipodi:docname="_0010-solved.svg"
   inkscape:output_extension="org.inkscape.output.svg.inkscape">
  <defs
     id="defs5113" />
  <sodipodi:namedview
     id="base"
     pagecolor="#ffffff"
     bordercolor="#666666"
     borderopacity="1.0"
     gridtolerance="10000"
     guidetolerance="10"
     objecttolerance="10"
     inkscape:pageopacity="0.0"
     inkscape:pageshadow="2"
     inkscape:zoom="2.8"
     inkscape:cx="55.789141"
     inkscape:cy="41.881051"
     inkscape:document-units="px"
     inkscape:current-layer="layer1"
     width="100px"
     inkscape:window-width="784"
     inkscape:window-height="643"
     inkscape:window-x="44"
     inkscape:window-y="58" />
  <metadata
     id="metadata5116">
    <rdf:RDF>
      <cc:Work
         rdf:about="">
        <dc:format>image/svg+xml</dc:format>
        <dc:type
           rdf:resource="http://purl.org/dc/dcmitype/StillImage" />
      </cc:Work>
    </rdf:RDF>
  </metadata>
  <g
     inkscape:label="Layer 1"
     inkscape:groupmode="layer"
     id="layer1">
    <rect
       style="font-size:16px;fill:#000000;fill-opacity:0;stroke:none;stroke-width:0.23999999;stroke-linejoin:miter;stroke-miterlimit:79.84031677;font-family:Times New Roman"
       x="0"
       y="-100"
       width="99.83709"
       height="99.83709"
       transform="scale(1,-1)"
       stroke-miterlimit="79.8403193612775"
       id="rect3543" />
    <path
       style="font-size:16px;fill:#bf6200;stroke:none;stroke-width:0.249;stroke-linejoin:miter;marker-start:none;marker-end:none;stroke-miterlimit:79.84031677;font-family:Times New Roman"
       d="M 66.6128,33.387176 L 99.999997,33.387176 L 99.999997,66.774376 L 66.6128,66.774376 L 66.6128,33.387176 z"
       stroke-miterlimit="79.8403193612775"
       id="path3545" />
    <g
       style="font-size:16px;stroke:none;stroke-width:0.164;stroke-linejoin:miter;stroke-miterlimit:79.84031677;font-family:Times New Roman"
       id="Group_24"
       stroke-miterlimit="79.8403193612775"
       transform="matrix(1.3354346,0,0,-1.3354346,-895.89233,471.35363)">
      <path
         style="fill:#ff7ffe;marker-start:none;marker-end:none"
         d="M 708.217,313.742 L 711.265,313.372 L 712.305,315.216 L 711.736,317.253 L 708.688,317.623 L 711.421,318.385 L 710.659,321.118 L 712.553,318.701 L 714.591,319.27 L 715.63,321.113 L 713.736,323.53 L 716.207,322.137 L 717.601,324.608 L 717.231,321.559 L 719.075,320.52 L 721.113,321.089 L 721.483,324.137 L 722.245,321.404 L 724.978,322.166 L 722.561,320.272 L 723.129,318.234 L 724.973,317.195 L 727.39,319.088 L 725.996,316.617 L 728.468,315.224 L 725.419,315.594 L 724.38,313.75 L 724.948,311.712 L 727.997,311.342 L 725.264,310.58 L 726.026,307.847 L 724.132,310.264 L 722.093,309.696 L 721.054,307.852 L 722.948,305.435 L 720.477,306.829 L 719.083,304.357 L 719.453,307.406 L 717.61,308.445 L 715.572,307.877 L 715.202,304.828 L 714.44,307.562 L 711.706,306.799 L 714.124,308.694 L 713.555,310.732 L 711.712,311.771 L 709.294,309.877 L 710.688,312.348 L 708.217,313.742 z M 710.688,312.348 L 711.712,311.771 L 712.987,312.77 L 712.873,313.177 L 711.265,313.372 L 710.688,312.348 z M 711.421,318.385 L 711.736,317.253 L 713.344,317.058 L 713.551,317.427 L 712.553,318.701 L 711.421,318.385 z M 712.305,315.216 L 712.873,313.177 L 713.231,313.134 L 713.272,312.994 L 712.987,312.77 L 713.555,310.732 L 715.398,309.692 L 715.708,309.935 L 715.814,309.879 L 715.767,309.485 L 717.61,308.445 L 719.648,309.014 L 719.699,309.436 L 719.791,309.463 L 720.055,309.127 L 722.093,309.696 L 723.133,311.539 L 722.866,311.88 L 722.908,311.96 L 723.34,311.907 L 724.38,313.75 L 723.811,315.789 L 723.397,315.839 L 723.368,315.937 L 723.698,316.195 L 723.129,318.234 L 721.286,319.273 L 720.987,319.039 L 720.871,319.099 L 720.918,319.481 L 719.075,320.52 L 717.036,319.952 L 716.994,319.602 L 716.848,319.559 L 716.629,319.838 L 714.591,319.27 L 713.551,317.427 L 713.762,317.159 L 713.687,317.017 L 713.344,317.058 L 712.305,315.216 z M 714.124,308.694 L 714.44,307.562 L 715.572,307.877 L 715.767,309.485 L 715.398,309.692 L 714.124,308.694 z M 715.63,321.113 L 716.629,319.838 L 717.036,319.952 L 717.231,321.559 L 716.207,322.137 L 715.63,321.113 z M 719.453,307.406 L 720.477,306.829 L 721.054,307.852 L 720.055,309.127 L 719.648,309.014 L 719.453,307.406 z M 720.918,319.481 L 721.286,319.273 L 722.561,320.272 L 722.245,321.404 L 721.113,321.089 L 720.918,319.481 z M 723.133,311.539 L 724.132,310.264 L 725.264,310.58 L 724.948,311.712 L 723.34,311.907 L 723.133,311.539 z M 723.698,316.195 L 723.811,315.789 L 725.419,315.594 L 725.996,316.617 L 724.973,317.195 L 723.698,316.195 z"
         id="path3548" />
      <path
         style="fill:#ffe200;marker-start:none;marker-end:none"
         d="M 713.259,313.097 L 713.45,313.074 L 715.626,314.779 L 713.921,316.955 L 713.715,316.98 L 713.79,317.122 L 713.921,316.955 L 716.665,316.622 L 716.998,319.367 L 716.877,319.522 L 717.022,319.566 L 716.998,319.367 L 718.704,317.191 L 720.88,318.896 L 720.9,319.063 L 721.015,319.002 L 720.88,318.896 L 720.547,316.152 L 723.292,315.819 L 723.396,315.9 L 723.425,315.803 L 723.292,315.819 L 721.115,314.113 L 722.821,311.937 L 722.936,311.923 L 722.894,311.843 L 722.821,311.937 L 720.076,312.27 L 719.743,309.525 L 719.82,309.427 L 719.728,309.4 L 719.743,309.525 L 718.038,311.702 L 715.862,309.996 L 715.843,309.842 L 715.736,309.898 L 715.862,309.996 L 716.195,312.741 L 713.45,313.074 L 713.301,312.957 L 713.259,313.097 z M 715.626,314.779 L 716.333,313.878 L 716.528,315.486 L 715.626,314.779 z M 716.195,312.741 L 717.331,312.603 L 716.333,313.878 L 716.195,312.741 z M 716.528,315.486 L 717.802,316.484 L 716.665,316.622 L 716.528,315.486 z M 717.331,312.603 L 718.038,311.702 L 718.939,312.408 L 717.331,312.603 z M 717.802,316.484 L 719.41,316.29 L 718.704,317.191 L 717.802,316.484 z M 718.939,312.408 L 720.076,312.27 L 720.214,313.407 L 718.939,312.408 z M 719.41,316.29 L 720.409,315.015 L 720.547,316.152 L 719.41,316.29 z M 720.214,313.407 L 721.115,314.113 L 720.409,315.015 L 720.214,313.407 z"
         id="path3550" />
    </g>
  </g>
</svg>
