<?xml version="1.0" encoding="UTF-8" standalone="no"?>
<!-- Created with Inkscape (http://www.inkscape.org/) -->
<svg
   xmlns:dc="http://purl.org/dc/elements/1.1/"
   xmlns:cc="http://creativecommons.org/ns#"
   xmlns:rdf="http://www.w3.org/1999/02/22-rdf-syntax-ns#"
   xmlns:svg="http://www.w3.org/2000/svg"
   xmlns="http://www.w3.org/2000/svg"
   xmlns:sodipodi="http://sodipodi.sourceforge.net/DTD/sodipodi-0.dtd"
   xmlns:inkscape="http://www.inkscape.org/namespaces/inkscape"
   width="100"
   height="100"
   id="svg5111"
   sodipodi:version="0.32"
   inkscape:version="0.46dev+devel"
   version="1.0"
   sodipodi:docname="_0011-solved.svg"
   inkscape:output_extension="org.inkscape.output.svg.inkscape">
  <defs
     id="defs5113" />
  <sodipodi:namedview
     id="base"
     pagecolor="#ffffff"
     bordercolor="#666666"
     borderopacity="1.0"
     gridtolerance="10000"
     guidetolerance="10"
     objecttolerance="10"
     inkscape:pageopacity="0.0"
     inkscape:pageshadow="2"
     inkscape:zoom="2.8"
     inkscape:cx="55.789141"
     inkscape:cy="49.305684"
     inkscape:document-units="px"
     inkscape:current-layer="layer1"
     width="100px"
     inkscape:window-width="784"
     inkscape:window-height="643"
     inkscape:window-x="44"
     inkscape:window-y="58" />
  <metadata
     id="metadata5116">
    <rdf:RDF>
      <cc:Work
         rdf:about="">
        <dc:format>image/svg+xml</dc:format>
        <dc:type
           rdf:resource="http://purl.org/dc/dcmitype/StillImage" />
      </cc:Work>
    </rdf:RDF>
  </metadata>
  <g
     inkscape:label="Layer 1"
     inkscape:groupmode="layer"
     id="layer1">
    <rect
       style="font-size:16px;fill:#000000;fill-opacity:0;stroke:none;stroke-width:0.23999999;stroke-linejoin:miter;stroke-miterlimit:79.84031677;font-family:Times New Roman"
       x="0"
       y="-99.839752"
       width="99.838432"
       height="99.838432"
       transform="scale(1,-1)"
       stroke-miterlimit="79.8403193612775"
       id="rect3411" />
    <path
       style="font-size:16px;fill:#bf6200;stroke:none;stroke-width:0.249;stroke-linejoin:miter;marker-start:none;marker-end:none;stroke-miterlimit:79.84031677;font-family:Times New Roman"
       d="M 100,33.226044 L 100,66.613691 L 66.613687,66.613691 L 66.613687,100 L 33.22604,100 L 33.22604,33.24474 L 35.404163,33.24474 L 35.404163,33.226044 L 100,33.226044 z"
       stroke-miterlimit="79.8403193612775"
       id="path3413" />
    <g
       style="font-size:16px;stroke:none;stroke-width:0.164;stroke-linejoin:miter;stroke-miterlimit:79.84031677;font-family:Times New Roman"
       id="Group_18"
       stroke-miterlimit="79.8403193612775"
       transform="matrix(1.3354525,0,0,-1.3354525,-598.69806,471.11824)">
      <path
         style="fill:#ff7ffe;marker-start:none;marker-end:none"
         d="M 481.643,306.691 L 482.013,309.739 L 480.169,310.779 L 478.132,310.21 L 477.762,307.162 L 477,309.895 L 474.267,309.133 L 476.684,311.027 L 476.115,313.065 L 474.272,314.104 L 471.855,312.21 L 473.248,314.681 L 470.777,316.075 L 473.826,315.705 L 474.865,317.549 L 474.296,319.587 L 471.248,319.957 L 473.981,320.719 L 473.219,323.452 L 475.113,321.035 L 477.151,321.603 L 478.19,323.447 L 476.297,325.864 L 478.768,324.47 L 480.161,326.942 L 479.791,323.893 L 481.635,322.854 L 483.673,323.422 L 484.043,326.471 L 484.805,323.738 L 487.538,324.5 L 485.121,322.606 L 485.689,320.567 L 487.533,319.528 L 489.95,321.422 L 488.556,318.951 L 491.028,317.557 L 487.979,317.927 L 486.94,316.084 L 487.508,314.046 L 490.557,313.676 L 487.823,312.914 L 488.586,310.18 L 486.691,312.598 L 484.653,312.029 L 483.614,310.186 L 485.508,307.768 L 483.037,309.162 L 481.643,306.691 z M 483.037,309.162 L 483.614,310.186 L 482.615,311.461 L 482.208,311.347 L 482.013,309.739 L 483.037,309.162 z M 477,309.895 L 478.132,310.21 L 478.327,311.818 L 477.958,312.025 L 476.684,311.027 L 477,309.895 z M 480.169,310.779 L 482.208,311.347 L 482.251,311.705 L 482.391,311.746 L 482.615,311.461 L 484.653,312.029 L 485.693,313.872 L 485.45,314.182 L 485.506,314.288 L 485.9,314.241 L 486.94,316.084 L 486.371,318.122 L 485.949,318.173 L 485.922,318.265 L 486.258,318.529 L 485.689,320.567 L 483.846,321.607 L 483.505,321.34 L 483.425,321.382 L 483.478,321.814 L 481.635,322.854 L 479.596,322.285 L 479.546,321.871 L 479.448,321.842 L 479.19,322.172 L 477.151,321.603 L 476.112,319.76 L 476.346,319.461 L 476.286,319.345 L 475.904,319.392 L 474.865,317.549 L 475.433,315.51 L 475.783,315.468 L 475.826,315.322 L 475.547,315.103 L 476.115,313.065 L 477.958,312.025 L 478.226,312.236 L 478.368,312.161 L 478.327,311.818 L 480.169,310.779 z M 486.691,312.598 L 487.823,312.914 L 487.508,314.046 L 485.9,314.241 L 485.693,313.872 L 486.691,312.598 z M 474.272,314.104 L 475.547,315.103 L 475.433,315.51 L 473.826,315.705 L 473.248,314.681 L 474.272,314.104 z M 487.979,317.927 L 488.556,318.951 L 487.533,319.528 L 486.258,318.529 L 486.371,318.122 L 487.979,317.927 z M 475.904,319.392 L 476.112,319.76 L 475.113,321.035 L 473.981,320.719 L 474.296,319.587 L 475.904,319.392 z M 483.846,321.607 L 485.121,322.606 L 484.805,323.738 L 483.673,323.422 L 483.478,321.814 L 483.846,321.607 z M 479.19,322.172 L 479.596,322.285 L 479.791,323.893 L 478.768,324.47 L 478.19,323.447 L 479.19,322.172 z"
         id="path3510" />
      <path
         style="fill:#ffe200;marker-start:none;marker-end:none"
         d="M 482.288,311.733 L 482.311,311.924 L 480.606,314.1 L 478.43,312.395 L 478.405,312.189 L 478.263,312.264 L 478.43,312.395 L 478.763,315.139 L 476.018,315.472 L 475.863,315.351 L 475.819,315.496 L 476.018,315.472 L 478.194,317.178 L 476.489,319.354 L 476.322,319.374 L 476.383,319.489 L 476.489,319.354 L 479.233,319.021 L 479.566,321.766 L 479.485,321.87 L 479.582,321.899 L 479.566,321.766 L 481.272,319.589 L 483.448,321.295 L 483.462,321.41 L 483.542,321.368 L 483.448,321.295 L 483.115,318.55 L 485.86,318.217 L 485.958,318.294 L 485.985,318.202 L 485.86,318.217 L 483.683,316.512 L 485.389,314.336 L 485.543,314.317 L 485.487,314.21 L 485.389,314.336 L 482.644,314.669 L 482.311,311.924 L 482.428,311.775 L 482.288,311.733 z M 480.606,314.1 L 481.507,314.807 L 479.899,315.002 L 480.606,314.1 z M 482.644,314.669 L 482.782,315.805 L 481.507,314.807 L 482.644,314.669 z M 479.899,315.002 L 478.901,316.276 L 478.763,315.139 L 479.899,315.002 z M 482.782,315.805 L 483.683,316.512 L 482.977,317.413 L 482.782,315.805 z M 478.901,316.276 L 479.095,317.884 L 478.194,317.178 L 478.901,316.276 z M 482.977,317.413 L 483.115,318.55 L 481.978,318.688 L 482.977,317.413 z M 479.095,317.884 L 480.37,318.883 L 479.233,319.021 L 479.095,317.884 z M 481.978,318.688 L 481.272,319.589 L 480.37,318.883 L 481.978,318.688 z"
         id="path3512" />
    </g>
    <g
       style="font-size:16px;stroke:none;stroke-width:0.164;stroke-linejoin:miter;stroke-miterlimit:79.84031677;font-family:Times New Roman"
       id="Group_19"
       stroke-miterlimit="79.8403193612775"
       transform="matrix(1.3354525,0,0,-1.3354525,-598.69806,471.11824)">
      <path
         style="fill:#ff7ffe;marker-start:none;marker-end:none"
         d="M 498.986,290.285 L 499.356,293.333 L 497.512,294.373 L 495.475,293.804 L 495.105,290.756 L 494.343,293.489 L 491.61,292.727 L 494.027,294.621 L 493.458,296.659 L 491.615,297.698 L 489.198,295.804 L 490.591,298.275 L 488.12,299.669 L 491.169,299.299 L 492.208,301.143 L 491.639,303.181 L 488.591,303.551 L 491.324,304.313 L 490.562,307.046 L 492.456,304.629 L 494.494,305.197 L 495.533,307.041 L 493.64,309.458 L 496.111,308.064 L 497.504,310.536 L 497.134,307.487 L 498.978,306.448 L 501.016,307.016 L 501.386,310.065 L 502.148,307.332 L 504.881,308.094 L 502.464,306.2 L 503.032,304.161 L 504.876,303.122 L 507.293,305.016 L 505.899,302.545 L 508.371,301.151 L 505.322,301.521 L 504.283,299.678 L 504.851,297.64 L 507.9,297.27 L 505.166,296.508 L 505.929,293.774 L 504.034,296.192 L 501.996,295.623 L 500.957,293.78 L 502.851,291.362 L 500.38,292.756 L 498.986,290.285 z M 500.38,292.756 L 500.957,293.78 L 499.958,295.055 L 499.551,294.941 L 499.356,293.333 L 500.38,292.756 z M 494.343,293.489 L 495.475,293.804 L 495.67,295.412 L 495.301,295.619 L 494.027,294.621 L 494.343,293.489 z M 497.512,294.373 L 499.551,294.941 L 499.594,295.299 L 499.734,295.34 L 499.958,295.055 L 501.996,295.623 L 503.036,297.466 L 502.793,297.776 L 502.849,297.882 L 503.243,297.835 L 504.283,299.678 L 503.714,301.716 L 503.292,301.767 L 503.265,301.859 L 503.601,302.123 L 503.032,304.161 L 501.189,305.201 L 500.848,304.934 L 500.768,304.976 L 500.821,305.408 L 498.978,306.448 L 496.939,305.879 L 496.889,305.465 L 496.791,305.436 L 496.533,305.766 L 494.494,305.197 L 493.455,303.354 L 493.689,303.055 L 493.629,302.939 L 493.247,302.986 L 492.208,301.143 L 492.776,299.104 L 493.126,299.062 L 493.169,298.916 L 492.89,298.697 L 493.458,296.659 L 495.301,295.619 L 495.569,295.83 L 495.711,295.755 L 495.67,295.412 L 497.512,294.373 z M 504.034,296.192 L 505.166,296.508 L 504.851,297.64 L 503.243,297.835 L 503.036,297.466 L 504.034,296.192 z M 491.615,297.698 L 492.89,298.697 L 492.776,299.104 L 491.169,299.299 L 490.591,298.275 L 491.615,297.698 z M 505.322,301.521 L 505.899,302.545 L 504.876,303.122 L 503.601,302.123 L 503.714,301.716 L 505.322,301.521 z M 493.247,302.986 L 493.455,303.354 L 492.456,304.629 L 491.324,304.313 L 491.639,303.181 L 493.247,302.986 z M 501.189,305.201 L 502.464,306.2 L 502.148,307.332 L 501.016,307.016 L 500.821,305.408 L 501.189,305.201 z M 496.533,305.766 L 496.939,305.879 L 497.134,307.487 L 496.111,308.064 L 495.533,307.041 L 496.533,305.766 z"
         id="path3515" />
      <path
         style="fill:#ffe200;marker-start:none;marker-end:none"
         d="M 499.631,295.327 L 499.654,295.518 L 497.949,297.694 L 495.773,295.989 L 495.748,295.783 L 495.606,295.858 L 495.773,295.989 L 496.106,298.733 L 493.361,299.066 L 493.206,298.945 L 493.162,299.09 L 493.361,299.066 L 495.537,300.772 L 493.832,302.948 L 493.665,302.968 L 493.726,303.083 L 493.832,302.948 L 496.576,302.615 L 496.909,305.36 L 496.828,305.464 L 496.925,305.493 L 496.909,305.36 L 498.615,303.183 L 500.791,304.889 L 500.805,305.004 L 500.885,304.962 L 500.791,304.889 L 500.458,302.144 L 503.203,301.811 L 503.301,301.888 L 503.328,301.796 L 503.203,301.811 L 501.026,300.106 L 502.732,297.93 L 502.886,297.911 L 502.83,297.804 L 502.732,297.93 L 499.987,298.263 L 499.654,295.518 L 499.771,295.369 L 499.631,295.327 z M 497.949,297.694 L 498.85,298.401 L 497.242,298.596 L 497.949,297.694 z M 499.987,298.263 L 500.125,299.399 L 498.85,298.401 L 499.987,298.263 z M 497.242,298.596 L 496.244,299.87 L 496.106,298.733 L 497.242,298.596 z M 500.125,299.399 L 501.026,300.106 L 500.32,301.007 L 500.125,299.399 z M 496.244,299.87 L 496.438,301.478 L 495.537,300.772 L 496.244,299.87 z M 500.32,301.007 L 500.458,302.144 L 499.321,302.282 L 500.32,301.007 z M 496.438,301.478 L 497.713,302.477 L 496.576,302.615 L 496.438,301.478 z M 499.321,302.282 L 498.615,303.183 L 497.713,302.477 L 499.321,302.282 z"
         id="path3517" />
    </g>
  </g>
</svg>
