<?xml version="1.0" encoding="UTF-8" standalone="no"?>
<!-- Created with Inkscape (http://www.inkscape.org/) -->
<svg
   xmlns:dc="http://purl.org/dc/elements/1.1/"
   xmlns:cc="http://creativecommons.org/ns#"
   xmlns:rdf="http://www.w3.org/1999/02/22-rdf-syntax-ns#"
   xmlns:svg="http://www.w3.org/2000/svg"
   xmlns="http://www.w3.org/2000/svg"
   xmlns:sodipodi="http://sodipodi.sourceforge.net/DTD/sodipodi-0.dtd"
   xmlns:inkscape="http://www.inkscape.org/namespaces/inkscape"
   width="100"
   height="100"
   id="svg5111"
   sodipodi:version="0.32"
   inkscape:version="0.46dev+devel"
   version="1.0"
   sodipodi:docname="_0100-solved.svg"
   inkscape:output_extension="org.inkscape.output.svg.inkscape">
  <defs
     id="defs5113" />
  <sodipodi:namedview
     id="base"
     pagecolor="#ffffff"
     bordercolor="#666666"
     borderopacity="1.0"
     gridtolerance="10000"
     guidetolerance="10"
     objecttolerance="10"
     inkscape:pageopacity="0.0"
     inkscape:pageshadow="2"
     inkscape:zoom="2.8"
     inkscape:cx="55.789141"
     inkscape:cy="41.881051"
     inkscape:document-units="px"
     inkscape:current-layer="layer1"
     width="100px"
     inkscape:window-width="784"
     inkscape:window-height="643"
     inkscape:window-x="44"
     inkscape:window-y="58" />
  <metadata
     id="metadata5116">
    <rdf:RDF>
      <cc:Work
         rdf:about="">
        <dc:format>image/svg+xml</dc:format>
        <dc:type
           rdf:resource="http://purl.org/dc/dcmitype/StillImage" />
      </cc:Work>
    </rdf:RDF>
  </metadata>
  <g
     inkscape:label="Layer 1"
     inkscape:groupmode="layer"
     id="layer1">
    <rect
       style="font-size:16px;fill:#000000;fill-opacity:0;stroke:none;stroke-width:0.23999999;stroke-linejoin:miter;stroke-miterlimit:79.84031677;font-family:Times New Roman"
       x="-100"
       y="-99.837082"
       width="99.837082"
       height="99.837082"
       transform="matrix(0,-1,-1,0,0,0)"
       stroke-miterlimit="79.8403193612775"
       id="rect3534" />
    <path
       style="font-size:16px;fill:#bf6200;stroke:none;stroke-width:0.249;stroke-linejoin:miter;marker-start:none;marker-end:none;stroke-miterlimit:79.84031677;font-family:Times New Roman"
       d="M 33.224246,33.387195 L 33.224246,1.0791016e-007 L 66.611441,1.0791016e-007 L 66.611441,33.387195 L 33.224246,33.387195 z"
       stroke-miterlimit="79.8403193612775"
       id="path3536" />
    <g
       style="font-size:16px;stroke:none;stroke-width:0.164;stroke-linejoin:miter;stroke-miterlimit:79.84031677;font-family:Times New Roman"
       id="Group_23"
       stroke-miterlimit="79.8403193612775"
       transform="matrix(1.3354344,0,0,-1.3354344,-785.37435,471.2748)">
      <path
         style="fill:#ff7ffe;marker-start:none;marker-end:none"
         d="M 627.199,315.373 L 627.569,318.421 L 625.725,319.461 L 623.688,318.892 L 623.318,315.844 L 622.556,318.577 L 619.823,317.815 L 622.24,319.709 L 621.671,321.747 L 619.828,322.786 L 617.411,320.892 L 618.804,323.363 L 616.333,324.757 L 619.382,324.387 L 620.421,326.231 L 619.852,328.269 L 616.804,328.639 L 619.537,329.401 L 618.775,332.134 L 620.669,329.717 L 622.707,330.285 L 623.746,332.129 L 621.853,334.546 L 624.324,333.152 L 625.717,335.624 L 625.347,332.575 L 627.191,331.536 L 629.229,332.104 L 629.599,335.153 L 630.361,332.42 L 633.094,333.182 L 630.677,331.288 L 631.245,329.249 L 633.089,328.21 L 635.506,330.104 L 634.112,327.633 L 636.584,326.239 L 633.535,326.609 L 632.496,324.766 L 633.064,322.728 L 636.113,322.358 L 633.379,321.596 L 634.142,318.862 L 632.247,321.28 L 630.209,320.711 L 629.17,318.868 L 631.064,316.45 L 628.593,317.844 L 627.199,315.373 z M 628.593,317.844 L 629.17,318.868 L 628.171,320.143 L 627.764,320.029 L 627.569,318.421 L 628.593,317.844 z M 622.556,318.577 L 623.688,318.892 L 623.883,320.5 L 623.514,320.707 L 622.24,319.709 L 622.556,318.577 z M 625.725,319.461 L 627.764,320.029 L 627.807,320.387 L 627.947,320.428 L 628.171,320.143 L 630.209,320.711 L 631.249,322.554 L 631.006,322.864 L 631.062,322.97 L 631.456,322.923 L 632.496,324.766 L 631.927,326.804 L 631.505,326.855 L 631.478,326.947 L 631.814,327.211 L 631.245,329.249 L 629.402,330.289 L 629.061,330.022 L 628.981,330.064 L 629.034,330.496 L 627.191,331.536 L 625.152,330.967 L 625.102,330.553 L 625.004,330.524 L 624.746,330.854 L 622.707,330.285 L 621.668,328.442 L 621.902,328.143 L 621.842,328.027 L 621.46,328.074 L 620.421,326.231 L 620.989,324.192 L 621.339,324.15 L 621.382,324.004 L 621.103,323.785 L 621.671,321.747 L 623.514,320.707 L 623.782,320.918 L 623.924,320.843 L 623.883,320.5 L 625.725,319.461 z M 632.247,321.28 L 633.379,321.596 L 633.064,322.728 L 631.456,322.923 L 631.249,322.554 L 632.247,321.28 z M 619.828,322.786 L 621.103,323.785 L 620.989,324.192 L 619.382,324.387 L 618.804,323.363 L 619.828,322.786 z M 633.535,326.609 L 634.112,327.633 L 633.089,328.21 L 631.814,327.211 L 631.927,326.804 L 633.535,326.609 z M 621.46,328.074 L 621.668,328.442 L 620.669,329.717 L 619.537,329.401 L 619.852,328.269 L 621.46,328.074 z M 629.402,330.289 L 630.677,331.288 L 630.361,332.42 L 629.229,332.104 L 629.034,330.496 L 629.402,330.289 z M 624.746,330.854 L 625.152,330.967 L 625.347,332.575 L 624.324,333.152 L 623.746,332.129 L 624.746,330.854 z"
         id="path3539" />
      <path
         style="fill:#ffe200;marker-start:none;marker-end:none"
         d="M 627.844,320.415 L 627.867,320.606 L 626.162,322.782 L 623.986,321.077 L 623.961,320.871 L 623.819,320.946 L 623.986,321.077 L 624.319,323.821 L 621.574,324.154 L 621.419,324.033 L 621.375,324.178 L 621.574,324.154 L 623.75,325.86 L 622.045,328.036 L 621.878,328.056 L 621.939,328.171 L 622.045,328.036 L 624.789,327.703 L 625.122,330.448 L 625.041,330.552 L 625.138,330.581 L 625.122,330.448 L 626.828,328.271 L 629.004,329.977 L 629.018,330.092 L 629.098,330.05 L 629.004,329.977 L 628.671,327.232 L 631.416,326.899 L 631.514,326.976 L 631.541,326.884 L 631.416,326.899 L 629.239,325.194 L 630.945,323.018 L 631.099,322.999 L 631.043,322.892 L 630.945,323.018 L 628.2,323.351 L 627.867,320.606 L 627.984,320.457 L 627.844,320.415 z M 626.162,322.782 L 627.063,323.489 L 625.455,323.684 L 626.162,322.782 z M 628.2,323.351 L 628.338,324.487 L 627.063,323.489 L 628.2,323.351 z M 625.455,323.684 L 624.457,324.958 L 624.319,323.821 L 625.455,323.684 z M 628.338,324.487 L 629.239,325.194 L 628.533,326.095 L 628.338,324.487 z M 624.457,324.958 L 624.651,326.566 L 623.75,325.86 L 624.457,324.958 z M 628.533,326.095 L 628.671,327.232 L 627.534,327.37 L 628.533,326.095 z M 624.651,326.566 L 625.926,327.565 L 624.789,327.703 L 624.651,326.566 z M 627.534,327.37 L 626.828,328.271 L 625.926,327.565 L 627.534,327.37 z"
         id="path3541" />
    </g>
  </g>
</svg>
