<?xml version="1.0" encoding="UTF-8" standalone="no"?>
<!-- Created with Inkscape (http://www.inkscape.org/) -->
<svg
   xmlns:svg="http://www.w3.org/2000/svg"
   xmlns="http://www.w3.org/2000/svg"
   version="1.0"
   width="100"
   height="100"
   id="svg5111">
  <defs
     id="defs5113" />
  <g
     id="layer1">
    <rect
       width="99.678673"
       height="99.678673"
       x="-99.678673"
       y="0.1613369"
       transform="scale(-1,1)"
       id="rect3379"
       style="font-size:16px;fill:#000000;fill-opacity:0;stroke:none;stroke-width:0.23999999;stroke-linejoin:miter;stroke-miterlimit:79.84031677;font-family:Times New Roman" />
    <rect
       width="100"
       height="33.33289"
       x="-100"
       y="-66.507118"
       transform="matrix(0,-1,-1,0,0,0)"
       id="rect3381"
       style="font-size:16px;fill:#bf6200;stroke:none;stroke-width:0.249;stroke-linejoin:miter;stroke-miterlimit:79.84031677;font-family:Times New Roman" />
    <g
       transform="matrix(1.3333156,0,0,-1.3333156,230.24627,470.56573)"
       id="Group"
       style="font-size:16px;stroke:none;stroke-width:0.164;stroke-linejoin:miter;stroke-miterlimit:79.84031677;font-family:Times New Roman">
      <path
         d="M -122.573,324.034 L -122.203,327.082 L -124.047,328.122 L -126.084,327.553 L -126.454,324.505 L -127.216,327.238 L -129.949,326.476 L -127.532,328.37 L -128.101,330.408 L -129.944,331.447 L -132.361,329.553 L -130.968,332.024 L -133.439,333.418 L -130.39,333.048 L -129.351,334.892 L -129.92,336.93 L -132.968,337.3 L -130.235,338.062 L -130.997,340.795 L -129.103,338.378 L -127.065,338.946 L -126.026,340.79 L -127.919,343.207 L -125.448,341.813 L -124.055,344.285 L -124.425,341.236 L -122.581,340.197 L -120.543,340.765 L -120.173,343.814 L -119.411,341.081 L -116.678,341.843 L -119.095,339.949 L -118.527,337.91 L -116.683,336.871 L -114.266,338.765 L -115.66,336.294 L -113.188,334.9 L -116.237,335.27 L -117.276,333.427 L -116.708,331.389 L -113.659,331.019 L -116.393,330.257 L -115.63,327.523 L -117.525,329.941 L -119.563,329.372 L -120.602,327.529 L -118.708,325.111 L -121.179,326.505 L -122.573,324.034 z M -121.179,326.505 L -120.602,327.529 L -121.601,328.804 L -122.008,328.69 L -122.203,327.082 L -121.179,326.505 z M -127.216,327.238 L -126.084,327.553 L -125.889,329.161 L -126.258,329.368 L -127.532,328.37 L -127.216,327.238 z M -124.047,328.122 L -122.008,328.69 L -121.965,329.048 L -121.825,329.089 L -121.601,328.804 L -119.563,329.372 L -118.523,331.215 L -118.766,331.525 L -118.71,331.631 L -118.316,331.584 L -117.276,333.427 L -117.845,335.465 L -118.267,335.516 L -118.294,335.608 L -117.958,335.872 L -118.527,337.91 L -120.37,338.95 L -120.711,338.683 L -120.791,338.725 L -120.738,339.157 L -122.581,340.197 L -124.62,339.628 L -124.67,339.214 L -124.768,339.185 L -125.026,339.515 L -127.065,338.946 L -128.104,337.103 L -127.87,336.804 L -127.93,336.688 L -128.312,336.735 L -129.351,334.892 L -128.783,332.853 L -128.433,332.811 L -128.39,332.665 L -128.669,332.446 L -128.101,330.408 L -126.258,329.368 L -125.99,329.579 L -125.848,329.504 L -125.889,329.161 L -124.047,328.122 z M -117.525,329.941 L -116.393,330.257 L -116.708,331.389 L -118.316,331.584 L -118.523,331.215 L -117.525,329.941 z M -129.944,331.447 L -128.669,332.446 L -128.783,332.853 L -130.39,333.048 L -130.968,332.024 L -129.944,331.447 z M -116.237,335.27 L -115.66,336.294 L -116.683,336.871 L -117.958,335.872 L -117.845,335.465 L -116.237,335.27 z M -128.312,336.735 L -128.104,337.103 L -129.103,338.378 L -130.235,338.062 L -129.92,336.93 L -128.312,336.735 z M -120.37,338.95 L -119.095,339.949 L -119.411,341.081 L -120.543,340.765 L -120.738,339.157 L -120.37,338.95 z M -125.026,339.515 L -124.62,339.628 L -124.425,341.236 L -125.448,341.813 L -126.026,340.79 L -125.026,339.515 z"
         id="path3420"
         style="fill:#ff7ffe;marker-start:none;marker-end:none" />
      <path
         d="M -121.928,329.076 L -121.905,329.267 L -123.61,331.443 L -125.786,329.738 L -125.811,329.532 L -125.953,329.607 L -125.786,329.738 L -125.453,332.482 L -128.198,332.815 L -128.353,332.694 L -128.397,332.839 L -128.198,332.815 L -126.022,334.521 L -127.727,336.697 L -127.894,336.717 L -127.833,336.832 L -127.727,336.697 L -124.983,336.364 L -124.65,339.109 L -124.731,339.213 L -124.634,339.242 L -124.65,339.109 L -122.944,336.932 L -120.768,338.638 L -120.754,338.753 L -120.674,338.711 L -120.768,338.638 L -121.101,335.893 L -118.356,335.56 L -118.258,335.637 L -118.231,335.545 L -118.356,335.56 L -120.533,333.855 L -118.827,331.679 L -118.673,331.66 L -118.729,331.553 L -118.827,331.679 L -121.572,332.012 L -121.905,329.267 L -121.788,329.118 L -121.928,329.076 z M -123.61,331.443 L -122.709,332.15 L -124.317,332.345 L -123.61,331.443 z M -121.572,332.012 L -121.434,333.148 L -122.709,332.15 L -121.572,332.012 z M -124.317,332.345 L -125.315,333.619 L -125.453,332.482 L -124.317,332.345 z M -121.434,333.148 L -120.533,333.855 L -121.239,334.756 L -121.434,333.148 z M -125.315,333.619 L -125.121,335.227 L -126.022,334.521 L -125.315,333.619 z M -121.239,334.756 L -121.101,335.893 L -122.238,336.031 L -121.239,334.756 z M -125.121,335.227 L -123.846,336.226 L -124.983,336.364 L -125.121,335.227 z M -122.238,336.031 L -122.944,336.932 L -123.846,336.226 L -122.238,336.031 z"
         id="path3422"
         style="fill:#ffe200;marker-start:none;marker-end:none" />
    </g>
    <g
       transform="matrix(1.3333156,0,0,-1.3333156,230.24627,470.56573)"
       id="Group_1"
       style="font-size:16px;stroke:none;stroke-width:0.164;stroke-linejoin:miter;stroke-miterlimit:79.84031677;font-family:Times New Roman">
      <path
         d="M -145.542,293.097 L -145.172,296.145 L -147.016,297.185 L -149.053,296.616 L -149.423,293.568 L -150.185,296.301 L -152.918,295.539 L -150.501,297.433 L -151.07,299.471 L -152.913,300.51 L -155.33,298.616 L -153.937,301.087 L -156.408,302.481 L -153.359,302.111 L -152.32,303.955 L -152.889,305.993 L -155.937,306.363 L -153.204,307.125 L -153.966,309.858 L -152.072,307.441 L -150.034,308.009 L -148.995,309.853 L -150.888,312.27 L -148.417,310.876 L -147.024,313.348 L -147.394,310.299 L -145.55,309.26 L -143.512,309.828 L -143.142,312.877 L -142.38,310.144 L -139.647,310.906 L -142.064,309.012 L -141.496,306.973 L -139.652,305.934 L -137.235,307.828 L -138.629,305.357 L -136.157,303.963 L -139.206,304.333 L -140.245,302.49 L -139.677,300.452 L -136.628,300.082 L -139.362,299.32 L -138.599,296.586 L -140.494,299.004 L -142.532,298.435 L -143.571,296.592 L -141.677,294.174 L -144.148,295.568 L -145.542,293.097 z M -144.148,295.568 L -143.571,296.592 L -144.57,297.867 L -144.977,297.753 L -145.172,296.145 L -144.148,295.568 z M -150.185,296.301 L -149.053,296.616 L -148.858,298.224 L -149.227,298.431 L -150.501,297.433 L -150.185,296.301 z M -147.016,297.185 L -144.977,297.753 L -144.934,298.111 L -144.794,298.152 L -144.57,297.867 L -142.532,298.435 L -141.492,300.278 L -141.735,300.588 L -141.679,300.694 L -141.285,300.647 L -140.245,302.49 L -140.814,304.528 L -141.236,304.579 L -141.263,304.671 L -140.927,304.935 L -141.496,306.973 L -143.339,308.013 L -143.68,307.746 L -143.76,307.788 L -143.707,308.22 L -145.55,309.26 L -147.589,308.691 L -147.639,308.277 L -147.737,308.248 L -147.995,308.578 L -150.034,308.009 L -151.073,306.166 L -150.839,305.867 L -150.899,305.751 L -151.281,305.798 L -152.32,303.955 L -151.752,301.916 L -151.402,301.874 L -151.359,301.728 L -151.638,301.509 L -151.07,299.471 L -149.227,298.431 L -148.959,298.642 L -148.817,298.567 L -148.858,298.224 L -147.016,297.185 z M -140.494,299.004 L -139.362,299.32 L -139.677,300.452 L -141.285,300.647 L -141.492,300.278 L -140.494,299.004 z M -152.913,300.51 L -151.638,301.509 L -151.752,301.916 L -153.359,302.111 L -153.937,301.087 L -152.913,300.51 z M -139.206,304.333 L -138.629,305.357 L -139.652,305.934 L -140.927,304.935 L -140.814,304.528 L -139.206,304.333 z M -151.281,305.798 L -151.073,306.166 L -152.072,307.441 L -153.204,307.125 L -152.889,305.993 L -151.281,305.798 z M -143.339,308.013 L -142.064,309.012 L -142.38,310.144 L -143.512,309.828 L -143.707,308.22 L -143.339,308.013 z M -147.995,308.578 L -147.589,308.691 L -147.394,310.299 L -148.417,310.876 L -148.995,309.853 L -147.995,308.578 z"
         id="path3425"
         style="fill:#ff7ffe;marker-start:none;marker-end:none" />
      <path
         d="M -144.897,298.139 L -144.874,298.33 L -146.579,300.506 L -148.755,298.801 L -148.78,298.595 L -148.922,298.67 L -148.755,298.801 L -148.422,301.545 L -151.167,301.878 L -151.322,301.757 L -151.366,301.902 L -151.167,301.878 L -148.991,303.584 L -150.696,305.76 L -150.863,305.78 L -150.802,305.895 L -150.696,305.76 L -147.952,305.427 L -147.619,308.172 L -147.7,308.276 L -147.603,308.305 L -147.619,308.172 L -145.913,305.995 L -143.737,307.701 L -143.723,307.816 L -143.643,307.774 L -143.737,307.701 L -144.07,304.956 L -141.325,304.623 L -141.227,304.7 L -141.2,304.608 L -141.325,304.623 L -143.502,302.918 L -141.796,300.742 L -141.642,300.723 L -141.698,300.616 L -141.796,300.742 L -144.541,301.075 L -144.874,298.33 L -144.757,298.181 L -144.897,298.139 z M -146.579,300.506 L -145.678,301.213 L -147.286,301.408 L -146.579,300.506 z M -144.541,301.075 L -144.403,302.211 L -145.678,301.213 L -144.541,301.075 z M -147.286,301.408 L -148.284,302.682 L -148.422,301.545 L -147.286,301.408 z M -144.403,302.211 L -143.502,302.918 L -144.208,303.819 L -144.403,302.211 z M -148.284,302.682 L -148.09,304.29 L -148.991,303.584 L -148.284,302.682 z M -144.208,303.819 L -144.07,304.956 L -145.207,305.094 L -144.208,303.819 z M -148.09,304.29 L -146.815,305.289 L -147.952,305.427 L -148.09,304.29 z M -145.207,305.094 L -145.913,305.995 L -146.815,305.289 L -145.207,305.094 z"
         id="path3427"
         style="fill:#ffe200;marker-start:none;marker-end:none" />
    </g>
  </g>
</svg>
