<?xml version="1.0" encoding="UTF-8" standalone="no"?>
<!-- Created with Inkscape (http://www.inkscape.org/) -->
<svg
   xmlns:dc="http://purl.org/dc/elements/1.1/"
   xmlns:cc="http://creativecommons.org/ns#"
   xmlns:rdf="http://www.w3.org/1999/02/22-rdf-syntax-ns#"
   xmlns:svg="http://www.w3.org/2000/svg"
   xmlns="http://www.w3.org/2000/svg"
   xmlns:sodipodi="http://sodipodi.sourceforge.net/DTD/sodipodi-0.dtd"
   xmlns:inkscape="http://www.inkscape.org/namespaces/inkscape"
   width="100"
   height="100"
   id="svg5111"
   sodipodi:version="0.32"
   inkscape:version="0.46dev+devel"
   version="1.0"
   sodipodi:docname="_0111-solved.svg"
   inkscape:output_extension="org.inkscape.output.svg.inkscape">
  <defs
     id="defs5113" />
  <sodipodi:namedview
     id="base"
     pagecolor="#ffffff"
     bordercolor="#666666"
     borderopacity="1.0"
     gridtolerance="10000"
     guidetolerance="10"
     objecttolerance="10"
     inkscape:pageopacity="0.0"
     inkscape:pageshadow="2"
     inkscape:zoom="2.8"
     inkscape:cx="55.789141"
     inkscape:cy="49.305684"
     inkscape:document-units="px"
     inkscape:current-layer="layer1"
     width="100px"
     inkscape:window-width="784"
     inkscape:window-height="643"
     inkscape:window-x="44"
     inkscape:window-y="58" />
  <metadata
     id="metadata5116">
    <rdf:RDF>
      <cc:Work
         rdf:about="">
        <dc:format>image/svg+xml</dc:format>
        <dc:type
           rdf:resource="http://purl.org/dc/dcmitype/StillImage" />
      </cc:Work>
    </rdf:RDF>
  </metadata>
  <g
     inkscape:label="Layer 1"
     inkscape:groupmode="layer"
     id="layer1">
    <rect
       style="font-size:16px;fill:#000000;fill-opacity:0;stroke:none;stroke-width:0.23999999;stroke-linejoin:miter;stroke-miterlimit:79.84031677;font-family:Times New Roman"
       x="0"
       y="-99.841347"
       width="99.68"
       height="99.68"
       transform="scale(1,-1)"
       stroke-miterlimit="79.8403193612775"
       id="rect3395" />
    <path
       style="font-size:16px;fill:#bf6200;stroke:none;stroke-width:0.249;stroke-linejoin:miter;marker-start:none;marker-end:none;stroke-miterlimit:79.84031677;font-family:Times New Roman"
       d="M 66.508008,1.7763568e-015 L 66.508008,33.333333 L 99.842676,33.333333 L 99.842676,66.668 L 66.508008,66.668 L 66.508008,100 L 33.173341,100 L 33.173341,1.7763568e-015 L 66.508008,1.7763568e-015 z"
       stroke-miterlimit="79.8403193612775"
       id="path3397" />
    <g
       style="font-size:16px;stroke:none;stroke-width:0.164;stroke-linejoin:miter;stroke-miterlimit:79.84031677;font-family:Times New Roman"
       id="Group_9"
       stroke-miterlimit="79.8403193612775"
       transform="matrix(1.3333333,0,0,-1.3333333,-187.296,470.53068)">
      <path
         style="fill:#ff7ffe;marker-start:none;marker-end:none"
         d="M 166.175,325.441 L 166.545,328.489 L 164.701,329.529 L 162.664,328.96 L 162.294,325.912 L 161.532,328.645 L 158.799,327.883 L 161.216,329.777 L 160.647,331.815 L 158.804,332.854 L 156.387,330.96 L 157.78,333.431 L 155.309,334.825 L 158.358,334.455 L 159.397,336.299 L 158.828,338.337 L 155.78,338.707 L 158.513,339.469 L 157.751,342.202 L 159.645,339.785 L 161.683,340.353 L 162.722,342.197 L 160.829,344.614 L 163.3,343.22 L 164.693,345.692 L 164.323,342.643 L 166.167,341.604 L 168.205,342.172 L 168.575,345.221 L 169.337,342.488 L 172.07,343.25 L 169.653,341.356 L 170.221,339.317 L 172.065,338.278 L 174.482,340.172 L 173.088,337.701 L 175.56,336.307 L 172.511,336.677 L 171.472,334.834 L 172.04,332.796 L 175.089,332.426 L 172.355,331.664 L 173.118,328.93 L 171.223,331.348 L 169.185,330.779 L 168.146,328.936 L 170.04,326.518 L 167.569,327.912 L 166.175,325.441 z M 167.569,327.912 L 168.146,328.936 L 167.147,330.211 L 166.74,330.097 L 166.545,328.489 L 167.569,327.912 z M 161.532,328.645 L 162.664,328.96 L 162.859,330.568 L 162.49,330.775 L 161.216,329.777 L 161.532,328.645 z M 164.701,329.529 L 166.74,330.097 L 166.783,330.455 L 166.923,330.496 L 167.147,330.211 L 169.185,330.779 L 170.225,332.622 L 169.982,332.932 L 170.038,333.038 L 170.432,332.991 L 171.472,334.834 L 170.903,336.872 L 170.481,336.923 L 170.454,337.015 L 170.79,337.279 L 170.221,339.317 L 168.378,340.357 L 168.037,340.09 L 167.957,340.132 L 168.01,340.564 L 166.167,341.604 L 164.128,341.035 L 164.078,340.621 L 163.98,340.592 L 163.722,340.922 L 161.683,340.353 L 160.644,338.51 L 160.878,338.211 L 160.818,338.095 L 160.436,338.142 L 159.397,336.299 L 159.965,334.26 L 160.315,334.218 L 160.358,334.072 L 160.079,333.853 L 160.647,331.815 L 162.49,330.775 L 162.758,330.986 L 162.9,330.911 L 162.859,330.568 L 164.701,329.529 z M 171.223,331.348 L 172.355,331.664 L 172.04,332.796 L 170.432,332.991 L 170.225,332.622 L 171.223,331.348 z M 158.804,332.854 L 160.079,333.853 L 159.965,334.26 L 158.358,334.455 L 157.78,333.431 L 158.804,332.854 z M 172.511,336.677 L 173.088,337.701 L 172.065,338.278 L 170.79,337.279 L 170.903,336.872 L 172.511,336.677 z M 160.436,338.142 L 160.644,338.51 L 159.645,339.785 L 158.513,339.469 L 158.828,338.337 L 160.436,338.142 z M 168.378,340.357 L 169.653,341.356 L 169.337,342.488 L 168.205,342.172 L 168.01,340.564 L 168.378,340.357 z M 163.722,340.922 L 164.128,341.035 L 164.323,342.643 L 163.3,343.22 L 162.722,342.197 L 163.722,340.922 z"
         id="path3465" />
      <path
         style="fill:#ffe200;marker-start:none;marker-end:none"
         d="M 166.82,330.483 L 166.843,330.674 L 165.138,332.85 L 162.962,331.145 L 162.937,330.939 L 162.795,331.014 L 162.962,331.145 L 163.295,333.889 L 160.55,334.222 L 160.395,334.101 L 160.351,334.246 L 160.55,334.222 L 162.726,335.928 L 161.021,338.104 L 160.854,338.124 L 160.915,338.239 L 161.021,338.104 L 163.765,337.771 L 164.098,340.516 L 164.017,340.62 L 164.114,340.649 L 164.098,340.516 L 165.804,338.339 L 167.98,340.045 L 167.994,340.16 L 168.074,340.118 L 167.98,340.045 L 167.647,337.3 L 170.392,336.967 L 170.49,337.044 L 170.517,336.952 L 170.392,336.967 L 168.215,335.262 L 169.921,333.086 L 170.075,333.067 L 170.019,332.96 L 169.921,333.086 L 167.176,333.419 L 166.843,330.674 L 166.96,330.525 L 166.82,330.483 z M 165.138,332.85 L 166.039,333.557 L 164.431,333.752 L 165.138,332.85 z M 167.176,333.419 L 167.314,334.555 L 166.039,333.557 L 167.176,333.419 z M 164.431,333.752 L 163.433,335.026 L 163.295,333.889 L 164.431,333.752 z M 167.314,334.555 L 168.215,335.262 L 167.509,336.163 L 167.314,334.555 z M 163.433,335.026 L 163.627,336.634 L 162.726,335.928 L 163.433,335.026 z M 167.509,336.163 L 167.647,337.3 L 166.51,337.438 L 167.509,336.163 z M 163.627,336.634 L 164.902,337.633 L 163.765,337.771 L 163.627,336.634 z M 166.51,337.438 L 165.804,338.339 L 164.902,337.633 L 166.51,337.438 z"
         id="path3467" />
    </g>
    <g
       style="font-size:16px;stroke:none;stroke-width:0.164;stroke-linejoin:miter;stroke-miterlimit:79.84031677;font-family:Times New Roman"
       id="Group_10"
       stroke-miterlimit="79.8403193612775"
       transform="matrix(1.3333333,0,0,-1.3333333,-187.296,470.53068)">
      <path
         style="fill:#ff7ffe;marker-start:none;marker-end:none"
         d="M 192.425,292.629 L 192.795,295.677 L 190.951,296.717 L 188.914,296.148 L 188.544,293.1 L 187.782,295.833 L 185.049,295.071 L 187.466,296.965 L 186.897,299.003 L 185.054,300.042 L 182.637,298.148 L 184.03,300.619 L 181.559,302.013 L 184.608,301.643 L 185.647,303.487 L 185.078,305.525 L 182.03,305.895 L 184.763,306.657 L 184.001,309.39 L 185.895,306.973 L 187.933,307.541 L 188.972,309.385 L 187.079,311.802 L 189.55,310.408 L 190.943,312.88 L 190.573,309.831 L 192.417,308.792 L 194.455,309.36 L 194.825,312.409 L 195.587,309.676 L 198.32,310.438 L 195.903,308.544 L 196.471,306.505 L 198.315,305.466 L 200.732,307.36 L 199.338,304.889 L 201.81,303.495 L 198.761,303.865 L 197.722,302.022 L 198.29,299.984 L 201.339,299.614 L 198.605,298.852 L 199.368,296.118 L 197.473,298.536 L 195.435,297.967 L 194.396,296.124 L 196.29,293.706 L 193.819,295.1 L 192.425,292.629 z M 193.819,295.1 L 194.396,296.124 L 193.397,297.399 L 192.99,297.285 L 192.795,295.677 L 193.819,295.1 z M 187.782,295.833 L 188.914,296.148 L 189.109,297.756 L 188.74,297.963 L 187.466,296.965 L 187.782,295.833 z M 190.951,296.717 L 192.99,297.285 L 193.033,297.643 L 193.173,297.684 L 193.397,297.399 L 195.435,297.967 L 196.475,299.81 L 196.232,300.12 L 196.288,300.226 L 196.682,300.179 L 197.722,302.022 L 197.153,304.06 L 196.731,304.111 L 196.704,304.203 L 197.04,304.467 L 196.471,306.505 L 194.628,307.545 L 194.287,307.278 L 194.207,307.32 L 194.26,307.752 L 192.417,308.792 L 190.378,308.223 L 190.328,307.809 L 190.23,307.78 L 189.972,308.11 L 187.933,307.541 L 186.894,305.698 L 187.128,305.399 L 187.068,305.283 L 186.686,305.33 L 185.647,303.487 L 186.215,301.448 L 186.565,301.406 L 186.608,301.26 L 186.329,301.041 L 186.897,299.003 L 188.74,297.963 L 189.008,298.174 L 189.15,298.099 L 189.109,297.756 L 190.951,296.717 z M 197.473,298.536 L 198.605,298.852 L 198.29,299.984 L 196.682,300.179 L 196.475,299.81 L 197.473,298.536 z M 185.054,300.042 L 186.329,301.041 L 186.215,301.448 L 184.608,301.643 L 184.03,300.619 L 185.054,300.042 z M 198.761,303.865 L 199.338,304.889 L 198.315,305.466 L 197.04,304.467 L 197.153,304.06 L 198.761,303.865 z M 186.686,305.33 L 186.894,305.698 L 185.895,306.973 L 184.763,306.657 L 185.078,305.525 L 186.686,305.33 z M 194.628,307.545 L 195.903,308.544 L 195.587,309.676 L 194.455,309.36 L 194.26,307.752 L 194.628,307.545 z M 189.972,308.11 L 190.378,308.223 L 190.573,309.831 L 189.55,310.408 L 188.972,309.385 L 189.972,308.11 z"
         id="path3470" />
      <path
         style="fill:#ffe200;marker-start:none;marker-end:none"
         d="M 193.07,297.671 L 193.093,297.862 L 191.388,300.038 L 189.212,298.333 L 189.187,298.127 L 189.045,298.202 L 189.212,298.333 L 189.545,301.077 L 186.8,301.41 L 186.645,301.289 L 186.601,301.434 L 186.8,301.41 L 188.976,303.116 L 187.271,305.292 L 187.104,305.312 L 187.165,305.427 L 187.271,305.292 L 190.015,304.959 L 190.348,307.704 L 190.267,307.808 L 190.364,307.837 L 190.348,307.704 L 192.054,305.527 L 194.23,307.233 L 194.244,307.348 L 194.324,307.306 L 194.23,307.233 L 193.897,304.488 L 196.642,304.155 L 196.74,304.232 L 196.767,304.14 L 196.642,304.155 L 194.465,302.45 L 196.171,300.274 L 196.325,300.255 L 196.269,300.148 L 196.171,300.274 L 193.426,300.607 L 193.093,297.862 L 193.21,297.713 L 193.07,297.671 z M 191.388,300.038 L 192.289,300.745 L 190.681,300.94 L 191.388,300.038 z M 193.426,300.607 L 193.564,301.743 L 192.289,300.745 L 193.426,300.607 z M 190.681,300.94 L 189.683,302.214 L 189.545,301.077 L 190.681,300.94 z M 193.564,301.743 L 194.465,302.45 L 193.759,303.351 L 193.564,301.743 z M 189.683,302.214 L 189.877,303.822 L 188.976,303.116 L 189.683,302.214 z M 193.759,303.351 L 193.897,304.488 L 192.76,304.626 L 193.759,303.351 z M 189.877,303.822 L 191.152,304.821 L 190.015,304.959 L 189.877,303.822 z M 192.76,304.626 L 192.054,305.527 L 191.152,304.821 L 192.76,304.626 z"
         id="path3472" />
    </g>
  </g>
</svg>
