<?xml version="1.0" encoding="UTF-8" standalone="no"?>
<!-- Created with Inkscape (http://www.inkscape.org/) -->
<svg
   xmlns:dc="http://purl.org/dc/elements/1.1/"
   xmlns:cc="http://creativecommons.org/ns#"
   xmlns:rdf="http://www.w3.org/1999/02/22-rdf-syntax-ns#"
   xmlns:svg="http://www.w3.org/2000/svg"
   xmlns="http://www.w3.org/2000/svg"
   xmlns:sodipodi="http://sodipodi.sourceforge.net/DTD/sodipodi-0.dtd"
   xmlns:inkscape="http://www.inkscape.org/namespaces/inkscape"
   width="100"
   height="100"
   id="svg5111"
   sodipodi:version="0.32"
   inkscape:version="0.46dev+devel"
   version="1.0"
   sodipodi:docname="_0110-solved.svg"
   inkscape:output_extension="org.inkscape.output.svg.inkscape">
  <defs
     id="defs5113" />
  <sodipodi:namedview
     id="base"
     pagecolor="#ffffff"
     bordercolor="#666666"
     borderopacity="1.0"
     gridtolerance="10000"
     guidetolerance="10"
     objecttolerance="10"
     inkscape:pageopacity="0.0"
     inkscape:pageshadow="2"
     inkscape:zoom="2.8"
     inkscape:cx="55.789141"
     inkscape:cy="49.305684"
     inkscape:document-units="px"
     inkscape:current-layer="layer1"
     width="100px"
     inkscape:window-width="784"
     inkscape:window-height="643"
     inkscape:window-x="44"
     inkscape:window-y="58" />
  <metadata
     id="metadata5116">
    <rdf:RDF>
      <cc:Work
         rdf:about="">
        <dc:format>image/svg+xml</dc:format>
        <dc:type
           rdf:resource="http://purl.org/dc/dcmitype/StillImage" />
      </cc:Work>
    </rdf:RDF>
  </metadata>
  <g
     inkscape:label="Layer 1"
     inkscape:groupmode="layer"
     id="layer1">
    <rect
       style="font-size:16px;fill:#000000;fill-opacity:0;stroke:none;stroke-width:0.23999999;stroke-linejoin:miter;stroke-miterlimit:79.84031677;font-family:Times New Roman"
       x="-100"
       y="-99.838425"
       width="99.838425"
       height="99.838425"
       transform="matrix(0,-1,-1,0,0,0)"
       stroke-miterlimit="79.8403193612775"
       id="rect3407" />
    <path
       style="font-size:16px;fill:#bf6200;stroke:none;stroke-width:0.249;stroke-linejoin:miter;marker-start:none;marker-end:none;stroke-miterlimit:79.84031677;font-family:Times New Roman"
       d="M 33.224723,4.7314453e-007 L 66.612369,4.7314453e-007 L 66.612369,33.38631 L 99.998682,33.38631 L 99.998682,66.773956 L 33.24342,66.773956 L 33.24342,64.595833 L 33.224723,64.595833 L 33.224723,4.7314453e-007 z"
       stroke-miterlimit="79.8403193612775"
       id="path3409" />
    <g
       style="font-size:16px;stroke:none;stroke-width:0.164;stroke-linejoin:miter;stroke-miterlimit:79.84031677;font-family:Times New Roman"
       id="Group_16"
       stroke-miterlimit="79.8403193612775"
       transform="matrix(1.3354524,0,0,-1.3354524,-497.03136,471.27981)">
      <path
         style="fill:#ff7ffe;marker-start:none;marker-end:none"
         d="M 408.987,323.098 L 409.357,326.146 L 407.513,327.186 L 405.476,326.617 L 405.106,323.569 L 404.344,326.302 L 401.611,325.54 L 404.028,327.434 L 403.459,329.472 L 401.616,330.511 L 399.199,328.617 L 400.592,331.088 L 398.121,332.482 L 401.17,332.112 L 402.209,333.956 L 401.64,335.994 L 398.592,336.364 L 401.325,337.126 L 400.563,339.859 L 402.457,337.442 L 404.495,338.01 L 405.534,339.854 L 403.641,342.271 L 406.112,340.877 L 407.505,343.349 L 407.135,340.3 L 408.979,339.261 L 411.017,339.829 L 411.387,342.878 L 412.149,340.145 L 414.882,340.907 L 412.465,339.013 L 413.033,336.974 L 414.877,335.935 L 417.294,337.829 L 415.9,335.358 L 418.372,333.964 L 415.323,334.334 L 414.284,332.491 L 414.852,330.453 L 417.901,330.083 L 415.167,329.321 L 415.93,326.587 L 414.035,329.005 L 411.997,328.436 L 410.958,326.593 L 412.852,324.175 L 410.381,325.569 L 408.987,323.098 z M 410.381,325.569 L 410.958,326.593 L 409.959,327.868 L 409.552,327.754 L 409.357,326.146 L 410.381,325.569 z M 404.344,326.302 L 405.476,326.617 L 405.671,328.225 L 405.302,328.432 L 404.028,327.434 L 404.344,326.302 z M 407.513,327.186 L 409.552,327.754 L 409.595,328.112 L 409.735,328.153 L 409.959,327.868 L 411.997,328.436 L 413.037,330.279 L 412.794,330.589 L 412.85,330.695 L 413.244,330.648 L 414.284,332.491 L 413.715,334.529 L 413.293,334.58 L 413.266,334.672 L 413.602,334.936 L 413.033,336.974 L 411.19,338.014 L 410.849,337.747 L 410.769,337.789 L 410.822,338.221 L 408.979,339.261 L 406.94,338.692 L 406.89,338.278 L 406.792,338.249 L 406.534,338.579 L 404.495,338.01 L 403.456,336.167 L 403.69,335.868 L 403.63,335.752 L 403.248,335.799 L 402.209,333.956 L 402.777,331.917 L 403.127,331.875 L 403.17,331.729 L 402.891,331.51 L 403.459,329.472 L 405.302,328.432 L 405.57,328.643 L 405.712,328.568 L 405.671,328.225 L 407.513,327.186 z M 414.035,329.005 L 415.167,329.321 L 414.852,330.453 L 413.244,330.648 L 413.037,330.279 L 414.035,329.005 z M 401.616,330.511 L 402.891,331.51 L 402.777,331.917 L 401.17,332.112 L 400.592,331.088 L 401.616,330.511 z M 415.323,334.334 L 415.9,335.358 L 414.877,335.935 L 413.602,334.936 L 413.715,334.529 L 415.323,334.334 z M 403.248,335.799 L 403.456,336.167 L 402.457,337.442 L 401.325,337.126 L 401.64,335.994 L 403.248,335.799 z M 411.19,338.014 L 412.465,339.013 L 412.149,340.145 L 411.017,339.829 L 410.822,338.221 L 411.19,338.014 z M 406.534,338.579 L 406.94,338.692 L 407.135,340.3 L 406.112,340.877 L 405.534,339.854 L 406.534,338.579 z"
         id="path3500" />
      <path
         style="fill:#ffe200;marker-start:none;marker-end:none"
         d="M 409.632,328.14 L 409.655,328.331 L 407.95,330.507 L 405.774,328.802 L 405.749,328.596 L 405.607,328.671 L 405.774,328.802 L 406.107,331.546 L 403.362,331.879 L 403.207,331.758 L 403.163,331.903 L 403.362,331.879 L 405.538,333.585 L 403.833,335.761 L 403.666,335.781 L 403.727,335.896 L 403.833,335.761 L 406.577,335.428 L 406.91,338.173 L 406.829,338.277 L 406.926,338.306 L 406.91,338.173 L 408.616,335.996 L 410.792,337.702 L 410.806,337.817 L 410.886,337.775 L 410.792,337.702 L 410.459,334.957 L 413.204,334.624 L 413.302,334.701 L 413.329,334.609 L 413.204,334.624 L 411.027,332.919 L 412.733,330.743 L 412.887,330.724 L 412.831,330.617 L 412.733,330.743 L 409.988,331.076 L 409.655,328.331 L 409.772,328.182 L 409.632,328.14 z M 407.95,330.507 L 408.851,331.214 L 407.243,331.409 L 407.95,330.507 z M 409.988,331.076 L 410.126,332.212 L 408.851,331.214 L 409.988,331.076 z M 407.243,331.409 L 406.245,332.683 L 406.107,331.546 L 407.243,331.409 z M 410.126,332.212 L 411.027,332.919 L 410.321,333.82 L 410.126,332.212 z M 406.245,332.683 L 406.439,334.291 L 405.538,333.585 L 406.245,332.683 z M 410.321,333.82 L 410.459,334.957 L 409.322,335.095 L 410.321,333.82 z M 406.439,334.291 L 407.714,335.29 L 406.577,335.428 L 406.439,334.291 z M 409.322,335.095 L 408.616,335.996 L 407.714,335.29 L 409.322,335.095 z"
         id="path3502" />
    </g>
    <g
       style="font-size:16px;stroke:none;stroke-width:0.164;stroke-linejoin:miter;stroke-miterlimit:79.84031677;font-family:Times New Roman"
       id="Group_17"
       stroke-miterlimit="79.8403193612775"
       transform="matrix(1.3354524,0,0,-1.3354524,-497.03136,471.27981)">
      <path
         style="fill:#ff7ffe;marker-start:none;marker-end:none"
         d="M 422.112,299.191 L 422.482,302.239 L 420.638,303.279 L 418.601,302.71 L 418.231,299.662 L 417.469,302.395 L 414.736,301.633 L 417.153,303.527 L 416.584,305.565 L 414.741,306.604 L 412.324,304.71 L 413.717,307.181 L 411.246,308.575 L 414.295,308.205 L 415.334,310.049 L 414.765,312.087 L 411.717,312.457 L 414.45,313.219 L 413.688,315.952 L 415.582,313.535 L 417.62,314.103 L 418.659,315.947 L 416.766,318.364 L 419.237,316.97 L 420.63,319.442 L 420.26,316.393 L 422.104,315.354 L 424.142,315.922 L 424.512,318.971 L 425.274,316.238 L 428.007,317 L 425.59,315.106 L 426.158,313.067 L 428.002,312.028 L 430.419,313.922 L 429.025,311.451 L 431.497,310.057 L 428.448,310.427 L 427.409,308.584 L 427.977,306.546 L 431.026,306.176 L 428.292,305.414 L 429.055,302.68 L 427.16,305.098 L 425.122,304.529 L 424.083,302.686 L 425.977,300.268 L 423.506,301.662 L 422.112,299.191 z M 423.506,301.662 L 424.083,302.686 L 423.084,303.961 L 422.677,303.847 L 422.482,302.239 L 423.506,301.662 z M 417.469,302.395 L 418.601,302.71 L 418.796,304.318 L 418.427,304.525 L 417.153,303.527 L 417.469,302.395 z M 420.638,303.279 L 422.677,303.847 L 422.72,304.205 L 422.86,304.246 L 423.084,303.961 L 425.122,304.529 L 426.162,306.372 L 425.919,306.682 L 425.975,306.788 L 426.369,306.741 L 427.409,308.584 L 426.84,310.622 L 426.418,310.673 L 426.391,310.765 L 426.727,311.029 L 426.158,313.067 L 424.315,314.107 L 423.974,313.84 L 423.894,313.882 L 423.947,314.314 L 422.104,315.354 L 420.065,314.785 L 420.015,314.371 L 419.917,314.342 L 419.659,314.672 L 417.62,314.103 L 416.581,312.26 L 416.815,311.961 L 416.755,311.845 L 416.373,311.892 L 415.334,310.049 L 415.902,308.01 L 416.252,307.968 L 416.295,307.822 L 416.016,307.603 L 416.584,305.565 L 418.427,304.525 L 418.695,304.736 L 418.837,304.661 L 418.796,304.318 L 420.638,303.279 z M 427.16,305.098 L 428.292,305.414 L 427.977,306.546 L 426.369,306.741 L 426.162,306.372 L 427.16,305.098 z M 414.741,306.604 L 416.016,307.603 L 415.902,308.01 L 414.295,308.205 L 413.717,307.181 L 414.741,306.604 z M 428.448,310.427 L 429.025,311.451 L 428.002,312.028 L 426.727,311.029 L 426.84,310.622 L 428.448,310.427 z M 416.373,311.892 L 416.581,312.26 L 415.582,313.535 L 414.45,313.219 L 414.765,312.087 L 416.373,311.892 z M 424.315,314.107 L 425.59,315.106 L 425.274,316.238 L 424.142,315.922 L 423.947,314.314 L 424.315,314.107 z M 419.659,314.672 L 420.065,314.785 L 420.26,316.393 L 419.237,316.97 L 418.659,315.947 L 419.659,314.672 z"
         id="path3505" />
      <path
         style="fill:#ffe200;marker-start:none;marker-end:none"
         d="M 422.757,304.233 L 422.78,304.424 L 421.075,306.6 L 418.899,304.895 L 418.874,304.689 L 418.732,304.764 L 418.899,304.895 L 419.232,307.639 L 416.487,307.972 L 416.332,307.851 L 416.288,307.996 L 416.487,307.972 L 418.663,309.678 L 416.958,311.854 L 416.791,311.874 L 416.852,311.989 L 416.958,311.854 L 419.702,311.521 L 420.035,314.266 L 419.954,314.37 L 420.051,314.399 L 420.035,314.266 L 421.741,312.089 L 423.917,313.795 L 423.931,313.91 L 424.011,313.868 L 423.917,313.795 L 423.584,311.05 L 426.329,310.717 L 426.427,310.794 L 426.454,310.702 L 426.329,310.717 L 424.152,309.012 L 425.858,306.836 L 426.012,306.817 L 425.956,306.71 L 425.858,306.836 L 423.113,307.169 L 422.78,304.424 L 422.897,304.275 L 422.757,304.233 z M 421.075,306.6 L 421.976,307.307 L 420.368,307.502 L 421.075,306.6 z M 423.113,307.169 L 423.251,308.305 L 421.976,307.307 L 423.113,307.169 z M 420.368,307.502 L 419.37,308.776 L 419.232,307.639 L 420.368,307.502 z M 423.251,308.305 L 424.152,309.012 L 423.446,309.913 L 423.251,308.305 z M 419.37,308.776 L 419.564,310.384 L 418.663,309.678 L 419.37,308.776 z M 423.446,309.913 L 423.584,311.05 L 422.447,311.188 L 423.446,309.913 z M 419.564,310.384 L 420.839,311.383 L 419.702,311.521 L 419.564,310.384 z M 422.447,311.188 L 421.741,312.089 L 420.839,311.383 L 422.447,311.188 z"
         id="path3507" />
    </g>
  </g>
</svg>
