<?xml version="1.0" encoding="UTF-8" standalone="no"?>
<!-- Created with Inkscape (http://www.inkscape.org/) -->
<svg
   xmlns:dc="http://purl.org/dc/elements/1.1/"
   xmlns:cc="http://creativecommons.org/ns#"
   xmlns:rdf="http://www.w3.org/1999/02/22-rdf-syntax-ns#"
   xmlns:svg="http://www.w3.org/2000/svg"
   xmlns="http://www.w3.org/2000/svg"
   xmlns:sodipodi="http://sodipodi.sourceforge.net/DTD/sodipodi-0.dtd"
   xmlns:inkscape="http://www.inkscape.org/namespaces/inkscape"
   width="100"
   height="100"
   id="svg5111"
   sodipodi:version="0.32"
   inkscape:version="0.46dev+devel"
   version="1.0"
   sodipodi:docname="_1000-solved.svg"
   inkscape:output_extension="org.inkscape.output.svg.inkscape">
  <defs
     id="defs5113" />
  <sodipodi:namedview
     id="base"
     pagecolor="#ffffff"
     bordercolor="#666666"
     borderopacity="1.0"
     gridtolerance="10000"
     guidetolerance="10"
     objecttolerance="10"
     inkscape:pageopacity="0.0"
     inkscape:pageshadow="2"
     inkscape:zoom="2.8"
     inkscape:cx="55.789141"
     inkscape:cy="41.881051"
     inkscape:document-units="px"
     inkscape:current-layer="layer1"
     width="100px"
     inkscape:window-width="784"
     inkscape:window-height="643"
     inkscape:window-x="44"
     inkscape:window-y="58" />
  <metadata
     id="metadata5116">
    <rdf:RDF>
      <cc:Work
         rdf:about="">
        <dc:format>image/svg+xml</dc:format>
        <dc:type
           rdf:resource="http://purl.org/dc/dcmitype/StillImage" />
      </cc:Work>
    </rdf:RDF>
  </metadata>
  <g
     inkscape:label="Layer 1"
     inkscape:groupmode="layer"
     id="layer1">
    <rect
       style="font-size:16px;fill:#000000;fill-opacity:0;stroke:none;stroke-width:0.23999999;stroke-linejoin:miter;stroke-miterlimit:79.84031677;font-family:Times New Roman"
       x="-100"
       y="0.16295624"
       width="99.837044"
       height="99.837044"
       transform="scale(-1,1)"
       stroke-miterlimit="79.8403193612775"
       id="rect3561" />
    <path
       style="font-size:16px;fill:#bf6200;stroke:none;stroke-width:0.249;stroke-linejoin:miter;marker-start:none;marker-end:none;stroke-miterlimit:79.84031677;font-family:Times New Roman"
       d="M 33.387184,66.77574 L 0,66.77574 L 0,33.388556 L 33.387184,33.388556 L 33.387184,66.77574 z"
       stroke-miterlimit="79.8403193612775"
       id="path3563" />
    <g
       style="font-size:16px;stroke:none;stroke-width:0.164;stroke-linejoin:miter;stroke-miterlimit:79.84031677;font-family:Times New Roman"
       id="Group_26"
       stroke-miterlimit="79.8403193612775"
       transform="matrix(1.3354339,0,0,-1.3354339,-1109.5092,471.35211)">
      <path
         style="fill:#ff7ffe;marker-start:none;marker-end:none"
         d="M 868.35,317.171 L 865.302,317.541 L 864.262,315.697 L 864.831,313.66 L 867.879,313.29 L 865.146,312.528 L 865.908,309.795 L 864.014,312.212 L 861.976,311.643 L 860.937,309.8 L 862.831,307.383 L 860.36,308.776 L 858.966,306.305 L 859.336,309.354 L 857.492,310.393 L 855.454,309.824 L 855.084,306.776 L 854.322,309.509 L 851.589,308.747 L 854.006,310.641 L 853.438,312.679 L 851.594,313.718 L 849.177,311.825 L 850.571,314.296 L 848.099,315.689 L 851.148,315.319 L 852.187,317.163 L 851.619,319.201 L 848.57,319.571 L 851.303,320.333 L 850.541,323.066 L 852.435,320.649 L 854.474,321.217 L 855.513,323.061 L 853.619,325.478 L 856.09,324.084 L 857.484,326.556 L 857.114,323.507 L 858.957,322.468 L 860.995,323.036 L 861.365,326.085 L 862.127,323.351 L 864.861,324.114 L 862.443,322.219 L 863.012,320.181 L 864.855,319.142 L 867.273,321.036 L 865.879,318.565 L 868.35,317.171 z M 865.879,318.565 L 864.855,319.142 L 863.58,318.143 L 863.694,317.736 L 865.302,317.541 L 865.879,318.565 z M 865.146,312.528 L 864.831,313.66 L 863.223,313.855 L 863.016,313.486 L 864.014,312.212 L 865.146,312.528 z M 864.262,315.697 L 863.694,317.736 L 863.336,317.779 L 863.295,317.919 L 863.58,318.143 L 863.012,320.181 L 861.169,321.221 L 860.859,320.978 L 860.753,321.034 L 860.8,321.428 L 858.957,322.468 L 856.919,321.899 L 856.868,321.477 L 856.776,321.45 L 856.512,321.786 L 854.474,321.217 L 853.434,319.374 L 853.701,319.033 L 853.659,318.953 L 853.227,319.006 L 852.187,317.163 L 852.756,315.124 L 853.17,315.074 L 853.199,314.976 L 852.869,314.718 L 853.438,312.679 L 855.281,311.64 L 855.58,311.874 L 855.696,311.814 L 855.649,311.432 L 857.492,310.393 L 859.531,310.961 L 859.573,311.311 L 859.719,311.354 L 859.938,311.075 L 861.976,311.643 L 863.016,313.486 L 862.805,313.754 L 862.88,313.896 L 863.223,313.855 L 864.262,315.697 z M 862.443,322.219 L 862.127,323.351 L 860.995,323.036 L 860.8,321.428 L 861.169,321.221 L 862.443,322.219 z M 860.937,309.8 L 859.938,311.075 L 859.531,310.961 L 859.336,309.354 L 860.36,308.776 L 860.937,309.8 z M 857.114,323.507 L 856.09,324.084 L 855.513,323.061 L 856.512,321.786 L 856.919,321.899 L 857.114,323.507 z M 855.649,311.432 L 855.281,311.64 L 854.006,310.641 L 854.322,309.509 L 855.454,309.824 L 855.649,311.432 z M 853.434,319.374 L 852.435,320.649 L 851.303,320.333 L 851.619,319.201 L 853.227,319.006 L 853.434,319.374 z M 852.869,314.718 L 852.756,315.124 L 851.148,315.319 L 850.571,314.296 L 851.594,313.718 L 852.869,314.718 z"
         id="path3566" />
      <path
         style="fill:#ffe200;marker-start:none;marker-end:none"
         d="M 863.308,317.816 L 863.117,317.839 L 860.941,316.134 L 862.646,313.958 L 862.852,313.933 L 862.777,313.791 L 862.646,313.958 L 859.902,314.291 L 859.569,311.546 L 859.69,311.391 L 859.545,311.347 L 859.569,311.546 L 857.863,313.722 L 855.687,312.017 L 855.667,311.85 L 855.552,311.911 L 855.687,312.017 L 856.02,314.761 L 853.275,315.094 L 853.171,315.013 L 853.142,315.11 L 853.275,315.094 L 855.452,316.8 L 853.746,318.976 L 853.631,318.99 L 853.673,319.07 L 853.746,318.976 L 856.491,318.643 L 856.824,321.388 L 856.747,321.486 L 856.839,321.513 L 856.824,321.388 L 858.529,319.211 L 860.705,320.917 L 860.724,321.071 L 860.831,321.015 L 860.705,320.917 L 860.372,318.172 L 863.117,317.839 L 863.266,317.956 L 863.308,317.816 z M 860.941,316.134 L 860.234,317.035 L 860.039,315.427 L 860.941,316.134 z M 860.372,318.172 L 859.236,318.31 L 860.234,317.035 L 860.372,318.172 z M 860.039,315.427 L 858.765,314.429 L 859.902,314.291 L 860.039,315.427 z M 859.236,318.31 L 858.529,319.211 L 857.628,318.505 L 859.236,318.31 z M 858.765,314.429 L 857.157,314.623 L 857.863,313.722 L 858.765,314.429 z M 857.628,318.505 L 856.491,318.643 L 856.353,317.506 L 857.628,318.505 z M 857.157,314.623 L 856.158,315.898 L 856.02,314.761 L 857.157,314.623 z M 856.353,317.506 L 855.452,316.8 L 856.158,315.898 L 856.353,317.506 z"
         id="path3568" />
    </g>
  </g>
</svg>
