<?xml version="1.0" encoding="UTF-8" standalone="no"?>
<!-- Created with Inkscape (http://www.inkscape.org/) -->
<svg
   xmlns:dc="http://purl.org/dc/elements/1.1/"
   xmlns:cc="http://creativecommons.org/ns#"
   xmlns:rdf="http://www.w3.org/1999/02/22-rdf-syntax-ns#"
   xmlns:svg="http://www.w3.org/2000/svg"
   xmlns="http://www.w3.org/2000/svg"
   xmlns:sodipodi="http://sodipodi.sourceforge.net/DTD/sodipodi-0.dtd"
   xmlns:inkscape="http://www.inkscape.org/namespaces/inkscape"
   width="100"
   height="100"
   id="svg5111"
   sodipodi:version="0.32"
   inkscape:version="0.46dev+devel"
   version="1.0"
   sodipodi:docname="_1001-solved.svg"
   inkscape:output_extension="org.inkscape.output.svg.inkscape">
  <defs
     id="defs5113" />
  <sodipodi:namedview
     id="base"
     pagecolor="#ffffff"
     bordercolor="#666666"
     borderopacity="1.0"
     gridtolerance="10000"
     guidetolerance="10"
     objecttolerance="10"
     inkscape:pageopacity="0.0"
     inkscape:pageshadow="2"
     inkscape:zoom="2.8"
     inkscape:cx="55.789141"
     inkscape:cy="49.305684"
     inkscape:document-units="px"
     inkscape:current-layer="layer1"
     width="100px"
     inkscape:window-width="784"
     inkscape:window-height="643"
     inkscape:window-x="44"
     inkscape:window-y="58" />
  <metadata
     id="metadata5116">
    <rdf:RDF>
      <cc:Work
         rdf:about="">
        <dc:format>image/svg+xml</dc:format>
        <dc:type
           rdf:resource="http://purl.org/dc/dcmitype/StillImage" />
      </cc:Work>
    </rdf:RDF>
  </metadata>
  <g
     inkscape:label="Layer 1"
     inkscape:groupmode="layer"
     id="layer1">
    <rect
       style="font-size:16px;fill:#000000;fill-opacity:0;stroke:none;stroke-width:0.23999999;stroke-linejoin:miter;stroke-miterlimit:79.84031677;font-family:Times New Roman"
       x="2.3840332e-007"
       y="0.16027424"
       width="99.838425"
       height="99.838425"
       transform="matrix(0,1,1,0,0,0)"
       stroke-miterlimit="79.8403193612775"
       id="rect3415" />
    <path
       style="font-size:16px;fill:#bf6200;stroke:none;stroke-width:0.249;stroke-linejoin:miter;marker-start:none;marker-end:none;stroke-miterlimit:79.84031677;font-family:Times New Roman"
       d="M 66.773954,100 L 33.386309,100 L 33.386309,66.613698 L 0,66.613698 L 0,33.226053 L 66.755257,33.226053 L 66.755257,35.404176 L 66.773954,35.404176 L 66.773954,100 z"
       stroke-miterlimit="79.8403193612775"
       id="path3417" />
    <g
       style="font-size:16px;stroke:none;stroke-width:0.164;stroke-linejoin:miter;stroke-miterlimit:79.84031677;font-family:Times New Roman"
       id="Group_20"
       stroke-miterlimit="79.8403193612775"
       transform="matrix(1.3354524,0,0,-1.3354524,-700.69451,471.11554)">
      <path
         style="fill:#ff7ffe;marker-start:none;marker-end:none"
         d="M 544.924,291.223 L 545.294,294.271 L 543.45,295.311 L 541.413,294.742 L 541.043,291.694 L 540.281,294.427 L 537.548,293.665 L 539.965,295.559 L 539.396,297.597 L 537.553,298.636 L 535.136,296.742 L 536.529,299.213 L 534.058,300.607 L 537.107,300.237 L 538.146,302.081 L 537.577,304.119 L 534.529,304.489 L 537.262,305.251 L 536.5,307.984 L 538.394,305.567 L 540.432,306.135 L 541.471,307.979 L 539.578,310.396 L 542.049,309.002 L 543.442,311.474 L 543.072,308.425 L 544.916,307.386 L 546.954,307.954 L 547.324,311.003 L 548.086,308.27 L 550.819,309.032 L 548.402,307.138 L 548.97,305.099 L 550.814,304.06 L 553.231,305.954 L 551.837,303.483 L 554.309,302.089 L 551.26,302.459 L 550.221,300.616 L 550.789,298.578 L 553.838,298.208 L 551.104,297.446 L 551.867,294.712 L 549.972,297.13 L 547.934,296.561 L 546.895,294.718 L 548.789,292.3 L 546.318,293.694 L 544.924,291.223 z M 546.318,293.694 L 546.895,294.718 L 545.896,295.993 L 545.489,295.879 L 545.294,294.271 L 546.318,293.694 z M 540.281,294.427 L 541.413,294.742 L 541.608,296.35 L 541.239,296.557 L 539.965,295.559 L 540.281,294.427 z M 543.45,295.311 L 545.489,295.879 L 545.532,296.237 L 545.672,296.278 L 545.896,295.993 L 547.934,296.561 L 548.974,298.404 L 548.731,298.714 L 548.787,298.82 L 549.181,298.773 L 550.221,300.616 L 549.652,302.654 L 549.23,302.705 L 549.203,302.797 L 549.539,303.061 L 548.97,305.099 L 547.127,306.139 L 546.786,305.872 L 546.706,305.914 L 546.759,306.346 L 544.916,307.386 L 542.877,306.817 L 542.827,306.403 L 542.729,306.374 L 542.471,306.704 L 540.432,306.135 L 539.393,304.292 L 539.627,303.993 L 539.567,303.877 L 539.185,303.924 L 538.146,302.081 L 538.714,300.042 L 539.064,300 L 539.107,299.854 L 538.828,299.635 L 539.396,297.597 L 541.239,296.557 L 541.507,296.768 L 541.649,296.693 L 541.608,296.35 L 543.45,295.311 z M 549.972,297.13 L 551.104,297.446 L 550.789,298.578 L 549.181,298.773 L 548.974,298.404 L 549.972,297.13 z M 537.553,298.636 L 538.828,299.635 L 538.714,300.042 L 537.107,300.237 L 536.529,299.213 L 537.553,298.636 z M 551.26,302.459 L 551.837,303.483 L 550.814,304.06 L 549.539,303.061 L 549.652,302.654 L 551.26,302.459 z M 539.185,303.924 L 539.393,304.292 L 538.394,305.567 L 537.262,305.251 L 537.577,304.119 L 539.185,303.924 z M 547.127,306.139 L 548.402,307.138 L 548.086,308.27 L 546.954,307.954 L 546.759,306.346 L 547.127,306.139 z M 542.471,306.704 L 542.877,306.817 L 543.072,308.425 L 542.049,309.002 L 541.471,307.979 L 542.471,306.704 z"
         id="path3520" />
      <path
         style="fill:#ffe200;marker-start:none;marker-end:none"
         d="M 545.569,296.265 L 545.592,296.456 L 543.887,298.632 L 541.711,296.927 L 541.686,296.721 L 541.544,296.796 L 541.711,296.927 L 542.044,299.671 L 539.299,300.004 L 539.144,299.883 L 539.1,300.028 L 539.299,300.004 L 541.475,301.71 L 539.77,303.886 L 539.603,303.906 L 539.664,304.021 L 539.77,303.886 L 542.514,303.553 L 542.847,306.298 L 542.766,306.402 L 542.863,306.431 L 542.847,306.298 L 544.553,304.121 L 546.729,305.827 L 546.743,305.942 L 546.823,305.9 L 546.729,305.827 L 546.396,303.082 L 549.141,302.749 L 549.239,302.826 L 549.266,302.734 L 549.141,302.749 L 546.964,301.044 L 548.67,298.868 L 548.824,298.849 L 548.768,298.742 L 548.67,298.868 L 545.925,299.201 L 545.592,296.456 L 545.709,296.307 L 545.569,296.265 z M 543.887,298.632 L 544.788,299.339 L 543.18,299.534 L 543.887,298.632 z M 545.925,299.201 L 546.063,300.337 L 544.788,299.339 L 545.925,299.201 z M 543.18,299.534 L 542.182,300.808 L 542.044,299.671 L 543.18,299.534 z M 546.063,300.337 L 546.964,301.044 L 546.258,301.945 L 546.063,300.337 z M 542.182,300.808 L 542.376,302.416 L 541.475,301.71 L 542.182,300.808 z M 546.258,301.945 L 546.396,303.082 L 545.259,303.22 L 546.258,301.945 z M 542.376,302.416 L 543.651,303.415 L 542.514,303.553 L 542.376,302.416 z M 545.259,303.22 L 544.553,304.121 L 543.651,303.415 L 545.259,303.22 z"
         id="path3522" />
    </g>
    <g
       style="font-size:16px;stroke:none;stroke-width:0.164;stroke-linejoin:miter;stroke-miterlimit:79.84031677;font-family:Times New Roman"
       id="Group_21"
       stroke-miterlimit="79.8403193612775"
       transform="matrix(1.3354524,0,0,-1.3354524,-700.69451,471.11554)">
      <path
         style="fill:#ff7ffe;marker-start:none;marker-end:none"
         d="M 561.799,309.973 L 562.169,313.021 L 560.325,314.061 L 558.288,313.492 L 557.918,310.444 L 557.156,313.177 L 554.423,312.415 L 556.84,314.309 L 556.271,316.347 L 554.428,317.386 L 552.011,315.492 L 553.404,317.963 L 550.933,319.357 L 553.982,318.987 L 555.021,320.831 L 554.452,322.869 L 551.404,323.239 L 554.137,324.001 L 553.375,326.734 L 555.269,324.317 L 557.307,324.885 L 558.346,326.729 L 556.453,329.146 L 558.924,327.752 L 560.317,330.224 L 559.947,327.175 L 561.791,326.136 L 563.829,326.704 L 564.199,329.753 L 564.961,327.02 L 567.694,327.782 L 565.277,325.888 L 565.845,323.849 L 567.689,322.81 L 570.106,324.704 L 568.712,322.233 L 571.184,320.839 L 568.135,321.209 L 567.096,319.366 L 567.664,317.328 L 570.713,316.958 L 567.979,316.196 L 568.742,313.462 L 566.847,315.88 L 564.809,315.311 L 563.77,313.468 L 565.664,311.05 L 563.193,312.444 L 561.799,309.973 z M 563.193,312.444 L 563.77,313.468 L 562.771,314.743 L 562.364,314.629 L 562.169,313.021 L 563.193,312.444 z M 557.156,313.177 L 558.288,313.492 L 558.483,315.1 L 558.114,315.307 L 556.84,314.309 L 557.156,313.177 z M 560.325,314.061 L 562.364,314.629 L 562.407,314.987 L 562.547,315.028 L 562.771,314.743 L 564.809,315.311 L 565.849,317.154 L 565.606,317.464 L 565.662,317.57 L 566.056,317.523 L 567.096,319.366 L 566.527,321.404 L 566.105,321.455 L 566.078,321.547 L 566.414,321.811 L 565.845,323.849 L 564.002,324.889 L 563.661,324.622 L 563.581,324.664 L 563.634,325.096 L 561.791,326.136 L 559.752,325.567 L 559.702,325.153 L 559.604,325.124 L 559.346,325.454 L 557.307,324.885 L 556.268,323.042 L 556.502,322.743 L 556.442,322.627 L 556.06,322.674 L 555.021,320.831 L 555.589,318.792 L 555.939,318.75 L 555.982,318.604 L 555.703,318.385 L 556.271,316.347 L 558.114,315.307 L 558.382,315.518 L 558.524,315.443 L 558.483,315.1 L 560.325,314.061 z M 566.847,315.88 L 567.979,316.196 L 567.664,317.328 L 566.056,317.523 L 565.849,317.154 L 566.847,315.88 z M 554.428,317.386 L 555.703,318.385 L 555.589,318.792 L 553.982,318.987 L 553.404,317.963 L 554.428,317.386 z M 568.135,321.209 L 568.712,322.233 L 567.689,322.81 L 566.414,321.811 L 566.527,321.404 L 568.135,321.209 z M 556.06,322.674 L 556.268,323.042 L 555.269,324.317 L 554.137,324.001 L 554.452,322.869 L 556.06,322.674 z M 564.002,324.889 L 565.277,325.888 L 564.961,327.02 L 563.829,326.704 L 563.634,325.096 L 564.002,324.889 z M 559.346,325.454 L 559.752,325.567 L 559.947,327.175 L 558.924,327.752 L 558.346,326.729 L 559.346,325.454 z"
         id="path3525" />
      <path
         style="fill:#ffe200;marker-start:none;marker-end:none"
         d="M 562.444,315.015 L 562.467,315.206 L 560.762,317.382 L 558.586,315.677 L 558.561,315.471 L 558.419,315.546 L 558.586,315.677 L 558.919,318.421 L 556.174,318.754 L 556.019,318.633 L 555.975,318.778 L 556.174,318.754 L 558.35,320.46 L 556.645,322.636 L 556.478,322.656 L 556.539,322.771 L 556.645,322.636 L 559.389,322.303 L 559.722,325.048 L 559.641,325.152 L 559.738,325.181 L 559.722,325.048 L 561.428,322.871 L 563.604,324.577 L 563.618,324.692 L 563.698,324.65 L 563.604,324.577 L 563.271,321.832 L 566.016,321.499 L 566.114,321.576 L 566.141,321.484 L 566.016,321.499 L 563.839,319.794 L 565.545,317.618 L 565.699,317.599 L 565.643,317.492 L 565.545,317.618 L 562.8,317.951 L 562.467,315.206 L 562.584,315.057 L 562.444,315.015 z M 560.762,317.382 L 561.663,318.089 L 560.055,318.284 L 560.762,317.382 z M 562.8,317.951 L 562.938,319.087 L 561.663,318.089 L 562.8,317.951 z M 560.055,318.284 L 559.057,319.558 L 558.919,318.421 L 560.055,318.284 z M 562.938,319.087 L 563.839,319.794 L 563.133,320.695 L 562.938,319.087 z M 559.057,319.558 L 559.251,321.166 L 558.35,320.46 L 559.057,319.558 z M 563.133,320.695 L 563.271,321.832 L 562.134,321.97 L 563.133,320.695 z M 559.251,321.166 L 560.526,322.165 L 559.389,322.303 L 559.251,321.166 z M 562.134,321.97 L 561.428,322.871 L 560.526,322.165 L 562.134,321.97 z"
         id="path3527" />
    </g>
    <g
       style="font-size:16px;stroke:none;stroke-width:0.164;stroke-linejoin:miter;stroke-miterlimit:79.84031677;font-family:Times New Roman"
       id="Group_22"
       stroke-miterlimit="79.8403193612775"
       transform="matrix(1.3354524,0,0,-1.3354524,-700.69451,471.11554)">
      <path
         style="fill:#ff7ffe;marker-start:none;marker-end:none"
         d="M 566.017,285.129 L 566.387,288.177 L 564.543,289.217 L 562.506,288.648 L 562.136,285.6 L 561.374,288.333 L 558.641,287.571 L 561.058,289.465 L 560.489,291.503 L 558.646,292.542 L 556.229,290.648 L 557.622,293.119 L 555.151,294.513 L 558.2,294.143 L 559.239,295.987 L 558.67,298.025 L 555.622,298.395 L 558.355,299.157 L 557.593,301.89 L 559.487,299.473 L 561.525,300.041 L 562.564,301.885 L 560.671,304.302 L 563.142,302.908 L 564.535,305.38 L 564.165,302.331 L 566.009,301.292 L 568.047,301.86 L 568.417,304.909 L 569.179,302.176 L 571.912,302.938 L 569.495,301.044 L 570.063,299.005 L 571.907,297.966 L 574.324,299.86 L 572.93,297.389 L 575.402,295.995 L 572.353,296.365 L 571.314,294.522 L 571.882,292.484 L 574.931,292.114 L 572.197,291.352 L 572.96,288.618 L 571.065,291.036 L 569.027,290.467 L 567.988,288.624 L 569.882,286.206 L 567.411,287.6 L 566.017,285.129 z M 567.411,287.6 L 567.988,288.624 L 566.989,289.899 L 566.582,289.785 L 566.387,288.177 L 567.411,287.6 z M 561.374,288.333 L 562.506,288.648 L 562.701,290.256 L 562.332,290.463 L 561.058,289.465 L 561.374,288.333 z M 564.543,289.217 L 566.582,289.785 L 566.625,290.143 L 566.765,290.184 L 566.989,289.899 L 569.027,290.467 L 570.067,292.31 L 569.824,292.62 L 569.88,292.726 L 570.274,292.679 L 571.314,294.522 L 570.745,296.56 L 570.323,296.611 L 570.296,296.703 L 570.632,296.967 L 570.063,299.005 L 568.22,300.045 L 567.879,299.778 L 567.799,299.82 L 567.852,300.252 L 566.009,301.292 L 563.97,300.723 L 563.92,300.309 L 563.822,300.28 L 563.564,300.61 L 561.525,300.041 L 560.486,298.198 L 560.72,297.899 L 560.66,297.783 L 560.278,297.83 L 559.239,295.987 L 559.807,293.948 L 560.157,293.906 L 560.2,293.76 L 559.921,293.541 L 560.489,291.503 L 562.332,290.463 L 562.6,290.674 L 562.742,290.599 L 562.701,290.256 L 564.543,289.217 z M 571.065,291.036 L 572.197,291.352 L 571.882,292.484 L 570.274,292.679 L 570.067,292.31 L 571.065,291.036 z M 558.646,292.542 L 559.921,293.541 L 559.807,293.948 L 558.2,294.143 L 557.622,293.119 L 558.646,292.542 z M 572.353,296.365 L 572.93,297.389 L 571.907,297.966 L 570.632,296.967 L 570.745,296.56 L 572.353,296.365 z M 560.278,297.83 L 560.486,298.198 L 559.487,299.473 L 558.355,299.157 L 558.67,298.025 L 560.278,297.83 z M 568.22,300.045 L 569.495,301.044 L 569.179,302.176 L 568.047,301.86 L 567.852,300.252 L 568.22,300.045 z M 563.564,300.61 L 563.97,300.723 L 564.165,302.331 L 563.142,302.908 L 562.564,301.885 L 563.564,300.61 z"
         id="path3530" />
      <path
         style="fill:#ffe200;marker-start:none;marker-end:none"
         d="M 566.662,290.171 L 566.685,290.362 L 564.98,292.538 L 562.804,290.833 L 562.779,290.627 L 562.637,290.702 L 562.804,290.833 L 563.137,293.577 L 560.392,293.91 L 560.237,293.789 L 560.193,293.934 L 560.392,293.91 L 562.568,295.616 L 560.863,297.792 L 560.696,297.812 L 560.757,297.927 L 560.863,297.792 L 563.607,297.459 L 563.94,300.204 L 563.859,300.308 L 563.956,300.337 L 563.94,300.204 L 565.646,298.027 L 567.822,299.733 L 567.836,299.848 L 567.916,299.806 L 567.822,299.733 L 567.489,296.988 L 570.234,296.655 L 570.332,296.732 L 570.359,296.64 L 570.234,296.655 L 568.057,294.95 L 569.763,292.774 L 569.917,292.755 L 569.861,292.648 L 569.763,292.774 L 567.018,293.107 L 566.685,290.362 L 566.802,290.213 L 566.662,290.171 z M 564.98,292.538 L 565.881,293.245 L 564.273,293.44 L 564.98,292.538 z M 567.018,293.107 L 567.156,294.243 L 565.881,293.245 L 567.018,293.107 z M 564.273,293.44 L 563.275,294.714 L 563.137,293.577 L 564.273,293.44 z M 567.156,294.243 L 568.057,294.95 L 567.351,295.851 L 567.156,294.243 z M 563.275,294.714 L 563.469,296.322 L 562.568,295.616 L 563.275,294.714 z M 567.351,295.851 L 567.489,296.988 L 566.352,297.126 L 567.351,295.851 z M 563.469,296.322 L 564.744,297.321 L 563.607,297.459 L 563.469,296.322 z M 566.352,297.126 L 565.646,298.027 L 564.744,297.321 L 566.352,297.126 z"
         id="path3532" />
    </g>
  </g>
</svg>
