<?xml version="1.0" encoding="UTF-8" standalone="no"?>
<!-- Created with Inkscape (http://www.inkscape.org/) -->
<svg
   xmlns:dc="http://purl.org/dc/elements/1.1/"
   xmlns:cc="http://creativecommons.org/ns#"
   xmlns:rdf="http://www.w3.org/1999/02/22-rdf-syntax-ns#"
   xmlns:svg="http://www.w3.org/2000/svg"
   xmlns="http://www.w3.org/2000/svg"
   xmlns:sodipodi="http://sodipodi.sourceforge.net/DTD/sodipodi-0.dtd"
   xmlns:inkscape="http://www.inkscape.org/namespaces/inkscape"
   width="100"
   height="100"
   id="svg5111"
   sodipodi:version="0.32"
   inkscape:version="0.46dev+devel"
   version="1.0"
   sodipodi:docname="_1010-solved.svg"
   inkscape:output_extension="org.inkscape.output.svg.inkscape">
  <defs
     id="defs5113" />
  <sodipodi:namedview
     id="base"
     pagecolor="#ffffff"
     bordercolor="#666666"
     borderopacity="1.0"
     gridtolerance="10000"
     guidetolerance="10"
     objecttolerance="10"
     inkscape:pageopacity="0.0"
     inkscape:pageshadow="2"
     inkscape:zoom="2.8"
     inkscape:cx="55.789141"
     inkscape:cy="49.305684"
     inkscape:document-units="px"
     inkscape:current-layer="layer1"
     width="100px"
     inkscape:window-width="784"
     inkscape:window-height="643"
     inkscape:window-x="44"
     inkscape:window-y="58" />
  <metadata
     id="metadata5116">
    <rdf:RDF>
      <cc:Work
         rdf:about="">
        <dc:format>image/svg+xml</dc:format>
        <dc:type
           rdf:resource="http://purl.org/dc/dcmitype/StillImage" />
      </cc:Work>
    </rdf:RDF>
  </metadata>
  <g
     inkscape:label="Layer 1"
     inkscape:groupmode="layer"
     id="layer1">
    <rect
       style="font-size:16px;fill:#000000;fill-opacity:0;stroke:none;stroke-width:0.23999999;stroke-linejoin:miter;stroke-miterlimit:79.84031677;font-family:Times New Roman"
       x="-99.842667"
       y="0.32132721"
       width="99.678673"
       height="99.678673"
       transform="scale(-1,1)"
       stroke-miterlimit="79.8403193612775"
       id="rect3383" />
    <rect
       style="font-size:16px;fill:#bf6200;stroke:none;stroke-width:0.249;stroke-linejoin:miter;stroke-miterlimit:79.84031677;font-family:Times New Roman"
       x="-100"
       y="33.492889"
       width="100"
       height="33.33289"
       transform="scale(-1,1)"
       stroke-miterlimit="79.8403193612775"
       id="rect3385" />
    <g
       style="font-size:16px;stroke:none;stroke-width:0.164;stroke-linejoin:miter;stroke-miterlimit:79.84031677;font-family:Times New Roman"
       id="Group_2"
       stroke-miterlimit="79.8403193612775"
       transform="matrix(1.3333156,0,0,-1.3333156,123.94635,470.72573)">
      <path
         style="fill:#ff7ffe;marker-start:none;marker-end:none"
         d="M -77.105,317.472 L -76.735,320.52 L -78.579,321.56 L -80.616,320.991 L -80.986,317.943 L -81.748,320.676 L -84.481,319.914 L -82.064,321.808 L -82.633,323.846 L -84.476,324.885 L -86.893,322.991 L -85.5,325.462 L -87.971,326.856 L -84.922,326.486 L -83.883,328.33 L -84.452,330.368 L -87.5,330.738 L -84.767,331.5 L -85.529,334.233 L -83.635,331.816 L -81.597,332.384 L -80.558,334.228 L -82.451,336.645 L -79.98,335.251 L -78.587,337.723 L -78.957,334.674 L -77.113,333.635 L -75.075,334.203 L -74.705,337.252 L -73.943,334.519 L -71.21,335.281 L -73.627,333.387 L -73.059,331.348 L -71.215,330.309 L -68.798,332.203 L -70.192,329.732 L -67.72,328.338 L -70.769,328.708 L -71.808,326.865 L -71.24,324.827 L -68.191,324.457 L -70.925,323.695 L -70.162,320.961 L -72.057,323.379 L -74.095,322.81 L -75.134,320.967 L -73.24,318.549 L -75.711,319.943 L -77.105,317.472 z M -75.711,319.943 L -75.134,320.967 L -76.133,322.242 L -76.54,322.128 L -76.735,320.52 L -75.711,319.943 z M -81.748,320.676 L -80.616,320.991 L -80.421,322.599 L -80.79,322.806 L -82.064,321.808 L -81.748,320.676 z M -78.579,321.56 L -76.54,322.128 L -76.497,322.486 L -76.357,322.527 L -76.133,322.242 L -74.095,322.81 L -73.055,324.653 L -73.298,324.963 L -73.242,325.069 L -72.848,325.022 L -71.808,326.865 L -72.377,328.903 L -72.799,328.954 L -72.826,329.046 L -72.49,329.31 L -73.059,331.348 L -74.902,332.388 L -75.243,332.121 L -75.323,332.163 L -75.27,332.595 L -77.113,333.635 L -79.152,333.066 L -79.202,332.652 L -79.3,332.623 L -79.558,332.953 L -81.597,332.384 L -82.636,330.541 L -82.402,330.242 L -82.462,330.126 L -82.844,330.173 L -83.883,328.33 L -83.315,326.291 L -82.965,326.249 L -82.922,326.103 L -83.201,325.884 L -82.633,323.846 L -80.79,322.806 L -80.522,323.017 L -80.38,322.942 L -80.421,322.599 L -78.579,321.56 z M -72.057,323.379 L -70.925,323.695 L -71.24,324.827 L -72.848,325.022 L -73.055,324.653 L -72.057,323.379 z M -84.476,324.885 L -83.201,325.884 L -83.315,326.291 L -84.922,326.486 L -85.5,325.462 L -84.476,324.885 z M -70.769,328.708 L -70.192,329.732 L -71.215,330.309 L -72.49,329.31 L -72.377,328.903 L -70.769,328.708 z M -82.844,330.173 L -82.636,330.541 L -83.635,331.816 L -84.767,331.5 L -84.452,330.368 L -82.844,330.173 z M -74.902,332.388 L -73.627,333.387 L -73.943,334.519 L -75.075,334.203 L -75.27,332.595 L -74.902,332.388 z M -79.558,332.953 L -79.152,333.066 L -78.957,334.674 L -79.98,335.251 L -80.558,334.228 L -79.558,332.953 z"
         id="path3430" />
      <path
         style="fill:#ffe200;marker-start:none;marker-end:none"
         d="M -76.46,322.514 L -76.437,322.705 L -78.142,324.881 L -80.318,323.176 L -80.343,322.97 L -80.485,323.045 L -80.318,323.176 L -79.985,325.92 L -82.73,326.253 L -82.885,326.132 L -82.929,326.277 L -82.73,326.253 L -80.554,327.959 L -82.259,330.135 L -82.426,330.155 L -82.365,330.27 L -82.259,330.135 L -79.515,329.802 L -79.182,332.547 L -79.263,332.651 L -79.166,332.68 L -79.182,332.547 L -77.476,330.37 L -75.3,332.076 L -75.286,332.191 L -75.206,332.149 L -75.3,332.076 L -75.633,329.331 L -72.888,328.998 L -72.79,329.075 L -72.763,328.983 L -72.888,328.998 L -75.065,327.293 L -73.359,325.117 L -73.205,325.098 L -73.261,324.991 L -73.359,325.117 L -76.104,325.45 L -76.437,322.705 L -76.32,322.556 L -76.46,322.514 z M -78.142,324.881 L -77.241,325.588 L -78.849,325.783 L -78.142,324.881 z M -76.104,325.45 L -75.966,326.586 L -77.241,325.588 L -76.104,325.45 z M -78.849,325.783 L -79.847,327.057 L -79.985,325.92 L -78.849,325.783 z M -75.966,326.586 L -75.065,327.293 L -75.771,328.194 L -75.966,326.586 z M -79.847,327.057 L -79.653,328.665 L -80.554,327.959 L -79.847,327.057 z M -75.771,328.194 L -75.633,329.331 L -76.77,329.469 L -75.771,328.194 z M -79.653,328.665 L -78.378,329.664 L -79.515,329.802 L -79.653,328.665 z M -76.77,329.469 L -77.476,330.37 L -78.378,329.664 L -76.77,329.469 z"
         id="path3432" />
    </g>
    <g
       style="font-size:16px;stroke:none;stroke-width:0.164;stroke-linejoin:miter;stroke-miterlimit:79.84031677;font-family:Times New Roman"
       id="Group_3"
       stroke-miterlimit="79.8403193612775"
       transform="matrix(1.3333156,0,0,-1.3333156,123.94635,470.72573)">
      <path
         style="fill:#ff7ffe;marker-start:none;marker-end:none"
         d="M -38.668,293.566 L -38.298,296.614 L -40.142,297.654 L -42.179,297.085 L -42.549,294.037 L -43.311,296.77 L -46.044,296.008 L -43.627,297.902 L -44.196,299.94 L -46.039,300.979 L -48.456,299.085 L -47.063,301.556 L -49.534,302.95 L -46.485,302.58 L -45.446,304.424 L -46.015,306.462 L -49.063,306.832 L -46.33,307.594 L -47.092,310.327 L -45.198,307.91 L -43.16,308.478 L -42.121,310.322 L -44.014,312.739 L -41.543,311.345 L -40.15,313.817 L -40.52,310.768 L -38.676,309.729 L -36.638,310.297 L -36.268,313.346 L -35.506,310.613 L -32.773,311.375 L -35.19,309.481 L -34.622,307.442 L -32.778,306.403 L -30.361,308.297 L -31.755,305.826 L -29.283,304.432 L -32.332,304.802 L -33.371,302.959 L -32.803,300.921 L -29.754,300.551 L -32.488,299.789 L -31.725,297.055 L -33.62,299.473 L -35.658,298.904 L -36.697,297.061 L -34.803,294.643 L -37.274,296.037 L -38.668,293.566 z M -37.274,296.037 L -36.697,297.061 L -37.696,298.336 L -38.103,298.222 L -38.298,296.614 L -37.274,296.037 z M -43.311,296.77 L -42.179,297.085 L -41.984,298.693 L -42.353,298.9 L -43.627,297.902 L -43.311,296.77 z M -40.142,297.654 L -38.103,298.222 L -38.06,298.58 L -37.92,298.621 L -37.696,298.336 L -35.658,298.904 L -34.618,300.747 L -34.861,301.057 L -34.805,301.163 L -34.411,301.116 L -33.371,302.959 L -33.94,304.997 L -34.362,305.048 L -34.389,305.14 L -34.053,305.404 L -34.622,307.442 L -36.465,308.482 L -36.806,308.215 L -36.886,308.257 L -36.833,308.689 L -38.676,309.729 L -40.715,309.16 L -40.765,308.746 L -40.863,308.717 L -41.121,309.047 L -43.16,308.478 L -44.199,306.635 L -43.965,306.336 L -44.025,306.22 L -44.407,306.267 L -45.446,304.424 L -44.878,302.385 L -44.528,302.343 L -44.485,302.197 L -44.764,301.978 L -44.196,299.94 L -42.353,298.9 L -42.085,299.111 L -41.943,299.036 L -41.984,298.693 L -40.142,297.654 z M -33.62,299.473 L -32.488,299.789 L -32.803,300.921 L -34.411,301.116 L -34.618,300.747 L -33.62,299.473 z M -46.039,300.979 L -44.764,301.978 L -44.878,302.385 L -46.485,302.58 L -47.063,301.556 L -46.039,300.979 z M -32.332,304.802 L -31.755,305.826 L -32.778,306.403 L -34.053,305.404 L -33.94,304.997 L -32.332,304.802 z M -44.407,306.267 L -44.199,306.635 L -45.198,307.91 L -46.33,307.594 L -46.015,306.462 L -44.407,306.267 z M -36.465,308.482 L -35.19,309.481 L -35.506,310.613 L -36.638,310.297 L -36.833,308.689 L -36.465,308.482 z M -41.121,309.047 L -40.715,309.16 L -40.52,310.768 L -41.543,311.345 L -42.121,310.322 L -41.121,309.047 z"
         id="path3435" />
      <path
         style="fill:#ffe200;marker-start:none;marker-end:none"
         d="M -38.023,298.608 L -38,298.799 L -39.705,300.975 L -41.881,299.27 L -41.906,299.064 L -42.048,299.139 L -41.881,299.27 L -41.548,302.014 L -44.293,302.347 L -44.448,302.226 L -44.492,302.371 L -44.293,302.347 L -42.117,304.053 L -43.822,306.229 L -43.989,306.249 L -43.928,306.364 L -43.822,306.229 L -41.078,305.896 L -40.745,308.641 L -40.826,308.745 L -40.729,308.774 L -40.745,308.641 L -39.039,306.464 L -36.863,308.17 L -36.849,308.285 L -36.769,308.243 L -36.863,308.17 L -37.196,305.425 L -34.451,305.092 L -34.353,305.169 L -34.326,305.077 L -34.451,305.092 L -36.628,303.387 L -34.922,301.211 L -34.768,301.192 L -34.824,301.085 L -34.922,301.211 L -37.667,301.544 L -38,298.799 L -37.883,298.65 L -38.023,298.608 z M -39.705,300.975 L -38.804,301.682 L -40.412,301.877 L -39.705,300.975 z M -37.667,301.544 L -37.529,302.68 L -38.804,301.682 L -37.667,301.544 z M -40.412,301.877 L -41.41,303.151 L -41.548,302.014 L -40.412,301.877 z M -37.529,302.68 L -36.628,303.387 L -37.334,304.288 L -37.529,302.68 z M -41.41,303.151 L -41.216,304.759 L -42.117,304.053 L -41.41,303.151 z M -37.334,304.288 L -37.196,305.425 L -38.333,305.563 L -37.334,304.288 z M -41.216,304.759 L -39.941,305.758 L -41.078,305.896 L -41.216,304.759 z M -38.333,305.563 L -39.039,306.464 L -39.941,305.758 L -38.333,305.563 z"
         id="path3437" />
    </g>
  </g>
</svg>
