<?xml version="1.0" encoding="UTF-8" standalone="no"?>
<!-- Created with Inkscape (http://www.inkscape.org/) -->
<svg
   xmlns:dc="http://purl.org/dc/elements/1.1/"
   xmlns:cc="http://creativecommons.org/ns#"
   xmlns:rdf="http://www.w3.org/1999/02/22-rdf-syntax-ns#"
   xmlns:svg="http://www.w3.org/2000/svg"
   xmlns="http://www.w3.org/2000/svg"
   xmlns:sodipodi="http://sodipodi.sourceforge.net/DTD/sodipodi-0.dtd"
   xmlns:inkscape="http://www.inkscape.org/namespaces/inkscape"
   width="100"
   height="100"
   id="svg5111"
   sodipodi:version="0.32"
   inkscape:version="0.46dev+devel"
   version="1.0"
   sodipodi:docname="_1011-solved.svg"
   inkscape:output_extension="org.inkscape.output.svg.inkscape">
  <defs
     id="defs5113" />
  <sodipodi:namedview
     id="base"
     pagecolor="#ffffff"
     bordercolor="#666666"
     borderopacity="1.0"
     gridtolerance="10000"
     guidetolerance="10"
     objecttolerance="10"
     inkscape:pageopacity="0.0"
     inkscape:pageshadow="2"
     inkscape:zoom="2.8"
     inkscape:cx="55.789141"
     inkscape:cy="49.305684"
     inkscape:document-units="px"
     inkscape:current-layer="layer1"
     width="100px"
     inkscape:window-width="784"
     inkscape:window-height="643"
     inkscape:window-x="44"
     inkscape:window-y="58" />
  <metadata
     id="metadata5116">
    <rdf:RDF>
      <cc:Work
         rdf:about="">
        <dc:format>image/svg+xml</dc:format>
        <dc:type
           rdf:resource="http://purl.org/dc/dcmitype/StillImage" />
      </cc:Work>
    </rdf:RDF>
  </metadata>
  <g
     inkscape:label="Layer 1"
     inkscape:groupmode="layer"
     id="layer1">
    <rect
       style="font-size:16px;fill:#000000;fill-opacity:0;stroke:none;stroke-width:0.23999999;stroke-linejoin:miter;stroke-miterlimit:79.84031677;font-family:Times New Roman"
       x="0.15733746"
       y="0.15865788"
       width="99.680008"
       height="99.680008"
       transform="matrix(0,1,1,0,0,0)"
       stroke-miterlimit="79.8403193612775"
       id="rect3399" />
    <path
       style="font-size:16px;fill:#bf6200;stroke:none;stroke-width:0.249;stroke-linejoin:miter;marker-start:none;marker-end:none;stroke-miterlimit:79.84031677;font-family:Times New Roman"
       d="M 100,66.665335 L 66.666668,66.665335 L 66.666668,100 L 33.332001,100 L 33.332001,66.665335 L 0,66.665335 L 0,33.330668 L 100,33.330668 L 100,66.665335 z"
       stroke-miterlimit="79.8403193612775"
       id="path3401" />
    <g
       style="font-size:16px;stroke:none;stroke-width:0.164;stroke-linejoin:miter;stroke-miterlimit:79.84031677;font-family:Times New Roman"
       id="Group_11"
       stroke-miterlimit="79.8403193612775"
       transform="matrix(1.3333334,0,0,-1.3333334,-290.69469,470.52668)">
      <path
         style="fill:#ff7ffe;marker-start:none;marker-end:none"
         d="M 244.456,317.472 L 244.826,320.52 L 242.982,321.56 L 240.945,320.991 L 240.575,317.943 L 239.813,320.676 L 237.08,319.914 L 239.497,321.808 L 238.928,323.846 L 237.085,324.885 L 234.668,322.991 L 236.061,325.462 L 233.59,326.856 L 236.639,326.486 L 237.678,328.33 L 237.109,330.368 L 234.061,330.738 L 236.794,331.5 L 236.032,334.233 L 237.926,331.816 L 239.964,332.384 L 241.003,334.228 L 239.11,336.645 L 241.581,335.251 L 242.974,337.723 L 242.604,334.674 L 244.448,333.635 L 246.486,334.203 L 246.856,337.252 L 247.618,334.519 L 250.351,335.281 L 247.934,333.387 L 248.502,331.348 L 250.346,330.309 L 252.763,332.203 L 251.369,329.732 L 253.841,328.338 L 250.792,328.708 L 249.753,326.865 L 250.321,324.827 L 253.37,324.457 L 250.636,323.695 L 251.399,320.961 L 249.504,323.379 L 247.466,322.81 L 246.427,320.967 L 248.321,318.549 L 245.85,319.943 L 244.456,317.472 z M 245.85,319.943 L 246.427,320.967 L 245.428,322.242 L 245.021,322.128 L 244.826,320.52 L 245.85,319.943 z M 239.813,320.676 L 240.945,320.991 L 241.14,322.599 L 240.771,322.806 L 239.497,321.808 L 239.813,320.676 z M 242.982,321.56 L 245.021,322.128 L 245.064,322.486 L 245.204,322.527 L 245.428,322.242 L 247.466,322.81 L 248.506,324.653 L 248.263,324.963 L 248.319,325.069 L 248.713,325.022 L 249.753,326.865 L 249.184,328.903 L 248.762,328.954 L 248.735,329.046 L 249.071,329.31 L 248.502,331.348 L 246.659,332.388 L 246.318,332.121 L 246.238,332.163 L 246.291,332.595 L 244.448,333.635 L 242.409,333.066 L 242.359,332.652 L 242.261,332.623 L 242.003,332.953 L 239.964,332.384 L 238.925,330.541 L 239.159,330.242 L 239.099,330.126 L 238.717,330.173 L 237.678,328.33 L 238.246,326.291 L 238.596,326.249 L 238.639,326.103 L 238.36,325.884 L 238.928,323.846 L 240.771,322.806 L 241.039,323.017 L 241.181,322.942 L 241.14,322.599 L 242.982,321.56 z M 249.504,323.379 L 250.636,323.695 L 250.321,324.827 L 248.713,325.022 L 248.506,324.653 L 249.504,323.379 z M 237.085,324.885 L 238.36,325.884 L 238.246,326.291 L 236.639,326.486 L 236.061,325.462 L 237.085,324.885 z M 250.792,328.708 L 251.369,329.732 L 250.346,330.309 L 249.071,329.31 L 249.184,328.903 L 250.792,328.708 z M 238.717,330.173 L 238.925,330.541 L 237.926,331.816 L 236.794,331.5 L 237.109,330.368 L 238.717,330.173 z M 246.659,332.388 L 247.934,333.387 L 247.618,334.519 L 246.486,334.203 L 246.291,332.595 L 246.659,332.388 z M 242.003,332.953 L 242.409,333.066 L 242.604,334.674 L 241.581,335.251 L 241.003,334.228 L 242.003,332.953 z"
         id="path3475" />
      <path
         style="fill:#ffe200;marker-start:none;marker-end:none"
         d="M 245.101,322.514 L 245.124,322.705 L 243.419,324.881 L 241.243,323.176 L 241.218,322.97 L 241.076,323.045 L 241.243,323.176 L 241.576,325.92 L 238.831,326.253 L 238.676,326.132 L 238.632,326.277 L 238.831,326.253 L 241.007,327.959 L 239.302,330.135 L 239.135,330.155 L 239.196,330.27 L 239.302,330.135 L 242.046,329.802 L 242.379,332.547 L 242.298,332.651 L 242.395,332.68 L 242.379,332.547 L 244.085,330.37 L 246.261,332.076 L 246.275,332.191 L 246.355,332.149 L 246.261,332.076 L 245.928,329.331 L 248.673,328.998 L 248.771,329.075 L 248.798,328.983 L 248.673,328.998 L 246.496,327.293 L 248.202,325.117 L 248.356,325.098 L 248.3,324.991 L 248.202,325.117 L 245.457,325.45 L 245.124,322.705 L 245.241,322.556 L 245.101,322.514 z M 243.419,324.881 L 244.32,325.588 L 242.712,325.783 L 243.419,324.881 z M 245.457,325.45 L 245.595,326.586 L 244.32,325.588 L 245.457,325.45 z M 242.712,325.783 L 241.714,327.057 L 241.576,325.92 L 242.712,325.783 z M 245.595,326.586 L 246.496,327.293 L 245.79,328.194 L 245.595,326.586 z M 241.714,327.057 L 241.908,328.665 L 241.007,327.959 L 241.714,327.057 z M 245.79,328.194 L 245.928,329.331 L 244.791,329.469 L 245.79,328.194 z M 241.908,328.665 L 243.183,329.664 L 242.046,329.802 L 241.908,328.665 z M 244.791,329.469 L 244.085,330.37 L 243.183,329.664 L 244.791,329.469 z"
         id="path3477" />
    </g>
    <g
       style="font-size:16px;stroke:none;stroke-width:0.164;stroke-linejoin:miter;stroke-miterlimit:79.84031677;font-family:Times New Roman"
       id="Group_12"
       stroke-miterlimit="79.8403193612775"
       transform="matrix(1.3333334,0,0,-1.3333334,-290.69469,470.52668)">
      <path
         style="fill:#ff7ffe;marker-start:none;marker-end:none"
         d="M 269.769,279.035 L 270.139,282.083 L 268.295,283.123 L 266.258,282.554 L 265.888,279.506 L 265.126,282.239 L 262.393,281.477 L 264.81,283.371 L 264.241,285.409 L 262.398,286.448 L 259.981,284.554 L 261.374,287.025 L 258.903,288.419 L 261.952,288.049 L 262.991,289.893 L 262.422,291.931 L 259.374,292.301 L 262.107,293.063 L 261.345,295.796 L 263.239,293.379 L 265.277,293.947 L 266.316,295.791 L 264.423,298.208 L 266.894,296.814 L 268.287,299.286 L 267.917,296.237 L 269.761,295.198 L 271.799,295.766 L 272.169,298.815 L 272.931,296.082 L 275.664,296.844 L 273.247,294.95 L 273.815,292.911 L 275.659,291.872 L 278.076,293.766 L 276.682,291.295 L 279.154,289.901 L 276.105,290.271 L 275.066,288.428 L 275.634,286.39 L 278.683,286.02 L 275.949,285.258 L 276.712,282.524 L 274.817,284.942 L 272.779,284.373 L 271.74,282.53 L 273.634,280.112 L 271.163,281.506 L 269.769,279.035 z M 271.163,281.506 L 271.74,282.53 L 270.741,283.805 L 270.334,283.691 L 270.139,282.083 L 271.163,281.506 z M 265.126,282.239 L 266.258,282.554 L 266.453,284.162 L 266.084,284.369 L 264.81,283.371 L 265.126,282.239 z M 268.295,283.123 L 270.334,283.691 L 270.377,284.049 L 270.517,284.09 L 270.741,283.805 L 272.779,284.373 L 273.819,286.216 L 273.576,286.526 L 273.632,286.632 L 274.026,286.585 L 275.066,288.428 L 274.497,290.466 L 274.075,290.517 L 274.048,290.609 L 274.384,290.873 L 273.815,292.911 L 271.972,293.951 L 271.631,293.684 L 271.551,293.726 L 271.604,294.158 L 269.761,295.198 L 267.722,294.629 L 267.672,294.215 L 267.574,294.186 L 267.316,294.516 L 265.277,293.947 L 264.238,292.104 L 264.472,291.805 L 264.412,291.689 L 264.03,291.736 L 262.991,289.893 L 263.559,287.854 L 263.909,287.812 L 263.952,287.666 L 263.673,287.447 L 264.241,285.409 L 266.084,284.369 L 266.352,284.58 L 266.494,284.505 L 266.453,284.162 L 268.295,283.123 z M 274.817,284.942 L 275.949,285.258 L 275.634,286.39 L 274.026,286.585 L 273.819,286.216 L 274.817,284.942 z M 262.398,286.448 L 263.673,287.447 L 263.559,287.854 L 261.952,288.049 L 261.374,287.025 L 262.398,286.448 z M 276.105,290.271 L 276.682,291.295 L 275.659,291.872 L 274.384,290.873 L 274.497,290.466 L 276.105,290.271 z M 264.03,291.736 L 264.238,292.104 L 263.239,293.379 L 262.107,293.063 L 262.422,291.931 L 264.03,291.736 z M 271.972,293.951 L 273.247,294.95 L 272.931,296.082 L 271.799,295.766 L 271.604,294.158 L 271.972,293.951 z M 267.316,294.516 L 267.722,294.629 L 267.917,296.237 L 266.894,296.814 L 266.316,295.791 L 267.316,294.516 z"
         id="path3480" />
      <path
         style="fill:#ffe200;marker-start:none;marker-end:none"
         d="M 270.414,284.077 L 270.437,284.268 L 268.732,286.444 L 266.556,284.739 L 266.531,284.533 L 266.389,284.608 L 266.556,284.739 L 266.889,287.483 L 264.144,287.816 L 263.989,287.695 L 263.945,287.84 L 264.144,287.816 L 266.32,289.522 L 264.615,291.698 L 264.448,291.718 L 264.509,291.833 L 264.615,291.698 L 267.359,291.365 L 267.692,294.11 L 267.611,294.214 L 267.708,294.243 L 267.692,294.11 L 269.398,291.933 L 271.574,293.639 L 271.588,293.754 L 271.668,293.712 L 271.574,293.639 L 271.241,290.894 L 273.986,290.561 L 274.084,290.638 L 274.111,290.546 L 273.986,290.561 L 271.809,288.856 L 273.515,286.68 L 273.669,286.661 L 273.613,286.554 L 273.515,286.68 L 270.77,287.013 L 270.437,284.268 L 270.554,284.119 L 270.414,284.077 z M 268.732,286.444 L 269.633,287.151 L 268.025,287.346 L 268.732,286.444 z M 270.77,287.013 L 270.908,288.149 L 269.633,287.151 L 270.77,287.013 z M 268.025,287.346 L 267.027,288.62 L 266.889,287.483 L 268.025,287.346 z M 270.908,288.149 L 271.809,288.856 L 271.103,289.757 L 270.908,288.149 z M 267.027,288.62 L 267.221,290.228 L 266.32,289.522 L 267.027,288.62 z M 271.103,289.757 L 271.241,290.894 L 270.104,291.032 L 271.103,289.757 z M 267.221,290.228 L 268.496,291.227 L 267.359,291.365 L 267.221,290.228 z M 270.104,291.032 L 269.398,291.933 L 268.496,291.227 L 270.104,291.032 z"
         id="path3482" />
    </g>
    <g
       style="font-size:16px;stroke:none;stroke-width:0.164;stroke-linejoin:miter;stroke-miterlimit:79.84031677;font-family:Times New Roman"
       id="Group_13"
       stroke-miterlimit="79.8403193612775"
       transform="matrix(1.3333334,0,0,-1.3333334,-290.69469,470.52668)">
      <path
         style="fill:#ff7ffe;marker-start:none;marker-end:none"
         d="M 270.706,297.316 L 271.076,300.364 L 269.232,301.404 L 267.195,300.835 L 266.825,297.787 L 266.063,300.52 L 263.33,299.758 L 265.747,301.652 L 265.178,303.69 L 263.335,304.729 L 260.918,302.835 L 262.311,305.306 L 259.84,306.7 L 262.889,306.33 L 263.928,308.174 L 263.359,310.212 L 260.311,310.582 L 263.044,311.344 L 262.282,314.077 L 264.176,311.66 L 266.214,312.228 L 267.253,314.072 L 265.36,316.489 L 267.831,315.095 L 269.224,317.567 L 268.854,314.518 L 270.698,313.479 L 272.736,314.047 L 273.106,317.096 L 273.868,314.363 L 276.601,315.125 L 274.184,313.231 L 274.752,311.192 L 276.596,310.153 L 279.013,312.047 L 277.619,309.576 L 280.091,308.182 L 277.042,308.552 L 276.003,306.709 L 276.571,304.671 L 279.62,304.301 L 276.886,303.539 L 277.649,300.805 L 275.754,303.223 L 273.716,302.654 L 272.677,300.811 L 274.571,298.393 L 272.1,299.787 L 270.706,297.316 z M 272.1,299.787 L 272.677,300.811 L 271.678,302.086 L 271.271,301.972 L 271.076,300.364 L 272.1,299.787 z M 266.063,300.52 L 267.195,300.835 L 267.39,302.443 L 267.021,302.65 L 265.747,301.652 L 266.063,300.52 z M 269.232,301.404 L 271.271,301.972 L 271.314,302.33 L 271.454,302.371 L 271.678,302.086 L 273.716,302.654 L 274.756,304.497 L 274.513,304.807 L 274.569,304.913 L 274.963,304.866 L 276.003,306.709 L 275.434,308.747 L 275.012,308.798 L 274.985,308.89 L 275.321,309.154 L 274.752,311.192 L 272.909,312.232 L 272.568,311.965 L 272.488,312.007 L 272.541,312.439 L 270.698,313.479 L 268.659,312.91 L 268.609,312.496 L 268.511,312.467 L 268.253,312.797 L 266.214,312.228 L 265.175,310.385 L 265.409,310.086 L 265.349,309.97 L 264.967,310.017 L 263.928,308.174 L 264.496,306.135 L 264.846,306.093 L 264.889,305.947 L 264.61,305.728 L 265.178,303.69 L 267.021,302.65 L 267.289,302.861 L 267.431,302.786 L 267.39,302.443 L 269.232,301.404 z M 275.754,303.223 L 276.886,303.539 L 276.571,304.671 L 274.963,304.866 L 274.756,304.497 L 275.754,303.223 z M 263.335,304.729 L 264.61,305.728 L 264.496,306.135 L 262.889,306.33 L 262.311,305.306 L 263.335,304.729 z M 277.042,308.552 L 277.619,309.576 L 276.596,310.153 L 275.321,309.154 L 275.434,308.747 L 277.042,308.552 z M 264.967,310.017 L 265.175,310.385 L 264.176,311.66 L 263.044,311.344 L 263.359,310.212 L 264.967,310.017 z M 272.909,312.232 L 274.184,313.231 L 273.868,314.363 L 272.736,314.047 L 272.541,312.439 L 272.909,312.232 z M 268.253,312.797 L 268.659,312.91 L 268.854,314.518 L 267.831,315.095 L 267.253,314.072 L 268.253,312.797 z"
         id="path3485" />
      <path
         style="fill:#ffe200;marker-start:none;marker-end:none"
         d="M 271.351,302.358 L 271.374,302.549 L 269.669,304.725 L 267.493,303.02 L 267.468,302.814 L 267.326,302.889 L 267.493,303.02 L 267.826,305.764 L 265.081,306.097 L 264.926,305.976 L 264.882,306.121 L 265.081,306.097 L 267.257,307.803 L 265.552,309.979 L 265.385,309.999 L 265.446,310.114 L 265.552,309.979 L 268.296,309.646 L 268.629,312.391 L 268.548,312.495 L 268.645,312.524 L 268.629,312.391 L 270.335,310.214 L 272.511,311.92 L 272.525,312.035 L 272.605,311.993 L 272.511,311.92 L 272.178,309.175 L 274.923,308.842 L 275.021,308.919 L 275.048,308.827 L 274.923,308.842 L 272.746,307.137 L 274.452,304.961 L 274.606,304.942 L 274.55,304.835 L 274.452,304.961 L 271.707,305.294 L 271.374,302.549 L 271.491,302.4 L 271.351,302.358 z M 269.669,304.725 L 270.57,305.432 L 268.962,305.627 L 269.669,304.725 z M 271.707,305.294 L 271.845,306.43 L 270.57,305.432 L 271.707,305.294 z M 268.962,305.627 L 267.964,306.901 L 267.826,305.764 L 268.962,305.627 z M 271.845,306.43 L 272.746,307.137 L 272.04,308.038 L 271.845,306.43 z M 267.964,306.901 L 268.158,308.509 L 267.257,307.803 L 267.964,306.901 z M 272.04,308.038 L 272.178,309.175 L 271.041,309.313 L 272.04,308.038 z M 268.158,308.509 L 269.433,309.508 L 268.296,309.646 L 268.158,308.509 z M 271.041,309.313 L 270.335,310.214 L 269.433,309.508 L 271.041,309.313 z"
         id="path3487" />
    </g>
  </g>
</svg>
