<?xml version="1.0" encoding="UTF-8" standalone="no"?>
<!-- Created with Inkscape (http://www.inkscape.org/) -->
<svg
   xmlns:dc="http://purl.org/dc/elements/1.1/"
   xmlns:cc="http://creativecommons.org/ns#"
   xmlns:rdf="http://www.w3.org/1999/02/22-rdf-syntax-ns#"
   xmlns:svg="http://www.w3.org/2000/svg"
   xmlns="http://www.w3.org/2000/svg"
   xmlns:sodipodi="http://sodipodi.sourceforge.net/DTD/sodipodi-0.dtd"
   xmlns:inkscape="http://www.inkscape.org/namespaces/inkscape"
   width="100"
   height="100"
   id="svg5111"
   sodipodi:version="0.32"
   inkscape:version="0.46dev+devel"
   version="1.0"
   sodipodi:docname="_1100-solved.svg"
   inkscape:output_extension="org.inkscape.output.svg.inkscape">
  <defs
     id="defs5113" />
  <sodipodi:namedview
     id="base"
     pagecolor="#ffffff"
     bordercolor="#666666"
     borderopacity="1.0"
     gridtolerance="10000"
     guidetolerance="10"
     objecttolerance="10"
     inkscape:pageopacity="0.0"
     inkscape:pageshadow="2"
     inkscape:zoom="2.8"
     inkscape:cx="55.789141"
     inkscape:cy="49.305684"
     inkscape:document-units="px"
     inkscape:current-layer="layer1"
     width="100px"
     inkscape:window-width="784"
     inkscape:window-height="643"
     inkscape:window-x="44"
     inkscape:window-y="58" />
  <metadata
     id="metadata5116">
    <rdf:RDF>
      <cc:Work
         rdf:about="">
        <dc:format>image/svg+xml</dc:format>
        <dc:type
           rdf:resource="http://purl.org/dc/dcmitype/StillImage" />
      </cc:Work>
    </rdf:RDF>
  </metadata>
  <g
     inkscape:label="Layer 1"
     inkscape:groupmode="layer"
     id="layer1">
    <rect
       style="font-size:16px;fill:#000000;fill-opacity:0;stroke:none;stroke-width:0.23999999;stroke-linejoin:miter;stroke-miterlimit:79.84031677;font-family:Times New Roman"
       x="-100"
       y="0.16159821"
       width="99.838402"
       height="99.838402"
       transform="scale(-1,1)"
       stroke-miterlimit="79.8403193612775"
       id="rect3403" />
    <path
       style="font-size:16px;fill:#bf6200;stroke:none;stroke-width:0.249;stroke-linejoin:miter;marker-start:none;marker-end:none;stroke-miterlimit:79.84031677;font-family:Times New Roman"
       d="M 0,66.775287 L 0,33.38765 L 33.386301,33.38765 L 33.386301,0.0013495981 L 66.773938,0.0013495981 L 66.773938,66.756591 L 64.595818,66.756591 L 64.595818,66.775287 L 0,66.775287 z"
       stroke-miterlimit="79.8403193612775"
       id="path3405" />
    <g
       style="font-size:16px;stroke:none;stroke-width:0.164;stroke-linejoin:miter;stroke-miterlimit:79.84031677;font-family:Times New Roman"
       id="Group_14"
       stroke-miterlimit="79.8403193612775"
       transform="matrix(1.3354521,0,0,-1.3354521,-394.20809,471.28238)">
      <path
         style="fill:#ff7ffe;marker-start:none;marker-end:none"
         d="M 320.393,319.816 L 320.763,322.864 L 318.919,323.904 L 316.882,323.335 L 316.512,320.287 L 315.75,323.02 L 313.017,322.258 L 315.434,324.152 L 314.865,326.19 L 313.022,327.229 L 310.605,325.335 L 311.998,327.806 L 309.527,329.2 L 312.576,328.83 L 313.615,330.674 L 313.046,332.712 L 309.998,333.082 L 312.731,333.844 L 311.969,336.577 L 313.863,334.16 L 315.901,334.728 L 316.94,336.572 L 315.047,338.989 L 317.518,337.595 L 318.911,340.067 L 318.541,337.018 L 320.385,335.979 L 322.423,336.547 L 322.793,339.596 L 323.555,336.863 L 326.288,337.625 L 323.871,335.731 L 324.439,333.692 L 326.283,332.653 L 328.7,334.547 L 327.306,332.076 L 329.778,330.682 L 326.729,331.052 L 325.69,329.209 L 326.258,327.171 L 329.307,326.801 L 326.573,326.039 L 327.336,323.305 L 325.441,325.723 L 323.403,325.154 L 322.364,323.311 L 324.258,320.893 L 321.787,322.287 L 320.393,319.816 z M 321.787,322.287 L 322.364,323.311 L 321.365,324.586 L 320.958,324.472 L 320.763,322.864 L 321.787,322.287 z M 315.75,323.02 L 316.882,323.335 L 317.077,324.943 L 316.708,325.15 L 315.434,324.152 L 315.75,323.02 z M 318.919,323.904 L 320.958,324.472 L 321.001,324.83 L 321.141,324.871 L 321.365,324.586 L 323.403,325.154 L 324.443,326.997 L 324.2,327.307 L 324.256,327.413 L 324.65,327.366 L 325.69,329.209 L 325.121,331.247 L 324.699,331.298 L 324.672,331.39 L 325.008,331.654 L 324.439,333.692 L 322.596,334.732 L 322.255,334.465 L 322.175,334.507 L 322.228,334.939 L 320.385,335.979 L 318.346,335.41 L 318.296,334.996 L 318.198,334.967 L 317.94,335.297 L 315.901,334.728 L 314.862,332.885 L 315.096,332.586 L 315.036,332.47 L 314.654,332.517 L 313.615,330.674 L 314.183,328.635 L 314.533,328.593 L 314.576,328.447 L 314.297,328.228 L 314.865,326.19 L 316.708,325.15 L 316.976,325.361 L 317.118,325.286 L 317.077,324.943 L 318.919,323.904 z M 325.441,325.723 L 326.573,326.039 L 326.258,327.171 L 324.65,327.366 L 324.443,326.997 L 325.441,325.723 z M 313.022,327.229 L 314.297,328.228 L 314.183,328.635 L 312.576,328.83 L 311.998,327.806 L 313.022,327.229 z M 326.729,331.052 L 327.306,332.076 L 326.283,332.653 L 325.008,331.654 L 325.121,331.247 L 326.729,331.052 z M 314.654,332.517 L 314.862,332.885 L 313.863,334.16 L 312.731,333.844 L 313.046,332.712 L 314.654,332.517 z M 322.596,334.732 L 323.871,335.731 L 323.555,336.863 L 322.423,336.547 L 322.228,334.939 L 322.596,334.732 z M 317.94,335.297 L 318.346,335.41 L 318.541,337.018 L 317.518,337.595 L 316.94,336.572 L 317.94,335.297 z"
         id="path3490" />
      <path
         style="fill:#ffe200;marker-start:none;marker-end:none"
         d="M 321.038,324.858 L 321.061,325.049 L 319.356,327.225 L 317.18,325.52 L 317.155,325.314 L 317.013,325.389 L 317.18,325.52 L 317.513,328.264 L 314.768,328.597 L 314.613,328.476 L 314.569,328.621 L 314.768,328.597 L 316.944,330.303 L 315.239,332.479 L 315.072,332.499 L 315.133,332.614 L 315.239,332.479 L 317.983,332.146 L 318.316,334.891 L 318.235,334.995 L 318.332,335.024 L 318.316,334.891 L 320.022,332.714 L 322.198,334.42 L 322.212,334.535 L 322.292,334.493 L 322.198,334.42 L 321.865,331.675 L 324.61,331.342 L 324.708,331.419 L 324.735,331.327 L 324.61,331.342 L 322.433,329.637 L 324.139,327.461 L 324.293,327.442 L 324.237,327.335 L 324.139,327.461 L 321.394,327.794 L 321.061,325.049 L 321.178,324.9 L 321.038,324.858 z M 319.356,327.225 L 320.257,327.932 L 318.649,328.127 L 319.356,327.225 z M 321.394,327.794 L 321.532,328.93 L 320.257,327.932 L 321.394,327.794 z M 318.649,328.127 L 317.651,329.401 L 317.513,328.264 L 318.649,328.127 z M 321.532,328.93 L 322.433,329.637 L 321.727,330.538 L 321.532,328.93 z M 317.651,329.401 L 317.845,331.009 L 316.944,330.303 L 317.651,329.401 z M 321.727,330.538 L 321.865,331.675 L 320.728,331.813 L 321.727,330.538 z M 317.845,331.009 L 319.12,332.008 L 317.983,332.146 L 317.845,331.009 z M 320.728,331.813 L 320.022,332.714 L 319.12,332.008 L 320.728,331.813 z"
         id="path3492" />
    </g>
    <g
       style="font-size:16px;stroke:none;stroke-width:0.164;stroke-linejoin:miter;stroke-miterlimit:79.84031677;font-family:Times New Roman"
       id="Group_15"
       stroke-miterlimit="79.8403193612775"
       transform="matrix(1.3354521,0,0,-1.3354521,-394.20809,471.28238)">
      <path
         style="fill:#ff7ffe;marker-start:none;marker-end:none"
         d="M 342.893,295.441 L 343.263,298.489 L 341.419,299.529 L 339.382,298.96 L 339.012,295.912 L 338.25,298.645 L 335.517,297.883 L 337.934,299.777 L 337.365,301.815 L 335.522,302.854 L 333.105,300.96 L 334.498,303.431 L 332.027,304.825 L 335.076,304.455 L 336.115,306.299 L 335.546,308.337 L 332.498,308.707 L 335.231,309.469 L 334.469,312.202 L 336.363,309.785 L 338.401,310.353 L 339.44,312.197 L 337.547,314.614 L 340.018,313.22 L 341.411,315.692 L 341.041,312.643 L 342.885,311.604 L 344.923,312.172 L 345.293,315.221 L 346.055,312.488 L 348.788,313.25 L 346.371,311.356 L 346.939,309.317 L 348.783,308.278 L 351.2,310.172 L 349.806,307.701 L 352.278,306.307 L 349.229,306.677 L 348.19,304.834 L 348.758,302.796 L 351.807,302.426 L 349.073,301.664 L 349.836,298.93 L 347.941,301.348 L 345.903,300.779 L 344.864,298.936 L 346.758,296.518 L 344.287,297.912 L 342.893,295.441 z M 344.287,297.912 L 344.864,298.936 L 343.865,300.211 L 343.458,300.097 L 343.263,298.489 L 344.287,297.912 z M 338.25,298.645 L 339.382,298.96 L 339.577,300.568 L 339.208,300.775 L 337.934,299.777 L 338.25,298.645 z M 341.419,299.529 L 343.458,300.097 L 343.501,300.455 L 343.641,300.496 L 343.865,300.211 L 345.903,300.779 L 346.943,302.622 L 346.7,302.932 L 346.756,303.038 L 347.15,302.991 L 348.19,304.834 L 347.621,306.872 L 347.199,306.923 L 347.172,307.015 L 347.508,307.279 L 346.939,309.317 L 345.096,310.357 L 344.755,310.09 L 344.675,310.132 L 344.728,310.564 L 342.885,311.604 L 340.846,311.035 L 340.796,310.621 L 340.698,310.592 L 340.44,310.922 L 338.401,310.353 L 337.362,308.51 L 337.596,308.211 L 337.536,308.095 L 337.154,308.142 L 336.115,306.299 L 336.683,304.26 L 337.033,304.218 L 337.076,304.072 L 336.797,303.853 L 337.365,301.815 L 339.208,300.775 L 339.476,300.986 L 339.618,300.911 L 339.577,300.568 L 341.419,299.529 z M 347.941,301.348 L 349.073,301.664 L 348.758,302.796 L 347.15,302.991 L 346.943,302.622 L 347.941,301.348 z M 335.522,302.854 L 336.797,303.853 L 336.683,304.26 L 335.076,304.455 L 334.498,303.431 L 335.522,302.854 z M 349.229,306.677 L 349.806,307.701 L 348.783,308.278 L 347.508,307.279 L 347.621,306.872 L 349.229,306.677 z M 337.154,308.142 L 337.362,308.51 L 336.363,309.785 L 335.231,309.469 L 335.546,308.337 L 337.154,308.142 z M 345.096,310.357 L 346.371,311.356 L 346.055,312.488 L 344.923,312.172 L 344.728,310.564 L 345.096,310.357 z M 340.44,310.922 L 340.846,311.035 L 341.041,312.643 L 340.018,313.22 L 339.44,312.197 L 340.44,310.922 z"
         id="path3495" />
      <path
         style="fill:#ffe200;marker-start:none;marker-end:none"
         d="M 343.538,300.483 L 343.561,300.674 L 341.856,302.85 L 339.68,301.145 L 339.655,300.939 L 339.513,301.014 L 339.68,301.145 L 340.013,303.889 L 337.268,304.222 L 337.113,304.101 L 337.069,304.246 L 337.268,304.222 L 339.444,305.928 L 337.739,308.104 L 337.572,308.124 L 337.633,308.239 L 337.739,308.104 L 340.483,307.771 L 340.816,310.516 L 340.735,310.62 L 340.832,310.649 L 340.816,310.516 L 342.522,308.339 L 344.698,310.045 L 344.712,310.16 L 344.792,310.118 L 344.698,310.045 L 344.365,307.3 L 347.11,306.967 L 347.208,307.044 L 347.235,306.952 L 347.11,306.967 L 344.933,305.262 L 346.639,303.086 L 346.793,303.067 L 346.737,302.96 L 346.639,303.086 L 343.894,303.419 L 343.561,300.674 L 343.678,300.525 L 343.538,300.483 z M 341.856,302.85 L 342.757,303.557 L 341.149,303.752 L 341.856,302.85 z M 343.894,303.419 L 344.032,304.555 L 342.757,303.557 L 343.894,303.419 z M 341.149,303.752 L 340.151,305.026 L 340.013,303.889 L 341.149,303.752 z M 344.032,304.555 L 344.933,305.262 L 344.227,306.163 L 344.032,304.555 z M 340.151,305.026 L 340.345,306.634 L 339.444,305.928 L 340.151,305.026 z M 344.227,306.163 L 344.365,307.3 L 343.228,307.438 L 344.227,306.163 z M 340.345,306.634 L 341.62,307.633 L 340.483,307.771 L 340.345,306.634 z M 343.228,307.438 L 342.522,308.339 L 341.62,307.633 L 343.228,307.438 z"
         id="path3497" />
    </g>
  </g>
</svg>
