<?xml version="1.0" encoding="UTF-8" standalone="no"?>
<!-- Created with Inkscape (http://www.inkscape.org/) -->
<svg
   xmlns:dc="http://purl.org/dc/elements/1.1/"
   xmlns:cc="http://creativecommons.org/ns#"
   xmlns:rdf="http://www.w3.org/1999/02/22-rdf-syntax-ns#"
   xmlns:svg="http://www.w3.org/2000/svg"
   xmlns="http://www.w3.org/2000/svg"
   xmlns:sodipodi="http://sodipodi.sourceforge.net/DTD/sodipodi-0.dtd"
   xmlns:inkscape="http://www.inkscape.org/namespaces/inkscape"
   width="100"
   height="100"
   id="svg5111"
   sodipodi:version="0.32"
   inkscape:version="0.46dev+devel"
   version="1.0"
   sodipodi:docname="_1101-solved.svg"
   inkscape:output_extension="org.inkscape.output.svg.inkscape">
  <defs
     id="defs5113" />
  <sodipodi:namedview
     id="base"
     pagecolor="#ffffff"
     bordercolor="#666666"
     borderopacity="1.0"
     gridtolerance="10000"
     guidetolerance="10"
     objecttolerance="10"
     inkscape:pageopacity="0.0"
     inkscape:pageshadow="2"
     inkscape:zoom="2.8"
     inkscape:cx="55.789141"
     inkscape:cy="49.305684"
     inkscape:document-units="px"
     inkscape:current-layer="layer1"
     width="100px"
     inkscape:window-width="784"
     inkscape:window-height="643"
     inkscape:window-x="44"
     inkscape:window-y="58" />
  <metadata
     id="metadata5116">
    <rdf:RDF>
      <cc:Work
         rdf:about="">
        <dc:format>image/svg+xml</dc:format>
        <dc:type
           rdf:resource="http://purl.org/dc/dcmitype/StillImage" />
      </cc:Work>
    </rdf:RDF>
  </metadata>
  <g
     inkscape:label="Layer 1"
     inkscape:groupmode="layer"
     id="layer1">
    <rect
       style="font-size:16px;fill:#000000;fill-opacity:0;stroke:none;stroke-width:0.23999999;stroke-linejoin:miter;stroke-miterlimit:79.84031677;font-family:Times New Roman"
       x="-99.842682"
       y="0.15866034"
       width="99.68"
       height="99.68"
       transform="scale(-1,1)"
       stroke-miterlimit="79.8403193612775"
       id="rect3387" />
    <path
       style="font-size:16px;fill:#bf6200;stroke:none;stroke-width:0.249;stroke-linejoin:miter;marker-start:none;marker-end:none;stroke-miterlimit:79.84031677;font-family:Times New Roman"
       d="M 33.334667,100 L 33.334667,66.666667 L 0,66.666667 L 0,33.332 L 33.334667,33.332 L 33.334667,7.1054274e-015 L 66.669333,7.1054274e-015 L 66.669333,100 L 33.334667,100 z"
       stroke-miterlimit="79.8403193612775"
       id="path3389" />
    <g
       style="font-size:16px;stroke:none;stroke-width:0.164;stroke-linejoin:miter;stroke-miterlimit:79.84031677;font-family:Times New Roman"
       id="Group_4"
       stroke-miterlimit="79.8403193612775"
       transform="matrix(1.3333333,0,0,-1.3333333,20.425333,470.532)">
      <path
         style="fill:#ff7ffe;marker-start:none;marker-end:none"
         d="M 9.145,320.285 L 9.515,323.333 L 7.671,324.373 L 5.634,323.804 L 5.264,320.756 L 4.502,323.489 L 1.769,322.727 L 4.186,324.621 L 3.617,326.659 L 1.774,327.698 L -0.643,325.804 L 0.75,328.275 L -1.721,329.669 L 1.328,329.299 L 2.367,331.143 L 1.798,333.181 L -1.25,333.551 L 1.483,334.313 L 0.721,337.046 L 2.615,334.629 L 4.653,335.197 L 5.692,337.041 L 3.799,339.458 L 6.27,338.064 L 7.663,340.536 L 7.293,337.487 L 9.137,336.448 L 11.175,337.016 L 11.545,340.065 L 12.307,337.332 L 15.04,338.094 L 12.623,336.2 L 13.191,334.161 L 15.035,333.122 L 17.452,335.016 L 16.058,332.545 L 18.53,331.151 L 15.481,331.521 L 14.442,329.678 L 15.01,327.64 L 18.059,327.27 L 15.325,326.508 L 16.088,323.774 L 14.193,326.192 L 12.155,325.623 L 11.116,323.78 L 13.01,321.362 L 10.539,322.756 L 9.145,320.285 z M 10.539,322.756 L 11.116,323.78 L 10.117,325.055 L 9.71,324.941 L 9.515,323.333 L 10.539,322.756 z M 4.502,323.489 L 5.634,323.804 L 5.829,325.412 L 5.46,325.619 L 4.186,324.621 L 4.502,323.489 z M 7.671,324.373 L 9.71,324.941 L 9.753,325.299 L 9.893,325.34 L 10.117,325.055 L 12.155,325.623 L 13.195,327.466 L 12.952,327.776 L 13.008,327.882 L 13.402,327.835 L 14.442,329.678 L 13.873,331.716 L 13.451,331.767 L 13.424,331.859 L 13.76,332.123 L 13.191,334.161 L 11.348,335.201 L 11.007,334.934 L 10.927,334.976 L 10.98,335.408 L 9.137,336.448 L 7.098,335.879 L 7.048,335.465 L 6.95,335.436 L 6.692,335.766 L 4.653,335.197 L 3.614,333.354 L 3.848,333.055 L 3.788,332.939 L 3.406,332.986 L 2.367,331.143 L 2.935,329.104 L 3.285,329.062 L 3.328,328.916 L 3.049,328.697 L 3.617,326.659 L 5.46,325.619 L 5.728,325.83 L 5.87,325.755 L 5.829,325.412 L 7.671,324.373 z M 14.193,326.192 L 15.325,326.508 L 15.01,327.64 L 13.402,327.835 L 13.195,327.466 L 14.193,326.192 z M 1.774,327.698 L 3.049,328.697 L 2.935,329.104 L 1.328,329.299 L 0.75,328.275 L 1.774,327.698 z M 15.481,331.521 L 16.058,332.545 L 15.035,333.122 L 13.76,332.123 L 13.873,331.716 L 15.481,331.521 z M 3.406,332.986 L 3.614,333.354 L 2.615,334.629 L 1.483,334.313 L 1.798,333.181 L 3.406,332.986 z M 11.348,335.201 L 12.623,336.2 L 12.307,337.332 L 11.175,337.016 L 10.98,335.408 L 11.348,335.201 z M 6.692,335.766 L 7.098,335.879 L 7.293,337.487 L 6.27,338.064 L 5.692,337.041 L 6.692,335.766 z"
         id="path3440" />
      <path
         style="fill:#ffe200;marker-start:none;marker-end:none"
         d="M 9.79,325.327 L 9.813,325.518 L 8.108,327.694 L 5.932,325.989 L 5.907,325.783 L 5.765,325.858 L 5.932,325.989 L 6.265,328.733 L 3.52,329.066 L 3.365,328.945 L 3.321,329.09 L 3.52,329.066 L 5.696,330.772 L 3.991,332.948 L 3.824,332.968 L 3.885,333.083 L 3.991,332.948 L 6.735,332.615 L 7.068,335.36 L 6.987,335.464 L 7.084,335.493 L 7.068,335.36 L 8.774,333.183 L 10.95,334.889 L 10.964,335.004 L 11.044,334.962 L 10.95,334.889 L 10.617,332.144 L 13.362,331.811 L 13.46,331.888 L 13.487,331.796 L 13.362,331.811 L 11.185,330.106 L 12.891,327.93 L 13.045,327.911 L 12.989,327.804 L 12.891,327.93 L 10.146,328.263 L 9.813,325.518 L 9.93,325.369 L 9.79,325.327 z M 8.108,327.694 L 9.009,328.401 L 7.401,328.596 L 8.108,327.694 z M 10.146,328.263 L 10.284,329.399 L 9.009,328.401 L 10.146,328.263 z M 7.401,328.596 L 6.403,329.87 L 6.265,328.733 L 7.401,328.596 z M 10.284,329.399 L 11.185,330.106 L 10.479,331.007 L 10.284,329.399 z M 6.403,329.87 L 6.597,331.478 L 5.696,330.772 L 6.403,329.87 z M 10.479,331.007 L 10.617,332.144 L 9.48,332.282 L 10.479,331.007 z M 6.597,331.478 L 7.872,332.477 L 6.735,332.615 L 6.597,331.478 z M 9.48,332.282 L 8.774,333.183 L 7.872,332.477 L 9.48,332.282 z"
         id="path3442" />
    </g>
    <g
       style="font-size:16px;stroke:none;stroke-width:0.164;stroke-linejoin:miter;stroke-miterlimit:79.84031677;font-family:Times New Roman"
       id="Group_5"
       stroke-miterlimit="79.8403193612775"
       transform="matrix(1.3333333,0,0,-1.3333333,20.425333,470.532)">
      <path
         style="fill:#ff7ffe;marker-start:none;marker-end:none"
         d="M 34.926,287.004 L 35.296,290.052 L 33.452,291.092 L 31.415,290.523 L 31.045,287.475 L 30.283,290.208 L 27.55,289.446 L 29.967,291.34 L 29.398,293.378 L 27.555,294.417 L 25.138,292.523 L 26.531,294.994 L 24.06,296.388 L 27.109,296.018 L 28.148,297.862 L 27.579,299.9 L 24.531,300.27 L 27.264,301.032 L 26.502,303.765 L 28.396,301.348 L 30.434,301.916 L 31.473,303.76 L 29.58,306.177 L 32.051,304.783 L 33.444,307.255 L 33.074,304.206 L 34.918,303.167 L 36.956,303.735 L 37.326,306.784 L 38.088,304.051 L 40.821,304.813 L 38.404,302.919 L 38.972,300.88 L 40.816,299.841 L 43.233,301.735 L 41.839,299.264 L 44.311,297.87 L 41.262,298.24 L 40.223,296.397 L 40.791,294.359 L 43.84,293.989 L 41.106,293.227 L 41.869,290.493 L 39.974,292.911 L 37.936,292.342 L 36.897,290.499 L 38.791,288.081 L 36.32,289.475 L 34.926,287.004 z M 36.32,289.475 L 36.897,290.499 L 35.898,291.774 L 35.491,291.66 L 35.296,290.052 L 36.32,289.475 z M 30.283,290.208 L 31.415,290.523 L 31.61,292.131 L 31.241,292.338 L 29.967,291.34 L 30.283,290.208 z M 33.452,291.092 L 35.491,291.66 L 35.534,292.018 L 35.674,292.059 L 35.898,291.774 L 37.936,292.342 L 38.976,294.185 L 38.733,294.495 L 38.789,294.601 L 39.183,294.554 L 40.223,296.397 L 39.654,298.435 L 39.232,298.486 L 39.205,298.578 L 39.541,298.842 L 38.972,300.88 L 37.129,301.92 L 36.788,301.653 L 36.708,301.695 L 36.761,302.127 L 34.918,303.167 L 32.879,302.598 L 32.829,302.184 L 32.731,302.155 L 32.473,302.485 L 30.434,301.916 L 29.395,300.073 L 29.629,299.774 L 29.569,299.658 L 29.187,299.705 L 28.148,297.862 L 28.716,295.823 L 29.066,295.781 L 29.109,295.635 L 28.83,295.416 L 29.398,293.378 L 31.241,292.338 L 31.509,292.549 L 31.651,292.474 L 31.61,292.131 L 33.452,291.092 z M 39.974,292.911 L 41.106,293.227 L 40.791,294.359 L 39.183,294.554 L 38.976,294.185 L 39.974,292.911 z M 27.555,294.417 L 28.83,295.416 L 28.716,295.823 L 27.109,296.018 L 26.531,294.994 L 27.555,294.417 z M 41.262,298.24 L 41.839,299.264 L 40.816,299.841 L 39.541,298.842 L 39.654,298.435 L 41.262,298.24 z M 29.187,299.705 L 29.395,300.073 L 28.396,301.348 L 27.264,301.032 L 27.579,299.9 L 29.187,299.705 z M 37.129,301.92 L 38.404,302.919 L 38.088,304.051 L 36.956,303.735 L 36.761,302.127 L 37.129,301.92 z M 32.473,302.485 L 32.879,302.598 L 33.074,304.206 L 32.051,304.783 L 31.473,303.76 L 32.473,302.485 z"
         id="path3445" />
      <path
         style="fill:#ffe200;marker-start:none;marker-end:none"
         d="M 35.571,292.046 L 35.594,292.237 L 33.889,294.413 L 31.713,292.708 L 31.688,292.502 L 31.546,292.577 L 31.713,292.708 L 32.046,295.452 L 29.301,295.785 L 29.146,295.664 L 29.102,295.809 L 29.301,295.785 L 31.477,297.491 L 29.772,299.667 L 29.605,299.687 L 29.666,299.802 L 29.772,299.667 L 32.516,299.334 L 32.849,302.079 L 32.768,302.183 L 32.865,302.212 L 32.849,302.079 L 34.555,299.902 L 36.731,301.608 L 36.745,301.723 L 36.825,301.681 L 36.731,301.608 L 36.398,298.863 L 39.143,298.53 L 39.241,298.607 L 39.268,298.515 L 39.143,298.53 L 36.966,296.825 L 38.672,294.649 L 38.826,294.63 L 38.77,294.523 L 38.672,294.649 L 35.927,294.982 L 35.594,292.237 L 35.711,292.088 L 35.571,292.046 z M 33.889,294.413 L 34.79,295.12 L 33.182,295.315 L 33.889,294.413 z M 35.927,294.982 L 36.065,296.118 L 34.79,295.12 L 35.927,294.982 z M 33.182,295.315 L 32.184,296.589 L 32.046,295.452 L 33.182,295.315 z M 36.065,296.118 L 36.966,296.825 L 36.26,297.726 L 36.065,296.118 z M 32.184,296.589 L 32.378,298.197 L 31.477,297.491 L 32.184,296.589 z M 36.26,297.726 L 36.398,298.863 L 35.261,299.001 L 36.26,297.726 z M 32.378,298.197 L 33.653,299.196 L 32.516,299.334 L 32.378,298.197 z M 35.261,299.001 L 34.555,299.902 L 33.653,299.196 L 35.261,299.001 z"
         id="path3447" />
    </g>
  </g>
</svg>
