<?xml version="1.0" encoding="UTF-8" standalone="no"?>
<!-- Created with Inkscape (http://www.inkscape.org/) -->
<svg
   xmlns:dc="http://purl.org/dc/elements/1.1/"
   xmlns:cc="http://creativecommons.org/ns#"
   xmlns:rdf="http://www.w3.org/1999/02/22-rdf-syntax-ns#"
   xmlns:svg="http://www.w3.org/2000/svg"
   xmlns="http://www.w3.org/2000/svg"
   xmlns:sodipodi="http://sodipodi.sourceforge.net/DTD/sodipodi-0.dtd"
   xmlns:inkscape="http://www.inkscape.org/namespaces/inkscape"
   width="100"
   height="100"
   id="svg5111"
   sodipodi:version="0.32"
   inkscape:version="0.46dev+devel"
   version="1.0"
   sodipodi:docname="_1110-solved.svg"
   inkscape:output_extension="org.inkscape.output.svg.inkscape">
  <defs
     id="defs5113" />
  <sodipodi:namedview
     id="base"
     pagecolor="#ffffff"
     bordercolor="#666666"
     borderopacity="1.0"
     gridtolerance="10000"
     guidetolerance="10"
     objecttolerance="10"
     inkscape:pageopacity="0.0"
     inkscape:pageshadow="2"
     inkscape:zoom="2.8"
     inkscape:cx="55.789141"
     inkscape:cy="49.305684"
     inkscape:document-units="px"
     inkscape:current-layer="layer1"
     width="100px"
     inkscape:window-width="784"
     inkscape:window-height="643"
     inkscape:window-x="44"
     inkscape:window-y="58" />
  <metadata
     id="metadata5116">
    <rdf:RDF>
      <cc:Work
         rdf:about="">
        <dc:format>image/svg+xml</dc:format>
        <dc:type
           rdf:resource="http://purl.org/dc/dcmitype/StillImage" />
      </cc:Work>
    </rdf:RDF>
  </metadata>
  <g
     inkscape:label="Layer 1"
     inkscape:groupmode="layer"
     id="layer1">
    <rect
       style="font-size:16px;fill:#000000;fill-opacity:0;stroke:none;stroke-width:0.23999999;stroke-linejoin:miter;stroke-miterlimit:79.84031677;font-family:Times New Roman"
       x="-100"
       y="-99.841347"
       width="99.68"
       height="99.68"
       transform="matrix(0,-1,-1,0,0,0)"
       stroke-miterlimit="79.8403193612775"
       id="rect3391" />
    <path
       style="font-size:16px;fill:#bf6200;stroke:none;stroke-width:0.249;stroke-linejoin:miter;marker-start:none;marker-end:none;stroke-miterlimit:79.84031677;font-family:Times New Roman"
       d="M 0,33.492001 L 33.333333,33.492001 L 33.333333,0.15733491 L 66.667999,0.15733491 L 66.667999,33.492001 L 100,33.492001 L 100,66.826667 L 0,66.826667 L 0,33.492001 z"
       stroke-miterlimit="79.8403193612775"
       id="path3393" />
    <g
       style="font-size:16px;stroke:none;stroke-width:0.164;stroke-linejoin:miter;stroke-miterlimit:79.84031677;font-family:Times New Roman"
       id="Group_6"
       stroke-miterlimit="79.8403193612775"
       transform="matrix(1.3333333,0,0,-1.3333333,-83.132004,470.69065)">
      <path
         style="fill:#ff7ffe;marker-start:none;marker-end:none"
         d="M 78.519,318.879 L 78.889,321.927 L 77.045,322.967 L 75.008,322.398 L 74.638,319.35 L 73.876,322.083 L 71.143,321.321 L 73.56,323.215 L 72.991,325.253 L 71.148,326.292 L 68.731,324.398 L 70.124,326.869 L 67.653,328.263 L 70.702,327.893 L 71.741,329.737 L 71.172,331.775 L 68.124,332.145 L 70.857,332.907 L 70.095,335.64 L 71.989,333.223 L 74.027,333.791 L 75.066,335.635 L 73.173,338.052 L 75.644,336.658 L 77.037,339.13 L 76.667,336.081 L 78.511,335.042 L 80.549,335.61 L 80.919,338.659 L 81.681,335.926 L 84.414,336.688 L 81.997,334.794 L 82.565,332.755 L 84.409,331.716 L 86.826,333.61 L 85.432,331.139 L 87.904,329.745 L 84.855,330.115 L 83.816,328.272 L 84.384,326.234 L 87.433,325.864 L 84.699,325.102 L 85.462,322.368 L 83.567,324.786 L 81.529,324.217 L 80.49,322.374 L 82.384,319.956 L 79.913,321.35 L 78.519,318.879 z M 79.913,321.35 L 80.49,322.374 L 79.491,323.649 L 79.084,323.535 L 78.889,321.927 L 79.913,321.35 z M 73.876,322.083 L 75.008,322.398 L 75.203,324.006 L 74.834,324.213 L 73.56,323.215 L 73.876,322.083 z M 77.045,322.967 L 79.084,323.535 L 79.127,323.893 L 79.267,323.934 L 79.491,323.649 L 81.529,324.217 L 82.569,326.06 L 82.326,326.37 L 82.382,326.476 L 82.776,326.429 L 83.816,328.272 L 83.247,330.31 L 82.825,330.361 L 82.798,330.453 L 83.134,330.717 L 82.565,332.755 L 80.722,333.795 L 80.381,333.528 L 80.301,333.57 L 80.354,334.002 L 78.511,335.042 L 76.472,334.473 L 76.422,334.059 L 76.324,334.03 L 76.066,334.36 L 74.027,333.791 L 72.988,331.948 L 73.222,331.649 L 73.162,331.533 L 72.78,331.58 L 71.741,329.737 L 72.309,327.698 L 72.659,327.656 L 72.702,327.51 L 72.423,327.291 L 72.991,325.253 L 74.834,324.213 L 75.102,324.424 L 75.244,324.349 L 75.203,324.006 L 77.045,322.967 z M 83.567,324.786 L 84.699,325.102 L 84.384,326.234 L 82.776,326.429 L 82.569,326.06 L 83.567,324.786 z M 71.148,326.292 L 72.423,327.291 L 72.309,327.698 L 70.702,327.893 L 70.124,326.869 L 71.148,326.292 z M 84.855,330.115 L 85.432,331.139 L 84.409,331.716 L 83.134,330.717 L 83.247,330.31 L 84.855,330.115 z M 72.78,331.58 L 72.988,331.948 L 71.989,333.223 L 70.857,332.907 L 71.172,331.775 L 72.78,331.58 z M 80.722,333.795 L 81.997,334.794 L 81.681,335.926 L 80.549,335.61 L 80.354,334.002 L 80.722,333.795 z M 76.066,334.36 L 76.472,334.473 L 76.667,336.081 L 75.644,336.658 L 75.066,335.635 L 76.066,334.36 z"
         id="path3450" />
      <path
         style="fill:#ffe200;marker-start:none;marker-end:none"
         d="M 79.164,323.921 L 79.187,324.112 L 77.482,326.288 L 75.306,324.583 L 75.281,324.377 L 75.139,324.452 L 75.306,324.583 L 75.639,327.327 L 72.894,327.66 L 72.739,327.539 L 72.695,327.684 L 72.894,327.66 L 75.07,329.366 L 73.365,331.542 L 73.198,331.562 L 73.259,331.677 L 73.365,331.542 L 76.109,331.209 L 76.442,333.954 L 76.361,334.058 L 76.458,334.087 L 76.442,333.954 L 78.148,331.777 L 80.324,333.483 L 80.338,333.598 L 80.418,333.556 L 80.324,333.483 L 79.991,330.738 L 82.736,330.405 L 82.834,330.482 L 82.861,330.39 L 82.736,330.405 L 80.559,328.7 L 82.265,326.524 L 82.419,326.505 L 82.363,326.398 L 82.265,326.524 L 79.52,326.857 L 79.187,324.112 L 79.304,323.963 L 79.164,323.921 z M 77.482,326.288 L 78.383,326.995 L 76.775,327.19 L 77.482,326.288 z M 79.52,326.857 L 79.658,327.993 L 78.383,326.995 L 79.52,326.857 z M 76.775,327.19 L 75.777,328.464 L 75.639,327.327 L 76.775,327.19 z M 79.658,327.993 L 80.559,328.7 L 79.853,329.601 L 79.658,327.993 z M 75.777,328.464 L 75.971,330.072 L 75.07,329.366 L 75.777,328.464 z M 79.853,329.601 L 79.991,330.738 L 78.854,330.876 L 79.853,329.601 z M 75.971,330.072 L 77.246,331.071 L 76.109,331.209 L 75.971,330.072 z M 78.854,330.876 L 78.148,331.777 L 77.246,331.071 L 78.854,330.876 z"
         id="path3452" />
    </g>
    <g
       style="font-size:16px;stroke:none;stroke-width:0.164;stroke-linejoin:miter;stroke-miterlimit:79.84031677;font-family:Times New Roman"
       id="Group_7"
       stroke-miterlimit="79.8403193612775"
       transform="matrix(1.3333333,0,0,-1.3333333,-83.132004,470.69065)">
      <path
         style="fill:#ff7ffe;marker-start:none;marker-end:none"
         d="M 108.051,290.754 L 108.421,293.802 L 106.577,294.842 L 104.54,294.273 L 104.17,291.225 L 103.408,293.958 L 100.675,293.196 L 103.092,295.09 L 102.523,297.128 L 100.68,298.167 L 98.263,296.273 L 99.656,298.744 L 97.185,300.138 L 100.234,299.768 L 101.273,301.612 L 100.704,303.65 L 97.656,304.02 L 100.389,304.782 L 99.627,307.515 L 101.521,305.098 L 103.559,305.666 L 104.598,307.51 L 102.705,309.927 L 105.176,308.533 L 106.569,311.005 L 106.199,307.956 L 108.043,306.917 L 110.081,307.485 L 110.451,310.534 L 111.213,307.801 L 113.946,308.563 L 111.529,306.669 L 112.097,304.63 L 113.941,303.591 L 116.358,305.485 L 114.964,303.014 L 117.436,301.62 L 114.387,301.99 L 113.348,300.147 L 113.916,298.109 L 116.965,297.739 L 114.231,296.977 L 114.994,294.243 L 113.099,296.661 L 111.061,296.092 L 110.022,294.249 L 111.916,291.831 L 109.445,293.225 L 108.051,290.754 z M 109.445,293.225 L 110.022,294.249 L 109.023,295.524 L 108.616,295.41 L 108.421,293.802 L 109.445,293.225 z M 103.408,293.958 L 104.54,294.273 L 104.735,295.881 L 104.366,296.088 L 103.092,295.09 L 103.408,293.958 z M 106.577,294.842 L 108.616,295.41 L 108.659,295.768 L 108.799,295.809 L 109.023,295.524 L 111.061,296.092 L 112.101,297.935 L 111.858,298.245 L 111.914,298.351 L 112.308,298.304 L 113.348,300.147 L 112.779,302.185 L 112.357,302.236 L 112.33,302.328 L 112.666,302.592 L 112.097,304.63 L 110.254,305.67 L 109.913,305.403 L 109.833,305.445 L 109.886,305.877 L 108.043,306.917 L 106.004,306.348 L 105.954,305.934 L 105.856,305.905 L 105.598,306.235 L 103.559,305.666 L 102.52,303.823 L 102.754,303.524 L 102.694,303.408 L 102.312,303.455 L 101.273,301.612 L 101.841,299.573 L 102.191,299.531 L 102.234,299.385 L 101.955,299.166 L 102.523,297.128 L 104.366,296.088 L 104.634,296.299 L 104.776,296.224 L 104.735,295.881 L 106.577,294.842 z M 113.099,296.661 L 114.231,296.977 L 113.916,298.109 L 112.308,298.304 L 112.101,297.935 L 113.099,296.661 z M 100.68,298.167 L 101.955,299.166 L 101.841,299.573 L 100.234,299.768 L 99.656,298.744 L 100.68,298.167 z M 114.387,301.99 L 114.964,303.014 L 113.941,303.591 L 112.666,302.592 L 112.779,302.185 L 114.387,301.99 z M 102.312,303.455 L 102.52,303.823 L 101.521,305.098 L 100.389,304.782 L 100.704,303.65 L 102.312,303.455 z M 110.254,305.67 L 111.529,306.669 L 111.213,307.801 L 110.081,307.485 L 109.886,305.877 L 110.254,305.67 z M 105.598,306.235 L 106.004,306.348 L 106.199,307.956 L 105.176,308.533 L 104.598,307.51 L 105.598,306.235 z"
         id="path3455" />
      <path
         style="fill:#ffe200;marker-start:none;marker-end:none"
         d="M 108.696,295.796 L 108.719,295.987 L 107.014,298.163 L 104.838,296.458 L 104.813,296.252 L 104.671,296.327 L 104.838,296.458 L 105.171,299.202 L 102.426,299.535 L 102.271,299.414 L 102.227,299.559 L 102.426,299.535 L 104.602,301.241 L 102.897,303.417 L 102.73,303.437 L 102.791,303.552 L 102.897,303.417 L 105.641,303.084 L 105.974,305.829 L 105.893,305.933 L 105.99,305.962 L 105.974,305.829 L 107.68,303.652 L 109.856,305.358 L 109.87,305.473 L 109.95,305.431 L 109.856,305.358 L 109.523,302.613 L 112.268,302.28 L 112.366,302.357 L 112.393,302.265 L 112.268,302.28 L 110.091,300.575 L 111.797,298.399 L 111.951,298.38 L 111.895,298.273 L 111.797,298.399 L 109.052,298.732 L 108.719,295.987 L 108.836,295.838 L 108.696,295.796 z M 107.014,298.163 L 107.915,298.87 L 106.307,299.065 L 107.014,298.163 z M 109.052,298.732 L 109.19,299.868 L 107.915,298.87 L 109.052,298.732 z M 106.307,299.065 L 105.309,300.339 L 105.171,299.202 L 106.307,299.065 z M 109.19,299.868 L 110.091,300.575 L 109.385,301.476 L 109.19,299.868 z M 105.309,300.339 L 105.503,301.947 L 104.602,301.241 L 105.309,300.339 z M 109.385,301.476 L 109.523,302.613 L 108.386,302.751 L 109.385,301.476 z M 105.503,301.947 L 106.778,302.946 L 105.641,303.084 L 105.503,301.947 z M 108.386,302.751 L 107.68,303.652 L 106.778,302.946 L 108.386,302.751 z"
         id="path3457" />
    </g>
    <g
       style="font-size:16px;stroke:none;stroke-width:0.164;stroke-linejoin:miter;stroke-miterlimit:79.84031677;font-family:Times New Roman"
       id="Group_8"
       stroke-miterlimit="79.8403193612775"
       transform="matrix(1.3333333,0,0,-1.3333333,-83.132004,470.69065)">
      <path
         style="fill:#ff7ffe;marker-start:none;marker-end:none"
         d="M 114.613,331.066 L 114.983,334.114 L 113.139,335.154 L 111.102,334.585 L 110.732,331.537 L 109.97,334.27 L 107.237,333.508 L 109.654,335.402 L 109.085,337.44 L 107.242,338.479 L 104.825,336.585 L 106.218,339.056 L 103.747,340.45 L 106.796,340.08 L 107.835,341.924 L 107.266,343.962 L 104.218,344.332 L 106.951,345.094 L 106.189,347.827 L 108.083,345.41 L 110.121,345.978 L 111.16,347.822 L 109.267,350.239 L 111.738,348.845 L 113.131,351.317 L 112.761,348.268 L 114.605,347.229 L 116.643,347.797 L 117.013,350.846 L 117.775,348.113 L 120.508,348.875 L 118.091,346.981 L 118.659,344.942 L 120.503,343.903 L 122.92,345.797 L 121.526,343.326 L 123.998,341.932 L 120.949,342.302 L 119.91,340.459 L 120.478,338.421 L 123.527,338.051 L 120.793,337.289 L 121.556,334.555 L 119.661,336.973 L 117.623,336.404 L 116.584,334.561 L 118.478,332.143 L 116.007,333.537 L 114.613,331.066 z M 116.007,333.537 L 116.584,334.561 L 115.585,335.836 L 115.178,335.722 L 114.983,334.114 L 116.007,333.537 z M 109.97,334.27 L 111.102,334.585 L 111.297,336.193 L 110.928,336.4 L 109.654,335.402 L 109.97,334.27 z M 113.139,335.154 L 115.178,335.722 L 115.221,336.08 L 115.361,336.121 L 115.585,335.836 L 117.623,336.404 L 118.663,338.247 L 118.42,338.557 L 118.476,338.663 L 118.87,338.616 L 119.91,340.459 L 119.341,342.497 L 118.919,342.548 L 118.892,342.64 L 119.228,342.904 L 118.659,344.942 L 116.816,345.982 L 116.475,345.715 L 116.395,345.757 L 116.448,346.189 L 114.605,347.229 L 112.566,346.66 L 112.516,346.246 L 112.418,346.217 L 112.16,346.547 L 110.121,345.978 L 109.082,344.135 L 109.316,343.836 L 109.256,343.72 L 108.874,343.767 L 107.835,341.924 L 108.403,339.885 L 108.753,339.843 L 108.796,339.697 L 108.517,339.478 L 109.085,337.44 L 110.928,336.4 L 111.196,336.611 L 111.338,336.536 L 111.297,336.193 L 113.139,335.154 z M 119.661,336.973 L 120.793,337.289 L 120.478,338.421 L 118.87,338.616 L 118.663,338.247 L 119.661,336.973 z M 107.242,338.479 L 108.517,339.478 L 108.403,339.885 L 106.796,340.08 L 106.218,339.056 L 107.242,338.479 z M 120.949,342.302 L 121.526,343.326 L 120.503,343.903 L 119.228,342.904 L 119.341,342.497 L 120.949,342.302 z M 108.874,343.767 L 109.082,344.135 L 108.083,345.41 L 106.951,345.094 L 107.266,343.962 L 108.874,343.767 z M 116.816,345.982 L 118.091,346.981 L 117.775,348.113 L 116.643,347.797 L 116.448,346.189 L 116.816,345.982 z M 112.16,346.547 L 112.566,346.66 L 112.761,348.268 L 111.738,348.845 L 111.16,347.822 L 112.16,346.547 z"
         id="path3460" />
      <path
         style="fill:#ffe200;marker-start:none;marker-end:none"
         d="M 115.258,336.108 L 115.281,336.299 L 113.576,338.475 L 111.4,336.77 L 111.375,336.564 L 111.233,336.639 L 111.4,336.77 L 111.733,339.514 L 108.988,339.847 L 108.833,339.726 L 108.789,339.871 L 108.988,339.847 L 111.164,341.553 L 109.459,343.729 L 109.292,343.749 L 109.353,343.864 L 109.459,343.729 L 112.203,343.396 L 112.536,346.141 L 112.455,346.245 L 112.552,346.274 L 112.536,346.141 L 114.242,343.964 L 116.418,345.67 L 116.432,345.785 L 116.512,345.743 L 116.418,345.67 L 116.085,342.925 L 118.83,342.592 L 118.928,342.669 L 118.955,342.577 L 118.83,342.592 L 116.653,340.887 L 118.359,338.711 L 118.513,338.692 L 118.457,338.585 L 118.359,338.711 L 115.614,339.044 L 115.281,336.299 L 115.398,336.15 L 115.258,336.108 z M 113.576,338.475 L 114.477,339.182 L 112.869,339.377 L 113.576,338.475 z M 115.614,339.044 L 115.752,340.18 L 114.477,339.182 L 115.614,339.044 z M 112.869,339.377 L 111.871,340.651 L 111.733,339.514 L 112.869,339.377 z M 115.752,340.18 L 116.653,340.887 L 115.947,341.788 L 115.752,340.18 z M 111.871,340.651 L 112.065,342.259 L 111.164,341.553 L 111.871,340.651 z M 115.947,341.788 L 116.085,342.925 L 114.948,343.063 L 115.947,341.788 z M 112.065,342.259 L 113.34,343.258 L 112.203,343.396 L 112.065,342.259 z M 114.948,343.063 L 114.242,343.964 L 113.34,343.258 L 114.948,343.063 z"
         id="path3462" />
    </g>
  </g>
</svg>
