<?xml version="1.0" standalone="no"?>
<!-- Generator: Xara Xtreme (www.xara.com), SVG filter version: 0.4 -->
<!DOCTYPE svg PUBLIC "-//W3C//DTD SVG 1.1//EN" "http://www.w3.org/Graphics/SVG/1.1/DTD/svg11.dtd">
<svg stroke-width="0.501" stroke-linejoin="bevel" fill-rule="evenodd" xmlns:xlink="http://www.w3.org/1999/xlink" xmlns="http://www.w3.org/2000/svg" version="1.1" width="841.891pt" height="595.277pt" viewBox="0 0 841.891 595.277">
 <defs>
  <marker id="DefaultArrow2" markerUnits="strokeWidth" viewBox="0 0 1 1" markerWidth="1" markerHeight="1" overflow="visible" orient="auto">
   <!-- REF_ARROW_STRAIGHT (-2) -->
   <g transform="scale(0.0092592592)">
    <!-- 1/108 -->
    <path d="M -9 54 L -9 -54 L 117 0 z"/>
   </g>
  </marker>
  <marker id="DefaultArrow3" markerUnits="strokeWidth" viewBox="0 0 1 1" markerWidth="1" markerHeight="1" overflow="visible" orient="auto">
   <!-- REF_ARROW_ANGLED -->
   <g transform="scale(0.0092592592)">
    <path d="M -27 54 L -9 0 L -27 -54 L 135 0 z"/>
   </g>
  </marker>
  <marker id="DefaultArrow4" markerUnits="strokeWidth" viewBox="0 0 1 1" markerWidth="1" markerHeight="1" overflow="visible" orient="auto">
   <!-- REF_ARROW_ROUNDED -->
   <g transform="scale(0.0092592592)">
    <path d="M -9,0 L -9,-45 C -9,-51.708 2.808,-56.580 9,-54 L 117,-9 C 120.916,-7.369 126.000,-4.242 126,0 C 126,4.242 120.916,7.369 117,9 L 9,54 C 2.808,56.580 -9,51.708 -9,45 z"/>
   </g>
  </marker>
  <marker id="DefaultArrow5" markerUnits="strokeWidth" viewBox="0 0 1 1" markerWidth="1" markerHeight="1" overflow="visible" orient="auto">
   <!-- REF_ARROW_SPOT -->
   <g transform="scale(0.0092592592)">
    <path d="M -54, 0 C -54,29.807 -29.807,54 0,54 C 29.807,54 54,29.807 54,0 C 54,-29.807 29.807,-54 0,-54 C -29.807,-54 -54,-29.807 -54,0 z"/>
   </g>
  </marker>
  <marker id="DefaultArrow6" markerUnits="strokeWidth" viewBox="0 0 1 1" markerWidth="1" markerHeight="1" overflow="visible" orient="auto">
   <!-- REF_ARROW_DIAMOND -->
   <g transform="scale(0.0092592592)">
    <path d="M -63,0 L 0,63 L 63,0 L 0,-63 z"/>
   </g>
  </marker>
  <marker id="DefaultArrow7" markerUnits="strokeWidth" viewBox="0 0 1 1" markerWidth="1" markerHeight="1" overflow="visible" orient="auto">
   <!-- REF_ARROW_FEATHER -->
   <g transform="scale(0.0092592592)">
    <path d="M 18,-54 L 108,-54 L 63,0 L 108,54 L 18, 54 L -36,0 z"/>
   </g>
  </marker>
  <marker id="DefaultArrow8" markerUnits="strokeWidth" viewBox="0 0 1 1" markerWidth="1" markerHeight="1" overflow="visible" orient="auto">
   <!-- REF_ARROW_FEATHER2 -->
   <g transform="scale(0.0092592592)">
    <path d="M -36,0 L 18,-54 L 54,-54 L 18,-18 L 27,-18 L 63,-54 L 99,-54 L 63,-18 L 72,-18 L 108,-54 L 144,-54 L 90,0 L 144,54 L 108,54 L 72,18 L 63,18 L 99,54 L 63,54 L 27,18 L 18,18 L 54,54 L 18,54 z"/>
   </g>
  </marker>
  <marker id="DefaultArrow9" markerUnits="strokeWidth" viewBox="0 0 1 1" markerWidth="1" markerHeight="1" overflow="visible" orient="auto">
   <!-- REF_ARROW_HOLLOWDIAMOND -->
   <g transform="scale(0.0092592592)">
    <path d="M 0,45 L -45,0 L 0, -45 L 45, 0 z M 0, 63 L-63, 0 L 0, -63 L 63, 0 z"/>
   </g>
  </marker>
 </defs>
 <g id="Document" fill="none" stroke="black" font-family="Times New Roman" font-size="16" transform="scale(1 -1)">
  <g id="Spread" transform="translate(0 -595.277)">
   <g id="Layer 1">
    <rect x="-37.38" y="-37.38" width="74.76" height="74.76" transform="translate(73.381 311.255) rotate(180)" stroke="none" stroke-width="0.24" stroke-linejoin="miter" stroke-miterlimit="79.8403193612775"/>
    <rect x="-37.5" y="-12.5" width="75.001" height="25" transform="translate(73.382 311.255) rotate(90)" fill="#7f4100" stroke="none" stroke-width="0.249" stroke-linejoin="miter" stroke-miterlimit="79.8403193612775"/>
    <rect x="-37.38" y="-37.38" width="74.76" height="74.76" transform="translate(153.23 311.255) rotate(180)" stroke="none" stroke-width="0.24" stroke-linejoin="miter" stroke-miterlimit="79.8403193612775"/>
    <rect x="-37.5" y="-12.5" width="75.001" height="25" transform="translate(153.228 311.256) rotate(180)" fill="#7f4100" stroke="none" stroke-width="0.249" stroke-linejoin="miter" stroke-miterlimit="79.8403193612775"/>
    <rect x="-37.38" y="-37.38" width="74.76" height="74.76" transform="translate(73.381 399.033) rotate(180)" stroke="none" stroke-width="0.24" stroke-linejoin="miter" stroke-miterlimit="79.8403193612775"/>
    <rect x="-37.5" y="-12.5" width="75.001" height="25" transform="translate(73.382 399.033) rotate(90)" fill="#bf6200" stroke="none" stroke-width="0.249" stroke-linejoin="miter" stroke-miterlimit="79.8403193612775"/>
    <rect x="-37.38" y="-37.38" width="74.76" height="74.76" transform="translate(153.23 399.033) rotate(180)" stroke="none" stroke-width="0.24" stroke-linejoin="miter" stroke-miterlimit="79.8403193612775"/>
    <rect x="-37.5" y="-12.5" width="75.001" height="25" transform="translate(153.228 399.034) rotate(180)" fill="#bf6200" stroke="none" stroke-width="0.249" stroke-linejoin="miter" stroke-miterlimit="79.8403193612775"/>
    <rect x="-37.38" y="-37.38" width="74.76" height="74.76" transform="translate(230.871 311.255) rotate(180)" stroke="none" stroke-width="0.24" stroke-linejoin="miter" stroke-miterlimit="79.8403193612775"/>
    <path d="M 218.37,273.754 L 218.37,298.754 L 193.369,298.754 L 193.369,323.755 L 218.37,323.755 L 218.37,348.754 L 243.371,348.754 L 243.371,273.754 L 218.37,273.754 Z" stroke-linejoin="miter" fill="#7f4100" stroke-width="0.249" stroke="none" marker-start="none" marker-end="none" stroke-miterlimit="79.8403193612775"/>
    <rect x="-37.38" y="-37.38" width="74.76" height="74.76" transform="translate(308.538 311.253) rotate(90)" stroke="none" stroke-width="0.24" stroke-linejoin="miter" stroke-miterlimit="79.8403193612775"/>
    <path d="M 271.037,323.754 L 296.037,323.754 L 296.037,348.755 L 321.038,348.755 L 321.038,323.754 L 346.037,323.754 L 346.037,298.753 L 271.037,298.753 L 271.037,323.754 Z" stroke-linejoin="miter" fill="#7f4100" stroke-width="0.249" stroke="none" marker-start="none" marker-end="none" stroke-miterlimit="79.8403193612775"/>
    <rect x="-37.38" y="-37.38" width="74.76" height="74.76" transform="translate(386.54 311.252)" stroke="none" stroke-width="0.24" stroke-linejoin="miter" stroke-miterlimit="79.8403193612775"/>
    <path d="M 399.041,348.753 L 399.041,323.753 L 424.042,323.753 L 424.042,298.752 L 399.041,298.752 L 399.041,273.753 L 374.04,273.753 L 374.04,348.753 L 399.041,348.753 Z" stroke-linejoin="miter" fill="#7f4100" stroke-width="0.249" stroke="none" marker-start="none" marker-end="none" stroke-miterlimit="79.8403193612775"/>
    <rect x="-37.38" y="-37.38" width="74.76" height="74.76" transform="translate(464.208 311.252) rotate(-90)" stroke="none" stroke-width="0.24" stroke-linejoin="miter" stroke-miterlimit="79.8403193612775"/>
    <path d="M 501.709,298.751 L 476.709,298.751 L 476.709,273.75 L 451.708,273.75 L 451.708,298.751 L 426.709,298.751 L 426.709,323.752 L 501.709,323.752 L 501.709,298.751 Z" stroke-linejoin="miter" fill="#7f4100" stroke-width="0.249" stroke="none" marker-start="none" marker-end="none" stroke-miterlimit="79.8403193612775"/>
    <rect x="-37.38" y="-37.38" width="74.76" height="74.76" transform="translate(230.871 399.005) rotate(180)" stroke="none" stroke-width="0.24" stroke-linejoin="miter" stroke-miterlimit="79.8403193612775"/>
    <path d="M 218.37,361.504 L 218.37,386.504 L 193.369,386.504 L 193.369,411.505 L 218.37,411.505 L 218.37,436.504 L 243.371,436.504 L 243.371,361.504 L 218.37,361.504 Z" fill="#bf6200" stroke-linejoin="miter" stroke-width="0.249" stroke="none" marker-start="none" marker-end="none" stroke-miterlimit="79.8403193612775"/>
    <rect x="-37.38" y="-37.38" width="74.76" height="74.76" transform="translate(308.538 399.003) rotate(90)" stroke="none" stroke-width="0.24" stroke-linejoin="miter" stroke-miterlimit="79.8403193612775"/>
    <path d="M 271.037,411.504 L 296.037,411.504 L 296.037,436.505 L 321.038,436.505 L 321.038,411.504 L 346.037,411.504 L 346.037,386.503 L 271.037,386.503 L 271.037,411.504 Z" fill="#bf6200" stroke-linejoin="miter" stroke-width="0.249" stroke="none" marker-start="none" marker-end="none" stroke-miterlimit="79.8403193612775"/>
    <rect x="-37.38" y="-37.38" width="74.76" height="74.76" transform="translate(386.54 399.002)" stroke="none" stroke-width="0.24" stroke-linejoin="miter" stroke-miterlimit="79.8403193612775"/>
    <path d="M 399.041,436.503 L 399.041,411.503 L 424.042,411.503 L 424.042,386.502 L 399.041,386.502 L 399.041,361.503 L 374.04,361.503 L 374.04,436.503 L 399.041,436.503 Z" fill="#bf6200" stroke-linejoin="miter" stroke-width="0.249" stroke="none" marker-start="none" marker-end="none" stroke-miterlimit="79.8403193612775"/>
    <rect x="-37.38" y="-37.38" width="74.76" height="74.76" transform="translate(464.208 399.002) rotate(-90)" stroke="none" stroke-width="0.24" stroke-linejoin="miter" stroke-miterlimit="79.8403193612775"/>
    <path d="M 501.709,386.501 L 476.709,386.501 L 476.709,361.5 L 451.708,361.5 L 451.708,386.501 L 426.709,386.501 L 426.709,411.502 L 501.709,411.502 L 501.709,386.501 Z" fill="#bf6200" stroke-linejoin="miter" stroke-width="0.249" stroke="none" marker-start="none" marker-end="none" stroke-miterlimit="79.8403193612775"/>
    <rect x="-37.38" y="-37.38" width="74.76" height="74.76" transform="translate(541.376 311.255) rotate(180)" stroke="none" stroke-width="0.24" stroke-linejoin="miter" stroke-miterlimit="79.8403193612775"/>
    <path d="M 503.875,298.754 L 503.875,323.755 L 528.875,323.755 L 528.875,348.755 L 553.876,348.755 L 553.876,298.768 L 552.245,298.768 L 552.245,298.754 L 503.875,298.754 Z" stroke-linejoin="miter" fill="#7f4100" stroke-width="0.249" stroke="none" marker-start="none" marker-end="none" stroke-miterlimit="79.8403193612775"/>
    <rect x="-37.38" y="-37.38" width="74.76" height="74.76" transform="translate(618.25 311.253) rotate(90)" stroke="none" stroke-width="0.24" stroke-linejoin="miter" stroke-miterlimit="79.8403193612775"/>
    <path d="M 605.749,348.754 L 630.75,348.754 L 630.75,323.754 L 655.75,323.754 L 655.75,298.753 L 605.763,298.753 L 605.763,300.384 L 605.749,300.384 L 605.749,348.754 Z" stroke-linejoin="miter" fill="#7f4100" stroke-width="0.249" stroke="none" marker-start="none" marker-end="none" stroke-miterlimit="79.8403193612775"/>
    <rect x="-37.38" y="-37.38" width="74.76" height="74.76" transform="translate(694.379 311.252)" stroke="none" stroke-width="0.24" stroke-linejoin="miter" stroke-miterlimit="79.8403193612775"/>
    <path d="M 731.88,323.753 L 731.88,298.752 L 706.88,298.752 L 706.88,273.752 L 681.879,273.752 L 681.879,323.739 L 683.51,323.739 L 683.51,323.753 L 731.88,323.753 Z" stroke-linejoin="miter" fill="#7f4100" stroke-width="0.249" stroke="none" marker-start="none" marker-end="none" stroke-miterlimit="79.8403193612775"/>
    <rect x="-37.38" y="-37.38" width="74.76" height="74.76" transform="translate(770.875 311.251) rotate(-90)" stroke="none" stroke-width="0.24" stroke-linejoin="miter" stroke-miterlimit="79.8403193612775"/>
    <path d="M 783.376,273.75 L 758.375,273.75 L 758.375,298.75 L 733.375,298.75 L 733.375,323.751 L 783.362,323.751 L 783.362,322.12 L 783.376,322.12 L 783.376,273.75 Z" stroke-linejoin="miter" fill="#7f4100" stroke-width="0.249" stroke="none" marker-start="none" marker-end="none" stroke-miterlimit="79.8403193612775"/>
    <rect x="-37.38" y="-37.38" width="74.76" height="74.76" transform="translate(541.376 399.005) rotate(180)" stroke="none" stroke-width="0.24" stroke-linejoin="miter" stroke-miterlimit="79.8403193612775"/>
    <path d="M 503.875,386.504 L 503.875,411.505 L 528.875,411.505 L 528.875,436.505 L 553.876,436.505 L 553.876,386.518 L 552.245,386.518 L 552.245,386.504 L 503.875,386.504 Z" fill="#bf6200" stroke-linejoin="miter" stroke-width="0.249" stroke="none" marker-start="none" marker-end="none" stroke-miterlimit="79.8403193612775"/>
    <rect x="-37.38" y="-37.38" width="74.76" height="74.76" transform="translate(618.25 399.003) rotate(90)" stroke="none" stroke-width="0.24" stroke-linejoin="miter" stroke-miterlimit="79.8403193612775"/>
    <path d="M 605.749,436.504 L 630.75,436.504 L 630.75,411.504 L 655.75,411.504 L 655.75,386.503 L 605.763,386.503 L 605.763,388.134 L 605.749,388.134 L 605.749,436.504 Z" fill="#bf6200" stroke-linejoin="miter" stroke-width="0.249" stroke="none" marker-start="none" marker-end="none" stroke-miterlimit="79.8403193612775"/>
    <rect x="-37.38" y="-37.38" width="74.76" height="74.76" transform="translate(694.379 399.002)" stroke="none" stroke-width="0.24" stroke-linejoin="miter" stroke-miterlimit="79.8403193612775"/>
    <path d="M 731.88,411.503 L 731.88,386.502 L 706.88,386.502 L 706.88,361.502 L 681.879,361.502 L 681.879,411.489 L 683.51,411.489 L 683.51,411.503 L 731.88,411.503 Z" fill="#bf6200" stroke-linejoin="miter" stroke-width="0.249" stroke="none" marker-start="none" marker-end="none" stroke-miterlimit="79.8403193612775"/>
    <rect x="-37.38" y="-37.38" width="74.76" height="74.76" transform="translate(770.875 399.001) rotate(-90)" stroke="none" stroke-width="0.24" stroke-linejoin="miter" stroke-miterlimit="79.8403193612775"/>
    <path d="M 783.376,361.5 L 758.375,361.5 L 758.375,386.5 L 733.375,386.5 L 733.375,411.501 L 783.362,411.501 L 783.362,409.87 L 783.376,409.87 L 783.376,361.5 Z" fill="#bf6200" stroke-linejoin="miter" stroke-width="0.249" stroke="none" marker-start="none" marker-end="none" stroke-miterlimit="79.8403193612775"/>
   </g>
  </g>
 </g>
</svg>
