<?xml version="1.0" standalone="no"?>
<!-- Generator: Xara Xtreme (www.xara.com), SVG filter version: 0.4 -->
<!DOCTYPE svg PUBLIC "-//W3C//DTD SVG 1.1//EN" "http://www.w3.org/Graphics/SVG/1.1/DTD/svg11.dtd">
<svg stroke-width="0.501" stroke-linejoin="bevel" fill-rule="evenodd" xmlns:xlink="http://www.w3.org/1999/xlink" xmlns="http://www.w3.org/2000/svg" version="1.1" width="600pt" height="450pt" viewBox="0 0 600 450">
 <defs>
  <marker id="DefaultArrow2" markerUnits="strokeWidth" viewBox="0 0 1 1" markerWidth="1" markerHeight="1" overflow="visible" orient="auto">
   <!-- REF_ARROW_STRAIGHT (-2) -->
   <g transform="scale(0.0092592592)">
    <!-- 1/108 -->
    <path d="M -9 54 L -9 -54 L 117 0 z"/>
   </g>
  </marker>
  <marker id="DefaultArrow3" markerUnits="strokeWidth" viewBox="0 0 1 1" markerWidth="1" markerHeight="1" overflow="visible" orient="auto">
   <!-- REF_ARROW_ANGLED -->
   <g transform="scale(0.0092592592)">
    <path d="M -27 54 L -9 0 L -27 -54 L 135 0 z"/>
   </g>
  </marker>
  <marker id="DefaultArrow4" markerUnits="strokeWidth" viewBox="0 0 1 1" markerWidth="1" markerHeight="1" overflow="visible" orient="auto">
   <!-- REF_ARROW_ROUNDED -->
   <g transform="scale(0.0092592592)">
    <path d="M -9,0 L -9,-45 C -9,-51.708 2.808,-56.580 9,-54 L 117,-9 C 120.916,-7.369 126.000,-4.242 126,0 C 126,4.242 120.916,7.369 117,9 L 9,54 C 2.808,56.580 -9,51.708 -9,45 z"/>
   </g>
  </marker>
  <marker id="DefaultArrow5" markerUnits="strokeWidth" viewBox="0 0 1 1" markerWidth="1" markerHeight="1" overflow="visible" orient="auto">
   <!-- REF_ARROW_SPOT -->
   <g transform="scale(0.0092592592)">
    <path d="M -54, 0 C -54,29.807 -29.807,54 0,54 C 29.807,54 54,29.807 54,0 C 54,-29.807 29.807,-54 0,-54 C -29.807,-54 -54,-29.807 -54,0 z"/>
   </g>
  </marker>
  <marker id="DefaultArrow6" markerUnits="strokeWidth" viewBox="0 0 1 1" markerWidth="1" markerHeight="1" overflow="visible" orient="auto">
   <!-- REF_ARROW_DIAMOND -->
   <g transform="scale(0.0092592592)">
    <path d="M -63,0 L 0,63 L 63,0 L 0,-63 z"/>
   </g>
  </marker>
  <marker id="DefaultArrow7" markerUnits="strokeWidth" viewBox="0 0 1 1" markerWidth="1" markerHeight="1" overflow="visible" orient="auto">
   <!-- REF_ARROW_FEATHER -->
   <g transform="scale(0.0092592592)">
    <path d="M 18,-54 L 108,-54 L 63,0 L 108,54 L 18, 54 L -36,0 z"/>
   </g>
  </marker>
  <marker id="DefaultArrow8" markerUnits="strokeWidth" viewBox="0 0 1 1" markerWidth="1" markerHeight="1" overflow="visible" orient="auto">
   <!-- REF_ARROW_FEATHER2 -->
   <g transform="scale(0.0092592592)">
    <path d="M -36,0 L 18,-54 L 54,-54 L 18,-18 L 27,-18 L 63,-54 L 99,-54 L 63,-18 L 72,-18 L 108,-54 L 144,-54 L 90,0 L 144,54 L 108,54 L 72,18 L 63,18 L 99,54 L 63,54 L 27,18 L 18,18 L 54,54 L 18,54 z"/>
   </g>
  </marker>
  <marker id="DefaultArrow9" markerUnits="strokeWidth" viewBox="0 0 1 1" markerWidth="1" markerHeight="1" overflow="visible" orient="auto">
   <!-- REF_ARROW_HOLLOWDIAMOND -->
   <g transform="scale(0.0092592592)">
    <path d="M 0,45 L -45,0 L 0, -45 L 45, 0 z M 0, 63 L-63, 0 L 0, -63 L 63, 0 z"/>
   </g>
  </marker>
 </defs>
 <g id="Document" fill="none" stroke="black" font-family="Times New Roman" font-size="16" transform="scale(1 -1)">
  <g id="Spread" transform="translate(0 -450)">
   <g id="Layer 1">
    <g id="Group" stroke-linejoin="miter" stroke="none">
     <rect x="-37.38" y="-37.38" width="74.76" height="74.76" transform="translate(161.079 324.631) rotate(90)" stroke-width="0.24" stroke-miterlimit="79.8403193612775"/>
     <path d="M 148.578,337.132 L 148.578,362.133 L 173.579,362.133 L 173.579,337.132 C 165.246,331.467 156.911,330.944 148.578,337.132 Z" fill="#7f4100" stroke-width="0.249" marker-start="none" marker-end="none" stroke-miterlimit="79.8403193612775"/>
    </g>
    <g id="Group_1" stroke-linejoin="miter" stroke="none">
     <rect x="-37.38" y="-37.38" width="74.76" height="74.76" transform="translate(76.113 324.692) rotate(180)" stroke-width="0.24" stroke-miterlimit="79.8403193612775"/>
     <path d="M 63.612,312.191 L 38.611,312.191 L 38.611,337.192 L 63.612,337.192 C 69.277,328.859 69.8,320.524 63.612,312.191 Z" fill="#7f4100" stroke-width="0.249" marker-start="none" marker-end="none" stroke-miterlimit="79.8403193612775"/>
    </g>
    <g id="Group_2" stroke-linejoin="miter" stroke="none">
     <rect x="-37.38" y="-37.38" width="74.76" height="74.76" transform="translate(282.149 324.69)" stroke-width="0.24" stroke-miterlimit="79.8403193612775"/>
     <path d="M 294.65,337.191 L 319.651,337.191 L 319.651,312.19 L 294.65,312.19 C 288.985,320.523 288.462,328.858 294.65,337.191 Z" fill="#7f4100" stroke-width="0.249" marker-start="none" marker-end="none" stroke-miterlimit="79.8403193612775"/>
    </g>
    <g id="Group_3" stroke-linejoin="miter" stroke="none">
     <rect x="-37.38" y="-37.38" width="74.76" height="74.76" transform="translate(397.409 324.751) rotate(-90)" stroke-width="0.24" stroke-miterlimit="79.8403193612775"/>
     <path d="M 409.91,312.25 L 409.91,287.249 L 384.909,287.249 L 384.909,312.25 C 393.242,317.915 401.577,318.438 409.91,312.25 Z" fill="#7f4100" stroke-width="0.249" marker-start="none" marker-end="none" stroke-miterlimit="79.8403193612775"/>
    </g>
    <g id="Group_4" stroke-linejoin="miter" stroke="none">
     <rect x="-37.38" y="-37.38" width="74.76" height="74.76" transform="translate(161.079 202.808) rotate(90)" stroke-width="0.24" stroke-miterlimit="79.8403193612775"/>
     <path d="M 148.578,215.309 L 148.578,240.31 L 173.579,240.31 L 173.579,215.309 C 165.246,209.644 156.911,209.121 148.578,215.309 Z" fill="#bf6200" stroke-width="0.249" marker-start="none" marker-end="none" stroke-miterlimit="79.8403193612775"/>
    </g>
    <g id="Group_5" stroke-linejoin="miter" stroke="none">
     <rect x="-37.38" y="-37.38" width="74.76" height="74.76" transform="translate(76.113 202.869) rotate(180)" stroke-width="0.24" stroke-miterlimit="79.8403193612775"/>
     <path d="M 63.612,190.368 L 38.611,190.368 L 38.611,215.369 L 63.612,215.369 C 69.277,207.036 69.8,198.701 63.612,190.368 Z" fill="#bf6200" stroke-width="0.249" marker-start="none" marker-end="none" stroke-miterlimit="79.8403193612775"/>
    </g>
    <g id="Group_6" stroke-linejoin="miter" stroke="none">
     <rect x="-37.38" y="-37.38" width="74.76" height="74.76" transform="translate(282.149 202.867)" stroke-width="0.24" stroke-miterlimit="79.8403193612775"/>
     <path d="M 294.65,215.368 L 319.651,215.368 L 319.651,190.367 L 294.65,190.367 C 288.985,198.7 288.462,207.035 294.65,215.368 Z" fill="#bf6200" stroke-width="0.249" marker-start="none" marker-end="none" stroke-miterlimit="79.8403193612775"/>
    </g>
    <g id="Group_7" stroke-linejoin="miter" stroke="none">
     <rect x="-37.38" y="-37.38" width="74.76" height="74.76" transform="translate(397.409 202.928) rotate(-90)" stroke-width="0.24" stroke-miterlimit="79.8403193612775"/>
     <path d="M 409.91,190.427 L 409.91,165.426 L 384.909,165.426 L 384.909,190.427 C 393.242,196.092 401.577,196.615 409.91,190.427 Z" fill="#bf6200" stroke-width="0.249" marker-start="none" marker-end="none" stroke-miterlimit="79.8403193612775"/>
    </g>
   </g>
  </g>
 </g>
</svg>
