<?xml version="1.0" standalone="no"?>
<!-- Generator: Xara Xtreme (www.xara.com), SVG filter version: 0.4 -->
<!DOCTYPE svg PUBLIC "-//W3C//DTD SVG 1.1//EN" "http://www.w3.org/Graphics/SVG/1.1/DTD/svg11.dtd">
<svg stroke-width="0.501" stroke-linejoin="bevel" fill-rule="evenodd" xmlns:xlink="http://www.w3.org/1999/xlink" xmlns="http://www.w3.org/2000/svg" version="1.1" width="450pt" height="450pt" viewBox="0 0 450 450">
 <defs>
  <marker id="DefaultArrow2" markerUnits="strokeWidth" viewBox="0 0 1 1" markerWidth="1" markerHeight="1" overflow="visible" orient="auto">
   <!-- REF_ARROW_STRAIGHT (-2) -->
   <g transform="scale(0.0092592592)">
    <!-- 1/108 -->
    <path d="M -9 54 L -9 -54 L 117 0 z"/>
   </g>
  </marker>
  <marker id="DefaultArrow3" markerUnits="strokeWidth" viewBox="0 0 1 1" markerWidth="1" markerHeight="1" overflow="visible" orient="auto">
   <!-- REF_ARROW_ANGLED -->
   <g transform="scale(0.0092592592)">
    <path d="M -27 54 L -9 0 L -27 -54 L 135 0 z"/>
   </g>
  </marker>
  <marker id="DefaultArrow4" markerUnits="strokeWidth" viewBox="0 0 1 1" markerWidth="1" markerHeight="1" overflow="visible" orient="auto">
   <!-- REF_ARROW_ROUNDED -->
   <g transform="scale(0.0092592592)">
    <path d="M -9,0 L -9,-45 C -9,-51.708 2.808,-56.580 9,-54 L 117,-9 C 120.916,-7.369 126.000,-4.242 126,0 C 126,4.242 120.916,7.369 117,9 L 9,54 C 2.808,56.580 -9,51.708 -9,45 z"/>
   </g>
  </marker>
  <marker id="DefaultArrow5" markerUnits="strokeWidth" viewBox="0 0 1 1" markerWidth="1" markerHeight="1" overflow="visible" orient="auto">
   <!-- REF_ARROW_SPOT -->
   <g transform="scale(0.0092592592)">
    <path d="M -54, 0 C -54,29.807 -29.807,54 0,54 C 29.807,54 54,29.807 54,0 C 54,-29.807 29.807,-54 0,-54 C -29.807,-54 -54,-29.807 -54,0 z"/>
   </g>
  </marker>
  <marker id="DefaultArrow6" markerUnits="strokeWidth" viewBox="0 0 1 1" markerWidth="1" markerHeight="1" overflow="visible" orient="auto">
   <!-- REF_ARROW_DIAMOND -->
   <g transform="scale(0.0092592592)">
    <path d="M -63,0 L 0,63 L 63,0 L 0,-63 z"/>
   </g>
  </marker>
  <marker id="DefaultArrow7" markerUnits="strokeWidth" viewBox="0 0 1 1" markerWidth="1" markerHeight="1" overflow="visible" orient="auto">
   <!-- REF_ARROW_FEATHER -->
   <g transform="scale(0.0092592592)">
    <path d="M 18,-54 L 108,-54 L 63,0 L 108,54 L 18, 54 L -36,0 z"/>
   </g>
  </marker>
  <marker id="DefaultArrow8" markerUnits="strokeWidth" viewBox="0 0 1 1" markerWidth="1" markerHeight="1" overflow="visible" orient="auto">
   <!-- REF_ARROW_FEATHER2 -->
   <g transform="scale(0.0092592592)">
    <path d="M -36,0 L 18,-54 L 54,-54 L 18,-18 L 27,-18 L 63,-54 L 99,-54 L 63,-18 L 72,-18 L 108,-54 L 144,-54 L 90,0 L 144,54 L 108,54 L 72,18 L 63,18 L 99,54 L 63,54 L 27,18 L 18,18 L 54,54 L 18,54 z"/>
   </g>
  </marker>
  <marker id="DefaultArrow9" markerUnits="strokeWidth" viewBox="0 0 1 1" markerWidth="1" markerHeight="1" overflow="visible" orient="auto">
   <!-- REF_ARROW_HOLLOWDIAMOND -->
   <g transform="scale(0.0092592592)">
    <path d="M 0,45 L -45,0 L 0, -45 L 45, 0 z M 0, 63 L-63, 0 L 0, -63 L 63, 0 z"/>
   </g>
  </marker>
 </defs>
 <g id="Document" fill="none" stroke="black" font-family="Times New Roman" font-size="16" transform="scale(1 -1)">
  <g id="Spread" transform="translate(0 -450)">
   <g id="Layer 1">
    <g id="Group" stroke-linejoin="miter" stroke="none" stroke-width="1.746" stroke-miterlimit="79.8403193612775">
     <path d="M 397.219,429.152 C 405.707,433.42 408.889,428.107 413.469,422.041 C 415.428,411.185 413.851,405.319 411.28,394.984 C 395.642,364.402 368.616,348.824 361.645,313.572 C 361.414,312.407 363.193,312.025 363.423,313.22 C 370.573,349.437 413.912,356.587 429.991,387.983 C 433.225,401.17 433.868,416.025 431.387,429.884 C 422.549,441.555 409.532,445.442 393.161,437.237 C 387.759,434.555 391.845,426.44 397.219,429.152 Z" fill="#006c10" marker-start="none" marker-end="none"/>
     <path d="M 384.876,397.987 C 391.845,394.523 390.159,393.146 392.81,385.151 C 390.269,356.789 373.959,348.644 367.099,320.953 C 366.777,319.788 368.565,319.346 368.857,320.512 C 376.268,350.341 405.707,356.407 408.448,386.989 C 404.019,400.326 402.643,404.495 391.063,410.31 C 382.826,414.418 376.671,402.105 384.876,397.987 Z" fill="#006c10" marker-start="none" marker-end="none"/>
     <path d="M 410.467,297.321 C 409.644,307.555 410.929,302.515 409.382,312.117 C 408.95,314.767 407.434,315.64 404.893,314.767 C 387.266,308.409 375.445,277.737 392.98,267.994 C 412.706,257.137 431.447,276.19 438.708,288.534 C 444.173,326.789 415.86,354.188 378.769,335.134 C 357.528,324.198 353.128,292.44 358.03,262.501 C 358.2,261.306 360.008,261.597 359.807,262.791 C 355.659,288.041 368.214,311.583 386.101,320.834 C 407.695,331.901 423.804,317.097 420.62,294.841 C 417.004,288.624 410.989,277.154 401.035,282.607 C 391.414,287.95 397.48,304.934 407.192,308.409 C 409.703,309.343 402.291,313.693 402.733,311.061 C 404.19,301.75 404.45,306.832 405.244,296.91 C 405.536,293.435 410.728,293.846 410.467,297.321 Z" fill="#006c10" marker-start="none" marker-end="none"/>
     <path d="M 363.423,253.201 C 381.753,210.004 404.803,160.489 390.299,97.255 C 385.779,77.269 353.069,31.863 330.682,61.742 C 322.657,72.478 306.546,60.426 314.602,49.721 C 346.701,6.794 397.188,65.478 403.697,94.193 C 418.782,159.847 384.343,209.129 365.261,253.984 C 364.739,255.209 362.901,254.426 363.423,253.201 Z" fill="#337f00" marker-start="none" marker-end="none"/>
     <path d="M 313.466,59.402 C 305.703,55.524 298,53.014 286.471,52.111 C 245.151,57.243 217.401,77.671 187.2,94.454 C 159.098,110.032 125.925,124.011 92.069,107.088 C 85.621,100.64 81.454,93.951 77.425,83.688 C 73.369,59.08 79.986,31.009 100.415,24.299 C 130.938,14.176 145.099,44.558 121.637,60.196 C 120.643,60.868 119.649,59.371 120.643,58.709 C 134.03,49.75 123.093,34.344 105.637,40.119 C 92.481,44.467 93.293,62.706 95.925,78.573 C 98.698,85.635 98.758,87.183 103.188,91.591 C 130.826,105.421 155.514,91.451 178.472,78.726 C 210.602,60.899 242.118,39.506 286.038,34.023 C 300.25,35.127 311.217,40.059 320.729,44.818 C 330.45,49.69 323.159,64.252 313.466,59.402 Z" fill="#006c10" marker-start="none" marker-end="none"/>
     <path d="M 106.894,20.041 C 123.293,21.326 130.887,19.81 141.713,25.174 C 160.324,28.88 177.658,25.384 162.423,14.758 C 161.439,14.055 162.484,12.568 163.447,13.273 C 186.82,29.614 165.486,44.899 136.922,39.245 C 127.291,34.454 121.044,27.222 106.43,26.048 C 102.433,25.756 102.895,19.75 106.894,20.041 Z" fill="#006c10" marker-start="none" marker-end="none"/>
     <path d="M 286.471,52.984 C 252.363,61.452 231.211,73.211 204.797,89.662 C 181.837,103.934 154.258,127.778 114.515,119.924 C 101.118,117.333 85.913,93.78 79.845,83.625 C 77.778,71.082 80.951,55.203 85.851,45.371 C 87.609,41.896 92.831,44.498 91.084,47.992 C 86.877,56.368 91.697,67.898 93.475,78.636 C 98.285,86.629 106.341,105.631 116.906,107.701 C 153.384,114.912 179.818,96.553 200.92,83.446 C 227.767,66.734 251.368,59.843 286.038,51.207 C 287.203,50.945 287.645,52.663 286.471,52.984 Z" fill="#337f00" marker-start="none" marker-end="none"/>
     <path d="M 291.582,54.883 C 259.393,48.605 225.897,74.196 215.945,94.132 C 209.376,107.258 218.868,126.171 226.007,131.484 C 234.325,139.619 250.645,149.754 264.325,139.508 C 276.928,130.077 267.186,118.376 254.14,114.53 C 248.365,112.833 250.875,104.166 256.681,105.863 C 279.209,112.461 293.801,133.492 272.029,149.803 C 251.901,164.898 228.057,155.357 215.855,143.385 C 205.7,135.833 198.519,108.755 207.83,90.074 C 218.596,68.602 257.203,46.125 291.965,52.893 C 293.299,53.164 292.897,55.144 291.582,54.883 Z" fill="#006c10" marker-start="none" marker-end="none"/>
     <path d="M 323.74,49.509 C 337.632,52.954 343.467,54.27 352.567,61.512 C 356.393,69.265 360.159,76.214 363.332,84.179 C 364.969,92.294 365.15,101.133 365.15,113.827 C 365.15,121.682 360.561,127.015 354.906,121.561 L 344.109,111.055 C 343.206,110.241 343.436,109.568 344.601,109.308 L 359.315,106.094 C 364.507,104.899 349.071,119.14 349.071,113.827 C 349.071,102.539 348.659,96.171 347.262,88.97 C 344.191,81.437 343.345,79.157 339.761,71.835 C 332.198,65.879 333.052,61.13 321.551,58.297 C 315.686,56.841 317.875,48.052 323.74,49.509 Z" fill="#006c10" marker-start="none" marker-end="none"/>
     <path d="M 336.115,45.602 C 348.046,54.47 360.711,59.06 367.711,73.151 C 394.799,127.336 380.055,180.184 321.08,191.795 C 307.893,191.795 293.621,190.84 284.812,188.239 C 258.489,175.133 243.957,142.25 268.562,117.091 C 280.203,112.431 291.412,111.176 302.177,116.51 C 303.112,119.371 302.67,127.276 303.634,133.674 C 303.804,134.99 301.857,135.28 301.615,133.934 C 300.742,127.919 296.775,124.684 295.871,121.972 C 287.083,117.653 280.876,117.563 271.384,121.36 C 250.354,142.863 265.168,169.679 287.706,180.888 C 295.991,183.308 308.013,184.533 320.387,184.533 C 372.563,174.258 381.34,126.231 357.357,78.284 C 350.99,65.478 345.396,55.847 334.508,47.762 C 333.052,46.688 334.649,44.498 336.115,45.602 Z" fill="#006c10" marker-start="none" marker-end="none"/>
     <path d="M 346.991,46.334 C 374.08,56.95 390.972,85.173 390.972,122.847 C 390.972,182.956 347.725,216.753 297.648,208.488 C 275.703,204.119 273.435,195.822 262.897,181.731 C 259.453,177.091 266.373,171.928 269.808,176.539 C 278.244,187.858 282.825,189.877 300.39,193.371 C 341.768,200.201 377.524,172.481 377.524,122.847 C 377.524,89.081 369.58,60.165 345.304,50.653 C 342.442,49.509 344.14,45.19 346.991,46.334 Z" fill="#006c10" marker-start="none" marker-end="none"/>
     <path d="M 326.453,37.257 C 343.467,24.5 356.042,24.36 372.503,32.585 C 384.343,36.231 392.168,42.397 405.506,39.737 C 413.912,35.599 420.149,34.312 424.266,25.907 C 425.46,23.566 428.967,25.325 427.833,27.655 C 422.579,38.25 420.821,48.344 410.235,53.627 C 394.186,56.78 381.31,50.684 367.039,46.275 C 354.002,39.767 343.176,31.541 329.666,41.605 C 326.773,43.765 323.53,39.446 326.453,37.257 Z" fill="#006c10" marker-start="none" marker-end="none"/>
     <path d="M 337.099,40.319 C 369.499,40.319 379.683,53.215 403.546,53.396 L 412.335,51.145 C 414.051,50.653 414.755,51.327 414.253,53.074 L 411.109,64.423 C 410.467,66.613 408.277,66.553 405.997,66.522 C 381.08,66.321 370.895,42.157 337.099,42.157 C 335.904,42.157 335.904,40.319 337.099,40.319 Z" fill="#006c10" marker-start="none" marker-end="none"/>
     <path d="M 379.442,67.668 C 403.134,85.907 421.112,108.374 421.112,143.385 C 415.308,187.506 390.36,198.776 380.788,232.129 C 375.857,249.284 382.395,263.846 394.648,254.686 C 395.642,253.954 396.687,255.41 395.733,256.112 C 376.791,270.295 358.381,254.446 365.994,227.871 C 375.334,195.301 399.811,185.438 405.475,142.341 C 405.475,110.412 399.841,85.926 378.217,69.295 C 377.142,68.451 378.368,66.875 379.442,67.668 Z" fill="#006c10" marker-start="none" marker-end="none"/>
     <path d="M 368.857,230.201 C 365.442,244.061 368.153,257.83 370.724,274.322 C 370.895,275.548 367.189,269.42 368.183,270.153 C 375.655,275.727 370.192,280.419 378.428,276.31 C 379.502,275.748 380.296,277.386 379.242,277.908 C 366.195,284.415 372.352,289.317 360.51,280.478 C 359.486,279.725 358.17,277.505 357.97,276.281 C 355.288,258.564 363.423,244.643 367.099,229.759 C 367.39,228.595 369.118,229.035 368.857,230.201 Z" fill="#337f00" marker-start="none" marker-end="none"/>
     <path d="M 362.087,78.756 C 383.068,126.493 381.34,174.35 328.963,184.795 C 316.239,179.573 324.555,183.108 311.478,173.445 C 304.569,168.334 312.242,158.01 319.131,163.111 C 329.666,170.904 320.497,162.006 330.772,166.234 C 374.159,157.567 376.821,119.461 359.395,79.92 C 358.612,78.143 361.294,76.968 362.087,78.756 Z" fill="#337f00" marker-start="none" marker-end="none"/>
     <path d="M 331.092,63.319 C 341.508,71.574 391.726,119.251 348.75,130.751 C 343.928,132.037 339.961,130.55 337.541,126.201 L 332.349,117.011 C 326.011,105.682 342.061,96.03 349.071,106.999 L 354.786,115.867 C 357.357,119.893 338.918,112.572 343.557,111.347 C 372.733,103.523 335.734,72.017 328.672,66.412 C 326.594,64.775 329.055,61.712 331.092,63.319 Z" fill="#337f00" marker-start="none" marker-end="none"/>
     <path d="M 316.208,55.726 C 296.745,41.194 288.136,35.096 262.376,26.549 C 253.94,28.588 248.656,25.997 252.483,33.67 C 255.365,39.446 246.698,43.703 243.846,37.959 C 234.826,19.75 243.143,13.504 263.13,8.692 C 290.939,17.912 300.6,32.796 321.643,48.495 C 326.453,52.08 321.051,59.351 316.208,55.726 Z" fill="#006c10" marker-start="none" marker-end="none"/>
     <path d="M 298.844,45.955 C 273.192,41.755 239.557,26.61 223.005,48.695 C 220.877,51.557 222.071,35.478 223.768,38.632 C 228.58,47.561 220.464,41.283 229.986,48.434 C 239.698,55.696 228.81,70.288 219.098,63.029 C 203.11,51.036 215.302,62.526 207.247,47.501 C 205.56,44.377 205.821,40.29 207.98,37.407 C 227.877,10.792 268.261,38.713 299.165,43.765 C 300.631,43.995 300.31,46.185 298.844,45.955 Z" fill="#337f00" marker-start="none" marker-end="none"/>
     <path d="M 91.286,51.668 C 97.934,38.713 111.774,21.358 128.869,27.916 C 154.288,37.607 131.84,80.704 111.473,59.813 C 103.628,51.758 115.712,39.967 123.555,48.023 C 127.993,52.583 129.772,42.248 124.227,40.119 C 111.272,35.157 97.934,42.689 92.892,52.522 C 92.33,53.597 90.733,52.754 91.286,51.668 Z" fill="#006c10" marker-start="none" marker-end="none"/>
     <path d="M 212.68,84.068 C 193.829,97.577 110.66,161.043 85.069,111.115 C 79.002,99.324 96.679,90.225 102.755,102.006 C 124.379,144.179 195.165,93.287 211.104,81.849 C 212.56,80.793 214.138,83.015 212.68,84.068 Z" fill="#337f00" marker-start="none" marker-end="none"/>
     <path d="M 284.43,64.925 C 258.458,64.925 253.707,73 241.043,85.726 C 236.755,91.39 232.958,94.594 231.382,102.829 C 229.132,114.349 211.856,110.965 214.107,99.476 C 216.357,87.976 220.354,80.975 226.361,72.971 C 242.44,56.901 251.519,50.151 284.43,50.151 C 294.294,50.151 294.294,64.925 284.43,64.925 Z" fill="#006c10" marker-start="none" marker-end="none"/>
     <path d="M 385.107,199.649 C 369.64,225.562 366.777,260.522 355.228,289.848 C 354.112,292.651 349.502,274.734 350.497,277.566 L 354.324,288.041 C 355.258,290.632 355.076,290.924 352.456,291.717 L 341.768,294.982 C 334.277,297.291 334.186,290.02 337.078,282.698 C 348.75,253.079 367.772,224.778 383.389,198.624 C 384.083,197.459 385.811,198.513 385.107,199.649 Z" fill="#337f00" marker-start="none" marker-end="none"/>
     <path d="M 357.327,278.671 C 352.305,291.396 357.738,302.515 360.51,316.726 L 363.744,322.912 C 368.737,332.836 358.111,341.122 350.466,333.037 L 342.673,324.781 C 339.348,307.937 343.527,290.632 349.473,275.577 C 351.521,270.354 359.395,273.448 357.327,278.671 Z" fill="#006c10" marker-start="none" marker-end="none"/>
     <path d="M 314.401,46.688 C 348.659,72.358 318.89,110.091 300.893,73.875 C 296.654,65.418 318.167,63.058 315.888,72.248 C 312.653,85.083 316.851,76.997 308.043,88.789 C 306.496,90.858 303.865,91.852 301.355,91.36 C 284.692,88.146 290.879,93.691 284.11,80.012 C 277.249,73.413 267.628,72.649 264.615,55.495 C 264.325,53.657 265.197,49.951 266.282,48.465 C 273.143,39.325 281.248,36.413 296.072,34.224 C 320.969,41.866 321.643,42.046 321.643,64.865 C 321.643,69.827 319.102,72.57 314.17,72.971 C 296.954,74.406 294.414,72.741 283.697,62.062 L 277.17,61.33 C 264.967,58.528 268.703,39.856 280.876,42.889 L 292.395,45.783 C 298.643,51.97 302.82,57.564 312.824,56.751 C 317.785,56.338 305.352,69.827 305.352,64.865 C 305.352,54.099 306.467,55.524 294.735,51.91 C 286.449,53.135 284.692,54.24 280.876,59.351 C 279.792,60.839 282.242,50.534 282.534,52.341 C 284.582,63.932 291.231,66.965 295.841,71.424 C 298.733,77.239 296.834,76.767 303.926,78.143 C 306.436,78.636 295.73,82.782 297.247,80.704 C 303.373,72.507 298.031,77.319 300.25,68.361 C 302.58,59.17 311.046,58.236 315.244,66.704 C 323.711,83.688 325.047,65.97 308.978,53.888 C 304.157,50.302 309.589,43.061 314.401,46.688 Z" fill="#337f00" marker-start="none" marker-end="none"/>
     <path d="M 416.533,369.101 C 418.461,367.094 417.729,364.753 416.181,362.654 C 410.025,354.337 398.384,347.036 389.776,342.136 C 388.844,341.613 389.657,340.217 390.56,340.739 C 400.132,346.132 417.055,347.769 423.854,356.991 C 428.354,363.116 429.026,369.835 423.482,375.67 C 419.103,380.28 412.153,373.711 416.533,369.101 Z" fill="#b24c00" marker-start="none" marker-end="none"/>
     <path d="M 435.827,333.006 C 436.932,340.539 435.615,344.125 431.036,347.679 C 425.46,351.044 420.068,353.604 412.184,354.508 C 406.32,353.604 401.94,349.668 398.064,347.338 C 395.703,345.902 397.832,342.376 400.162,343.803 C 403.457,345.761 407.403,344.295 412.395,345.058 C 418.572,344.356 421.233,342.486 425.672,339.836 C 427.561,338.349 428.414,337.324 427.943,334.201 C 427.159,328.948 435.002,327.752 435.827,333.006 Z" fill="#b24c00" marker-start="none" marker-end="none"/>
     <path d="M 438.247,358.456 C 426.546,357.723 417.668,355.915 408.769,352.881 L 406.79,348.503 C 406.178,346.836 406.409,346.605 408.127,346.252 L 412.184,345.469 C 420.591,348.293 427.561,352.27 438.568,352.931 C 442.274,353.174 441.923,358.686 438.247,358.456 Z" fill="#b24c00" marker-start="none" marker-end="none"/>
     <path d="M 423.653,375.38 C 425.873,373.682 425.963,370.618 426.194,366.561 C 424.006,355.414 418.281,353.224 410.115,349.285 C 409.151,348.824 409.854,347.389 410.818,347.86 C 419.748,352.148 426.898,354.158 429.318,366.391 C 428.967,371.171 427.24,374.676 424.617,376.665 C 423.773,377.298 422.81,376.022 423.653,375.38 Z" fill="#e5664c" marker-start="none" marker-end="none"/>
     <path d="M 442.676,354.368 C 439.241,359.069 432.964,356.879 426.686,357.813 C 425.491,357.983 425.23,356.207 426.427,356.024 C 432.23,355.151 438.187,357.783 441.4,353.433 C 442.013,352.561 443.318,353.515 442.676,354.368 Z" fill="#e5664c" marker-start="none" marker-end="none"/>
     <path d="M 431.296,331.258 L 434.922,334.11 L 436.288,340.186 C 435.184,347.036 432.382,349.115 427.62,351.707 C 426.486,352.35 425.582,350.662 426.686,350.05 C 430.775,347.831 432.582,346.112 433.516,340.296 L 432.493,335.487 L 430.04,332.534 C 429.289,331.598 430.332,330.495 431.296,331.258 Z" fill="#e5664c" marker-start="none" marker-end="none"/>
     <path d="M 401.246,290.37 C 400.574,290.783 400.051,291.456 399.58,292.56 C 398.815,294.49 397.038,294.519 396.225,292.622 C 394.999,289.728 392.639,288.504 392.077,285.38 C 391.293,280.95 396.455,278.792 398.384,282.839 L 400.254,286.845 C 401.357,289.176 394.236,288.684 395.733,286.575 L 398.525,282.759 C 400.313,280.338 402.473,280.629 403.697,283.371 L 405.384,287.078 C 406.841,290.231 399.027,290.954 399.871,287.57 L 401.447,281.504 C 402.26,278.229 405.123,277.154 406.64,280.127 L 409.502,285.61 L 411.28,286.695 L 413.379,285.61 C 415.488,284.978 416.562,287.659 414.605,288.705 L 411.832,290.201 C 411.109,290.572 410.436,290.552 409.915,289.959 L 407.836,287.508 L 402.231,284.566 C 399.811,283.251 408.277,280.538 407.434,283.19 L 405.595,289.176 C 404.571,292.411 401.738,292.681 400.071,289.698 L 398.124,286.143 C 396.778,283.692 405.273,284.687 403.316,286.756 L 400.071,290.201 C 398.555,291.777 397.068,291.567 395.582,289.93 L 392.609,286.665 C 389.687,283.452 398.124,279.865 398.907,284.155 C 399.378,286.815 398.555,288.734 399.58,291.184 C 400.363,293.113 395.461,293.144 396.225,291.215 C 396.978,289.297 398.235,288.362 399.408,287.599 C 401.246,286.374 403.084,289.146 401.246,290.37 Z" fill="#e5664c" marker-start="none" marker-end="none"/>
     <path d="M 387.909,216.51 C 385.458,222.296 385.166,232.068 386.132,239.773 L 386.333,243.889 C 386.825,245.227 386.946,250.157 388.692,249.575 C 392.288,248.149 396.657,240.736 394.388,236.187 C 392.901,233.234 403.666,236.508 400.804,238.105 C 397.159,240.214 396.024,242.806 394.477,246.662 C 391.966,254.155 393.453,242.574 390.128,250.568 C 389.887,251.151 389.134,251.855 388.523,252.026 C 382.365,253.954 376.639,255.853 370.573,257.337 C 369.9,257.569 369.349,256.926 369.79,257.489 C 370.635,258.623 365.15,257.167 366.456,256.604 C 370.222,254.948 372.965,253.542 376.701,252.055 C 379.945,249.754 382.154,248.319 385.86,246.16 C 387.878,244.995 389.336,245.698 389.687,247.968 C 390.62,253.723 392.95,255.671 395.351,258.855 C 397.038,260.23 398.766,261.597 401.86,262.009 C 404.049,262.33 399.258,267.231 399.027,265.072 L 398.414,259.729 C 394.709,256.958 392.658,256.023 388.37,254.215 C 384.615,252.638 387.006,246.984 390.772,248.581 C 395.522,250.568 398.093,254.245 402.231,257.308 L 404.049,264.047 C 404.541,266.266 403.457,267.401 401.186,267.091 C 396.867,266.498 393.543,264.952 391.063,262.973 C 388.109,258.915 385.72,255.671 384.615,248.791 C 384.263,246.482 390.45,249.434 388.462,250.568 C 384.906,252.668 383.118,255.531 379.884,257.89 C 375.998,259.378 372.352,260.08 368.646,261.688 C 367.34,262.24 366.195,261.919 365.35,260.784 C 360.298,253.984 360.008,251.764 368.153,249.052 C 374.19,247.566 380.878,249.052 387.006,247.155 C 387.587,246.954 385.166,249.174 385.398,248.611 C 388.431,241.349 382.395,249.866 384.664,243.037 C 387.146,236.88 390.389,233.445 396.194,230.081 C 399.057,228.484 401.186,229.096 402.643,232.039 C 406.611,239.943 396.718,251.974 390.45,254.396 C 387.176,255.59 384.263,247.155 383.359,244.643 L 382.365,240.295 C 381.31,232.129 383.851,222.005 386.422,215.9 C 386.825,214.915 388.321,215.547 387.909,216.51 Z" fill="#b24c00" marker-start="none" marker-end="none"/>
     <path d="M 401.277,268.657 C 397.48,267.583 395.031,267.321 392.318,265.192 C 388.933,261.838 389.425,256.374 387.618,251.673 C 387.236,250.69 388.723,250.108 389.134,251.092 C 390.62,255.118 394.819,256.345 397.681,259.086 C 399.489,260.522 400.313,261.919 402.964,262.652 C 406.992,263.786 405.305,269.802 401.277,268.657 Z" fill="#e5664c" marker-start="none" marker-end="none"/>
     <path d="M 379.884,249.174 C 373.406,247.918 368.354,247.064 364.618,252.115 C 365.321,262.009 362.609,247.535 364.006,256.525 C 364.298,258.242 361.705,258.653 361.445,256.907 C 359.928,247.385 360.39,261.196 359.657,250.659 C 364.387,244.242 371.95,245.989 380.175,247.597 C 381.22,247.797 380.928,249.344 379.884,249.174 Z" fill="#e5664c" marker-start="none" marker-end="none"/>
     <path d="M 399.349,233.707 C 401.035,237.151 401.538,239.621 400.895,244 C 398.937,247.968 395.874,250.308 391.495,250.981 C 390.42,251.122 390.179,249.545 391.264,249.375 C 394.939,248.851 396.897,246.482 398.505,243.278 C 399.057,239.541 399.198,237.493 397.71,234.52 C 397.159,233.445 398.796,232.621 399.349,233.707 Z" fill="#e5664c" marker-start="none" marker-end="none"/>
     <path d="M 388.812,242.745 C 386.683,237 385.84,231.688 385.84,223.953 C 385.84,222.879 387.467,222.879 387.467,223.953 C 387.467,231.457 388.231,236.618 390.329,242.162 C 390.681,243.157 389.195,243.739 388.812,242.745 Z" fill="#e5664c" marker-start="none" marker-end="none"/>
     <path d="M 395.522,138.283 C 393.483,153.077 396.897,164.718 392.95,176.629 C 385.519,191.914 373.145,208.347 366.085,222.437 C 362.459,226.264 355.399,227.369 353.419,232.592 C 353.069,233.584 351.552,233.004 351.922,232.008 C 354.173,226.112 352.826,220.399 356.974,216.02 C 364.006,201.98 375.154,187.658 382.567,172.391 C 386.302,161.011 391.264,152.113 393.251,137.962 C 393.453,136.446 395.753,136.767 395.522,138.283 Z" fill="#b24c00" marker-start="none" marker-end="none"/>
     <path d="M 400.313,140.122 C 394.589,157.336 393.332,163.522 386.272,174.931 C 381.31,182.495 386.533,174.199 381.783,181.762 C 378.307,190.168 369.871,197.43 364.739,204.29 C 361.233,208.457 359.195,210.707 355.901,214.883 C 350.236,223.231 341.217,225.562 335.472,233.384 C 334.799,234.258 333.512,233.294 334.157,232.421 C 339.761,224.828 342.764,217.395 348.277,209.31 C 351.632,205.051 353.791,202.652 357.327,198.393 C 362.026,192.207 369.288,184.563 372.442,176.921 C 377.313,169.216 372.292,177 377.373,169.267 C 384.002,158.561 386.533,153.509 391.906,137.319 C 393.775,131.745 402.15,134.517 400.313,140.122 Z" fill="#b24c00" marker-start="none" marker-end="none"/>
     <path d="M 391.966,146.398 C 385.89,159.786 383.821,170.793 375.274,181.471 C 369.469,186.984 359.014,195.743 354.032,202.832 C 343.637,209.051 337.661,214.563 322.948,217.013 C 321.934,217.184 321.662,215.608 322.687,215.437 C 337.019,213.047 339.991,204.731 350.146,198.654 C 355.368,191.272 363.252,181.731 369.288,175.986 C 377.493,165.712 383.76,158.149 389.596,145.313 C 390.299,143.736 392.69,144.822 391.966,146.398 Z" fill="#b24c00" marker-start="none" marker-end="none"/>
     <path d="M 379.362,166.767 C 364.478,180.215 351.199,201.196 330.862,207.965 C 326.423,208.668 318.308,209.572 313.588,210.274 C 311.428,209.541 309.349,208.779 307.08,208.517 C 284.844,207.001 265.117,200.874 258.549,184.884 C 257.816,181.238 258.379,178.467 258.871,175.082 C 259.714,169.267 268.472,170.492 267.628,176.337 C 267.307,178.577 267.447,179.633 267.949,182.052 C 273.435,195.389 289.071,201.136 307.662,202.39 C 310.433,202.742 311.509,202.159 314.201,203.063 C 318.921,202.359 324.676,201.456 329.105,200.754 C 348.568,194.255 364.006,178.467 378.277,165.561 C 379.061,164.868 380.146,166.063 379.362,166.767 Z" fill="#b24c00" marker-start="none" marker-end="none"/>
     <path d="M 374.19,196.416 C 367.651,207.734 361.203,215.176 358.874,229.327 C 358.141,233.676 351.601,232.592 352.335,228.242 C 354.816,213.218 365.843,207.645 372.793,195.621 C 373.316,194.687 374.722,195.48 374.19,196.416 Z" fill="#e5664c" marker-start="none" marker-end="none"/>
     <path d="M 366.375,203.063 C 364.769,205.072 364.298,206.94 362.81,208.928 C 360.008,211.841 358.722,214.151 357.006,217.686 C 354.434,221.102 351.401,223.02 347.433,225.038 C 345.656,226.816 344.753,227.841 342.794,229.268 L 339.58,231.688 L 337.099,232.972 C 335.412,233.818 334.186,231.105 335.935,230.431 L 338.244,229.498 L 341.076,227.078 C 342.944,225.711 344.17,224.656 345.888,222.909 C 349.502,221.102 351.922,218.912 354.173,215.96 C 356.042,212.143 357.236,209.923 360.269,206.798 C 361.786,204.812 363.514,204.088 365.12,202.039 C 365.793,201.196 367.039,202.22 366.375,203.063 Z" fill="#e5664c" marker-start="none" marker-end="none"/>
     <path d="M 357.849,201.426 C 352.396,204.932 349.473,207.411 343.848,210.737 C 340.403,213.277 337.45,213.92 333.925,216.431 C 330.772,216.953 328.814,217.686 325.639,217.244 C 323.45,216.953 323.851,213.69 326.072,213.98 C 328.934,214.352 330.479,215.176 333.253,214.734 C 336.667,212.314 339.057,211.118 342.473,208.638 C 348.046,205.313 351.552,203.586 356.974,200.061 C 357.878,199.497 358.722,200.843 357.849,201.426 Z" fill="#e5664c" marker-start="none" marker-end="none"/>
     <path d="M 341.718,197.81 C 326.072,206.358 313.588,205.685 292.979,202.742 C 291.933,202.593 292.165,200.995 293.188,201.166 C 313.406,204.058 325.639,204.781 340.956,196.416 C 341.89,195.882 342.673,197.32 341.718,197.81 Z" fill="#e5664c" marker-start="none" marker-end="none"/>
     <path d="M 283.085,200.201 C 271.626,192.648 268.763,193.724 266.052,180.064 C 265.93,177.03 266.774,175.163 266.543,172.161 C 266.484,170.964 268.261,170.844 268.351,172.039 C 268.562,175.082 269.808,176.539 269.899,179.633 C 272.379,192.097 273.545,191.945 283.969,198.865 C 284.903,199.478 283.999,200.783 283.085,200.201 Z" fill="#e5664c" marker-start="none" marker-end="none"/>
     <path d="M 364.096,125.267 C 360.972,136.295 357.006,140.292 346.38,143.767 C 339.821,144.873 334.939,146.83 329.256,147.352 C 324.233,147.794 331.646,134.748 333.835,139.308 C 334.97,141.638 335.673,145.143 336.868,147.643 C 340.081,154.423 329.958,159.294 326.714,152.524 C 325.519,150.013 324.817,146.509 323.681,144.179 C 321.491,139.619 323.24,136.586 328.26,136.124 C 334.186,135.621 338.857,142.1 345.717,140.965 C 355.429,137.781 359.657,134.929 362.58,124.825 C 362.84,123.811 364.417,124.273 364.096,125.267 Z" fill="#b24c00" marker-start="none" marker-end="none"/>
     <path d="M 322.978,139.328 C 322.978,129.355 324.093,125.468 319.683,119.723 C 318.89,118.7 320.417,117.533 321.2,118.558 C 326.283,125.207 331.123,127.808 331.123,139.328 C 331.123,144.761 322.978,144.761 322.978,139.328 Z" fill="#b24c00" marker-start="none" marker-end="none"/>
     <path d="M 327.036,145.173 C 324.434,145.173 323.591,146.017 322.135,146.721 C 320.707,147.764 320.035,148.207 318.981,149.572 C 315.626,153.951 309.086,148.929 312.442,144.581 C 313.989,142.541 315.485,140.764 317.554,139.217 C 319.915,138.052 322.807,138.313 327.036,138.313 C 331.585,138.313 331.615,145.173 327.036,145.173 Z" fill="#b24c00" marker-start="none" marker-end="none"/>
     <path d="M 331.384,144.259 C 333.423,147.564 337.771,149.371 338.124,154.594 C 338.384,159.002 331.796,159.434 331.505,155.036 C 331.213,150.827 331.414,147.915 329.747,145.283 C 329.105,144.179 330.712,143.155 331.384,144.259 Z" fill="#b24c00" marker-start="none" marker-end="none"/>
     <path d="M 372.934,53.215 C 376.639,55.967 379.622,56.78 383.942,58.739 C 388.431,60.978 391.293,62.675 395.461,65.097 C 397.892,67.547 399.318,69.616 401.246,72.248 C 406.611,79.479 415.458,93.78 407.483,104.055 C 406.841,104.899 405.565,103.934 406.209,103.061 C 413.379,93.811 401.89,81.849 397.009,75.37 C 395.291,72.971 394.126,71.515 392.077,69.474 C 388.199,67.135 386.504,64.745 382.133,62.555 C 377.574,60.485 375.565,57.916 371.628,55.003 C 370.423,54.129 371.77,52.341 372.934,53.215 Z" fill="#b24c00" marker-start="none" marker-end="none"/>
     <path d="M 392.198,64.745 C 399.871,70.318 400.574,70.489 405.795,73.964 C 409.322,75.863 410.235,76.887 413.299,79.107 C 417.004,83.015 418.31,84.912 421.846,88.648 C 422.69,89.552 421.324,90.858 420.42,89.934 C 416.854,86.169 413.761,86.599 410.055,82.812 C 407.403,80.885 406.379,80.213 403.115,78.464 C 397.862,74.898 397.159,74.286 389.366,68.631 C 386.774,66.734 389.596,62.817 392.198,64.745 Z" fill="#b24c00" marker-start="none" marker-end="none"/>
     <path d="M 428.585,91.179 C 422.81,102.74 438.86,111.578 432,125.438 C 431.508,126.402 430.072,125.679 430.543,124.715 C 438.628,108.454 411.751,99.707 418.491,86.169 C 421.846,79.449 431.939,84.5 428.585,91.179 Z" fill="#b24c00" marker-start="none" marker-end="none"/>
     <path d="M 421.033,83.657 C 431.799,84.409 436.609,89.844 441.22,96.09 C 445.689,102.127 436.641,108.806 432.17,102.769 C 429.378,99.003 426.716,95.357 420.239,94.885 C 412.736,94.393 413.529,83.135 421.033,83.657 Z" fill="#b24c00" marker-start="none" marker-end="none"/>
     <path d="M 414.696,82.462 C 416.472,81.558 416.825,80.654 418.342,79.479 C 420.007,78.253 420.821,78.203 422.307,76.707 C 426.427,68.361 434.922,70.118 440.808,76.276 C 441.541,77.057 440.377,78.143 439.642,77.38 C 436.67,74.286 432.843,78.544 430.805,82.782 C 428.847,84.702 427.27,86.841 425.17,88.408 C 423.04,90.074 421.817,89.984 419.305,91.271 C 413.439,94.364 408.799,85.556 414.696,82.462 Z" fill="#b24c00" marker-start="none" marker-end="none"/>
     <path d="M 416.974,83.796 C 419.978,81.789 423.744,78.927 428.756,78.544 C 433.698,78.544 436.259,82.812 439.151,84.008 C 441.481,84.993 440.024,88.498 437.694,87.503 C 435.445,86.599 432.903,89.261 429.228,89.402 C 426.225,89.613 423.714,89.934 421.846,91.16 C 416.974,94.424 412.074,87.072 416.974,83.796 Z" fill="#b24c00" marker-start="none" marker-end="none"/>
     <path d="M 280.081,65.649 C 272.7,67.085 270.159,70.489 266.373,75.603 C 264.876,78.544 264.093,81.117 264.093,85.556 C 265.55,90.778 263.008,86.308 265.168,90.747 C 265.64,91.71 264.183,92.405 263.711,91.451 C 261.441,86.781 262.777,91.501 261.201,85.986 C 261.201,80.734 260.8,76.707 262.517,73.211 C 266.805,67.456 271.416,65.679 279.792,64.072 C 280.815,63.872 281.137,65.478 280.081,65.649 Z" fill="#b24c00" marker-start="none" marker-end="none"/>
     <path d="M 264.414,83.185 C 273.926,81.056 276.176,79.92 283.648,83.625 C 290.356,87.012 285.335,97.075 278.625,93.72 C 274.015,91.421 272.67,92.877 266.895,94.193 C 259.543,95.82 257.094,84.822 264.414,83.185 Z" fill="#b24c00" marker-start="none" marker-end="none"/>
     <path d="M 268.875,84.972 C 272.238,91.681 271.124,97.657 275.674,103.473 C 277.401,105.682 274.046,108.283 272.319,106.065 C 267.478,99.847 262.395,97.165 258.81,89.984 C 255.456,83.275 265.519,78.253 268.875,84.972 Z" fill="#b24c00" marker-start="none" marker-end="none"/>
     <path d="M 268.995,85.375 C 267.157,96.814 257.465,101.956 248.396,92.877 C 247.663,92.093 248.777,90.978 249.56,91.742 C 254.582,96.753 257.675,90.074 258.689,83.748 C 259.773,76.857 270.13,78.514 268.995,85.375 Z" fill="#b24c00" marker-start="none" marker-end="none"/>
     <path d="M 335.09,157.978 C 330.42,156.141 329.958,156.341 327.477,153.077 C 327.066,151.089 326.834,149.432 326.423,147.272 C 326.132,145.786 328.412,145.344 328.703,146.86 C 329.105,148.959 329.717,150.075 330.129,151.882 C 332.057,154.443 331.676,154.885 335.702,156.462 C 336.698,156.874 336.115,158.39 335.09,157.978 Z" fill="#e5664c" marker-start="none" marker-end="none"/>
     <path d="M 324.495,146.047 C 321.581,147.994 318.78,150.246 314.631,150.888 C 313.558,151.059 313.325,149.432 314.372,149.28 C 318.277,148.698 320.878,146.539 323.591,144.702 C 324.464,144.089 325.368,145.434 324.495,146.047 Z" fill="#e5664c" marker-start="none" marker-end="none"/>
     <path d="M 329.195,136.415 C 329.195,129.093 325.047,125.297 322.135,121.39 C 322.135,121.39 320.417,119.021 320.417,119.021 C 319.744,118.176 320.969,117.212 321.662,118.026 L 323.561,120.305 C 326.653,124.452 330.772,128.651 330.772,136.415 C 330.772,137.489 329.195,137.489 329.195,136.415 Z" fill="#e5664c" marker-start="none" marker-end="none"/>
     <path d="M 431.387,125.618 C 435.705,122.435 432.23,125.146 433.928,121.792 C 434.038,120.135 434.099,119.08 433.987,117.303 C 433.987,117.303 434.651,111.146 434.682,110.272 C 433.928,107.088 433.456,105.863 431.738,103.473 C 429.962,100.579 428.524,98.572 426.546,96.493 L 423.653,94.132 C 422.81,93.49 423.773,92.235 424.647,92.877 L 427.772,95.157 C 429.81,97.316 431.387,99.496 433.225,102.449 C 435.123,105.049 435.445,106.535 436.288,110.091 C 436.288,110.503 435.876,116.6 435.796,117.333 C 435.876,119.17 435.876,120.456 435.796,122.324 C 433.516,126.493 437.311,123.259 432.351,126.935 C 431.508,127.547 430.543,126.261 431.387,125.618 Z" fill="#e5664c" marker-start="none" marker-end="none"/>
     <path d="M 438.217,100.52 C 438.971,95.881 437.252,93.951 435.033,90.978 L 431.036,88.065 C 429.46,86.892 431.125,84.592 432.732,85.695 L 437.162,88.789 C 439.794,92.294 440.698,95.327 439.794,100.78 C 439.642,101.836 438.036,101.575 438.217,100.52 Z" fill="#e5664c" marker-start="none" marker-end="none"/>
     <path d="M 272.61,107.208 C 275.151,103.814 271.355,100.119 268.853,96.703 C 266.513,93.227 267.538,92.525 264.705,89.613 C 263.51,88.357 265.379,86.519 266.574,87.764 C 269.667,90.949 270.571,89.904 273.112,93.72 C 276.468,98.22 277.52,103.844 274.157,108.344 C 273.402,109.368 271.857,108.222 272.61,107.208 Z" fill="#e5664c" marker-start="none" marker-end="none"/>
     <path d="M 282.041,90.858 C 279.792,85.815 280.203,86.892 275.362,85.524 C 273.081,85.405 272.319,84.329 270.048,83.859 C 267.739,83.425 268.412,79.979 270.692,80.443 C 272.731,80.793 274.248,79.89 276.266,79.979 C 283.467,82.049 282.884,81.467 286.239,88.94 C 287.524,91.742 283.296,93.661 282.041,90.858 Z" fill="#e5664c" marker-start="none" marker-end="none"/>
     <path d="M 325.84,61.882 L 328.582,63.029 C 330.36,65.217 331.092,68.652 331.293,72.83 C 328.523,76.596 330.42,74.577 326.773,75.894 C 326.162,76.124 327.066,73.964 327.297,74.607 L 328.322,77.18 C 328,83.979 323.51,86.458 318.017,87.625 C 313.639,85.313 313.376,85.845 311.509,82.14 C 310.755,80.563 313.086,79.399 313.879,80.975 C 315.425,84.089 314.552,84.179 318.227,86.137 C 322.948,85.083 326.513,83.366 326.773,77.5 L 325.58,75.42 C 325.256,74.808 325.459,74.377 326.132,74.115 C 329.105,73.031 327.739,75.08 329.747,72.358 C 329.486,69.063 328,67.377 326.513,65.508 L 324.646,64.222 C 323.208,63.229 324.233,61.24 325.84,61.882 Z" fill="#e5664c" marker-start="none" marker-end="none"/>
     <path d="M 309.32,85.495 C 306.757,91.561 305.532,93.227 301.064,89.814 L 299.195,89.432 C 293.188,92.435 291.582,93.287 289.885,86.248 C 289.513,84.652 294.264,86.951 292.747,87.625 C 284.17,91.681 284.31,87.272 283.004,78.143 L 281.047,75.774 C 280.726,75.31 280.404,74.668 280.635,74.147 L 282.593,69.967 C 276.928,65.066 276.818,62.416 281.69,57.775 C 284.17,57.243 287.586,58.236 290.035,58.147 C 291.11,58.096 291.2,59.672 290.126,59.723 C 287.786,59.843 286.5,62.002 284.17,62.495 C 281.598,64.946 281.487,66.642 284.491,69.215 L 285.014,73.875 L 287.083,76.506 C 287.816,81.588 286.209,86.169 290.998,83.888 C 292.515,83.185 293.51,83.657 293.882,85.294 C 294.815,89.141 295.549,89.581 298.844,87.945 L 301.827,87.534 C 304.739,89.783 306.176,88.848 307.832,84.852 C 308.243,83.859 309.73,84.5 309.32,85.495 Z" fill="#e5664c" marker-start="none" marker-end="none"/>
     <path d="M 318.077,68.391 C 319.453,71.102 320.94,72.649 322.657,74.99 C 324.354,77.18 321.03,79.659 319.391,77.471 C 317.494,74.929 317.204,72.507 315.747,69.586 C 314.953,68.019 317.324,66.844 318.077,68.391 Z" fill="#e5664c" marker-start="none" marker-end="none"/>
     <path d="M 313.466,71.605 L 312.884,79.338 C 312.622,82.812 307.4,82.402 307.662,78.927 L 308.273,71.193 C 308.536,67.718 313.759,68.13 313.466,71.605 Z" fill="#e5664c" marker-start="none" marker-end="none"/>
     <path d="M 303.804,73.644 C 302.409,75.833 302.057,77.61 300.863,79.8 C 299.958,81.437 297.478,80.122 298.382,78.464 C 299.608,76.214 301.034,75.019 302.47,72.77 C 303.051,71.865 304.388,72.741 303.804,73.644 Z" fill="#e5664c" marker-start="none" marker-end="none"/>
     <path d="M 297.066,69.325 L 293.882,71.373 L 291.291,71.344 C 289.743,71.284 289.743,69.063 291.291,69.034 L 293.27,69.034 L 296.132,67.668 C 297.277,67.105 298.151,68.631 297.066,69.325 Z" fill="#e5664c" marker-start="none" marker-end="none"/>
     <path d="M 235.469,75.37 C 230.97,77.581 234.676,76.596 231.26,79.107 C 221.318,90.778 202.788,110.644 212.469,130.077 C 213.113,132.217 212.761,133.583 213.434,135.3 C 215.714,141.226 206.815,144.671 204.536,138.775 C 203.771,136.827 202.817,136.676 202.054,134.316 C 190.233,110.534 211.477,85.173 223.678,70.931 C 227.997,67.718 225.807,70.318 231.502,67.426 C 236.775,64.805 240.753,72.741 235.469,75.37 Z" fill="#b24c00" marker-start="none" marker-end="none"/>
     <path d="M 227.524,78.113 C 222.394,84.852 219.972,91.038 214.92,97.607 C 211.154,105.069 208.823,109.188 204.365,115.755 C 198.198,131.102 187.812,136.535 181.133,149.864 C 180.662,150.797 179.235,150.104 179.698,149.141 C 186.206,136.124 188.486,125.468 194.472,110.473 C 198.641,104.376 201.934,98.621 205.44,91.622 C 210.492,85.053 217.401,81.117 222.573,74.347 C 225.104,71.052 230.036,74.808 227.524,78.113 Z" fill="#b24c00" marker-start="none" marker-end="none"/>
     <path d="M 218.868,86.016 C 211.596,92.003 207.076,101.544 200.478,108.143 C 189.973,118.667 182.27,124.624 166.249,128.269 C 165.164,128.512 164.853,126.935 165.868,126.663 C 181.044,123.259 182.56,110.121 192.513,100.169 C 199.253,93.46 207.106,86.841 214.519,80.704 C 218.074,77.822 222.394,83.135 218.868,86.016 Z" fill="#b24c00" marker-start="none" marker-end="none"/>
     <path d="M 201.12,110.241 C 197.585,112.923 196.832,116.459 193.096,118.939 C 187.29,122.495 181.516,123.781 175.409,126.844 C 173.37,127.255 172.085,128.009 169.986,128.39 C 167.916,128.802 167.335,125.729 169.373,125.357 C 171.472,124.945 172.607,124.886 174.596,124.503 C 180.581,121.5 184.579,118.006 190.293,114.53 C 193.879,112.14 196.742,111.548 200.157,108.956 C 200.971,108.283 201.964,109.568 201.12,110.241 Z" fill="#e5664c" marker-start="none" marker-end="none"/>
     <path d="M 206.756,109.368 C 203.079,116.278 200.769,120.305 201.181,130.228 C 202.115,136.234 202.958,139.679 206.524,142.311 C 207.398,142.922 206.463,144.239 205.56,143.626 C 201.503,140.584 198.761,137.44 197.676,130.55 C 197.274,119.953 201.411,115.987 205.349,108.605 C 205.85,107.671 207.247,108.434 206.756,109.368 Z" fill="#e5664c" marker-start="none" marker-end="none"/>
     <path d="M 197.274,126.582 C 196.039,129.585 195.054,131.804 193.739,134.427 C 191.288,139.387 188.457,143.325 183.787,146.509 C 182.912,147.151 182.008,145.806 182.881,145.194 C 187.29,142.161 189.682,138.283 192.021,133.583 C 193.326,130.982 194.582,128.972 195.748,125.97 C 196.159,124.976 197.645,125.558 197.274,126.582 Z" fill="#e5664c" marker-start="none" marker-end="none"/>
     <path d="M 202.667,61.42 C 194.843,63.842 180.401,65.478 170.157,63.842 C 169.082,63.689 169.343,62.093 170.418,62.265 C 180.431,63.842 194.552,62.265 202.206,59.904 C 203.221,59.553 203.693,61.099 202.667,61.42 Z" fill="#b24c00" marker-start="none" marker-end="none"/>
     <path d="M 165.727,58.528 C 171.945,53.917 176.283,50.011 178.442,41.465 C 178.713,40.41 180.261,40.792 179.989,41.836 C 177.248,52.663 180.29,61.803 172.406,67.578 C 166.369,72.037 159.681,62.997 165.727,58.528 Z" fill="#b24c00" marker-start="none" marker-end="none"/>
     <path d="M 174.044,60.426 C 172.527,69.797 166.982,75.511 162.574,81.437 C 161.961,82.28 160.646,81.317 161.288,80.472 C 165.317,75.08 161.52,67.196 162.926,58.649 C 164.12,51.237 175.238,53.014 174.044,60.426 Z" fill="#b24c00" marker-start="none" marker-end="none"/>
     <path d="M 166.862,68.631 C 155.864,70.148 155.484,60.196 151.365,53.305 C 150.964,51.619 150.812,50.071 150.4,48.344 C 150.141,47.33 151.717,46.948 151.948,47.992 C 152.36,49.721 153.032,50.855 153.444,52.462 C 155.864,56.519 158.667,58.418 165.285,57.484 C 172.698,56.46 174.274,67.607 166.862,68.631 Z" fill="#b24c00" marker-start="none" marker-end="none"/>
     <path d="M 126.246,102.649 C 108.701,104.376 94.871,104.316 88.222,92.907 C 86.414,90.457 85.742,88.558 84.607,85.666 C 83.141,81.849 88.865,79.659 90.352,83.446 C 91.226,85.786 92.33,87.303 93.766,89.291 C 99.571,99.204 110.809,102.539 126.066,101.043 C 127.18,100.962 127.291,102.539 126.246,102.649 Z" fill="#b24c00" marker-start="none" marker-end="none"/>
     <path d="M 172.669,66.201 C 171.945,75.863 170.739,78.404 162.895,82.251 C 161.93,82.753 161.228,81.286 162.192,80.826 C 169.022,77.439 168.409,74.377 169.082,65.94 C 169.253,63.55 172.878,63.78 172.669,66.201 Z" fill="#e5664c" marker-start="none" marker-end="none"/>
     <path d="M 172.728,59.874 C 177.248,56.338 180.23,50.684 180.23,42.248 C 180.23,41.194 181.857,41.194 181.857,42.248 C 181.857,51.728 179.97,58.709 174.858,62.646 C 173.019,64.072 170.86,61.3 172.728,59.874 Z" fill="#e5664c" marker-start="none" marker-end="none"/>
     <path d="M 160.937,66.201 C 151.687,63.43 152.481,66.441 148.302,61.36 C 147.459,59.493 146.875,57.714 146.233,55.787 C 144.827,51.587 151.134,49.489 152.53,53.657 C 153.062,55.324 153.295,56.168 154.057,57.745 C 157.2,61.591 154.72,61.39 161.76,63.519 C 163.537,64.043 162.744,66.734 160.937,66.201 Z" fill="#e5664c" marker-start="none" marker-end="none"/>
     <path d="M 408.769,235.072 C 404.159,244.502 395.06,242.313 395.202,231.628 C 395.291,227.259 397.48,224.456 398.124,220.51 C 399.027,214.704 398.124,204.75 399.287,199.56 C 401.477,168.926 413.529,152.113 406.87,121.5 C 405.536,115.343 403.457,110.032 400.834,105.36 C 393.714,88.065 385.86,76.244 375.365,63.029 C 372.121,60.627 372.884,62.093 369.841,59.964 C 368.536,57.213 369.319,57.102 366.517,55.404 C 365.613,54.822 366.456,53.486 367.39,54.04 C 370.895,56.197 370.865,54.822 372.382,57.824 C 374.923,59.693 373.196,59.433 376.439,61.882 C 387.236,75.401 398.505,85.265 405.827,102.97 C 408.659,108.112 411.401,113.445 412.888,120.184 C 419.657,151.47 409.644,169.448 407.403,200.703 C 406.32,205.775 405.856,215.93 404.952,221.562 C 404.37,225.269 401.94,227.689 401.83,231.748 C 401.77,236.417 405.324,238.457 407.343,234.349 C 407.805,233.384 409.272,234.108 408.769,235.072 Z" fill="#ccff7f" marker-start="none" marker-end="none"/>
     <path d="M 122.741,94.193 C 118.011,91.331 108.62,92.646 104.563,89.662 C 98.667,85.344 95.252,72.539 95.864,63.901 C 96.357,56.871 102.815,56.66 102.313,63.671 C 101.932,69.555 105.587,79.95 109.555,82.893 C 113.291,85.606 119.236,90.165 123.555,92.816 C 124.49,93.369 123.646,94.744 122.741,94.193 Z" fill="#ccff7f" marker-start="none" marker-end="none"/>
     <path d="M 403.577,439.547 C 404.863,439.95 407.082,439.457 408.829,439.627 C 416.181,440.219 420.68,437.529 425,434.496 C 428.847,430.698 430.775,428.599 432.582,422.704 C 432.872,419.73 433.055,418.124 433.165,415.151 C 435.905,396.68 427.069,386.376 418.05,377.357 C 411.602,370.88 407.372,362.623 399.58,357.341 C 394.266,353.345 387.587,350.191 383.439,345.932 C 380.697,343.683 381.31,340.066 378.337,337.876 C 377.493,337.204 378.448,335.948 379.301,336.561 C 382.104,338.669 384.615,339.453 387.406,341.523 C 391.354,345.702 395.934,351.414 401.035,355.303 C 408.98,360.666 415.368,366.852 421.966,373.451 C 431.849,383.374 439.703,395.165 436.641,415.473 C 436.549,418.536 436.319,420.344 435.997,423.377 C 433.987,429.946 431.096,432.487 426.898,436.715 C 421.966,440.159 416.794,444.096 408.477,443.424 C 406.55,443.223 404.48,441.526 403.115,441.093 C 402.061,440.772 402.552,439.256 403.577,439.547 Z" fill="#000000" marker-start="none" marker-end="none"/>
     <path d="M 380.316,400.297 C 384.083,398.81 384.113,396.44 386.884,394.402 C 391.465,385.242 388.29,376.223 385.137,367.726 C 383.088,363.619 380.928,359.652 377.081,356.82 C 373.497,351.977 373.928,353.203 372,349.256 C 368.264,344.586 367.602,338.61 365.583,332.774 C 365.23,331.75 366.777,331.228 367.129,332.242 C 368.967,337.676 372.673,342.286 376.147,346.665 C 377.865,350.191 377.574,349.316 380.588,353.374 C 384.756,356.608 385.811,361.63 388.199,366.42 C 391.644,375.811 394.91,386.699 389.838,396.823 C 386.914,399.012 384.876,400.237 380.928,401.783 C 379.945,402.195 379.332,400.678 380.316,400.297 Z" fill="#000000" marker-start="none" marker-end="none"/>
     <path d="M 365,330.967 C 362.78,324.811 360.39,321.828 358.059,315.7 C 357.035,313.542 356.422,311.764 355.689,309.514 L 354.353,305.457 C 353.329,302.283 353.009,297.904 352.396,294.398 C 352.194,292.591 351.632,291.456 351.521,289.618 C 351.521,287.508 351.903,286.284 351.903,284.155 C 351.903,283.08 353.499,283.08 353.499,284.155 C 353.499,286.284 353.852,287.459 353.852,289.527 C 353.941,291.336 353.791,292.411 353.973,294.198 C 354.585,297.552 355.84,301.61 356.855,304.673 C 356.855,304.673 357.878,308.641 357.909,308.841 C 358.612,311.001 359.395,312.667 360.39,314.707 C 362.7,320.834 364.267,324.278 366.485,330.405 C 366.867,331.398 365.35,331.981 365,330.967 Z" fill="#000000" marker-start="none" marker-end="none"/>
     <path d="M 405.034,281.533 C 411.079,281.533 407.985,280.278 413.349,281.995 C 424.467,289.589 428.414,309.254 415.689,318.764 C 414.815,319.407 413.851,318.121 414.725,317.479 C 425.693,309.314 420.821,292.822 411.22,286.314 C 406.64,284.796 410.205,284.366 405.034,284.366 C 403.165,284.366 403.165,281.533 405.034,281.533 Z" fill="#000000" marker-start="none" marker-end="none"/>
     <path d="M 381.541,311.764 C 369.229,306.893 363.774,293.665 359.517,281.061 C 359.135,277.476 359.627,274.262 359.627,270.474 C 359.627,264.952 359.838,260.904 360.541,256.876 L 363.072,252.266 C 363.685,251.242 365.03,251.764 364.769,252.929 L 363.714,257.78 C 363.041,261.597 362.428,265.163 362.428,270.474 C 362.428,274.151 363.131,276.712 363.543,280.187 C 367.54,292.149 370.484,305.668 382.133,310.247 C 383.118,310.619 382.536,312.146 381.541,311.764 Z" fill="#000000" marker-start="none" marker-end="none"/>
     <path d="M 398.474,233.354 C 402.15,236.096 404.711,232.391 405.153,228.072 C 406.287,215.96 400.664,200.703 403.637,188.561 C 404.37,186.632 405.003,184.945 405.384,182.815 C 409.562,169.267 414.051,161.534 415.78,145.786 C 415.78,142.773 415.539,141.195 415.539,138.193 C 414.082,121.441 409.211,110.765 402.061,99.877 C 401.477,98.973 402.823,98.1 403.436,99.003 C 410.728,110.212 416.945,120.857 418.461,138.052 C 418.461,141.085 418.26,142.922 418.26,145.926 C 416.502,161.976 415.017,170.291 410.728,184.092 C 410.286,186.602 409.732,187.888 408.889,190.198 C 405.997,201.98 408.448,216.481 407.343,228.302 C 406.761,234.398 402.503,238.747 397.33,234.87 C 396.316,234.108 397.451,232.592 398.474,233.354 Z" fill="#000000" marker-start="none" marker-end="none"/>
     <path d="M 393.945,225.361 C 386.592,226.785 385.458,225.622 383.41,219.343 C 386.181,205.424 397.099,200.201 402.613,189.022 C 403.084,188.068 404.541,188.792 404.068,189.756 C 398.736,200.492 390.159,205.685 387.497,219.113 C 388.903,223.372 388.633,224.748 393.624,223.752 C 394.709,223.552 394.999,225.149 393.945,225.361 Z" fill="#000000" marker-start="none" marker-end="none"/>
     <path d="M 370.956,235.012 C 373.898,227.982 373.959,225.47 377.113,220.309 C 378.921,217.596 380.146,215.96 381.812,213.218 C 383.389,210.536 385.166,209.251 387.116,206.769 C 387.789,205.926 389.044,206.94 388.401,207.765 C 386.504,210.155 385.72,212.084 384.263,214.624 C 382.536,217.446 381.31,219.083 379.502,221.795 C 376.409,226.846 375.304,228.775 372.442,235.625 C 372,236.618 370.544,236.005 370.956,235.012 Z" fill="#000000" marker-start="none" marker-end="none"/>
     <path d="M 311.368,168.223 C 316.561,157.747 323.24,163.934 332.73,160.78 C 340.344,157.888 347.082,156.663 353.62,152.022 C 365.904,143.385 372.271,114.5 365,96.111 C 364.618,95.126 366.105,94.513 366.485,95.498 C 374.482,115.755 371.036,148.145 357.557,157.627 C 350.466,162.619 343.928,166.003 335.673,169.128 C 326.162,172.31 318.017,158.39 312.793,168.946 C 312.332,169.911 310.866,169.187 311.368,168.223 Z" fill="#000000" marker-start="none" marker-end="none"/>
     <path d="M 391.354,93.982 C 390.159,92.324 388.611,91.852 386.714,91.13 C 386.362,90.978 388.26,90.747 387.969,90.918 L 385.337,92.324 C 384.373,92.816 383.621,91.852 384.343,91.068 L 386.333,88.879 C 386.683,88.498 387.176,88.498 387.618,88.677 C 389.947,89.552 391.173,91.038 392.639,93.048 C 393.272,93.9 391.966,94.835 391.354,93.982 Z" fill="#000000" marker-start="none" marker-end="none"/>
     <path d="M 388.933,85.204 C 386.212,82.491 387.819,84.068 384.263,85.234 C 381.753,86.048 380.557,82.31 383.037,81.498 C 388.812,79.6 385.811,79.509 390.209,83.918 C 391.063,84.792 389.776,86.048 388.933,85.204 Z" fill="#000000" marker-start="none" marker-end="none"/>
     <path d="M 385.629,75.19 C 384.403,74.839 383.208,75.42 382.475,76.386 C 380.638,78.866 376.931,76.094 378.769,73.644 C 380.467,71.373 383.65,71.574 386.472,72.419 C 388.341,72.971 387.497,75.774 385.629,75.19 Z" fill="#000000" marker-start="none" marker-end="none"/>
     <path d="M 379.563,68.631 L 376.931,68.361 L 375.415,69.325 C 371.799,70.962 369.319,65.94 372.763,64.012 L 375.154,62.736 C 375.565,62.495 376.56,62.325 377.022,62.445 L 380.467,63.489 C 383.792,64.514 383.037,69.034 379.563,68.631 Z" fill="#000000" marker-start="none" marker-end="none"/>
     <path d="M 418.11,20.453 C 424.237,15.693 427.159,18.293 429.719,24.972 C 424.557,38.742 390.912,42.217 376.701,36.413 C 371.277,35.127 369.871,32.676 364.537,31.682 C 361.233,31.039 358.964,29.703 355.108,29.995 C 352.194,30.106 348.779,30.978 346.82,31.391 C 344.893,32.184 342.532,32.094 340.514,32.767 C 336.195,34.023 333.282,36.211 329.547,37.699 C 326.513,39.767 326.624,39.355 323.62,40.792 L 322.274,43.213 C 321.2,44.959 318.338,42.83 319.774,41.313 L 322.074,38.893 C 324.906,37.516 324.967,36.823 327.97,34.745 C 331.847,33.259 335.382,31.571 339.731,30.255 C 341.598,29.674 343.527,27.715 345.275,26.811 C 347.344,26.399 351.753,25.876 354.876,25.786 C 359.335,25.435 361.967,24.531 365.763,25.294 C 371.277,26.289 373.114,28.88 378.72,30.195 C 391.644,35.478 423.533,37.547 428.203,24.972 C 426.336,19.981 424.066,18.756 419.505,22.261 C 418.281,23.194 416.884,21.388 418.11,20.453 Z" fill="#000000" marker-start="none" marker-end="none"/>
     <path d="M 253.095,112.19 C 261.201,112.19 266.373,114.27 270.369,119.814 C 275.592,127.748 270.982,139.448 263.601,143.064 C 262.667,143.567 261.934,142.1 262.897,141.638 C 268.613,138.806 269.607,129.264 265.55,123.077 C 262.284,118.528 259.744,114.007 253.095,114.007 C 251.901,114.007 251.901,112.19 253.095,112.19 Z" fill="#000000" marker-start="none" marker-end="none"/>
     <path d="M 247.17,143.155 C 229.805,143.155 219.098,132.238 214.659,119.251 C 214.138,116.66 214.107,114.62 213.785,112.051 C 213.785,106.937 215.714,103.612 216.529,99.847 C 216.759,98.832 218.335,99.153 218.105,100.229 C 217.321,103.765 218.626,106.908 218.626,111.758 C 218.888,114.209 219.5,115.375 219.972,117.795 C 223.97,129.555 231.532,141.548 247.17,141.548 C 248.244,141.548 248.244,143.155 247.17,143.155 Z" fill="#000000" marker-start="none" marker-end="none"/>
     <path d="M 302.58,33.901 C 294.585,26.752 285.626,21.237 275.472,16.597 C 270.13,14.086 260.327,13.212 253.908,16.426 C 248.626,19.981 243.754,21.036 241.395,28.066 C 240.461,33.781 242.881,35.94 247.019,38.019 C 253.758,37.457 253.236,33.088 251.228,27.976 C 250.003,26.318 248.214,26.048 246.085,26.369 C 245.01,26.519 244.78,24.943 245.823,24.772 C 248.917,24.299 251.98,24.189 253.738,26.581 C 256.941,34.715 256.831,42.017 246.085,42.86 C 240.541,40.089 238.593,35.329 239.869,27.684 C 242.59,19.459 243.725,13.765 249.882,9.597 C 257.937,5.569 270.402,9.918 277.14,13.041 C 287.524,17.822 295.428,25.355 303.694,32.707 C 304.477,33.41 303.403,34.634 302.58,33.901 Z" fill="#000000" marker-start="none" marker-end="none"/>
     <path d="M 269.928,38.28 C 266.282,36.443 263.741,36.734 260.216,35.007 C 258.58,34.545 257.675,33.288 255.918,32.877 C 254.904,32.647 255.255,31.069 256.299,31.33 C 258.058,31.742 259.714,31.22 261.441,31.592 C 265.058,33.44 267.186,34.745 270.803,36.584 C 271.947,37.146 271.094,38.863 269.928,38.28 Z" fill="#000000" marker-start="none" marker-end="none"/>
     <path d="M 236.312,29.905 C 230.417,29.292 226.541,30.547 221.227,31.421 C 216.497,32.184 215.452,32.997 212.329,34.775 L 209.989,36.03 C 206.544,40.903 206.604,45.111 209.176,51.528 C 213.555,55.113 219.098,57.714 224.552,53.486 C 225.395,52.843 226.39,54.099 225.547,54.762 C 218.748,59.995 210.863,58.739 205.379,54.299 C 202.286,46.416 203.752,39.998 207.98,34.023 L 210.431,31.833 C 213.956,29.814 215.302,28.8 220.645,27.976 C 226.19,27.011 230.297,27.684 236.484,28.268 C 237.538,28.417 237.397,29.995 236.312,29.905 Z" fill="#000000" marker-start="none" marker-end="none"/>
     <path d="M 225.456,50.594 C 225.456,47.38 224.2,46.365 223.005,44.206 C 220.093,42.096 220.354,42.217 217.722,44.347 L 216.818,46.104 C 216.004,47.561 214.398,47.118 214.398,45.462 L 214.339,42.889 C 214.339,42.539 214.749,42.096 214.981,41.866 C 219.821,37.959 220.755,37.578 226.099,41.483 C 227.556,44.056 227.063,46.688 227.063,50.594 C 227.063,51.668 225.456,51.668 225.456,50.594 Z" fill="#000000" marker-start="none" marker-end="none"/>
     <path d="M 349.502,103.091 C 347.875,93.52 344.953,89 342.673,82.02 C 338.968,76.707 337.099,70.47 330.892,68.019 C 329.898,67.638 330.479,66.151 331.475,66.522 C 338.184,69.154 343.024,74.115 347.023,79.86 C 349.363,87.012 349.443,93.048 351.079,102.829 C 351.23,103.875 349.653,104.136 349.502,103.091 Z" fill="#000000" marker-start="none" marker-end="none"/>
     <path d="M 233.31,103.182 C 242.961,85.635 250.875,72.63 269.839,64.895 L 272.268,63.811 C 273.694,63.229 274.659,65.158 273.283,65.91 L 270.893,67.255 C 252.483,74.789 244.107,86.892 234.705,103.934 C 234.184,104.899 232.778,104.115 233.31,103.182 Z" fill="#000000" marker-start="none" marker-end="none"/>
     <path d="M 210.019,61.33 C 200.126,67.958 190.877,74.115 180.371,79.047 C 178.564,79.979 177.248,80.443 175.439,81.347 C 171.011,83.135 168.148,84.039 162.484,84.44 C 156.619,83.275 151.485,81.93 149.236,76.536 C 148.824,75.54 150.321,74.898 150.722,75.894 C 152.711,80.734 157.412,81.206 162.604,82.251 C 167.996,81.879 170.369,80.975 174.565,79.338 C 176.314,78.434 177.487,77.701 179.267,76.797 C 189.682,71.896 199.313,66.583 209.145,59.964 C 210.019,59.371 210.893,60.718 210.019,61.33 Z" fill="#000000" marker-start="none" marker-end="none"/>
     <path d="M 143.11,95.97 C 128.869,100.78 112.115,101.714 102.493,91.651 C 101.239,89.081 101.289,86.721 100.385,84.239 C 100.014,83.246 101.53,82.662 101.881,83.657 C 102.785,86.108 104.623,86.811 105.849,89.341 C 114.686,98.592 129.51,98.882 142.587,94.454 C 143.601,94.101 144.104,95.648 143.11,95.97 Z" fill="#000000" marker-start="none" marker-end="none"/>
     <path d="M 164.503,15.171 C 165.757,18.937 166.773,22.11 166.249,26.811 C 166.16,27.595 165.727,27.976 164.934,27.976 C 155.102,27.976 148.744,30.808 140.247,28.94 C 137.626,28.297 134.121,27.192 130.293,27.192 C 124.61,26.752 118.885,26.781 112.818,26.781 C 106.492,28.187 103.307,26.519 97.883,29.201 C 96.92,29.674 96.217,28.207 97.182,27.744 C 102.895,24.943 105.497,22.17 112.176,20.715 C 118.362,20.715 124.7,21.146 130.475,21.558 C 134.914,21.558 138.79,21.437 141.823,22.17 C 149.879,23.949 155.623,25.355 164.934,25.355 C 165.727,25.355 163.568,27.303 163.648,26.519 C 164.15,22.17 164.15,19.169 162.986,15.663 C 162.664,14.668 164.181,14.146 164.503,15.171 Z" fill="#000000" marker-start="none" marker-end="none"/>
     <path d="M 94.439,70.991 C 92.099,61.742 95.312,43.703 101.59,40.58 C 108.149,37.407 119.768,35.067 125.072,40.148 C 129.34,44.206 123.264,50.624 118.975,46.567 C 115.65,43.382 108.379,44.115 104.302,46.125 C 99.11,48.666 94.058,62.937 95.985,70.58 C 96.247,71.635 94.7,72.017 94.439,70.991 Z" fill="#000000" marker-start="none" marker-end="none"/>
     <path d="M 77.778,90.808 C 73.308,79.509 64.73,64.836 67.622,50.564 C 69.572,42.568 74.855,37.808 79.675,32.796 C 83.461,28.8 89.417,34.514 85.621,38.45 C 81.945,42.278 80.048,46.918 78.592,53.014 C 75.989,65.879 75.235,80.012 79.264,90.194 C 79.675,91.179 78.178,91.792 77.778,90.808 Z" fill="#ccff7f" marker-start="none" marker-end="none"/>
     <path d="M 167.796,15.281 L 170.739,16.627 C 181.657,31.279 167.335,41.806 152.802,38.19 C 151.777,37.959 152.128,36.413 153.174,36.644 C 165.406,39.677 177.78,31.13 168.58,18.817 L 166.741,16.777 C 165.929,15.864 166.691,14.789 167.796,15.281 Z" fill="#ccff7f" marker-start="none" marker-end="none"/>
     <path d="M 156.126,37.778 C 154.72,40.611 153.032,42.539 150.17,43.945 C 145.791,43.644 141.764,43.272 138.821,42.127 C 132.222,40.852 127.26,39.797 119.065,39.797 C 116.786,39.889 116.113,39.124 114.335,39.415 C 113.291,39.596 113.02,38.019 114.074,37.837 C 115.971,37.516 116.525,36.382 118.975,36.261 C 127.472,36.261 132.986,37.436 139.815,38.773 C 142.527,39.827 145.822,41.313 149.738,41.696 C 152.009,40.53 153.495,39.476 154.689,37.086 C 155.162,36.121 156.619,36.844 156.126,37.778 Z" fill="#ccff7f" marker-start="none" marker-end="none"/>
     <path d="M 136.37,42.922 C 138.47,46.075 140.247,49.781 140.247,55.433 L 139.494,58.006 C 136.22,64.514 127.734,67.196 118.191,65.619 C 108.5,60.778 104.563,43.593 120.673,42.449 C 126.939,45.753 128.164,52.602 122.039,56.289 C 120.702,57.102 119.497,55.113 120.844,54.331 C 124.379,52.17 123.384,48.605 119.799,46.688 C 107.766,47.561 111.453,60.517 118.683,64.102 C 127.413,65.537 134.995,63.399 137.977,57.452 L 138.379,55.203 C 138.379,49.981 136.983,46.688 135.024,43.794 C 134.442,42.922 135.788,42.017 136.37,42.922 Z" fill="#ccff7f" marker-start="none" marker-end="none"/>
     <path d="M 120.722,128.972 C 100.153,126.432 78.56,125.066 78.56,101.836 C 78.56,94.805 89.126,94.805 89.126,101.836 C 89.126,120.686 104.272,125.116 120.934,127.165 C 122.129,127.336 121.927,129.125 120.722,128.972 Z" fill="#ccff7f" marker-start="none" marker-end="none"/>
     <path d="M 94.639,103.703 C 97.643,107.641 99.953,109.63 103.508,113.014 C 110.076,117.885 116.755,120.216 125.223,123.077 C 126.217,123.46 125.715,124.976 124.7,124.624 C 116.032,121.682 109.053,119.401 102.374,114.38 C 98.698,110.965 96.418,108.725 93.355,104.668 C 92.712,103.795 93.998,102.829 94.639,103.703 Z" fill="#ccff7f" marker-start="none" marker-end="none"/>
     <path d="M 95.835,109.098 C 98.547,112.631 100.737,114.007 102.664,117.563 C 106.31,119.432 108.53,121.682 113.23,122.465 C 114.275,122.646 114.013,124.242 112.969,124.041 C 108.008,123.228 104.04,122.495 99.772,120.506 C 97.904,116.69 97.151,113.415 94.549,110.061 C 93.906,109.248 95.192,108.254 95.835,109.098 Z" fill="#ccff7f" marker-start="none" marker-end="none"/>
     <path d="M 134.613,126.03 L 133.8,128.622 C 133.709,129.034 133.418,126.964 133.689,127.306 C 134.673,128.622 134.733,130.139 136.311,130.871 C 138.881,129.616 138.67,128.451 139.282,126.231 C 138.058,120.105 135.577,120.074 130.736,121.561 C 128.135,123.519 127.763,126.111 127.472,130.228 C 128.577,133.703 128.547,134.054 130.938,135.833 C 133.447,136.385 134.794,137.148 137.475,137.319 C 148.483,134.958 153.586,127.657 160.796,121.943 C 163.89,118.618 165.667,116.92 169.143,114.149 C 172.899,110.443 176.343,107.549 180.754,104.086 C 193.829,93.9 207.477,84.912 221.078,75.572 C 221.982,74.929 222.885,76.276 222.011,76.887 C 208.443,86.228 196.772,97.717 183.725,107.871 C 179.468,111.205 176.283,114.411 172.638,118.055 C 169.313,120.686 167.214,122.666 164.291,125.759 C 156.798,131.745 149.095,136.446 137.566,138.926 C 134.794,138.715 132.634,138.806 129.833,138.193 C 126.649,135.862 126.328,135.1 124.901,130.55 C 125.223,125.528 126.97,122.405 130.034,120.165 C 136.249,118.207 139.987,118.376 141.564,126.322 C 140.75,129.125 139.574,130.751 136.311,132.328 C 134.442,131.454 132.925,130.369 131.7,128.853 C 131.379,128.421 131.259,127.949 131.549,127.517 L 133.187,125.297 C 133.8,124.452 134.914,124.976 134.613,126.03 Z" fill="#ccff7f" marker-start="none" marker-end="none"/>
     <path d="M 161.228,117.975 C 156.096,122.083 152.39,125.88 145.62,128.129 L 143.08,128.361 C 141.855,128.451 141.503,127.074 142.637,126.613 L 144.888,125.618 C 151.365,123.46 155.302,120.627 160.233,116.72 C 161.058,116.047 162.082,117.272 161.228,117.975 Z" fill="#ccff7f" marker-start="none" marker-end="none"/>
     <path d="M 128.958,94.885 C 119.327,92.324 115.27,90.225 109.343,84.329 C 107.798,81.176 106.601,77.35 106.25,72.649 C 106.2,71.574 107.798,71.484 107.857,72.539 C 108.149,76.917 110.539,79.509 112.005,82.402 C 117.579,87.976 120.322,90.888 129.37,93.319 C 130.414,93.61 130.003,95.177 128.958,94.885 Z" fill="#000000" marker-start="none" marker-end="none"/>
     <path d="M 149.115,94.835 C 140.89,98.803 131.61,102.649 119.649,102.649 C 118.544,102.649 118.544,101.043 119.649,101.043 C 131.349,101.043 140.397,97.255 148.423,93.369 C 149.416,92.937 150.079,94.364 149.115,94.835 Z" fill="#ccff7f" marker-start="none" marker-end="none"/>
     <path d="M 118.222,102.97 C 98.929,99.476 86.586,96.904 85.069,75.774 C 85.069,70.318 88.946,66.784 89.588,62.907 C 89.769,61.853 91.375,62.124 91.165,63.198 C 90.582,66.814 93.293,70.349 93.293,75.452 C 94.579,93.168 102.493,97.778 118.624,100.731 C 120.14,100.992 119.738,103.262 118.222,102.97 Z" fill="#ccff7f" marker-start="none" marker-end="none"/>
     <path d="M 231.672,114.349 C 223.939,114.349 221.66,114.239 218.365,107.581 C 218.365,83.045 237.568,70.44 253.327,62.325 C 254.291,61.853 255.014,63.288 254.061,63.78 C 240.019,70.991 227.123,83.625 227.123,105.542 C 228.73,108.755 227.967,109.448 231.672,109.448 C 234.968,109.448 234.968,114.349 231.672,114.349 Z" fill="#ccff7f" marker-start="none" marker-end="none"/>
     <path d="M 346.62,113.124 L 348.659,115.204 C 352.013,114.007 350.879,115.204 351.812,111.438 C 347.584,98.743 334.679,105.22 337.862,117.975 C 341.508,122.987 347.344,130.057 355.921,125.759 C 359.315,121.5 360.481,119.14 361.705,112.894 C 361.705,87.625 347.313,72.017 329.666,65.006 C 328.703,64.605 329.285,63.108 330.279,63.519 C 349.01,70.962 366.195,86.519 366.195,113.334 C 364.799,120.366 361.555,123.198 357.708,127.978 C 346.941,133.381 337.541,126.552 332.931,120.275 C 328.26,101.483 347.313,92.677 353.56,111.377 C 352.275,116.459 352.777,115.404 348.277,117.011 L 345.476,114.3 C 344.722,113.536 345.888,112.401 346.62,113.124 Z" fill="#ccff7f" marker-start="none" marker-end="none"/>
     <path d="M 349.744,125.418 C 361.263,131.162 364.126,117.653 362.459,107.409 C 362.087,101.635 362.197,101.714 360.62,96.904 C 360.008,94.914 362.991,93.982 363.603,95.97 C 365.291,101.192 366.195,100.64 366.667,106.937 C 369.178,122.435 363.423,141.669 345.977,132.971 C 340.956,130.43 344.722,122.876 349.744,125.418 Z" fill="#ccff7f" marker-start="none" marker-end="none"/>
     <path d="M 316.179,56.901 C 314.461,53.456 314.521,51.668 316.119,48.495 C 319.011,47.561 322.365,46.858 325.137,48.284 C 327.326,52.633 327.266,55.556 325.87,61.069 C 323.39,62.937 320.788,63.992 317.494,65.006 C 306.226,60.397 304.067,50.122 312.182,43.213 C 320.788,35.74 334.479,27.805 350.618,26.519 C 353.852,27.273 357.145,28.207 359.657,29.172 C 381.812,38.049 417.758,48.315 426.686,22.202 C 427.189,20.795 429.289,21.497 428.816,22.904 C 419.014,51.528 380.697,47.089 356.393,37.407 C 354.263,36.584 352.716,35.92 349.945,35.247 C 335.472,36.413 323.3,40.5 315.595,47.148 C 309.62,52.261 309.269,60.106 317.554,63.519 C 320.678,62.555 322.274,61.973 324.614,60.226 C 325.81,55.465 324.817,54.21 322.918,50.473 C 320.909,49.509 319.804,49.629 317.696,50.302 C 316.47,52.754 316.328,53.537 317.614,56.168 C 318.107,57.132 316.681,57.824 316.179,56.901 Z" fill="#ccff7f" marker-start="none" marker-end="none"/>
     <path d="M 343.316,42.046 C 348.689,42.568 352.567,42.397 357.327,43.011 C 361.384,43.995 364.507,44.669 368.294,45.462 C 372,46.737 371.537,46.768 374.541,48.264 C 384.956,52.4 391.414,64.313 404.421,64.012 C 409.732,63.932 415.83,58.448 413.268,53.275 C 412.797,52.312 414.233,51.587 414.725,52.553 C 418.171,59.433 411.631,68.019 404.48,68.13 C 390.912,68.421 383.329,57.243 372.442,52.925 C 369.79,51.619 369.961,51.97 366.807,50.915 C 363.041,50.102 360.45,49.539 356.272,48.554 C 351.582,47.941 348.277,46.365 342.965,45.863 C 340.434,45.632 340.785,41.806 343.316,42.046 Z" fill="#ccff7f" marker-start="none" marker-end="none"/>
     <path d="M 399.93,51.036 C 403.376,51.99 408.448,51.177 412.978,51.177 C 418.521,49.108 422.107,46.688 422.107,41.052 C 422.107,39.967 423.744,39.967 423.744,41.052 C 423.744,48.112 420.762,53.275 413.821,55.847 C 408.999,55.847 403.165,53.627 399.489,52.583 C 398.474,52.281 398.907,50.714 399.93,51.036 Z" fill="#ccff7f" marker-start="none" marker-end="none"/>
     <path d="M 296.976,133.844 L 295.609,131.514 C 295.258,130.841 297.738,131.655 297.096,132.005 C 293.218,133.934 298.06,134.899 301.415,134.899 C 303.051,134.899 298.704,138.957 298.814,137.319 C 299.728,124.945 293.129,121.5 282.333,121.5 C 280.664,121.5 280.664,118.96 282.333,118.96 C 295.871,118.96 305.151,122.174 304.016,137.731 C 303.926,139.328 303.051,140.152 301.415,140.152 C 294.063,140.152 287.615,134.256 296.101,130.028 C 296.775,129.676 297.277,129.818 297.589,130.52 L 298.673,132.971 C 299.165,134.165 297.589,134.929 296.976,133.844 Z" fill="#ccff7f" marker-start="none" marker-end="none"/>
     <path d="M 267.599,129.526 C 266.282,132.217 266.604,134.135 265.73,136.998 C 264.937,139.508 261.201,138.344 261.963,135.862 C 262.897,132.8 264.796,131.655 266.131,128.853 C 266.604,127.887 268.029,128.561 267.599,129.526 Z" fill="#ccff7f" marker-start="none" marker-end="none"/>
     <path d="M 266.373,156.141 C 268.091,160.72 269.546,162.448 271.736,165.391 C 274.248,169.128 275.472,172.161 279.008,174.811 C 282.975,180.154 289.272,180.736 296.865,181.319 C 305.21,183.368 313.437,182.173 322.074,180.707 C 323.329,180.476 323.651,182.374 322.394,182.575 C 313.346,184.122 305.09,186.542 296.363,184.383 C 287.877,183.749 281.69,182.545 277.219,176.599 C 273.313,173.617 270.541,172.249 267.799,168.163 C 265.409,164.898 265.64,162.207 263.741,157.135 C 263.068,155.357 265.73,154.363 266.373,156.141 Z" fill="#ccff7f" marker-start="none" marker-end="none"/>
     <path d="M 323.36,172.803 C 331.355,172.19 325.87,167.842 323.128,166.445 L 320.878,166.124 C 318.047,166.124 315.506,165.882 313.788,166.767 C 310.113,171.747 316.239,175.453 320.175,178.347 C 331.937,187.134 345.275,174.581 351.521,168.604 C 352.305,167.842 353.419,169.006 352.656,169.77 C 345.425,176.659 330.621,192.678 317.083,182.545 C 311.889,178.729 307.952,172.13 312.764,165.561 C 314.692,164.627 317.986,163.813 321.171,163.813 L 323.771,164.656 C 328.23,166.908 336.436,174.028 323.53,175.023 C 322.044,175.113 321.903,172.923 323.36,172.803 Z" fill="#ccff7f" marker-start="none" marker-end="none"/>
     <path d="M 339.79,187.829 C 333.544,190.048 328.814,192.356 322.457,194.457 C 320.417,194.887 316.732,195.159 313.849,195.159 C 307.893,194.657 302.761,194.717 296.895,193.813 C 289.835,191.684 285.837,190.49 279.47,187.304 C 276.898,184.735 275.271,181.641 272.319,179.37 C 271.445,178.698 272.439,177.443 273.283,178.085 C 276.346,180.446 278.888,181.762 281.569,184.413 C 287.706,187.475 290.709,188.881 297.538,190.982 C 303.313,191.885 308.043,192.728 313.938,193.26 C 316.681,193.26 320.035,193.14 321.984,192.728 C 328.322,190.599 333.052,188.531 339.259,186.312 C 340.252,185.959 340.785,187.455 339.79,187.829 Z" fill="#ccff7f" marker-start="none" marker-end="none"/>
     <path d="M 341.8,288.734 C 339.851,284.796 340.283,283.14 343.848,281.413 C 347.584,284.275 348.368,286.726 348.046,291.456 C 345.506,297.694 341.8,300.325 337.661,294.81 C 330.682,285.47 338.384,269.974 342.091,264.168 C 344.803,260.693 347.584,256.555 349.392,252.236 C 351.401,248.209 352.686,244.935 354.524,241.29 C 359.657,231.075 365.521,225.209 371.015,216.14 C 376.589,204.902 379.995,195.531 384.816,183.428 C 391.354,161.745 397.27,132.297 389.425,109.248 C 389.074,108.222 390.59,107.701 390.912,108.725 C 398.937,132.267 395.202,162.559 388.491,184.704 C 383.65,196.906 379.211,206.248 373.546,217.506 C 368.153,226.526 364.187,233.496 359.104,243.6 C 357.265,247.214 355.579,250.127 353.591,254.184 C 351.582,258.886 349.302,263.384 346.349,267.171 C 343.024,272.424 332.669,285.409 338.938,293.846 C 342.03,297.964 344.601,295.775 346.5,291.134 C 346.76,287.188 346.731,285.642 343.637,283.28 C 341.397,284.386 342.01,285.53 343.235,288.041 C 343.727,288.976 342.301,289.698 341.8,288.734 Z" fill="#ccff7f" marker-start="none" marker-end="none"/>
     <path d="M 355.629,326.357 L 353.329,329.39 C 352.888,329.912 352.425,329.912 352.043,329.36 C 349.01,325.212 348.98,321.656 351.432,317.399 C 351.783,316.755 352.396,316.514 353.098,316.726 C 365.291,320.221 363.944,332.915 353.882,336.19 C 341.478,335.225 337.219,320.603 334.738,309.896 C 335.181,307.385 336.226,301.579 336.667,299.159 C 337.279,295.303 343.024,296.267 342.381,300.123 C 342.01,302.544 342.271,307.153 341.86,309.664 C 344.049,319.175 342.673,333.759 353.681,334.643 C 361.524,332.072 361.786,322.24 352.275,319.529 C 351.582,319.317 354.324,318.212 353.941,318.855 C 351.983,322.24 350.94,325.102 353.36,328.426 C 353.741,328.948 351.632,328.919 352.043,328.395 L 354.353,325.362 C 355.016,324.539 356.272,325.503 355.629,326.357 Z" fill="#ccff7f" marker-start="none" marker-end="none"/>
     <path d="M 406.44,297.492 C 406.027,299.622 406.87,300.999 406.469,303.036 C 406.118,304.875 404.893,305.225 403.254,304.352 L 399.549,302.283 C 399.138,302.072 398.676,301.349 398.555,300.907 C 394.528,286.845 411.018,286.174 415.076,297.964 C 417.668,305.718 413.268,312.638 409.763,316.142 C 391.323,319.729 381.894,284.275 392.107,271.931 C 397.943,266.127 407.956,264.168 417.296,266.006 C 432.461,271.35 438.708,286.926 438.708,306.25 C 438.708,307.355 437.102,307.355 437.102,306.25 C 437.102,289.176 428.906,277.295 415.509,272.574 C 408.368,271.168 401.097,271.61 396.657,276.07 C 387.998,286.465 393.221,317.307 408.769,314.274 C 411.692,311.322 413.912,305.608 411.722,299.1 C 409.703,293.144 400.804,291.797 402.794,298.888 L 405.616,300.937 C 407.113,302.222 402.03,304.171 402.441,302.253 C 402.844,300.143 404.421,299.359 404.863,297.171 C 405.063,296.117 406.64,296.417 406.44,297.492 Z" fill="#ccff7f" marker-start="none" marker-end="none"/>
     <path d="M 433.576,282.959 C 438.066,284.796 435.555,281.271 439.934,284.505 L 442.645,288.303 C 444.022,292.44 445.538,295.533 445.83,300.033 C 448.05,324.75 433.106,330.375 417.959,337.937 C 417.004,338.4 416.272,336.973 417.236,336.48 C 431.066,329.591 442.645,322.992 440.637,300.435 C 440.346,296.468 439.03,294.55 437.804,290.863 L 435.876,288.624 C 432.322,285.992 436.259,286.866 432.582,285.38 C 430.976,284.687 431.969,282.285 433.576,282.959 Z" fill="#ccff7f" marker-start="none" marker-end="none"/>
     <path d="M 440.957,317.83 C 442.565,321.828 442.505,325.102 441.893,329.421 C 437.422,333.88 435.384,336.04 429.902,338.229 C 423.513,341.171 419.103,342.426 411.16,343.922 C 387.296,343.922 374.431,337.876 365.963,322.882 C 364.94,320.692 365.492,318.945 364.678,316.726 C 364.126,315.29 366.285,314.445 366.838,315.871 C 367.651,318.031 369.349,318.503 370.343,320.603 C 378.187,334.553 388.812,342.346 410.989,342.346 C 418.752,340.859 422.781,339.103 429.057,336.19 C 434.189,334.171 435.675,332.272 439.642,328.274 C 440.225,324.569 440.928,322.059 439.501,318.413 C 439.061,317.418 440.578,316.836 440.957,317.83 Z" fill="#ccff7f" marker-start="none" marker-end="none"/>
     <path d="M 382.395,401.462 C 379.442,403.038 380.878,404.143 380.878,407.559 C 380.878,408.201 379.442,405.168 379.945,405.579 C 382.656,407.798 382.887,409.286 384.816,411.707 C 393.685,418.386 407.283,399.946 407.283,388.566 C 406.55,385.212 405.676,382.149 405.183,378.614 C 405.183,378.614 404.279,376.071 404.19,375.811 C 403.254,373.974 402.552,372.898 401.77,371.111 C 399.44,367.705 398.203,364.875 395.522,362.213 C 394.768,361.459 395.934,360.314 396.687,361.076 C 399.408,363.819 401.277,366.482 403.697,370.066 C 404.48,371.844 405.003,373.22 405.917,375.028 L 407.312,378.03 C 407.805,381.536 408.156,385.092 408.86,388.395 C 408.86,400.74 393.303,420.083 383.681,412.872 C 381.863,410.542 379.332,411.677 376.701,409.547 C 376.209,409.166 375.736,408.201 375.736,407.559 C 375.736,402.225 376.671,401.904 381.281,399.422 C 382.656,398.69 383.73,400.74 382.395,401.462 Z" fill="#ccff7f" marker-start="none" marker-end="none"/>
    </g>
   </g>
  </g>
 </g>
</svg>
