<?xml version="1.0" standalone="no"?>
<!-- Generator: Xara Xtreme (www.xara.com), SVG filter version: 0.4 -->
<!DOCTYPE svg PUBLIC "-//W3C//DTD SVG 1.1//EN" "http://www.w3.org/Graphics/SVG/1.1/DTD/svg11.dtd">
<svg stroke-width="0.501" stroke-linejoin="bevel" fill-rule="evenodd" xmlns:xlink="http://www.w3.org/1999/xlink" xmlns="http://www.w3.org/2000/svg" version="1.1" width="450pt" height="450pt" viewBox="0 0 450 450">
 <defs>
  <marker id="DefaultArrow2" markerUnits="strokeWidth" viewBox="0 0 1 1" markerWidth="1" markerHeight="1" overflow="visible" orient="auto">
   <!-- REF_ARROW_STRAIGHT (-2) -->
   <g transform="scale(0.0092592592)">
    <!-- 1/108 -->
    <path d="M -9 54 L -9 -54 L 117 0 z"/>
   </g>
  </marker>
  <marker id="DefaultArrow3" markerUnits="strokeWidth" viewBox="0 0 1 1" markerWidth="1" markerHeight="1" overflow="visible" orient="auto">
   <!-- REF_ARROW_ANGLED -->
   <g transform="scale(0.0092592592)">
    <path d="M -27 54 L -9 0 L -27 -54 L 135 0 z"/>
   </g>
  </marker>
  <marker id="DefaultArrow4" markerUnits="strokeWidth" viewBox="0 0 1 1" markerWidth="1" markerHeight="1" overflow="visible" orient="auto">
   <!-- REF_ARROW_ROUNDED -->
   <g transform="scale(0.0092592592)">
    <path d="M -9,0 L -9,-45 C -9,-51.708 2.808,-56.580 9,-54 L 117,-9 C 120.916,-7.369 126.000,-4.242 126,0 C 126,4.242 120.916,7.369 117,9 L 9,54 C 2.808,56.580 -9,51.708 -9,45 z"/>
   </g>
  </marker>
  <marker id="DefaultArrow5" markerUnits="strokeWidth" viewBox="0 0 1 1" markerWidth="1" markerHeight="1" overflow="visible" orient="auto">
   <!-- REF_ARROW_SPOT -->
   <g transform="scale(0.0092592592)">
    <path d="M -54, 0 C -54,29.807 -29.807,54 0,54 C 29.807,54 54,29.807 54,0 C 54,-29.807 29.807,-54 0,-54 C -29.807,-54 -54,-29.807 -54,0 z"/>
   </g>
  </marker>
  <marker id="DefaultArrow6" markerUnits="strokeWidth" viewBox="0 0 1 1" markerWidth="1" markerHeight="1" overflow="visible" orient="auto">
   <!-- REF_ARROW_DIAMOND -->
   <g transform="scale(0.0092592592)">
    <path d="M -63,0 L 0,63 L 63,0 L 0,-63 z"/>
   </g>
  </marker>
  <marker id="DefaultArrow7" markerUnits="strokeWidth" viewBox="0 0 1 1" markerWidth="1" markerHeight="1" overflow="visible" orient="auto">
   <!-- REF_ARROW_FEATHER -->
   <g transform="scale(0.0092592592)">
    <path d="M 18,-54 L 108,-54 L 63,0 L 108,54 L 18, 54 L -36,0 z"/>
   </g>
  </marker>
  <marker id="DefaultArrow8" markerUnits="strokeWidth" viewBox="0 0 1 1" markerWidth="1" markerHeight="1" overflow="visible" orient="auto">
   <!-- REF_ARROW_FEATHER2 -->
   <g transform="scale(0.0092592592)">
    <path d="M -36,0 L 18,-54 L 54,-54 L 18,-18 L 27,-18 L 63,-54 L 99,-54 L 63,-18 L 72,-18 L 108,-54 L 144,-54 L 90,0 L 144,54 L 108,54 L 72,18 L 63,18 L 99,54 L 63,54 L 27,18 L 18,18 L 54,54 L 18,54 z"/>
   </g>
  </marker>
  <marker id="DefaultArrow9" markerUnits="strokeWidth" viewBox="0 0 1 1" markerWidth="1" markerHeight="1" overflow="visible" orient="auto">
   <!-- REF_ARROW_HOLLOWDIAMOND -->
   <g transform="scale(0.0092592592)">
    <path d="M 0,45 L -45,0 L 0, -45 L 45, 0 z M 0, 63 L-63, 0 L 0, -63 L 63, 0 z"/>
   </g>
  </marker>
 </defs>
 <g id="Document" fill="none" stroke="black" font-family="Times New Roman" font-size="16" transform="scale(1 -1)">
  <g id="Spread" transform="translate(0 -450)">
   <g id="Layer 1">
    <g id="Group" stroke-linejoin="miter" stroke="none" stroke-width="1.746" stroke-miterlimit="79.8403193612775">
     <path d="M 55.875,22.326 C 47.387,18.058 44.205,23.371 39.625,29.437 C 37.666,40.293 39.243,46.159 41.814,56.494 C 57.452,87.076 84.478,102.654 91.449,137.906 C 91.68,139.071 89.901,139.453 89.671,138.258 C 82.521,102.041 39.182,94.891 23.103,63.495 C 19.869,50.308 19.226,35.453 21.707,21.594 C 30.545,9.923 43.562,6.036 59.933,14.241 C 65.335,16.923 61.249,25.038 55.875,22.326 Z" fill="#006c10" marker-start="none" marker-end="none"/>
     <path d="M 68.218,53.491 C 61.249,56.955 62.935,58.332 60.284,66.327 C 62.825,94.689 79.135,102.834 85.995,130.525 C 86.317,131.69 84.529,132.132 84.237,130.966 C 76.826,101.137 47.387,95.071 44.646,64.489 C 49.075,51.152 50.451,46.983 62.031,41.168 C 70.268,37.06 76.423,49.373 68.218,53.491 Z" fill="#006c10" marker-start="none" marker-end="none"/>
     <path d="M 42.627,154.157 C 43.45,143.923 42.165,148.963 43.712,139.361 C 44.144,136.711 45.66,135.838 48.201,136.711 C 65.828,143.069 77.649,173.741 60.114,183.484 C 40.388,194.341 21.647,175.288 14.386,162.944 C 8.921,124.689 37.234,97.29 74.325,116.344 C 95.566,127.28 99.966,159.038 95.064,188.977 C 94.894,190.172 93.086,189.881 93.287,188.687 C 97.435,163.437 84.88,139.895 66.993,130.644 C 45.399,119.577 29.29,134.381 32.474,156.637 C 36.09,162.854 42.105,174.324 52.059,168.871 C 61.68,163.528 55.614,146.544 45.902,143.069 C 43.391,142.135 50.803,137.785 50.361,140.417 C 48.904,149.728 48.644,144.646 47.85,154.568 C 47.558,158.043 42.366,157.632 42.627,154.157 Z" fill="#006c10" marker-start="none" marker-end="none"/>
     <path d="M 89.671,198.277 C 71.341,241.474 48.291,290.989 62.795,354.223 C 67.315,374.209 100.025,419.615 122.412,389.736 C 130.437,379 146.548,391.052 138.492,401.757 C 106.393,444.684 55.906,386 49.397,357.285 C 34.312,291.631 68.751,242.349 87.833,197.494 C 88.355,196.269 90.193,197.052 89.671,198.277 Z" fill="#337f00" marker-start="none" marker-end="none"/>
     <path d="M 139.628,392.076 C 147.391,395.954 155.094,398.464 166.623,399.367 C 207.943,394.235 235.693,373.807 265.894,357.024 C 293.996,341.446 327.169,327.467 361.025,344.39 C 367.473,350.838 371.64,357.527 375.669,367.79 C 379.725,392.398 373.108,420.469 352.679,427.179 C 322.156,437.302 307.995,406.92 331.457,391.282 C 332.451,390.61 333.445,392.107 332.451,392.769 C 319.064,401.728 330.001,417.134 347.457,411.359 C 360.613,407.011 359.801,388.772 357.169,372.905 C 354.396,365.843 354.336,364.295 349.906,359.887 C 322.268,346.057 297.58,360.027 274.622,372.752 C 242.492,390.579 210.976,411.972 167.056,417.455 C 152.844,416.351 141.877,411.419 132.365,406.66 C 122.644,401.788 129.935,387.226 139.628,392.076 Z" fill="#006c10" marker-start="none" marker-end="none"/>
     <path d="M 346.2,431.437 C 329.801,430.152 322.207,431.668 311.381,426.304 C 292.77,422.598 275.436,426.094 290.671,436.72 C 291.655,437.423 290.61,438.91 289.647,438.205 C 266.274,421.864 287.608,406.579 316.172,412.233 C 325.803,417.024 332.05,424.256 346.664,425.43 C 350.661,425.722 350.199,431.728 346.2,431.437 Z" fill="#006c10" marker-start="none" marker-end="none"/>
     <path d="M 166.623,398.494 C 200.731,390.026 221.883,378.267 248.297,361.816 C 271.257,347.544 298.836,323.7 338.579,331.554 C 351.976,334.145 367.181,357.698 373.249,367.853 C 375.316,380.396 372.143,396.275 367.243,406.107 C 365.485,409.582 360.263,406.98 362.01,403.486 C 366.217,395.11 361.397,383.58 359.619,372.842 C 354.809,364.849 346.753,345.847 336.188,343.777 C 299.71,336.566 273.276,354.925 252.174,368.032 C 225.327,384.744 201.726,391.635 167.056,400.271 C 165.891,400.533 165.449,398.815 166.623,398.494 Z" fill="#337f00" marker-start="none" marker-end="none"/>
     <path d="M 161.512,396.595 C 193.701,402.873 227.197,377.282 237.149,357.346 C 243.718,344.22 234.226,325.307 227.087,319.994 C 218.769,311.859 202.449,301.724 188.769,311.97 C 176.166,321.401 185.908,333.102 198.954,336.948 C 204.729,338.645 202.219,347.312 196.413,345.615 C 173.885,339.017 159.293,317.986 181.065,301.675 C 201.193,286.58 225.037,296.121 237.239,308.093 C 247.394,315.645 254.575,342.723 245.264,361.404 C 234.498,382.876 195.891,405.353 161.129,398.585 C 159.795,398.314 160.197,396.334 161.512,396.595 Z" fill="#006c10" marker-start="none" marker-end="none"/>
     <path d="M 129.354,401.969 C 115.462,398.524 109.627,397.208 100.527,389.966 C 96.701,382.213 92.935,375.264 89.762,367.299 C 88.125,359.184 87.944,350.345 87.944,337.651 C 87.944,329.796 92.533,324.463 98.188,329.917 L 108.985,340.423 C 109.888,341.237 109.658,341.91 108.493,342.17 L 93.779,345.384 C 88.587,346.579 104.023,332.338 104.023,337.651 C 104.023,348.939 104.435,355.307 105.832,362.508 C 108.903,370.041 109.749,372.321 113.333,379.643 C 120.896,385.599 120.042,390.348 131.543,393.181 C 137.408,394.637 135.219,403.426 129.354,401.969 Z" fill="#006c10" marker-start="none" marker-end="none"/>
     <path d="M 116.979,405.876 C 105.048,397.008 92.383,392.418 85.383,378.327 C 58.295,324.142 73.039,271.294 132.014,259.683 C 145.201,259.683 159.473,260.638 168.282,263.239 C 194.605,276.345 209.137,309.228 184.532,334.387 C 172.891,339.047 161.682,340.302 150.917,334.968 C 149.982,332.107 150.424,324.202 149.46,317.804 C 149.29,316.488 151.237,316.198 151.479,317.544 C 152.352,323.559 156.319,326.794 157.223,329.506 C 166.011,333.825 172.218,333.915 181.71,330.118 C 202.74,308.615 187.926,281.799 165.388,270.59 C 157.103,268.17 145.081,266.945 132.707,266.945 C 80.531,277.22 71.754,325.247 95.737,373.194 C 102.104,386 107.698,395.631 118.586,403.716 C 120.042,404.79 118.445,406.98 116.979,405.876 Z" fill="#006c10" marker-start="none" marker-end="none"/>
     <path d="M 106.103,405.144 C 79.014,394.528 62.122,366.305 62.122,328.631 C 62.122,268.522 105.369,234.725 155.446,242.99 C 177.391,247.359 179.659,255.656 190.197,269.747 C 193.641,274.387 186.721,279.55 183.286,274.939 C 174.85,263.62 170.269,261.601 152.704,258.107 C 111.326,251.277 75.57,278.997 75.57,328.631 C 75.57,362.397 83.514,391.313 107.79,400.825 C 110.652,401.969 108.954,406.288 106.103,405.144 Z" fill="#006c10" marker-start="none" marker-end="none"/>
     <path d="M 126.641,414.221 C 109.627,426.978 97.052,427.118 80.591,418.893 C 68.751,415.247 60.926,409.081 47.588,411.741 C 39.182,415.879 32.945,417.166 28.828,425.571 C 27.634,427.912 24.127,426.153 25.261,423.823 C 30.515,413.228 32.273,403.134 42.859,397.851 C 58.908,394.698 71.784,400.794 86.055,405.203 C 99.092,411.711 109.918,419.937 123.428,409.873 C 126.321,407.713 129.564,412.032 126.641,414.221 Z" fill="#006c10" marker-start="none" marker-end="none"/>
     <path d="M 115.995,411.159 C 83.595,411.159 73.411,398.263 49.548,398.082 L 40.759,400.333 C 39.043,400.825 38.339,400.151 38.841,398.404 L 41.985,387.055 C 42.627,384.865 44.817,384.925 47.097,384.956 C 72.014,385.157 82.199,409.321 115.995,409.321 C 117.19,409.321 117.19,411.159 115.995,411.159 Z" fill="#006c10" marker-start="none" marker-end="none"/>
     <path d="M 73.652,383.81 C 49.96,365.571 31.982,343.104 31.982,308.093 C 37.786,263.972 62.734,252.702 72.306,219.349 C 77.237,202.194 70.699,187.632 58.446,196.792 C 57.452,197.524 56.407,196.068 57.361,195.366 C 76.303,181.183 94.713,197.032 87.1,223.607 C 77.76,256.177 53.283,266.04 47.619,309.137 C 47.619,341.066 53.253,365.552 74.877,382.183 C 75.952,383.027 74.726,384.603 73.652,383.81 Z" fill="#006c10" marker-start="none" marker-end="none"/>
     <path d="M 84.237,221.277 C 87.652,207.417 84.941,193.648 82.37,177.156 C 82.199,175.93 85.905,182.058 84.911,181.325 C 77.439,175.751 82.902,171.059 74.666,175.168 C 73.592,175.73 72.798,174.092 73.852,173.57 C 86.899,167.063 80.742,162.161 92.584,171 C 93.608,171.753 94.924,173.973 95.124,175.197 C 97.806,192.914 89.671,206.835 85.995,221.719 C 85.704,222.883 83.976,222.443 84.237,221.277 Z" fill="#337f00" marker-start="none" marker-end="none"/>
     <path d="M 91.007,372.722 C 70.026,324.985 71.754,277.128 124.131,266.683 C 136.855,271.905 128.539,268.37 141.616,278.033 C 148.525,283.144 140.852,293.468 133.963,288.367 C 123.428,280.574 132.597,289.472 122.322,285.244 C 78.935,293.911 76.273,332.017 93.699,371.558 C 94.482,373.335 91.8,374.51 91.007,372.722 Z" fill="#337f00" marker-start="none" marker-end="none"/>
     <path d="M 122.002,388.159 C 111.586,379.904 61.368,332.227 104.344,320.727 C 109.166,319.441 113.133,320.928 115.553,325.277 L 120.745,334.467 C 127.083,345.796 111.033,355.448 104.023,344.479 L 98.308,335.611 C 95.737,331.585 114.176,338.906 109.537,340.131 C 80.361,347.955 117.36,379.461 124.422,385.066 C 126.5,386.703 124.039,389.766 122.002,388.159 Z" fill="#337f00" marker-start="none" marker-end="none"/>
     <path d="M 136.886,395.752 C 156.349,410.284 164.958,416.382 190.718,424.929 C 199.154,422.89 204.438,425.481 200.611,417.808 C 197.729,412.032 206.396,407.775 209.248,413.519 C 218.268,431.728 209.951,437.974 189.964,442.786 C 162.155,433.566 152.494,418.682 131.451,402.983 C 126.641,399.398 132.043,392.127 136.886,395.752 Z" fill="#006c10" marker-start="none" marker-end="none"/>
     <path d="M 154.25,405.523 C 179.902,409.723 213.537,424.868 230.089,402.783 C 232.217,399.921 231.023,416 229.326,412.846 C 224.514,403.917 232.63,410.195 223.108,403.044 C 213.396,395.782 224.284,381.19 233.996,388.449 C 249.984,400.442 237.792,388.952 245.847,403.977 C 247.534,407.101 247.273,411.188 245.114,414.071 C 225.217,440.686 184.833,412.765 153.929,407.713 C 152.463,407.483 152.784,405.293 154.25,405.523 Z" fill="#337f00" marker-start="none" marker-end="none"/>
     <path d="M 361.808,399.81 C 355.16,412.765 341.32,430.12 324.225,423.562 C 298.806,413.871 321.254,370.774 341.621,391.665 C 349.466,399.72 337.382,411.511 329.539,403.455 C 325.101,398.895 323.322,409.23 328.867,411.359 C 341.822,416.321 355.16,408.789 360.202,398.956 C 360.764,397.881 362.361,398.724 361.808,399.81 Z" fill="#006c10" marker-start="none" marker-end="none"/>
     <path d="M 240.414,367.41 C 259.265,353.901 342.434,290.435 368.025,340.363 C 374.092,352.154 356.415,361.253 350.339,349.472 C 328.715,307.299 257.929,358.191 241.99,369.629 C 240.534,370.685 238.956,368.463 240.414,367.41 Z" fill="#337f00" marker-start="none" marker-end="none"/>
     <path d="M 168.664,386.553 C 194.636,386.553 199.387,378.478 212.051,365.752 C 216.339,360.088 220.136,356.884 221.712,348.649 C 223.962,337.129 241.238,340.513 238.987,352.002 C 236.737,363.502 232.74,370.503 226.733,378.507 C 210.654,394.577 201.575,401.327 168.664,401.327 C 158.8,401.327 158.8,386.553 168.664,386.553 Z" fill="#006c10" marker-start="none" marker-end="none"/>
     <path d="M 67.987,251.829 C 83.454,225.916 86.317,190.956 97.866,161.63 C 98.982,158.827 103.592,176.744 102.597,173.912 L 98.77,163.437 C 97.836,160.846 98.018,160.554 100.638,159.761 L 111.326,156.496 C 118.817,154.187 118.908,161.458 116.016,168.78 C 104.344,198.399 85.322,226.7 69.705,252.854 C 69.011,254.019 67.283,252.965 67.987,251.829 Z" fill="#337f00" marker-start="none" marker-end="none"/>
     <path d="M 95.767,172.807 C 100.789,160.082 95.356,148.963 92.584,134.752 L 89.35,128.566 C 84.357,118.642 94.983,110.356 102.628,118.441 L 110.421,126.697 C 113.746,143.541 109.567,160.846 103.621,175.901 C 101.573,181.124 93.699,178.03 95.767,172.807 Z" fill="#006c10" marker-start="none" marker-end="none"/>
     <path d="M 138.693,404.79 C 104.435,379.12 134.204,341.387 152.201,377.603 C 156.44,386.06 134.927,388.42 137.206,379.23 C 140.441,366.395 136.243,374.481 145.051,362.689 C 146.598,360.62 149.229,359.626 151.739,360.118 C 168.402,363.332 162.215,357.787 168.984,371.466 C 175.845,378.065 185.466,378.829 188.479,395.983 C 188.769,397.821 187.897,401.527 186.812,403.013 C 179.951,412.153 171.846,415.065 157.022,417.254 C 132.125,409.612 131.451,409.432 131.451,386.613 C 131.451,381.651 133.992,378.908 138.924,378.507 C 156.14,377.072 158.68,378.737 169.397,389.416 L 175.924,390.148 C 188.127,392.95 184.391,411.622 172.218,408.589 L 160.699,405.695 C 154.451,399.508 150.274,393.914 140.27,394.727 C 135.309,395.14 147.742,381.651 147.742,386.613 C 147.742,397.379 146.627,395.954 158.359,399.568 C 166.645,398.343 168.402,397.238 172.218,392.127 C 173.302,390.639 170.852,400.944 170.56,399.137 C 168.512,387.546 161.863,384.513 157.253,380.054 C 154.361,374.239 156.26,374.711 149.168,373.335 C 146.658,372.842 157.364,368.696 155.847,370.774 C 149.721,378.971 155.063,374.159 152.844,383.117 C 150.514,392.308 142.048,393.242 137.85,384.774 C 129.383,367.79 128.047,385.508 144.116,397.59 C 148.937,401.176 143.505,408.417 138.693,404.79 Z" fill="#337f00" marker-start="none" marker-end="none"/>
     <path d="M 36.561,82.377 C 34.633,84.384 35.365,86.725 36.913,88.824 C 43.069,97.141 54.71,104.442 63.318,109.342 C 64.25,109.865 63.437,111.261 62.534,110.739 C 52.962,105.346 36.039,103.709 29.24,94.487 C 24.74,88.362 24.068,81.643 29.612,75.808 C 33.991,71.198 40.941,77.767 36.561,82.377 Z" fill="#b24c00" marker-start="none" marker-end="none"/>
     <path d="M 17.267,118.472 C 16.162,110.939 17.479,107.353 22.058,103.799 C 27.634,100.434 33.026,97.874 40.91,96.97 C 46.774,97.874 51.154,101.81 55.03,104.14 C 57.391,105.576 55.262,109.102 52.932,107.675 C 49.637,105.717 45.691,107.183 40.699,106.42 C 34.522,107.122 31.861,108.992 27.422,111.642 C 25.533,113.129 24.68,114.154 25.151,117.277 C 25.935,122.53 18.092,123.726 17.267,118.472 Z" fill="#b24c00" marker-start="none" marker-end="none"/>
     <path d="M 14.847,93.022 C 26.548,93.755 35.426,95.563 44.325,98.597 L 46.304,102.975 C 46.916,104.642 46.685,104.873 44.967,105.226 L 40.91,106.009 C 32.503,103.185 25.533,99.208 14.526,98.547 C 10.82,98.304 11.171,92.792 14.847,93.022 Z" fill="#b24c00" marker-start="none" marker-end="none"/>
     <path d="M 29.441,76.098 C 27.221,77.796 27.131,80.86 26.9,84.917 C 29.088,96.064 34.813,98.254 42.979,102.193 C 43.943,102.654 43.24,104.089 42.276,103.618 C 33.346,99.33 26.196,97.32 23.776,85.087 C 24.127,80.307 25.854,76.802 28.477,74.813 C 29.321,74.18 30.284,75.456 29.441,76.098 Z" fill="#e5664c" marker-start="none" marker-end="none"/>
     <path d="M 10.418,97.11 C 13.853,92.409 20.13,94.599 26.408,93.665 C 27.603,93.495 27.864,95.271 26.667,95.454 C 20.864,96.327 14.907,93.695 11.694,98.045 C 11.081,98.917 9.776,97.963 10.418,97.11 Z" fill="#e5664c" marker-start="none" marker-end="none"/>
     <path d="M 21.798,120.22 L 18.172,117.368 L 16.806,111.292 C 17.91,104.442 20.712,102.363 25.474,99.771 C 26.608,99.128 27.512,100.816 26.408,101.428 C 22.319,103.647 20.512,105.366 19.578,111.182 L 20.601,115.991 L 23.054,118.944 C 23.805,119.88 22.762,120.983 21.798,120.22 Z" fill="#e5664c" marker-start="none" marker-end="none"/>
     <path d="M 51.848,161.108 C 52.52,160.695 53.043,160.022 53.514,158.918 C 54.279,156.988 56.056,156.959 56.869,158.856 C 58.095,161.75 60.455,162.974 61.017,166.098 C 61.801,170.528 56.639,172.686 54.71,168.639 L 52.84,164.633 C 51.737,162.302 58.858,162.794 57.361,164.903 L 54.569,168.719 C 52.781,171.14 50.621,170.849 49.397,168.107 L 47.71,164.4 C 46.253,161.247 54.067,160.524 53.223,163.908 L 51.647,169.974 C 50.834,173.249 47.971,174.324 46.454,171.351 L 43.592,165.868 L 41.814,164.783 L 39.715,165.868 C 37.606,166.5 36.532,163.819 38.489,162.773 L 41.262,161.277 C 41.985,160.906 42.658,160.926 43.179,161.519 L 45.258,163.97 L 50.863,166.912 C 53.283,168.227 44.817,170.94 45.66,168.288 L 47.499,162.302 C 48.523,159.067 51.356,158.797 53.023,161.78 L 54.97,165.335 C 56.316,167.786 47.821,166.791 49.778,164.722 L 53.023,161.277 C 54.539,159.701 56.026,159.911 57.512,161.548 L 60.485,164.813 C 63.407,168.026 54.97,171.613 54.187,167.323 C 53.716,164.663 54.539,162.744 53.514,160.294 C 52.731,158.365 57.633,158.334 56.869,160.263 C 56.116,162.181 54.859,163.116 53.686,163.879 C 51.848,165.104 50.01,162.332 51.848,161.108 Z" fill="#e5664c" marker-start="none" marker-end="none"/>
     <path d="M 65.185,234.968 C 67.636,229.182 67.928,219.41 66.962,211.705 L 66.761,207.589 C 66.269,206.251 66.148,201.321 64.402,201.903 C 60.806,203.329 56.437,210.742 58.706,215.291 C 60.193,218.244 49.428,214.97 52.29,213.373 C 55.935,211.264 57.07,208.672 58.617,204.816 C 61.128,197.323 59.641,208.904 62.966,200.91 C 63.207,200.327 63.96,199.623 64.571,199.452 C 70.729,197.524 76.455,195.625 82.521,194.141 C 83.194,193.909 83.745,194.552 83.304,193.989 C 82.459,192.855 87.944,194.311 86.638,194.874 C 82.872,196.53 80.129,197.936 76.393,199.423 C 73.149,201.724 70.94,203.159 67.234,205.318 C 65.216,206.483 63.758,205.78 63.407,203.51 C 62.474,197.755 60.144,195.807 57.743,192.623 C 56.056,191.248 54.328,189.881 51.234,189.469 C 49.045,189.148 53.836,184.247 54.067,186.406 L 54.68,191.749 C 58.385,194.52 60.436,195.455 64.724,197.263 C 68.479,198.84 66.088,204.494 62.322,202.897 C 57.572,200.91 55.001,197.233 50.863,194.17 L 49.045,187.431 C 48.553,185.212 49.637,184.077 51.908,184.387 C 56.227,184.98 59.551,186.526 62.031,188.505 C 64.985,192.563 67.374,195.807 68.479,202.687 C 68.831,204.996 62.644,202.044 64.632,200.91 C 68.188,198.81 69.976,195.947 73.21,193.588 C 77.096,192.1 80.742,191.398 84.448,189.79 C 85.754,189.238 86.899,189.559 87.744,190.694 C 92.796,197.494 93.086,199.714 84.941,202.426 C 78.904,203.912 72.216,202.426 66.088,204.323 C 65.507,204.524 67.928,202.304 67.696,202.867 C 64.663,210.129 70.699,201.612 68.43,208.441 C 65.948,214.598 62.705,218.033 56.9,221.397 C 54.037,222.994 51.908,222.382 50.451,219.439 C 46.483,211.535 56.376,199.504 62.644,197.082 C 65.918,195.888 68.831,204.323 69.735,206.835 L 70.729,211.183 C 71.784,219.349 69.243,229.473 66.672,235.578 C 66.269,236.563 64.773,235.931 65.185,234.968 Z" fill="#b24c00" marker-start="none" marker-end="none"/>
     <path d="M 51.817,182.821 C 55.614,183.895 58.063,184.157 60.776,186.286 C 64.161,189.64 63.669,195.104 65.476,199.805 C 65.858,200.788 64.371,201.37 63.96,200.386 C 62.474,196.36 58.275,195.133 55.413,192.392 C 53.605,190.956 52.781,189.559 50.13,188.826 C 46.102,187.692 47.789,181.676 51.817,182.821 Z" fill="#e5664c" marker-start="none" marker-end="none"/>
     <path d="M 73.21,202.304 C 79.688,203.56 84.74,204.414 88.476,199.363 C 87.773,189.469 90.485,203.943 89.088,194.953 C 88.796,193.236 91.389,192.825 91.649,194.571 C 93.166,204.093 92.704,190.282 93.437,200.819 C 88.707,207.236 81.144,205.489 72.919,203.881 C 71.874,203.681 72.166,202.134 73.21,202.304 Z" fill="#e5664c" marker-start="none" marker-end="none"/>
     <path d="M 53.745,217.771 C 52.059,214.327 51.556,211.857 52.199,207.478 C 54.157,203.51 57.22,201.17 61.599,200.497 C 62.674,200.356 62.915,201.933 61.83,202.103 C 58.155,202.627 56.197,204.996 54.589,208.2 C 54.037,211.937 53.896,213.985 55.384,216.958 C 55.935,218.033 54.298,218.857 53.745,217.771 Z" fill="#e5664c" marker-start="none" marker-end="none"/>
     <path d="M 64.282,208.733 C 66.411,214.478 67.254,219.79 67.254,227.525 C 67.254,228.599 65.627,228.599 65.627,227.525 C 65.627,220.021 64.863,214.86 62.765,209.316 C 62.413,208.321 63.899,207.739 64.282,208.733 Z" fill="#e5664c" marker-start="none" marker-end="none"/>
     <path d="M 57.572,313.195 C 59.611,298.401 56.197,286.76 60.144,274.849 C 67.575,259.564 79.949,243.131 87.009,229.041 C 90.635,225.214 97.695,224.109 99.675,218.886 C 100.025,217.894 101.542,218.474 101.172,219.47 C 98.921,225.366 100.268,231.079 96.12,235.458 C 89.088,249.498 77.94,263.82 70.527,279.087 C 66.792,290.467 61.83,299.365 59.843,313.516 C 59.641,315.032 57.341,314.711 57.572,313.195 Z" fill="#b24c00" marker-start="none" marker-end="none"/>
     <path d="M 52.781,311.356 C 58.505,294.142 59.762,287.956 66.822,276.547 C 71.784,268.983 66.561,277.279 71.311,269.716 C 74.787,261.31 83.223,254.048 88.355,247.188 C 91.861,243.021 93.899,240.771 97.193,236.595 C 102.858,228.247 111.877,225.916 117.622,218.094 C 118.295,217.22 119.582,218.184 118.937,219.057 C 113.333,226.65 110.33,234.083 104.817,242.168 C 101.462,246.427 99.303,248.826 95.767,253.085 C 91.068,259.271 83.806,266.915 80.652,274.557 C 75.781,282.262 80.802,274.478 75.721,282.211 C 69.092,292.917 66.561,297.969 61.188,314.159 C 59.319,319.733 50.944,316.961 52.781,311.356 Z" fill="#b24c00" marker-start="none" marker-end="none"/>
     <path d="M 61.128,305.08 C 67.204,291.692 69.273,280.685 77.82,270.007 C 83.625,264.494 94.08,255.735 99.062,248.646 C 109.457,242.427 115.433,236.915 130.146,234.465 C 131.16,234.294 131.432,235.87 130.407,236.041 C 116.075,238.431 113.103,246.747 102.948,252.824 C 97.726,260.206 89.842,269.747 83.806,275.492 C 75.601,285.766 69.334,293.329 63.498,306.165 C 62.795,307.742 60.404,306.656 61.128,305.08 Z" fill="#b24c00" marker-start="none" marker-end="none"/>
     <path d="M 73.732,284.711 C 88.616,271.263 101.895,250.282 122.232,243.513 C 126.671,242.81 134.786,241.906 139.506,241.204 C 141.666,241.937 143.745,242.699 146.014,242.961 C 168.25,244.477 187.977,250.604 194.545,266.594 C 195.278,270.24 194.715,273.011 194.223,276.396 C 193.38,282.211 184.622,280.986 185.466,275.141 C 185.787,272.901 185.647,271.845 185.145,269.426 C 179.659,256.089 164.023,250.342 145.432,249.088 C 142.661,248.736 141.585,249.319 138.893,248.415 C 134.173,249.119 128.418,250.022 123.989,250.724 C 104.526,257.223 89.088,273.011 74.817,285.917 C 74.033,286.61 72.948,285.415 73.732,284.711 Z" fill="#b24c00" marker-start="none" marker-end="none"/>
     <path d="M 78.904,255.062 C 85.443,243.744 91.891,236.302 94.22,222.151 C 94.953,217.802 101.493,218.886 100.759,223.236 C 98.278,238.26 87.251,243.833 80.301,255.857 C 79.778,256.791 78.372,255.998 78.904,255.062 Z" fill="#e5664c" marker-start="none" marker-end="none"/>
     <path d="M 86.719,248.415 C 88.325,246.406 88.796,244.538 90.284,242.55 C 93.086,239.637 94.372,237.327 96.088,233.792 C 98.66,230.376 101.693,228.458 105.661,226.44 C 107.438,224.662 108.341,223.637 110.3,222.21 L 113.514,219.79 L 115.995,218.506 C 117.682,217.66 118.908,220.373 117.159,221.047 L 114.85,221.98 L 112.018,224.4 C 110.15,225.767 108.924,226.822 107.206,228.569 C 103.592,230.376 101.172,232.566 98.921,235.518 C 97.052,239.335 95.858,241.555 92.825,244.68 C 91.308,246.666 89.58,247.39 87.974,249.439 C 87.301,250.282 86.055,249.258 86.719,248.415 Z" fill="#e5664c" marker-start="none" marker-end="none"/>
     <path d="M 95.245,250.052 C 100.698,246.546 103.621,244.067 109.246,240.741 C 112.691,238.201 115.644,237.558 119.169,235.047 C 122.322,234.525 124.28,233.792 127.455,234.234 C 129.644,234.525 129.243,237.788 127.022,237.498 C 124.16,237.126 122.615,236.302 119.841,236.744 C 116.427,239.164 114.037,240.36 110.621,242.84 C 105.048,246.165 101.542,247.892 96.12,251.417 C 95.216,251.981 94.372,250.635 95.245,250.052 Z" fill="#e5664c" marker-start="none" marker-end="none"/>
     <path d="M 111.376,253.668 C 127.022,245.12 139.506,245.793 160.115,248.736 C 161.161,248.885 160.929,250.483 159.906,250.312 C 139.688,247.42 127.455,246.697 112.138,255.062 C 111.204,255.596 110.421,254.158 111.376,253.668 Z" fill="#e5664c" marker-start="none" marker-end="none"/>
     <path d="M 170.009,251.277 C 181.468,258.83 184.331,257.754 187.042,271.414 C 187.164,274.448 186.32,276.315 186.551,279.317 C 186.61,280.514 184.833,280.634 184.743,279.439 C 184.532,276.396 183.286,274.939 183.195,271.845 C 180.715,259.381 179.549,259.533 169.125,252.613 C 168.191,252 169.095,250.695 170.009,251.277 Z" fill="#e5664c" marker-start="none" marker-end="none"/>
     <path d="M 88.998,326.211 C 92.122,315.183 96.088,311.186 106.714,307.711 C 113.273,306.605 118.155,304.648 123.838,304.126 C 128.861,303.684 121.448,316.73 119.259,312.17 C 118.124,309.84 117.421,306.335 116.226,303.835 C 113.013,297.055 123.136,292.184 126.38,298.954 C 127.575,301.465 128.277,304.969 129.413,307.299 C 131.603,311.859 129.854,314.892 124.834,315.354 C 118.908,315.857 114.237,309.378 107.377,310.513 C 97.665,313.697 93.437,316.549 90.514,326.653 C 90.254,327.667 88.677,327.205 88.998,326.211 Z" fill="#b24c00" marker-start="none" marker-end="none"/>
     <path d="M 130.116,312.15 C 130.116,322.123 129.001,326.01 133.411,331.755 C 134.204,332.778 132.677,333.945 131.894,332.92 C 126.811,326.271 121.971,323.67 121.971,312.15 C 121.971,306.717 130.116,306.717 130.116,312.15 Z" fill="#b24c00" marker-start="none" marker-end="none"/>
     <path d="M 126.058,306.305 C 128.66,306.305 129.503,305.461 130.959,304.757 C 132.387,303.714 133.059,303.271 134.113,301.906 C 137.468,297.527 144.008,302.549 140.652,306.897 C 139.105,308.937 137.609,310.714 135.54,312.261 C 133.179,313.426 130.287,313.165 126.058,313.165 C 121.509,313.165 121.479,306.305 126.058,306.305 Z" fill="#b24c00" marker-start="none" marker-end="none"/>
     <path d="M 121.71,307.219 C 119.671,303.914 115.323,302.107 114.97,296.884 C 114.71,292.476 121.298,292.044 121.589,296.442 C 121.881,300.651 121.68,303.563 123.347,306.195 C 123.989,307.299 122.382,308.323 121.71,307.219 Z" fill="#b24c00" marker-start="none" marker-end="none"/>
     <path d="M 80.16,398.263 C 76.455,395.511 73.472,394.698 69.152,392.739 C 64.663,390.5 61.801,388.803 57.633,386.381 C 55.202,383.931 53.776,381.862 51.848,379.23 C 46.483,371.999 37.636,357.698 45.611,347.423 C 46.253,346.579 47.529,347.544 46.885,348.417 C 39.715,357.667 51.204,369.629 56.085,376.108 C 57.803,378.507 58.968,379.963 61.017,382.004 C 64.895,384.343 66.59,386.733 70.961,388.923 C 75.52,390.993 77.529,393.562 81.466,396.475 C 82.671,397.349 81.324,399.137 80.16,398.263 Z" fill="#b24c00" marker-start="none" marker-end="none"/>
     <path d="M 60.896,386.733 C 53.223,381.16 52.52,380.989 47.299,377.514 C 43.772,375.615 42.859,374.591 39.795,372.371 C 36.09,368.463 34.784,366.566 31.248,362.83 C 30.404,361.926 31.77,360.62 32.674,361.544 C 36.24,365.309 39.333,364.879 43.039,368.666 C 45.691,370.593 46.715,371.265 49.979,373.014 C 55.232,376.58 55.935,377.192 63.728,382.847 C 66.32,384.744 63.498,388.661 60.896,386.733 Z" fill="#b24c00" marker-start="none" marker-end="none"/>
     <path d="M 24.509,360.299 C 30.284,348.738 14.234,339.9 21.094,326.04 C 21.586,325.076 23.022,325.799 22.551,326.763 C 14.466,343.024 41.343,351.771 34.603,365.309 C 31.248,372.029 21.155,366.978 24.509,360.299 Z" fill="#b24c00" marker-start="none" marker-end="none"/>
     <path d="M 32.061,367.821 C 21.295,367.069 16.485,361.634 11.874,355.388 C 7.405,349.351 16.453,342.672 20.924,348.709 C 23.716,352.475 26.378,356.121 32.855,356.593 C 40.358,357.085 39.565,368.343 32.061,367.821 Z" fill="#b24c00" marker-start="none" marker-end="none"/>
     <path d="M 38.398,369.016 C 36.622,369.92 36.269,370.824 34.752,371.999 C 33.087,373.225 32.273,373.275 30.787,374.771 C 26.667,383.117 18.172,381.36 12.286,375.202 C 11.553,374.421 12.717,373.335 13.452,374.098 C 16.424,377.192 20.251,372.934 22.289,368.696 C 24.247,366.776 25.824,364.637 27.924,363.07 C 30.054,361.404 31.277,361.494 33.789,360.207 C 39.655,357.114 44.295,365.922 38.398,369.016 Z" fill="#b24c00" marker-start="none" marker-end="none"/>
     <path d="M 36.12,367.682 C 33.116,369.689 29.35,372.551 24.338,372.934 C 19.396,372.934 16.835,368.666 13.943,367.47 C 11.613,366.485 13.07,362.98 15.4,363.975 C 17.649,364.879 20.191,362.217 23.866,362.076 C 26.869,361.865 29.38,361.544 31.248,360.318 C 36.12,357.054 41.02,364.406 36.12,367.682 Z" fill="#b24c00" marker-start="none" marker-end="none"/>
     <path d="M 173.013,385.829 C 180.394,384.393 182.935,380.989 186.721,375.875 C 188.218,372.934 189.001,370.361 189.001,365.922 C 187.544,360.7 190.086,365.17 187.926,360.731 C 187.454,359.768 188.911,359.073 189.383,360.027 C 191.653,364.697 190.317,359.977 191.893,365.492 C 191.893,370.744 192.294,374.771 190.577,378.267 C 186.289,384.022 181.678,385.799 173.302,387.406 C 172.279,387.606 171.957,386 173.013,385.829 Z" fill="#b24c00" marker-start="none" marker-end="none"/>
     <path d="M 188.68,368.293 C 179.168,370.422 176.918,371.558 169.446,367.853 C 162.738,364.466 167.759,354.403 174.469,357.758 C 179.079,360.057 180.424,358.601 186.199,357.285 C 193.551,355.658 196,366.656 188.68,368.293 Z" fill="#b24c00" marker-start="none" marker-end="none"/>
     <path d="M 184.219,366.506 C 180.856,359.797 181.97,353.821 177.42,348.005 C 175.693,345.796 179.048,343.195 180.775,345.413 C 185.616,351.631 190.699,354.313 194.284,361.494 C 197.638,368.203 187.575,373.225 184.219,366.506 Z" fill="#b24c00" marker-start="none" marker-end="none"/>
     <path d="M 184.099,366.103 C 185.937,354.664 195.629,349.522 204.698,358.601 C 205.431,359.385 204.317,360.5 203.534,359.736 C 198.512,354.725 195.419,361.404 194.405,367.73 C 193.321,374.621 182.964,372.964 184.099,366.103 Z" fill="#b24c00" marker-start="none" marker-end="none"/>
     <path d="M 118.004,293.5 C 122.674,295.337 123.136,295.137 125.617,298.401 C 126.028,300.389 126.26,302.046 126.671,304.206 C 126.962,305.692 124.682,306.134 124.391,304.618 C 123.989,302.519 123.377,301.403 122.965,299.596 C 121.037,297.035 121.418,296.593 117.392,295.016 C 116.396,294.604 116.979,293.088 118.004,293.5 Z" fill="#e5664c" marker-start="none" marker-end="none"/>
     <path d="M 128.599,305.431 C 131.513,303.484 134.314,301.232 138.463,300.59 C 139.536,300.419 139.769,302.046 138.722,302.198 C 134.817,302.78 132.216,304.939 129.503,306.776 C 128.63,307.389 127.726,306.044 128.599,305.431 Z" fill="#e5664c" marker-start="none" marker-end="none"/>
     <path d="M 123.899,315.063 C 123.899,322.385 128.047,326.181 130.959,330.088 C 130.959,330.088 132.677,332.457 132.677,332.457 C 133.35,333.302 132.125,334.266 131.432,333.452 L 129.533,331.173 C 126.441,327.026 122.322,322.827 122.322,315.063 C 122.322,313.989 123.899,313.989 123.899,315.063 Z" fill="#e5664c" marker-start="none" marker-end="none"/>
     <path d="M 21.707,325.86 C 17.389,329.043 20.864,326.332 19.166,329.686 C 19.056,331.343 18.995,332.398 19.107,334.175 C 19.107,334.175 18.443,340.332 18.412,341.206 C 19.166,344.39 19.638,345.615 21.356,348.005 C 23.132,350.899 24.57,352.906 26.548,354.985 L 29.441,357.346 C 30.284,357.988 29.321,359.243 28.447,358.601 L 25.322,356.321 C 23.284,354.162 21.707,351.982 19.869,349.029 C 17.971,346.429 17.649,344.943 16.806,341.387 C 16.806,340.975 17.218,334.878 17.298,334.145 C 17.218,332.308 17.218,331.022 17.298,329.154 C 19.578,324.985 15.783,328.219 20.743,324.543 C 21.586,323.931 22.551,325.217 21.707,325.86 Z" fill="#e5664c" marker-start="none" marker-end="none"/>
     <path d="M 14.877,350.958 C 14.123,355.597 15.842,357.527 18.061,360.5 L 22.058,363.413 C 23.634,364.586 21.969,366.886 20.362,365.783 L 15.932,362.689 C 13.3,359.184 12.396,356.151 13.3,350.698 C 13.452,349.642 15.058,349.903 14.877,350.958 Z" fill="#e5664c" marker-start="none" marker-end="none"/>
     <path d="M 180.484,344.27 C 177.943,347.664 181.739,351.359 184.241,354.775 C 186.581,358.251 185.556,358.953 188.389,361.865 C 189.584,363.121 187.715,364.959 186.52,363.714 C 183.427,360.529 182.523,361.574 179.982,357.758 C 176.626,353.258 175.574,347.634 178.937,343.134 C 179.692,342.11 181.237,343.256 180.484,344.27 Z" fill="#e5664c" marker-start="none" marker-end="none"/>
     <path d="M 171.053,360.62 C 173.302,365.663 172.891,364.586 177.732,365.954 C 180.013,366.073 180.775,367.149 183.046,367.619 C 185.355,368.053 184.682,371.499 182.402,371.035 C 180.363,370.685 178.846,371.588 176.828,371.499 C 169.627,369.429 170.21,370.011 166.855,362.538 C 165.57,359.736 169.798,357.817 171.053,360.62 Z" fill="#e5664c" marker-start="none" marker-end="none"/>
     <path d="M 127.254,389.596 L 124.512,388.449 C 122.734,386.261 122.002,382.826 121.801,378.648 C 124.571,374.882 122.674,376.901 126.321,375.584 C 126.932,375.354 126.028,377.514 125.797,376.871 L 124.772,374.298 C 125.094,367.499 129.584,365.02 135.077,363.853 C 139.455,366.165 139.718,365.633 141.585,369.338 C 142.339,370.915 140.008,372.079 139.215,370.503 C 137.669,367.389 138.542,367.299 134.867,365.341 C 130.146,366.395 126.581,368.112 126.321,373.978 L 127.514,376.058 C 127.838,376.67 127.635,377.101 126.962,377.363 C 123.989,378.447 125.355,376.398 123.347,379.12 C 123.608,382.415 125.094,384.101 126.581,385.97 L 128.448,387.256 C 129.886,388.249 128.861,390.238 127.254,389.596 Z" fill="#e5664c" marker-start="none" marker-end="none"/>
     <path d="M 143.774,365.983 C 146.337,359.917 147.562,358.251 152.03,361.664 L 153.899,362.046 C 159.906,359.043 161.512,358.191 163.209,365.23 C 163.581,366.826 158.83,364.527 160.347,363.853 C 168.924,359.797 168.784,364.206 170.09,373.335 L 172.047,375.704 C 172.368,376.168 172.69,376.81 172.459,377.331 L 170.501,381.511 C 176.166,386.412 176.276,389.062 171.404,393.703 C 168.924,394.235 165.508,393.242 163.059,393.331 C 161.984,393.382 161.894,391.806 162.968,391.755 C 165.308,391.635 166.594,389.476 168.924,388.983 C 171.496,386.532 171.607,384.836 168.603,382.263 L 168.08,377.603 L 166.011,374.972 C 165.278,369.89 166.885,365.309 162.096,367.59 C 160.579,368.293 159.584,367.821 159.212,366.184 C 158.279,362.337 157.545,361.897 154.25,363.533 L 151.267,363.944 C 148.355,361.695 146.918,362.63 145.262,366.626 C 144.851,367.619 143.364,366.978 143.774,365.983 Z" fill="#e5664c" marker-start="none" marker-end="none"/>
     <path d="M 135.017,383.087 C 133.641,380.376 132.154,378.829 130.437,376.488 C 128.74,374.298 132.064,371.819 133.703,374.007 C 135.6,376.549 135.89,378.971 137.347,381.892 C 138.141,383.459 135.77,384.634 135.017,383.087 Z" fill="#e5664c" marker-start="none" marker-end="none"/>
     <path d="M 139.628,379.873 L 140.21,372.14 C 140.472,368.666 145.694,369.076 145.432,372.551 L 144.821,380.285 C 144.558,383.76 139.335,383.348 139.628,379.873 Z" fill="#e5664c" marker-start="none" marker-end="none"/>
     <path d="M 149.29,377.834 C 150.685,375.645 151.037,373.868 152.231,371.678 C 153.136,370.041 155.616,371.356 154.712,373.014 C 153.486,375.264 152.06,376.459 150.624,378.708 C 150.043,379.613 148.706,378.737 149.29,377.834 Z" fill="#e5664c" marker-start="none" marker-end="none"/>
     <path d="M 156.028,382.153 L 159.212,380.105 L 161.803,380.134 C 163.351,380.194 163.351,382.415 161.803,382.444 L 159.824,382.444 L 156.962,383.81 C 155.817,384.373 154.943,382.847 156.028,382.153 Z" fill="#e5664c" marker-start="none" marker-end="none"/>
     <path d="M 217.625,376.108 C 222.124,373.897 218.418,374.882 221.834,372.371 C 231.776,360.7 250.306,340.834 240.625,321.401 C 239.981,319.261 240.333,317.895 239.66,316.178 C 237.38,310.252 246.279,306.807 248.558,312.703 C 249.323,314.651 250.277,314.802 251.04,317.162 C 262.861,340.944 241.617,366.305 229.416,380.547 C 225.097,383.76 227.287,381.16 221.592,384.052 C 216.319,386.673 212.341,378.737 217.625,376.108 Z" fill="#b24c00" marker-start="none" marker-end="none"/>
     <path d="M 225.57,373.365 C 230.7,366.626 233.122,360.44 238.174,353.871 C 241.94,346.409 244.271,342.29 248.729,335.723 C 254.896,320.376 265.282,314.943 271.961,301.614 C 272.432,300.681 273.859,301.374 273.396,302.337 C 266.888,315.354 264.608,326.01 258.622,341.005 C 254.453,347.102 251.16,352.857 247.654,359.856 C 242.602,366.425 235.693,370.361 230.521,377.131 C 227.99,380.426 223.058,376.67 225.57,373.365 Z" fill="#b24c00" marker-start="none" marker-end="none"/>
     <path d="M 234.226,365.462 C 241.498,359.475 246.018,349.934 252.616,343.335 C 263.121,332.811 270.824,326.854 286.845,323.209 C 287.93,322.966 288.241,324.543 287.226,324.815 C 272.05,328.219 270.534,341.357 260.581,351.309 C 253.841,358.018 245.988,364.637 238.575,370.774 C 235.02,373.656 230.7,368.343 234.226,365.462 Z" fill="#b24c00" marker-start="none" marker-end="none"/>
     <path d="M 251.974,341.237 C 255.509,338.555 256.262,335.019 259.998,332.539 C 265.804,328.983 271.578,327.697 277.685,324.634 C 279.724,324.223 281.009,323.469 283.108,323.088 C 285.178,322.676 285.759,325.749 283.721,326.121 C 281.622,326.533 280.487,326.592 278.498,326.975 C 272.513,329.978 268.515,333.472 262.801,336.948 C 259.215,339.338 256.352,339.93 252.937,342.522 C 252.123,343.195 251.13,341.91 251.974,341.237 Z" fill="#e5664c" marker-start="none" marker-end="none"/>
     <path d="M 246.338,342.11 C 250.015,335.2 252.325,331.173 251.913,321.25 C 250.979,315.244 250.136,311.799 246.57,309.167 C 245.696,308.556 246.631,307.239 247.534,307.852 C 251.591,310.894 254.333,314.038 255.418,320.928 C 255.82,331.525 251.683,335.491 247.745,342.873 C 247.244,343.807 245.847,343.044 246.338,342.11 Z" fill="#e5664c" marker-start="none" marker-end="none"/>
     <path d="M 255.82,324.896 C 257.055,321.893 258.04,319.674 259.355,317.051 C 261.806,312.091 264.637,308.153 269.307,304.969 C 270.182,304.327 271.086,305.672 270.213,306.284 C 265.804,309.317 263.412,313.195 261.073,317.895 C 259.768,320.496 258.512,322.506 257.346,325.508 C 256.935,326.502 255.449,325.92 255.82,324.896 Z" fill="#e5664c" marker-start="none" marker-end="none"/>
     <path d="M 250.427,390.058 C 258.251,387.636 272.693,386 282.937,387.636 C 284.012,387.789 283.751,389.385 282.676,389.213 C 272.663,387.636 258.542,389.213 250.888,391.574 C 249.873,391.925 249.401,390.379 250.427,390.058 Z" fill="#b24c00" marker-start="none" marker-end="none"/>
     <path d="M 287.367,392.95 C 281.149,397.561 276.811,401.467 274.652,410.013 C 274.381,411.068 272.833,410.686 273.105,409.642 C 275.846,398.815 272.804,389.675 280.688,383.9 C 286.725,379.441 293.413,388.481 287.367,392.95 Z" fill="#b24c00" marker-start="none" marker-end="none"/>
     <path d="M 279.05,391.052 C 280.567,381.681 286.112,375.967 290.52,370.041 C 291.133,369.198 292.448,370.161 291.806,371.006 C 287.777,376.398 291.574,384.282 290.168,392.829 C 288.974,400.241 277.856,398.464 279.05,391.052 Z" fill="#b24c00" marker-start="none" marker-end="none"/>
     <path d="M 286.232,382.847 C 297.23,381.33 297.61,391.282 301.729,398.173 C 302.13,399.859 302.282,401.407 302.694,403.134 C 302.953,404.148 301.377,404.53 301.146,403.486 C 300.734,401.757 300.062,400.623 299.65,399.016 C 297.23,394.959 294.427,393.06 287.809,393.994 C 280.396,395.018 278.82,383.871 286.232,382.847 Z" fill="#b24c00" marker-start="none" marker-end="none"/>
     <path d="M 326.848,348.829 C 344.393,347.102 358.223,347.162 364.872,358.571 C 366.68,361.021 367.352,362.92 368.487,365.812 C 369.953,369.629 364.229,371.819 362.742,368.032 C 361.868,365.692 360.764,364.175 359.328,362.187 C 353.523,352.274 342.285,348.939 327.028,350.435 C 325.914,350.516 325.803,348.939 326.848,348.829 Z" fill="#b24c00" marker-start="none" marker-end="none"/>
     <path d="M 280.425,385.277 C 281.149,375.615 282.355,373.074 290.199,369.227 C 291.164,368.725 291.866,370.192 290.902,370.652 C 284.072,374.039 284.685,377.101 284.012,385.538 C 283.841,387.928 280.216,387.698 280.425,385.277 Z" fill="#e5664c" marker-start="none" marker-end="none"/>
     <path d="M 280.366,391.604 C 275.846,395.14 272.864,400.794 272.864,409.23 C 272.864,410.284 271.237,410.284 271.237,409.23 C 271.237,399.75 273.124,392.769 278.236,388.832 C 280.075,387.406 282.234,390.178 280.366,391.604 Z" fill="#e5664c" marker-start="none" marker-end="none"/>
     <path d="M 292.157,385.277 C 301.407,388.048 300.613,385.037 304.792,390.118 C 305.635,391.985 306.219,393.764 306.861,395.691 C 308.267,399.891 301.96,401.989 300.564,397.821 C 300.032,396.154 299.799,395.31 299.037,393.733 C 295.894,389.887 298.374,390.088 291.334,387.959 C 289.557,387.435 290.35,384.744 292.157,385.277 Z" fill="#e5664c" marker-start="none" marker-end="none"/>
     <path d="M 44.325,216.406 C 48.935,206.976 58.034,209.165 57.892,219.85 C 57.803,224.219 55.614,227.022 54.97,230.968 C 54.067,236.774 54.97,246.728 53.807,251.918 C 51.617,282.552 39.565,299.365 46.224,329.978 C 47.558,336.135 49.637,341.446 52.26,346.118 C 59.38,363.413 67.234,375.234 77.729,388.449 C 80.973,390.851 80.21,389.385 83.253,391.514 C 84.558,394.265 83.775,394.376 86.577,396.074 C 87.481,396.656 86.638,397.992 85.704,397.438 C 82.199,395.281 82.229,396.656 80.712,393.654 C 78.171,391.785 79.898,392.045 76.655,389.596 C 65.858,376.077 54.589,366.213 47.267,348.508 C 44.435,343.366 41.693,338.033 40.206,331.294 C 33.437,300.008 43.45,282.03 45.691,250.775 C 46.774,245.703 47.238,235.548 48.142,229.916 C 48.724,226.209 51.154,223.789 51.264,219.73 C 51.324,215.061 47.77,213.021 45.751,217.129 C 45.289,218.094 43.822,217.37 44.325,216.406 Z" fill="#ccff7f" marker-start="none" marker-end="none"/>
     <path d="M 330.353,357.285 C 335.083,360.147 344.474,358.832 348.531,361.816 C 354.427,366.134 357.842,378.939 357.23,387.577 C 356.737,394.607 350.279,394.818 350.781,387.807 C 351.162,381.923 347.507,371.528 343.539,368.585 C 339.803,365.872 333.858,361.313 329.539,358.662 C 328.604,358.109 329.448,356.734 330.353,357.285 Z" fill="#ccff7f" marker-start="none" marker-end="none"/>
     <path d="M 49.517,11.931 C 48.231,11.528 46.012,12.021 44.265,11.851 C 36.913,11.259 32.414,13.949 28.094,16.982 C 24.247,20.78 22.319,22.879 20.512,28.774 C 20.222,31.748 20.039,33.354 19.929,36.327 C 17.189,54.798 26.025,65.102 35.044,74.121 C 41.492,80.598 45.722,88.855 53.514,94.137 C 58.828,98.133 65.507,101.287 69.655,105.546 C 72.397,107.795 71.784,111.412 74.757,113.602 C 75.601,114.274 74.646,115.53 73.793,114.917 C 70.99,112.809 68.479,112.025 65.688,109.955 C 61.74,105.776 57.16,100.064 52.059,96.175 C 44.114,90.812 37.726,84.626 31.128,78.027 C 21.245,68.104 13.391,56.313 16.453,36.005 C 16.545,32.942 16.775,31.134 17.097,28.101 C 19.107,21.532 21.998,18.991 26.196,14.763 C 31.128,11.319 36.3,7.382 44.617,8.054 C 46.544,8.255 48.614,9.952 49.979,10.385 C 51.033,10.706 50.542,12.222 49.517,11.931 Z" fill="#000000" marker-start="none" marker-end="none"/>
     <path d="M 72.778,51.181 C 69.011,52.668 68.981,55.038 66.21,57.076 C 61.629,66.236 64.804,75.255 67.957,83.752 C 70.006,87.859 72.166,91.826 76.013,94.658 C 79.597,99.501 79.166,98.275 81.094,102.222 C 84.83,106.892 85.492,112.868 87.511,118.704 C 87.864,119.728 86.317,120.25 85.965,119.236 C 84.127,113.802 80.421,109.192 76.947,104.813 C 75.229,101.287 75.52,102.162 72.506,98.104 C 68.338,94.87 67.283,89.848 64.895,85.058 C 61.45,75.667 58.184,64.779 63.256,54.655 C 66.18,52.466 68.218,51.241 72.166,49.695 C 73.149,49.283 73.762,50.8 72.778,51.181 Z" fill="#000000" marker-start="none" marker-end="none"/>
     <path d="M 88.094,120.511 C 90.314,126.667 92.704,129.65 95.035,135.778 C 96.059,137.936 96.672,139.714 97.405,141.964 L 98.741,146.021 C 99.765,149.195 100.085,153.574 100.698,157.08 C 100.9,158.887 101.462,160.022 101.573,161.86 C 101.573,163.97 101.191,165.194 101.191,167.323 C 101.191,168.398 99.595,168.398 99.595,167.323 C 99.595,165.194 99.242,164.019 99.242,161.951 C 99.153,160.142 99.303,159.067 99.121,157.28 C 98.509,153.926 97.254,149.868 96.239,146.805 C 96.239,146.805 95.216,142.837 95.185,142.637 C 94.482,140.477 93.699,138.811 92.704,136.771 C 90.394,130.644 88.827,127.2 86.609,121.073 C 86.227,120.08 87.744,119.497 88.094,120.511 Z" fill="#000000" marker-start="none" marker-end="none"/>
     <path d="M 48.06,169.945 C 42.015,169.945 45.109,171.2 39.745,169.483 C 28.627,161.889 24.68,142.224 37.405,132.714 C 38.279,132.071 39.243,133.357 38.369,133.999 C 27.401,142.164 32.273,158.656 41.874,165.164 C 46.454,166.682 42.889,167.112 48.06,167.112 C 49.929,167.112 49.929,169.945 48.06,169.945 Z" fill="#000000" marker-start="none" marker-end="none"/>
     <path d="M 71.553,139.714 C 83.865,144.585 89.32,157.813 93.577,170.417 C 93.959,174.002 93.467,177.216 93.467,181.004 C 93.467,186.526 93.256,190.574 92.553,194.602 L 90.022,199.212 C 89.409,200.236 88.064,199.714 88.325,198.549 L 89.38,193.698 C 90.053,189.881 90.666,186.315 90.666,181.004 C 90.666,177.327 89.963,174.766 89.551,171.291 C 85.554,159.329 82.61,145.81 70.961,141.231 C 69.976,140.859 70.558,139.332 71.553,139.714 Z" fill="#000000" marker-start="none" marker-end="none"/>
     <path d="M 54.62,218.124 C 50.944,215.382 48.383,219.087 47.941,223.406 C 46.807,235.518 52.43,250.775 49.457,262.917 C 48.724,264.846 48.091,266.533 47.71,268.663 C 43.532,282.211 39.043,289.944 37.314,305.692 C 37.314,308.705 37.555,310.283 37.555,313.285 C 39.012,330.037 43.883,340.713 51.033,351.601 C 51.617,352.505 50.271,353.378 49.658,352.475 C 42.366,341.266 36.149,330.621 34.633,313.426 C 34.633,310.393 34.834,308.556 34.834,305.552 C 36.592,289.502 38.077,281.187 42.366,267.386 C 42.808,264.876 43.362,263.59 44.205,261.28 C 47.097,249.498 44.646,234.997 45.751,223.176 C 46.333,217.08 50.591,212.731 55.764,216.608 C 56.778,217.37 55.643,218.886 54.62,218.124 Z" fill="#000000" marker-start="none" marker-end="none"/>
     <path d="M 59.149,226.117 C 66.502,224.693 67.636,225.856 69.684,232.135 C 66.913,246.054 55.995,251.277 50.481,262.456 C 50.01,263.41 48.553,262.686 49.026,261.722 C 54.358,250.986 62.935,245.793 65.597,232.365 C 64.191,228.106 64.461,226.73 59.47,227.726 C 58.385,227.926 58.095,226.329 59.149,226.117 Z" fill="#000000" marker-start="none" marker-end="none"/>
     <path d="M 82.138,216.466 C 79.196,223.496 79.135,226.008 75.981,231.169 C 74.173,233.882 72.948,235.518 71.282,238.26 C 69.705,240.942 67.928,242.227 65.978,244.709 C 65.305,245.552 64.05,244.538 64.693,243.713 C 66.59,241.323 67.374,239.394 68.831,236.854 C 70.558,234.032 71.784,232.395 73.592,229.683 C 76.685,224.632 77.79,222.703 80.652,215.853 C 81.094,214.86 82.55,215.473 82.138,216.466 Z" fill="#000000" marker-start="none" marker-end="none"/>
     <path d="M 141.726,283.255 C 136.533,293.731 129.854,287.544 120.364,290.698 C 112.75,293.59 106.012,294.815 99.474,299.456 C 87.19,308.093 80.823,336.978 88.094,355.367 C 88.476,356.352 86.989,356.965 86.609,355.98 C 78.612,335.723 82.058,303.333 95.537,293.851 C 102.628,288.859 109.166,285.475 117.421,282.35 C 126.932,279.168 135.077,293.088 140.301,282.532 C 140.762,281.567 142.228,282.291 141.726,283.255 Z" fill="#000000" marker-start="none" marker-end="none"/>
     <path d="M 61.74,357.496 C 62.935,359.154 64.483,359.626 66.38,360.348 C 66.732,360.5 64.834,360.731 65.125,360.56 L 67.757,359.154 C 68.721,358.662 69.473,359.626 68.751,360.41 L 66.761,362.599 C 66.411,362.98 65.918,362.98 65.476,362.801 C 63.147,361.926 61.921,360.44 60.455,358.43 C 59.822,357.578 61.128,356.643 61.74,357.496 Z" fill="#000000" marker-start="none" marker-end="none"/>
     <path d="M 64.161,366.274 C 66.882,368.987 65.275,367.41 68.831,366.244 C 71.341,365.43 72.537,369.168 70.057,369.98 C 64.282,371.878 67.283,371.969 62.885,367.56 C 62.031,366.686 63.318,365.43 64.161,366.274 Z" fill="#000000" marker-start="none" marker-end="none"/>
     <path d="M 67.465,376.288 C 68.691,376.639 69.886,376.058 70.619,375.092 C 72.456,372.612 76.163,375.384 74.325,377.834 C 72.627,380.105 69.444,379.904 66.622,379.059 C 64.753,378.507 65.597,375.704 67.465,376.288 Z" fill="#000000" marker-start="none" marker-end="none"/>
     <path d="M 73.531,382.847 L 76.163,383.117 L 77.679,382.153 C 81.295,380.516 83.775,385.538 80.331,387.466 L 77.94,388.742 C 77.529,388.983 76.534,389.153 76.072,389.033 L 72.627,387.989 C 69.302,386.964 70.057,382.444 73.531,382.847 Z" fill="#000000" marker-start="none" marker-end="none"/>
     <path d="M 34.984,431.025 C 28.857,435.785 25.935,433.185 23.375,426.506 C 28.537,412.736 62.182,409.261 76.393,415.065 C 81.817,416.351 83.223,418.802 88.557,419.796 C 91.861,420.439 94.13,421.775 97.986,421.483 C 100.9,421.372 104.315,420.5 106.274,420.087 C 108.201,419.294 110.562,419.384 112.58,418.711 C 116.899,417.455 119.812,415.267 123.547,413.779 C 126.581,411.711 126.47,412.123 129.474,410.686 L 130.82,408.265 C 131.894,406.519 134.756,408.648 133.32,410.165 L 131.02,412.585 C 128.188,413.962 128.127,414.655 125.124,416.733 C 121.247,418.219 117.712,419.907 113.363,421.223 C 111.496,421.804 109.567,423.763 107.819,424.667 C 105.75,425.079 101.341,425.602 98.218,425.692 C 93.759,426.043 91.127,426.947 87.331,426.184 C 81.817,425.189 79.98,422.598 74.374,421.283 C 61.45,416 29.561,413.931 24.891,426.506 C 26.758,431.497 29.028,432.722 33.589,429.217 C 34.813,428.284 36.21,430.09 34.984,431.025 Z" fill="#000000" marker-start="none" marker-end="none"/>
     <path d="M 199.999,339.288 C 191.893,339.288 186.721,337.208 182.725,331.664 C 177.502,323.73 182.112,312.03 189.493,308.414 C 190.427,307.911 191.16,309.378 190.197,309.84 C 184.481,312.672 183.487,322.214 187.544,328.401 C 190.81,332.95 193.35,337.471 199.999,337.471 C 201.193,337.471 201.193,339.288 199.999,339.288 Z" fill="#000000" marker-start="none" marker-end="none"/>
     <path d="M 205.924,308.323 C 223.289,308.323 233.996,319.24 238.435,332.227 C 238.956,334.818 238.987,336.858 239.309,339.427 C 239.309,344.541 237.38,347.866 236.565,351.631 C 236.335,352.646 234.759,352.325 234.989,351.249 C 235.773,347.713 234.468,344.57 234.468,339.72 C 234.206,337.269 233.594,336.103 233.122,333.683 C 229.124,321.923 221.562,309.93 205.924,309.93 C 204.85,309.93 204.85,308.323 205.924,308.323 Z" fill="#000000" marker-start="none" marker-end="none"/>
     <path d="M 150.514,417.577 C 158.509,424.726 167.468,430.241 177.622,434.881 C 182.964,437.392 192.767,438.266 199.186,435.052 C 204.468,431.497 209.34,430.442 211.699,423.412 C 212.633,417.697 210.213,415.538 206.075,413.459 C 199.336,414.021 199.858,418.39 201.866,423.502 C 203.091,425.16 204.88,425.43 207.009,425.109 C 208.084,424.959 208.314,426.535 207.271,426.706 C 204.177,427.179 201.114,427.289 199.356,424.897 C 196.153,416.763 196.263,409.461 207.009,408.618 C 212.553,411.389 214.501,416.149 213.225,423.794 C 210.504,432.019 209.369,437.713 203.212,441.881 C 195.157,445.909 182.692,441.56 175.954,438.437 C 165.57,433.656 157.666,426.123 149.4,418.771 C 148.617,418.068 149.691,416.844 150.514,417.577 Z" fill="#000000" marker-start="none" marker-end="none"/>
     <path d="M 183.166,413.198 C 186.812,415.035 189.353,414.744 192.878,416.471 C 194.514,416.933 195.419,418.19 197.176,418.601 C 198.19,418.831 197.839,420.409 196.795,420.148 C 195.036,419.736 193.38,420.258 191.653,419.886 C 188.036,418.038 185.908,416.733 182.291,414.894 C 181.147,414.332 182,412.615 183.166,413.198 Z" fill="#000000" marker-start="none" marker-end="none"/>
     <path d="M 216.782,421.573 C 222.677,422.186 226.553,420.931 231.867,420.057 C 236.597,419.294 237.642,418.481 240.765,416.703 L 243.105,415.448 C 246.55,410.575 246.49,406.367 243.918,399.95 C 239.539,396.365 233.996,393.764 228.542,397.992 C 227.699,398.635 226.704,397.379 227.547,396.716 C 234.346,391.483 242.231,392.739 247.715,397.179 C 250.808,405.062 249.342,411.48 245.114,417.455 L 242.663,419.645 C 239.138,421.664 237.792,422.678 232.449,423.502 C 226.904,424.467 222.797,423.794 216.61,423.21 C 215.556,423.061 215.697,421.483 216.782,421.573 Z" fill="#000000" marker-start="none" marker-end="none"/>
     <path d="M 227.638,400.884 C 227.638,404.098 228.894,405.113 230.089,407.272 C 233.001,409.382 232.74,409.261 235.372,407.131 L 236.276,405.374 C 237.09,403.917 238.696,404.36 238.696,406.016 L 238.755,408.589 C 238.755,408.939 238.345,409.382 238.113,409.612 C 233.273,413.519 232.339,413.9 226.995,409.995 C 225.538,407.422 226.031,404.79 226.031,400.884 C 226.031,399.81 227.638,399.81 227.638,400.884 Z" fill="#000000" marker-start="none" marker-end="none"/>
     <path d="M 103.592,348.387 C 105.219,357.958 108.141,362.478 110.421,369.458 C 114.126,374.771 115.995,381.008 122.202,383.459 C 123.196,383.84 122.615,385.327 121.619,384.956 C 114.91,382.324 110.07,377.363 106.071,371.618 C 103.731,364.466 103.651,358.43 102.015,348.649 C 101.864,347.603 103.441,347.342 103.592,348.387 Z" fill="#000000" marker-start="none" marker-end="none"/>
     <path d="M 219.784,348.296 C 210.133,365.843 202.219,378.848 183.255,386.583 L 180.826,387.667 C 179.4,388.249 178.435,386.32 179.811,385.568 L 182.201,384.223 C 200.611,376.689 208.987,364.586 218.389,347.544 C 218.91,346.579 220.316,347.363 219.784,348.296 Z" fill="#000000" marker-start="none" marker-end="none"/>
     <path d="M 243.075,390.148 C 252.968,383.52 262.217,377.363 272.723,372.431 C 274.53,371.499 275.846,371.035 277.655,370.131 C 282.083,368.343 284.946,367.439 290.61,367.038 C 296.475,368.203 301.609,369.548 303.858,374.942 C 304.27,375.938 302.773,376.58 302.372,375.584 C 300.383,370.744 295.682,370.272 290.49,369.227 C 285.098,369.599 282.725,370.503 278.529,372.14 C 276.78,373.044 275.607,373.777 273.827,374.681 C 263.412,379.582 253.781,384.895 243.949,391.514 C 243.075,392.107 242.201,390.76 243.075,390.148 Z" fill="#000000" marker-start="none" marker-end="none"/>
     <path d="M 309.984,355.508 C 324.225,350.698 340.979,349.764 350.601,359.827 C 351.855,362.397 351.805,364.757 352.709,367.239 C 353.08,368.232 351.564,368.816 351.213,367.821 C 350.309,365.37 348.471,364.667 347.245,362.137 C 338.408,352.886 323.584,352.596 310.507,357.024 C 309.493,357.377 308.99,355.83 309.984,355.508 Z" fill="#000000" marker-start="none" marker-end="none"/>
     <path d="M 288.591,436.307 C 287.337,432.541 286.321,429.368 286.845,424.667 C 286.934,423.883 287.367,423.502 288.16,423.502 C 297.992,423.502 304.35,420.67 312.847,422.538 C 315.468,423.181 318.973,424.286 322.801,424.286 C 328.484,424.726 334.209,424.697 340.276,424.697 C 346.602,423.291 349.787,424.959 355.211,422.277 C 356.174,421.804 356.877,423.271 355.912,423.734 C 350.199,426.535 347.597,429.308 340.918,430.763 C 334.732,430.763 328.394,430.332 322.619,429.92 C 318.18,429.92 314.304,430.041 311.271,429.308 C 303.215,427.529 297.471,426.123 288.16,426.123 C 287.367,426.123 289.526,424.175 289.446,424.959 C 288.944,429.308 288.944,432.309 290.108,435.815 C 290.43,436.81 288.913,437.332 288.591,436.307 Z" fill="#000000" marker-start="none" marker-end="none"/>
     <path d="M 358.655,380.487 C 360.995,389.736 357.782,407.775 351.504,410.898 C 344.945,414.071 333.326,416.411 328.022,411.33 C 323.754,407.272 329.83,400.854 334.119,404.911 C 337.444,408.096 344.715,407.363 348.792,405.353 C 353.984,402.812 359.036,388.541 357.109,380.898 C 356.847,379.843 358.394,379.461 358.655,380.487 Z" fill="#000000" marker-start="none" marker-end="none"/>
     <path d="M 375.316,360.67 C 379.786,371.969 388.364,386.642 385.472,400.914 C 383.522,408.91 378.239,413.67 373.419,418.682 C 369.633,422.678 363.677,416.964 367.473,413.028 C 371.149,409.2 373.046,404.56 374.502,398.464 C 377.105,385.599 377.859,371.466 373.83,361.284 C 373.419,360.299 374.916,359.686 375.316,360.67 Z" fill="#ccff7f" marker-start="none" marker-end="none"/>
     <path d="M 285.298,436.197 L 282.355,434.851 C 271.437,420.199 285.759,409.672 300.292,413.288 C 301.317,413.519 300.966,415.065 299.92,414.834 C 287.688,411.801 275.314,420.348 284.514,432.661 L 286.353,434.701 C 287.165,435.614 286.403,436.689 285.298,436.197 Z" fill="#ccff7f" marker-start="none" marker-end="none"/>
     <path d="M 296.968,413.7 C 298.374,410.867 300.062,408.939 302.924,407.533 C 307.303,407.834 311.33,408.206 314.273,409.351 C 320.872,410.626 325.834,411.681 334.029,411.681 C 336.308,411.589 336.981,412.354 338.759,412.063 C 339.803,411.882 340.074,413.459 339.02,413.641 C 337.123,413.962 336.569,415.096 334.119,415.217 C 325.622,415.217 320.108,414.042 313.279,412.705 C 310.567,411.651 307.272,410.165 303.356,409.782 C 301.085,410.948 299.599,412.002 298.405,414.392 C 297.932,415.357 296.475,414.634 296.968,413.7 Z" fill="#ccff7f" marker-start="none" marker-end="none"/>
     <path d="M 316.724,408.556 C 314.624,405.403 312.847,401.697 312.847,396.045 L 313.6,393.472 C 316.874,386.964 325.36,384.282 334.903,385.859 C 344.594,390.7 348.531,407.885 332.421,409.029 C 326.155,405.725 324.93,398.876 331.055,395.189 C 332.392,394.376 333.597,396.365 332.25,397.147 C 328.715,399.308 329.71,402.873 333.295,404.79 C 345.328,403.917 341.641,390.961 334.411,387.376 C 325.681,385.941 318.099,388.079 315.117,394.026 L 314.715,396.275 C 314.715,401.497 316.111,404.79 318.07,407.684 C 318.652,408.556 317.306,409.461 316.724,408.556 Z" fill="#ccff7f" marker-start="none" marker-end="none"/>
     <path d="M 332.372,322.506 C 352.941,325.046 374.534,326.412 374.534,349.642 C 374.534,356.673 363.968,356.673 363.968,349.642 C 363.968,330.792 348.822,326.362 332.16,324.313 C 330.965,324.142 331.167,322.353 332.372,322.506 Z" fill="#ccff7f" marker-start="none" marker-end="none"/>
     <path d="M 358.455,347.775 C 355.451,343.837 353.141,341.848 349.586,338.464 C 343.018,333.593 336.339,331.262 327.871,328.401 C 326.877,328.018 327.379,326.502 328.394,326.854 C 337.062,329.796 344.041,332.077 350.72,337.098 C 354.396,340.513 356.676,342.753 359.739,346.81 C 360.382,347.683 359.096,348.649 358.455,347.775 Z" fill="#ccff7f" marker-start="none" marker-end="none"/>
     <path d="M 357.259,342.38 C 354.547,338.847 352.357,337.471 350.43,333.915 C 346.784,332.046 344.564,329.796 339.864,329.013 C 338.819,328.832 339.081,327.236 340.125,327.437 C 345.086,328.25 349.054,328.983 353.322,330.972 C 355.19,334.788 355.943,338.063 358.545,341.417 C 359.188,342.23 357.902,343.224 357.259,342.38 Z" fill="#ccff7f" marker-start="none" marker-end="none"/>
     <path d="M 318.481,325.448 L 319.294,322.856 C 319.385,322.444 319.676,324.514 319.405,324.172 C 318.421,322.856 318.361,321.339 316.783,320.607 C 314.213,321.862 314.424,323.027 313.812,325.247 C 315.036,331.373 317.517,331.404 322.358,329.917 C 324.959,327.959 325.331,325.367 325.622,321.25 C 324.517,317.775 324.547,317.424 322.156,315.645 C 319.647,315.093 318.3,314.33 315.619,314.159 C 304.611,316.52 299.508,323.821 292.298,329.535 C 289.204,332.86 287.427,334.558 283.951,337.329 C 280.195,341.035 276.751,343.929 272.34,347.392 C 259.265,357.578 245.617,366.566 232.016,375.906 C 231.112,376.549 230.209,375.202 231.083,374.591 C 244.651,365.25 256.322,353.761 269.369,343.607 C 273.626,340.273 276.811,337.067 280.456,333.423 C 283.781,330.792 285.88,328.812 288.803,325.719 C 296.296,319.733 303.999,315.032 315.528,312.552 C 318.3,312.763 320.46,312.672 323.261,313.285 C 326.445,315.616 326.766,316.378 328.193,320.928 C 327.871,325.95 326.124,329.073 323.06,331.313 C 316.845,333.271 313.107,333.102 311.53,325.156 C 312.344,322.353 313.52,320.727 316.783,319.15 C 318.652,320.024 320.169,321.109 321.394,322.625 C 321.715,323.057 321.835,323.529 321.545,323.961 L 319.907,326.181 C 319.294,327.026 318.18,326.502 318.481,325.448 Z" fill="#ccff7f" marker-start="none" marker-end="none"/>
     <path d="M 291.866,333.503 C 296.998,329.395 300.704,325.598 307.474,323.349 L 310.014,323.117 C 311.239,323.027 311.591,324.404 310.457,324.865 L 308.206,325.86 C 301.729,328.018 297.792,330.851 292.861,334.758 C 292.036,335.431 291.012,334.206 291.866,333.503 Z" fill="#ccff7f" marker-start="none" marker-end="none"/>
     <path d="M 324.136,356.593 C 333.767,359.154 337.824,361.253 343.751,367.149 C 345.296,370.302 346.493,374.128 346.844,378.829 C 346.894,379.904 345.296,379.994 345.237,378.939 C 344.945,374.561 342.555,371.969 341.089,369.076 C 335.515,363.502 332.772,360.59 323.724,358.159 C 322.68,357.868 323.091,356.301 324.136,356.593 Z" fill="#000000" marker-start="none" marker-end="none"/>
     <path d="M 303.979,356.643 C 312.204,352.675 321.484,348.829 333.445,348.829 C 334.55,348.829 334.55,350.435 333.445,350.435 C 321.745,350.435 312.697,354.223 304.671,358.109 C 303.678,358.541 303.015,357.114 303.979,356.643 Z" fill="#ccff7f" marker-start="none" marker-end="none"/>
     <path d="M 334.872,348.508 C 354.165,352.002 366.508,354.574 368.025,375.704 C 368.025,381.16 364.148,384.694 363.506,388.571 C 363.325,389.625 361.719,389.354 361.929,388.28 C 362.512,384.664 359.801,381.129 359.801,376.026 C 358.515,358.31 350.601,353.7 334.47,350.747 C 332.954,350.486 333.356,348.216 334.872,348.508 Z" fill="#ccff7f" marker-start="none" marker-end="none"/>
     <path d="M 221.422,337.129 C 229.155,337.129 231.434,337.239 234.729,343.897 C 234.729,368.433 215.526,381.038 199.767,389.153 C 198.803,389.625 198.08,388.19 199.033,387.698 C 213.075,380.487 225.971,367.853 225.971,345.936 C 224.364,342.723 225.127,342.03 221.422,342.03 C 218.126,342.03 218.126,337.129 221.422,337.129 Z" fill="#ccff7f" marker-start="none" marker-end="none"/>
     <path d="M 106.474,338.354 L 104.435,336.274 C 101.081,337.471 102.215,336.274 101.282,340.04 C 105.51,352.735 118.415,346.258 115.232,333.503 C 111.586,328.491 105.75,321.421 97.173,325.719 C 93.779,329.978 92.613,332.338 91.389,338.584 C 91.389,363.853 105.781,379.461 123.428,386.472 C 124.391,386.873 123.809,388.37 122.815,387.959 C 104.084,380.516 86.899,364.959 86.899,338.144 C 88.295,331.112 91.539,328.28 95.386,323.5 C 106.153,318.097 115.553,324.926 120.163,331.203 C 124.834,349.995 105.781,358.801 99.534,340.101 C 100.819,335.019 100.317,336.074 104.817,334.467 L 107.618,337.178 C 108.372,337.942 107.206,339.077 106.474,338.354 Z" fill="#ccff7f" marker-start="none" marker-end="none"/>
     <path d="M 103.35,326.06 C 91.831,320.316 88.968,333.825 90.635,344.069 C 91.007,349.843 90.897,349.764 92.474,354.574 C 93.086,356.564 90.103,357.496 89.491,355.508 C 87.803,350.286 86.899,350.838 86.427,344.541 C 83.916,329.043 89.671,309.809 107.117,318.507 C 112.138,321.048 108.372,328.602 103.35,326.06 Z" fill="#ccff7f" marker-start="none" marker-end="none"/>
     <path d="M 136.915,394.577 C 138.633,398.022 138.573,399.81 136.975,402.983 C 134.083,403.917 130.729,404.62 127.957,403.194 C 125.768,398.845 125.828,395.922 127.224,390.409 C 129.704,388.541 132.306,387.486 135.6,386.472 C 146.868,391.081 149.027,401.356 140.912,408.265 C 132.306,415.738 118.615,423.673 102.476,424.959 C 99.242,424.205 95.949,423.271 93.437,422.306 C 71.282,413.429 35.336,403.163 26.408,429.276 C 25.905,430.683 23.805,429.981 24.278,428.574 C 34.08,399.95 72.397,404.389 96.701,414.071 C 98.831,414.894 100.378,415.558 103.149,416.231 C 117.622,415.065 129.794,410.978 137.499,404.33 C 143.474,399.217 143.825,391.372 135.54,387.959 C 132.416,388.923 130.82,389.505 128.48,391.252 C 127.284,396.013 128.277,397.268 130.176,401.005 C 132.185,401.969 133.29,401.849 135.398,401.176 C 136.624,398.724 136.766,397.941 135.48,395.31 C 134.987,394.346 136.413,393.654 136.915,394.577 Z" fill="#ccff7f" marker-start="none" marker-end="none"/>
     <path d="M 109.778,409.432 C 104.405,408.91 100.527,409.081 95.767,408.467 C 91.71,407.483 88.587,406.809 84.8,406.016 C 81.094,404.741 81.557,404.71 78.553,403.214 C 68.138,399.078 61.68,387.165 48.673,387.466 C 43.362,387.546 37.264,393.03 39.826,398.203 C 40.297,399.166 38.861,399.891 38.369,398.925 C 34.923,392.045 41.463,383.459 48.614,383.348 C 62.182,383.057 69.765,394.235 80.652,398.553 C 83.304,399.859 83.133,399.508 86.287,400.563 C 90.053,401.376 92.644,401.939 96.822,402.924 C 101.512,403.537 104.817,405.113 110.129,405.615 C 112.66,405.846 112.309,409.672 109.778,409.432 Z" fill="#ccff7f" marker-start="none" marker-end="none"/>
     <path d="M 53.164,400.442 C 49.718,399.488 44.646,400.301 40.116,400.301 C 34.573,402.37 30.987,404.79 30.987,410.426 C 30.987,411.511 29.35,411.511 29.35,410.426 C 29.35,403.366 32.332,398.203 39.273,395.631 C 44.095,395.631 49.929,397.851 53.605,398.895 C 54.62,399.197 54.187,400.764 53.164,400.442 Z" fill="#ccff7f" marker-start="none" marker-end="none"/>
     <path d="M 156.118,317.634 L 157.485,319.964 C 157.836,320.637 155.356,319.823 155.998,319.473 C 159.876,317.544 155.034,316.579 151.679,316.579 C 150.043,316.579 154.39,312.521 154.28,314.159 C 153.366,326.533 159.965,329.978 170.761,329.978 C 172.43,329.978 172.43,332.518 170.761,332.518 C 157.223,332.518 147.943,329.304 149.078,313.747 C 149.168,312.15 150.043,311.326 151.679,311.326 C 159.031,311.326 165.479,317.222 156.993,321.45 C 156.319,321.802 155.817,321.66 155.505,320.958 L 154.421,318.507 C 153.929,317.313 155.505,316.549 156.118,317.634 Z" fill="#ccff7f" marker-start="none" marker-end="none"/>
     <path d="M 185.495,321.952 C 186.812,319.261 186.49,317.343 187.364,314.48 C 188.157,311.97 191.893,313.134 191.131,315.616 C 190.197,318.678 188.298,319.823 186.963,322.625 C 186.49,323.591 185.065,322.917 185.495,321.952 Z" fill="#ccff7f" marker-start="none" marker-end="none"/>
     <path d="M 186.721,295.337 C 185.003,290.758 183.548,289.03 181.358,286.087 C 178.846,282.35 177.622,279.317 174.086,276.667 C 170.119,271.324 163.822,270.742 156.229,270.159 C 147.884,268.11 139.657,269.305 131.02,270.771 C 129.765,271.002 129.443,269.104 130.7,268.903 C 139.748,267.356 148.004,264.936 156.731,267.095 C 165.217,267.729 171.404,268.933 175.875,274.879 C 179.781,277.861 182.553,279.229 185.295,283.315 C 187.685,286.58 187.454,289.271 189.353,294.343 C 190.026,296.121 187.364,297.115 186.721,295.337 Z" fill="#ccff7f" marker-start="none" marker-end="none"/>
     <path d="M 129.734,278.675 C 121.739,279.288 127.224,283.636 129.966,285.033 L 132.216,285.354 C 135.047,285.354 137.588,285.596 139.306,284.711 C 142.981,279.731 136.855,276.025 132.919,273.131 C 121.157,264.344 107.819,276.897 101.573,282.874 C 100.789,283.636 99.675,282.472 100.438,281.708 C 107.669,274.819 122.473,258.8 136.011,268.933 C 141.205,272.749 145.142,279.348 140.33,285.917 C 138.402,286.851 135.108,287.665 131.923,287.665 L 129.323,286.822 C 124.864,284.57 116.658,277.45 129.564,276.455 C 131.05,276.365 131.191,278.555 129.734,278.675 Z" fill="#ccff7f" marker-start="none" marker-end="none"/>
     <path d="M 113.304,263.649 C 119.55,261.43 124.28,259.122 130.637,257.021 C 132.677,256.591 136.362,256.319 139.245,256.319 C 145.201,256.821 150.333,256.761 156.199,257.665 C 163.259,259.794 167.257,260.988 173.624,264.174 C 176.196,266.743 177.823,269.837 180.775,272.108 C 181.649,272.78 180.655,274.035 179.811,273.393 C 176.748,271.032 174.206,269.716 171.525,267.065 C 165.388,264.003 162.385,262.597 155.556,260.496 C 149.781,259.593 145.051,258.75 139.156,258.218 C 136.413,258.218 133.059,258.338 131.11,258.75 C 124.772,260.879 120.042,262.947 113.835,265.166 C 112.842,265.519 112.309,264.023 113.304,263.649 Z" fill="#ccff7f" marker-start="none" marker-end="none"/>
     <path d="M 111.294,162.744 C 113.243,166.682 112.811,168.338 109.246,170.065 C 105.51,167.203 104.726,164.752 105.048,160.022 C 107.588,153.784 111.294,151.153 115.433,156.668 C 122.412,166.008 114.71,181.504 111.003,187.31 C 108.291,190.785 105.51,194.923 103.702,199.242 C 101.693,203.269 100.408,206.543 98.57,210.188 C 93.437,220.403 87.573,226.269 82.079,235.338 C 76.505,246.576 73.099,255.947 68.278,268.05 C 61.74,289.733 55.824,319.181 63.669,342.23 C 64.02,343.256 62.504,343.777 62.182,342.753 C 54.157,319.211 57.892,288.919 64.603,266.774 C 69.444,254.572 73.883,245.23 79.548,233.972 C 84.941,224.952 88.907,217.982 93.99,207.878 C 95.829,204.264 97.515,201.351 99.503,197.294 C 101.512,192.592 103.792,188.094 106.745,184.307 C 110.07,179.054 120.425,166.069 114.156,157.632 C 111.064,153.514 108.493,155.703 106.594,160.344 C 106.334,164.29 106.363,165.836 109.457,168.198 C 111.697,167.092 111.084,165.948 109.859,163.437 C 109.367,162.502 110.793,161.78 111.294,162.744 Z" fill="#ccff7f" marker-start="none" marker-end="none"/>
     <path d="M 97.465,125.121 L 99.765,122.088 C 100.206,121.566 100.669,121.566 101.051,122.118 C 104.084,126.266 104.114,129.822 101.662,134.079 C 101.311,134.723 100.698,134.964 99.996,134.752 C 87.803,131.257 89.15,118.563 99.212,115.288 C 111.616,116.253 115.875,130.875 118.356,141.582 C 117.913,144.093 116.868,149.899 116.427,152.319 C 115.815,156.175 110.07,155.211 110.713,151.355 C 111.084,148.934 110.823,144.325 111.234,141.814 C 109.045,132.303 110.421,117.719 99.413,116.835 C 91.57,119.406 91.308,129.238 100.819,131.949 C 101.512,132.161 98.77,133.266 99.153,132.623 C 101.111,129.238 102.154,126.376 99.734,123.052 C 99.353,122.53 101.462,122.559 101.051,123.083 L 98.741,126.116 C 98.078,126.939 96.822,125.975 97.465,125.121 Z" fill="#ccff7f" marker-start="none" marker-end="none"/>
     <path d="M 46.654,153.986 C 47.067,151.856 46.224,150.479 46.625,148.442 C 46.976,146.603 48.201,146.253 49.84,147.126 L 53.545,149.195 C 53.956,149.406 54.418,150.129 54.539,150.571 C 58.566,164.633 42.076,165.304 38.018,153.514 C 35.426,145.76 39.826,138.84 43.331,135.336 C 61.771,131.749 71.2,167.203 60.987,179.547 C 55.151,185.351 45.138,187.31 35.798,185.472 C 20.633,180.128 14.386,164.552 14.386,145.228 C 14.386,144.123 15.992,144.123 15.992,145.228 C 15.992,162.302 24.188,174.183 37.585,178.904 C 44.726,180.31 51.997,179.868 56.437,175.408 C 65.096,165.013 59.873,134.171 44.325,137.204 C 41.402,140.156 39.182,145.87 41.372,152.378 C 43.391,158.334 52.29,159.681 50.3,152.59 L 47.478,150.541 C 45.981,149.256 51.064,147.307 50.653,149.225 C 50.25,151.335 48.673,152.119 48.231,154.307 C 48.031,155.361 46.454,155.061 46.654,153.986 Z" fill="#ccff7f" marker-start="none" marker-end="none"/>
     <path d="M 19.518,168.519 C 15.028,166.682 17.539,170.207 13.16,166.973 L 10.449,163.175 C 9.072,159.038 7.556,155.945 7.264,151.445 C 5.044,126.728 19.988,121.103 35.135,113.541 C 36.09,113.078 36.822,114.505 35.858,114.998 C 22.028,121.887 10.449,128.486 12.457,151.043 C 12.748,155.01 14.064,156.928 15.29,160.615 L 17.218,162.854 C 20.772,165.486 16.835,164.612 20.512,166.098 C 22.118,166.791 21.125,169.193 19.518,168.519 Z" fill="#ccff7f" marker-start="none" marker-end="none"/>
     <path d="M 12.137,133.648 C 10.529,129.65 10.589,126.376 11.201,122.057 C 15.672,117.598 17.71,115.438 23.192,113.249 C 29.581,110.307 33.991,109.052 41.934,107.556 C 65.798,107.556 78.663,113.602 87.131,128.596 C 88.154,130.786 87.602,132.533 88.416,134.752 C 88.968,136.188 86.809,137.033 86.256,135.607 C 85.443,133.447 83.745,132.975 82.751,130.875 C 74.907,116.925 64.282,109.132 42.105,109.132 C 34.342,110.619 30.313,112.375 24.037,115.288 C 18.905,117.307 17.419,119.206 13.452,123.204 C 12.869,126.909 12.166,129.419 13.593,133.065 C 14.033,134.06 12.516,134.642 12.137,133.648 Z" fill="#ccff7f" marker-start="none" marker-end="none"/>
     <path d="M 70.699,50.016 C 73.652,48.44 72.216,47.335 72.216,43.919 C 72.216,43.277 73.652,46.31 73.149,45.899 C 70.438,43.68 70.207,42.192 68.278,39.771 C 59.409,33.092 45.811,51.532 45.811,62.912 C 46.544,66.266 47.418,69.329 47.911,72.864 C 47.911,72.864 48.815,75.407 48.904,75.667 C 49.84,77.504 50.542,78.58 51.324,80.367 C 53.654,83.773 54.891,86.603 57.572,89.265 C 58.326,90.019 57.16,91.164 56.407,90.402 C 53.686,87.659 51.817,84.996 49.397,81.412 C 48.614,79.634 48.091,78.258 47.177,76.45 L 45.782,73.448 C 45.289,69.942 44.938,66.386 44.234,63.083 C 44.234,50.738 59.791,31.395 69.413,38.606 C 71.231,40.936 73.762,39.801 76.393,41.931 C 76.885,42.312 77.358,43.277 77.358,43.919 C 77.358,49.253 76.423,49.574 71.813,52.056 C 70.438,52.788 69.364,50.738 70.699,50.016 Z" fill="#ccff7f" marker-start="none" marker-end="none"/>
    </g>
   </g>
  </g>
 </g>
</svg>
