<?xml version="1.0" standalone="no"?>
<!-- Generator: Xara Xtreme (www.xara.com), SVG filter version: 0.4 -->
<!DOCTYPE svg PUBLIC "-//W3C//DTD SVG 1.1//EN" "http://www.w3.org/Graphics/SVG/1.1/DTD/svg11.dtd">
<svg stroke-width="0.501" stroke-linejoin="bevel" fill-rule="evenodd" xmlns:xlink="http://www.w3.org/1999/xlink" xmlns="http://www.w3.org/2000/svg" version="1.1" width="112.5pt" height="127.5pt" viewBox="0 0 112.5 127.5">
 <defs>
  <marker id="DefaultArrow2" markerUnits="strokeWidth" viewBox="0 0 1 1" markerWidth="1" markerHeight="1" overflow="visible" orient="auto">
   <!-- REF_ARROW_STRAIGHT (-2) -->
   <g transform="scale(0.0092592592)">
    <!-- 1/108 -->
    <path d="M -9 54 L -9 -54 L 117 0 z"/>
   </g>
  </marker>
  <marker id="DefaultArrow3" markerUnits="strokeWidth" viewBox="0 0 1 1" markerWidth="1" markerHeight="1" overflow="visible" orient="auto">
   <!-- REF_ARROW_ANGLED -->
   <g transform="scale(0.0092592592)">
    <path d="M -27 54 L -9 0 L -27 -54 L 135 0 z"/>
   </g>
  </marker>
  <marker id="DefaultArrow4" markerUnits="strokeWidth" viewBox="0 0 1 1" markerWidth="1" markerHeight="1" overflow="visible" orient="auto">
   <!-- REF_ARROW_ROUNDED -->
   <g transform="scale(0.0092592592)">
    <path d="M -9,0 L -9,-45 C -9,-51.708 2.808,-56.580 9,-54 L 117,-9 C 120.916,-7.369 126.000,-4.242 126,0 C 126,4.242 120.916,7.369 117,9 L 9,54 C 2.808,56.580 -9,51.708 -9,45 z"/>
   </g>
  </marker>
  <marker id="DefaultArrow5" markerUnits="strokeWidth" viewBox="0 0 1 1" markerWidth="1" markerHeight="1" overflow="visible" orient="auto">
   <!-- REF_ARROW_SPOT -->
   <g transform="scale(0.0092592592)">
    <path d="M -54, 0 C -54,29.807 -29.807,54 0,54 C 29.807,54 54,29.807 54,0 C 54,-29.807 29.807,-54 0,-54 C -29.807,-54 -54,-29.807 -54,0 z"/>
   </g>
  </marker>
  <marker id="DefaultArrow6" markerUnits="strokeWidth" viewBox="0 0 1 1" markerWidth="1" markerHeight="1" overflow="visible" orient="auto">
   <!-- REF_ARROW_DIAMOND -->
   <g transform="scale(0.0092592592)">
    <path d="M -63,0 L 0,63 L 63,0 L 0,-63 z"/>
   </g>
  </marker>
  <marker id="DefaultArrow7" markerUnits="strokeWidth" viewBox="0 0 1 1" markerWidth="1" markerHeight="1" overflow="visible" orient="auto">
   <!-- REF_ARROW_FEATHER -->
   <g transform="scale(0.0092592592)">
    <path d="M 18,-54 L 108,-54 L 63,0 L 108,54 L 18, 54 L -36,0 z"/>
   </g>
  </marker>
  <marker id="DefaultArrow8" markerUnits="strokeWidth" viewBox="0 0 1 1" markerWidth="1" markerHeight="1" overflow="visible" orient="auto">
   <!-- REF_ARROW_FEATHER2 -->
   <g transform="scale(0.0092592592)">
    <path d="M -36,0 L 18,-54 L 54,-54 L 18,-18 L 27,-18 L 63,-54 L 99,-54 L 63,-18 L 72,-18 L 108,-54 L 144,-54 L 90,0 L 144,54 L 108,54 L 72,18 L 63,18 L 99,54 L 63,54 L 27,18 L 18,18 L 54,54 L 18,54 z"/>
   </g>
  </marker>
  <marker id="DefaultArrow9" markerUnits="strokeWidth" viewBox="0 0 1 1" markerWidth="1" markerHeight="1" overflow="visible" orient="auto">
   <!-- REF_ARROW_HOLLOWDIAMOND -->
   <g transform="scale(0.0092592592)">
    <path d="M 0,45 L -45,0 L 0, -45 L 45, 0 z M 0, 63 L-63, 0 L 0, -63 L 63, 0 z"/>
   </g>
  </marker>
 </defs>
 <g id="Document" fill="none" stroke="black" font-family="Times New Roman" font-size="16" transform="scale(1 -1)">
  <g id="Spread" transform="translate(0 -127.5)">
   <g id="Layer 1">
    <g id="Group" stroke-linejoin="miter" stroke="none" stroke-width="0.5" stroke-miterlimit="79.8403193612775">
     <path d="M 16.93,120.609 C 14.554,121.797 13.67,120.316 12.384,118.621 C 11.841,115.585 12.286,113.947 13.002,111.059 C 17.374,102.511 24.924,98.161 26.873,88.304 C 26.938,87.974 26.442,87.875 26.377,88.206 C 24.376,98.323 12.262,100.33 7.775,109.104 C 6.861,112.79 6.688,116.939 7.381,120.813 C 9.857,124.076 13.485,125.158 18.061,122.87 C 19.568,122.117 18.437,119.855 16.93,120.609 Z" fill="#337f00" marker-start="none" marker-end="none"/>
     <path d="M 20.379,111.9 C 18.439,110.93 18.902,110.547 18.165,108.312 C 18.871,100.383 23.426,98.105 25.353,90.367 C 25.435,90.04 24.944,89.917 24.863,90.244 C 22.785,98.582 14.553,100.275 13.792,108.818 C 15.026,112.556 15.413,113.72 18.657,115.343 C 20.952,116.49 22.674,113.047 20.379,111.9 Z" fill="#337f00" marker-start="none" marker-end="none"/>
     <path d="M 13.228,83.762 C 13.456,86.619 13.104,85.212 13.532,87.897 C 13.65,88.634 14.079,88.887 14.78,88.635 C 19.709,86.859 23.011,78.286 18.118,75.568 C 12.6,72.527 7.364,77.851 5.336,81.305 C 3.808,91.999 11.717,99.656 22.091,94.326 C 28.019,91.271 29.261,82.4 27.886,74.028 C 27.831,73.696 27.332,73.777 27.387,74.11 C 28.547,81.173 25.036,87.752 20.035,90.33 C 14,93.43 9.495,89.29 10.384,83.07 C 11.405,81.329 13.08,78.117 15.861,79.649 C 18.553,81.144 16.854,85.887 14.143,86.864 C 13.441,87.117 15.508,88.337 15.391,87.601 C 14.975,84.999 14.906,86.415 14.684,83.646 C 14.606,82.675 13.15,82.792 13.228,83.762 Z" fill="#337f00" marker-start="none" marker-end="none"/>
     <path d="M 26.378,71.431 C 21.25,59.355 14.813,45.511 18.866,27.838 C 20.135,22.252 29.273,9.558 35.528,17.913 C 37.773,20.912 42.271,17.545 40.026,14.546 C 31.046,2.551 16.936,18.962 15.114,26.982 C 10.904,45.337 20.534,59.108 25.861,71.651 C 26.007,71.995 26.524,71.776 26.378,71.431 Z" fill="#337f00" marker-start="none" marker-end="none"/>
     <path d="M 40.34,17.254 C 42.507,16.17 44.661,15.471 47.887,15.219 C 59.433,16.662 67.191,22.369 75.632,27.052 C 83.486,31.413 92.766,35.312 102.229,30.581 C 104.026,28.784 105.188,26.912 106.319,24.051 C 107.449,17.17 105.605,9.326 99.888,7.443 C 91.36,4.612 87.402,13.108 93.959,17.479 C 94.239,17.667 94.52,17.246 94.24,17.058 C 90.491,14.56 93.549,10.252 98.424,11.87 C 102.112,13.085 101.879,18.184 101.15,22.623 C 100.371,24.593 100.354,25.024 99.116,26.262 C 91.388,30.126 84.486,26.216 78.071,22.655 C 69.097,17.676 60.279,11.696 48.005,10.162 C 44.037,10.471 40.97,11.85 38.305,13.183 C 35.591,14.54 37.626,18.61 40.34,17.254 Z" fill="#337f00" marker-start="none" marker-end="none"/>
     <path d="M 98.079,6.26 C 93.497,6.619 91.371,6.195 88.346,7.693 C 83.149,8.727 78.305,7.75 82.559,4.779 C 82.835,4.586 82.545,4.172 82.269,4.365 C 75.736,8.927 81.699,13.211 89.684,11.621 C 92.381,10.285 94.124,8.261 98.211,7.94 C 99.331,7.852 99.199,6.172 98.079,6.26 Z" fill="#337f00" marker-start="none" marker-end="none"/>
     <path d="M 47.885,15.464 C 57.418,17.833 63.334,21.125 70.72,25.725 C 77.136,29.709 84.848,36.373 95.951,34.176 C 99.692,33.452 103.941,26.865 105.638,24.036 C 106.219,20.523 105.332,16.087 103.958,13.337 C 103.472,12.365 102.015,13.094 102.5,14.066 C 103.676,16.416 102.327,19.634 101.831,22.637 C 100.49,24.871 98.236,30.186 95.282,30.757 C 85.087,32.774 77.694,27.641 71.803,23.983 C 64.295,19.308 57.696,17.381 48.007,14.973 C 47.68,14.892 47.558,15.382 47.885,15.464 Z" fill="#337f00" marker-start="none" marker-end="none"/>
     <path d="M 46.455,16 C 55.457,14.243 64.818,21.395 67.603,26.964 C 69.439,30.638 66.784,35.918 64.784,37.407 C 62.466,39.679 57.898,42.515 54.08,39.651 C 50.555,37.013 53.277,33.74 56.926,32.668 C 58.543,32.193 57.831,29.767 56.213,30.242 C 49.916,32.092 45.84,37.975 51.924,42.529 C 57.552,46.75 64.209,44.079 67.626,40.729 C 70.464,38.617 72.471,31.047 69.864,25.833 C 66.859,19.824 56.062,13.552 46.347,15.448 C 45.979,15.52 46.087,16.072 46.455,16 Z" fill="#337f00" marker-start="none" marker-end="none"/>
     <path d="M 37.472,14.497 C 33.587,15.461 31.962,15.825 29.413,17.845 C 28.343,20.013 27.291,21.959 26.395,24.185 C 25.949,26.446 25.895,28.926 25.895,32.467 C 25.895,34.666 27.175,36.16 28.755,34.629 L 31.779,31.698 C 32.021,31.464 31.969,31.284 31.64,31.212 L 27.529,30.304 C 26.076,29.983 30.389,33.954 30.389,32.467 C 30.389,29.321 30.503,27.532 30.899,25.523 C 31.745,23.423 31.985,22.783 32.995,20.738 C 35.102,19.067 34.868,17.748 38.081,16.951 C 39.717,16.545 39.109,14.091 37.472,14.497 Z" fill="#337f00" marker-start="none" marker-end="none"/>
     <path d="M 34.011,13.397 C 30.668,15.882 27.132,17.165 25.179,21.1 C 17.606,36.245 21.724,51.02 38.211,54.269 C 41.892,54.269 45.886,53.996 48.35,53.271 C 55.708,49.607 59.768,40.414 52.894,33.389 C 49.637,32.086 46.506,31.729 43.499,33.217 C 43.232,34.018 43.356,36.235 43.089,38.015 C 43.034,38.385 43.589,38.469 43.645,38.098 C 43.897,36.416 45.006,35.506 45.258,34.749 C 47.709,33.537 49.448,33.517 52.1,34.578 C 57.981,40.588 53.837,48.079 47.542,51.214 C 45.23,51.893 41.864,52.238 38.41,52.238 C 23.825,49.363 21.372,35.938 28.071,22.54 C 29.847,18.961 31.423,16.266 34.464,14.006 C 34.87,13.704 34.417,13.095 34.011,13.397 Z" fill="#337f00" marker-start="none" marker-end="none"/>
     <path d="M 30.968,13.606 C 23.402,16.573 18.675,24.461 18.675,34.994 C 18.675,51.793 30.765,61.243 44.763,58.935 C 50.898,57.714 51.534,55.392 54.476,51.448 C 55.439,50.157 53.503,48.712 52.54,50.003 C 50.185,53.159 48.903,53.73 43.994,54.707 C 32.431,56.613 22.439,48.87 22.439,34.994 C 22.439,25.558 24.661,17.467 31.439,14.809 C 32.241,14.494 31.77,13.291 30.968,13.606 Z" fill="#337f00" marker-start="none" marker-end="none"/>
     <path d="M 36.715,11.071 C 31.95,7.507 28.443,7.466 23.837,9.769 C 20.522,10.789 18.338,12.503 14.615,11.764 C 12.264,10.601 10.525,10.247 9.363,7.896 C 9.038,7.242 8.057,7.728 8.38,8.382 C 9.847,11.347 10.332,14.173 13.297,15.639 C 17.777,16.529 21.378,14.817 25.368,13.589 C 29.01,11.768 32.039,9.467 35.806,12.286 C 36.615,12.892 37.524,11.678 36.715,11.071 Z" fill="#337f00" marker-start="none" marker-end="none"/>
     <path d="M 33.732,11.932 C 24.681,11.932 21.835,15.529 15.158,15.584 L 12.709,14.952 C 12.224,14.81 12.034,14.998 12.169,15.485 L 13.052,18.66 C 13.221,19.27 13.845,19.255 14.478,19.25 C 21.444,19.192 24.29,12.438 33.732,12.438 C 34.069,12.438 34.069,11.932 33.732,11.932 Z" fill="#337f00" marker-start="none" marker-end="none"/>
     <path d="M 21.903,19.575 C 15.276,24.67 10.257,30.949 10.257,40.727 C 11.877,53.065 18.853,56.208 21.525,65.532 C 22.904,70.332 21.069,74.4 17.646,71.844 C 17.376,71.642 17.074,72.047 17.344,72.249 C 22.643,76.206 27.79,71.779 25.657,64.347 C 23.048,55.245 16.203,52.485 14.621,40.442 C 14.621,31.516 16.196,24.671 22.245,20.02 C 22.542,19.792 22.2,19.346 21.903,19.575 Z" fill="#337f00" marker-start="none" marker-end="none"/>
     <path d="M 24.862,65 C 25.818,68.875 25.052,72.723 24.342,77.335 C 24.29,77.678 25.321,75.961 25.043,76.168 C 22.953,77.73 24.484,79.036 22.187,77.888 C 21.886,77.737 21.66,78.189 21.961,78.34 C 25.601,80.16 23.883,81.524 27.195,79.049 C 27.474,78.841 27.844,78.225 27.896,77.882 C 28.658,72.933 26.378,69.037 25.353,64.879 C 25.273,64.552 24.782,64.673 24.862,65 Z" fill="#337f00" marker-start="none" marker-end="none"/>
     <path d="M 26.758,22.667 C 20.886,36.01 21.371,49.39 36.005,52.311 C 39.564,50.849 37.243,51.838 40.896,49.138 C 42.824,47.713 40.687,44.821 38.759,46.246 C 35.812,48.424 38.374,45.939 35.504,47.118 C 23.379,44.698 22.638,34.05 27.503,22.995 C 27.722,22.498 26.976,22.17 26.758,22.667 Z" fill="#337f00" marker-start="none" marker-end="none"/>
     <path d="M 35.414,18.357 C 32.502,20.666 18.462,33.989 30.478,37.203 C 31.819,37.561 32.933,37.144 33.613,35.934 L 35.057,33.363 C 36.837,30.195 32.342,27.498 30.384,30.559 L 28.795,33.044 C 28.072,34.173 33.225,32.121 31.929,31.775 C 23.768,29.593 34.117,20.784 36.095,19.215 C 36.667,18.761 35.986,17.903 35.414,18.357 Z" fill="#337f00" marker-start="none" marker-end="none"/>
     <path d="M 39.573,16.231 C 45.015,12.17 47.42,10.463 54.623,8.08 C 56.979,8.647 58.451,7.919 57.385,10.069 C 56.586,11.679 59.001,12.877 59.8,11.267 C 62.326,6.176 59.996,4.431 54.416,3.087 C 46.639,5.66 43.937,9.82 38.06,14.205 C 36.71,15.213 38.221,17.24 39.573,16.231 Z" fill="#337f00" marker-start="none" marker-end="none"/>
     <path d="M 44.428,13.501 C 51.596,12.327 61.002,8.091 65.619,14.264 C 66.217,15.063 65.882,10.567 65.409,11.446 C 64.065,13.944 66.337,12.199 63.671,14.194 C 60.957,16.224 64.002,20.296 66.717,18.265 C 71.192,14.918 67.78,18.128 70.035,13.934 C 70.508,13.055 70.423,11.916 69.826,11.117 C 64.26,3.676 52.969,11.477 44.329,12.891 C 43.922,12.958 44.022,13.567 44.428,13.501 Z" fill="#337f00" marker-start="none" marker-end="none"/>
     <path d="M 102.443,15.103 C 100.581,11.475 96.715,6.626 91.931,8.456 C 84.831,11.165 91.101,23.211 96.799,17.372 C 98.997,15.121 95.62,11.824 93.422,14.076 C 92.179,15.349 91.686,12.459 93.234,11.868 C 96.857,10.482 100.583,12.586 101.993,15.334 C 102.147,15.634 102.596,15.403 102.443,15.103 Z" fill="#337f00" marker-start="none" marker-end="none"/>
     <path d="M 68.513,24.151 C 73.782,27.927 97.029,45.663 104.187,31.714 C 105.879,28.414 100.931,25.875 99.238,29.174 C 93.192,40.957 73.405,26.725 68.954,23.534 C 68.543,23.239 68.101,23.856 68.513,24.151 Z" fill="#337f00" marker-start="none" marker-end="none"/>
     <path d="M 48.452,18.8 C 55.718,18.8 57.038,21.066 60.584,24.612 C 61.778,26.203 62.842,27.101 63.287,29.395 C 63.91,32.612 68.736,31.677 68.113,28.459 C 67.489,25.241 66.366,23.283 64.691,21.05 C 60.196,16.556 57.661,14.671 48.452,14.671 C 45.699,14.671 45.699,18.8 48.452,18.8 Z" fill="#337f00" marker-start="none" marker-end="none"/>
     <path d="M 20.316,56.46 C 24.638,63.7 25.441,73.474 28.669,81.669 C 28.976,82.449 30.271,77.444 29.985,78.233 L 28.924,81.166 C 28.663,81.889 28.704,81.973 29.439,82.197 L 32.422,83.108 C 34.531,83.751 34.547,81.723 33.739,79.672 C 30.479,71.394 25.164,63.486 20.799,56.172 C 20.607,55.85 20.124,56.138 20.316,56.46 Z" fill="#337f00" marker-start="none" marker-end="none"/>
     <path d="M 28.083,78.547 C 29.486,82.104 27.971,85.21 27.192,89.183 L 26.289,90.913 C 24.89,93.689 27.86,96.003 29.995,93.744 L 32.181,91.429 C 33.103,86.729 31.937,81.889 30.279,77.681 C 29.702,76.218 27.507,77.083 28.083,78.547 Z" fill="#337f00" marker-start="none" marker-end="none"/>
     <path d="M 40.081,13.702 C 30.507,20.882 38.823,31.425 43.862,21.305 C 45.04,18.94 39.029,18.285 39.67,20.848 C 40.568,24.443 39.397,22.18 41.859,25.475 C 42.289,26.049 43.024,26.333 43.727,26.196 C 48.379,25.289 46.656,26.845 48.549,23.02 C 50.461,21.175 53.151,20.96 53.99,16.162 C 54.078,15.656 53.83,14.615 53.523,14.203 C 51.611,11.642 49.35,10.831 45.202,10.218 C 38.248,12.357 38.058,12.406 38.058,18.786 C 38.058,20.175 38.764,20.941 40.149,21.054 C 44.958,21.446 45.666,20.993 48.658,18 L 50.483,17.794 C 53.898,17.014 52.852,11.796 49.453,12.643 L 46.222,13.449 C 44.485,15.185 43.31,16.745 40.518,16.518 C 39.134,16.405 42.609,20.175 42.609,18.786 C 42.609,15.773 42.293,16.173 45.578,15.163 C 47.891,15.505 48.382,15.816 49.448,17.245 C 49.756,17.657 49.07,14.78 48.981,15.286 C 48.415,18.525 46.555,19.373 45.264,20.619 C 44.459,22.246 44.986,22.115 43.007,22.5 C 42.303,22.638 45.304,23.795 44.875,23.221 C 43.16,20.927 44.656,22.261 44.031,19.758 C 43.39,17.195 41.016,16.937 39.839,19.301 C 37.473,24.051 37.103,19.094 41.597,15.724 C 42.946,14.713 41.429,12.69 40.081,13.702 Z" fill="#337f00" marker-start="none" marker-end="none"/>
     <path d="M 11.525,103.826 C 10.99,103.262 11.199,102.615 11.633,102.023 C 13.347,99.692 16.599,97.654 19.011,96.288 C 19.272,96.14 19.05,95.749 18.789,95.897 C 16.117,97.411 11.381,97.861 9.481,100.443 C 8.229,102.155 8.044,104.035 9.589,105.663 C 10.813,106.953 12.75,105.116 11.525,103.826 Z" fill="#b24c00" marker-start="none" marker-end="none"/>
     <path d="M 6.145,93.736 C 5.827,95.841 6.2,96.844 7.471,97.836 C 9.041,98.778 10.546,99.495 12.744,99.747 C 14.391,99.498 15.608,98.391 16.696,97.738 C 17.354,97.343 16.762,96.355 16.103,96.75 C 15.188,97.3 14.083,96.892 12.696,97.101 C 10.961,96.903 10.219,96.384 8.979,95.641 C 8.45,95.227 8.207,94.943 8.34,94.067 C 8.56,92.604 6.366,92.273 6.145,93.736 Z" fill="#b24c00" marker-start="none" marker-end="none"/>
     <path d="M 5.464,100.852 C 8.736,100.65 11.216,100.135 13.706,99.295 L 14.256,98.063 C 14.426,97.607 14.358,97.529 13.88,97.437 L 12.745,97.216 C 10.399,98.007 8.452,99.119 5.368,99.31 C 4.34,99.374 4.436,100.916 5.464,100.852 Z" fill="#b24c00" marker-start="none" marker-end="none"/>
     <path d="M 9.54,105.576 C 8.922,105.112 8.902,104.248 8.825,103.115 C 9.442,100.002 11.043,99.389 13.323,98.289 C 13.593,98.159 13.398,97.754 13.128,97.885 C 10.632,99.088 8.639,99.653 7.963,103.06 C 8.055,104.406 8.536,105.384 9.27,105.936 C 9.51,106.115 9.78,105.756 9.54,105.576 Z" fill="#e5664c" marker-start="none" marker-end="none"/>
     <path d="M 4.224,99.709 C 5.185,101.02 6.945,100.406 8.693,100.668 C 9.027,100.719 9.102,100.219 8.768,100.168 C 7.145,99.925 5.479,100.66 4.586,99.443 C 4.409,99.201 4.046,99.467 4.224,99.709 Z" fill="#e5664c" marker-start="none" marker-end="none"/>
     <path d="M 7.403,93.242 L 6.396,94.048 L 6.013,95.743 C 6.317,97.655 7.1,98.239 8.435,98.967 C 8.747,99.137 9.002,98.669 8.69,98.499 C 7.552,97.878 7.044,97.397 6.786,95.767 L 7.077,94.429 L 7.755,93.605 C 7.969,93.345 7.667,93.031 7.403,93.242 Z" fill="#e5664c" marker-start="none" marker-end="none"/>
     <path d="M 15.805,81.815 C 15.99,81.937 16.145,82.124 16.267,82.431 C 16.483,82.97 16.977,82.975 17.203,82.44 C 17.545,81.632 18.21,81.29 18.365,80.42 C 18.586,79.185 17.137,78.576 16.604,79.711 L 16.082,80.824 C 15.775,81.48 17.768,81.341 17.341,80.757 L 16.563,79.692 C 16.067,79.012 15.463,79.094 15.115,79.859 L 14.647,80.89 C 14.244,81.777 16.429,81.978 16.186,81.034 L 15.749,79.337 C 15.515,78.429 14.727,78.126 14.295,78.959 L 13.502,80.49 L 12.998,80.788 L 12.419,80.495 C 11.829,80.314 11.519,81.062 12.065,81.351 L 12.848,81.767 C 13.049,81.873 13.238,81.872 13.386,81.699 L 13.961,81.019 L 15.527,80.191 C 16.211,79.831 13.845,79.074 14.073,79.812 L 14.591,81.486 C 14.873,82.395 15.673,82.466 16.13,81.631 L 16.673,80.638 C 17.053,79.945 14.681,80.232 15.225,80.806 L 16.133,81.764 C 16.559,82.214 16.975,82.155 17.391,81.697 L 18.218,80.787 C 19.035,79.887 16.671,78.882 16.457,80.079 C 16.325,80.817 16.561,81.361 16.271,82.047 C 16.045,82.581 17.422,82.594 17.207,82.056 C 16.992,81.52 16.642,81.258 16.32,81.043 C 15.805,80.701 15.291,81.472 15.805,81.815 Z" fill="#e5664c" marker-start="none" marker-end="none"/>
     <path d="M 19.536,61.179 C 20.218,62.79 20.302,65.519 20.029,67.677 L 19.969,68.822 C 19.832,69.196 19.802,70.578 19.319,70.42 C 18.315,70.022 17.088,67.941 17.724,66.669 C 18.134,65.85 15.13,66.755 15.925,67.212 C 16.943,67.796 17.264,68.516 17.698,69.599 C 18.396,71.694 17.982,68.465 18.913,70.693 C 18.98,70.854 19.195,71.05 19.361,71.101 C 21.087,71.639 22.679,72.163 24.377,72.588 C 24.563,72.649 24.715,72.471 24.6,72.625 C 24.36,72.948 25.896,72.536 25.527,72.377 C 24.477,71.922 23.713,71.525 22.663,71.114 C 21.763,70.464 21.14,70.066 20.104,69.462 C 19.543,69.134 19.137,69.326 19.035,69.968 C 18.78,71.577 18.122,72.12 17.454,73.013 C 16.982,73.393 16.5,73.775 15.63,73.893 C 15.022,73.975 16.36,75.352 16.428,74.743 L 16.594,73.254 C 17.632,72.482 18.205,72.218 19.402,71.712 C 20.454,71.268 19.788,69.689 18.735,70.133 C 17.401,70.696 16.687,71.721 15.531,72.581 L 15.023,74.462 C 14.883,75.084 15.19,75.398 15.821,75.313 C 17.032,75.149 17.966,74.714 18.652,74.158 C 19.48,73.023 20.143,72.125 20.45,70.192 C 20.552,69.551 18.821,70.372 19.382,70.699 C 20.373,71.277 20.867,72.081 21.775,72.742 C 22.861,73.159 23.883,73.349 24.914,73.795 C 25.283,73.955 25.6,73.869 25.841,73.546 C 27.251,71.647 27.332,71.03 25.052,70.27 C 23.364,69.848 21.503,70.268 19.787,69.733 C 19.621,69.681 20.302,70.301 20.235,70.141 C 19.388,68.115 21.075,70.5 20.439,68.595 C 19.748,66.866 18.837,65.904 17.212,64.971 C 16.418,64.514 15.822,64.694 15.413,65.513 C 14.305,67.728 17.067,71.084 18.818,71.762 C 19.741,72.095 20.55,69.736 20.809,69.034 L 21.086,67.82 C 21.376,65.535 20.673,62.71 19.949,61.003 C 19.833,60.727 19.419,60.903 19.536,61.179 Z" fill="#b24c00" marker-start="none" marker-end="none"/>
     <path d="M 15.793,75.75 C 16.855,75.451 17.541,75.376 18.304,74.779 C 19.244,73.839 19.114,72.318 19.616,71.003 C 19.722,70.723 19.302,70.563 19.195,70.843 C 18.77,71.961 17.598,72.309 16.799,73.073 C 16.297,73.479 16.069,73.863 15.321,74.073 C 14.203,74.388 14.675,76.064 15.793,75.75 Z" fill="#e5664c" marker-start="none" marker-end="none"/>
     <path d="M 21.779,70.301 C 23.586,69.954 25.002,69.714 26.041,71.124 C 25.843,73.893 26.604,69.841 26.208,72.355 C 26.132,72.836 26.854,72.949 26.929,72.468 C 27.349,69.801 27.224,73.659 27.434,70.721 C 26.108,68.922 23.999,69.417 21.695,69.859 C 21.401,69.916 21.485,70.357 21.779,70.301 Z" fill="#e5664c" marker-start="none" marker-end="none"/>
     <path d="M 16.342,65.978 C 15.863,66.937 15.721,67.635 15.901,68.864 C 16.451,69.965 17.306,70.624 18.53,70.808 C 18.826,70.852 18.892,70.408 18.596,70.363 C 17.571,70.209 17.027,69.55 16.57,68.653 C 16.42,67.612 16.375,67.044 16.794,66.204 C 16.945,65.903 16.493,65.677 16.342,65.978 Z" fill="#e5664c" marker-start="none" marker-end="none"/>
     <path d="M 19.279,68.502 C 19.878,66.905 20.108,65.421 20.108,63.254 C 20.108,62.955 19.658,62.955 19.658,63.254 C 19.658,65.356 19.439,66.795 18.858,68.344 C 18.753,68.624 19.174,68.782 19.279,68.502 Z" fill="#e5664c" marker-start="none" marker-end="none"/>
     <path d="M 17.4,39.309 C 17.979,43.444 17.021,46.699 18.12,50.024 C 20.201,54.299 23.663,58.89 25.632,62.827 C 26.648,63.898 28.618,64.209 29.168,65.665 C 29.273,65.945 29.694,65.786 29.588,65.506 C 28.963,63.851 29.336,62.259 28.18,61.04 C 26.216,57.113 23.104,53.107 21.028,48.842 C 19.977,45.66 18.593,43.176 18.04,39.219 C 17.981,38.793 17.34,38.882 17.4,39.309 Z" fill="#b24c00" marker-start="none" marker-end="none"/>
     <path d="M 16.069,39.822 C 17.664,44.635 18.017,46.363 19.988,49.552 C 21.377,51.663 19.914,49.346 21.246,51.456 C 22.219,53.813 24.569,55.839 26.012,57.754 C 26.985,58.922 27.563,59.55 28.481,60.718 C 30.065,63.051 32.584,63.698 34.197,65.887 C 34.375,66.129 34.737,65.862 34.559,65.621 C 32.993,63.496 32.149,61.425 30.612,59.161 C 29.676,57.969 29.073,57.305 28.08,56.113 C 26.771,54.376 24.739,52.245 23.857,50.107 C 22.493,47.947 23.895,50.125 22.475,47.966 C 20.625,44.974 19.912,43.559 18.416,39.044 C 17.897,37.48 15.551,38.257 16.069,39.822 Z" fill="#b24c00" marker-start="none" marker-end="none"/>
     <path d="M 18.399,41.578 C 20.094,45.313 20.679,48.393 23.064,51.38 C 24.686,52.921 27.603,55.37 29.005,57.35 C 31.911,59.088 33.581,60.629 37.684,61.313 C 37.979,61.362 38.054,60.919 37.758,60.87 C 33.754,60.202 32.924,57.876 30.088,56.18 C 28.623,54.112 26.431,51.454 24.737,49.845 C 22.446,46.976 20.692,44.864 19.064,41.276 C 18.863,40.833 18.198,41.135 18.399,41.578 Z" fill="#b24c00" marker-start="none" marker-end="none"/>
     <path d="M 21.924,47.268 C 26.086,51.029 29.796,56.888 35.48,58.783 C 36.719,58.979 38.985,59.232 40.309,59.429 C 40.914,59.227 41.497,59.013 42.127,58.938 C 48.342,58.51 53.853,56.799 55.69,52.33 C 55.894,51.313 55.738,50.545 55.602,49.595 C 55.369,47.964 52.922,48.313 53.155,49.945 C 53.245,50.572 53.202,50.865 53.067,51.537 C 51.532,55.271 47.159,56.874 41.966,57.233 C 41.186,57.326 40.882,57.165 40.133,57.415 C 38.816,57.219 37.205,56.966 35.973,56.77 C 30.522,54.953 26.216,50.541 22.225,46.935 C 22.002,46.734 21.701,47.068 21.924,47.268 Z" fill="#b24c00" marker-start="none" marker-end="none"/>
     <path d="M 23.368,55.557 C 25.198,58.725 26.993,60.794 27.649,64.754 C 27.851,65.973 29.68,65.67 29.478,64.451 C 28.782,60.249 25.699,58.694 23.758,55.332 C 23.608,55.073 23.219,55.298 23.368,55.557 Z" fill="#e5664c" marker-start="none" marker-end="none"/>
     <path d="M 25.551,57.411 C 26,57.973 26.132,58.497 26.554,59.06 C 27.329,59.862 27.688,60.511 28.169,61.5 C 28.885,62.454 29.741,62.998 30.846,63.554 C 31.342,64.051 31.593,64.34 32.144,64.745 L 33.036,65.417 L 33.737,65.774 C 34.205,66.011 34.551,65.255 34.064,65.06 L 33.416,64.8 L 32.623,64.122 C 32.107,63.742 31.763,63.451 31.274,62.962 C 30.27,62.46 29.586,61.843 28.961,61.017 C 28.441,59.951 28.099,59.331 27.259,58.458 C 26.836,57.905 26.358,57.7 25.901,57.13 C 25.714,56.896 25.363,57.177 25.551,57.411 Z" fill="#e5664c" marker-start="none" marker-end="none"/>
     <path d="M 27.935,56.954 C 29.457,57.94 30.275,58.628 31.853,59.558 C 32.812,60.263 33.634,60.445 34.621,61.15 C 35.507,61.298 36.053,61.5 36.939,61.382 C 37.552,61.3 37.429,60.381 36.817,60.463 C 36.01,60.57 35.585,60.796 34.813,60.682 C 33.859,60.005 33.192,59.672 32.239,58.972 C 30.67,58.048 29.693,57.557 28.18,56.576 C 27.928,56.413 27.684,56.791 27.935,56.954 Z" fill="#e5664c" marker-start="none" marker-end="none"/>
     <path d="M 32.444,55.951 C 36.815,58.335 40.306,58.148 46.067,57.325 C 46.364,57.282 46.3,56.837 46.004,56.879 C 40.361,57.686 36.94,57.891 32.66,55.556 C 32.397,55.413 32.181,55.807 32.444,55.951 Z" fill="#e5664c" marker-start="none" marker-end="none"/>
     <path d="M 48.828,56.615 C 52.031,54.499 52.837,54.805 53.601,50.985 C 53.629,50.141 53.395,49.619 53.451,48.776 C 53.474,48.44 52.969,48.406 52.947,48.742 C 52.89,49.599 52.545,50.002 52.516,50.859 C 51.819,54.348 51.505,54.308 48.581,56.24 C 48.33,56.405 48.578,56.781 48.828,56.615 Z" fill="#e5664c" marker-start="none" marker-end="none"/>
     <path d="M 26.184,35.674 C 27.063,38.751 28.175,39.871 31.135,40.839 C 32.971,41.149 34.341,41.701 35.924,41.843 C 37.329,41.968 35.253,38.324 34.644,39.597 C 34.335,40.242 34.139,41.225 33.802,41.926 C 32.895,43.817 35.731,45.179 36.639,43.288 C 36.977,42.585 37.173,41.601 37.483,40.954 C 38.092,39.681 37.609,38.834 36.204,38.709 C 34.55,38.561 33.248,40.375 31.329,40.05 C 28.613,39.162 27.423,38.374 26.616,35.551 C 26.534,35.262 26.102,35.386 26.184,35.674 Z" fill="#b24c00" marker-start="none" marker-end="none"/>
     <path d="M 37.679,39.601 C 37.679,36.815 37.371,35.721 38.607,34.118 C 38.824,33.836 38.401,33.511 38.184,33.792 C 36.753,35.649 35.404,36.375 35.404,39.601 C 35.404,41.118 37.679,41.118 37.679,39.601 Z" fill="#b24c00" marker-start="none" marker-end="none"/>
     <path d="M 36.541,41.231 C 37.275,41.231 37.514,41.468 37.923,41.662 C 38.31,41.957 38.505,42.078 38.801,42.464 C 39.733,43.684 41.563,42.284 40.63,41.065 C 40.194,40.494 39.774,39.999 39.203,39.563 C 38.538,39.248 37.732,39.321 36.541,39.321 C 35.268,39.321 35.267,41.231 36.541,41.231 Z" fill="#b24c00" marker-start="none" marker-end="none"/>
     <path d="M 35.331,40.977 C 34.759,41.899 33.548,42.406 33.453,43.867 C 33.373,45.1 35.223,45.221 35.303,43.988 C 35.379,42.813 35.325,42 35.785,41.259 C 35.972,40.957 35.519,40.675 35.331,40.977 Z" fill="#b24c00" marker-start="none" marker-end="none"/>
     <path d="M 23.717,15.532 C 22.676,16.299 21.846,16.526 20.64,17.074 C 19.391,17.699 18.585,18.172 17.421,18.854 C 16.741,19.533 16.343,20.115 15.811,20.854 C 14.3,22.869 11.837,26.864 14.059,29.738 C 14.242,29.976 14.598,29.701 14.415,29.464 C 12.415,26.877 15.629,23.531 16.988,21.718 C 17.468,21.053 17.796,20.651 18.367,20.074 C 19.447,19.422 19.923,18.751 21.148,18.139 C 22.422,17.559 22.983,16.84 24.083,16.029 C 24.415,15.785 24.048,15.287 23.717,15.532 Z" fill="#b24c00" marker-start="none" marker-end="none"/>
     <path d="M 18.335,18.746 C 16.184,20.311 15.989,20.357 14.536,21.335 C 13.542,21.861 13.286,22.151 12.437,22.765 C 11.401,23.857 11.034,24.393 10.054,25.429 C 9.809,25.687 10.197,26.054 10.442,25.796 C 11.442,24.738 12.304,24.865 13.341,23.803 C 14.086,23.264 14.37,23.071 15.286,22.586 C 16.755,21.597 16.953,21.419 19.128,19.837 C 19.855,19.308 19.062,18.218 18.335,18.746 Z" fill="#b24c00" marker-start="none" marker-end="none"/>
     <path d="M 8.167,26.147 C 9.777,29.368 5.287,31.842 7.209,35.712 C 7.343,35.981 7.745,35.781 7.612,35.512 C 5.355,30.969 12.871,28.521 10.981,24.74 C 10.043,22.864 7.228,24.271 8.167,26.147 Z" fill="#b24c00" marker-start="none" marker-end="none"/>
     <path d="M 10.279,24.043 C 7.266,24.253 5.925,25.762 4.629,27.514 C 3.382,29.199 5.911,31.071 7.158,29.385 C 7.941,28.328 8.679,27.308 10.498,27.181 C 12.59,27.036 12.371,23.897 10.279,24.043 Z" fill="#b24c00" marker-start="none" marker-end="none"/>
     <path d="M 12.045,23.706 C 11.552,23.448 11.451,23.198 11.029,22.869 C 10.563,22.525 10.331,22.513 9.914,22.097 C 8.767,19.765 6.392,20.254 4.748,21.973 C 4.541,22.19 4.866,22.501 5.073,22.284 C 5.901,21.418 6.97,22.616 7.548,23.79 C 8.087,24.33 8.533,24.932 9.118,25.368 C 9.711,25.828 10.059,25.806 10.754,26.169 C 12.397,27.03 13.687,24.566 12.045,23.706 Z" fill="#b24c00" marker-start="none" marker-end="none"/>
     <path d="M 11.411,24.078 C 10.568,23.516 9.519,22.714 8.114,22.609 C 6.73,22.609 6.021,23.798 5.211,24.136 C 4.554,24.41 4.965,25.395 5.621,25.121 C 6.246,24.861 6.955,25.604 7.982,25.639 C 8.817,25.703 9.529,25.794 10.04,26.135 C 11.411,27.049 12.782,24.992 11.411,24.078 Z" fill="#b24c00" marker-start="none" marker-end="none"/>
     <path d="M 49.673,19.007 C 51.735,19.403 52.448,20.357 53.505,21.784 C 53.92,22.614 54.147,23.329 54.147,24.573 C 53.737,26.026 54.443,24.786 53.84,26.019 C 53.708,26.288 54.112,26.486 54.244,26.217 C 54.885,24.904 54.51,26.23 54.947,24.685 C 54.947,23.227 55.064,22.097 54.578,21.125 C 53.383,19.511 52.091,19.014 49.758,18.565 C 49.464,18.509 49.379,18.95 49.673,19.007 Z" fill="#b24c00" marker-start="none" marker-end="none"/>
     <path d="M 54.048,23.908 C 51.396,23.315 50.769,22.99 48.675,24.036 C 46.799,24.975 48.206,27.789 50.082,26.851 C 51.361,26.212 51.742,26.616 53.361,26.979 C 55.408,27.436 56.095,24.366 54.048,23.908 Z" fill="#b24c00" marker-start="none" marker-end="none"/>
     <path d="M 52.803,24.403 C 51.864,26.281 52.178,27.946 50.908,29.575 C 50.424,30.196 51.355,30.921 51.838,30.301 C 53.192,28.565 54.617,27.811 55.617,25.81 C 56.555,23.934 53.741,22.527 52.803,24.403 Z" fill="#b24c00" marker-start="none" marker-end="none"/>
     <path d="M 52.768,24.524 C 53.282,27.718 55.993,29.147 58.526,26.614 C 58.738,26.402 58.421,26.084 58.209,26.296 C 56.804,27.7 55.937,25.831 55.652,24.06 C 55.343,22.137 52.459,22.601 52.768,24.524 Z" fill="#b24c00" marker-start="none" marker-end="none"/>
     <path d="M 34.292,44.811 C 35.595,44.295 35.728,44.354 36.425,43.445 C 36.537,42.882 36.605,42.416 36.718,41.825 C 36.799,41.402 36.164,41.281 36.083,41.704 C 35.971,42.294 35.798,42.599 35.684,43.107 C 35.147,43.824 35.246,43.95 34.127,44.392 C 33.848,44.503 34.013,44.921 34.292,44.811 Z" fill="#e5664c" marker-start="none" marker-end="none"/>
     <path d="M 37.258,41.473 C 38.07,42.024 38.858,42.655 40.019,42.829 C 40.315,42.874 40.382,42.429 40.086,42.385 C 38.999,42.222 38.27,41.617 37.51,41.101 C 37.262,40.933 37.01,41.305 37.258,41.473 Z" fill="#e5664c" marker-start="none" marker-end="none"/>
     <path d="M 35.951,38.787 C 35.951,36.745 37.103,35.676 37.92,34.589 C 37.922,34.585 38.403,33.925 38.403,33.925 C 38.58,33.683 38.242,33.418 38.05,33.648 L 37.52,34.279 C 36.651,35.437 35.502,36.615 35.502,38.787 C 35.502,39.086 35.951,39.086 35.951,38.787 Z" fill="#e5664c" marker-start="none" marker-end="none"/>
     <path d="M 7.376,35.769 C 6.174,34.881 7.147,35.634 6.663,34.697 C 6.637,34.234 6.624,33.94 6.651,33.445 C 6.651,33.445 6.472,31.716 6.456,31.477 C 6.668,30.585 6.8,30.245 7.284,29.573 C 7.779,28.775 8.181,28.203 8.731,27.626 L 9.542,26.97 C 9.775,26.782 9.511,26.437 9.268,26.614 L 8.394,27.251 C 7.821,27.853 7.378,28.463 6.864,29.291 C 6.341,30.019 6.244,30.433 6.009,31.429 C 6.009,31.543 6.131,33.247 6.146,33.452 C 6.118,33.96 6.12,34.324 6.149,34.841 C 6.781,36.014 5.724,35.107 7.109,36.13 C 7.35,36.308 7.617,35.947 7.376,35.769 Z" fill="#e5664c" marker-start="none" marker-end="none"/>
     <path d="M 5.47,28.751 C 5.263,27.457 5.742,26.916 6.363,26.088 L 7.479,25.269 C 7.915,24.945 7.451,24.296 7.006,24.606 L 5.762,25.473 C 5.031,26.446 4.782,27.301 5.026,28.822 C 5.073,29.118 5.517,29.047 5.47,28.751 Z" fill="#e5664c" marker-start="none" marker-end="none"/>
     <path d="M 51.756,30.622 C 51.05,29.672 52.107,28.639 52.813,27.69 C 53.466,26.709 53.178,26.515 53.967,25.698 C 54.306,25.347 53.78,24.839 53.442,25.19 C 52.583,26.078 52.33,25.783 51.619,26.849 C 50.681,28.111 50.389,29.679 51.328,30.94 C 51.54,31.226 51.968,30.907 51.756,30.622 Z" fill="#e5664c" marker-start="none" marker-end="none"/>
     <path d="M 49.125,26.047 C 49.758,24.646 49.638,24.942 50.993,24.557 C 51.628,24.527 51.842,24.221 52.476,24.1 C 53.12,23.978 52.936,23.012 52.292,23.135 C 51.725,23.243 51.309,22.988 50.741,23.015 C 48.723,23.587 48.889,23.429 47.947,25.515 C 47.592,26.3 48.77,26.832 49.125,26.047 Z" fill="#e5664c" marker-start="none" marker-end="none"/>
     <path d="M 36.878,17.957 L 36.112,18.267 C 35.622,18.879 35.417,19.846 35.355,21.01 C 36.13,22.064 35.595,21.502 36.618,21.874 C 36.795,21.938 36.538,21.333 36.469,21.508 L 36.187,22.226 C 36.277,24.125 37.533,24.816 39.07,25.147 C 40.292,24.505 40.365,24.652 40.885,23.613 C 41.102,23.177 40.449,22.85 40.231,23.286 C 39.794,24.16 40.041,24.189 39.012,24.729 C 37.684,24.442 36.693,23.953 36.614,22.313 L 36.95,21.738 C 37.047,21.563 36.989,21.441 36.801,21.372 C 35.968,21.07 36.349,21.642 35.787,20.882 C 35.858,19.954 36.276,19.484 36.689,18.968 L 37.216,18.604 C 37.616,18.327 37.329,17.773 36.878,17.957 Z" fill="#e5664c" marker-start="none" marker-end="none"/>
     <path d="M 41.503,24.547 C 42.215,26.243 42.555,26.709 43.81,25.759 L 44.328,25.656 C 46.006,26.495 46.459,26.733 46.933,24.764 C 47.041,24.314 45.709,24.954 46.128,25.15 C 48.534,26.28 48.487,25.051 48.852,22.499 L 49.396,21.834 C 49.492,21.705 49.582,21.52 49.514,21.374 L 48.97,20.209 C 50.559,18.841 50.588,18.101 49.221,16.807 C 48.531,16.658 47.577,16.934 46.888,16.904 C 46.589,16.891 46.569,17.34 46.869,17.353 C 47.518,17.382 47.875,17.983 48.526,18.124 C 49.249,18.808 49.279,19.281 48.439,20.004 L 48.291,21.305 L 47.714,22.039 C 47.512,23.458 47.955,24.736 46.618,24.108 C 46.199,23.911 45.921,24.044 45.813,24.494 C 45.554,25.571 45.346,25.69 44.429,25.231 L 43.598,25.128 C 42.775,25.751 42.384,25.487 41.917,24.374 C 41.801,24.097 41.387,24.271 41.503,24.547 Z" fill="#e5664c" marker-start="none" marker-end="none"/>
     <path d="M 39.052,19.774 C 38.672,20.533 38.253,20.964 37.766,21.615 C 37.305,22.229 38.226,22.92 38.687,22.306 C 39.215,21.602 39.294,20.922 39.705,20.101 C 39.923,19.665 39.269,19.339 39.052,19.774 Z" fill="#e5664c" marker-start="none" marker-end="none"/>
     <path d="M 40.335,20.668 L 40.504,22.832 C 40.579,23.802 42.036,23.689 41.961,22.718 L 41.792,20.555 C 41.716,19.584 40.26,19.698 40.335,20.668 Z" fill="#e5664c" marker-start="none" marker-end="none"/>
     <path d="M 43.037,21.238 C 43.427,21.852 43.53,22.35 43.865,22.963 C 44.116,23.424 44.806,23.047 44.555,22.587 C 44.213,21.959 43.815,21.624 43.416,20.997 C 43.256,20.744 42.876,20.986 43.037,21.238 Z" fill="#e5664c" marker-start="none" marker-end="none"/>
     <path d="M 44.921,20.03 L 45.809,20.603 L 46.541,20.598 C 46.972,20.579 46.972,19.956 46.541,19.952 L 45.982,19.947 L 45.184,19.565 C 44.863,19.411 44.622,19.836 44.921,20.03 Z" fill="#e5664c" marker-start="none" marker-end="none"/>
     <path d="M 62.141,21.717 C 63.394,22.344 62.361,22.065 63.314,22.767 C 66.096,26.029 71.278,31.58 68.572,37.018 C 68.385,37.605 68.491,37.991 68.304,38.472 C 67.659,40.13 70.147,41.097 70.791,39.439 C 71.003,38.894 71.267,38.861 71.479,38.196 C 74.786,31.552 68.844,24.466 65.444,20.48 C 64.231,19.586 64.843,20.305 63.246,19.506 C 61.772,18.769 60.667,20.981 62.141,21.717 Z" fill="#b24c00" marker-start="none" marker-end="none"/>
     <path d="M 64.361,22.488 C 65.798,24.377 66.474,26.1 67.884,27.932 C 68.931,30.027 69.586,31.173 70.837,33.005 C 72.556,37.304 75.462,38.814 77.325,42.539 C 77.459,42.807 77.861,42.606 77.727,42.338 C 75.913,38.71 75.271,35.72 73.596,31.534 C 72.432,29.827 71.513,28.22 70.538,26.27 C 69.123,24.43 67.19,23.329 65.746,21.433 C 65.043,20.509 63.657,21.564 64.361,22.488 Z" fill="#b24c00" marker-start="none" marker-end="none"/>
     <path d="M 66.778,24.693 C 68.814,26.366 70.079,29.041 71.919,30.882 C 74.857,33.821 77.012,35.487 81.493,36.506 C 81.785,36.572 81.885,36.134 81.593,36.067 C 77.353,35.104 76.924,31.438 74.143,28.657 C 72.265,26.779 70.069,24.925 67.992,23.217 C 67.008,22.408 65.795,23.884 66.778,24.693 Z" fill="#b24c00" marker-start="none" marker-end="none"/>
     <path d="M 71.743,31.465 C 72.727,32.218 72.944,33.201 73.986,33.896 C 75.607,34.891 77.223,35.257 78.93,36.11 C 79.495,36.223 79.857,36.433 80.45,36.546 C 81.021,36.655 81.183,35.799 80.613,35.69 C 80.025,35.579 79.716,35.564 79.155,35.452 C 77.483,34.615 76.363,33.642 74.773,32.666 C 73.768,31.996 72.966,31.834 72.016,31.108 C 71.778,30.926 71.505,31.283 71.743,31.465 Z" fill="#e5664c" marker-start="none" marker-end="none"/>
     <path d="M 70.164,31.224 C 71.198,33.154 71.837,34.281 71.728,37.054 C 71.465,38.739 71.23,39.694 70.229,40.432 C 69.988,40.61 70.255,40.971 70.496,40.794 C 71.635,39.954 72.406,39.067 72.705,37.149 C 72.821,34.187 71.664,33.073 70.56,31.012 C 70.419,30.748 70.023,30.96 70.164,31.224 Z" fill="#e5664c" marker-start="none" marker-end="none"/>
     <path d="M 72.822,36.033 C 73.162,36.883 73.436,37.495 73.804,38.232 C 74.497,39.619 75.284,40.717 76.584,41.613 C 76.831,41.782 77.086,41.412 76.839,41.242 C 75.61,40.396 74.936,39.303 74.281,37.993 C 73.919,37.269 73.574,36.702 73.24,35.866 C 73.128,35.588 72.711,35.755 72.822,36.033 Z" fill="#e5664c" marker-start="none" marker-end="none"/>
     <path d="M 71.307,17.821 C 73.495,18.503 77.529,18.957 80.398,18.502 C 80.694,18.456 80.624,18.011 80.328,18.058 C 77.523,18.503 73.579,18.058 71.441,17.392 C 71.155,17.302 71.021,17.732 71.307,17.821 Z" fill="#b24c00" marker-start="none" marker-end="none"/>
     <path d="M 81.635,17.015 C 79.893,15.728 78.687,14.64 78.081,12.242 C 78.007,11.952 77.571,12.061 77.645,12.352 C 78.409,15.374 77.57,17.923 79.765,19.545 C 81.452,20.792 83.322,18.262 81.635,17.015 Z" fill="#b24c00" marker-start="none" marker-end="none"/>
     <path d="M 79.315,17.547 C 79.736,20.158 81.284,21.765 82.514,23.415 C 82.693,23.655 83.054,23.387 82.875,23.146 C 81.749,21.636 82.806,19.437 82.422,17.047 C 82.089,14.976 78.982,15.476 79.315,17.547 Z" fill="#b24c00" marker-start="none" marker-end="none"/>
     <path d="M 81.325,19.838 C 84.392,20.266 84.506,17.482 85.646,15.557 C 85.759,15.08 85.807,14.652 85.919,14.174 C 85.988,13.883 85.55,13.78 85.482,14.071 C 85.369,14.551 85.188,14.87 85.074,15.324 C 84.393,16.456 83.605,16.98 81.76,16.722 C 79.683,16.432 79.248,19.549 81.325,19.838 Z" fill="#b24c00" marker-start="none" marker-end="none"/>
     <path d="M 92.673,29.347 C 97.574,29.828 101.437,29.811 103.302,26.624 C 103.802,25.937 103.997,25.412 104.31,24.599 C 104.72,23.533 103.12,22.918 102.71,23.984 C 102.461,24.633 102.151,25.062 101.752,25.611 C 100.129,28.385 96.982,29.319 92.717,28.9 C 92.418,28.871 92.375,29.318 92.673,29.347 Z" fill="#b24c00" marker-start="none" marker-end="none"/>
     <path d="M 79.691,19.163 C 79.9,21.867 80.233,22.569 82.427,23.651 C 82.695,23.783 82.894,23.38 82.625,23.247 C 80.711,22.304 80.882,21.444 80.698,19.084 C 80.646,18.412 79.638,18.49 79.691,19.163 Z" fill="#e5664c" marker-start="none" marker-end="none"/>
     <path d="M 79.68,17.385 C 78.411,16.407 77.582,14.819 77.582,12.466 C 77.582,12.166 77.133,12.166 77.133,12.466 C 77.133,15.116 77.651,17.062 79.08,18.164 C 79.599,18.564 80.199,17.785 79.68,17.385 Z" fill="#e5664c" marker-start="none" marker-end="none"/>
     <path d="M 82.976,19.163 C 85.561,18.387 85.339,19.225 86.502,17.803 C 86.744,17.288 86.904,16.787 87.085,16.242 C 87.476,15.07 85.717,14.483 85.326,15.656 C 85.171,16.122 85.106,16.351 84.899,16.791 C 84.015,17.872 84.714,17.82 82.75,18.409 C 82.248,18.56 82.474,19.313 82.976,19.163 Z" fill="#e5664c" marker-start="none" marker-end="none"/>
     <path d="M 13.698,66.359 C 14.995,68.992 17.535,68.386 17.495,65.4 C 17.466,64.175 16.858,63.396 16.683,62.288 C 16.427,60.666 16.671,57.886 16.357,56.434 C 15.746,47.874 12.369,43.176 14.231,34.615 C 14.606,32.902 15.192,31.416 15.915,30.104 C 17.915,25.271 20.1,21.966 23.044,18.272 C 23.946,17.596 23.734,18.011 24.579,17.42 C 24.953,16.647 24.734,16.614 25.507,16.14 C 25.762,15.984 25.527,15.601 25.272,15.757 C 24.287,16.361 24.297,15.973 23.873,16.819 C 23.156,17.344 23.648,17.266 22.734,17.952 C 19.718,21.735 16.573,24.486 14.525,29.435 C 13.73,30.876 12.969,32.368 12.557,34.25 C 10.655,42.996 13.458,48.013 14.083,56.759 C 14.388,58.173 14.518,61.01 14.768,62.59 C 14.931,63.618 15.615,64.298 15.642,65.434 C 15.659,66.735 14.666,67.307 14.101,66.16 C 13.969,65.892 13.566,66.09 13.698,66.359 Z" fill="#ccff7f" marker-start="none" marker-end="none"/>
     <path d="M 93.655,26.984 C 94.967,26.178 97.598,26.555 98.732,25.72 C 100.374,24.513 101.329,20.929 101.161,18.515 C 101.024,16.554 99.219,16.49 99.356,18.452 C 99.469,20.095 98.451,22.998 97.333,23.819 C 96.293,24.585 94.624,25.862 93.42,26.6 C 93.165,26.757 93.4,27.14 93.655,26.984 Z" fill="#ccff7f" marker-start="none" marker-end="none"/>
     <path d="M 15.154,123.519 C 14.799,123.628 14.172,123.485 13.681,123.54 C 11.628,123.698 10.37,122.945 9.16,122.103 C 8.095,121.038 7.554,120.456 7.048,118.806 C 6.964,117.976 6.916,117.525 6.888,116.695 C 6.112,111.526 8.586,108.65 11.103,106.133 C 12.914,104.322 14.093,102.012 16.267,100.536 C 17.762,99.414 19.625,98.539 20.779,97.353 C 21.54,96.724 21.378,95.715 22.209,95.092 C 22.449,94.912 22.179,94.553 21.939,94.733 C 21.156,95.32 20.455,95.534 19.671,96.121 C 18.566,97.282 17.295,98.886 15.859,99.964 C 13.644,101.469 11.856,103.195 10.011,105.041 C 7.245,107.806 5.058,111.107 5.91,116.784 C 5.939,117.639 6.003,118.143 6.088,118.999 C 6.65,120.832 7.456,121.542 8.639,122.725 C 10.013,123.681 11.452,124.782 13.781,124.602 C 14.322,124.542 14.896,124.069 15.286,123.949 C 15.572,123.86 15.44,123.431 15.154,123.519 Z" fill="#000000" marker-start="none" marker-end="none"/>
     <path d="M 21.651,112.541 C 20.604,112.128 20.587,111.471 19.815,110.892 C 18.536,108.333 19.428,105.812 20.308,103.44 C 20.881,102.294 21.486,101.176 22.554,100.395 C 23.56,99.035 23.44,99.378 23.973,98.284 C 25.025,96.969 25.215,95.301 25.77,93.664 C 25.867,93.381 25.441,93.236 25.345,93.52 C 24.828,95.043 23.796,96.329 22.816,97.553 C 22.337,98.537 22.42,98.293 21.58,99.424 C 20.415,100.334 20.123,101.742 19.458,103.072 C 18.484,105.699 17.579,108.74 18.996,111.575 C 19.81,112.185 20.382,112.524 21.486,112.96 C 21.765,113.069 21.93,112.651 21.651,112.541 Z" fill="#000000" marker-start="none" marker-end="none"/>
     <path d="M 25.937,93.163 C 26.556,91.448 27.228,90.613 27.875,88.898 C 28.163,88.293 28.333,87.803 28.535,87.17 L 28.912,86.031 C 29.197,85.147 29.289,83.919 29.46,82.949 C 29.517,82.436 29.672,82.12 29.701,81.606 C 29.701,81.015 29.602,80.672 29.602,80.08 C 29.602,79.781 29.153,79.781 29.153,80.08 C 29.153,80.672 29.056,81.003 29.055,81.588 C 29.028,82.084 29.069,82.389 29.015,82.885 C 28.848,83.827 28.491,84.957 28.214,85.816 C 28.214,85.816 27.93,86.929 27.917,86.982 C 27.725,87.582 27.503,88.048 27.229,88.623 C 26.583,90.337 26.133,91.297 25.515,93.01 C 25.413,93.292 25.836,93.445 25.937,93.163 Z" fill="#000000" marker-start="none" marker-end="none"/>
     <path d="M 14.742,79.35 C 13.06,79.35 13.925,78.992 12.426,79.481 C 9.314,81.596 8.206,87.097 11.771,89.755 C 12.011,89.934 12.28,89.574 12.04,89.395 C 8.971,87.107 10.336,82.5 13.014,80.68 C 14.293,80.262 13.307,80.137 14.742,80.137 C 15.267,80.137 15.267,79.35 14.742,79.35 Z" fill="#000000" marker-start="none" marker-end="none"/>
     <path d="M 21.314,87.79 C 24.75,86.433 26.281,82.745 27.465,79.222 C 27.58,78.217 27.44,77.322 27.44,76.26 C 27.44,74.712 27.383,73.575 27.182,72.456 L 26.468,71.169 C 26.302,70.876 25.923,71.021 25.995,71.35 L 26.293,72.704 C 26.485,73.777 26.653,74.774 26.653,76.26 C 26.653,77.281 26.457,78.007 26.347,78.973 C 25.226,82.309 24.402,86.087 21.149,87.372 C 20.87,87.482 21.035,87.9 21.314,87.79 Z" fill="#000000" marker-start="none" marker-end="none"/>
     <path d="M 16.577,65.878 C 15.55,66.648 14.83,65.618 14.713,64.405 C 14.399,61.012 15.968,56.755 15.142,53.362 C 14.936,52.822 14.752,52.344 14.649,51.753 C 13.479,47.964 12.224,45.811 11.75,41.409 C 11.75,40.566 11.806,40.125 11.806,39.282 C 12.222,34.599 13.582,31.62 15.576,28.573 C 15.741,28.322 15.365,28.076 15.2,28.326 C 13.15,31.459 11.42,34.434 10.993,39.247 C 10.993,40.089 11.049,40.603 11.049,41.446 C 11.532,45.926 11.959,48.257 13.15,52.114 C 13.272,52.815 13.425,53.179 13.669,53.82 C 14.473,57.117 13.793,61.165 14.098,64.463 C 14.262,66.174 15.449,67.391 16.897,66.304 C 17.182,66.091 16.861,65.664 16.577,65.878 Z" fill="#000000" marker-start="none" marker-end="none"/>
     <path d="M 17.845,63.643 C 19.895,64.046 20.219,63.715 20.79,61.968 C 20.017,58.075 16.967,56.611 15.421,53.491 C 15.288,53.222 14.886,53.422 15.018,53.69 C 16.508,56.697 18.906,58.148 19.65,61.9 C 19.261,63.091 19.33,63.477 17.932,63.202 C 17.638,63.144 17.551,63.585 17.845,63.643 Z" fill="#000000" marker-start="none" marker-end="none"/>
     <path d="M 24.276,66.341 C 23.451,64.379 23.428,63.678 22.546,62.228 C 22.044,61.475 21.707,61.024 21.235,60.248 C 20.803,59.5 20.297,59.142 19.75,58.451 C 19.564,58.216 19.212,58.495 19.398,58.73 C 19.922,59.392 20.143,59.929 20.556,60.645 C 21.037,61.437 21.374,61.887 21.883,62.65 C 22.744,64.067 23.056,64.599 23.861,66.515 C 23.978,66.791 24.392,66.618 24.276,66.341 Z" fill="#000000" marker-start="none" marker-end="none"/>
     <path d="M 40.928,47.676 C 39.477,44.746 37.607,46.482 34.961,45.601 C 32.828,44.79 30.95,44.443 29.113,43.147 C 25.687,40.737 23.9,32.66 25.935,27.521 C 26.045,27.242 25.627,27.077 25.517,27.355 C 23.28,33.007 24.246,42.059 28.013,44.708 C 30.001,46.111 31.823,47.052 34.132,47.929 C 36.789,48.814 39.068,44.933 40.525,47.876 C 40.658,48.144 41.061,47.945 40.928,47.676 Z" fill="#000000" marker-start="none" marker-end="none"/>
     <path d="M 18.576,26.923 C 18.907,26.467 19.339,26.325 19.873,26.122 C 19.965,26.087 19.43,26.021 19.518,26.068 L 20.25,26.463 C 20.514,26.605 20.729,26.331 20.527,26.109 L 19.968,25.493 C 19.877,25.392 19.739,25.391 19.613,25.44 C 18.962,25.687 18.615,26.103 18.212,26.66 C 18.037,26.903 18.401,27.166 18.576,26.923 Z" fill="#000000" marker-start="none" marker-end="none"/>
     <path d="M 19.247,24.471 C 20.008,23.71 19.556,24.15 20.556,24.476 C 21.25,24.702 21.59,23.66 20.896,23.434 C 19.278,22.906 20.121,22.882 18.89,24.113 C 18.651,24.351 19.009,24.709 19.247,24.471 Z" fill="#000000" marker-start="none" marker-end="none"/>
     <path d="M 20.169,21.676 C 20.51,21.574 20.847,21.738 21.051,22.011 C 21.568,22.7 22.602,21.925 22.085,21.235 C 21.613,20.606 20.722,20.66 19.934,20.896 C 19.414,21.052 19.648,21.832 20.169,21.676 Z" fill="#000000" marker-start="none" marker-end="none"/>
     <path d="M 21.861,19.843 L 22.601,19.76 L 23.024,20.033 C 24.03,20.49 24.734,19.081 23.765,18.55 L 23.103,18.188 C 22.982,18.122 22.709,18.069 22.575,18.11 L 21.614,18.403 C 20.682,18.687 20.893,19.952 21.861,19.843 Z" fill="#000000" marker-start="none" marker-end="none"/>
     <path d="M 11.092,6.367 C 9.384,5.046 8.556,5.764 7.847,7.633 C 9.288,11.487 18.689,12.451 22.661,10.833 C 24.187,10.471 24.568,9.791 26.067,9.513 C 26.986,9.33 27.624,8.958 28.7,9.038 C 29.51,9.065 30.464,9.314 31.021,9.431 C 31.549,9.654 32.216,9.63 32.781,9.809 C 33.98,10.171 34.808,10.774 35.845,11.192 C 36.7,11.768 36.664,11.65 37.504,12.055 L 37.878,12.727 C 38.178,13.224 38.973,12.627 38.575,12.204 L 37.938,11.528 C 37.145,11.145 37.126,10.946 36.279,10.373 C 35.202,9.948 34.215,9.479 32.997,9.111 C 32.479,8.947 31.939,8.399 31.449,8.153 C 30.864,8.037 29.64,7.889 28.763,7.859 C 27.522,7.769 26.781,7.509 25.722,7.721 C 24.188,8.005 23.669,8.729 22.106,9.098 C 18.485,10.574 9.581,11.148 8.267,7.634 C 8.794,6.245 9.427,5.896 10.696,6.878 C 11.037,7.142 11.433,6.63 11.092,6.367 Z" fill="#000000" marker-start="none" marker-end="none"/>
     <path d="M 57.216,32.017 C 54.953,32.017 53.503,32.59 52.388,34.14 C 50.928,36.36 52.218,39.631 54.28,40.646 C 54.548,40.778 54.747,40.375 54.478,40.242 C 52.879,39.455 52.598,36.785 53.73,35.063 C 54.648,33.787 55.353,32.523 57.216,32.523 C 57.553,32.523 57.553,32.017 57.216,32.017 Z" fill="#000000" marker-start="none" marker-end="none"/>
     <path d="M 58.874,40.669 C 63.724,40.669 66.719,37.625 67.961,33.987 C 68.105,33.263 68.11,32.697 68.197,31.973 C 68.197,30.547 67.668,29.617 67.436,28.569 C 67.371,28.277 66.932,28.374 66.997,28.667 C 67.218,29.66 66.853,30.541 66.853,31.892 C 66.772,32.575 66.608,32.903 66.472,33.586 C 65.352,36.864 63.245,40.219 58.874,40.219 C 58.573,40.219 58.573,40.669 58.874,40.669 Z" fill="#000000" marker-start="none" marker-end="none"/>
     <path d="M 43.376,10.133 C 45.623,8.136 48.128,6.597 50.957,5.293 C 52.459,4.593 55.192,4.346 56.993,5.246 C 58.459,6.241 59.827,6.539 60.482,8.503 C 60.747,10.094 60.068,10.704 58.911,11.282 C 57.023,11.131 57.173,9.909 57.737,8.477 C 58.083,8.016 58.577,7.932 59.176,8.025 C 59.472,8.07 59.541,7.626 59.245,7.58 C 58.381,7.448 57.53,7.418 57.032,8.083 C 56.135,10.36 56.173,12.396 59.173,12.637 C 60.726,11.861 61.272,10.528 60.916,8.394 C 60.149,6.09 59.833,4.503 58.113,3.336 C 55.861,2.21 52.373,3.424 50.496,4.299 C 47.591,5.638 45.384,7.747 43.077,9.798 C 42.853,9.996 43.152,10.333 43.376,10.133 Z" fill="#000000" marker-start="none" marker-end="none"/>
     <path d="M 52.504,11.356 C 53.523,10.846 54.237,10.925 55.232,10.441 C 55.683,10.31 55.935,9.962 56.425,9.847 C 56.716,9.779 56.613,9.341 56.322,9.41 C 55.836,9.524 55.368,9.379 54.882,9.493 C 53.872,9.998 53.275,10.374 52.265,10.879 C 51.947,11.037 52.185,11.515 52.504,11.356 Z" fill="#000000" marker-start="none" marker-end="none"/>
     <path d="M 61.901,9.009 C 63.554,8.844 64.639,9.191 66.126,9.439 C 67.443,9.65 67.74,9.879 68.609,10.379 L 69.264,10.726 C 70.225,12.092 70.207,13.263 69.498,15.058 C 68.267,16.064 66.724,16.784 65.191,15.602 C 64.953,15.419 64.679,15.776 64.916,15.958 C 66.819,17.425 69.024,17.076 70.552,15.828 C 71.419,13.63 71.008,11.831 69.832,10.16 L 69.138,9.552 C 68.154,8.985 67.776,8.707 66.284,8.469 C 64.732,8.21 63.582,8.389 61.857,8.562 C 61.559,8.592 61.603,9.039 61.901,9.009 Z" fill="#000000" marker-start="none" marker-end="none"/>
     <path d="M 64.941,14.797 C 64.941,13.899 65.291,13.607 65.625,13.017 C 66.438,12.423 66.365,12.452 67.098,13.047 L 67.353,13.534 C 67.579,13.944 68.029,13.832 68.035,13.363 L 68.043,12.645 C 68.044,12.548 67.937,12.421 67.861,12.36 C 66.517,11.269 66.253,11.16 64.763,12.251 C 64.357,12.969 64.491,13.705 64.491,14.797 C 64.491,15.097 64.941,15.097 64.941,14.797 Z" fill="#000000" marker-start="none" marker-end="none"/>
     <path d="M 30.274,29.469 C 30.72,26.795 31.538,25.534 32.179,23.583 C 33.208,22.094 33.737,20.347 35.471,19.669 C 35.75,19.56 35.586,19.142 35.307,19.251 C 33.432,19.984 32.073,21.366 30.959,22.977 C 30.304,24.971 30.286,26.662 29.83,29.396 C 29.781,29.691 30.225,29.765 30.274,29.469 Z" fill="#000000" marker-start="none" marker-end="none"/>
     <path d="M 62.75,29.492 C 60.044,24.593 57.833,20.955 52.535,18.791 L 51.855,18.497 C 51.459,18.326 51.191,18.862 51.566,19.075 L 52.234,19.456 C 57.385,21.56 59.726,24.946 62.357,29.71 C 62.502,29.972 62.895,29.755 62.75,29.492 Z" fill="#000000" marker-start="none" marker-end="none"/>
     <path d="M 69.254,17.792 C 72.02,19.655 74.606,21.371 77.541,22.754 C 78.047,23.006 78.411,23.141 78.917,23.394 C 80.156,23.884 80.96,24.145 82.545,24.26 C 84.181,23.933 85.62,23.562 86.245,22.046 C 86.359,21.769 85.944,21.598 85.829,21.875 C 85.274,23.224 83.963,23.358 82.507,23.649 C 81.002,23.54 80.338,23.291 79.17,22.83 C 78.671,22.58 78.353,22.375 77.847,22.122 C 74.94,20.752 72.245,19.265 69.505,17.42 C 69.256,17.252 69.006,17.625 69.254,17.792 Z" fill="#000000" marker-start="none" marker-end="none"/>
     <path d="M 87.96,27.482 C 91.943,28.83 96.62,29.085 99.314,26.273 C 99.661,25.551 99.64,24.895 99.9,24.202 C 100.005,23.922 99.584,23.764 99.479,24.044 C 99.225,24.721 98.718,24.921 98.379,25.625 C 95.904,28.208 91.763,28.295 88.104,27.057 C 87.82,26.96 87.676,27.386 87.96,27.482 Z" fill="#000000" marker-start="none" marker-end="none"/>
     <path d="M 81.976,4.894 C 81.625,5.947 81.343,6.836 81.489,8.152 C 81.513,8.368 81.635,8.477 81.852,8.477 C 84.602,8.477 86.384,9.267 88.759,8.746 C 89.49,8.563 90.472,8.251 91.543,8.251 C 93.126,8.14 94.73,8.144 96.424,8.144 C 98.195,8.531 99.08,8.072 100.602,8.819 C 100.871,8.951 101.069,8.547 100.8,8.415 C 99.2,7.63 98.468,6.857 96.607,6.45 C 94.874,6.45 93.107,6.566 91.488,6.68 C 90.251,6.68 89.161,6.648 88.316,6.859 C 86.066,7.353 84.459,7.746 81.852,7.746 C 81.635,7.746 82.239,8.287 82.215,8.071 C 82.08,6.856 82.078,6.008 82.402,5.036 C 82.497,4.752 82.071,4.61 81.976,4.894 Z" fill="#000000" marker-start="none" marker-end="none"/>
     <path d="M 101.565,20.498 C 102.211,17.914 101.315,12.867 99.562,12.005 C 97.729,11.107 94.48,10.462 92.994,11.88 C 91.801,13.017 93.507,14.806 94.7,13.669 C 95.63,12.782 97.66,12.982 98.806,13.544 C 100.259,14.257 101.664,18.248 101.129,20.389 C 101.056,20.679 101.492,20.789 101.565,20.498 Z" fill="#000000" marker-start="none" marker-end="none"/>
     <path d="M 106.219,26.032 C 107.468,22.879 109.865,18.779 109.062,14.793 C 108.518,12.553 107.035,11.224 105.691,9.816 C 104.631,8.705 102.965,10.296 104.025,11.407 C 105.047,12.478 105.578,13.772 105.991,15.475 C 106.715,19.067 106.927,23.025 105.801,25.866 C 105.691,26.145 106.109,26.311 106.219,26.032 Z" fill="#ccff7f" marker-start="none" marker-end="none"/>
     <path d="M 81.06,4.928 L 80.231,5.303 C 77.179,9.394 81.189,12.342 85.249,11.335 C 85.54,11.263 85.432,10.827 85.14,10.899 C 81.728,11.746 78.266,9.357 80.832,5.919 L 81.352,5.34 C 81.577,5.09 81.367,4.788 81.06,4.928 Z" fill="#ccff7f" marker-start="none" marker-end="none"/>
     <path d="M 84.319,11.218 C 84.714,12.008 85.187,12.545 85.977,12.94 C 87.205,12.852 88.332,12.752 89.152,12.43 C 91.003,12.071 92.386,11.777 94.679,11.777 C 95.314,11.805 95.503,11.593 96.001,11.676 C 96.296,11.725 96.37,11.282 96.074,11.233 C 95.541,11.144 95.381,10.824 94.7,10.794 C 92.33,10.794 90.791,11.119 88.878,11.49 C 88.122,11.787 87.196,12.209 86.102,12.305 C 85.474,11.983 85.057,11.689 84.722,11.017 C 84.587,10.749 84.186,10.95 84.319,11.218 Z" fill="#ccff7f" marker-start="none" marker-end="none"/>
     <path d="M 89.839,12.65 C 89.254,13.527 88.752,14.571 88.752,16.15 L 88.974,16.869 C 89.883,18.687 92.258,19.437 94.926,18.997 C 97.631,17.645 98.734,12.839 94.226,12.517 C 92.476,13.446 92.133,15.358 93.848,16.394 C 94.217,16.617 94.551,16.064 94.182,15.841 C 93.192,15.243 93.467,14.242 94.478,13.706 C 97.835,13.946 96.804,17.567 94.789,18.574 C 92.346,18.978 90.226,18.379 89.393,16.714 L 89.278,16.085 C 89.278,14.63 89.674,13.708 90.213,12.899 C 90.38,12.65 90.005,12.401 89.839,12.65 Z" fill="#ccff7f" marker-start="none" marker-end="none"/>
     <path d="M 94.215,36.706 C 99.959,35.992 105.996,35.614 105.996,29.124 C 105.996,27.157 103.046,27.157 103.046,29.124 C 103.046,34.39 98.814,35.625 94.153,36.204 C 93.818,36.246 93.88,36.748 94.215,36.706 Z" fill="#ccff7f" marker-start="none" marker-end="none"/>
     <path d="M 101.504,29.635 C 100.671,30.746 100.022,31.3 99.022,32.245 C 97.189,33.606 95.321,34.257 92.959,35.063 C 92.676,35.159 92.821,35.585 93.105,35.488 C 95.519,34.664 97.472,34.024 99.346,32.631 C 100.368,31.666 101.012,31.04 101.864,29.905 C 102.043,29.665 101.684,29.395 101.504,29.635 Z" fill="#ccff7f" marker-start="none" marker-end="none"/>
     <path d="M 101.168,31.15 C 100.415,32.135 99.8,32.522 99.265,33.52 C 98.243,34.031 97.628,34.665 96.31,34.885 C 96.014,34.934 96.088,35.378 96.384,35.329 C 97.775,35.097 98.881,34.893 100.07,34.343 C 100.593,33.268 100.809,32.359 101.525,31.423 C 101.707,31.185 101.351,30.912 101.168,31.15 Z" fill="#ccff7f" marker-start="none" marker-end="none"/>
     <path d="M 90.331,35.882 L 90.555,36.612 C 90.589,36.723 90.665,36.147 90.593,36.238 C 90.308,36.6 90.298,37.029 89.859,37.236 C 89.139,36.888 89.194,36.558 89.02,35.938 C 89.363,34.223 90.067,34.213 91.415,34.63 C 92.138,35.173 92.247,35.906 92.326,37.057 C 92.02,38.028 92.031,38.124 91.361,38.616 C 90.663,38.779 90.28,38.987 89.536,39.042 C 86.453,38.382 85.029,36.336 83.019,34.74 C 82.149,33.811 81.648,33.336 80.682,32.567 C 79.634,31.522 78.667,30.718 77.436,29.745 C 73.778,26.902 69.963,24.393 66.164,21.775 C 65.917,21.605 65.662,21.975 65.909,22.145 C 69.698,24.756 72.956,27.971 76.604,30.806 C 77.789,31.743 78.69,32.637 79.709,33.657 C 80.632,34.39 81.218,34.942 82.033,35.811 C 84.133,37.48 86.283,38.796 89.505,39.486 C 90.281,39.429 90.886,39.454 91.662,39.282 C 92.561,38.63 92.648,38.416 93.051,37.145 C 92.96,35.747 92.467,34.874 91.616,34.235 C 89.873,33.697 88.836,33.743 88.392,35.961 C 88.612,36.747 88.945,37.201 89.857,37.641 C 90.377,37.397 90.808,37.1 91.145,36.672 C 91.238,36.553 91.272,36.42 91.183,36.298 L 90.733,35.681 C 90.556,35.438 90.243,35.595 90.331,35.882 Z" fill="#ccff7f" marker-start="none" marker-end="none"/>
     <path d="M 82.891,33.625 C 84.327,34.773 85.36,35.837 87.256,36.469 L 87.97,36.532 C 88.307,36.56 88.403,36.175 88.093,36.041 L 87.459,35.768 C 85.645,35.163 84.546,34.374 83.172,33.274 C 82.938,33.087 82.657,33.438 82.891,33.625 Z" fill="#ccff7f" marker-start="none" marker-end="none"/>
     <path d="M 91.91,27.177 C 94.602,26.454 95.742,25.872 97.392,24.222 C 97.831,23.345 98.168,22.28 98.257,20.964 C 98.276,20.665 97.828,20.635 97.808,20.934 C 97.727,22.153 97.056,22.874 96.65,23.687 C 95.095,25.242 94.331,26.061 91.794,26.744 C 91.505,26.821 91.621,27.255 91.91,27.177 Z" fill="#000000" marker-start="none" marker-end="none"/>
     <path d="M 86.277,27.163 C 88.579,28.271 91.167,29.348 94.521,29.348 C 94.821,29.348 94.821,28.899 94.521,28.899 C 91.246,28.899 88.72,27.841 86.472,26.758 C 86.202,26.628 86.007,27.033 86.277,27.163 Z" fill="#ccff7f" marker-start="none" marker-end="none"/>
     <path d="M 94.916,29.441 C 100.302,28.462 103.754,27.739 104.183,21.834 C 104.183,20.303 103.097,19.323 102.917,18.243 C 102.867,17.948 102.424,18.022 102.474,18.317 C 102.642,19.328 101.882,20.319 101.882,21.75 C 101.523,26.7 99.315,27.985 94.8,28.806 C 94.376,28.883 94.492,29.518 94.916,29.441 Z" fill="#ccff7f" marker-start="none" marker-end="none"/>
     <path d="M 63.199,32.621 C 65.357,32.621 65.999,32.582 66.924,30.733 C 66.924,23.863 61.551,20.341 57.15,18.08 C 56.884,17.944 56.678,18.343 56.945,18.48 C 60.872,20.497 64.475,24.025 64.475,30.155 C 64.029,31.047 64.24,31.244 63.199,31.244 C 62.282,31.244 62.282,32.621 63.199,32.621 Z" fill="#ccff7f" marker-start="none" marker-end="none"/>
     <path d="M 31.073,32.279 L 30.501,32.858 C 29.568,32.523 29.883,32.853 29.62,31.801 C 30.803,28.254 34.41,30.064 33.523,33.634 C 32.5,35.03 30.87,37.006 28.476,35.809 C 27.523,34.618 27.202,33.955 26.858,32.209 C 26.858,25.144 30.872,20.79 35.809,18.826 C 36.088,18.716 35.922,18.298 35.643,18.409 C 30.41,20.491 25.606,24.842 25.606,32.331 C 25.992,34.296 26.904,35.088 27.976,36.428 C 30.985,37.932 33.611,36.031 34.896,34.277 C 36.202,29.021 30.876,26.561 29.136,31.783 C 29.491,33.204 29.355,32.915 30.615,33.367 L 31.391,32.597 C 31.603,32.386 31.284,32.066 31.073,32.279 Z" fill="#ccff7f" marker-start="none" marker-end="none"/>
     <path d="M 30.199,35.709 C 26.984,37.316 26.18,33.537 26.648,30.68 C 26.756,29.063 26.721,29.087 27.152,27.739 C 27.329,27.186 26.499,26.921 26.323,27.474 C 25.854,28.939 25.595,28.787 25.477,30.545 C 24.767,34.881 26.376,40.258 31.254,37.819 C 32.661,37.116 31.606,35.005 30.199,35.709 Z" fill="#ccff7f" marker-start="none" marker-end="none"/>
     <path d="M 39.579,16.555 C 40.057,15.599 40.043,15.096 39.597,14.204 C 38.783,13.943 37.855,13.758 37.073,14.149 C 36.467,15.361 36.477,16.179 36.87,17.724 C 37.566,18.246 38.292,18.539 39.219,18.828 C 42.358,17.534 42.963,14.668 40.697,12.727 C 38.295,10.65 34.47,8.429 29.96,8.073 C 29.051,8.285 28.132,8.543 27.435,8.816 C 21.235,11.285 11.183,14.16 8.686,6.86 C 8.553,6.47 7.968,6.67 8.102,7.06 C 10.836,15.057 21.551,13.82 28.343,11.115 C 28.938,10.882 29.367,10.69 30.144,10.509 C 34.183,10.828 37.592,11.974 39.744,13.834 C 41.416,15.266 41.516,17.451 39.2,18.407 C 38.33,18.135 37.876,17.978 37.223,17.488 C 36.884,16.161 37.174,15.812 37.695,14.771 C 38.262,14.488 38.569,14.527 39.159,14.715 C 39.501,15.4 39.544,15.621 39.177,16.354 C 39.043,16.622 39.445,16.823 39.579,16.555 Z" fill="#ccff7f" marker-start="none" marker-end="none"/>
     <path d="M 31.996,12.412 C 30.498,12.553 29.412,12.507 28.083,12.677 C 26.941,12.955 26.071,13.143 25.012,13.366 C 23.973,13.722 24.102,13.729 23.271,14.144 C 20.356,15.299 18.552,18.63 14.922,18.547 C 13.43,18.523 11.722,16.987 12.443,15.544 C 12.577,15.276 12.175,15.075 12.041,15.343 C 11.075,17.275 12.903,19.666 14.9,19.699 C 18.688,19.785 20.813,16.656 23.855,15.45 C 24.599,15.079 24.549,15.182 25.429,14.883 C 26.48,14.661 27.208,14.504 28.369,14.221 C 29.687,14.053 30.611,13.614 32.097,13.475 C 32.805,13.407 32.705,12.345 31.996,12.412 Z" fill="#ccff7f" marker-start="none" marker-end="none"/>
     <path d="M 16.17,14.918 C 15.21,15.192 13.79,14.958 12.528,14.958 C 10.976,14.382 9.967,13.706 9.967,12.129 C 9.967,11.829 9.517,11.829 9.517,12.129 C 9.517,14.104 10.349,15.544 12.294,16.265 C 13.634,16.265 15.273,15.642 16.293,15.35 C 16.581,15.268 16.458,14.836 16.17,14.918 Z" fill="#ccff7f" marker-start="none" marker-end="none"/>
     <path d="M 44.954,38.063 L 45.329,37.408 C 45.429,37.232 44.733,37.456 44.914,37.546 C 45.999,38.089 44.645,38.365 43.704,38.365 C 43.252,38.365 44.465,39.495 44.433,39.043 C 44.183,35.577 46.024,34.615 49.042,34.615 C 49.51,34.615 49.51,33.913 49.042,33.913 C 45.259,33.913 42.663,34.803 42.976,39.148 C 43.008,39.599 43.252,39.826 43.704,39.826 C 45.763,39.826 47.566,38.181 45.191,36.993 C 45,36.898 44.861,36.936 44.776,37.131 L 44.477,37.825 C 44.336,38.151 44.778,38.372 44.954,38.063 Z" fill="#ccff7f" marker-start="none" marker-end="none"/>
     <path d="M 53.165,36.861 C 53.524,37.606 53.439,38.149 53.687,38.949 C 53.904,39.647 54.95,39.322 54.734,38.624 C 54.471,37.778 53.95,37.455 53.57,36.667 C 53.44,36.397 53.035,36.592 53.165,36.861 Z" fill="#ccff7f" marker-start="none" marker-end="none"/>
     <path d="M 53.505,44.295 C 53.024,45.577 52.616,46.055 52.002,46.882 C 51.304,47.929 50.967,48.774 49.975,49.525 C 48.861,51.01 47.105,51.177 44.984,51.336 C 42.648,51.913 40.353,51.577 37.934,51.164 C 37.583,51.105 37.494,51.631 37.845,51.691 C 40.371,52.121 42.681,52.796 45.121,52.193 C 47.495,52.015 49.221,51.677 50.468,50.016 C 51.563,49.187 52.336,48.803 53.102,47.662 C 53.776,46.746 53.707,45.996 54.241,44.571 C 54.426,44.08 53.689,43.804 53.505,44.295 Z" fill="#ccff7f" marker-start="none" marker-end="none"/>
     <path d="M 37.576,48.957 C 35.337,48.784 36.869,47.57 37.644,47.182 L 38.266,47.083 C 39.064,47.083 39.77,47.029 40.249,47.269 C 41.274,48.661 39.565,49.698 38.466,50.504 C 35.176,52.958 31.451,49.453 29.702,47.782 C 29.485,47.575 29.175,47.9 29.391,48.107 C 31.406,50.032 35.545,54.505 39.335,51.678 C 40.781,50.617 41.88,48.766 40.53,46.934 C 39.997,46.668 39.077,46.446 38.187,46.446 L 37.46,46.684 C 36.211,47.309 33.92,49.295 37.529,49.573 C 37.939,49.604 37.987,48.988 37.576,48.957 Z" fill="#ccff7f" marker-start="none" marker-end="none"/>
     <path d="M 32.982,53.156 C 34.726,53.775 36.053,54.424 37.825,55.014 C 38.399,55.129 39.429,55.206 40.232,55.206 C 41.899,55.064 43.336,55.084 44.974,54.829 C 46.943,54.23 48.07,53.897 49.839,53.012 C 50.563,52.289 51.012,51.431 51.847,50.791 C 52.085,50.609 51.811,50.252 51.574,50.435 C 50.715,51.093 49.999,51.459 49.255,52.202 C 47.54,53.06 46.702,53.456 44.794,54.037 C 43.172,54.289 41.859,54.533 40.21,54.673 C 39.44,54.673 38.504,54.637 37.954,54.527 C 36.187,53.937 34.873,53.35 33.133,52.733 C 32.851,52.633 32.7,53.056 32.982,53.156 Z" fill="#ccff7f" marker-start="none" marker-end="none"/>
     <path d="M 32.416,81.361 C 32.966,80.261 32.848,79.794 31.851,79.313 C 30.805,80.113 30.586,80.802 30.678,82.125 C 31.387,83.863 32.416,84.598 33.575,83.053 C 35.529,80.446 33.371,76.12 32.334,74.492 C 31.582,73.525 30.812,72.366 30.301,71.158 C 29.74,70.035 29.372,69.113 28.866,68.101 C 27.424,65.244 25.784,63.609 24.257,61.064 C 22.69,57.93 21.743,55.307 20.4,51.921 C 18.565,45.861 16.916,37.64 19.113,31.191 C 19.209,30.907 18.784,30.762 18.687,31.045 C 16.445,37.63 17.493,46.095 19.366,52.282 C 20.72,55.695 21.964,58.297 23.543,61.455 C 25.052,63.969 26.162,65.923 27.586,68.744 C 28.091,69.756 28.566,70.575 29.128,71.699 C 29.686,73.019 30.319,74.275 31.141,75.332 C 32.075,76.8 34.976,80.435 33.215,82.783 C 32.35,83.936 31.639,83.322 31.111,82.025 C 31.035,80.932 31.041,80.498 31.905,79.837 C 32.537,80.142 32.363,80.462 32.014,81.16 C 31.88,81.428 32.282,81.629 32.416,81.361 Z" fill="#ccff7f" marker-start="none" marker-end="none"/>
     <path d="M 28.553,91.875 L 29.2,92.718 C 29.317,92.871 29.446,92.869 29.559,92.714 C 30.404,91.556 30.418,90.56 29.73,89.371 C 29.627,89.193 29.463,89.127 29.265,89.184 C 25.855,90.163 26.232,93.71 29.043,94.626 C 32.51,94.357 33.699,90.266 34.387,87.277 C 34.274,86.574 33.974,84.948 33.862,84.272 C 33.683,83.201 32.076,83.469 32.254,84.54 C 32.367,85.217 32.29,86.506 32.403,87.21 C 31.792,89.867 32.176,93.949 29.095,94.188 C 26.905,93.475 26.833,90.729 29.49,89.967 C 29.688,89.91 28.922,89.601 29.025,89.78 C 29.575,90.729 29.871,91.524 29.196,92.449 C 29.082,92.604 29.674,92.597 29.556,92.444 L 28.91,91.602 C 28.728,91.364 28.371,91.637 28.553,91.875 Z" fill="#ccff7f" marker-start="none" marker-end="none"/>
     <path d="M 14.353,83.803 C 14.468,84.405 14.231,84.788 14.346,85.362 C 14.448,85.871 14.783,85.976 15.237,85.724 L 16.283,85.143 C 16.39,85.084 16.523,84.881 16.556,84.764 C 17.679,80.835 13.068,80.646 11.946,83.939 C 11.212,86.111 12.445,88.043 13.424,89.022 C 18.578,90.028 21.219,80.112 18.352,76.666 C 16.728,75.042 13.93,74.494 11.318,75.004 C 7.081,76.496 5.332,80.86 5.332,86.26 C 5.332,86.56 5.781,86.56 5.781,86.26 C 5.781,81.482 8.07,78.162 11.818,76.842 C 13.815,76.453 15.846,76.579 17.088,77.82 C 19.505,80.726 18.047,89.348 13.701,88.5 C 12.881,87.68 12.262,86.075 12.876,84.255 C 13.442,82.596 15.934,82.217 15.369,84.197 L 14.585,84.774 C 14.161,85.128 15.584,85.678 15.476,85.136 C 15.36,84.557 14.91,84.326 14.794,83.718 C 14.738,83.424 14.297,83.508 14.353,83.803 Z" fill="#ccff7f" marker-start="none" marker-end="none"/>
     <path d="M 6.767,79.743 C 5.509,80.258 6.217,79.276 4.992,80.179 L 4.238,81.24 C 3.85,82.401 3.429,83.267 3.34,84.516 C 2.723,91.423 6.898,92.998 11.13,95.114 C 11.398,95.248 11.599,94.846 11.331,94.711 C 7.47,92.781 4.233,90.936 4.796,84.634 C 4.875,83.524 5.24,82.985 5.584,81.955 L 6.121,81.33 C 7.121,80.594 6.018,80.839 7.044,80.419 C 7.494,80.234 7.217,79.558 6.767,79.743 Z" fill="#ccff7f" marker-start="none" marker-end="none"/>
     <path d="M 4.702,89.493 C 4.26,90.611 4.268,91.524 4.444,92.731 C 5.693,93.979 6.256,94.587 7.795,95.196 C 9.585,96.021 10.818,96.366 13.036,96.792 C 19.704,96.792 23.304,95.096 25.662,90.903 C 25.956,90.287 25.793,89.801 26.028,89.184 C 26.181,88.782 25.578,88.552 25.424,88.954 C 25.199,89.546 24.723,89.678 24.441,90.27 C 22.248,94.169 19.28,96.347 13.078,96.347 C 10.913,95.931 9.787,95.434 8.038,94.628 C 6.599,94.058 6.179,93.527 5.072,92.415 C 4.915,91.378 4.718,90.676 5.119,89.658 C 5.23,89.379 4.811,89.214 4.702,89.493 Z" fill="#ccff7f" marker-start="none" marker-end="none"/>
     <path d="M 21.078,112.866 C 21.901,113.311 21.498,113.62 21.498,114.576 C 21.498,114.753 21.903,113.907 21.764,114.019 C 20.998,114.638 20.932,115.06 20.401,115.737 C 17.921,117.597 14.122,112.443 14.122,109.262 C 14.32,108.329 14.56,107.472 14.701,106.483 C 14.701,106.483 14.96,105.77 14.987,105.695 C 15.239,105.192 15.437,104.886 15.659,104.391 C 16.313,103.432 16.654,102.645 17.401,101.898 C 17.613,101.686 17.295,101.368 17.083,101.58 C 16.314,102.349 15.804,103.091 15.12,104.088 C 14.897,104.59 14.75,104.975 14.5,105.477 L 14.11,106.321 C 13.97,107.298 13.873,108.294 13.677,109.216 C 13.677,112.665 18.024,118.073 20.713,116.055 C 21.222,115.406 21.93,115.727 22.665,115.134 C 22.803,115.022 22.931,114.753 22.931,114.576 C 22.931,113.081 22.672,112.993 21.385,112.298 C 21.006,112.093 20.699,112.661 21.078,112.866 Z" fill="#ccff7f" marker-start="none" marker-end="none"/>
    </g>
   </g>
  </g>
 </g>
</svg>
