<?xml version="1.0" standalone="no"?>
<!-- Generator: Xara Xtreme (www.xara.com), SVG filter version: 0.4 -->
<!DOCTYPE svg PUBLIC "-//W3C//DTD SVG 1.1//EN" "http://www.w3.org/Graphics/SVG/1.1/DTD/svg11.dtd">
<svg stroke-width="0.501" stroke-linejoin="bevel" fill-rule="evenodd" xmlns:xlink="http://www.w3.org/1999/xlink" xmlns="http://www.w3.org/2000/svg" version="1.1" width="450pt" height="450pt" viewBox="0 0 450 450">
 <defs>
  <marker id="DefaultArrow2" markerUnits="strokeWidth" viewBox="0 0 1 1" markerWidth="1" markerHeight="1" overflow="visible" orient="auto">
   <!-- REF_ARROW_STRAIGHT (-2) -->
   <g transform="scale(0.0092592592)">
    <!-- 1/108 -->
    <path d="M -9 54 L -9 -54 L 117 0 z"/>
   </g>
  </marker>
  <marker id="DefaultArrow3" markerUnits="strokeWidth" viewBox="0 0 1 1" markerWidth="1" markerHeight="1" overflow="visible" orient="auto">
   <!-- REF_ARROW_ANGLED -->
   <g transform="scale(0.0092592592)">
    <path d="M -27 54 L -9 0 L -27 -54 L 135 0 z"/>
   </g>
  </marker>
  <marker id="DefaultArrow4" markerUnits="strokeWidth" viewBox="0 0 1 1" markerWidth="1" markerHeight="1" overflow="visible" orient="auto">
   <!-- REF_ARROW_ROUNDED -->
   <g transform="scale(0.0092592592)">
    <path d="M -9,0 L -9,-45 C -9,-51.708 2.808,-56.580 9,-54 L 117,-9 C 120.916,-7.369 126.000,-4.242 126,0 C 126,4.242 120.916,7.369 117,9 L 9,54 C 2.808,56.580 -9,51.708 -9,45 z"/>
   </g>
  </marker>
  <marker id="DefaultArrow5" markerUnits="strokeWidth" viewBox="0 0 1 1" markerWidth="1" markerHeight="1" overflow="visible" orient="auto">
   <!-- REF_ARROW_SPOT -->
   <g transform="scale(0.0092592592)">
    <path d="M -54, 0 C -54,29.807 -29.807,54 0,54 C 29.807,54 54,29.807 54,0 C 54,-29.807 29.807,-54 0,-54 C -29.807,-54 -54,-29.807 -54,0 z"/>
   </g>
  </marker>
  <marker id="DefaultArrow6" markerUnits="strokeWidth" viewBox="0 0 1 1" markerWidth="1" markerHeight="1" overflow="visible" orient="auto">
   <!-- REF_ARROW_DIAMOND -->
   <g transform="scale(0.0092592592)">
    <path d="M -63,0 L 0,63 L 63,0 L 0,-63 z"/>
   </g>
  </marker>
  <marker id="DefaultArrow7" markerUnits="strokeWidth" viewBox="0 0 1 1" markerWidth="1" markerHeight="1" overflow="visible" orient="auto">
   <!-- REF_ARROW_FEATHER -->
   <g transform="scale(0.0092592592)">
    <path d="M 18,-54 L 108,-54 L 63,0 L 108,54 L 18, 54 L -36,0 z"/>
   </g>
  </marker>
  <marker id="DefaultArrow8" markerUnits="strokeWidth" viewBox="0 0 1 1" markerWidth="1" markerHeight="1" overflow="visible" orient="auto">
   <!-- REF_ARROW_FEATHER2 -->
   <g transform="scale(0.0092592592)">
    <path d="M -36,0 L 18,-54 L 54,-54 L 18,-18 L 27,-18 L 63,-54 L 99,-54 L 63,-18 L 72,-18 L 108,-54 L 144,-54 L 90,0 L 144,54 L 108,54 L 72,18 L 63,18 L 99,54 L 63,54 L 27,18 L 18,18 L 54,54 L 18,54 z"/>
   </g>
  </marker>
  <marker id="DefaultArrow9" markerUnits="strokeWidth" viewBox="0 0 1 1" markerWidth="1" markerHeight="1" overflow="visible" orient="auto">
   <!-- REF_ARROW_HOLLOWDIAMOND -->
   <g transform="scale(0.0092592592)">
    <path d="M 0,45 L -45,0 L 0, -45 L 45, 0 z M 0, 63 L-63, 0 L 0, -63 L 63, 0 z"/>
   </g>
  </marker>
 </defs>
 <g id="Document" fill="none" stroke="black" font-family="Times New Roman" font-size="16" transform="scale(1 -1)">
  <g id="Spread" transform="translate(0 -450)">
   <g id="Layer 1">
    <g id="Group" stroke-linejoin="miter" stroke="none" stroke-width="1.746" stroke-miterlimit="79.8403193612775">
     <path d="M 55.875,429.152 C 47.387,433.42 44.205,428.107 39.625,422.041 C 37.666,411.185 39.243,405.319 41.814,394.984 C 57.452,364.402 84.478,348.824 91.449,313.572 C 91.68,312.407 89.901,312.025 89.671,313.22 C 82.521,349.437 39.182,356.587 23.103,387.983 C 19.869,401.17 19.226,416.025 21.707,429.884 C 30.545,441.555 43.562,445.442 59.933,437.237 C 65.335,434.555 61.249,426.44 55.875,429.152 Z" fill="#006c10" marker-start="none" marker-end="none"/>
     <path d="M 68.218,397.987 C 61.249,394.523 62.935,393.146 60.284,385.151 C 62.825,356.789 79.135,348.644 85.995,320.953 C 86.317,319.788 84.529,319.346 84.237,320.512 C 76.826,350.341 47.387,356.407 44.646,386.989 C 49.075,400.326 50.451,404.495 62.031,410.31 C 70.268,414.418 76.423,402.105 68.218,397.987 Z" fill="#006c10" marker-start="none" marker-end="none"/>
     <path d="M 42.627,297.321 C 43.45,307.555 42.165,302.515 43.712,312.117 C 44.144,314.767 45.66,315.64 48.201,314.767 C 65.828,308.409 77.649,277.737 60.114,267.994 C 40.388,257.137 21.647,276.19 14.386,288.534 C 8.921,326.789 37.234,354.188 74.325,335.134 C 95.566,324.198 99.966,292.44 95.064,262.501 C 94.894,261.306 93.086,261.597 93.287,262.791 C 97.435,288.041 84.88,311.583 66.993,320.834 C 45.399,331.901 29.29,317.097 32.474,294.841 C 36.09,288.624 42.105,277.154 52.059,282.607 C 61.68,287.95 55.614,304.934 45.902,308.409 C 43.391,309.343 50.803,313.693 50.361,311.061 C 48.904,301.75 48.644,306.832 47.85,296.91 C 47.558,293.435 42.366,293.846 42.627,297.321 Z" fill="#006c10" marker-start="none" marker-end="none"/>
     <path d="M 89.671,253.201 C 71.341,210.004 48.291,160.489 62.795,97.255 C 67.315,77.269 100.025,31.863 122.412,61.742 C 130.437,72.478 146.548,60.426 138.492,49.721 C 106.393,6.794 55.906,65.478 49.397,94.193 C 34.312,159.847 68.751,209.129 87.833,253.984 C 88.355,255.209 90.193,254.426 89.671,253.201 Z" fill="#337f00" marker-start="none" marker-end="none"/>
     <path d="M 139.628,59.402 C 147.391,55.524 155.094,53.014 166.623,52.111 C 207.943,57.243 235.693,77.671 265.894,94.454 C 293.996,110.032 327.169,124.011 361.025,107.088 C 367.473,100.64 371.64,93.951 375.669,83.688 C 379.725,59.08 373.108,31.009 352.679,24.299 C 322.156,14.176 307.995,44.558 331.457,60.196 C 332.451,60.868 333.445,59.371 332.451,58.709 C 319.064,49.75 330.001,34.344 347.457,40.119 C 360.613,44.467 359.801,62.706 357.169,78.573 C 354.396,85.635 354.336,87.183 349.906,91.591 C 322.268,105.421 297.58,91.451 274.622,78.726 C 242.492,60.899 210.976,39.506 167.056,34.023 C 152.844,35.127 141.877,40.059 132.365,44.818 C 122.644,49.69 129.935,64.252 139.628,59.402 Z" fill="#006c10" marker-start="none" marker-end="none"/>
     <path d="M 346.2,20.041 C 329.801,21.326 322.207,19.81 311.381,25.174 C 292.77,28.88 275.436,25.384 290.671,14.758 C 291.655,14.055 290.61,12.568 289.647,13.273 C 266.274,29.614 287.608,44.899 316.172,39.245 C 325.803,34.454 332.05,27.222 346.664,26.048 C 350.661,25.756 350.199,19.75 346.2,20.041 Z" fill="#006c10" marker-start="none" marker-end="none"/>
     <path d="M 166.623,52.984 C 200.731,61.452 221.883,73.211 248.297,89.662 C 271.257,103.934 298.836,127.778 338.579,119.924 C 351.976,117.333 367.181,93.78 373.249,83.625 C 375.316,71.082 372.143,55.203 367.243,45.371 C 365.485,41.896 360.263,44.498 362.01,47.992 C 366.217,56.368 361.397,67.898 359.619,78.636 C 354.809,86.629 346.753,105.631 336.188,107.701 C 299.71,114.912 273.276,96.553 252.174,83.446 C 225.327,66.734 201.726,59.843 167.056,51.207 C 165.891,50.945 165.449,52.663 166.623,52.984 Z" fill="#337f00" marker-start="none" marker-end="none"/>
     <path d="M 161.512,54.883 C 193.701,48.605 227.197,74.196 237.149,94.132 C 243.718,107.258 234.226,126.171 227.087,131.484 C 218.769,139.619 202.449,149.754 188.769,139.508 C 176.166,130.077 185.908,118.376 198.954,114.53 C 204.729,112.833 202.219,104.166 196.413,105.863 C 173.885,112.461 159.293,133.492 181.065,149.803 C 201.193,164.898 225.037,155.357 237.239,143.385 C 247.394,135.833 254.575,108.755 245.264,90.074 C 234.498,68.602 195.891,46.125 161.129,52.893 C 159.795,53.164 160.197,55.144 161.512,54.883 Z" fill="#006c10" marker-start="none" marker-end="none"/>
     <path d="M 129.354,49.509 C 115.462,52.954 109.627,54.27 100.527,61.512 C 96.701,69.265 92.935,76.214 89.762,84.179 C 88.125,92.294 87.944,101.133 87.944,113.827 C 87.944,121.682 92.533,127.015 98.188,121.561 L 108.985,111.055 C 109.888,110.241 109.658,109.568 108.493,109.308 L 93.779,106.094 C 88.587,104.899 104.023,119.14 104.023,113.827 C 104.023,102.539 104.435,96.171 105.832,88.97 C 108.903,81.437 109.749,79.157 113.333,71.835 C 120.896,65.879 120.042,61.13 131.543,58.297 C 137.408,56.841 135.219,48.052 129.354,49.509 Z" fill="#006c10" marker-start="none" marker-end="none"/>
     <path d="M 116.979,45.602 C 105.048,54.47 92.383,59.06 85.383,73.151 C 58.295,127.336 73.039,180.184 132.014,191.795 C 145.201,191.795 159.473,190.84 168.282,188.239 C 194.605,175.133 209.137,142.25 184.532,117.091 C 172.891,112.431 161.682,111.176 150.917,116.51 C 149.982,119.371 150.424,127.276 149.46,133.674 C 149.29,134.99 151.237,135.28 151.479,133.934 C 152.352,127.919 156.319,124.684 157.223,121.972 C 166.011,117.653 172.218,117.563 181.71,121.36 C 202.74,142.863 187.926,169.679 165.388,180.888 C 157.103,183.308 145.081,184.533 132.707,184.533 C 80.531,174.258 71.754,126.231 95.737,78.284 C 102.104,65.478 107.698,55.847 118.586,47.762 C 120.042,46.688 118.445,44.498 116.979,45.602 Z" fill="#006c10" marker-start="none" marker-end="none"/>
     <path d="M 106.103,46.334 C 79.014,56.95 62.122,85.173 62.122,122.847 C 62.122,182.956 105.369,216.753 155.446,208.488 C 177.391,204.119 179.659,195.822 190.197,181.731 C 193.641,177.091 186.721,171.928 183.286,176.539 C 174.85,187.858 170.269,189.877 152.704,193.371 C 111.326,200.201 75.57,172.481 75.57,122.847 C 75.57,89.081 83.514,60.165 107.79,50.653 C 110.652,49.509 108.954,45.19 106.103,46.334 Z" fill="#006c10" marker-start="none" marker-end="none"/>
     <path d="M 126.641,37.257 C 109.627,24.5 97.052,24.36 80.591,32.585 C 68.751,36.231 60.926,42.397 47.588,39.737 C 39.182,35.599 32.945,34.312 28.828,25.907 C 27.634,23.566 24.127,25.325 25.261,27.655 C 30.515,38.25 32.273,48.344 42.859,53.627 C 58.908,56.78 71.784,50.684 86.055,46.275 C 99.092,39.767 109.918,31.541 123.428,41.605 C 126.321,43.765 129.564,39.446 126.641,37.257 Z" fill="#006c10" marker-start="none" marker-end="none"/>
     <path d="M 115.995,40.319 C 83.595,40.319 73.411,53.215 49.548,53.396 L 40.759,51.145 C 39.043,50.653 38.339,51.327 38.841,53.074 L 41.985,64.423 C 42.627,66.613 44.817,66.553 47.097,66.522 C 72.014,66.321 82.199,42.157 115.995,42.157 C 117.19,42.157 117.19,40.319 115.995,40.319 Z" fill="#006c10" marker-start="none" marker-end="none"/>
     <path d="M 73.652,67.668 C 49.96,85.907 31.982,108.374 31.982,143.385 C 37.786,187.506 62.734,198.776 72.306,232.129 C 77.237,249.284 70.699,263.846 58.446,254.686 C 57.452,253.954 56.407,255.41 57.361,256.112 C 76.303,270.295 94.713,254.446 87.1,227.871 C 77.76,195.301 53.283,185.438 47.619,142.341 C 47.619,110.412 53.253,85.926 74.877,69.295 C 75.952,68.451 74.726,66.875 73.652,67.668 Z" fill="#006c10" marker-start="none" marker-end="none"/>
     <path d="M 84.237,230.201 C 87.652,244.061 84.941,257.83 82.37,274.322 C 82.199,275.548 85.905,269.42 84.911,270.153 C 77.439,275.727 82.902,280.419 74.666,276.31 C 73.592,275.748 72.798,277.386 73.852,277.908 C 86.899,284.415 80.742,289.317 92.584,280.478 C 93.608,279.725 94.924,277.505 95.124,276.281 C 97.806,258.564 89.671,244.643 85.995,229.759 C 85.704,228.595 83.976,229.035 84.237,230.201 Z" fill="#337f00" marker-start="none" marker-end="none"/>
     <path d="M 91.007,78.756 C 70.026,126.493 71.754,174.35 124.131,184.795 C 136.855,179.573 128.539,183.108 141.616,173.445 C 148.525,168.334 140.852,158.01 133.963,163.111 C 123.428,170.904 132.597,162.006 122.322,166.234 C 78.935,157.567 76.273,119.461 93.699,79.92 C 94.482,78.143 91.8,76.968 91.007,78.756 Z" fill="#337f00" marker-start="none" marker-end="none"/>
     <path d="M 122.002,63.319 C 111.586,71.574 61.368,119.251 104.344,130.751 C 109.166,132.037 113.133,130.55 115.553,126.201 L 120.745,117.011 C 127.083,105.682 111.033,96.03 104.023,106.999 L 98.308,115.867 C 95.737,119.893 114.176,112.572 109.537,111.347 C 80.361,103.523 117.36,72.017 124.422,66.412 C 126.5,64.775 124.039,61.712 122.002,63.319 Z" fill="#337f00" marker-start="none" marker-end="none"/>
     <path d="M 136.886,55.726 C 156.349,41.194 164.958,35.096 190.718,26.549 C 199.154,28.588 204.438,25.997 200.611,33.67 C 197.729,39.446 206.396,43.703 209.248,37.959 C 218.268,19.75 209.951,13.504 189.964,8.692 C 162.155,17.912 152.494,32.796 131.451,48.495 C 126.641,52.08 132.043,59.351 136.886,55.726 Z" fill="#006c10" marker-start="none" marker-end="none"/>
     <path d="M 154.25,45.955 C 179.902,41.755 213.537,26.61 230.089,48.695 C 232.217,51.557 231.023,35.478 229.326,38.632 C 224.514,47.561 232.63,41.283 223.108,48.434 C 213.396,55.696 224.284,70.288 233.996,63.029 C 249.984,51.036 237.792,62.526 245.847,47.501 C 247.534,44.377 247.273,40.29 245.114,37.407 C 225.217,10.792 184.833,38.713 153.929,43.765 C 152.463,43.995 152.784,46.185 154.25,45.955 Z" fill="#337f00" marker-start="none" marker-end="none"/>
     <path d="M 361.808,51.668 C 355.16,38.713 341.32,21.358 324.225,27.916 C 298.806,37.607 321.254,80.704 341.621,59.813 C 349.466,51.758 337.382,39.967 329.539,48.023 C 325.101,52.583 323.322,42.248 328.867,40.119 C 341.822,35.157 355.16,42.689 360.202,52.522 C 360.764,53.597 362.361,52.754 361.808,51.668 Z" fill="#006c10" marker-start="none" marker-end="none"/>
     <path d="M 240.414,84.068 C 259.265,97.577 342.434,161.043 368.025,111.115 C 374.092,99.324 356.415,90.225 350.339,102.006 C 328.715,144.179 257.929,93.287 241.99,81.849 C 240.534,80.793 238.956,83.015 240.414,84.068 Z" fill="#337f00" marker-start="none" marker-end="none"/>
     <path d="M 168.664,64.925 C 194.636,64.925 199.387,73 212.051,85.726 C 216.339,91.39 220.136,94.594 221.712,102.829 C 223.962,114.349 241.238,110.965 238.987,99.476 C 236.737,87.976 232.74,80.975 226.733,72.971 C 210.654,56.901 201.575,50.151 168.664,50.151 C 158.8,50.151 158.8,64.925 168.664,64.925 Z" fill="#006c10" marker-start="none" marker-end="none"/>
     <path d="M 67.987,199.649 C 83.454,225.562 86.317,260.522 97.866,289.848 C 98.982,292.651 103.592,274.734 102.597,277.566 L 98.77,288.041 C 97.836,290.632 98.018,290.924 100.638,291.717 L 111.326,294.982 C 118.817,297.291 118.908,290.02 116.016,282.698 C 104.344,253.079 85.322,224.778 69.705,198.624 C 69.011,197.459 67.283,198.513 67.987,199.649 Z" fill="#337f00" marker-start="none" marker-end="none"/>
     <path d="M 95.767,278.671 C 100.789,291.396 95.356,302.515 92.584,316.726 L 89.35,322.912 C 84.357,332.836 94.983,341.122 102.628,333.037 L 110.421,324.781 C 113.746,307.937 109.567,290.632 103.621,275.577 C 101.573,270.354 93.699,273.448 95.767,278.671 Z" fill="#006c10" marker-start="none" marker-end="none"/>
     <path d="M 138.693,46.688 C 104.435,72.358 134.204,110.091 152.201,73.875 C 156.44,65.418 134.927,63.058 137.206,72.248 C 140.441,85.083 136.243,76.997 145.051,88.789 C 146.598,90.858 149.229,91.852 151.739,91.36 C 168.402,88.146 162.215,93.691 168.984,80.012 C 175.845,73.413 185.466,72.649 188.479,55.495 C 188.769,53.657 187.897,49.951 186.812,48.465 C 179.951,39.325 171.846,36.413 157.022,34.224 C 132.125,41.866 131.451,42.046 131.451,64.865 C 131.451,69.827 133.992,72.57 138.924,72.971 C 156.14,74.406 158.68,72.741 169.397,62.062 L 175.924,61.33 C 188.127,58.528 184.391,39.856 172.218,42.889 L 160.699,45.783 C 154.451,51.97 150.274,57.564 140.27,56.751 C 135.309,56.338 147.742,69.827 147.742,64.865 C 147.742,54.099 146.627,55.524 158.359,51.91 C 166.645,53.135 168.402,54.24 172.218,59.351 C 173.302,60.839 170.852,50.534 170.56,52.341 C 168.512,63.932 161.863,66.965 157.253,71.424 C 154.361,77.239 156.26,76.767 149.168,78.143 C 146.658,78.636 157.364,82.782 155.847,80.704 C 149.721,72.507 155.063,77.319 152.844,68.361 C 150.514,59.17 142.048,58.236 137.85,66.704 C 129.383,83.688 128.047,65.97 144.116,53.888 C 148.937,50.302 143.505,43.061 138.693,46.688 Z" fill="#337f00" marker-start="none" marker-end="none"/>
     <path d="M 36.561,369.101 C 34.633,367.094 35.365,364.753 36.913,362.654 C 43.069,354.337 54.71,347.036 63.318,342.136 C 64.25,341.613 63.437,340.217 62.534,340.739 C 52.962,346.132 36.039,347.769 29.24,356.991 C 24.74,363.116 24.068,369.835 29.612,375.67 C 33.991,380.28 40.941,373.711 36.561,369.101 Z" fill="#b24c00" marker-start="none" marker-end="none"/>
     <path d="M 17.267,333.006 C 16.162,340.539 17.479,344.125 22.058,347.679 C 27.634,351.044 33.026,353.604 40.91,354.508 C 46.774,353.604 51.154,349.668 55.03,347.338 C 57.391,345.902 55.262,342.376 52.932,343.803 C 49.637,345.761 45.691,344.295 40.699,345.058 C 34.522,344.356 31.861,342.486 27.422,339.836 C 25.533,338.349 24.68,337.324 25.151,334.201 C 25.935,328.948 18.092,327.752 17.267,333.006 Z" fill="#b24c00" marker-start="none" marker-end="none"/>
     <path d="M 14.847,358.456 C 26.548,357.723 35.426,355.915 44.325,352.881 L 46.304,348.503 C 46.916,346.836 46.685,346.605 44.967,346.252 L 40.91,345.469 C 32.503,348.293 25.533,352.27 14.526,352.931 C 10.82,353.174 11.171,358.686 14.847,358.456 Z" fill="#b24c00" marker-start="none" marker-end="none"/>
     <path d="M 29.441,375.38 C 27.221,373.682 27.131,370.618 26.9,366.561 C 29.088,355.414 34.813,353.224 42.979,349.285 C 43.943,348.824 43.24,347.389 42.276,347.86 C 33.346,352.148 26.196,354.158 23.776,366.391 C 24.127,371.171 25.854,374.676 28.477,376.665 C 29.321,377.298 30.284,376.022 29.441,375.38 Z" fill="#e5664c" marker-start="none" marker-end="none"/>
     <path d="M 10.418,354.368 C 13.853,359.069 20.13,356.879 26.408,357.813 C 27.603,357.983 27.864,356.207 26.667,356.024 C 20.864,355.151 14.907,357.783 11.694,353.433 C 11.081,352.561 9.776,353.515 10.418,354.368 Z" fill="#e5664c" marker-start="none" marker-end="none"/>
     <path d="M 21.798,331.258 L 18.172,334.11 L 16.806,340.186 C 17.91,347.036 20.712,349.115 25.474,351.707 C 26.608,352.35 27.512,350.662 26.408,350.05 C 22.319,347.831 20.512,346.112 19.578,340.296 L 20.601,335.487 L 23.054,332.534 C 23.805,331.598 22.762,330.495 21.798,331.258 Z" fill="#e5664c" marker-start="none" marker-end="none"/>
     <path d="M 51.848,290.37 C 52.52,290.783 53.043,291.456 53.514,292.56 C 54.279,294.49 56.056,294.519 56.869,292.622 C 58.095,289.728 60.455,288.504 61.017,285.38 C 61.801,280.95 56.639,278.792 54.71,282.839 L 52.84,286.845 C 51.737,289.176 58.858,288.684 57.361,286.575 L 54.569,282.759 C 52.781,280.338 50.621,280.629 49.397,283.371 L 47.71,287.078 C 46.253,290.231 54.067,290.954 53.223,287.57 L 51.647,281.504 C 50.834,278.229 47.971,277.154 46.454,280.127 L 43.592,285.61 L 41.814,286.695 L 39.715,285.61 C 37.606,284.978 36.532,287.659 38.489,288.705 L 41.262,290.201 C 41.985,290.572 42.658,290.552 43.179,289.959 L 45.258,287.508 L 50.863,284.566 C 53.283,283.251 44.817,280.538 45.66,283.19 L 47.499,289.176 C 48.523,292.411 51.356,292.681 53.023,289.698 L 54.97,286.143 C 56.316,283.692 47.821,284.687 49.778,286.756 L 53.023,290.201 C 54.539,291.777 56.026,291.567 57.512,289.93 L 60.485,286.665 C 63.407,283.452 54.97,279.865 54.187,284.155 C 53.716,286.815 54.539,288.734 53.514,291.184 C 52.731,293.113 57.633,293.144 56.869,291.215 C 56.116,289.297 54.859,288.362 53.686,287.599 C 51.848,286.374 50.01,289.146 51.848,290.37 Z" fill="#e5664c" marker-start="none" marker-end="none"/>
     <path d="M 65.185,216.51 C 67.636,222.296 67.928,232.068 66.962,239.773 L 66.761,243.889 C 66.269,245.227 66.148,250.157 64.402,249.575 C 60.806,248.149 56.437,240.736 58.706,236.187 C 60.193,233.234 49.428,236.508 52.29,238.105 C 55.935,240.214 57.07,242.806 58.617,246.662 C 61.128,254.155 59.641,242.574 62.966,250.568 C 63.207,251.151 63.96,251.855 64.571,252.026 C 70.729,253.954 76.455,255.853 82.521,257.337 C 83.194,257.569 83.745,256.926 83.304,257.489 C 82.459,258.623 87.944,257.167 86.638,256.604 C 82.872,254.948 80.129,253.542 76.393,252.055 C 73.149,249.754 70.94,248.319 67.234,246.16 C 65.216,244.995 63.758,245.698 63.407,247.968 C 62.474,253.723 60.144,255.671 57.743,258.855 C 56.056,260.23 54.328,261.597 51.234,262.009 C 49.045,262.33 53.836,267.231 54.067,265.072 L 54.68,259.729 C 58.385,256.958 60.436,256.023 64.724,254.215 C 68.479,252.638 66.088,246.984 62.322,248.581 C 57.572,250.568 55.001,254.245 50.863,257.308 L 49.045,264.047 C 48.553,266.266 49.637,267.401 51.908,267.091 C 56.227,266.498 59.551,264.952 62.031,262.973 C 64.985,258.915 67.374,255.671 68.479,248.791 C 68.831,246.482 62.644,249.434 64.632,250.568 C 68.188,252.668 69.976,255.531 73.21,257.89 C 77.096,259.378 80.742,260.08 84.448,261.688 C 85.754,262.24 86.899,261.919 87.744,260.784 C 92.796,253.984 93.086,251.764 84.941,249.052 C 78.904,247.566 72.216,249.052 66.088,247.155 C 65.507,246.954 67.928,249.174 67.696,248.611 C 64.663,241.349 70.699,249.866 68.43,243.037 C 65.948,236.88 62.705,233.445 56.9,230.081 C 54.037,228.484 51.908,229.096 50.451,232.039 C 46.483,239.943 56.376,251.974 62.644,254.396 C 65.918,255.59 68.831,247.155 69.735,244.643 L 70.729,240.295 C 71.784,232.129 69.243,222.005 66.672,215.9 C 66.269,214.915 64.773,215.547 65.185,216.51 Z" fill="#b24c00" marker-start="none" marker-end="none"/>
     <path d="M 51.817,268.657 C 55.614,267.583 58.063,267.321 60.776,265.192 C 64.161,261.838 63.669,256.374 65.476,251.673 C 65.858,250.69 64.371,250.108 63.96,251.092 C 62.474,255.118 58.275,256.345 55.413,259.086 C 53.605,260.522 52.781,261.919 50.13,262.652 C 46.102,263.786 47.789,269.802 51.817,268.657 Z" fill="#e5664c" marker-start="none" marker-end="none"/>
     <path d="M 73.21,249.174 C 79.688,247.918 84.74,247.064 88.476,252.115 C 87.773,262.009 90.485,247.535 89.088,256.525 C 88.796,258.242 91.389,258.653 91.649,256.907 C 93.166,247.385 92.704,261.196 93.437,250.659 C 88.707,244.242 81.144,245.989 72.919,247.597 C 71.874,247.797 72.166,249.344 73.21,249.174 Z" fill="#e5664c" marker-start="none" marker-end="none"/>
     <path d="M 53.745,233.707 C 52.059,237.151 51.556,239.621 52.199,244 C 54.157,247.968 57.22,250.308 61.599,250.981 C 62.674,251.122 62.915,249.545 61.83,249.375 C 58.155,248.851 56.197,246.482 54.589,243.278 C 54.037,239.541 53.896,237.493 55.384,234.52 C 55.935,233.445 54.298,232.621 53.745,233.707 Z" fill="#e5664c" marker-start="none" marker-end="none"/>
     <path d="M 64.282,242.745 C 66.411,237 67.254,231.688 67.254,223.953 C 67.254,222.879 65.627,222.879 65.627,223.953 C 65.627,231.457 64.863,236.618 62.765,242.162 C 62.413,243.157 63.899,243.739 64.282,242.745 Z" fill="#e5664c" marker-start="none" marker-end="none"/>
     <path d="M 57.572,138.283 C 59.611,153.077 56.197,164.718 60.144,176.629 C 67.575,191.914 79.949,208.347 87.009,222.437 C 90.635,226.264 97.695,227.369 99.675,232.592 C 100.025,233.584 101.542,233.004 101.172,232.008 C 98.921,226.112 100.268,220.399 96.12,216.02 C 89.088,201.98 77.94,187.658 70.527,172.391 C 66.792,161.011 61.83,152.113 59.843,137.962 C 59.641,136.446 57.341,136.767 57.572,138.283 Z" fill="#b24c00" marker-start="none" marker-end="none"/>
     <path d="M 52.781,140.122 C 58.505,157.336 59.762,163.522 66.822,174.931 C 71.784,182.495 66.561,174.199 71.311,181.762 C 74.787,190.168 83.223,197.43 88.355,204.29 C 91.861,208.457 93.899,210.707 97.193,214.883 C 102.858,223.231 111.877,225.562 117.622,233.384 C 118.295,234.258 119.582,233.294 118.937,232.421 C 113.333,224.828 110.33,217.395 104.817,209.31 C 101.462,205.051 99.303,202.652 95.767,198.393 C 91.068,192.207 83.806,184.563 80.652,176.921 C 75.781,169.216 80.802,177 75.721,169.267 C 69.092,158.561 66.561,153.509 61.188,137.319 C 59.319,131.745 50.944,134.517 52.781,140.122 Z" fill="#b24c00" marker-start="none" marker-end="none"/>
     <path d="M 61.128,146.398 C 67.204,159.786 69.273,170.793 77.82,181.471 C 83.625,186.984 94.08,195.743 99.062,202.832 C 109.457,209.051 115.433,214.563 130.146,217.013 C 131.16,217.184 131.432,215.608 130.407,215.437 C 116.075,213.047 113.103,204.731 102.948,198.654 C 97.726,191.272 89.842,181.731 83.806,175.986 C 75.601,165.712 69.334,158.149 63.498,145.313 C 62.795,143.736 60.404,144.822 61.128,146.398 Z" fill="#b24c00" marker-start="none" marker-end="none"/>
     <path d="M 73.732,166.767 C 88.616,180.215 101.895,201.196 122.232,207.965 C 126.671,208.668 134.786,209.572 139.506,210.274 C 141.666,209.541 143.745,208.779 146.014,208.517 C 168.25,207.001 187.977,200.874 194.545,184.884 C 195.278,181.238 194.715,178.467 194.223,175.082 C 193.38,169.267 184.622,170.492 185.466,176.337 C 185.787,178.577 185.647,179.633 185.145,182.052 C 179.659,195.389 164.023,201.136 145.432,202.39 C 142.661,202.742 141.585,202.159 138.893,203.063 C 134.173,202.359 128.418,201.456 123.989,200.754 C 104.526,194.255 89.088,178.467 74.817,165.561 C 74.033,164.868 72.948,166.063 73.732,166.767 Z" fill="#b24c00" marker-start="none" marker-end="none"/>
     <path d="M 78.904,196.416 C 85.443,207.734 91.891,215.176 94.22,229.327 C 94.953,233.676 101.493,232.592 100.759,228.242 C 98.278,213.218 87.251,207.645 80.301,195.621 C 79.778,194.687 78.372,195.48 78.904,196.416 Z" fill="#e5664c" marker-start="none" marker-end="none"/>
     <path d="M 86.719,203.063 C 88.325,205.072 88.796,206.94 90.284,208.928 C 93.086,211.841 94.372,214.151 96.088,217.686 C 98.66,221.102 101.693,223.02 105.661,225.038 C 107.438,226.816 108.341,227.841 110.3,229.268 L 113.514,231.688 L 115.995,232.972 C 117.682,233.818 118.908,231.105 117.159,230.431 L 114.85,229.498 L 112.018,227.078 C 110.15,225.711 108.924,224.656 107.206,222.909 C 103.592,221.102 101.172,218.912 98.921,215.96 C 97.052,212.143 95.858,209.923 92.825,206.798 C 91.308,204.812 89.58,204.088 87.974,202.039 C 87.301,201.196 86.055,202.22 86.719,203.063 Z" fill="#e5664c" marker-start="none" marker-end="none"/>
     <path d="M 95.245,201.426 C 100.698,204.932 103.621,207.411 109.246,210.737 C 112.691,213.277 115.644,213.92 119.169,216.431 C 122.322,216.953 124.28,217.686 127.455,217.244 C 129.644,216.953 129.243,213.69 127.022,213.98 C 124.16,214.352 122.615,215.176 119.841,214.734 C 116.427,212.314 114.037,211.118 110.621,208.638 C 105.048,205.313 101.542,203.586 96.12,200.061 C 95.216,199.497 94.372,200.843 95.245,201.426 Z" fill="#e5664c" marker-start="none" marker-end="none"/>
     <path d="M 111.376,197.81 C 127.022,206.358 139.506,205.685 160.115,202.742 C 161.161,202.593 160.929,200.995 159.906,201.166 C 139.688,204.058 127.455,204.781 112.138,196.416 C 111.204,195.882 110.421,197.32 111.376,197.81 Z" fill="#e5664c" marker-start="none" marker-end="none"/>
     <path d="M 170.009,200.201 C 181.468,192.648 184.331,193.724 187.042,180.064 C 187.164,177.03 186.32,175.163 186.551,172.161 C 186.61,170.964 184.833,170.844 184.743,172.039 C 184.532,175.082 183.286,176.539 183.195,179.633 C 180.715,192.097 179.549,191.945 169.125,198.865 C 168.191,199.478 169.095,200.783 170.009,200.201 Z" fill="#e5664c" marker-start="none" marker-end="none"/>
     <path d="M 88.998,125.267 C 92.122,136.295 96.088,140.292 106.714,143.767 C 113.273,144.873 118.155,146.83 123.838,147.352 C 128.861,147.794 121.448,134.748 119.259,139.308 C 118.124,141.638 117.421,145.143 116.226,147.643 C 113.013,154.423 123.136,159.294 126.38,152.524 C 127.575,150.013 128.277,146.509 129.413,144.179 C 131.603,139.619 129.854,136.586 124.834,136.124 C 118.908,135.621 114.237,142.1 107.377,140.965 C 97.665,137.781 93.437,134.929 90.514,124.825 C 90.254,123.811 88.677,124.273 88.998,125.267 Z" fill="#b24c00" marker-start="none" marker-end="none"/>
     <path d="M 130.116,139.328 C 130.116,129.355 129.001,125.468 133.411,119.723 C 134.204,118.7 132.677,117.533 131.894,118.558 C 126.811,125.207 121.971,127.808 121.971,139.328 C 121.971,144.761 130.116,144.761 130.116,139.328 Z" fill="#b24c00" marker-start="none" marker-end="none"/>
     <path d="M 126.058,145.173 C 128.66,145.173 129.503,146.017 130.959,146.721 C 132.387,147.764 133.059,148.207 134.113,149.572 C 137.468,153.951 144.008,148.929 140.652,144.581 C 139.105,142.541 137.609,140.764 135.54,139.217 C 133.179,138.052 130.287,138.313 126.058,138.313 C 121.509,138.313 121.479,145.173 126.058,145.173 Z" fill="#b24c00" marker-start="none" marker-end="none"/>
     <path d="M 121.71,144.259 C 119.671,147.564 115.323,149.371 114.97,154.594 C 114.71,159.002 121.298,159.434 121.589,155.036 C 121.881,150.827 121.68,147.915 123.347,145.283 C 123.989,144.179 122.382,143.155 121.71,144.259 Z" fill="#b24c00" marker-start="none" marker-end="none"/>
     <path d="M 80.16,53.215 C 76.455,55.967 73.472,56.78 69.152,58.739 C 64.663,60.978 61.801,62.675 57.633,65.097 C 55.202,67.547 53.776,69.616 51.848,72.248 C 46.483,79.479 37.636,93.78 45.611,104.055 C 46.253,104.899 47.529,103.934 46.885,103.061 C 39.715,93.811 51.204,81.849 56.085,75.37 C 57.803,72.971 58.968,71.515 61.017,69.474 C 64.895,67.135 66.59,64.745 70.961,62.555 C 75.52,60.485 77.529,57.916 81.466,55.003 C 82.671,54.129 81.324,52.341 80.16,53.215 Z" fill="#b24c00" marker-start="none" marker-end="none"/>
     <path d="M 60.896,64.745 C 53.223,70.318 52.52,70.489 47.299,73.964 C 43.772,75.863 42.859,76.887 39.795,79.107 C 36.09,83.015 34.784,84.912 31.248,88.648 C 30.404,89.552 31.77,90.858 32.674,89.934 C 36.24,86.169 39.333,86.599 43.039,82.812 C 45.691,80.885 46.715,80.213 49.979,78.464 C 55.232,74.898 55.935,74.286 63.728,68.631 C 66.32,66.734 63.498,62.817 60.896,64.745 Z" fill="#b24c00" marker-start="none" marker-end="none"/>
     <path d="M 24.509,91.179 C 30.284,102.74 14.234,111.578 21.094,125.438 C 21.586,126.402 23.022,125.679 22.551,124.715 C 14.466,108.454 41.343,99.707 34.603,86.169 C 31.248,79.449 21.155,84.5 24.509,91.179 Z" fill="#b24c00" marker-start="none" marker-end="none"/>
     <path d="M 32.061,83.657 C 21.295,84.409 16.485,89.844 11.874,96.09 C 7.405,102.127 16.453,108.806 20.924,102.769 C 23.716,99.003 26.378,95.357 32.855,94.885 C 40.358,94.393 39.565,83.135 32.061,83.657 Z" fill="#b24c00" marker-start="none" marker-end="none"/>
     <path d="M 38.398,82.462 C 36.622,81.558 36.269,80.654 34.752,79.479 C 33.087,78.253 32.273,78.203 30.787,76.707 C 26.667,68.361 18.172,70.118 12.286,76.276 C 11.553,77.057 12.717,78.143 13.452,77.38 C 16.424,74.286 20.251,78.544 22.289,82.782 C 24.247,84.702 25.824,86.841 27.924,88.408 C 30.054,90.074 31.277,89.984 33.789,91.271 C 39.655,94.364 44.295,85.556 38.398,82.462 Z" fill="#b24c00" marker-start="none" marker-end="none"/>
     <path d="M 36.12,83.796 C 33.116,81.789 29.35,78.927 24.338,78.544 C 19.396,78.544 16.835,82.812 13.943,84.008 C 11.613,84.993 13.07,88.498 15.4,87.503 C 17.649,86.599 20.191,89.261 23.866,89.402 C 26.869,89.613 29.38,89.934 31.248,91.16 C 36.12,94.424 41.02,87.072 36.12,83.796 Z" fill="#b24c00" marker-start="none" marker-end="none"/>
     <path d="M 173.013,65.649 C 180.394,67.085 182.935,70.489 186.721,75.603 C 188.218,78.544 189.001,81.117 189.001,85.556 C 187.544,90.778 190.086,86.308 187.926,90.747 C 187.454,91.71 188.911,92.405 189.383,91.451 C 191.653,86.781 190.317,91.501 191.893,85.986 C 191.893,80.734 192.294,76.707 190.577,73.211 C 186.289,67.456 181.678,65.679 173.302,64.072 C 172.279,63.872 171.957,65.478 173.013,65.649 Z" fill="#b24c00" marker-start="none" marker-end="none"/>
     <path d="M 188.68,83.185 C 179.168,81.056 176.918,79.92 169.446,83.625 C 162.738,87.012 167.759,97.075 174.469,93.72 C 179.079,91.421 180.424,92.877 186.199,94.193 C 193.551,95.82 196,84.822 188.68,83.185 Z" fill="#b24c00" marker-start="none" marker-end="none"/>
     <path d="M 184.219,84.972 C 180.856,91.681 181.97,97.657 177.42,103.473 C 175.693,105.682 179.048,108.283 180.775,106.065 C 185.616,99.847 190.699,97.165 194.284,89.984 C 197.638,83.275 187.575,78.253 184.219,84.972 Z" fill="#b24c00" marker-start="none" marker-end="none"/>
     <path d="M 184.099,85.375 C 185.937,96.814 195.629,101.956 204.698,92.877 C 205.431,92.093 204.317,90.978 203.534,91.742 C 198.512,96.753 195.419,90.074 194.405,83.748 C 193.321,76.857 182.964,78.514 184.099,85.375 Z" fill="#b24c00" marker-start="none" marker-end="none"/>
     <path d="M 118.004,157.978 C 122.674,156.141 123.136,156.341 125.617,153.077 C 126.028,151.089 126.26,149.432 126.671,147.272 C 126.962,145.786 124.682,145.344 124.391,146.86 C 123.989,148.959 123.377,150.075 122.965,151.882 C 121.037,154.443 121.418,154.885 117.392,156.462 C 116.396,156.874 116.979,158.39 118.004,157.978 Z" fill="#e5664c" marker-start="none" marker-end="none"/>
     <path d="M 128.599,146.047 C 131.513,147.994 134.314,150.246 138.463,150.888 C 139.536,151.059 139.769,149.432 138.722,149.28 C 134.817,148.698 132.216,146.539 129.503,144.702 C 128.63,144.089 127.726,145.434 128.599,146.047 Z" fill="#e5664c" marker-start="none" marker-end="none"/>
     <path d="M 123.899,136.415 C 123.899,129.093 128.047,125.297 130.959,121.39 C 130.959,121.39 132.677,119.021 132.677,119.021 C 133.35,118.176 132.125,117.212 131.432,118.026 L 129.533,120.305 C 126.441,124.452 122.322,128.651 122.322,136.415 C 122.322,137.489 123.899,137.489 123.899,136.415 Z" fill="#e5664c" marker-start="none" marker-end="none"/>
     <path d="M 21.707,125.618 C 17.389,122.435 20.864,125.146 19.166,121.792 C 19.056,120.135 18.995,119.08 19.107,117.303 C 19.107,117.303 18.443,111.146 18.412,110.272 C 19.166,107.088 19.638,105.863 21.356,103.473 C 23.132,100.579 24.57,98.572 26.548,96.493 L 29.441,94.132 C 30.284,93.49 29.321,92.235 28.447,92.877 L 25.322,95.157 C 23.284,97.316 21.707,99.496 19.869,102.449 C 17.971,105.049 17.649,106.535 16.806,110.091 C 16.806,110.503 17.218,116.6 17.298,117.333 C 17.218,119.17 17.218,120.456 17.298,122.324 C 19.578,126.493 15.783,123.259 20.743,126.935 C 21.586,127.547 22.551,126.261 21.707,125.618 Z" fill="#e5664c" marker-start="none" marker-end="none"/>
     <path d="M 14.877,100.52 C 14.123,95.881 15.842,93.951 18.061,90.978 L 22.058,88.065 C 23.634,86.892 21.969,84.592 20.362,85.695 L 15.932,88.789 C 13.3,92.294 12.396,95.327 13.3,100.78 C 13.452,101.836 15.058,101.575 14.877,100.52 Z" fill="#e5664c" marker-start="none" marker-end="none"/>
     <path d="M 180.484,107.208 C 177.943,103.814 181.739,100.119 184.241,96.703 C 186.581,93.227 185.556,92.525 188.389,89.613 C 189.584,88.357 187.715,86.519 186.52,87.764 C 183.427,90.949 182.523,89.904 179.982,93.72 C 176.626,98.22 175.574,103.844 178.937,108.344 C 179.692,109.368 181.237,108.222 180.484,107.208 Z" fill="#e5664c" marker-start="none" marker-end="none"/>
     <path d="M 171.053,90.858 C 173.302,85.815 172.891,86.892 177.732,85.524 C 180.013,85.405 180.775,84.329 183.046,83.859 C 185.355,83.425 184.682,79.979 182.402,80.443 C 180.363,80.793 178.846,79.89 176.828,79.979 C 169.627,82.049 170.21,81.467 166.855,88.94 C 165.57,91.742 169.798,93.661 171.053,90.858 Z" fill="#e5664c" marker-start="none" marker-end="none"/>
     <path d="M 127.254,61.882 L 124.512,63.029 C 122.734,65.217 122.002,68.652 121.801,72.83 C 124.571,76.596 122.674,74.577 126.321,75.894 C 126.932,76.124 126.028,73.964 125.797,74.607 L 124.772,77.18 C 125.094,83.979 129.584,86.458 135.077,87.625 C 139.455,85.313 139.718,85.845 141.585,82.14 C 142.339,80.563 140.008,79.399 139.215,80.975 C 137.669,84.089 138.542,84.179 134.867,86.137 C 130.146,85.083 126.581,83.366 126.321,77.5 L 127.514,75.42 C 127.838,74.808 127.635,74.377 126.962,74.115 C 123.989,73.031 125.355,75.08 123.347,72.358 C 123.608,69.063 125.094,67.377 126.581,65.508 L 128.448,64.222 C 129.886,63.229 128.861,61.24 127.254,61.882 Z" fill="#e5664c" marker-start="none" marker-end="none"/>
     <path d="M 143.774,85.495 C 146.337,91.561 147.562,93.227 152.03,89.814 L 153.899,89.432 C 159.906,92.435 161.512,93.287 163.209,86.248 C 163.581,84.652 158.83,86.951 160.347,87.625 C 168.924,91.681 168.784,87.272 170.09,78.143 L 172.047,75.774 C 172.368,75.31 172.69,74.668 172.459,74.147 L 170.501,69.967 C 176.166,65.066 176.276,62.416 171.404,57.775 C 168.924,57.243 165.508,58.236 163.059,58.147 C 161.984,58.096 161.894,59.672 162.968,59.723 C 165.308,59.843 166.594,62.002 168.924,62.495 C 171.496,64.946 171.607,66.642 168.603,69.215 L 168.08,73.875 L 166.011,76.506 C 165.278,81.588 166.885,86.169 162.096,83.888 C 160.579,83.185 159.584,83.657 159.212,85.294 C 158.279,89.141 157.545,89.581 154.25,87.945 L 151.267,87.534 C 148.355,89.783 146.918,88.848 145.262,84.852 C 144.851,83.859 143.364,84.5 143.774,85.495 Z" fill="#e5664c" marker-start="none" marker-end="none"/>
     <path d="M 135.017,68.391 C 133.641,71.102 132.154,72.649 130.437,74.99 C 128.74,77.18 132.064,79.659 133.703,77.471 C 135.6,74.929 135.89,72.507 137.347,69.586 C 138.141,68.019 135.77,66.844 135.017,68.391 Z" fill="#e5664c" marker-start="none" marker-end="none"/>
     <path d="M 139.628,71.605 L 140.21,79.338 C 140.472,82.812 145.694,82.402 145.432,78.927 L 144.821,71.193 C 144.558,67.718 139.335,68.13 139.628,71.605 Z" fill="#e5664c" marker-start="none" marker-end="none"/>
     <path d="M 149.29,73.644 C 150.685,75.833 151.037,77.61 152.231,79.8 C 153.136,81.437 155.616,80.122 154.712,78.464 C 153.486,76.214 152.06,75.019 150.624,72.77 C 150.043,71.865 148.706,72.741 149.29,73.644 Z" fill="#e5664c" marker-start="none" marker-end="none"/>
     <path d="M 156.028,69.325 L 159.212,71.373 L 161.803,71.344 C 163.351,71.284 163.351,69.063 161.803,69.034 L 159.824,69.034 L 156.962,67.668 C 155.817,67.105 154.943,68.631 156.028,69.325 Z" fill="#e5664c" marker-start="none" marker-end="none"/>
     <path d="M 217.625,75.37 C 222.124,77.581 218.418,76.596 221.834,79.107 C 231.776,90.778 250.306,110.644 240.625,130.077 C 239.981,132.217 240.333,133.583 239.66,135.3 C 237.38,141.226 246.279,144.671 248.558,138.775 C 249.323,136.827 250.277,136.676 251.04,134.316 C 262.861,110.534 241.617,85.173 229.416,70.931 C 225.097,67.718 227.287,70.318 221.592,67.426 C 216.319,64.805 212.341,72.741 217.625,75.37 Z" fill="#b24c00" marker-start="none" marker-end="none"/>
     <path d="M 225.57,78.113 C 230.7,84.852 233.122,91.038 238.174,97.607 C 241.94,105.069 244.271,109.188 248.729,115.755 C 254.896,131.102 265.282,136.535 271.961,149.864 C 272.432,150.797 273.859,150.104 273.396,149.141 C 266.888,136.124 264.608,125.468 258.622,110.473 C 254.453,104.376 251.16,98.621 247.654,91.622 C 242.602,85.053 235.693,81.117 230.521,74.347 C 227.99,71.052 223.058,74.808 225.57,78.113 Z" fill="#b24c00" marker-start="none" marker-end="none"/>
     <path d="M 234.226,86.016 C 241.498,92.003 246.018,101.544 252.616,108.143 C 263.121,118.667 270.824,124.624 286.845,128.269 C 287.93,128.512 288.241,126.935 287.226,126.663 C 272.05,123.259 270.534,110.121 260.581,100.169 C 253.841,93.46 245.988,86.841 238.575,80.704 C 235.02,77.822 230.7,83.135 234.226,86.016 Z" fill="#b24c00" marker-start="none" marker-end="none"/>
     <path d="M 251.974,110.241 C 255.509,112.923 256.262,116.459 259.998,118.939 C 265.804,122.495 271.578,123.781 277.685,126.844 C 279.724,127.255 281.009,128.009 283.108,128.39 C 285.178,128.802 285.759,125.729 283.721,125.357 C 281.622,124.945 280.487,124.886 278.498,124.503 C 272.513,121.5 268.515,118.006 262.801,114.53 C 259.215,112.14 256.352,111.548 252.937,108.956 C 252.123,108.283 251.13,109.568 251.974,110.241 Z" fill="#e5664c" marker-start="none" marker-end="none"/>
     <path d="M 246.338,109.368 C 250.015,116.278 252.325,120.305 251.913,130.228 C 250.979,136.234 250.136,139.679 246.57,142.311 C 245.696,142.922 246.631,144.239 247.534,143.626 C 251.591,140.584 254.333,137.44 255.418,130.55 C 255.82,119.953 251.683,115.987 247.745,108.605 C 247.244,107.671 245.847,108.434 246.338,109.368 Z" fill="#e5664c" marker-start="none" marker-end="none"/>
     <path d="M 255.82,126.582 C 257.055,129.585 258.04,131.804 259.355,134.427 C 261.806,139.387 264.637,143.325 269.307,146.509 C 270.182,147.151 271.086,145.806 270.213,145.194 C 265.804,142.161 263.412,138.283 261.073,133.583 C 259.768,130.982 258.512,128.972 257.346,125.97 C 256.935,124.976 255.449,125.558 255.82,126.582 Z" fill="#e5664c" marker-start="none" marker-end="none"/>
     <path d="M 250.427,61.42 C 258.251,63.842 272.693,65.478 282.937,63.842 C 284.012,63.689 283.751,62.093 282.676,62.265 C 272.663,63.842 258.542,62.265 250.888,59.904 C 249.873,59.553 249.401,61.099 250.427,61.42 Z" fill="#b24c00" marker-start="none" marker-end="none"/>
     <path d="M 287.367,58.528 C 281.149,53.917 276.811,50.011 274.652,41.465 C 274.381,40.41 272.833,40.792 273.105,41.836 C 275.846,52.663 272.804,61.803 280.688,67.578 C 286.725,72.037 293.413,62.997 287.367,58.528 Z" fill="#b24c00" marker-start="none" marker-end="none"/>
     <path d="M 279.05,60.426 C 280.567,69.797 286.112,75.511 290.52,81.437 C 291.133,82.28 292.448,81.317 291.806,80.472 C 287.777,75.08 291.574,67.196 290.168,58.649 C 288.974,51.237 277.856,53.014 279.05,60.426 Z" fill="#b24c00" marker-start="none" marker-end="none"/>
     <path d="M 286.232,68.631 C 297.23,70.148 297.61,60.196 301.729,53.305 C 302.13,51.619 302.282,50.071 302.694,48.344 C 302.953,47.33 301.377,46.948 301.146,47.992 C 300.734,49.721 300.062,50.855 299.65,52.462 C 297.23,56.519 294.427,58.418 287.809,57.484 C 280.396,56.46 278.82,67.607 286.232,68.631 Z" fill="#b24c00" marker-start="none" marker-end="none"/>
     <path d="M 326.848,102.649 C 344.393,104.376 358.223,104.316 364.872,92.907 C 366.68,90.457 367.352,88.558 368.487,85.666 C 369.953,81.849 364.229,79.659 362.742,83.446 C 361.868,85.786 360.764,87.303 359.328,89.291 C 353.523,99.204 342.285,102.539 327.028,101.043 C 325.914,100.962 325.803,102.539 326.848,102.649 Z" fill="#b24c00" marker-start="none" marker-end="none"/>
     <path d="M 280.425,66.201 C 281.149,75.863 282.355,78.404 290.199,82.251 C 291.164,82.753 291.866,81.286 290.902,80.826 C 284.072,77.439 284.685,74.377 284.012,65.94 C 283.841,63.55 280.216,63.78 280.425,66.201 Z" fill="#e5664c" marker-start="none" marker-end="none"/>
     <path d="M 280.366,59.874 C 275.846,56.338 272.864,50.684 272.864,42.248 C 272.864,41.194 271.237,41.194 271.237,42.248 C 271.237,51.728 273.124,58.709 278.236,62.646 C 280.075,64.072 282.234,61.3 280.366,59.874 Z" fill="#e5664c" marker-start="none" marker-end="none"/>
     <path d="M 292.157,66.201 C 301.407,63.43 300.613,66.441 304.792,61.36 C 305.635,59.493 306.219,57.714 306.861,55.787 C 308.267,51.587 301.96,49.489 300.564,53.657 C 300.032,55.324 299.799,56.168 299.037,57.745 C 295.894,61.591 298.374,61.39 291.334,63.519 C 289.557,64.043 290.35,66.734 292.157,66.201 Z" fill="#e5664c" marker-start="none" marker-end="none"/>
     <path d="M 44.325,235.072 C 48.935,244.502 58.034,242.313 57.892,231.628 C 57.803,227.259 55.614,224.456 54.97,220.51 C 54.067,214.704 54.97,204.75 53.807,199.56 C 51.617,168.926 39.565,152.113 46.224,121.5 C 47.558,115.343 49.637,110.032 52.26,105.36 C 59.38,88.065 67.234,76.244 77.729,63.029 C 80.973,60.627 80.21,62.093 83.253,59.964 C 84.558,57.213 83.775,57.102 86.577,55.404 C 87.481,54.822 86.638,53.486 85.704,54.04 C 82.199,56.197 82.229,54.822 80.712,57.824 C 78.171,59.693 79.898,59.433 76.655,61.882 C 65.858,75.401 54.589,85.265 47.267,102.97 C 44.435,108.112 41.693,113.445 40.206,120.184 C 33.437,151.47 43.45,169.448 45.691,200.703 C 46.774,205.775 47.238,215.93 48.142,221.562 C 48.724,225.269 51.154,227.689 51.264,231.748 C 51.324,236.417 47.77,238.457 45.751,234.349 C 45.289,233.384 43.822,234.108 44.325,235.072 Z" fill="#ccff7f" marker-start="none" marker-end="none"/>
     <path d="M 330.353,94.193 C 335.083,91.331 344.474,92.646 348.531,89.662 C 354.427,85.344 357.842,72.539 357.23,63.901 C 356.737,56.871 350.279,56.66 350.781,63.671 C 351.162,69.555 347.507,79.95 343.539,82.893 C 339.803,85.606 333.858,90.165 329.539,92.816 C 328.604,93.369 329.448,94.744 330.353,94.193 Z" fill="#ccff7f" marker-start="none" marker-end="none"/>
     <path d="M 49.517,439.547 C 48.231,439.95 46.012,439.457 44.265,439.627 C 36.913,440.219 32.414,437.529 28.094,434.496 C 24.247,430.698 22.319,428.599 20.512,422.704 C 20.222,419.73 20.039,418.124 19.929,415.151 C 17.189,396.68 26.025,386.376 35.044,377.357 C 41.492,370.88 45.722,362.623 53.514,357.341 C 58.828,353.345 65.507,350.191 69.655,345.932 C 72.397,343.683 71.784,340.066 74.757,337.876 C 75.601,337.204 74.646,335.948 73.793,336.561 C 70.99,338.669 68.479,339.453 65.688,341.523 C 61.74,345.702 57.16,351.414 52.059,355.303 C 44.114,360.666 37.726,366.852 31.128,373.451 C 21.245,383.374 13.391,395.165 16.453,415.473 C 16.545,418.536 16.775,420.344 17.097,423.377 C 19.107,429.946 21.998,432.487 26.196,436.715 C 31.128,440.159 36.3,444.096 44.617,443.424 C 46.544,443.223 48.614,441.526 49.979,441.093 C 51.033,440.772 50.542,439.256 49.517,439.547 Z" fill="#000000" marker-start="none" marker-end="none"/>
     <path d="M 72.778,400.297 C 69.011,398.81 68.981,396.44 66.21,394.402 C 61.629,385.242 64.804,376.223 67.957,367.726 C 70.006,363.619 72.166,359.652 76.013,356.82 C 79.597,351.977 79.166,353.203 81.094,349.256 C 84.83,344.586 85.492,338.61 87.511,332.774 C 87.864,331.75 86.317,331.228 85.965,332.242 C 84.127,337.676 80.421,342.286 76.947,346.665 C 75.229,350.191 75.52,349.316 72.506,353.374 C 68.338,356.608 67.283,361.63 64.895,366.42 C 61.45,375.811 58.184,386.699 63.256,396.823 C 66.18,399.012 68.218,400.237 72.166,401.783 C 73.149,402.195 73.762,400.678 72.778,400.297 Z" fill="#000000" marker-start="none" marker-end="none"/>
     <path d="M 88.094,330.967 C 90.314,324.811 92.704,321.828 95.035,315.7 C 96.059,313.542 96.672,311.764 97.405,309.514 L 98.741,305.457 C 99.765,302.283 100.085,297.904 100.698,294.398 C 100.9,292.591 101.462,291.456 101.573,289.618 C 101.573,287.508 101.191,286.284 101.191,284.155 C 101.191,283.08 99.595,283.08 99.595,284.155 C 99.595,286.284 99.242,287.459 99.242,289.527 C 99.153,291.336 99.303,292.411 99.121,294.198 C 98.509,297.552 97.254,301.61 96.239,304.673 C 96.239,304.673 95.216,308.641 95.185,308.841 C 94.482,311.001 93.699,312.667 92.704,314.707 C 90.394,320.834 88.827,324.278 86.609,330.405 C 86.227,331.398 87.744,331.981 88.094,330.967 Z" fill="#000000" marker-start="none" marker-end="none"/>
     <path d="M 48.06,281.533 C 42.015,281.533 45.109,280.278 39.745,281.995 C 28.627,289.589 24.68,309.254 37.405,318.764 C 38.279,319.407 39.243,318.121 38.369,317.479 C 27.401,309.314 32.273,292.822 41.874,286.314 C 46.454,284.796 42.889,284.366 48.06,284.366 C 49.929,284.366 49.929,281.533 48.06,281.533 Z" fill="#000000" marker-start="none" marker-end="none"/>
     <path d="M 71.553,311.764 C 83.865,306.893 89.32,293.665 93.577,281.061 C 93.959,277.476 93.467,274.262 93.467,270.474 C 93.467,264.952 93.256,260.904 92.553,256.876 L 90.022,252.266 C 89.409,251.242 88.064,251.764 88.325,252.929 L 89.38,257.78 C 90.053,261.597 90.666,265.163 90.666,270.474 C 90.666,274.151 89.963,276.712 89.551,280.187 C 85.554,292.149 82.61,305.668 70.961,310.247 C 69.976,310.619 70.558,312.146 71.553,311.764 Z" fill="#000000" marker-start="none" marker-end="none"/>
     <path d="M 54.62,233.354 C 50.944,236.096 48.383,232.391 47.941,228.072 C 46.807,215.96 52.43,200.703 49.457,188.561 C 48.724,186.632 48.091,184.945 47.71,182.815 C 43.532,169.267 39.043,161.534 37.314,145.786 C 37.314,142.773 37.555,141.195 37.555,138.193 C 39.012,121.441 43.883,110.765 51.033,99.877 C 51.617,98.973 50.271,98.1 49.658,99.003 C 42.366,110.212 36.149,120.857 34.633,138.052 C 34.633,141.085 34.834,142.922 34.834,145.926 C 36.592,161.976 38.077,170.291 42.366,184.092 C 42.808,186.602 43.362,187.888 44.205,190.198 C 47.097,201.98 44.646,216.481 45.751,228.302 C 46.333,234.398 50.591,238.747 55.764,234.87 C 56.778,234.108 55.643,232.592 54.62,233.354 Z" fill="#000000" marker-start="none" marker-end="none"/>
     <path d="M 59.149,225.361 C 66.502,226.785 67.636,225.622 69.684,219.343 C 66.913,205.424 55.995,200.201 50.481,189.022 C 50.01,188.068 48.553,188.792 49.026,189.756 C 54.358,200.492 62.935,205.685 65.597,219.113 C 64.191,223.372 64.461,224.748 59.47,223.752 C 58.385,223.552 58.095,225.149 59.149,225.361 Z" fill="#000000" marker-start="none" marker-end="none"/>
     <path d="M 82.138,235.012 C 79.196,227.982 79.135,225.47 75.981,220.309 C 74.173,217.596 72.948,215.96 71.282,213.218 C 69.705,210.536 67.928,209.251 65.978,206.769 C 65.305,205.926 64.05,206.94 64.693,207.765 C 66.59,210.155 67.374,212.084 68.831,214.624 C 70.558,217.446 71.784,219.083 73.592,221.795 C 76.685,226.846 77.79,228.775 80.652,235.625 C 81.094,236.618 82.55,236.005 82.138,235.012 Z" fill="#000000" marker-start="none" marker-end="none"/>
     <path d="M 141.726,168.223 C 136.533,157.747 129.854,163.934 120.364,160.78 C 112.75,157.888 106.012,156.663 99.474,152.022 C 87.19,143.385 80.823,114.5 88.094,96.111 C 88.476,95.126 86.989,94.513 86.609,95.498 C 78.612,115.755 82.058,148.145 95.537,157.627 C 102.628,162.619 109.166,166.003 117.421,169.128 C 126.932,172.31 135.077,158.39 140.301,168.946 C 140.762,169.911 142.228,169.187 141.726,168.223 Z" fill="#000000" marker-start="none" marker-end="none"/>
     <path d="M 61.74,93.982 C 62.935,92.324 64.483,91.852 66.38,91.13 C 66.732,90.978 64.834,90.747 65.125,90.918 L 67.757,92.324 C 68.721,92.816 69.473,91.852 68.751,91.068 L 66.761,88.879 C 66.411,88.498 65.918,88.498 65.476,88.677 C 63.147,89.552 61.921,91.038 60.455,93.048 C 59.822,93.9 61.128,94.835 61.74,93.982 Z" fill="#000000" marker-start="none" marker-end="none"/>
     <path d="M 64.161,85.204 C 66.882,82.491 65.275,84.068 68.831,85.234 C 71.341,86.048 72.537,82.31 70.057,81.498 C 64.282,79.6 67.283,79.509 62.885,83.918 C 62.031,84.792 63.318,86.048 64.161,85.204 Z" fill="#000000" marker-start="none" marker-end="none"/>
     <path d="M 67.465,75.19 C 68.691,74.839 69.886,75.42 70.619,76.386 C 72.456,78.866 76.163,76.094 74.325,73.644 C 72.627,71.373 69.444,71.574 66.622,72.419 C 64.753,72.971 65.597,75.774 67.465,75.19 Z" fill="#000000" marker-start="none" marker-end="none"/>
     <path d="M 73.531,68.631 L 76.163,68.361 L 77.679,69.325 C 81.295,70.962 83.775,65.94 80.331,64.012 L 77.94,62.736 C 77.529,62.495 76.534,62.325 76.072,62.445 L 72.627,63.489 C 69.302,64.514 70.057,69.034 73.531,68.631 Z" fill="#000000" marker-start="none" marker-end="none"/>
     <path d="M 34.984,20.453 C 28.857,15.693 25.935,18.293 23.375,24.972 C 28.537,38.742 62.182,42.217 76.393,36.413 C 81.817,35.127 83.223,32.676 88.557,31.682 C 91.861,31.039 94.13,29.703 97.986,29.995 C 100.9,30.106 104.315,30.978 106.274,31.391 C 108.201,32.184 110.562,32.094 112.58,32.767 C 116.899,34.023 119.812,36.211 123.547,37.699 C 126.581,39.767 126.47,39.355 129.474,40.792 L 130.82,43.213 C 131.894,44.959 134.756,42.83 133.32,41.313 L 131.02,38.893 C 128.188,37.516 128.127,36.823 125.124,34.745 C 121.247,33.259 117.712,31.571 113.363,30.255 C 111.496,29.674 109.567,27.715 107.819,26.811 C 105.75,26.399 101.341,25.876 98.218,25.786 C 93.759,25.435 91.127,24.531 87.331,25.294 C 81.817,26.289 79.98,28.88 74.374,30.195 C 61.45,35.478 29.561,37.547 24.891,24.972 C 26.758,19.981 29.028,18.756 33.589,22.261 C 34.813,23.194 36.21,21.388 34.984,20.453 Z" fill="#000000" marker-start="none" marker-end="none"/>
     <path d="M 199.999,112.19 C 191.893,112.19 186.721,114.27 182.725,119.814 C 177.502,127.748 182.112,139.448 189.493,143.064 C 190.427,143.567 191.16,142.1 190.197,141.638 C 184.481,138.806 183.487,129.264 187.544,123.077 C 190.81,118.528 193.35,114.007 199.999,114.007 C 201.193,114.007 201.193,112.19 199.999,112.19 Z" fill="#000000" marker-start="none" marker-end="none"/>
     <path d="M 205.924,143.155 C 223.289,143.155 233.996,132.238 238.435,119.251 C 238.956,116.66 238.987,114.62 239.309,112.051 C 239.309,106.937 237.38,103.612 236.565,99.847 C 236.335,98.832 234.759,99.153 234.989,100.229 C 235.773,103.765 234.468,106.908 234.468,111.758 C 234.206,114.209 233.594,115.375 233.122,117.795 C 229.124,129.555 221.562,141.548 205.924,141.548 C 204.85,141.548 204.85,143.155 205.924,143.155 Z" fill="#000000" marker-start="none" marker-end="none"/>
     <path d="M 150.514,33.901 C 158.509,26.752 167.468,21.237 177.622,16.597 C 182.964,14.086 192.767,13.212 199.186,16.426 C 204.468,19.981 209.34,21.036 211.699,28.066 C 212.633,33.781 210.213,35.94 206.075,38.019 C 199.336,37.457 199.858,33.088 201.866,27.976 C 203.091,26.318 204.88,26.048 207.009,26.369 C 208.084,26.519 208.314,24.943 207.271,24.772 C 204.177,24.299 201.114,24.189 199.356,26.581 C 196.153,34.715 196.263,42.017 207.009,42.86 C 212.553,40.089 214.501,35.329 213.225,27.684 C 210.504,19.459 209.369,13.765 203.212,9.597 C 195.157,5.569 182.692,9.918 175.954,13.041 C 165.57,17.822 157.666,25.355 149.4,32.707 C 148.617,33.41 149.691,34.634 150.514,33.901 Z" fill="#000000" marker-start="none" marker-end="none"/>
     <path d="M 183.166,38.28 C 186.812,36.443 189.353,36.734 192.878,35.007 C 194.514,34.545 195.419,33.288 197.176,32.877 C 198.19,32.647 197.839,31.069 196.795,31.33 C 195.036,31.742 193.38,31.22 191.653,31.592 C 188.036,33.44 185.908,34.745 182.291,36.584 C 181.147,37.146 182,38.863 183.166,38.28 Z" fill="#000000" marker-start="none" marker-end="none"/>
     <path d="M 216.782,29.905 C 222.677,29.292 226.553,30.547 231.867,31.421 C 236.597,32.184 237.642,32.997 240.765,34.775 L 243.105,36.03 C 246.55,40.903 246.49,45.111 243.918,51.528 C 239.539,55.113 233.996,57.714 228.542,53.486 C 227.699,52.843 226.704,54.099 227.547,54.762 C 234.346,59.995 242.231,58.739 247.715,54.299 C 250.808,46.416 249.342,39.998 245.114,34.023 L 242.663,31.833 C 239.138,29.814 237.792,28.8 232.449,27.976 C 226.904,27.011 222.797,27.684 216.61,28.268 C 215.556,28.417 215.697,29.995 216.782,29.905 Z" fill="#000000" marker-start="none" marker-end="none"/>
     <path d="M 227.638,50.594 C 227.638,47.38 228.894,46.365 230.089,44.206 C 233.001,42.096 232.74,42.217 235.372,44.347 L 236.276,46.104 C 237.09,47.561 238.696,47.118 238.696,45.462 L 238.755,42.889 C 238.755,42.539 238.345,42.096 238.113,41.866 C 233.273,37.959 232.339,37.578 226.995,41.483 C 225.538,44.056 226.031,46.688 226.031,50.594 C 226.031,51.668 227.638,51.668 227.638,50.594 Z" fill="#000000" marker-start="none" marker-end="none"/>
     <path d="M 103.592,103.091 C 105.219,93.52 108.141,89 110.421,82.02 C 114.126,76.707 115.995,70.47 122.202,68.019 C 123.196,67.638 122.615,66.151 121.619,66.522 C 114.91,69.154 110.07,74.115 106.071,79.86 C 103.731,87.012 103.651,93.048 102.015,102.829 C 101.864,103.875 103.441,104.136 103.592,103.091 Z" fill="#000000" marker-start="none" marker-end="none"/>
     <path d="M 219.784,103.182 C 210.133,85.635 202.219,72.63 183.255,64.895 L 180.826,63.811 C 179.4,63.229 178.435,65.158 179.811,65.91 L 182.201,67.255 C 200.611,74.789 208.987,86.892 218.389,103.934 C 218.91,104.899 220.316,104.115 219.784,103.182 Z" fill="#000000" marker-start="none" marker-end="none"/>
     <path d="M 243.075,61.33 C 252.968,67.958 262.217,74.115 272.723,79.047 C 274.53,79.979 275.846,80.443 277.655,81.347 C 282.083,83.135 284.946,84.039 290.61,84.44 C 296.475,83.275 301.609,81.93 303.858,76.536 C 304.27,75.54 302.773,74.898 302.372,75.894 C 300.383,80.734 295.682,81.206 290.49,82.251 C 285.098,81.879 282.725,80.975 278.529,79.338 C 276.78,78.434 275.607,77.701 273.827,76.797 C 263.412,71.896 253.781,66.583 243.949,59.964 C 243.075,59.371 242.201,60.718 243.075,61.33 Z" fill="#000000" marker-start="none" marker-end="none"/>
     <path d="M 309.984,95.97 C 324.225,100.78 340.979,101.714 350.601,91.651 C 351.855,89.081 351.805,86.721 352.709,84.239 C 353.08,83.246 351.564,82.662 351.213,83.657 C 350.309,86.108 348.471,86.811 347.245,89.341 C 338.408,98.592 323.584,98.882 310.507,94.454 C 309.493,94.101 308.99,95.648 309.984,95.97 Z" fill="#000000" marker-start="none" marker-end="none"/>
     <path d="M 288.591,15.171 C 287.337,18.937 286.321,22.11 286.845,26.811 C 286.934,27.595 287.367,27.976 288.16,27.976 C 297.992,27.976 304.35,30.808 312.847,28.94 C 315.468,28.297 318.973,27.192 322.801,27.192 C 328.484,26.752 334.209,26.781 340.276,26.781 C 346.602,28.187 349.787,26.519 355.211,29.201 C 356.174,29.674 356.877,28.207 355.912,27.744 C 350.199,24.943 347.597,22.17 340.918,20.715 C 334.732,20.715 328.394,21.146 322.619,21.558 C 318.18,21.558 314.304,21.437 311.271,22.17 C 303.215,23.949 297.471,25.355 288.16,25.355 C 287.367,25.355 289.526,27.303 289.446,26.519 C 288.944,22.17 288.944,19.169 290.108,15.663 C 290.43,14.668 288.913,14.146 288.591,15.171 Z" fill="#000000" marker-start="none" marker-end="none"/>
     <path d="M 358.655,70.991 C 360.995,61.742 357.782,43.703 351.504,40.58 C 344.945,37.407 333.326,35.067 328.022,40.148 C 323.754,44.206 329.83,50.624 334.119,46.567 C 337.444,43.382 344.715,44.115 348.792,46.125 C 353.984,48.666 359.036,62.937 357.109,70.58 C 356.847,71.635 358.394,72.017 358.655,70.991 Z" fill="#000000" marker-start="none" marker-end="none"/>
     <path d="M 375.316,90.808 C 379.786,79.509 388.364,64.836 385.472,50.564 C 383.522,42.568 378.239,37.808 373.419,32.796 C 369.633,28.8 363.677,34.514 367.473,38.45 C 371.149,42.278 373.046,46.918 374.502,53.014 C 377.105,65.879 377.859,80.012 373.83,90.194 C 373.419,91.179 374.916,91.792 375.316,90.808 Z" fill="#ccff7f" marker-start="none" marker-end="none"/>
     <path d="M 285.298,15.281 L 282.355,16.627 C 271.437,31.279 285.759,41.806 300.292,38.19 C 301.317,37.959 300.966,36.413 299.92,36.644 C 287.688,39.677 275.314,31.13 284.514,18.817 L 286.353,16.777 C 287.165,15.864 286.403,14.789 285.298,15.281 Z" fill="#ccff7f" marker-start="none" marker-end="none"/>
     <path d="M 296.968,37.778 C 298.374,40.611 300.062,42.539 302.924,43.945 C 307.303,43.644 311.33,43.272 314.273,42.127 C 320.872,40.852 325.834,39.797 334.029,39.797 C 336.308,39.889 336.981,39.124 338.759,39.415 C 339.803,39.596 340.074,38.019 339.02,37.837 C 337.123,37.516 336.569,36.382 334.119,36.261 C 325.622,36.261 320.108,37.436 313.279,38.773 C 310.567,39.827 307.272,41.313 303.356,41.696 C 301.085,40.53 299.599,39.476 298.405,37.086 C 297.932,36.121 296.475,36.844 296.968,37.778 Z" fill="#ccff7f" marker-start="none" marker-end="none"/>
     <path d="M 316.724,42.922 C 314.624,46.075 312.847,49.781 312.847,55.433 L 313.6,58.006 C 316.874,64.514 325.36,67.196 334.903,65.619 C 344.594,60.778 348.531,43.593 332.421,42.449 C 326.155,45.753 324.93,52.602 331.055,56.289 C 332.392,57.102 333.597,55.113 332.25,54.331 C 328.715,52.17 329.71,48.605 333.295,46.688 C 345.328,47.561 341.641,60.517 334.411,64.102 C 325.681,65.537 318.099,63.399 315.117,57.452 L 314.715,55.203 C 314.715,49.981 316.111,46.688 318.07,43.794 C 318.652,42.922 317.306,42.017 316.724,42.922 Z" fill="#ccff7f" marker-start="none" marker-end="none"/>
     <path d="M 332.372,128.972 C 352.941,126.432 374.534,125.066 374.534,101.836 C 374.534,94.805 363.968,94.805 363.968,101.836 C 363.968,120.686 348.822,125.116 332.16,127.165 C 330.965,127.336 331.167,129.125 332.372,128.972 Z" fill="#ccff7f" marker-start="none" marker-end="none"/>
     <path d="M 358.455,103.703 C 355.451,107.641 353.141,109.63 349.586,113.014 C 343.018,117.885 336.339,120.216 327.871,123.077 C 326.877,123.46 327.379,124.976 328.394,124.624 C 337.062,121.682 344.041,119.401 350.72,114.38 C 354.396,110.965 356.676,108.725 359.739,104.668 C 360.382,103.795 359.096,102.829 358.455,103.703 Z" fill="#ccff7f" marker-start="none" marker-end="none"/>
     <path d="M 357.259,109.098 C 354.547,112.631 352.357,114.007 350.43,117.563 C 346.784,119.432 344.564,121.682 339.864,122.465 C 338.819,122.646 339.081,124.242 340.125,124.041 C 345.086,123.228 349.054,122.495 353.322,120.506 C 355.19,116.69 355.943,113.415 358.545,110.061 C 359.188,109.248 357.902,108.254 357.259,109.098 Z" fill="#ccff7f" marker-start="none" marker-end="none"/>
     <path d="M 318.481,126.03 L 319.294,128.622 C 319.385,129.034 319.676,126.964 319.405,127.306 C 318.421,128.622 318.361,130.139 316.783,130.871 C 314.213,129.616 314.424,128.451 313.812,126.231 C 315.036,120.105 317.517,120.074 322.358,121.561 C 324.959,123.519 325.331,126.111 325.622,130.228 C 324.517,133.703 324.547,134.054 322.156,135.833 C 319.647,136.385 318.3,137.148 315.619,137.319 C 304.611,134.958 299.508,127.657 292.298,121.943 C 289.204,118.618 287.427,116.92 283.951,114.149 C 280.195,110.443 276.751,107.549 272.34,104.086 C 259.265,93.9 245.617,84.912 232.016,75.572 C 231.112,74.929 230.209,76.276 231.083,76.887 C 244.651,86.228 256.322,97.717 269.369,107.871 C 273.626,111.205 276.811,114.411 280.456,118.055 C 283.781,120.686 285.88,122.666 288.803,125.759 C 296.296,131.745 303.999,136.446 315.528,138.926 C 318.3,138.715 320.46,138.806 323.261,138.193 C 326.445,135.862 326.766,135.1 328.193,130.55 C 327.871,125.528 326.124,122.405 323.06,120.165 C 316.845,118.207 313.107,118.376 311.53,126.322 C 312.344,129.125 313.52,130.751 316.783,132.328 C 318.652,131.454 320.169,130.369 321.394,128.853 C 321.715,128.421 321.835,127.949 321.545,127.517 L 319.907,125.297 C 319.294,124.452 318.18,124.976 318.481,126.03 Z" fill="#ccff7f" marker-start="none" marker-end="none"/>
     <path d="M 291.866,117.975 C 296.998,122.083 300.704,125.88 307.474,128.129 L 310.014,128.361 C 311.239,128.451 311.591,127.074 310.457,126.613 L 308.206,125.618 C 301.729,123.46 297.792,120.627 292.861,116.72 C 292.036,116.047 291.012,117.272 291.866,117.975 Z" fill="#ccff7f" marker-start="none" marker-end="none"/>
     <path d="M 324.136,94.885 C 333.767,92.324 337.824,90.225 343.751,84.329 C 345.296,81.176 346.493,77.35 346.844,72.649 C 346.894,71.574 345.296,71.484 345.237,72.539 C 344.945,76.917 342.555,79.509 341.089,82.402 C 335.515,87.976 332.772,90.888 323.724,93.319 C 322.68,93.61 323.091,95.177 324.136,94.885 Z" fill="#000000" marker-start="none" marker-end="none"/>
     <path d="M 303.979,94.835 C 312.204,98.803 321.484,102.649 333.445,102.649 C 334.55,102.649 334.55,101.043 333.445,101.043 C 321.745,101.043 312.697,97.255 304.671,93.369 C 303.678,92.937 303.015,94.364 303.979,94.835 Z" fill="#ccff7f" marker-start="none" marker-end="none"/>
     <path d="M 334.872,102.97 C 354.165,99.476 366.508,96.904 368.025,75.774 C 368.025,70.318 364.148,66.784 363.506,62.907 C 363.325,61.853 361.719,62.124 361.929,63.198 C 362.512,66.814 359.801,70.349 359.801,75.452 C 358.515,93.168 350.601,97.778 334.47,100.731 C 332.954,100.992 333.356,103.262 334.872,102.97 Z" fill="#ccff7f" marker-start="none" marker-end="none"/>
     <path d="M 221.422,114.349 C 229.155,114.349 231.434,114.239 234.729,107.581 C 234.729,83.045 215.526,70.44 199.767,62.325 C 198.803,61.853 198.08,63.288 199.033,63.78 C 213.075,70.991 225.971,83.625 225.971,105.542 C 224.364,108.755 225.127,109.448 221.422,109.448 C 218.126,109.448 218.126,114.349 221.422,114.349 Z" fill="#ccff7f" marker-start="none" marker-end="none"/>
     <path d="M 106.474,113.124 L 104.435,115.204 C 101.081,114.007 102.215,115.204 101.282,111.438 C 105.51,98.743 118.415,105.22 115.232,117.975 C 111.586,122.987 105.75,130.057 97.173,125.759 C 93.779,121.5 92.613,119.14 91.389,112.894 C 91.389,87.625 105.781,72.017 123.428,65.006 C 124.391,64.605 123.809,63.108 122.815,63.519 C 104.084,70.962 86.899,86.519 86.899,113.334 C 88.295,120.366 91.539,123.198 95.386,127.978 C 106.153,133.381 115.553,126.552 120.163,120.275 C 124.834,101.483 105.781,92.677 99.534,111.377 C 100.819,116.459 100.317,115.404 104.817,117.011 L 107.618,114.3 C 108.372,113.536 107.206,112.401 106.474,113.124 Z" fill="#ccff7f" marker-start="none" marker-end="none"/>
     <path d="M 103.35,125.418 C 91.831,131.162 88.968,117.653 90.635,107.409 C 91.007,101.635 90.897,101.714 92.474,96.904 C 93.086,94.914 90.103,93.982 89.491,95.97 C 87.803,101.192 86.899,100.64 86.427,106.937 C 83.916,122.435 89.671,141.669 107.117,132.971 C 112.138,130.43 108.372,122.876 103.35,125.418 Z" fill="#ccff7f" marker-start="none" marker-end="none"/>
     <path d="M 136.915,56.901 C 138.633,53.456 138.573,51.668 136.975,48.495 C 134.083,47.561 130.729,46.858 127.957,48.284 C 125.768,52.633 125.828,55.556 127.224,61.069 C 129.704,62.937 132.306,63.992 135.6,65.006 C 146.868,60.397 149.027,50.122 140.912,43.213 C 132.306,35.74 118.615,27.805 102.476,26.519 C 99.242,27.273 95.949,28.207 93.437,29.172 C 71.282,38.049 35.336,48.315 26.408,22.202 C 25.905,20.795 23.805,21.497 24.278,22.904 C 34.08,51.528 72.397,47.089 96.701,37.407 C 98.831,36.584 100.378,35.92 103.149,35.247 C 117.622,36.413 129.794,40.5 137.499,47.148 C 143.474,52.261 143.825,60.106 135.54,63.519 C 132.416,62.555 130.82,61.973 128.48,60.226 C 127.284,55.465 128.277,54.21 130.176,50.473 C 132.185,49.509 133.29,49.629 135.398,50.302 C 136.624,52.754 136.766,53.537 135.48,56.168 C 134.987,57.132 136.413,57.824 136.915,56.901 Z" fill="#ccff7f" marker-start="none" marker-end="none"/>
     <path d="M 109.778,42.046 C 104.405,42.568 100.527,42.397 95.767,43.011 C 91.71,43.995 88.587,44.669 84.8,45.462 C 81.094,46.737 81.557,46.768 78.553,48.264 C 68.138,52.4 61.68,64.313 48.673,64.012 C 43.362,63.932 37.264,58.448 39.826,53.275 C 40.297,52.312 38.861,51.587 38.369,52.553 C 34.923,59.433 41.463,68.019 48.614,68.13 C 62.182,68.421 69.765,57.243 80.652,52.925 C 83.304,51.619 83.133,51.97 86.287,50.915 C 90.053,50.102 92.644,49.539 96.822,48.554 C 101.512,47.941 104.817,46.365 110.129,45.863 C 112.66,45.632 112.309,41.806 109.778,42.046 Z" fill="#ccff7f" marker-start="none" marker-end="none"/>
     <path d="M 53.164,51.036 C 49.718,51.99 44.646,51.177 40.116,51.177 C 34.573,49.108 30.987,46.688 30.987,41.052 C 30.987,39.967 29.35,39.967 29.35,41.052 C 29.35,48.112 32.332,53.275 39.273,55.847 C 44.095,55.847 49.929,53.627 53.605,52.583 C 54.62,52.281 54.187,50.714 53.164,51.036 Z" fill="#ccff7f" marker-start="none" marker-end="none"/>
     <path d="M 156.118,133.844 L 157.485,131.514 C 157.836,130.841 155.356,131.655 155.998,132.005 C 159.876,133.934 155.034,134.899 151.679,134.899 C 150.043,134.899 154.39,138.957 154.28,137.319 C 153.366,124.945 159.965,121.5 170.761,121.5 C 172.43,121.5 172.43,118.96 170.761,118.96 C 157.223,118.96 147.943,122.174 149.078,137.731 C 149.168,139.328 150.043,140.152 151.679,140.152 C 159.031,140.152 165.479,134.256 156.993,130.028 C 156.319,129.676 155.817,129.818 155.505,130.52 L 154.421,132.971 C 153.929,134.165 155.505,134.929 156.118,133.844 Z" fill="#ccff7f" marker-start="none" marker-end="none"/>
     <path d="M 185.495,129.526 C 186.812,132.217 186.49,134.135 187.364,136.998 C 188.157,139.508 191.893,138.344 191.131,135.862 C 190.197,132.8 188.298,131.655 186.963,128.853 C 186.49,127.887 185.065,128.561 185.495,129.526 Z" fill="#ccff7f" marker-start="none" marker-end="none"/>
     <path d="M 186.721,156.141 C 185.003,160.72 183.548,162.448 181.358,165.391 C 178.846,169.128 177.622,172.161 174.086,174.811 C 170.119,180.154 163.822,180.736 156.229,181.319 C 147.884,183.368 139.657,182.173 131.02,180.707 C 129.765,180.476 129.443,182.374 130.7,182.575 C 139.748,184.122 148.004,186.542 156.731,184.383 C 165.217,183.749 171.404,182.545 175.875,176.599 C 179.781,173.617 182.553,172.249 185.295,168.163 C 187.685,164.898 187.454,162.207 189.353,157.135 C 190.026,155.357 187.364,154.363 186.721,156.141 Z" fill="#ccff7f" marker-start="none" marker-end="none"/>
     <path d="M 129.734,172.803 C 121.739,172.19 127.224,167.842 129.966,166.445 L 132.216,166.124 C 135.047,166.124 137.588,165.882 139.306,166.767 C 142.981,171.747 136.855,175.453 132.919,178.347 C 121.157,187.134 107.819,174.581 101.573,168.604 C 100.789,167.842 99.675,169.006 100.438,169.77 C 107.669,176.659 122.473,192.678 136.011,182.545 C 141.205,178.729 145.142,172.13 140.33,165.561 C 138.402,164.627 135.108,163.813 131.923,163.813 L 129.323,164.656 C 124.864,166.908 116.658,174.028 129.564,175.023 C 131.05,175.113 131.191,172.923 129.734,172.803 Z" fill="#ccff7f" marker-start="none" marker-end="none"/>
     <path d="M 113.304,187.829 C 119.55,190.048 124.28,192.356 130.637,194.457 C 132.677,194.887 136.362,195.159 139.245,195.159 C 145.201,194.657 150.333,194.717 156.199,193.813 C 163.259,191.684 167.257,190.49 173.624,187.304 C 176.196,184.735 177.823,181.641 180.775,179.37 C 181.649,178.698 180.655,177.443 179.811,178.085 C 176.748,180.446 174.206,181.762 171.525,184.413 C 165.388,187.475 162.385,188.881 155.556,190.982 C 149.781,191.885 145.051,192.728 139.156,193.26 C 136.413,193.26 133.059,193.14 131.11,192.728 C 124.772,190.599 120.042,188.531 113.835,186.312 C 112.842,185.959 112.309,187.455 113.304,187.829 Z" fill="#ccff7f" marker-start="none" marker-end="none"/>
     <path d="M 111.294,288.734 C 113.243,284.796 112.811,283.14 109.246,281.413 C 105.51,284.275 104.726,286.726 105.048,291.456 C 107.588,297.694 111.294,300.325 115.433,294.81 C 122.412,285.47 114.71,269.974 111.003,264.168 C 108.291,260.693 105.51,256.555 103.702,252.236 C 101.693,248.209 100.408,244.935 98.57,241.29 C 93.437,231.075 87.573,225.209 82.079,216.14 C 76.505,204.902 73.099,195.531 68.278,183.428 C 61.74,161.745 55.824,132.297 63.669,109.248 C 64.02,108.222 62.504,107.701 62.182,108.725 C 54.157,132.267 57.892,162.559 64.603,184.704 C 69.444,196.906 73.883,206.248 79.548,217.506 C 84.941,226.526 88.907,233.496 93.99,243.6 C 95.829,247.214 97.515,250.127 99.503,254.184 C 101.512,258.886 103.792,263.384 106.745,267.171 C 110.07,272.424 120.425,285.409 114.156,293.846 C 111.064,297.964 108.493,295.775 106.594,291.134 C 106.334,287.188 106.363,285.642 109.457,283.28 C 111.697,284.386 111.084,285.53 109.859,288.041 C 109.367,288.976 110.793,289.698 111.294,288.734 Z" fill="#ccff7f" marker-start="none" marker-end="none"/>
     <path d="M 97.465,326.357 L 99.765,329.39 C 100.206,329.912 100.669,329.912 101.051,329.36 C 104.084,325.212 104.114,321.656 101.662,317.399 C 101.311,316.755 100.698,316.514 99.996,316.726 C 87.803,320.221 89.15,332.915 99.212,336.19 C 111.616,335.225 115.875,320.603 118.356,309.896 C 117.913,307.385 116.868,301.579 116.427,299.159 C 115.815,295.303 110.07,296.267 110.713,300.123 C 111.084,302.544 110.823,307.153 111.234,309.664 C 109.045,319.175 110.421,333.759 99.413,334.643 C 91.57,332.072 91.308,322.24 100.819,319.529 C 101.512,319.317 98.77,318.212 99.153,318.855 C 101.111,322.24 102.154,325.102 99.734,328.426 C 99.353,328.948 101.462,328.919 101.051,328.395 L 98.741,325.362 C 98.078,324.539 96.822,325.503 97.465,326.357 Z" fill="#ccff7f" marker-start="none" marker-end="none"/>
     <path d="M 46.654,297.492 C 47.067,299.622 46.224,300.999 46.625,303.036 C 46.976,304.875 48.201,305.225 49.84,304.352 L 53.545,302.283 C 53.956,302.072 54.418,301.349 54.539,300.907 C 58.566,286.845 42.076,286.174 38.018,297.964 C 35.426,305.718 39.826,312.638 43.331,316.142 C 61.771,319.729 71.2,284.275 60.987,271.931 C 55.151,266.127 45.138,264.168 35.798,266.006 C 20.633,271.35 14.386,286.926 14.386,306.25 C 14.386,307.355 15.992,307.355 15.992,306.25 C 15.992,289.176 24.188,277.295 37.585,272.574 C 44.726,271.168 51.997,271.61 56.437,276.07 C 65.096,286.465 59.873,317.307 44.325,314.274 C 41.402,311.322 39.182,305.608 41.372,299.1 C 43.391,293.144 52.29,291.797 50.3,298.888 L 47.478,300.937 C 45.981,302.222 51.064,304.171 50.653,302.253 C 50.25,300.143 48.673,299.359 48.231,297.171 C 48.031,296.117 46.454,296.417 46.654,297.492 Z" fill="#ccff7f" marker-start="none" marker-end="none"/>
     <path d="M 19.518,282.959 C 15.028,284.796 17.539,281.271 13.16,284.505 L 10.449,288.303 C 9.072,292.44 7.556,295.533 7.264,300.033 C 5.044,324.75 19.988,330.375 35.135,337.937 C 36.09,338.4 36.822,336.973 35.858,336.48 C 22.028,329.591 10.449,322.992 12.457,300.435 C 12.748,296.468 14.064,294.55 15.29,290.863 L 17.218,288.624 C 20.772,285.992 16.835,286.866 20.512,285.38 C 22.118,284.687 21.125,282.285 19.518,282.959 Z" fill="#ccff7f" marker-start="none" marker-end="none"/>
     <path d="M 12.137,317.83 C 10.529,321.828 10.589,325.102 11.201,329.421 C 15.672,333.88 17.71,336.04 23.192,338.229 C 29.581,341.171 33.991,342.426 41.934,343.922 C 65.798,343.922 78.663,337.876 87.131,322.882 C 88.154,320.692 87.602,318.945 88.416,316.726 C 88.968,315.29 86.809,314.445 86.256,315.871 C 85.443,318.031 83.745,318.503 82.751,320.603 C 74.907,334.553 64.282,342.346 42.105,342.346 C 34.342,340.859 30.313,339.103 24.037,336.19 C 18.905,334.171 17.419,332.272 13.452,328.274 C 12.869,324.569 12.166,322.059 13.593,318.413 C 14.033,317.418 12.516,316.836 12.137,317.83 Z" fill="#ccff7f" marker-start="none" marker-end="none"/>
     <path d="M 70.699,401.462 C 73.652,403.038 72.216,404.143 72.216,407.559 C 72.216,408.201 73.652,405.168 73.149,405.579 C 70.438,407.798 70.207,409.286 68.278,411.707 C 59.409,418.386 45.811,399.946 45.811,388.566 C 46.544,385.212 47.418,382.149 47.911,378.614 C 47.911,378.614 48.815,376.071 48.904,375.811 C 49.84,373.974 50.542,372.898 51.324,371.111 C 53.654,367.705 54.891,364.875 57.572,362.213 C 58.326,361.459 57.16,360.314 56.407,361.076 C 53.686,363.819 51.817,366.482 49.397,370.066 C 48.614,371.844 48.091,373.22 47.177,375.028 L 45.782,378.03 C 45.289,381.536 44.938,385.092 44.234,388.395 C 44.234,400.74 59.791,420.083 69.413,412.872 C 71.231,410.542 73.762,411.677 76.393,409.547 C 76.885,409.166 77.358,408.201 77.358,407.559 C 77.358,402.225 76.423,401.904 71.813,399.422 C 70.438,398.69 69.364,400.74 70.699,401.462 Z" fill="#ccff7f" marker-start="none" marker-end="none"/>
    </g>
   </g>
  </g>
 </g>
</svg>
