<?xml version="1.0" standalone="no"?>
<!-- Generator: Xara Xtreme (www.xara.com), SVG filter version: 0.4 -->
<!DOCTYPE svg PUBLIC "-//W3C//DTD SVG 1.1//EN" "http://www.w3.org/Graphics/SVG/1.1/DTD/svg11.dtd">
<svg stroke-width="0.501" stroke-linejoin="bevel" fill-rule="evenodd" xmlns:xlink="http://www.w3.org/1999/xlink" xmlns="http://www.w3.org/2000/svg" version="1.1" width="450pt" height="450pt" viewBox="0 0 450 450">
 <defs>
  <marker id="DefaultArrow2" markerUnits="strokeWidth" viewBox="0 0 1 1" markerWidth="1" markerHeight="1" overflow="visible" orient="auto">
   <!-- REF_ARROW_STRAIGHT (-2) -->
   <g transform="scale(0.0092592592)">
    <!-- 1/108 -->
    <path d="M -9 54 L -9 -54 L 117 0 z"/>
   </g>
  </marker>
  <marker id="DefaultArrow3" markerUnits="strokeWidth" viewBox="0 0 1 1" markerWidth="1" markerHeight="1" overflow="visible" orient="auto">
   <!-- REF_ARROW_ANGLED -->
   <g transform="scale(0.0092592592)">
    <path d="M -27 54 L -9 0 L -27 -54 L 135 0 z"/>
   </g>
  </marker>
  <marker id="DefaultArrow4" markerUnits="strokeWidth" viewBox="0 0 1 1" markerWidth="1" markerHeight="1" overflow="visible" orient="auto">
   <!-- REF_ARROW_ROUNDED -->
   <g transform="scale(0.0092592592)">
    <path d="M -9,0 L -9,-45 C -9,-51.708 2.808,-56.580 9,-54 L 117,-9 C 120.916,-7.369 126.000,-4.242 126,0 C 126,4.242 120.916,7.369 117,9 L 9,54 C 2.808,56.580 -9,51.708 -9,45 z"/>
   </g>
  </marker>
  <marker id="DefaultArrow5" markerUnits="strokeWidth" viewBox="0 0 1 1" markerWidth="1" markerHeight="1" overflow="visible" orient="auto">
   <!-- REF_ARROW_SPOT -->
   <g transform="scale(0.0092592592)">
    <path d="M -54, 0 C -54,29.807 -29.807,54 0,54 C 29.807,54 54,29.807 54,0 C 54,-29.807 29.807,-54 0,-54 C -29.807,-54 -54,-29.807 -54,0 z"/>
   </g>
  </marker>
  <marker id="DefaultArrow6" markerUnits="strokeWidth" viewBox="0 0 1 1" markerWidth="1" markerHeight="1" overflow="visible" orient="auto">
   <!-- REF_ARROW_DIAMOND -->
   <g transform="scale(0.0092592592)">
    <path d="M -63,0 L 0,63 L 63,0 L 0,-63 z"/>
   </g>
  </marker>
  <marker id="DefaultArrow7" markerUnits="strokeWidth" viewBox="0 0 1 1" markerWidth="1" markerHeight="1" overflow="visible" orient="auto">
   <!-- REF_ARROW_FEATHER -->
   <g transform="scale(0.0092592592)">
    <path d="M 18,-54 L 108,-54 L 63,0 L 108,54 L 18, 54 L -36,0 z"/>
   </g>
  </marker>
  <marker id="DefaultArrow8" markerUnits="strokeWidth" viewBox="0 0 1 1" markerWidth="1" markerHeight="1" overflow="visible" orient="auto">
   <!-- REF_ARROW_FEATHER2 -->
   <g transform="scale(0.0092592592)">
    <path d="M -36,0 L 18,-54 L 54,-54 L 18,-18 L 27,-18 L 63,-54 L 99,-54 L 63,-18 L 72,-18 L 108,-54 L 144,-54 L 90,0 L 144,54 L 108,54 L 72,18 L 63,18 L 99,54 L 63,54 L 27,18 L 18,18 L 54,54 L 18,54 z"/>
   </g>
  </marker>
  <marker id="DefaultArrow9" markerUnits="strokeWidth" viewBox="0 0 1 1" markerWidth="1" markerHeight="1" overflow="visible" orient="auto">
   <!-- REF_ARROW_HOLLOWDIAMOND -->
   <g transform="scale(0.0092592592)">
    <path d="M 0,45 L -45,0 L 0, -45 L 45, 0 z M 0, 63 L-63, 0 L 0, -63 L 63, 0 z"/>
   </g>
  </marker>
 </defs>
 <g id="Document" fill="none" stroke="black" font-family="Times New Roman" font-size="16" transform="scale(1 -1)">
  <g id="Spread" transform="translate(0 -450)">
   <g id="Layer 1">
    <g id="Group" stroke-linejoin="miter" stroke="none" stroke-width="1.746" stroke-miterlimit="79.8403193612775">
     <path d="M 397.219,22.314 C 405.707,18.046 408.889,23.359 413.469,29.425 C 415.428,40.281 413.851,46.147 411.28,56.482 C 395.642,87.064 368.616,102.642 361.645,137.894 C 361.414,139.059 363.193,139.441 363.423,138.246 C 370.573,102.029 413.912,94.879 429.991,63.483 C 433.225,50.296 433.868,35.441 431.387,21.582 C 422.549,9.911 409.532,6.024 393.161,14.229 C 387.759,16.911 391.845,25.026 397.219,22.314 Z" fill="#006c10" marker-start="none" marker-end="none"/>
     <path d="M 384.876,53.479 C 391.845,56.943 390.159,58.32 392.81,66.315 C 390.269,94.677 373.959,102.822 367.099,130.513 C 366.777,131.678 368.565,132.12 368.857,130.954 C 376.268,101.125 405.707,95.059 408.448,64.477 C 404.019,51.14 402.643,46.971 391.063,41.156 C 382.826,37.048 376.671,49.361 384.876,53.479 Z" fill="#006c10" marker-start="none" marker-end="none"/>
     <path d="M 410.467,154.145 C 409.644,143.911 410.929,148.951 409.382,139.349 C 408.95,136.699 407.434,135.826 404.893,136.699 C 387.266,143.057 375.445,173.729 392.98,183.472 C 412.706,194.329 431.447,175.276 438.708,162.932 C 444.173,124.677 415.86,97.278 378.769,116.332 C 357.528,127.268 353.128,159.026 358.03,188.965 C 358.2,190.16 360.008,189.869 359.807,188.675 C 355.659,163.425 368.214,139.883 386.101,130.632 C 407.695,119.565 423.804,134.369 420.62,156.625 C 417.004,162.842 410.989,174.312 401.035,168.859 C 391.414,163.516 397.48,146.532 407.192,143.057 C 409.703,142.123 402.291,137.773 402.733,140.405 C 404.19,149.716 404.45,144.634 405.244,154.556 C 405.536,158.031 410.728,157.62 410.467,154.145 Z" fill="#006c10" marker-start="none" marker-end="none"/>
     <path d="M 363.423,198.265 C 381.753,241.462 404.803,290.977 390.299,354.211 C 385.779,374.197 353.069,419.603 330.682,389.724 C 322.657,378.988 306.546,391.04 314.602,401.745 C 346.701,444.672 397.188,385.988 403.697,357.273 C 418.782,291.619 384.343,242.337 365.261,197.482 C 364.739,196.257 362.901,197.04 363.423,198.265 Z" fill="#337f00" marker-start="none" marker-end="none"/>
     <path d="M 313.466,392.064 C 305.703,395.942 298,398.452 286.471,399.355 C 245.151,394.223 217.401,373.795 187.2,357.012 C 159.098,341.434 125.925,327.455 92.069,344.378 C 85.621,350.826 81.454,357.515 77.425,367.778 C 73.369,392.386 79.986,420.457 100.415,427.167 C 130.938,437.29 145.099,406.908 121.637,391.27 C 120.643,390.598 119.649,392.095 120.643,392.757 C 134.03,401.716 123.093,417.122 105.637,411.347 C 92.481,406.999 93.293,388.76 95.925,372.893 C 98.698,365.831 98.758,364.283 103.188,359.875 C 130.826,346.045 155.514,360.015 178.472,372.74 C 210.602,390.567 242.118,411.96 286.038,417.443 C 300.25,416.339 311.217,411.407 320.729,406.648 C 330.45,401.776 323.159,387.214 313.466,392.064 Z" fill="#006c10" marker-start="none" marker-end="none"/>
     <path d="M 106.894,431.425 C 123.293,430.14 130.887,431.656 141.713,426.292 C 160.324,422.586 177.658,426.082 162.423,436.708 C 161.439,437.411 162.484,438.898 163.447,438.193 C 186.82,421.852 165.486,406.567 136.922,412.221 C 127.291,417.012 121.044,424.244 106.43,425.418 C 102.433,425.71 102.895,431.716 106.894,431.425 Z" fill="#006c10" marker-start="none" marker-end="none"/>
     <path d="M 286.471,398.482 C 252.363,390.014 231.211,378.255 204.797,361.804 C 181.837,347.532 154.258,323.688 114.515,331.542 C 101.118,334.133 85.913,357.686 79.845,367.841 C 77.778,380.384 80.951,396.263 85.851,406.095 C 87.609,409.57 92.831,406.968 91.084,403.474 C 86.877,395.098 91.697,383.568 93.475,372.83 C 98.285,364.837 106.341,345.835 116.906,343.765 C 153.384,336.554 179.818,354.913 200.92,368.02 C 227.767,384.732 251.368,391.623 286.038,400.259 C 287.203,400.521 287.645,398.803 286.471,398.482 Z" fill="#337f00" marker-start="none" marker-end="none"/>
     <path d="M 291.582,396.583 C 259.393,402.861 225.897,377.27 215.945,357.334 C 209.376,344.208 218.868,325.295 226.007,319.982 C 234.325,311.847 250.645,301.712 264.325,311.958 C 276.928,321.389 267.186,333.09 254.14,336.936 C 248.365,338.633 250.875,347.3 256.681,345.603 C 279.209,339.005 293.801,317.974 272.029,301.663 C 251.901,286.568 228.057,296.109 215.855,308.081 C 205.7,315.633 198.519,342.711 207.83,361.392 C 218.596,382.864 257.203,405.341 291.965,398.573 C 293.299,398.302 292.897,396.322 291.582,396.583 Z" fill="#006c10" marker-start="none" marker-end="none"/>
     <path d="M 323.74,401.957 C 337.632,398.512 343.467,397.196 352.567,389.954 C 356.393,382.201 360.159,375.252 363.332,367.287 C 364.969,359.172 365.15,350.333 365.15,337.639 C 365.15,329.784 360.561,324.451 354.906,329.905 L 344.109,340.411 C 343.206,341.225 343.436,341.898 344.601,342.158 L 359.315,345.372 C 364.507,346.567 349.071,332.326 349.071,337.639 C 349.071,348.927 348.659,355.295 347.262,362.496 C 344.191,370.029 343.345,372.309 339.761,379.631 C 332.198,385.587 333.052,390.336 321.551,393.169 C 315.686,394.625 317.875,403.414 323.74,401.957 Z" fill="#006c10" marker-start="none" marker-end="none"/>
     <path d="M 336.115,405.864 C 348.046,396.996 360.711,392.406 367.711,378.315 C 394.799,324.13 380.055,271.282 321.08,259.671 C 307.893,259.671 293.621,260.626 284.812,263.227 C 258.489,276.333 243.957,309.216 268.562,334.375 C 280.203,339.035 291.412,340.29 302.177,334.956 C 303.112,332.095 302.67,324.19 303.634,317.792 C 303.804,316.476 301.857,316.186 301.615,317.532 C 300.742,323.547 296.775,326.782 295.871,329.494 C 287.083,333.813 280.876,333.903 271.384,330.106 C 250.354,308.603 265.168,281.787 287.706,270.578 C 295.991,268.158 308.013,266.933 320.387,266.933 C 372.563,277.208 381.34,325.235 357.357,373.182 C 350.99,385.988 345.396,395.619 334.508,403.704 C 333.052,404.778 334.649,406.968 336.115,405.864 Z" fill="#006c10" marker-start="none" marker-end="none"/>
     <path d="M 346.991,405.132 C 374.08,394.516 390.972,366.293 390.972,328.619 C 390.972,268.51 347.725,234.713 297.648,242.978 C 275.703,247.347 273.435,255.644 262.897,269.735 C 259.453,274.375 266.373,279.538 269.808,274.927 C 278.244,263.608 282.825,261.589 300.39,258.095 C 341.768,251.265 377.524,278.985 377.524,328.619 C 377.524,362.385 369.58,391.301 345.304,400.813 C 342.442,401.957 344.14,406.276 346.991,405.132 Z" fill="#006c10" marker-start="none" marker-end="none"/>
     <path d="M 326.453,414.209 C 343.467,426.966 356.042,427.106 372.503,418.881 C 384.343,415.235 392.168,409.069 405.506,411.729 C 413.912,415.867 420.149,417.154 424.266,425.559 C 425.46,427.9 428.967,426.141 427.833,423.811 C 422.579,413.216 420.821,403.122 410.235,397.839 C 394.186,394.686 381.31,400.782 367.039,405.191 C 354.002,411.699 343.176,419.925 329.666,409.861 C 326.773,407.701 323.53,412.02 326.453,414.209 Z" fill="#006c10" marker-start="none" marker-end="none"/>
     <path d="M 337.099,411.147 C 369.499,411.147 379.683,398.251 403.546,398.07 L 412.335,400.321 C 414.051,400.813 414.755,400.139 414.253,398.392 L 411.109,387.043 C 410.467,384.853 408.277,384.913 405.997,384.944 C 381.08,385.145 370.895,409.309 337.099,409.309 C 335.904,409.309 335.904,411.147 337.099,411.147 Z" fill="#006c10" marker-start="none" marker-end="none"/>
     <path d="M 379.442,383.798 C 403.134,365.559 421.112,343.092 421.112,308.081 C 415.308,263.96 390.36,252.69 380.788,219.337 C 375.857,202.182 382.395,187.62 394.648,196.78 C 395.642,197.512 396.687,196.056 395.733,195.354 C 376.791,181.171 358.381,197.02 365.994,223.595 C 375.334,256.165 399.811,266.028 405.475,309.125 C 405.475,341.054 399.841,365.54 378.217,382.171 C 377.142,383.015 378.368,384.591 379.442,383.798 Z" fill="#006c10" marker-start="none" marker-end="none"/>
     <path d="M 368.857,221.265 C 365.442,207.405 368.153,193.636 370.724,177.144 C 370.895,175.918 367.189,182.046 368.183,181.313 C 375.655,175.739 370.192,171.047 378.428,175.156 C 379.502,175.718 380.296,174.08 379.242,173.558 C 366.195,167.051 372.352,162.149 360.51,170.988 C 359.486,171.741 358.17,173.961 357.97,175.185 C 355.288,192.902 363.423,206.823 367.099,221.707 C 367.39,222.871 369.118,222.431 368.857,221.265 Z" fill="#337f00" marker-start="none" marker-end="none"/>
     <path d="M 362.087,372.71 C 383.068,324.973 381.34,277.116 328.963,266.671 C 316.239,271.893 324.555,268.358 311.478,278.021 C 304.569,283.132 312.242,293.456 319.131,288.355 C 329.666,280.562 320.497,289.46 330.772,285.232 C 374.159,293.899 376.821,332.005 359.395,371.546 C 358.612,373.323 361.294,374.498 362.087,372.71 Z" fill="#337f00" marker-start="none" marker-end="none"/>
     <path d="M 331.092,388.147 C 341.508,379.892 391.726,332.215 348.75,320.715 C 343.928,319.429 339.961,320.916 337.541,325.265 L 332.349,334.455 C 326.011,345.784 342.061,355.436 349.071,344.467 L 354.786,335.599 C 357.357,331.573 338.918,338.894 343.557,340.119 C 372.733,347.943 335.734,379.449 328.672,385.054 C 326.594,386.691 329.055,389.754 331.092,388.147 Z" fill="#337f00" marker-start="none" marker-end="none"/>
     <path d="M 316.208,395.74 C 296.745,410.272 288.136,416.37 262.376,424.917 C 253.94,422.878 248.656,425.469 252.483,417.796 C 255.365,412.02 246.698,407.763 243.846,413.507 C 234.826,431.716 243.143,437.962 263.13,442.774 C 290.939,433.554 300.6,418.67 321.643,402.971 C 326.453,399.386 321.051,392.115 316.208,395.74 Z" fill="#006c10" marker-start="none" marker-end="none"/>
     <path d="M 298.844,405.511 C 273.192,409.711 239.557,424.856 223.005,402.771 C 220.877,399.909 222.071,415.988 223.768,412.834 C 228.58,403.905 220.464,410.183 229.986,403.032 C 239.698,395.77 228.81,381.178 219.098,388.437 C 203.11,400.43 215.302,388.94 207.247,403.965 C 205.56,407.089 205.821,411.176 207.98,414.059 C 227.877,440.674 268.261,412.753 299.165,407.701 C 300.631,407.471 300.31,405.281 298.844,405.511 Z" fill="#337f00" marker-start="none" marker-end="none"/>
     <path d="M 91.286,399.798 C 97.934,412.753 111.774,430.108 128.869,423.55 C 154.288,413.859 131.84,370.762 111.473,391.653 C 103.628,399.708 115.712,411.499 123.555,403.443 C 127.993,398.883 129.772,409.218 124.227,411.347 C 111.272,416.309 97.934,408.777 92.892,398.944 C 92.33,397.869 90.733,398.712 91.286,399.798 Z" fill="#006c10" marker-start="none" marker-end="none"/>
     <path d="M 212.68,367.398 C 193.829,353.889 110.66,290.423 85.069,340.351 C 79.002,352.142 96.679,361.241 102.755,349.46 C 124.379,307.287 195.165,358.179 211.104,369.617 C 212.56,370.673 214.138,368.451 212.68,367.398 Z" fill="#337f00" marker-start="none" marker-end="none"/>
     <path d="M 284.43,386.541 C 258.458,386.541 253.707,378.466 241.043,365.74 C 236.755,360.076 232.958,356.872 231.382,348.637 C 229.132,337.117 211.856,340.501 214.107,351.99 C 216.357,363.49 220.354,370.491 226.361,378.495 C 242.44,394.565 251.519,401.315 284.43,401.315 C 294.294,401.315 294.294,386.541 284.43,386.541 Z" fill="#006c10" marker-start="none" marker-end="none"/>
     <path d="M 385.107,251.817 C 369.64,225.904 366.777,190.944 355.228,161.618 C 354.112,158.815 349.502,176.732 350.497,173.9 L 354.324,163.425 C 355.258,160.834 355.076,160.542 352.456,159.749 L 341.768,156.484 C 334.277,154.175 334.186,161.446 337.078,168.768 C 348.75,198.387 367.772,226.688 383.389,252.842 C 384.083,254.007 385.811,252.953 385.107,251.817 Z" fill="#337f00" marker-start="none" marker-end="none"/>
     <path d="M 357.327,172.795 C 352.305,160.07 357.738,148.951 360.51,134.74 L 363.744,128.554 C 368.737,118.63 358.111,110.344 350.466,118.429 L 342.673,126.685 C 339.348,143.529 343.527,160.834 349.473,175.889 C 351.521,181.112 359.395,178.018 357.327,172.795 Z" fill="#006c10" marker-start="none" marker-end="none"/>
     <path d="M 314.401,404.778 C 348.659,379.108 318.89,341.375 300.893,377.591 C 296.654,386.048 318.167,388.408 315.888,379.218 C 312.653,366.383 316.851,374.469 308.043,362.677 C 306.496,360.608 303.865,359.614 301.355,360.106 C 284.692,363.32 290.879,357.775 284.11,371.454 C 277.249,378.053 267.628,378.817 264.615,395.971 C 264.325,397.809 265.197,401.515 266.282,403.001 C 273.143,412.141 281.248,415.053 296.072,417.242 C 320.969,409.6 321.643,409.42 321.643,386.601 C 321.643,381.639 319.102,378.896 314.17,378.495 C 296.954,377.06 294.414,378.725 283.697,389.404 L 277.17,390.136 C 264.967,392.938 268.703,411.61 280.876,408.577 L 292.395,405.683 C 298.643,399.496 302.82,393.902 312.824,394.715 C 317.785,395.128 305.352,381.639 305.352,386.601 C 305.352,397.367 306.467,395.942 294.735,399.556 C 286.449,398.331 284.692,397.226 280.876,392.115 C 279.792,390.627 282.242,400.932 282.534,399.125 C 284.582,387.534 291.231,384.501 295.841,380.042 C 298.733,374.227 296.834,374.699 303.926,373.323 C 306.436,372.83 295.73,368.684 297.247,370.762 C 303.373,378.959 298.031,374.147 300.25,383.105 C 302.58,392.296 311.046,393.23 315.244,384.762 C 323.711,367.778 325.047,385.496 308.978,397.578 C 304.157,401.164 309.589,408.405 314.401,404.778 Z" fill="#337f00" marker-start="none" marker-end="none"/>
     <path d="M 416.533,82.365 C 418.461,84.372 417.729,86.713 416.181,88.812 C 410.025,97.129 398.384,104.43 389.776,109.33 C 388.844,109.853 389.657,111.249 390.56,110.727 C 400.132,105.334 417.055,103.697 423.854,94.475 C 428.354,88.35 429.026,81.631 423.482,75.796 C 419.103,71.186 412.153,77.755 416.533,82.365 Z" fill="#b24c00" marker-start="none" marker-end="none"/>
     <path d="M 435.827,118.46 C 436.932,110.927 435.615,107.341 431.036,103.787 C 425.46,100.422 420.068,97.862 412.184,96.958 C 406.32,97.862 401.94,101.798 398.064,104.128 C 395.703,105.564 397.832,109.09 400.162,107.663 C 403.457,105.705 407.403,107.171 412.395,106.408 C 418.572,107.11 421.233,108.98 425.672,111.63 C 427.561,113.117 428.414,114.142 427.943,117.265 C 427.159,122.518 435.002,123.714 435.827,118.46 Z" fill="#b24c00" marker-start="none" marker-end="none"/>
     <path d="M 438.247,93.01 C 426.546,93.743 417.668,95.551 408.769,98.585 L 406.79,102.963 C 406.178,104.63 406.409,104.861 408.127,105.214 L 412.184,105.997 C 420.591,103.173 427.561,99.196 438.568,98.535 C 442.274,98.292 441.923,92.78 438.247,93.01 Z" fill="#b24c00" marker-start="none" marker-end="none"/>
     <path d="M 423.653,76.086 C 425.873,77.784 425.963,80.848 426.194,84.905 C 424.006,96.052 418.281,98.242 410.115,102.181 C 409.151,102.642 409.854,104.077 410.818,103.606 C 419.748,99.318 426.898,97.308 429.318,85.075 C 428.967,80.295 427.24,76.79 424.617,74.801 C 423.773,74.168 422.81,75.444 423.653,76.086 Z" fill="#e5664c" marker-start="none" marker-end="none"/>
     <path d="M 442.676,97.098 C 439.241,92.397 432.964,94.587 426.686,93.653 C 425.491,93.483 425.23,95.259 426.427,95.442 C 432.23,96.315 438.187,93.683 441.4,98.033 C 442.013,98.905 443.318,97.951 442.676,97.098 Z" fill="#e5664c" marker-start="none" marker-end="none"/>
     <path d="M 431.296,120.208 L 434.922,117.356 L 436.288,111.28 C 435.184,104.43 432.382,102.351 427.62,99.759 C 426.486,99.116 425.582,100.804 426.686,101.416 C 430.775,103.635 432.582,105.354 433.516,111.17 L 432.493,115.979 L 430.04,118.932 C 429.289,119.868 430.332,120.971 431.296,120.208 Z" fill="#e5664c" marker-start="none" marker-end="none"/>
     <path d="M 401.246,161.096 C 400.574,160.683 400.051,160.01 399.58,158.906 C 398.815,156.976 397.038,156.947 396.225,158.844 C 394.999,161.738 392.639,162.962 392.077,166.086 C 391.293,170.516 396.455,172.674 398.384,168.627 L 400.254,164.621 C 401.357,162.29 394.236,162.782 395.733,164.891 L 398.525,168.707 C 400.313,171.128 402.473,170.837 403.697,168.095 L 405.384,164.388 C 406.841,161.235 399.027,160.512 399.871,163.896 L 401.447,169.962 C 402.26,173.237 405.123,174.312 406.64,171.339 L 409.502,165.856 L 411.28,164.771 L 413.379,165.856 C 415.488,166.488 416.562,163.807 414.605,162.761 L 411.832,161.265 C 411.109,160.894 410.436,160.914 409.915,161.507 L 407.836,163.958 L 402.231,166.9 C 399.811,168.215 408.277,170.928 407.434,168.276 L 405.595,162.29 C 404.571,159.055 401.738,158.785 400.071,161.768 L 398.124,165.323 C 396.778,167.774 405.273,166.779 403.316,164.71 L 400.071,161.265 C 398.555,159.689 397.068,159.899 395.582,161.536 L 392.609,164.801 C 389.687,168.014 398.124,171.601 398.907,167.311 C 399.378,164.651 398.555,162.732 399.58,160.282 C 400.363,158.353 395.461,158.322 396.225,160.251 C 396.978,162.169 398.235,163.104 399.408,163.867 C 401.246,165.092 403.084,162.32 401.246,161.096 Z" fill="#e5664c" marker-start="none" marker-end="none"/>
     <path d="M 387.909,234.956 C 385.458,229.17 385.166,219.398 386.132,211.693 L 386.333,207.577 C 386.825,206.239 386.946,201.309 388.692,201.891 C 392.288,203.317 396.657,210.73 394.388,215.279 C 392.901,218.232 403.666,214.958 400.804,213.361 C 397.159,211.252 396.024,208.66 394.477,204.804 C 391.966,197.311 393.453,208.892 390.128,200.898 C 389.887,200.315 389.134,199.611 388.523,199.44 C 382.365,197.512 376.639,195.613 370.573,194.129 C 369.9,193.897 369.349,194.54 369.79,193.977 C 370.635,192.843 365.15,194.299 366.456,194.862 C 370.222,196.518 372.965,197.924 376.701,199.411 C 379.945,201.712 382.154,203.147 385.86,205.306 C 387.878,206.471 389.336,205.768 389.687,203.498 C 390.62,197.743 392.95,195.795 395.351,192.611 C 397.038,191.236 398.766,189.869 401.86,189.457 C 404.049,189.136 399.258,184.235 399.027,186.394 L 398.414,191.737 C 394.709,194.508 392.658,195.443 388.37,197.251 C 384.615,198.828 387.006,204.482 390.772,202.885 C 395.522,200.898 398.093,197.221 402.231,194.158 L 404.049,187.419 C 404.541,185.2 403.457,184.065 401.186,184.375 C 396.867,184.968 393.543,186.514 391.063,188.493 C 388.109,192.551 385.72,195.795 384.615,202.675 C 384.263,204.984 390.45,202.032 388.462,200.898 C 384.906,198.798 383.118,195.935 379.884,193.576 C 375.998,192.088 372.352,191.386 368.646,189.778 C 367.34,189.226 366.195,189.547 365.35,190.682 C 360.298,197.482 360.008,199.702 368.153,202.414 C 374.19,203.9 380.878,202.414 387.006,204.311 C 387.587,204.512 385.166,202.292 385.398,202.855 C 388.431,210.117 382.395,201.6 384.664,208.429 C 387.146,214.586 390.389,218.021 396.194,221.385 C 399.057,222.982 401.186,222.37 402.643,219.427 C 406.611,211.523 396.718,199.492 390.45,197.07 C 387.176,195.876 384.263,204.311 383.359,206.823 L 382.365,211.171 C 381.31,219.337 383.851,229.461 386.422,235.566 C 386.825,236.551 388.321,235.919 387.909,234.956 Z" fill="#b24c00" marker-start="none" marker-end="none"/>
     <path d="M 401.277,182.809 C 397.48,183.883 395.031,184.145 392.318,186.274 C 388.933,189.628 389.425,195.092 387.618,199.793 C 387.236,200.776 388.723,201.358 389.134,200.374 C 390.62,196.348 394.819,195.121 397.681,192.38 C 399.489,190.944 400.313,189.547 402.964,188.814 C 406.992,187.68 405.305,181.664 401.277,182.809 Z" fill="#e5664c" marker-start="none" marker-end="none"/>
     <path d="M 379.884,202.292 C 373.406,203.548 368.354,204.402 364.618,199.351 C 365.321,189.457 362.609,203.931 364.006,194.941 C 364.298,193.224 361.705,192.813 361.445,194.559 C 359.928,204.081 360.39,190.27 359.657,200.807 C 364.387,207.224 371.95,205.477 380.175,203.869 C 381.22,203.669 380.928,202.122 379.884,202.292 Z" fill="#e5664c" marker-start="none" marker-end="none"/>
     <path d="M 399.349,217.759 C 401.035,214.315 401.538,211.845 400.895,207.466 C 398.937,203.498 395.874,201.158 391.495,200.485 C 390.42,200.344 390.179,201.921 391.264,202.091 C 394.939,202.615 396.897,204.984 398.505,208.188 C 399.057,211.925 399.198,213.973 397.71,216.946 C 397.159,218.021 398.796,218.845 399.349,217.759 Z" fill="#e5664c" marker-start="none" marker-end="none"/>
     <path d="M 388.812,208.721 C 386.683,214.466 385.84,219.778 385.84,227.513 C 385.84,228.587 387.467,228.587 387.467,227.513 C 387.467,220.009 388.231,214.848 390.329,209.304 C 390.681,208.309 389.195,207.727 388.812,208.721 Z" fill="#e5664c" marker-start="none" marker-end="none"/>
     <path d="M 395.522,313.183 C 393.483,298.389 396.897,286.748 392.95,274.837 C 385.519,259.552 373.145,243.119 366.085,229.029 C 362.459,225.202 355.399,224.097 353.419,218.874 C 353.069,217.882 351.552,218.462 351.922,219.458 C 354.173,225.354 352.826,231.067 356.974,235.446 C 364.006,249.486 375.154,263.808 382.567,279.075 C 386.302,290.455 391.264,299.353 393.251,313.504 C 393.453,315.02 395.753,314.699 395.522,313.183 Z" fill="#b24c00" marker-start="none" marker-end="none"/>
     <path d="M 400.313,311.344 C 394.589,294.13 393.332,287.944 386.272,276.535 C 381.31,268.971 386.533,277.267 381.783,269.704 C 378.307,261.298 369.871,254.036 364.739,247.176 C 361.233,243.009 359.195,240.759 355.901,236.583 C 350.236,228.235 341.217,225.904 335.472,218.082 C 334.799,217.208 333.512,218.172 334.157,219.045 C 339.761,226.638 342.764,234.071 348.277,242.156 C 351.632,246.415 353.791,248.814 357.327,253.073 C 362.026,259.259 369.288,266.903 372.442,274.545 C 377.313,282.25 372.292,274.466 377.373,282.199 C 384.002,292.905 386.533,297.957 391.906,314.147 C 393.775,319.721 402.15,316.949 400.313,311.344 Z" fill="#b24c00" marker-start="none" marker-end="none"/>
     <path d="M 391.966,305.068 C 385.89,291.68 383.821,280.673 375.274,269.995 C 369.469,264.482 359.014,255.723 354.032,248.634 C 343.637,242.415 337.661,236.903 322.948,234.453 C 321.934,234.282 321.662,235.858 322.687,236.029 C 337.019,238.419 339.991,246.735 350.146,252.812 C 355.368,260.194 363.252,269.735 369.288,275.48 C 377.493,285.754 383.76,293.317 389.596,306.153 C 390.299,307.73 392.69,306.644 391.966,305.068 Z" fill="#b24c00" marker-start="none" marker-end="none"/>
     <path d="M 379.362,284.699 C 364.478,271.251 351.199,250.27 330.862,243.501 C 326.423,242.798 318.308,241.894 313.588,241.192 C 311.428,241.925 309.349,242.687 307.08,242.949 C 284.844,244.465 265.117,250.592 258.549,266.582 C 257.816,270.228 258.379,272.999 258.871,276.384 C 259.714,282.199 268.472,280.974 267.628,275.129 C 267.307,272.889 267.447,271.833 267.949,269.414 C 273.435,256.077 289.071,250.33 307.662,249.076 C 310.433,248.724 311.509,249.307 314.201,248.403 C 318.921,249.107 324.676,250.01 329.105,250.712 C 348.568,257.211 364.006,272.999 378.277,285.905 C 379.061,286.598 380.146,285.403 379.362,284.699 Z" fill="#b24c00" marker-start="none" marker-end="none"/>
     <path d="M 374.19,255.05 C 367.651,243.732 361.203,236.29 358.874,222.139 C 358.141,217.79 351.601,218.874 352.335,223.224 C 354.816,238.248 365.843,243.821 372.793,255.845 C 373.316,256.779 374.722,255.986 374.19,255.05 Z" fill="#e5664c" marker-start="none" marker-end="none"/>
     <path d="M 366.375,248.403 C 364.769,246.394 364.298,244.526 362.81,242.538 C 360.008,239.625 358.722,237.315 357.006,233.78 C 354.434,230.364 351.401,228.446 347.433,226.428 C 345.656,224.65 344.753,223.625 342.794,222.198 L 339.58,219.778 L 337.099,218.494 C 335.412,217.648 334.186,220.361 335.935,221.035 L 338.244,221.968 L 341.076,224.388 C 342.944,225.755 344.17,226.81 345.888,228.557 C 349.502,230.364 351.922,232.554 354.173,235.506 C 356.042,239.323 357.236,241.543 360.269,244.668 C 361.786,246.654 363.514,247.378 365.12,249.427 C 365.793,250.27 367.039,249.246 366.375,248.403 Z" fill="#e5664c" marker-start="none" marker-end="none"/>
     <path d="M 357.849,250.04 C 352.396,246.534 349.473,244.055 343.848,240.729 C 340.403,238.189 337.45,237.546 333.925,235.035 C 330.772,234.513 328.814,233.78 325.639,234.222 C 323.45,234.513 323.851,237.776 326.072,237.486 C 328.934,237.114 330.479,236.29 333.253,236.732 C 336.667,239.152 339.057,240.348 342.473,242.828 C 348.046,246.153 351.552,247.88 356.974,251.405 C 357.878,251.969 358.722,250.623 357.849,250.04 Z" fill="#e5664c" marker-start="none" marker-end="none"/>
     <path d="M 341.718,253.656 C 326.072,245.108 313.588,245.781 292.979,248.724 C 291.933,248.873 292.165,250.471 293.188,250.3 C 313.406,247.408 325.639,246.685 340.956,255.05 C 341.89,255.584 342.673,254.146 341.718,253.656 Z" fill="#e5664c" marker-start="none" marker-end="none"/>
     <path d="M 283.085,251.265 C 271.626,258.818 268.763,257.742 266.052,271.402 C 265.93,274.436 266.774,276.303 266.543,279.305 C 266.484,280.502 268.261,280.622 268.351,279.427 C 268.562,276.384 269.808,274.927 269.899,271.833 C 272.379,259.369 273.545,259.521 283.969,252.601 C 284.903,251.988 283.999,250.683 283.085,251.265 Z" fill="#e5664c" marker-start="none" marker-end="none"/>
     <path d="M 364.096,326.199 C 360.972,315.171 357.006,311.174 346.38,307.699 C 339.821,306.593 334.939,304.636 329.256,304.114 C 324.233,303.672 331.646,316.718 333.835,312.158 C 334.97,309.828 335.673,306.323 336.868,303.823 C 340.081,297.043 329.958,292.172 326.714,298.942 C 325.519,301.453 324.817,304.957 323.681,307.287 C 321.491,311.847 323.24,314.88 328.26,315.342 C 334.186,315.845 338.857,309.366 345.717,310.501 C 355.429,313.685 359.657,316.537 362.58,326.641 C 362.84,327.655 364.417,327.193 364.096,326.199 Z" fill="#b24c00" marker-start="none" marker-end="none"/>
     <path d="M 322.978,312.138 C 322.978,322.111 324.093,325.998 319.683,331.743 C 318.89,332.766 320.417,333.933 321.2,332.908 C 326.283,326.259 331.123,323.658 331.123,312.138 C 331.123,306.705 322.978,306.705 322.978,312.138 Z" fill="#b24c00" marker-start="none" marker-end="none"/>
     <path d="M 327.036,306.293 C 324.434,306.293 323.591,305.449 322.135,304.745 C 320.707,303.702 320.035,303.259 318.981,301.894 C 315.626,297.515 309.086,302.537 312.442,306.885 C 313.989,308.925 315.485,310.702 317.554,312.249 C 319.915,313.414 322.807,313.153 327.036,313.153 C 331.585,313.153 331.615,306.293 327.036,306.293 Z" fill="#b24c00" marker-start="none" marker-end="none"/>
     <path d="M 331.384,307.207 C 333.423,303.902 337.771,302.095 338.124,296.872 C 338.384,292.464 331.796,292.032 331.505,296.43 C 331.213,300.639 331.414,303.551 329.747,306.183 C 329.105,307.287 330.712,308.311 331.384,307.207 Z" fill="#b24c00" marker-start="none" marker-end="none"/>
     <path d="M 372.934,398.251 C 376.639,395.499 379.622,394.686 383.942,392.727 C 388.431,390.488 391.293,388.791 395.461,386.369 C 397.892,383.919 399.318,381.85 401.246,379.218 C 406.611,371.987 415.458,357.686 407.483,347.411 C 406.841,346.567 405.565,347.532 406.209,348.405 C 413.379,357.655 401.89,369.617 397.009,376.096 C 395.291,378.495 394.126,379.951 392.077,381.992 C 388.199,384.331 386.504,386.721 382.133,388.911 C 377.574,390.981 375.565,393.55 371.628,396.463 C 370.423,397.337 371.77,399.125 372.934,398.251 Z" fill="#b24c00" marker-start="none" marker-end="none"/>
     <path d="M 392.198,386.721 C 399.871,381.148 400.574,380.977 405.795,377.502 C 409.322,375.603 410.235,374.579 413.299,372.359 C 417.004,368.451 418.31,366.554 421.846,362.818 C 422.69,361.914 421.324,360.608 420.42,361.532 C 416.854,365.297 413.761,364.867 410.055,368.654 C 407.403,370.581 406.379,371.253 403.115,373.002 C 397.862,376.568 397.159,377.18 389.366,382.835 C 386.774,384.732 389.596,388.649 392.198,386.721 Z" fill="#b24c00" marker-start="none" marker-end="none"/>
     <path d="M 428.585,360.287 C 422.81,348.726 438.86,339.888 432,326.028 C 431.508,325.064 430.072,325.787 430.543,326.751 C 438.628,343.012 411.751,351.759 418.491,365.297 C 421.846,372.017 431.939,366.966 428.585,360.287 Z" fill="#b24c00" marker-start="none" marker-end="none"/>
     <path d="M 421.033,367.809 C 431.799,367.057 436.609,361.622 441.22,355.376 C 445.689,349.339 436.641,342.66 432.17,348.697 C 429.378,352.463 426.716,356.109 420.239,356.581 C 412.736,357.073 413.529,368.331 421.033,367.809 Z" fill="#b24c00" marker-start="none" marker-end="none"/>
     <path d="M 414.696,369.004 C 416.472,369.908 416.825,370.812 418.342,371.987 C 420.007,373.213 420.821,373.263 422.307,374.759 C 426.427,383.105 434.922,381.348 440.808,375.19 C 441.541,374.409 440.377,373.323 439.642,374.086 C 436.67,377.18 432.843,372.922 430.805,368.684 C 428.847,366.764 427.27,364.625 425.17,363.058 C 423.04,361.392 421.817,361.482 419.305,360.195 C 413.439,357.102 408.799,365.91 414.696,369.004 Z" fill="#b24c00" marker-start="none" marker-end="none"/>
     <path d="M 416.974,367.67 C 419.978,369.677 423.744,372.539 428.756,372.922 C 433.698,372.922 436.259,368.654 439.151,367.458 C 441.481,366.473 440.024,362.968 437.694,363.963 C 435.445,364.867 432.903,362.205 429.228,362.064 C 426.225,361.853 423.714,361.532 421.846,360.306 C 416.974,357.042 412.074,364.394 416.974,367.67 Z" fill="#b24c00" marker-start="none" marker-end="none"/>
     <path d="M 280.081,385.817 C 272.7,384.381 270.159,380.977 266.373,375.863 C 264.876,372.922 264.093,370.349 264.093,365.91 C 265.55,360.688 263.008,365.158 265.168,360.719 C 265.64,359.756 264.183,359.061 263.711,360.015 C 261.441,364.685 262.777,359.965 261.201,365.48 C 261.201,370.732 260.8,374.759 262.517,378.255 C 266.805,384.01 271.416,385.787 279.792,387.394 C 280.815,387.594 281.137,385.988 280.081,385.817 Z" fill="#b24c00" marker-start="none" marker-end="none"/>
     <path d="M 264.414,368.281 C 273.926,370.41 276.176,371.546 283.648,367.841 C 290.356,364.454 285.335,354.391 278.625,357.746 C 274.015,360.045 272.67,358.589 266.895,357.273 C 259.543,355.646 257.094,366.644 264.414,368.281 Z" fill="#b24c00" marker-start="none" marker-end="none"/>
     <path d="M 268.875,366.494 C 272.238,359.785 271.124,353.809 275.674,347.993 C 277.401,345.784 274.046,343.183 272.319,345.401 C 267.478,351.619 262.395,354.301 258.81,361.482 C 255.456,368.191 265.519,373.213 268.875,366.494 Z" fill="#b24c00" marker-start="none" marker-end="none"/>
     <path d="M 268.995,366.091 C 267.157,354.652 257.465,349.51 248.396,358.589 C 247.663,359.373 248.777,360.488 249.56,359.724 C 254.582,354.713 257.675,361.392 258.689,367.718 C 259.773,374.609 270.13,372.952 268.995,366.091 Z" fill="#b24c00" marker-start="none" marker-end="none"/>
     <path d="M 335.09,293.488 C 330.42,295.325 329.958,295.125 327.477,298.389 C 327.066,300.377 326.834,302.034 326.423,304.194 C 326.132,305.68 328.412,306.122 328.703,304.606 C 329.105,302.507 329.717,301.391 330.129,299.584 C 332.057,297.023 331.676,296.581 335.702,295.004 C 336.698,294.592 336.115,293.076 335.09,293.488 Z" fill="#e5664c" marker-start="none" marker-end="none"/>
     <path d="M 324.495,305.419 C 321.581,303.472 318.78,301.22 314.631,300.578 C 313.558,300.407 313.325,302.034 314.372,302.186 C 318.277,302.768 320.878,304.927 323.591,306.764 C 324.464,307.377 325.368,306.032 324.495,305.419 Z" fill="#e5664c" marker-start="none" marker-end="none"/>
     <path d="M 329.195,315.051 C 329.195,322.373 325.047,326.169 322.135,330.076 C 322.135,330.076 320.417,332.445 320.417,332.445 C 319.744,333.29 320.969,334.254 321.662,333.44 L 323.561,331.161 C 326.653,327.014 330.772,322.815 330.772,315.051 C 330.772,313.977 329.195,313.977 329.195,315.051 Z" fill="#e5664c" marker-start="none" marker-end="none"/>
     <path d="M 431.387,325.848 C 435.705,329.031 432.23,326.32 433.928,329.674 C 434.038,331.331 434.099,332.386 433.987,334.163 C 433.987,334.163 434.651,340.32 434.682,341.194 C 433.928,344.378 433.456,345.603 431.738,347.993 C 429.962,350.887 428.524,352.894 426.546,354.973 L 423.653,357.334 C 422.81,357.976 423.773,359.231 424.647,358.589 L 427.772,356.309 C 429.81,354.15 431.387,351.97 433.225,349.017 C 435.123,346.417 435.445,344.931 436.288,341.375 C 436.288,340.963 435.876,334.866 435.796,334.133 C 435.876,332.296 435.876,331.01 435.796,329.142 C 433.516,324.973 437.311,328.207 432.351,324.531 C 431.508,323.919 430.543,325.205 431.387,325.848 Z" fill="#e5664c" marker-start="none" marker-end="none"/>
     <path d="M 438.217,350.946 C 438.971,355.585 437.252,357.515 435.033,360.488 L 431.036,363.401 C 429.46,364.574 431.125,366.874 432.732,365.771 L 437.162,362.677 C 439.794,359.172 440.698,356.139 439.794,350.686 C 439.642,349.63 438.036,349.891 438.217,350.946 Z" fill="#e5664c" marker-start="none" marker-end="none"/>
     <path d="M 272.61,344.258 C 275.151,347.652 271.355,351.347 268.853,354.763 C 266.513,358.239 267.538,358.941 264.705,361.853 C 263.51,363.109 265.379,364.947 266.574,363.702 C 269.667,360.517 270.571,361.562 273.112,357.746 C 276.468,353.246 277.52,347.622 274.157,343.122 C 273.402,342.098 271.857,343.244 272.61,344.258 Z" fill="#e5664c" marker-start="none" marker-end="none"/>
     <path d="M 282.041,360.608 C 279.792,365.651 280.203,364.574 275.362,365.942 C 273.081,366.061 272.319,367.137 270.048,367.607 C 267.739,368.041 268.412,371.487 270.692,371.023 C 272.731,370.673 274.248,371.576 276.266,371.487 C 283.467,369.417 282.884,369.999 286.239,362.526 C 287.524,359.724 283.296,357.805 282.041,360.608 Z" fill="#e5664c" marker-start="none" marker-end="none"/>
     <path d="M 325.84,389.584 L 328.582,388.437 C 330.36,386.249 331.092,382.814 331.293,378.636 C 328.523,374.87 330.42,376.889 326.773,375.572 C 326.162,375.342 327.066,377.502 327.297,376.859 L 328.322,374.286 C 328,367.487 323.51,365.008 318.017,363.841 C 313.639,366.153 313.376,365.621 311.509,369.326 C 310.755,370.903 313.086,372.067 313.879,370.491 C 315.425,367.377 314.552,367.287 318.227,365.329 C 322.948,366.383 326.513,368.1 326.773,373.966 L 325.58,376.046 C 325.256,376.658 325.459,377.089 326.132,377.351 C 329.105,378.435 327.739,376.386 329.747,379.108 C 329.486,382.403 328,384.089 326.513,385.958 L 324.646,387.244 C 323.208,388.237 324.233,390.226 325.84,389.584 Z" fill="#e5664c" marker-start="none" marker-end="none"/>
     <path d="M 309.32,365.971 C 306.757,359.905 305.532,358.239 301.064,361.652 L 299.195,362.034 C 293.188,359.031 291.582,358.179 289.885,365.218 C 289.513,366.814 294.264,364.515 292.747,363.841 C 284.17,359.785 284.31,364.194 283.004,373.323 L 281.047,375.692 C 280.726,376.156 280.404,376.798 280.635,377.319 L 282.593,381.499 C 276.928,386.4 276.818,389.05 281.69,393.691 C 284.17,394.223 287.586,393.23 290.035,393.319 C 291.11,393.37 291.2,391.794 290.126,391.743 C 287.786,391.623 286.5,389.464 284.17,388.971 C 281.598,386.52 281.487,384.824 284.491,382.251 L 285.014,377.591 L 287.083,374.96 C 287.816,369.878 286.209,365.297 290.998,367.578 C 292.515,368.281 293.51,367.809 293.882,366.172 C 294.815,362.325 295.549,361.885 298.844,363.521 L 301.827,363.932 C 304.739,361.683 306.176,362.618 307.832,366.614 C 308.243,367.607 309.73,366.966 309.32,365.971 Z" fill="#e5664c" marker-start="none" marker-end="none"/>
     <path d="M 318.077,383.075 C 319.453,380.364 320.94,378.817 322.657,376.476 C 324.354,374.286 321.03,371.807 319.391,373.995 C 317.494,376.537 317.204,378.959 315.747,381.88 C 314.953,383.447 317.324,384.622 318.077,383.075 Z" fill="#e5664c" marker-start="none" marker-end="none"/>
     <path d="M 313.466,379.861 L 312.884,372.128 C 312.622,368.654 307.4,369.064 307.662,372.539 L 308.273,380.273 C 308.536,383.748 313.759,383.336 313.466,379.861 Z" fill="#e5664c" marker-start="none" marker-end="none"/>
     <path d="M 303.804,377.822 C 302.409,375.633 302.057,373.856 300.863,371.666 C 299.958,370.029 297.478,371.344 298.382,373.002 C 299.608,375.252 301.034,376.447 302.47,378.696 C 303.051,379.601 304.388,378.725 303.804,377.822 Z" fill="#e5664c" marker-start="none" marker-end="none"/>
     <path d="M 297.066,382.141 L 293.882,380.093 L 291.291,380.122 C 289.743,380.182 289.743,382.403 291.291,382.432 L 293.27,382.432 L 296.132,383.798 C 297.277,384.361 298.151,382.835 297.066,382.141 Z" fill="#e5664c" marker-start="none" marker-end="none"/>
     <path d="M 235.469,376.096 C 230.97,373.885 234.676,374.87 231.26,372.359 C 221.318,360.688 202.788,340.822 212.469,321.389 C 213.113,319.249 212.761,317.883 213.434,316.166 C 215.714,310.24 206.815,306.795 204.536,312.691 C 203.771,314.639 202.817,314.79 202.054,317.15 C 190.233,340.932 211.477,366.293 223.678,380.535 C 227.997,383.748 225.807,381.148 231.502,384.04 C 236.775,386.661 240.753,378.725 235.469,376.096 Z" fill="#b24c00" marker-start="none" marker-end="none"/>
     <path d="M 227.524,373.353 C 222.394,366.614 219.972,360.428 214.92,353.859 C 211.154,346.397 208.823,342.278 204.365,335.711 C 198.198,320.364 187.812,314.931 181.133,301.602 C 180.662,300.669 179.235,301.362 179.698,302.325 C 186.206,315.342 188.486,325.998 194.472,340.993 C 198.641,347.09 201.934,352.845 205.44,359.844 C 210.492,366.413 217.401,370.349 222.573,377.119 C 225.104,380.414 230.036,376.658 227.524,373.353 Z" fill="#b24c00" marker-start="none" marker-end="none"/>
     <path d="M 218.868,365.45 C 211.596,359.463 207.076,349.922 200.478,343.323 C 189.973,332.799 182.27,326.842 166.249,323.197 C 165.164,322.954 164.853,324.531 165.868,324.803 C 181.044,328.207 182.56,341.345 192.513,351.297 C 199.253,358.006 207.106,364.625 214.519,370.762 C 218.074,373.644 222.394,368.331 218.868,365.45 Z" fill="#b24c00" marker-start="none" marker-end="none"/>
     <path d="M 201.12,341.225 C 197.585,338.543 196.832,335.007 193.096,332.527 C 187.29,328.971 181.516,327.685 175.409,324.622 C 173.37,324.211 172.085,323.457 169.986,323.076 C 167.916,322.664 167.335,325.737 169.373,326.109 C 171.472,326.521 172.607,326.58 174.596,326.963 C 180.581,329.966 184.579,333.46 190.293,336.936 C 193.879,339.326 196.742,339.918 200.157,342.51 C 200.971,343.183 201.964,341.898 201.12,341.225 Z" fill="#e5664c" marker-start="none" marker-end="none"/>
     <path d="M 206.756,342.098 C 203.079,335.188 200.769,331.161 201.181,321.238 C 202.115,315.232 202.958,311.787 206.524,309.155 C 207.398,308.544 206.463,307.227 205.56,307.84 C 201.503,310.882 198.761,314.026 197.676,320.916 C 197.274,331.513 201.411,335.479 205.349,342.861 C 205.85,343.795 207.247,343.032 206.756,342.098 Z" fill="#e5664c" marker-start="none" marker-end="none"/>
     <path d="M 197.274,324.884 C 196.039,321.881 195.054,319.662 193.739,317.039 C 191.288,312.079 188.457,308.141 183.787,304.957 C 182.912,304.315 182.008,305.66 182.881,306.272 C 187.29,309.305 189.682,313.183 192.021,317.883 C 193.326,320.484 194.582,322.494 195.748,325.496 C 196.159,326.49 197.645,325.908 197.274,324.884 Z" fill="#e5664c" marker-start="none" marker-end="none"/>
     <path d="M 202.667,390.046 C 194.843,387.624 180.401,385.988 170.157,387.624 C 169.082,387.777 169.343,389.373 170.418,389.201 C 180.431,387.624 194.552,389.201 202.206,391.562 C 203.221,391.913 203.693,390.367 202.667,390.046 Z" fill="#b24c00" marker-start="none" marker-end="none"/>
     <path d="M 165.727,392.938 C 171.945,397.549 176.283,401.455 178.442,410.001 C 178.713,411.056 180.261,410.674 179.989,409.63 C 177.248,398.803 180.29,389.663 172.406,383.888 C 166.369,379.429 159.681,388.469 165.727,392.938 Z" fill="#b24c00" marker-start="none" marker-end="none"/>
     <path d="M 174.044,391.04 C 172.527,381.669 166.982,375.955 162.574,370.029 C 161.961,369.186 160.646,370.149 161.288,370.994 C 165.317,376.386 161.52,384.27 162.926,392.817 C 164.12,400.229 175.238,398.452 174.044,391.04 Z" fill="#b24c00" marker-start="none" marker-end="none"/>
     <path d="M 166.862,382.835 C 155.864,381.318 155.484,391.27 151.365,398.161 C 150.964,399.847 150.812,401.395 150.4,403.122 C 150.141,404.136 151.717,404.518 151.948,403.474 C 152.36,401.745 153.032,400.611 153.444,399.004 C 155.864,394.947 158.667,393.048 165.285,393.982 C 172.698,395.006 174.274,383.859 166.862,382.835 Z" fill="#b24c00" marker-start="none" marker-end="none"/>
     <path d="M 126.246,348.817 C 108.701,347.09 94.871,347.15 88.222,358.559 C 86.414,361.009 85.742,362.908 84.607,365.8 C 83.141,369.617 88.865,371.807 90.352,368.02 C 91.226,365.68 92.33,364.163 93.766,362.175 C 99.571,352.262 110.809,348.927 126.066,350.423 C 127.18,350.504 127.291,348.927 126.246,348.817 Z" fill="#b24c00" marker-start="none" marker-end="none"/>
     <path d="M 172.669,385.265 C 171.945,375.603 170.739,373.062 162.895,369.215 C 161.93,368.713 161.228,370.18 162.192,370.64 C 169.022,374.027 168.409,377.089 169.082,385.526 C 169.253,387.916 172.878,387.686 172.669,385.265 Z" fill="#e5664c" marker-start="none" marker-end="none"/>
     <path d="M 172.728,391.592 C 177.248,395.128 180.23,400.782 180.23,409.218 C 180.23,410.272 181.857,410.272 181.857,409.218 C 181.857,399.738 179.97,392.757 174.858,388.82 C 173.019,387.394 170.86,390.166 172.728,391.592 Z" fill="#e5664c" marker-start="none" marker-end="none"/>
     <path d="M 160.937,385.265 C 151.687,388.036 152.481,385.025 148.302,390.106 C 147.459,391.973 146.875,393.752 146.233,395.679 C 144.827,399.879 151.134,401.977 152.53,397.809 C 153.062,396.142 153.295,395.298 154.057,393.721 C 157.2,389.875 154.72,390.076 161.76,387.947 C 163.537,387.423 162.744,384.732 160.937,385.265 Z" fill="#e5664c" marker-start="none" marker-end="none"/>
     <path d="M 408.769,216.394 C 404.159,206.964 395.06,209.153 395.202,219.838 C 395.291,224.207 397.48,227.01 398.124,230.956 C 399.027,236.762 398.124,246.716 399.287,251.906 C 401.477,282.54 413.529,299.353 406.87,329.966 C 405.536,336.123 403.457,341.434 400.834,346.106 C 393.714,363.401 385.86,375.222 375.365,388.437 C 372.121,390.839 372.884,389.373 369.841,391.502 C 368.536,394.253 369.319,394.364 366.517,396.062 C 365.613,396.644 366.456,397.98 367.39,397.426 C 370.895,395.269 370.865,396.644 372.382,393.642 C 374.923,391.773 373.196,392.033 376.439,389.584 C 387.236,376.065 398.505,366.201 405.827,348.496 C 408.659,343.354 411.401,338.021 412.888,331.282 C 419.657,299.996 409.644,282.018 407.403,250.763 C 406.32,245.691 405.856,235.536 404.952,229.904 C 404.37,226.197 401.94,223.777 401.83,219.718 C 401.77,215.049 405.324,213.009 407.343,217.117 C 407.805,218.082 409.272,217.358 408.769,216.394 Z" fill="#ccff7f" marker-start="none" marker-end="none"/>
     <path d="M 122.741,357.273 C 118.011,360.135 108.62,358.82 104.563,361.804 C 98.667,366.122 95.252,378.927 95.864,387.565 C 96.357,394.595 102.815,394.806 102.313,387.795 C 101.932,381.911 105.587,371.516 109.555,368.573 C 113.291,365.86 119.236,361.301 123.555,358.65 C 124.49,358.097 123.646,356.722 122.741,357.273 Z" fill="#ccff7f" marker-start="none" marker-end="none"/>
     <path d="M 403.577,11.919 C 404.863,11.516 407.082,12.009 408.829,11.839 C 416.181,11.247 420.68,13.937 425,16.97 C 428.847,20.768 430.775,22.867 432.582,28.762 C 432.872,31.736 433.055,33.342 433.165,36.315 C 435.905,54.786 427.069,65.09 418.05,74.109 C 411.602,80.586 407.372,88.843 399.58,94.125 C 394.266,98.121 387.587,101.275 383.439,105.534 C 380.697,107.783 381.31,111.4 378.337,113.59 C 377.493,114.262 378.448,115.518 379.301,114.905 C 382.104,112.797 384.615,112.013 387.406,109.943 C 391.354,105.764 395.934,100.052 401.035,96.163 C 408.98,90.8 415.368,84.614 421.966,78.015 C 431.849,68.092 439.703,56.301 436.641,35.993 C 436.549,32.93 436.319,31.122 435.997,28.089 C 433.987,21.52 431.096,18.979 426.898,14.751 C 421.966,11.307 416.794,7.37 408.477,8.042 C 406.55,8.243 404.48,9.94 403.115,10.373 C 402.061,10.694 402.552,12.21 403.577,11.919 Z" fill="#000000" marker-start="none" marker-end="none"/>
     <path d="M 380.316,51.169 C 384.083,52.656 384.113,55.026 386.884,57.064 C 391.465,66.224 388.29,75.243 385.137,83.74 C 383.088,87.847 380.928,91.814 377.081,94.646 C 373.497,99.489 373.928,98.263 372,102.21 C 368.264,106.88 367.602,112.856 365.583,118.692 C 365.23,119.716 366.777,120.238 367.129,119.224 C 368.967,113.79 372.673,109.18 376.147,104.801 C 377.865,101.275 377.574,102.15 380.588,98.092 C 384.756,94.858 385.811,89.836 388.199,85.046 C 391.644,75.655 394.91,64.767 389.838,54.643 C 386.914,52.454 384.876,51.229 380.928,49.683 C 379.945,49.271 379.332,50.788 380.316,51.169 Z" fill="#000000" marker-start="none" marker-end="none"/>
     <path d="M 365,120.499 C 362.78,126.655 360.39,129.638 358.059,135.766 C 357.035,137.924 356.422,139.702 355.689,141.952 L 354.353,146.009 C 353.329,149.183 353.009,153.562 352.396,157.068 C 352.194,158.875 351.632,160.01 351.521,161.848 C 351.521,163.958 351.903,165.182 351.903,167.311 C 351.903,168.386 353.499,168.386 353.499,167.311 C 353.499,165.182 353.852,164.007 353.852,161.939 C 353.941,160.13 353.791,159.055 353.973,157.268 C 354.585,153.914 355.84,149.856 356.855,146.793 C 356.855,146.793 357.878,142.825 357.909,142.625 C 358.612,140.465 359.395,138.799 360.39,136.759 C 362.7,130.632 364.267,127.188 366.485,121.061 C 366.867,120.068 365.35,119.485 365,120.499 Z" fill="#000000" marker-start="none" marker-end="none"/>
     <path d="M 405.034,169.933 C 411.079,169.933 407.985,171.188 413.349,169.471 C 424.467,161.877 428.414,142.212 415.689,132.702 C 414.815,132.059 413.851,133.345 414.725,133.987 C 425.693,142.152 420.821,158.644 411.22,165.152 C 406.64,166.67 410.205,167.1 405.034,167.1 C 403.165,167.1 403.165,169.933 405.034,169.933 Z" fill="#000000" marker-start="none" marker-end="none"/>
     <path d="M 381.541,139.702 C 369.229,144.573 363.774,157.801 359.517,170.405 C 359.135,173.99 359.627,177.204 359.627,180.992 C 359.627,186.514 359.838,190.562 360.541,194.59 L 363.072,199.2 C 363.685,200.224 365.03,199.702 364.769,198.537 L 363.714,193.686 C 363.041,189.869 362.428,186.303 362.428,180.992 C 362.428,177.315 363.131,174.754 363.543,171.279 C 367.54,159.317 370.484,145.798 382.133,141.219 C 383.118,140.847 382.536,139.32 381.541,139.702 Z" fill="#000000" marker-start="none" marker-end="none"/>
     <path d="M 398.474,218.112 C 402.15,215.37 404.711,219.075 405.153,223.394 C 406.287,235.506 400.664,250.763 403.637,262.905 C 404.37,264.834 405.003,266.521 405.384,268.651 C 409.562,282.199 414.051,289.932 415.78,305.68 C 415.78,308.693 415.539,310.271 415.539,313.273 C 414.082,330.025 409.211,340.701 402.061,351.589 C 401.477,352.493 402.823,353.366 403.436,352.463 C 410.728,341.254 416.945,330.609 418.461,313.414 C 418.461,310.381 418.26,308.544 418.26,305.54 C 416.502,289.49 415.017,281.175 410.728,267.374 C 410.286,264.864 409.732,263.578 408.889,261.268 C 405.997,249.486 408.448,234.985 407.343,223.164 C 406.761,217.068 402.503,212.719 397.33,216.596 C 396.316,217.358 397.451,218.874 398.474,218.112 Z" fill="#000000" marker-start="none" marker-end="none"/>
     <path d="M 393.945,226.105 C 386.592,224.681 385.458,225.844 383.41,232.123 C 386.181,246.042 397.099,251.265 402.613,262.444 C 403.084,263.398 404.541,262.674 404.068,261.71 C 398.736,250.974 390.159,245.781 387.497,232.353 C 388.903,228.094 388.633,226.718 393.624,227.714 C 394.709,227.914 394.999,226.317 393.945,226.105 Z" fill="#000000" marker-start="none" marker-end="none"/>
     <path d="M 370.956,216.454 C 373.898,223.484 373.959,225.996 377.113,231.157 C 378.921,233.87 380.146,235.506 381.812,238.248 C 383.389,240.93 385.166,242.215 387.116,244.697 C 387.789,245.54 389.044,244.526 388.401,243.701 C 386.504,241.311 385.72,239.382 384.263,236.842 C 382.536,234.02 381.31,232.383 379.502,229.671 C 376.409,224.62 375.304,222.691 372.442,215.841 C 372,214.848 370.544,215.461 370.956,216.454 Z" fill="#000000" marker-start="none" marker-end="none"/>
     <path d="M 311.368,283.243 C 316.561,293.719 323.24,287.532 332.73,290.686 C 340.344,293.578 347.082,294.803 353.62,299.444 C 365.904,308.081 372.271,336.966 365,355.355 C 364.618,356.34 366.105,356.953 366.485,355.968 C 374.482,335.711 371.036,303.321 357.557,293.839 C 350.466,288.847 343.928,285.463 335.673,282.338 C 326.162,279.156 318.017,293.076 312.793,282.52 C 312.332,281.555 310.866,282.279 311.368,283.243 Z" fill="#000000" marker-start="none" marker-end="none"/>
     <path d="M 391.354,357.484 C 390.159,359.142 388.611,359.614 386.714,360.336 C 386.362,360.488 388.26,360.719 387.969,360.548 L 385.337,359.142 C 384.373,358.65 383.621,359.614 384.343,360.398 L 386.333,362.587 C 386.683,362.968 387.176,362.968 387.618,362.789 C 389.947,361.914 391.173,360.428 392.639,358.418 C 393.272,357.566 391.966,356.631 391.354,357.484 Z" fill="#000000" marker-start="none" marker-end="none"/>
     <path d="M 388.933,366.262 C 386.212,368.975 387.819,367.398 384.263,366.232 C 381.753,365.418 380.557,369.156 383.037,369.968 C 388.812,371.866 385.811,371.957 390.209,367.548 C 391.063,366.674 389.776,365.418 388.933,366.262 Z" fill="#000000" marker-start="none" marker-end="none"/>
     <path d="M 385.629,376.276 C 384.403,376.627 383.208,376.046 382.475,375.08 C 380.638,372.6 376.931,375.372 378.769,377.822 C 380.467,380.093 383.65,379.892 386.472,379.047 C 388.341,378.495 387.497,375.692 385.629,376.276 Z" fill="#000000" marker-start="none" marker-end="none"/>
     <path d="M 379.563,382.835 L 376.931,383.105 L 375.415,382.141 C 371.799,380.504 369.319,385.526 372.763,387.454 L 375.154,388.73 C 375.565,388.971 376.56,389.141 377.022,389.021 L 380.467,387.977 C 383.792,386.952 383.037,382.432 379.563,382.835 Z" fill="#000000" marker-start="none" marker-end="none"/>
     <path d="M 418.11,431.013 C 424.237,435.773 427.159,433.173 429.719,426.494 C 424.557,412.724 390.912,409.249 376.701,415.053 C 371.277,416.339 369.871,418.79 364.537,419.784 C 361.233,420.427 358.964,421.763 355.108,421.471 C 352.194,421.36 348.779,420.488 346.82,420.075 C 344.893,419.282 342.532,419.372 340.514,418.699 C 336.195,417.443 333.282,415.255 329.547,413.767 C 326.513,411.699 326.624,412.111 323.62,410.674 L 322.274,408.253 C 321.2,406.507 318.338,408.636 319.774,410.153 L 322.074,412.573 C 324.906,413.95 324.967,414.643 327.97,416.721 C 331.847,418.207 335.382,419.895 339.731,421.211 C 341.598,421.792 343.527,423.751 345.275,424.655 C 347.344,425.067 351.753,425.59 354.876,425.68 C 359.335,426.031 361.967,426.935 365.763,426.172 C 371.277,425.177 373.114,422.586 378.72,421.271 C 391.644,415.988 423.533,413.919 428.203,426.494 C 426.336,431.485 424.066,432.71 419.505,429.205 C 418.281,428.272 416.884,430.078 418.11,431.013 Z" fill="#000000" marker-start="none" marker-end="none"/>
     <path d="M 253.095,339.276 C 261.201,339.276 266.373,337.196 270.369,331.652 C 275.592,323.718 270.982,312.018 263.601,308.402 C 262.667,307.899 261.934,309.366 262.897,309.828 C 268.613,312.66 269.607,322.202 265.55,328.389 C 262.284,332.938 259.744,337.459 253.095,337.459 C 251.901,337.459 251.901,339.276 253.095,339.276 Z" fill="#000000" marker-start="none" marker-end="none"/>
     <path d="M 247.17,308.311 C 229.805,308.311 219.098,319.228 214.659,332.215 C 214.138,334.806 214.107,336.846 213.785,339.415 C 213.785,344.529 215.714,347.854 216.529,351.619 C 216.759,352.634 218.335,352.313 218.105,351.237 C 217.321,347.701 218.626,344.558 218.626,339.708 C 218.888,337.257 219.5,336.091 219.972,333.671 C 223.97,321.911 231.532,309.918 247.17,309.918 C 248.244,309.918 248.244,308.311 247.17,308.311 Z" fill="#000000" marker-start="none" marker-end="none"/>
     <path d="M 302.58,417.565 C 294.585,424.714 285.626,430.229 275.472,434.869 C 270.13,437.38 260.327,438.254 253.908,435.04 C 248.626,431.485 243.754,430.43 241.395,423.4 C 240.461,417.685 242.881,415.526 247.019,413.447 C 253.758,414.009 253.236,418.378 251.228,423.49 C 250.003,425.148 248.214,425.418 246.085,425.097 C 245.01,424.947 244.78,426.523 245.823,426.694 C 248.917,427.167 251.98,427.277 253.738,424.885 C 256.941,416.751 256.831,409.449 246.085,408.606 C 240.541,411.377 238.593,416.137 239.869,423.782 C 242.59,432.007 243.725,437.701 249.882,441.869 C 257.937,445.897 270.402,441.548 277.14,438.425 C 287.524,433.644 295.428,426.111 303.694,418.759 C 304.477,418.056 303.403,416.832 302.58,417.565 Z" fill="#000000" marker-start="none" marker-end="none"/>
     <path d="M 269.928,413.186 C 266.282,415.023 263.741,414.732 260.216,416.459 C 258.58,416.921 257.675,418.178 255.918,418.589 C 254.904,418.819 255.255,420.397 256.299,420.136 C 258.058,419.724 259.714,420.246 261.441,419.874 C 265.058,418.026 267.186,416.721 270.803,414.882 C 271.947,414.32 271.094,412.603 269.928,413.186 Z" fill="#000000" marker-start="none" marker-end="none"/>
     <path d="M 236.312,421.561 C 230.417,422.174 226.541,420.919 221.227,420.045 C 216.497,419.282 215.452,418.469 212.329,416.691 L 209.989,415.436 C 206.544,410.563 206.604,406.355 209.176,399.938 C 213.555,396.353 219.098,393.752 224.552,397.98 C 225.395,398.623 226.39,397.367 225.547,396.704 C 218.748,391.471 210.863,392.727 205.379,397.167 C 202.286,405.05 203.752,411.468 207.98,417.443 L 210.431,419.633 C 213.956,421.652 215.302,422.666 220.645,423.49 C 226.19,424.455 230.297,423.782 236.484,423.198 C 237.538,423.049 237.397,421.471 236.312,421.561 Z" fill="#000000" marker-start="none" marker-end="none"/>
     <path d="M 225.456,400.872 C 225.456,404.086 224.2,405.101 223.005,407.26 C 220.093,409.37 220.354,409.249 217.722,407.119 L 216.818,405.362 C 216.004,403.905 214.398,404.348 214.398,406.004 L 214.339,408.577 C 214.339,408.927 214.749,409.37 214.981,409.6 C 219.821,413.507 220.755,413.888 226.099,409.983 C 227.556,407.41 227.063,404.778 227.063,400.872 C 227.063,399.798 225.456,399.798 225.456,400.872 Z" fill="#000000" marker-start="none" marker-end="none"/>
     <path d="M 349.502,348.375 C 347.875,357.946 344.953,362.466 342.673,369.446 C 338.968,374.759 337.099,380.996 330.892,383.447 C 329.898,383.828 330.479,385.315 331.475,384.944 C 338.184,382.312 343.024,377.351 347.023,371.606 C 349.363,364.454 349.443,358.418 351.079,348.637 C 351.23,347.591 349.653,347.33 349.502,348.375 Z" fill="#000000" marker-start="none" marker-end="none"/>
     <path d="M 233.31,348.284 C 242.961,365.831 250.875,378.836 269.839,386.571 L 272.268,387.655 C 273.694,388.237 274.659,386.308 273.283,385.556 L 270.893,384.211 C 252.483,376.677 244.107,364.574 234.705,347.532 C 234.184,346.567 232.778,347.351 233.31,348.284 Z" fill="#000000" marker-start="none" marker-end="none"/>
     <path d="M 210.019,390.136 C 200.126,383.508 190.877,377.351 180.371,372.419 C 178.564,371.487 177.248,371.023 175.439,370.119 C 171.011,368.331 168.148,367.427 162.484,367.026 C 156.619,368.191 151.485,369.536 149.236,374.93 C 148.824,375.926 150.321,376.568 150.722,375.572 C 152.711,370.732 157.412,370.26 162.604,369.215 C 167.996,369.587 170.369,370.491 174.565,372.128 C 176.314,373.032 177.487,373.765 179.267,374.669 C 189.682,379.57 199.313,384.883 209.145,391.502 C 210.019,392.095 210.893,390.748 210.019,390.136 Z" fill="#000000" marker-start="none" marker-end="none"/>
     <path d="M 143.11,355.496 C 128.869,350.686 112.115,349.752 102.493,359.815 C 101.239,362.385 101.289,364.745 100.385,367.227 C 100.014,368.22 101.53,368.804 101.881,367.809 C 102.785,365.358 104.623,364.655 105.849,362.125 C 114.686,352.874 129.51,352.584 142.587,357.012 C 143.601,357.365 144.104,355.818 143.11,355.496 Z" fill="#000000" marker-start="none" marker-end="none"/>
     <path d="M 164.503,436.295 C 165.757,432.529 166.773,429.356 166.249,424.655 C 166.16,423.871 165.727,423.49 164.934,423.49 C 155.102,423.49 148.744,420.658 140.247,422.526 C 137.626,423.169 134.121,424.274 130.293,424.274 C 124.61,424.714 118.885,424.685 112.818,424.685 C 106.492,423.279 103.307,424.947 97.883,422.265 C 96.92,421.792 96.217,423.259 97.182,423.722 C 102.895,426.523 105.497,429.296 112.176,430.751 C 118.362,430.751 124.7,430.32 130.475,429.908 C 134.914,429.908 138.79,430.029 141.823,429.296 C 149.879,427.517 155.623,426.111 164.934,426.111 C 165.727,426.111 163.568,424.163 163.648,424.947 C 164.15,429.296 164.15,432.297 162.986,435.803 C 162.664,436.798 164.181,437.32 164.503,436.295 Z" fill="#000000" marker-start="none" marker-end="none"/>
     <path d="M 94.439,380.475 C 92.099,389.724 95.312,407.763 101.59,410.886 C 108.149,414.059 119.768,416.399 125.072,411.318 C 129.34,407.26 123.264,400.842 118.975,404.899 C 115.65,408.084 108.379,407.351 104.302,405.341 C 99.11,402.8 94.058,388.529 95.985,380.886 C 96.247,379.831 94.7,379.449 94.439,380.475 Z" fill="#000000" marker-start="none" marker-end="none"/>
     <path d="M 77.778,360.658 C 73.308,371.957 64.73,386.63 67.622,400.902 C 69.572,408.898 74.855,413.658 79.675,418.67 C 83.461,422.666 89.417,416.952 85.621,413.016 C 81.945,409.188 80.048,404.548 78.592,398.452 C 75.989,385.587 75.235,371.454 79.264,361.272 C 79.675,360.287 78.178,359.674 77.778,360.658 Z" fill="#ccff7f" marker-start="none" marker-end="none"/>
     <path d="M 167.796,436.185 L 170.739,434.839 C 181.657,420.187 167.335,409.66 152.802,413.276 C 151.777,413.507 152.128,415.053 153.174,414.822 C 165.406,411.789 177.78,420.336 168.58,432.649 L 166.741,434.689 C 165.929,435.602 166.691,436.677 167.796,436.185 Z" fill="#ccff7f" marker-start="none" marker-end="none"/>
     <path d="M 156.126,413.688 C 154.72,410.855 153.032,408.927 150.17,407.521 C 145.791,407.822 141.764,408.194 138.821,409.339 C 132.222,410.614 127.26,411.669 119.065,411.669 C 116.786,411.577 116.113,412.342 114.335,412.051 C 113.291,411.87 113.02,413.447 114.074,413.629 C 115.971,413.95 116.525,415.084 118.975,415.205 C 127.472,415.205 132.986,414.03 139.815,412.693 C 142.527,411.639 145.822,410.153 149.738,409.77 C 152.009,410.936 153.495,411.99 154.689,414.38 C 155.162,415.345 156.619,414.622 156.126,413.688 Z" fill="#ccff7f" marker-start="none" marker-end="none"/>
     <path d="M 136.37,408.544 C 138.47,405.391 140.247,401.685 140.247,396.033 L 139.494,393.46 C 136.22,386.952 127.734,384.27 118.191,385.847 C 108.5,390.688 104.563,407.873 120.673,409.017 C 126.939,405.713 128.164,398.864 122.039,395.177 C 120.702,394.364 119.497,396.353 120.844,397.135 C 124.379,399.296 123.384,402.861 119.799,404.778 C 107.766,403.905 111.453,390.949 118.683,387.364 C 127.413,385.929 134.995,388.067 137.977,394.014 L 138.379,396.263 C 138.379,401.485 136.983,404.778 135.024,407.672 C 134.442,408.544 135.788,409.449 136.37,408.544 Z" fill="#ccff7f" marker-start="none" marker-end="none"/>
     <path d="M 120.722,322.494 C 100.153,325.034 78.56,326.4 78.56,349.63 C 78.56,356.661 89.126,356.661 89.126,349.63 C 89.126,330.78 104.272,326.35 120.934,324.301 C 122.129,324.13 121.927,322.341 120.722,322.494 Z" fill="#ccff7f" marker-start="none" marker-end="none"/>
     <path d="M 94.639,347.763 C 97.643,343.825 99.953,341.836 103.508,338.452 C 110.076,333.581 116.755,331.25 125.223,328.389 C 126.217,328.006 125.715,326.49 124.7,326.842 C 116.032,329.784 109.053,332.065 102.374,337.086 C 98.698,340.501 96.418,342.741 93.355,346.798 C 92.712,347.671 93.998,348.637 94.639,347.763 Z" fill="#ccff7f" marker-start="none" marker-end="none"/>
     <path d="M 95.835,342.368 C 98.547,338.835 100.737,337.459 102.664,333.903 C 106.31,332.034 108.53,329.784 113.23,329.001 C 114.275,328.82 114.013,327.224 112.969,327.425 C 108.008,328.238 104.04,328.971 99.772,330.96 C 97.904,334.776 97.151,338.051 94.549,341.405 C 93.906,342.218 95.192,343.212 95.835,342.368 Z" fill="#ccff7f" marker-start="none" marker-end="none"/>
     <path d="M 134.613,325.436 L 133.8,322.844 C 133.709,322.432 133.418,324.502 133.689,324.16 C 134.673,322.844 134.733,321.327 136.311,320.595 C 138.881,321.85 138.67,323.015 139.282,325.235 C 138.058,331.361 135.577,331.392 130.736,329.905 C 128.135,327.947 127.763,325.355 127.472,321.238 C 128.577,317.763 128.547,317.412 130.938,315.633 C 133.447,315.081 134.794,314.318 137.475,314.147 C 148.483,316.508 153.586,323.809 160.796,329.523 C 163.89,332.848 165.667,334.546 169.143,337.317 C 172.899,341.023 176.343,343.917 180.754,347.38 C 193.829,357.566 207.477,366.554 221.078,375.894 C 221.982,376.537 222.885,375.19 222.011,374.579 C 208.443,365.238 196.772,353.749 183.725,343.595 C 179.468,340.261 176.283,337.055 172.638,333.411 C 169.313,330.78 167.214,328.8 164.291,325.707 C 156.798,319.721 149.095,315.02 137.566,312.54 C 134.794,312.751 132.634,312.66 129.833,313.273 C 126.649,315.604 126.328,316.366 124.901,320.916 C 125.223,325.938 126.97,329.061 130.034,331.301 C 136.249,333.259 139.987,333.09 141.564,325.144 C 140.75,322.341 139.574,320.715 136.311,319.138 C 134.442,320.012 132.925,321.097 131.7,322.613 C 131.379,323.045 131.259,323.517 131.549,323.949 L 133.187,326.169 C 133.8,327.014 134.914,326.49 134.613,325.436 Z" fill="#ccff7f" marker-start="none" marker-end="none"/>
     <path d="M 161.228,333.491 C 156.096,329.383 152.39,325.586 145.62,323.337 L 143.08,323.105 C 141.855,323.015 141.503,324.392 142.637,324.853 L 144.888,325.848 C 151.365,328.006 155.302,330.839 160.233,334.746 C 161.058,335.419 162.082,334.194 161.228,333.491 Z" fill="#ccff7f" marker-start="none" marker-end="none"/>
     <path d="M 128.958,356.581 C 119.327,359.142 115.27,361.241 109.343,367.137 C 107.798,370.29 106.601,374.116 106.25,378.817 C 106.2,379.892 107.798,379.982 107.857,378.927 C 108.149,374.549 110.539,371.957 112.005,369.064 C 117.579,363.49 120.322,360.578 129.37,358.147 C 130.414,357.856 130.003,356.289 128.958,356.581 Z" fill="#000000" marker-start="none" marker-end="none"/>
     <path d="M 149.115,356.631 C 140.89,352.663 131.61,348.817 119.649,348.817 C 118.544,348.817 118.544,350.423 119.649,350.423 C 131.349,350.423 140.397,354.211 148.423,358.097 C 149.416,358.529 150.079,357.102 149.115,356.631 Z" fill="#ccff7f" marker-start="none" marker-end="none"/>
     <path d="M 118.222,348.496 C 98.929,351.99 86.586,354.562 85.069,375.692 C 85.069,381.148 88.946,384.682 89.588,388.559 C 89.769,389.613 91.375,389.342 91.165,388.268 C 90.582,384.652 93.293,381.117 93.293,376.014 C 94.579,358.298 102.493,353.688 118.624,350.735 C 120.14,350.474 119.738,348.204 118.222,348.496 Z" fill="#ccff7f" marker-start="none" marker-end="none"/>
     <path d="M 231.672,337.117 C 223.939,337.117 221.66,337.227 218.365,343.885 C 218.365,368.421 237.568,381.026 253.327,389.141 C 254.291,389.613 255.014,388.178 254.061,387.686 C 240.019,380.475 227.123,367.841 227.123,345.924 C 228.73,342.711 227.967,342.018 231.672,342.018 C 234.968,342.018 234.968,337.117 231.672,337.117 Z" fill="#ccff7f" marker-start="none" marker-end="none"/>
     <path d="M 346.62,338.342 L 348.659,336.262 C 352.013,337.459 350.879,336.262 351.812,340.028 C 347.584,352.723 334.679,346.246 337.862,333.491 C 341.508,328.479 347.344,321.409 355.921,325.707 C 359.315,329.966 360.481,332.326 361.705,338.572 C 361.705,363.841 347.313,379.449 329.666,386.46 C 328.703,386.861 329.285,388.358 330.279,387.947 C 349.01,380.504 366.195,364.947 366.195,338.132 C 364.799,331.1 361.555,328.268 357.708,323.488 C 346.941,318.085 337.541,324.914 332.931,331.191 C 328.26,349.983 347.313,358.789 353.56,340.089 C 352.275,335.007 352.777,336.062 348.277,334.455 L 345.476,337.166 C 344.722,337.93 345.888,339.065 346.62,338.342 Z" fill="#ccff7f" marker-start="none" marker-end="none"/>
     <path d="M 349.744,326.048 C 361.263,320.304 364.126,333.813 362.459,344.057 C 362.087,349.831 362.197,349.752 360.62,354.562 C 360.008,356.552 362.991,357.484 363.603,355.496 C 365.291,350.274 366.195,350.826 366.667,344.529 C 369.178,329.031 363.423,309.797 345.977,318.495 C 340.956,321.036 344.722,328.59 349.744,326.048 Z" fill="#ccff7f" marker-start="none" marker-end="none"/>
     <path d="M 316.179,394.565 C 314.461,398.01 314.521,399.798 316.119,402.971 C 319.011,403.905 322.365,404.608 325.137,403.182 C 327.326,398.833 327.266,395.91 325.87,390.397 C 323.39,388.529 320.788,387.474 317.494,386.46 C 306.226,391.069 304.067,401.344 312.182,408.253 C 320.788,415.726 334.479,423.661 350.618,424.947 C 353.852,424.193 357.145,423.259 359.657,422.294 C 381.812,413.417 417.758,403.151 426.686,429.264 C 427.189,430.671 429.289,429.969 428.816,428.562 C 419.014,399.938 380.697,404.377 356.393,414.059 C 354.263,414.882 352.716,415.546 349.945,416.219 C 335.472,415.053 323.3,410.966 315.595,404.318 C 309.62,399.205 309.269,391.36 317.554,387.947 C 320.678,388.911 322.274,389.493 324.614,391.24 C 325.81,396.001 324.817,397.256 322.918,400.993 C 320.909,401.957 319.804,401.837 317.696,401.164 C 316.47,398.712 316.328,397.929 317.614,395.298 C 318.107,394.334 316.681,393.642 316.179,394.565 Z" fill="#ccff7f" marker-start="none" marker-end="none"/>
     <path d="M 343.316,409.42 C 348.689,408.898 352.567,409.069 357.327,408.455 C 361.384,407.471 364.507,406.797 368.294,406.004 C 372,404.729 371.537,404.698 374.541,403.202 C 384.956,399.066 391.414,387.153 404.421,387.454 C 409.732,387.534 415.83,393.018 413.268,398.191 C 412.797,399.154 414.233,399.879 414.725,398.913 C 418.171,392.033 411.631,383.447 404.48,383.336 C 390.912,383.045 383.329,394.223 372.442,398.541 C 369.79,399.847 369.961,399.496 366.807,400.551 C 363.041,401.364 360.45,401.927 356.272,402.912 C 351.582,403.525 348.277,405.101 342.965,405.603 C 340.434,405.834 340.785,409.66 343.316,409.42 Z" fill="#ccff7f" marker-start="none" marker-end="none"/>
     <path d="M 399.93,400.43 C 403.376,399.476 408.448,400.289 412.978,400.289 C 418.521,402.358 422.107,404.778 422.107,410.414 C 422.107,411.499 423.744,411.499 423.744,410.414 C 423.744,403.354 420.762,398.191 413.821,395.619 C 408.999,395.619 403.165,397.839 399.489,398.883 C 398.474,399.185 398.907,400.752 399.93,400.43 Z" fill="#ccff7f" marker-start="none" marker-end="none"/>
     <path d="M 296.976,317.622 L 295.609,319.952 C 295.258,320.625 297.738,319.811 297.096,319.461 C 293.218,317.532 298.06,316.567 301.415,316.567 C 303.051,316.567 298.704,312.509 298.814,314.147 C 299.728,326.521 293.129,329.966 282.333,329.966 C 280.664,329.966 280.664,332.506 282.333,332.506 C 295.871,332.506 305.151,329.292 304.016,313.735 C 303.926,312.138 303.051,311.314 301.415,311.314 C 294.063,311.314 287.615,317.21 296.101,321.438 C 296.775,321.79 297.277,321.648 297.589,320.946 L 298.673,318.495 C 299.165,317.301 297.589,316.537 296.976,317.622 Z" fill="#ccff7f" marker-start="none" marker-end="none"/>
     <path d="M 267.599,321.94 C 266.282,319.249 266.604,317.331 265.73,314.468 C 264.937,311.958 261.201,313.122 261.963,315.604 C 262.897,318.666 264.796,319.811 266.131,322.613 C 266.604,323.579 268.029,322.905 267.599,321.94 Z" fill="#ccff7f" marker-start="none" marker-end="none"/>
     <path d="M 266.373,295.325 C 268.091,290.746 269.546,289.018 271.736,286.075 C 274.248,282.338 275.472,279.305 279.008,276.655 C 282.975,271.312 289.272,270.73 296.865,270.147 C 305.21,268.098 313.437,269.293 322.074,270.759 C 323.329,270.99 323.651,269.092 322.394,268.891 C 313.346,267.344 305.09,264.924 296.363,267.083 C 287.877,267.717 281.69,268.921 277.219,274.867 C 273.313,277.849 270.541,279.217 267.799,283.303 C 265.409,286.568 265.64,289.259 263.741,294.331 C 263.068,296.109 265.73,297.103 266.373,295.325 Z" fill="#ccff7f" marker-start="none" marker-end="none"/>
     <path d="M 323.36,278.663 C 331.355,279.276 325.87,283.624 323.128,285.021 L 320.878,285.342 C 318.047,285.342 315.506,285.584 313.788,284.699 C 310.113,279.719 316.239,276.013 320.175,273.119 C 331.937,264.332 345.275,276.885 351.521,282.862 C 352.305,283.624 353.419,282.46 352.656,281.696 C 345.425,274.807 330.621,258.788 317.083,268.921 C 311.889,272.737 307.952,279.336 312.764,285.905 C 314.692,286.839 317.986,287.653 321.171,287.653 L 323.771,286.81 C 328.23,284.558 336.436,277.438 323.53,276.443 C 322.044,276.353 321.903,278.543 323.36,278.663 Z" fill="#ccff7f" marker-start="none" marker-end="none"/>
     <path d="M 339.79,263.637 C 333.544,261.418 328.814,259.11 322.457,257.009 C 320.417,256.579 316.732,256.307 313.849,256.307 C 307.893,256.809 302.761,256.749 296.895,257.653 C 289.835,259.782 285.837,260.976 279.47,264.162 C 276.898,266.731 275.271,269.825 272.319,272.096 C 271.445,272.768 272.439,274.023 273.283,273.381 C 276.346,271.02 278.888,269.704 281.569,267.053 C 287.706,263.991 290.709,262.585 297.538,260.484 C 303.313,259.581 308.043,258.738 313.938,258.206 C 316.681,258.206 320.035,258.326 321.984,258.738 C 328.322,260.867 333.052,262.935 339.259,265.154 C 340.252,265.507 340.785,264.011 339.79,263.637 Z" fill="#ccff7f" marker-start="none" marker-end="none"/>
     <path d="M 341.8,162.732 C 339.851,166.67 340.283,168.326 343.848,170.053 C 347.584,167.191 348.368,164.74 348.046,160.01 C 345.506,153.772 341.8,151.141 337.661,156.656 C 330.682,165.996 338.384,181.492 342.091,187.298 C 344.803,190.773 347.584,194.911 349.392,199.23 C 351.401,203.257 352.686,206.531 354.524,210.176 C 359.657,220.391 365.521,226.257 371.015,235.326 C 376.589,246.564 379.995,255.935 384.816,268.038 C 391.354,289.721 397.27,319.169 389.425,342.218 C 389.074,343.244 390.59,343.765 390.912,342.741 C 398.937,319.199 395.202,288.907 388.491,266.762 C 383.65,254.56 379.211,245.218 373.546,233.96 C 368.153,224.94 364.187,217.97 359.104,207.866 C 357.265,204.252 355.579,201.339 353.591,197.282 C 351.582,192.58 349.302,188.082 346.349,184.295 C 343.024,179.042 332.669,166.057 338.938,157.62 C 342.03,153.502 344.601,155.691 346.5,160.332 C 346.76,164.278 346.731,165.824 343.637,168.186 C 341.397,167.08 342.01,165.936 343.235,163.425 C 343.727,162.49 342.301,161.768 341.8,162.732 Z" fill="#ccff7f" marker-start="none" marker-end="none"/>
     <path d="M 355.629,125.109 L 353.329,122.076 C 352.888,121.554 352.425,121.554 352.043,122.106 C 349.01,126.254 348.98,129.81 351.432,134.067 C 351.783,134.711 352.396,134.952 353.098,134.74 C 365.291,131.245 363.944,118.551 353.882,115.276 C 341.478,116.241 337.219,130.863 334.738,141.57 C 335.181,144.081 336.226,149.887 336.667,152.307 C 337.279,156.163 343.024,155.199 342.381,151.343 C 342.01,148.922 342.271,144.313 341.86,141.802 C 344.049,132.291 342.673,117.707 353.681,116.823 C 361.524,119.394 361.786,129.226 352.275,131.937 C 351.582,132.149 354.324,133.254 353.941,132.611 C 351.983,129.226 350.94,126.364 353.36,123.04 C 353.741,122.518 351.632,122.547 352.043,123.071 L 354.353,126.104 C 355.016,126.927 356.272,125.963 355.629,125.109 Z" fill="#ccff7f" marker-start="none" marker-end="none"/>
     <path d="M 406.44,153.974 C 406.027,151.844 406.87,150.467 406.469,148.43 C 406.118,146.591 404.893,146.241 403.254,147.114 L 399.549,149.183 C 399.138,149.394 398.676,150.117 398.555,150.559 C 394.528,164.621 411.018,165.292 415.076,153.502 C 417.668,145.748 413.268,138.828 409.763,135.324 C 391.323,131.737 381.894,167.191 392.107,179.535 C 397.943,185.339 407.956,187.298 417.296,185.46 C 432.461,180.116 438.708,164.54 438.708,145.216 C 438.708,144.111 437.102,144.111 437.102,145.216 C 437.102,162.29 428.906,174.171 415.509,178.892 C 408.368,180.298 401.097,179.856 396.657,175.396 C 387.998,165.001 393.221,134.159 408.769,137.192 C 411.692,140.144 413.912,145.858 411.722,152.366 C 409.703,158.322 400.804,159.669 402.794,152.578 L 405.616,150.529 C 407.113,149.244 402.03,147.295 402.441,149.213 C 402.844,151.323 404.421,152.107 404.863,154.295 C 405.063,155.349 406.64,155.049 406.44,153.974 Z" fill="#ccff7f" marker-start="none" marker-end="none"/>
     <path d="M 433.576,168.507 C 438.066,166.67 435.555,170.195 439.934,166.961 L 442.645,163.163 C 444.022,159.026 445.538,155.933 445.83,151.433 C 448.05,126.716 433.106,121.091 417.959,113.529 C 417.004,113.066 416.272,114.493 417.236,114.986 C 431.066,121.875 442.645,128.474 440.637,151.031 C 440.346,154.998 439.03,156.916 437.804,160.603 L 435.876,162.842 C 432.322,165.474 436.259,164.6 432.582,166.086 C 430.976,166.779 431.969,169.181 433.576,168.507 Z" fill="#ccff7f" marker-start="none" marker-end="none"/>
     <path d="M 440.957,133.636 C 442.565,129.638 442.505,126.364 441.893,122.045 C 437.422,117.586 435.384,115.426 429.902,113.237 C 423.513,110.295 419.103,109.04 411.16,107.544 C 387.296,107.544 374.431,113.59 365.963,128.584 C 364.94,130.774 365.492,132.521 364.678,134.74 C 364.126,136.176 366.285,137.021 366.838,135.595 C 367.651,133.435 369.349,132.963 370.343,130.863 C 378.187,116.913 388.812,109.12 410.989,109.12 C 418.752,110.607 422.781,112.363 429.057,115.276 C 434.189,117.295 435.675,119.194 439.642,123.192 C 440.225,126.897 440.928,129.407 439.501,133.053 C 439.061,134.048 440.578,134.63 440.957,133.636 Z" fill="#ccff7f" marker-start="none" marker-end="none"/>
     <path d="M 382.395,50.004 C 379.442,48.428 380.878,47.323 380.878,43.907 C 380.878,43.265 379.442,46.298 379.945,45.887 C 382.656,43.668 382.887,42.18 384.816,39.759 C 393.685,33.08 407.283,51.52 407.283,62.9 C 406.55,66.254 405.676,69.317 405.183,72.852 C 405.183,72.852 404.279,75.395 404.19,75.655 C 403.254,77.492 402.552,78.568 401.77,80.355 C 399.44,83.761 398.203,86.591 395.522,89.253 C 394.768,90.007 395.934,91.152 396.687,90.39 C 399.408,87.647 401.277,84.984 403.697,81.4 C 404.48,79.622 405.003,78.246 405.917,76.438 L 407.312,73.436 C 407.805,69.93 408.156,66.374 408.86,63.071 C 408.86,50.726 393.303,31.383 383.681,38.594 C 381.863,40.924 379.332,39.789 376.701,41.919 C 376.209,42.3 375.736,43.265 375.736,43.907 C 375.736,49.241 376.671,49.562 381.281,52.044 C 382.656,52.776 383.73,50.726 382.395,50.004 Z" fill="#ccff7f" marker-start="none" marker-end="none"/>
    </g>
   </g>
  </g>
 </g>
</svg>
