<?xml version="1.0" standalone="no"?>
<!-- Generator: Xara Xtreme (www.xara.com), SVG filter version: 0.4 -->
<!DOCTYPE svg PUBLIC "-//W3C//DTD SVG 1.1//EN" "http://www.w3.org/Graphics/SVG/1.1/DTD/svg11.dtd">
<svg stroke-width="0.501" stroke-linejoin="bevel" fill-rule="evenodd" xmlns:xlink="http://www.w3.org/1999/xlink" xmlns="http://www.w3.org/2000/svg" version="1.1" width="450pt" height="450pt" viewBox="0 0 450 450">
 <defs>
  <marker id="DefaultArrow2" markerUnits="strokeWidth" viewBox="0 0 1 1" markerWidth="1" markerHeight="1" overflow="visible" orient="auto">
   <!-- REF_ARROW_STRAIGHT (-2) -->
   <g transform="scale(0.0092592592)">
    <!-- 1/108 -->
    <path d="M -9 54 L -9 -54 L 117 0 z"/>
   </g>
  </marker>
  <marker id="DefaultArrow3" markerUnits="strokeWidth" viewBox="0 0 1 1" markerWidth="1" markerHeight="1" overflow="visible" orient="auto">
   <!-- REF_ARROW_ANGLED -->
   <g transform="scale(0.0092592592)">
    <path d="M -27 54 L -9 0 L -27 -54 L 135 0 z"/>
   </g>
  </marker>
  <marker id="DefaultArrow4" markerUnits="strokeWidth" viewBox="0 0 1 1" markerWidth="1" markerHeight="1" overflow="visible" orient="auto">
   <!-- REF_ARROW_ROUNDED -->
   <g transform="scale(0.0092592592)">
    <path d="M -9,0 L -9,-45 C -9,-51.708 2.808,-56.580 9,-54 L 117,-9 C 120.916,-7.369 126.000,-4.242 126,0 C 126,4.242 120.916,7.369 117,9 L 9,54 C 2.808,56.580 -9,51.708 -9,45 z"/>
   </g>
  </marker>
  <marker id="DefaultArrow5" markerUnits="strokeWidth" viewBox="0 0 1 1" markerWidth="1" markerHeight="1" overflow="visible" orient="auto">
   <!-- REF_ARROW_SPOT -->
   <g transform="scale(0.0092592592)">
    <path d="M -54, 0 C -54,29.807 -29.807,54 0,54 C 29.807,54 54,29.807 54,0 C 54,-29.807 29.807,-54 0,-54 C -29.807,-54 -54,-29.807 -54,0 z"/>
   </g>
  </marker>
  <marker id="DefaultArrow6" markerUnits="strokeWidth" viewBox="0 0 1 1" markerWidth="1" markerHeight="1" overflow="visible" orient="auto">
   <!-- REF_ARROW_DIAMOND -->
   <g transform="scale(0.0092592592)">
    <path d="M -63,0 L 0,63 L 63,0 L 0,-63 z"/>
   </g>
  </marker>
  <marker id="DefaultArrow7" markerUnits="strokeWidth" viewBox="0 0 1 1" markerWidth="1" markerHeight="1" overflow="visible" orient="auto">
   <!-- REF_ARROW_FEATHER -->
   <g transform="scale(0.0092592592)">
    <path d="M 18,-54 L 108,-54 L 63,0 L 108,54 L 18, 54 L -36,0 z"/>
   </g>
  </marker>
  <marker id="DefaultArrow8" markerUnits="strokeWidth" viewBox="0 0 1 1" markerWidth="1" markerHeight="1" overflow="visible" orient="auto">
   <!-- REF_ARROW_FEATHER2 -->
   <g transform="scale(0.0092592592)">
    <path d="M -36,0 L 18,-54 L 54,-54 L 18,-18 L 27,-18 L 63,-54 L 99,-54 L 63,-18 L 72,-18 L 108,-54 L 144,-54 L 90,0 L 144,54 L 108,54 L 72,18 L 63,18 L 99,54 L 63,54 L 27,18 L 18,18 L 54,54 L 18,54 z"/>
   </g>
  </marker>
  <marker id="DefaultArrow9" markerUnits="strokeWidth" viewBox="0 0 1 1" markerWidth="1" markerHeight="1" overflow="visible" orient="auto">
   <!-- REF_ARROW_HOLLOWDIAMOND -->
   <g transform="scale(0.0092592592)">
    <path d="M 0,45 L -45,0 L 0, -45 L 45, 0 z M 0, 63 L-63, 0 L 0, -63 L 63, 0 z"/>
   </g>
  </marker>
  <linearGradient id="LinearGradient" gradientUnits="userSpaceOnUse" x1="0" y1="0" x2="42.415" y2="0" gradientTransform="translate(180.987 170.072) rotate(135.939)" spreadMethod="pad">
   <stop offset="0" stop-color="#ff42af"/>
   <stop offset="1" stop-color="#000000"/>
  </linearGradient>
  <linearGradient id="LinearGradient_1" gradientUnits="userSpaceOnUse" x1="0" y1="0" x2="44.567" y2="0" gradientTransform="translate(253.688 243.657) rotate(118.516)" spreadMethod="pad">
   <stop offset="0" stop-color="#ffff00"/>
   <stop offset="1" stop-color="#000000"/>
  </linearGradient>
  <linearGradient id="LinearGradient_2" gradientUnits="userSpaceOnUse" x1="0" y1="0" x2="44.56" y2="0" gradientTransform="translate(236.915 247.209) rotate(-20.0445)" spreadMethod="pad">
   <stop offset="0" stop-color="#ffff00"/>
   <stop offset="1" stop-color="#000000"/>
  </linearGradient>
  <linearGradient id="LinearGradient_3" gradientUnits="userSpaceOnUse" x1="0" y1="0" x2="17.011" y2="0" gradientTransform="translate(232.486 237.196) rotate(49.661)" spreadMethod="pad">
   <stop offset="0" stop-color="#ff42af"/>
   <stop offset="1" stop-color="#000000"/>
  </linearGradient>
  <radialGradient id="RadialGradient" gradientUnits="userSpaceOnUse" cx="238.764" cy="226.843" r="9.026" spreadMethod="pad">
   <stop offset="0" stop-color="#ffff00"/>
   <stop offset="1" stop-color="#000000"/>
  </radialGradient>
  <linearGradient id="LinearGradient_4" gradientUnits="userSpaceOnUse" x1="267.84" y1="201.905" x2="487.299" y2="134.454" spreadMethod="pad">
   <stop offset="0" stop-color="#ff42af"/>
   <stop offset="1" stop-color="#000000"/>
  </linearGradient>
  <linearGradient id="LinearGradient_5" gradientUnits="userSpaceOnUse" x1="0" y1="0" x2="30.321" y2="0" gradientTransform="translate(339.748 191.646) rotate(35.0586)" spreadMethod="pad">
   <stop offset="0" stop-color="#ff42af"/>
   <stop offset="1" stop-color="#000000"/>
  </linearGradient>
  <linearGradient id="LinearGradient_6" gradientUnits="userSpaceOnUse" x1="335.779" y1="175.484" x2="360.619" y2="192.904" spreadMethod="pad">
   <stop offset="0" stop-color="#ff42af"/>
   <stop offset="1" stop-color="#000000"/>
  </linearGradient>
  <linearGradient id="LinearGradient_7" gradientUnits="userSpaceOnUse" x1="316.676" y1="165.466" x2="341.516" y2="182.888" spreadMethod="pad">
   <stop offset="0" stop-color="#ff42af"/>
   <stop offset="1" stop-color="#000000"/>
  </linearGradient>
  <linearGradient id="LinearGradient_8" gradientUnits="userSpaceOnUse" x1="254.955" y1="197.228" x2="330.76" y2="236.928" spreadMethod="pad">
   <stop offset="0" stop-color="#ff42af"/>
   <stop offset="1" stop-color="#000000"/>
  </linearGradient>
  <linearGradient id="LinearGradient_9" gradientUnits="userSpaceOnUse" x1="382.216" y1="161.174" x2="400.628" y2="146.382" spreadMethod="pad">
   <stop offset="0" stop-color="#ff42af"/>
   <stop offset="1" stop-color="#ffff00"/>
  </linearGradient>
  <linearGradient id="LinearGradient_10" gradientUnits="userSpaceOnUse" x1="0" y1="0" x2="27.915" y2="0" gradientTransform="translate(370.288 170.468) rotate(-43.3743)" spreadMethod="pad">
   <stop offset="0" stop-color="#ff42af"/>
   <stop offset="1" stop-color="#ffff00"/>
  </linearGradient>
  <linearGradient id="LinearGradient_11" gradientUnits="userSpaceOnUse" x1="384.329" y1="179.753" x2="401.588" y2="234.28" spreadMethod="pad">
   <stop offset="0" stop-color="#ff0000"/>
   <stop offset="1" stop-color="#ffff00"/>
  </linearGradient>
  <linearGradient id="LinearGradient_12" gradientUnits="userSpaceOnUse" x1="0" y1="0" x2="34.303" y2="0" gradientTransform="translate(383.865 203.847) rotate(31.2373)" spreadMethod="pad">
   <stop offset="0" stop-color="#ffff00"/>
   <stop offset="1" stop-color="#ff42af"/>
  </linearGradient>
  <linearGradient id="LinearGradient_13" gradientUnits="userSpaceOnUse" x1="0" y1="0" x2="21.114" y2="0" gradientTransform="translate(389.23 215.764) rotate(68.4898)" spreadMethod="pad">
   <stop offset="0" stop-color="#ffff00"/>
   <stop offset="1" stop-color="#ff42af"/>
  </linearGradient>
  <linearGradient id="LinearGradient_14" gradientUnits="userSpaceOnUse" x1="0" y1="0" x2="13.982" y2="0" gradientTransform="translate(390.662 227.648) rotate(86.0507)" spreadMethod="pad">
   <stop offset="0" stop-color="#ffff00"/>
   <stop offset="1" stop-color="#ff42af"/>
  </linearGradient>
  <linearGradient id="LinearGradient_15" gradientUnits="userSpaceOnUse" x1="0" y1="0" x2="33.335" y2="0" gradientTransform="translate(353.415 203.475) rotate(-10.4949)" spreadMethod="pad">
   <stop offset="0" stop-color="#ffff00"/>
   <stop offset="1" stop-color="#ff42af"/>
  </linearGradient>
  <linearGradient id="LinearGradient_16" gradientUnits="userSpaceOnUse" x1="353.914" y1="219.515" x2="394.918" y2="205.061" spreadMethod="pad">
   <stop offset="0" stop-color="#ffff00"/>
   <stop offset="1" stop-color="#ff42af"/>
  </linearGradient>
  <linearGradient id="LinearGradient_17" gradientUnits="userSpaceOnUse" x1="0" y1="0" x2="25.631" y2="0" gradientTransform="translate(349.823 228.836) rotate(26.718)" spreadMethod="pad">
   <stop offset="0" stop-color="#ffff00"/>
   <stop offset="1" stop-color="#ff42af"/>
  </linearGradient>
  <linearGradient id="LinearGradient_18" gradientUnits="userSpaceOnUse" x1="343.654" y1="193.621" x2="369.535" y2="209.323" spreadMethod="pad">
   <stop offset="0" stop-color="#ffff00"/>
   <stop offset="1" stop-color="#ff42af"/>
  </linearGradient>
  <linearGradient id="LinearGradient_19" gradientUnits="userSpaceOnUse" x1="0" y1="0" x2="41.17" y2="0" gradientTransform="translate(345.12 175.644) rotate(-54.0715)" spreadMethod="pad">
   <stop offset="0" stop-color="#ffff00"/>
   <stop offset="1" stop-color="#ff42af"/>
  </linearGradient>
  <linearGradient id="LinearGradient_20" gradientUnits="userSpaceOnUse" x1="0" y1="0" x2="41.701" y2="0" gradientTransform="translate(310.819 211.46) rotate(31.2444)" spreadMethod="pad">
   <stop offset="0" stop-color="#ffff00"/>
   <stop offset="1" stop-color="#ff42af"/>
  </linearGradient>
  <linearGradient id="LinearGradient_21" gradientUnits="userSpaceOnUse" x1="294.211" y1="163.632" x2="316.606" y2="181.162" spreadMethod="pad">
   <stop offset="0" stop-color="#ff42af"/>
   <stop offset="1" stop-color="#000000"/>
  </linearGradient>
  <linearGradient id="LinearGradient_22" gradientUnits="userSpaceOnUse" x1="0" y1="0" x2="68.998" y2="0" gradientTransform="translate(317.291 161.896) rotate(-45.8186)" spreadMethod="pad">
   <stop offset="0" stop-color="#ffff00"/>
   <stop offset="1" stop-color="#ff42af"/>
  </linearGradient>
  <linearGradient id="LinearGradient_23" gradientUnits="userSpaceOnUse" x1="0" y1="0" x2="23.821" y2="0" gradientTransform="translate(354.423 235.552) rotate(47.6218)" spreadMethod="pad">
   <stop offset="0" stop-color="#ffff00"/>
   <stop offset="1" stop-color="#ff42af"/>
  </linearGradient>
  <linearGradient id="LinearGradient_24" gradientUnits="userSpaceOnUse" x1="0" y1="0" x2="12.376" y2="0" gradientTransform="translate(288.708 157.139) rotate(53.6384)" spreadMethod="pad">
   <stop offset="0" stop-color="#ff42af"/>
   <stop offset="1" stop-color="#000000"/>
  </linearGradient>
  <linearGradient id="LinearGradient_25" gradientUnits="userSpaceOnUse" x1="288.108" y1="234.646" x2="292.123" y2="215.055" spreadMethod="pad">
   <stop offset="0" stop-color="#ff42af"/>
   <stop offset="1" stop-color="#ffff00"/>
  </linearGradient>
  <linearGradient id="LinearGradient_26" gradientUnits="userSpaceOnUse" x1="0" y1="0" x2="229.573" y2="0" gradientTransform="translate(189.009 251.269) rotate(112.632)" spreadMethod="pad">
   <stop offset="0" stop-color="#ff42af"/>
   <stop offset="1" stop-color="#000000"/>
  </linearGradient>
  <linearGradient id="LinearGradient_27" gradientUnits="userSpaceOnUse" x1="171.846" y1="321.816" x2="186.781" y2="348.226" spreadMethod="pad">
   <stop offset="0" stop-color="#ff42af"/>
   <stop offset="1" stop-color="#000000"/>
  </linearGradient>
  <linearGradient id="LinearGradient_28" gradientUnits="userSpaceOnUse" x1="0" y1="0" x2="30.322" y2="0" gradientTransform="translate(156.136 316.335) rotate(60.4862)" spreadMethod="pad">
   <stop offset="0" stop-color="#ff42af"/>
   <stop offset="1" stop-color="#000000"/>
  </linearGradient>
  <linearGradient id="LinearGradient_29" gradientUnits="userSpaceOnUse" x1="0" y1="0" x2="30.329" y2="0" gradientTransform="translate(148.024 296.346) rotate(60.5105)" spreadMethod="pad">
   <stop offset="0" stop-color="#ff42af"/>
   <stop offset="1" stop-color="#000000"/>
  </linearGradient>
  <linearGradient id="LinearGradient_30" gradientUnits="userSpaceOnUse" x1="0" y1="0" x2="85.565" y2="0" gradientTransform="translate(185.602 237.968) rotate(67.9135)" spreadMethod="pad">
   <stop offset="0" stop-color="#ff42af"/>
   <stop offset="1" stop-color="#000000"/>
  </linearGradient>
  <linearGradient id="LinearGradient_31" gradientUnits="userSpaceOnUse" x1="0" y1="0" x2="23.595" y2="0" gradientTransform="translate(137.397 361.162) rotate(134.311)" spreadMethod="pad">
   <stop offset="0" stop-color="#ff42af"/>
   <stop offset="1" stop-color="#ffff00"/>
  </linearGradient>
  <linearGradient id="LinearGradient_32" gradientUnits="userSpaceOnUse" x1="0" y1="0" x2="27.901" y2="0" gradientTransform="translate(147.794 350.188) rotate(138.919)" spreadMethod="pad">
   <stop offset="0" stop-color="#ff42af"/>
   <stop offset="1" stop-color="#ffff00"/>
  </linearGradient>
  <linearGradient id="LinearGradient_33" gradientUnits="userSpaceOnUse" x1="0" y1="0" x2="21.262" y2="0" gradientTransform="translate(171.708 355.722) rotate(143.582)" spreadMethod="pad">
   <stop offset="0" stop-color="#ff0000"/>
   <stop offset="1" stop-color="#ffff00"/>
  </linearGradient>
  <linearGradient id="LinearGradient_34" gradientUnits="userSpaceOnUse" x1="179.726" y1="366.906" x2="194.607" y2="397.822" spreadMethod="pad">
   <stop offset="0" stop-color="#ffff00"/>
   <stop offset="1" stop-color="#ff42af"/>
  </linearGradient>
  <linearGradient id="LinearGradient_35" gradientUnits="userSpaceOnUse" x1="191.057" y1="373.397" x2="209.868" y2="383.016" spreadMethod="pad">
   <stop offset="0" stop-color="#ffff00"/>
   <stop offset="1" stop-color="#ff42af"/>
  </linearGradient>
  <linearGradient id="LinearGradient_36" gradientUnits="userSpaceOnUse" x1="0" y1="0" x2="14.01" y2="0" gradientTransform="translate(202.739 375.985) rotate(9.55645)" spreadMethod="pad">
   <stop offset="0" stop-color="#ffff00"/>
   <stop offset="1" stop-color="#ff42af"/>
  </linearGradient>
  <linearGradient id="LinearGradient_37" gradientUnits="userSpaceOnUse" x1="0" y1="0" x2="33.34" y2="0" gradientTransform="translate(182.283 336.572) rotate(106.018)" spreadMethod="pad">
   <stop offset="0" stop-color="#ffff00"/>
   <stop offset="1" stop-color="#ff42af"/>
  </linearGradient>
  <linearGradient id="LinearGradient_38" gradientUnits="userSpaceOnUse" x1="0" y1="0" x2="43.482" y2="0" gradientTransform="translate(198.2 338.625) rotate(114.944)" spreadMethod="pad">
   <stop offset="0" stop-color="#ffff00"/>
   <stop offset="1" stop-color="#ff42af"/>
  </linearGradient>
  <linearGradient id="LinearGradient_39" gradientUnits="userSpaceOnUse" x1="0" y1="0" x2="25.636" y2="0" gradientTransform="translate(207.887 335.451) rotate(68.8473)" spreadMethod="pad">
   <stop offset="0" stop-color="#ffff00"/>
   <stop offset="1" stop-color="#ff42af"/>
  </linearGradient>
  <linearGradient id="LinearGradient_40" gradientUnits="userSpaceOnUse" x1="0" y1="0" x2="30.262" y2="0" gradientTransform="translate(173.434 325.915) rotate(64.2969)" spreadMethod="pad">
   <stop offset="0" stop-color="#ffff00"/>
   <stop offset="1" stop-color="#ff42af"/>
  </linearGradient>
  <linearGradient id="LinearGradient_41" gradientUnits="userSpaceOnUse" x1="155.384" y1="325.639" x2="119.89" y2="346.45" spreadMethod="pad">
   <stop offset="0" stop-color="#ffff00"/>
   <stop offset="1" stop-color="#ff42af"/>
  </linearGradient>
  <linearGradient id="LinearGradient_42" gradientUnits="userSpaceOnUse" x1="0" y1="0" x2="16.936" y2="0" gradientTransform="translate(199.365 295.516) rotate(-95.2511)" spreadMethod="pad">
   <stop offset="0" stop-color="#ffff00"/>
   <stop offset="1" stop-color="#ff42af"/>
  </linearGradient>
  <linearGradient id="LinearGradient_43" gradientUnits="userSpaceOnUse" x1="148.366" y1="273.805" x2="163.633" y2="297.796" spreadMethod="pad">
   <stop offset="0" stop-color="#ff42af"/>
   <stop offset="1" stop-color="#000000"/>
  </linearGradient>
  <linearGradient id="LinearGradient_44" gradientUnits="userSpaceOnUse" x1="0" y1="0" x2="69.003" y2="0" gradientTransform="translate(144.404 296.594) rotate(141.358)" spreadMethod="pad">
   <stop offset="0" stop-color="#ffff00"/>
   <stop offset="1" stop-color="#ff42af"/>
  </linearGradient>
  <linearGradient id="LinearGradient_45" gradientUnits="userSpaceOnUse" x1="0" y1="0" x2="23.832" y2="0" gradientTransform="translate(214.117 340.674) rotate(47.9388)" spreadMethod="pad">
   <stop offset="0" stop-color="#ffff00"/>
   <stop offset="1" stop-color="#ff42af"/>
  </linearGradient>
  <linearGradient id="LinearGradient_46" gradientUnits="userSpaceOnUse" x1="0" y1="0" x2="12.368" y2="0" gradientTransform="translate(142.436 267.695) rotate(41.9359)" spreadMethod="pad">
   <stop offset="0" stop-color="#ff42af"/>
   <stop offset="1" stop-color="#000000"/>
  </linearGradient>
  <linearGradient id="LinearGradient_47" gradientUnits="userSpaceOnUse" x1="0" y1="0" x2="19.984" y2="0" gradientTransform="translate(219.624 274.574) rotate(173.948)" spreadMethod="pad">
   <stop offset="0" stop-color="#ff42af"/>
   <stop offset="1" stop-color="#ffff00"/>
  </linearGradient>
  <linearGradient id="LinearGradient_48" gradientUnits="userSpaceOnUse" x1="0" y1="0" x2="261.897" y2="0" gradientTransform="translate(216.41 173.58) rotate(-82.8563)" spreadMethod="pad">
   <stop offset="0" stop-color="#ff42af"/>
   <stop offset="1" stop-color="#000000"/>
  </linearGradient>
  <linearGradient id="LinearGradient_49" gradientUnits="userSpaceOnUse" x1="269.175" y1="165.368" x2="181.928" y2="224.913" spreadMethod="pad">
   <stop offset="0" stop-color="#ff42af"/>
   <stop offset="1" stop-color="#000000"/>
  </linearGradient>
  <linearGradient id="LinearGradient_50" gradientUnits="userSpaceOnUse" x1="253.065" y1="157.551" x2="165.815" y2="217.118" spreadMethod="pad">
   <stop offset="0" stop-color="#ff42af"/>
   <stop offset="1" stop-color="#000000"/>
  </linearGradient>
  <linearGradient id="LinearGradient_51" gradientUnits="userSpaceOnUse" x1="0" y1="0" x2="45.89" y2="0" gradientTransform="translate(194.306 75.509) rotate(70.3114)" spreadMethod="pad">
   <stop offset="0" stop-color="#ff42af"/>
   <stop offset="1" stop-color="#ffff00"/>
  </linearGradient>
  <linearGradient id="LinearGradient_52" gradientUnits="userSpaceOnUse" x1="275.033" y1="56.833" x2="254.614" y2="122.81" spreadMethod="pad">
   <stop offset="0" stop-color="#ff42af"/>
   <stop offset="1" stop-color="#000000"/>
  </linearGradient>
  <linearGradient id="LinearGradient_53" gradientUnits="userSpaceOnUse" x1="260.452" y1="77.824" x2="266.474" y2="54.992" spreadMethod="pad">
   <stop offset="0" stop-color="#ff42af"/>
   <stop offset="1" stop-color="#ffff00"/>
  </linearGradient>
  <linearGradient id="LinearGradient_54" gradientUnits="userSpaceOnUse" x1="0" y1="0" x2="66.594" y2="0" gradientTransform="translate(329.352 77.445) rotate(112.635)" spreadMethod="pad">
   <stop offset="0" stop-color="#ff0000"/>
   <stop offset="1" stop-color="#ffff00"/>
  </linearGradient>
  <linearGradient id="LinearGradient_55" gradientUnits="userSpaceOnUse" x1="0" y1="0" x2="65.349" y2="0" gradientTransform="translate(311.757 62.83) rotate(108.231)" spreadMethod="pad">
   <stop offset="0" stop-color="#ff0000"/>
   <stop offset="1" stop-color="#ffff00"/>
  </linearGradient>
  <linearGradient id="LinearGradient_56" gradientUnits="userSpaceOnUse" x1="287.588" y1="62.013" x2="272.317" y2="124.69" spreadMethod="pad">
   <stop offset="0" stop-color="#ff0000"/>
   <stop offset="1" stop-color="#ffff00"/>
  </linearGradient>
  <linearGradient id="LinearGradient_57" gradientUnits="userSpaceOnUse" x1="267.038" y1="42.022" x2="256.926" y2="105.321" spreadMethod="pad">
   <stop offset="0" stop-color="#ff0000"/>
   <stop offset="1" stop-color="#ffff00"/>
  </linearGradient>
  <linearGradient id="LinearGradient_58" gradientUnits="userSpaceOnUse" x1="245.845" y1="46.575" x2="240.896" y2="110.478" spreadMethod="pad">
   <stop offset="0" stop-color="#ff0000"/>
   <stop offset="1" stop-color="#ffff00"/>
  </linearGradient>
  <linearGradient id="LinearGradient_59" gradientUnits="userSpaceOnUse" x1="232.85" y1="30.27" x2="233.075" y2="94.779" spreadMethod="pad">
   <stop offset="0" stop-color="#ff0000"/>
   <stop offset="1" stop-color="#ffff00"/>
  </linearGradient>
  <linearGradient id="LinearGradient_60" gradientUnits="userSpaceOnUse" x1="0" y1="0" x2="27.885" y2="0" gradientTransform="translate(257.523 92.322) rotate(-70.6469)" spreadMethod="pad">
   <stop offset="0" stop-color="#ff42af"/>
   <stop offset="1" stop-color="#ffff00"/>
  </linearGradient>
  <linearGradient id="LinearGradient_61" gradientUnits="userSpaceOnUse" x1="0" y1="0" x2="65.349" y2="0" gradientTransform="translate(202.431 22.112) rotate(85.2478)" spreadMethod="pad">
   <stop offset="0" stop-color="#ff0000"/>
   <stop offset="1" stop-color="#ffff00"/>
  </linearGradient>
  <linearGradient id="LinearGradient_62" gradientUnits="userSpaceOnUse" x1="0" y1="0" x2="66.591" y2="0" gradientTransform="translate(183.208 23.404) rotate(80.8574)" spreadMethod="pad">
   <stop offset="0" stop-color="#ff0000"/>
   <stop offset="1" stop-color="#ffff00"/>
  </linearGradient>
  <linearGradient id="LinearGradient_63" gradientUnits="userSpaceOnUse" x1="0" y1="0" x2="65.401" y2="0" gradientTransform="translate(210.513 20.821) rotate(109.151)" spreadMethod="pad">
   <stop offset="0" stop-color="#ff0000"/>
   <stop offset="1" stop-color="#ffff00"/>
  </linearGradient>
  <linearGradient id="LinearGradient_64" gradientUnits="userSpaceOnUse" x1="0" y1="0" x2="61.941" y2="0" gradientTransform="translate(206.422 57.777) rotate(84.1875)" spreadMethod="pad">
   <stop offset="0" stop-color="#ff42af"/>
   <stop offset="1" stop-color="#ffff00"/>
  </linearGradient>
  <linearGradient id="LinearGradient_65" gradientUnits="userSpaceOnUse" x1="0" y1="0" x2="49.109" y2="0" gradientTransform="translate(220.378 144.029) rotate(-162.216)" spreadMethod="pad">
   <stop offset="0" stop-color="#ff42af"/>
   <stop offset="1" stop-color="#ffff00"/>
  </linearGradient>
  <linearGradient id="LinearGradient_66" gradientUnits="userSpaceOnUse" x1="168.54" y1="198.897" x2="-93.049" y2="211.326" spreadMethod="pad">
   <stop offset="0" stop-color="#ff42af"/>
   <stop offset="1" stop-color="#000000"/>
  </linearGradient>
  <linearGradient id="LinearGradient_67" gradientUnits="userSpaceOnUse" x1="156.275" y1="250.868" x2="222.389" y2="168.474" spreadMethod="pad">
   <stop offset="0" stop-color="#ff42af"/>
   <stop offset="1" stop-color="#000000"/>
  </linearGradient>
  <linearGradient id="LinearGradient_68" gradientUnits="userSpaceOnUse" x1="0" y1="0" x2="105.626" y2="0" gradientTransform="translate(149.737 234.204) rotate(-51.2545)" spreadMethod="pad">
   <stop offset="0" stop-color="#ff42af"/>
   <stop offset="1" stop-color="#000000"/>
  </linearGradient>
  <linearGradient id="LinearGradient_69" gradientUnits="userSpaceOnUse" x1="0" y1="0" x2="45.902" y2="0" gradientTransform="translate(72.461 169.293) rotate(24.1104)" spreadMethod="pad">
   <stop offset="0" stop-color="#ff42af"/>
   <stop offset="1" stop-color="#ffff00"/>
  </linearGradient>
  <linearGradient id="LinearGradient_70" gradientUnits="userSpaceOnUse" x1="47.632" y1="248.341" x2="114.973" y2="233.065" spreadMethod="pad">
   <stop offset="0" stop-color="#ff42af"/>
   <stop offset="1" stop-color="#000000"/>
  </linearGradient>
  <linearGradient id="LinearGradient_71" gradientUnits="userSpaceOnUse" x1="0" y1="0" x2="23.627" y2="0" gradientTransform="translate(69.694 235.424) rotate(169.623)" spreadMethod="pad">
   <stop offset="0" stop-color="#ff42af"/>
   <stop offset="1" stop-color="#ffff00"/>
  </linearGradient>
  <linearGradient id="LinearGradient_72" gradientUnits="userSpaceOnUse" x1="0" y1="0" x2="66.601" y2="0" gradientTransform="translate(63.996 304.092) rotate(-18.2053)" spreadMethod="pad">
   <stop offset="0" stop-color="#ff0000"/>
   <stop offset="1" stop-color="#ffff00"/>
  </linearGradient>
  <linearGradient id="LinearGradient_73" gradientUnits="userSpaceOnUse" x1="0" y1="0" x2="65.364" y2="0" gradientTransform="translate(50.761 285.429) rotate(-13.803)" spreadMethod="pad">
   <stop offset="0" stop-color="#ff0000"/>
   <stop offset="1" stop-color="#ffff00"/>
  </linearGradient>
  <linearGradient id="LinearGradient_74" gradientUnits="userSpaceOnUse" x1="0" y1="0" x2="50.893" y2="0" gradientTransform="translate(52.299 269.379) rotate(-14.2713)" spreadMethod="pad">
   <stop offset="0" stop-color="#ff0000"/>
   <stop offset="1" stop-color="#ffff00"/>
  </linearGradient>
  <linearGradient id="LinearGradient_75" gradientUnits="userSpaceOnUse" x1="33.473" y1="239.232" x2="97.353" y2="234.041" spreadMethod="pad">
   <stop offset="0" stop-color="#ff0000"/>
   <stop offset="1" stop-color="#ffff00"/>
  </linearGradient>
  <linearGradient id="LinearGradient_76" gradientUnits="userSpaceOnUse" x1="0" y1="0" x2="27.247" y2="0" gradientTransform="translate(52.86 225.679) rotate(-1.67195)" spreadMethod="pad">
   <stop offset="0" stop-color="#ff0000"/>
   <stop offset="1" stop-color="#ffff00"/>
  </linearGradient>
  <linearGradient id="LinearGradient_77" gradientUnits="userSpaceOnUse" x1="0" y1="0" x2="64.524" y2="0" gradientTransform="translate(24.39 204.231) rotate(4.63312)" spreadMethod="pad">
   <stop offset="0" stop-color="#ff0000"/>
   <stop offset="1" stop-color="#ffff00"/>
  </linearGradient>
  <linearGradient id="LinearGradient_78" gradientUnits="userSpaceOnUse" x1="0" y1="0" x2="27.888" y2="0" gradientTransform="translate(84.367 233.615) rotate(165.043)" spreadMethod="pad">
   <stop offset="0" stop-color="#ff42af"/>
   <stop offset="1" stop-color="#ffff00"/>
  </linearGradient>
  <linearGradient id="LinearGradient_79" gradientUnits="userSpaceOnUse" x1="18.594" y1="173.286" x2="83.111" y2="183.693" spreadMethod="pad">
   <stop offset="0" stop-color="#ff0000"/>
   <stop offset="1" stop-color="#ffff00"/>
  </linearGradient>
  <linearGradient id="LinearGradient_80" gradientUnits="userSpaceOnUse" x1="0" y1="0" x2="66.577" y2="0" gradientTransform="translate(21.384 154.23) rotate(13.552)" spreadMethod="pad">
   <stop offset="0" stop-color="#ff0000"/>
   <stop offset="1" stop-color="#ffff00"/>
  </linearGradient>
  <linearGradient id="LinearGradient_81" gradientUnits="userSpaceOnUse" x1="16.701" y1="181.24" x2="79.952" y2="164.609" spreadMethod="pad">
   <stop offset="0" stop-color="#ff0000"/>
   <stop offset="1" stop-color="#ffff00"/>
  </linearGradient>
  <linearGradient id="LinearGradient_82" gradientUnits="userSpaceOnUse" x1="0" y1="0" x2="61.94" y2="0" gradientTransform="translate(53.865 180.014) rotate(10.2397)" spreadMethod="pad">
   <stop offset="0" stop-color="#ff42af"/>
   <stop offset="1" stop-color="#ffff00"/>
  </linearGradient>
  <linearGradient id="LinearGradient_83" gradientUnits="userSpaceOnUse" x1="0" y1="0" x2="49.09" y2="0" gradientTransform="translate(138.755 200.572) rotate(-103.333)" spreadMethod="pad">
   <stop offset="0" stop-color="#ff42af"/>
   <stop offset="1" stop-color="#ffff00"/>
  </linearGradient>
  <radialGradient id="RadialGradient_1" gradientUnits="userSpaceOnUse" cx="225.32" cy="239.929" r="6.924" spreadMethod="pad">
   <stop offset="0" stop-color="#ffff00"/>
   <stop offset="1" stop-color="#000000"/>
  </radialGradient>
  <linearGradient id="LinearGradient_84" gradientUnits="userSpaceOnUse" x1="196.676" y1="180.331" x2="185.427" y2="182.359" spreadMethod="pad">
   <stop offset="0" stop-color="#ff42af"/>
   <stop offset="1" stop-color="#000000"/>
  </linearGradient>
  <linearGradient id="LinearGradient_85" gradientUnits="userSpaceOnUse" x1="189.701" y1="174.335" x2="178.447" y2="176.345" spreadMethod="pad">
   <stop offset="0" stop-color="#ff42af"/>
   <stop offset="1" stop-color="#000000"/>
  </linearGradient>
  <linearGradient id="LinearGradient_86" gradientUnits="userSpaceOnUse" x1="182.725" y1="168.33" x2="171.461" y2="170.342" spreadMethod="pad">
   <stop offset="0" stop-color="#ff42af"/>
   <stop offset="1" stop-color="#000000"/>
  </linearGradient>
  <linearGradient id="LinearGradient_87" gradientUnits="userSpaceOnUse" x1="0" y1="0" x2="11.431" y2="0" gradientTransform="translate(175.738 162.328) rotate(169.832)" spreadMethod="pad">
   <stop offset="0" stop-color="#ff42af"/>
   <stop offset="1" stop-color="#000000"/>
  </linearGradient>
  <linearGradient id="LinearGradient_88" gradientUnits="userSpaceOnUse" x1="168.77" y1="156.32" x2="157.522" y2="158.347" spreadMethod="pad">
   <stop offset="0" stop-color="#ff42af"/>
   <stop offset="1" stop-color="#000000"/>
  </linearGradient>
  <linearGradient id="LinearGradient_89" gradientUnits="userSpaceOnUse" x1="161.806" y1="150.321" x2="150.538" y2="152.354" spreadMethod="pad">
   <stop offset="0" stop-color="#ff42af"/>
   <stop offset="1" stop-color="#000000"/>
  </linearGradient>
  <linearGradient id="LinearGradient_90" gradientUnits="userSpaceOnUse" x1="231.69" y1="219.859" x2="220.441" y2="221.887" spreadMethod="pad">
   <stop offset="0" stop-color="#ff42af"/>
   <stop offset="1" stop-color="#000000"/>
  </linearGradient>
  <linearGradient id="LinearGradient_91" gradientUnits="userSpaceOnUse" x1="0" y1="0" x2="44.625" y2="0" gradientTransform="translate(225.121 193.481) rotate(142.765)" spreadMethod="pad">
   <stop offset="0" stop-color="#ff42af"/>
   <stop offset="1" stop-color="#000000"/>
  </linearGradient>
 </defs>
 <g id="Document" fill="none" stroke="black" font-family="Times New Roman" font-size="16" transform="scale(1 -1)">
  <g id="Spread" transform="translate(0 -450)">
   <g id="Layer 1">
    <g id="Group" stroke-linejoin="miter">
     <path d="M 236.233,239.461 C 228.782,240.055 227.699,238.607 222.277,236.501 C 221.1,236.052 225.141,232.906 222.553,232.711 C 221.496,232.632 219.257,234.745 217.567,233.656 C 215.456,232.349 213.301,230.805 211.1,229.087 C 210.444,228.57 206.196,228.023 205.506,227.463 C 207.598,226.342 206.86,225.598 205.724,224.61 C 204.894,223.869 201.364,222.25 198.435,222.757 C 201.481,220.799 199.987,219.254 198.349,217.624 C 172.912,192.121 138.962,150.039 148.168,142.648 C 164.456,137.174 189.107,169.039 214.17,195.419 C 215.2,196.478 216.87,201.808 218.357,198.828 C 219.312,203.076 221.735,203.232 222.766,204.407 C 223.263,204.987 226.417,201.229 226.899,201.795 C 227.11,206.355 226.015,208.908 226.738,209.79 C 228.597,212.045 231.039,216.317 232.57,218.432 C 233.295,219.552 231.194,222.83 231.925,223.969 C 233.437,226.359 237.535,224.232 237.625,226.301 C 237.92,233.408 236.857,235.39 236.233,239.461 Z" stroke="#000000" fill="url(#LinearGradient)" stroke-width="0.379" marker-start="none" marker-end="none" stroke-miterlimit="79.8403193612775"/>
     <path d="M 100.454,189.967 C 104.551,190.886 108.657,191.791 112.744,192.701" fill="none" stroke="#000000" stroke-width="0.379" stroke-miterlimit="79.8403193612775"/>
     <path d="M 233.727,241.16 C 233.218,254.146 245.243,299.788 249.122,322.593 C 249.605,325.466 252.426,328.146 250.398,332.812 C 246.813,332.532 248.344,325.629 247.506,322.012 C 241.234,295.16 231.885,253.728 231.884,240.775 C 232.329,240.314 233.679,240.52 233.727,241.16 Z" stroke="none" fill="url(#LinearGradient_1)" stroke-width="0.379" marker-start="none" marker-end="none" stroke-miterlimit="79.8403193612775"/>
     <path d="M 238.145,236.287 C 255.748,241.839 304.377,259.363 321.646,263.938 C 324.475,264.678 335.384,269.98 334.383,266.946 C 333.417,264.006 324.626,262.733 322.992,262.395 C 302.647,258.316 254.248,238.764 237.147,234.888 C 236.653,235.248 236.166,233.898 238.145,236.287 Z" stroke="none" fill="url(#LinearGradient_2)" stroke-width="0.379" marker-start="none" marker-end="none" stroke-miterlimit="79.8403193612775"/>
     <path d="M 236.245,233.577 C 237.585,233.279 238.727,235.644 239.346,236.253 C 239.107,236.287 237.626,234.978 238.533,236.928 C 239.38,238.73 241.677,244.006 241.85,244.454 C 241.098,244.273 235.443,238.296 234.67,238.121 C 234.577,238.737 240.552,246.14 240.45,246.756 C 239.666,246.077 235.438,242.709 234.649,242.051 C 234.487,242.716 232.074,238.517 230.332,239.433 C 228.736,240.275 233.621,238.186 234.755,236.929 C 235.584,236.011 235.055,233.844 236.245,233.577 Z" stroke="none" fill="url(#LinearGradient_3)" stroke-width="0.379" marker-start="none" marker-end="none" stroke-miterlimit="79.8403193612775"/>
     <path d="M 237.999,230.703 C 236.458,232.018 233.38,230.506 232.243,228.854 C 231.49,227.782 231.028,225.908 232.432,224.971 C 234.153,223.826 235.928,224.032 237.1,225.043 C 238.537,226.304 239.44,229.467 237.999,230.703 Z" stroke="#000000" fill="url(#RadialGradient)" stroke-width="0.379" marker-start="none" marker-end="none" stroke-miterlimit="79.8403193612775"/>
     <path d="M 233.631,218.562 C 265.97,243.897 392.915,257.536 437.136,214.242 C 440.817,210.644 432.639,206.794 432.026,199.347 C 425.125,192.203 425.688,192.021 424.445,188.088 C 418.581,182.954 414.579,180.003 411.971,174.728 C 406.419,170.826 402.167,168.26 400.097,163.826 C 394.089,158.078 390.485,158.229 385.938,148.899 C 379.162,142.673 373.476,134.23 369.375,130.953 C 361.205,124.399 361.179,127.036 355.873,122.744 C 349.143,120.783 350.221,119.127 340.952,119.505 C 332.153,118.784 308.04,135.441 287.819,157.492 C 264.38,176.349 240.912,192.438 228.041,203.039 C 225.14,210.125 227.582,213.819 233.631,218.562 Z" stroke="#000000" fill="#ffff00" stroke-width="0.379" marker-start="none" marker-end="none" stroke-miterlimit="79.8403193612775"/>
     <path d="M 237.273,221.486 C 274.664,245.31 406.049,255.862 436.204,213.974 C 432.058,207.757 431.039,206.932 432.328,199.475 C 417.424,193.598 427.068,192.188 423.483,186.204 C 413.576,188.525 412.666,177.276 410.777,173.217 C 402.468,178.204 399.606,167.012 398.674,162.696 C 390.759,167.919 384.713,155.285 386.662,148.549 C 370.036,146.4 372.931,135.402 369.734,130.36 C 358.833,129.714 361.882,127.539 356.9,123.639 C 349.288,121.356 350.073,127.946 343.305,119.091 C 336.112,118.102 309.81,132.552 288.317,157.533 C 263.422,175.829 238.496,193.16 226.783,204.136 C 225.037,211.592 230.778,217.35 237.273,221.486 Z" stroke="#000000" fill="url(#LinearGradient_4)" stroke-width="0.379" marker-start="none" marker-end="none" stroke-miterlimit="79.8403193612775"/>
     <path d="M 383.423,196.118 C 373.072,189.849 375.398,190.487 370.78,190.412 C 353.749,206.835 331.133,203.861 332.989,206.031 C 333.127,206.193 346.565,212.968 346.911,212.906 C 361.072,216.783 383.8,198.48 383.423,196.118 Z" stroke="none" fill="url(#LinearGradient_5)" stroke-width="0.379" marker-start="none" marker-end="none" stroke-miterlimit="79.8403193612775"/>
     <path d="M 379.475,179.958 C 369.135,173.686 368.455,171.386 360.93,174.213 C 341.459,194.656 326.562,197.135 328.405,199.333 C 328.538,199.484 348.472,200.756 348.817,200.693 C 347.761,208.133 379.831,182.317 379.475,179.958 Z" stroke="none" fill="url(#LinearGradient_6)" stroke-width="0.379" marker-start="none" marker-end="none" stroke-miterlimit="79.8403193612775"/>
     <path d="M 355.507,174.066 C 359.467,172.774 364.363,165.287 362.941,164.426 C 359.091,162.085 354.493,150.327 346.968,153.155 C 329.983,175.684 280.402,202.569 282.249,204.744 C 282.377,204.917 318.521,194.378 318.867,194.315 C 317.813,201.765 355.883,176.429 355.507,174.066 Z" stroke="none" fill="url(#LinearGradient_7)" stroke-width="0.379" marker-start="none" marker-end="none" stroke-miterlimit="79.8403193612775"/>
     <path d="M 311.997,204.321 C 317.992,205.278 327.206,208.249 327.18,214.313 C 327.118,224.529 310.934,230.771 301.382,230.906 C 282.347,231.163 255.534,219.615 244.143,215.065 C 257.428,207.394 277.012,212.498 293.183,209.406 C 299.562,208.179 305.591,203.288 311.997,204.321 Z" stroke="none" fill="url(#LinearGradient_8)" stroke-width="0.379" marker-start="none" marker-end="none" stroke-miterlimit="79.8403193612775"/>
     <path d="M 431.557,213.793 C 432.762,210.839 430.048,207.593 429.288,204.494 C 426.076,200.791 419.621,192.563 420.653,190.008 C 412.527,187.74 413.178,182.615 408.852,178.114 C 402.041,177.158 401.379,170.606 395.893,168.145 C 389.263,165.162 383.338,158.409 382.187,152.433 C 374.784,149.007 367.933,141.156 366.648,134.564 C 360.478,130.825 358.58,128.653 354.032,126.647 C 350.01,124.889 343.329,122.532 341.351,123.187 C 343.447,128.411 362.104,130.752 366.167,137.974 C 364.708,150.813 378.139,149.349 381.047,157.824 C 382.19,161.151 385.492,167.895 394.297,171.649 C 394.648,177.156 408.767,177.981 407.322,183.246 C 406.446,186.422 415.663,189.123 416.948,194.369 C 418.927,202.431 424.019,200.805 426.407,204.875 C 428.205,207.902 426.52,213.697 429.858,214.871 C 430.487,215.085 431.301,214.421 431.557,213.793 Z" stroke="none" fill="url(#LinearGradient_9)" stroke-width="0.379" marker-start="none" marker-end="none" stroke-miterlimit="79.8403193612775"/>
     <path d="M 427.239,218.299 C 428.165,215.388 424.754,212.826 424.004,209.725 C 423.588,206.056 419.876,201.689 413.799,196.943 C 405.677,194.664 412.278,190.748 401.622,184.808 C 394.823,183.86 399.741,175.757 388.04,174.986 C 379.164,172.245 377.268,163.187 376.139,157.207 C 368.734,153.769 363.956,145.081 362.681,138.486 C 356.501,134.753 354.927,142.578 354.475,139.853 C 357.972,136.686 342.14,127.087 337.27,127.307 C 339.716,132.479 347.768,139.822 353.377,140.78 C 355.798,138.533 360.022,135.835 361.832,139.025 C 354.764,158.507 375.588,155.117 372.779,163.627 C 370.888,169.343 374.109,177.092 386.415,177.691 C 386.773,183.185 392.719,187.315 398.124,187.975 C 402.8,197.673 407.45,195.211 411,198.938 C 416.716,204.952 418.573,205.777 421.123,210.104 C 422.921,213.132 421.221,218.982 424.556,220.106 C 425.581,220.452 426.912,219.319 427.239,218.299 Z" stroke="none" fill="url(#LinearGradient_10)" stroke-width="0.379" marker-start="none" marker-end="none" stroke-miterlimit="79.8403193612775"/>
     <path d="M 409.683,215.041 C 409.191,215.795 405.337,218.177 404.556,218.273 C 401.527,218.642 392.219,210.777 399.12,208.095 C 400.393,207.597 399.344,206.387 397.026,206.316 C 395.257,206.245 393.178,207.331 391.769,206.289 C 388.686,203.991 386.945,195.968 388.416,195.274 C 389.777,194.638 385.705,196.127 384.549,195.567 C 380.969,193.837 381.196,187.862 377.864,185.713 C 375.418,184.124 371.587,185.941 369.266,184.193 C 367.266,182.69 364.198,179.206 365.978,177.435 C 368.631,174.816 373.962,176.47 372.22,182.82 C 371.513,185.391 377.953,185.431 379.641,183.621 C 383.07,181.468 397.879,190.992 389.349,193.738 C 387.442,194.345 394.243,191.761 396.087,193.067 C 399.04,195.162 405.351,198.686 398.673,203.618 C 399.507,204.874 401.202,205.289 402.302,206.338 C 405.721,204.188 411.8,211.864 409.683,215.041 Z" stroke="none" fill="url(#LinearGradient_11)" stroke-width="0.379" marker-start="none" marker-end="none" stroke-miterlimit="79.8403193612775"/>
     <path d="M 387.023,209.749 C 389.646,209.49 389.419,203.712 387.451,202.086 C 385.659,200.581 381.23,201.48 380.637,203.742 C 379.896,206.571 382.546,210.187 387.023,209.749 Z" stroke="none" fill="url(#LinearGradient_12)" stroke-width="0.379" marker-start="none" marker-end="none" stroke-miterlimit="79.8403193612775"/>
     <path d="M 395.172,223.195 C 397.209,221.531 394.955,212.486 391.152,212.513 C 386.7,212.55 383.732,221.775 386.699,225.11 C 388.625,227.275 393.196,224.824 395.172,223.195 Z" stroke="none" fill="url(#LinearGradient_13)" stroke-width="0.379" marker-start="none" marker-end="none" stroke-miterlimit="79.8403193612775"/>
     <path d="M 392.926,233.108 C 394.945,231.447 397.835,229.024 396.358,227.341 C 393.816,224.43 385.261,228.084 385.721,231.916 C 386.024,234.32 390.926,234.753 392.926,233.108 Z" stroke="none" fill="url(#LinearGradient_14)" stroke-width="0.379" marker-start="none" marker-end="none" stroke-miterlimit="79.8403193612775"/>
     <path d="M 363.697,209.059 C 365.73,207.375 370.844,203.908 369.716,200.671 C 368.581,197.486 364.005,194.863 359.889,197.967 C 357.139,200.072 350.598,206.128 353.091,210.014 C 355.009,212.986 361.714,210.7 363.697,209.059 Z" stroke="none" fill="url(#LinearGradient_15)" stroke-width="0.379" marker-start="none" marker-end="none" stroke-miterlimit="79.8403193612775"/>
     <path d="M 362.309,223.513 C 364.347,221.847 372.611,209.523 368.19,210.906 C 363.223,212.458 356.021,214.33 355.086,215.431 C 352.391,218.547 340.975,220.527 345.432,224.361 C 347.52,226.162 360.328,225.154 362.309,223.513 Z" stroke="none" fill="url(#LinearGradient_16)" stroke-width="0.379" marker-start="none" marker-end="none" stroke-miterlimit="79.8403193612775"/>
     <path d="M 361.969,232.809 C 363.983,231.13 369.377,223.458 364.943,224.836 C 359.984,226.384 346.341,228.094 343.715,228.073 C 341.045,231.194 339.928,228.345 344.387,232.191 C 346.471,233.97 359.968,234.455 361.969,232.809 Z" stroke="none" fill="url(#LinearGradient_17)" stroke-width="0.379" marker-start="none" marker-end="none" stroke-miterlimit="79.8403193612775"/>
     <path d="M 350.269,199.858 C 352.302,198.173 353.329,194.438 352.56,191.736 C 351.67,188.651 349.504,182.171 345.388,185.275 C 342.632,187.382 332.742,194.668 335.485,199.864 C 337.793,204.214 348.288,201.499 350.269,199.858 Z" stroke="none" fill="url(#LinearGradient_18)" stroke-width="0.379" marker-start="none" marker-end="none" stroke-miterlimit="79.8403193612775"/>
     <path d="M 349.758,178.954 C 351.772,177.275 357.949,171.484 356.712,167.064 C 355.411,162.34 347.917,156.919 343.805,160.032 C 341.625,164.521 341.358,170.152 340.327,172.719 C 338.943,176.197 347.773,180.586 349.758,178.954 Z" stroke="none" fill="url(#LinearGradient_19)" stroke-width="0.379" marker-start="none" marker-end="none" stroke-miterlimit="79.8403193612775"/>
     <path d="M 313.653,219.344 C 313.128,215.852 318.698,213.806 317.78,210.771 C 317.03,208.177 314.958,203.432 310.846,206.545 C 309.953,207.231 307.347,209.712 307.708,215.218 C 302.056,214.954 294.127,231.341 299.811,229.951 C 302.922,229.197 314.034,221.884 313.653,219.344 Z" stroke="none" fill="url(#LinearGradient_20)" stroke-width="0.379" marker-start="none" marker-end="none" stroke-miterlimit="79.8403193612775"/>
     <path d="M 324.656,166.377 C 328.603,165.079 338.858,155.572 337.424,154.705 C 333.565,152.366 341.683,148.591 330.602,150.315 C 329.729,150.995 333.671,139.271 326.148,142.1 C 309.166,164.606 252.758,195.643 254.607,197.819 C 254.74,197.97 271.311,199.565 271.656,199.502 C 270.618,206.967 325.019,168.734 324.656,166.377 Z" stroke="none" fill="url(#LinearGradient_21)" stroke-width="0.379" marker-start="none" marker-end="none" stroke-miterlimit="79.8403193612775"/>
     <path d="M 324.656,166.377 C 328.603,165.079 331.76,162.222 330.327,161.354 C 326.47,159.025 334.681,157.678 323.6,159.402 C 322.724,160.073 325.68,146.409 318.163,149.226 C 312.514,148.971 307.852,168.851 309.695,171.008 C 309.835,171.177 310.218,170.91 310.554,170.849 C 309.499,178.289 325.019,168.734 324.656,166.377 Z" stroke="none" fill="url(#LinearGradient_22)" stroke-width="0.379" marker-start="none" marker-end="none" stroke-miterlimit="79.8403193612775"/>
     <path d="M 346.536,238.22 C 370.514,242.029 376.107,235.794 371.472,235.724 C 363.959,235.589 347.862,234.292 345.237,234.272 C 342.562,237.381 342.071,234.397 346.536,238.22 Z" stroke="none" fill="url(#LinearGradient_23)" stroke-width="0.379" marker-start="none" marker-end="none" stroke-miterlimit="79.8403193612775"/>
     <path d="M 340.894,120.37 C 333.082,129.789 326.581,140.472 317.466,148.635 C 290.63,172.62 257.295,188.171 227.227,207.949" fill="none" stroke="#000000" stroke-width="1.059" stroke-miterlimit="79.8403193612775"/>
     <path d="M 369.556,131.473 C 339.421,155.659 309.278,179.859 279.142,204.046" fill="none" stroke="#000000" stroke-width="1.059" stroke-miterlimit="79.8403193612775"/>
     <path d="M 227.101,209.444 C 266.789,207.551 301.413,201.035 346.147,203.781 C 355.488,203.944 385.947,178.376 398.012,163.662" fill="none" stroke="#000000" stroke-width="1.059" stroke-miterlimit="79.8403193612775"/>
     <path d="M 385.614,149.079 C 366.972,166.865 354.456,179.712 316.966,202.614" fill="none" stroke="#000000" stroke-width="1.059" stroke-miterlimit="79.8403193612775"/>
     <path d="M 410.417,174.338 C 398.703,188.471 384.004,201.056 367.676,209.77 C 352.98,217.612 335.739,219.23 319.749,223.961" fill="none" stroke="#000000" stroke-width="1.059" stroke-miterlimit="79.8403193612775"/>
     <path d="M 423.5,187.772 C 411.771,195.875 400.043,203.942 388.331,212.07 C 354.423,235.552 340.839,222.065 317.094,227.067" fill="none" stroke="#000000" stroke-width="1.059" stroke-miterlimit="79.8403193612775"/>
     <path d="M 431.852,199.933 C 418.666,208.704 406.434,219.136 392.278,226.261 C 358.304,243.403 334.54,228.985 305.656,230.357" fill="none" stroke="#000000" stroke-width="1.059" stroke-miterlimit="79.8403193612775"/>
     <path d="M 321.869,142.669 C 303.523,145.683 288.234,161.501 272.362,172.413 C 256.749,183.13 223.436,202.507 227.579,207.369 C 230.279,206.435 267.145,185.099 291.423,168.244 C 311.556,154.23 319.825,144.275 321.869,142.669 Z" stroke="none" fill="url(#LinearGradient_24)" stroke-width="1.059" marker-start="none" marker-end="none" stroke-miterlimit="79.8403193612775"/>
     <path d="M 236.889,211.462 C 235.039,212.82 229.408,209.786 229.277,212.339 C 253.718,238.181 333.268,243.181 351.268,240.727 C 331.889,241.554 247.899,224.421 236.889,211.462 Z" stroke="none" fill="url(#LinearGradient_25)" stroke-width="1.059" marker-start="none" marker-end="none" stroke-miterlimit="79.8403193612775"/>
     <path d="M 208.315,221.19 C 230.419,255.83 232.289,381.103 184.924,420.946 C 180.99,424.26 172.815,414.031 165.475,412.68 C 159.017,405.136 159.177,404.658 155.39,403.046 C 150.842,396.721 148.345,392.937 143.348,389.828 C 140.014,383.932 138.004,378.88 133.803,376.385 C 128.651,369.848 127.74,367.462 118.924,362.046 C 113.366,354.695 106.732,348.464 103.863,344.067 C 98.131,335.294 101.982,332.79 98.233,327.077 C 96.177,321.705 97.836,320.94 96.112,316.95 C 96.247,308.133 124.497,289.372 148.406,271.371 C 169.444,249.858 186.264,224.628 198.057,212.836 C 205.388,210.639 204.183,214.711 208.315,221.19 Z" stroke="#000000" fill="#ffff00" stroke-width="0.379" marker-start="none" marker-end="none" stroke-miterlimit="79.8403193612775"/>
     <path d="M 211.672,226.201 C 239.931,268.879 229.339,394.021 184.728,419.985 C 178.954,415.26 183.189,417.727 175.636,418.285 C 173.574,411.073 168.702,413.137 165.85,412.04 C 162.602,410.812 168.74,407.299 154.328,400.909 C 157.596,391.292 146.654,392.077 142.777,389.785 C 148.548,382.012 135.648,374.813 131.448,373.476 C 132.843,370.193 126.258,361.907 119.382,363.215 C 118.823,346.448 107.83,346.998 103.127,343.333 C 104.283,337.534 107.684,331.93 97.673,327.041 C 100.724,322.98 104.366,319.888 95.892,318.292 C 95.617,311.026 121.455,290.343 148.406,271.371 C 169.017,248.347 189.123,227.258 201.184,216.685 C 207.343,221.274 207.42,219.784 211.672,226.201 Z" stroke="#000000" fill="url(#LinearGradient_26)" stroke-width="0.379" marker-start="none" marker-end="none" stroke-miterlimit="79.8403193612775"/>
     <path d="M 172.071,365.741 C 166.83,354.828 167.23,357.206 167.618,352.597 C 185.593,337.217 184.82,314.448 186.805,316.482 C 186.962,316.648 192.402,330.687 192.3,331.004 C 194.786,345.495 174.391,366.319 172.071,365.741 Z" stroke="none" fill="url(#LinearGradient_27)" stroke-width="0.379" marker-start="none" marker-end="none" stroke-miterlimit="79.8403193612775"/>
     <path d="M 156.37,360.258 C 151.129,349.344 148.911,348.449 152.444,341.246 C 174.674,323.822 178.583,309.238 180.572,311.281 C 180.715,311.429 180.063,331.392 179.956,331.731 C 187.486,331.396 158.688,360.826 156.37,360.258 Z" stroke="none" fill="url(#LinearGradient_28)" stroke-width="0.379" marker-start="none" marker-end="none" stroke-miterlimit="79.8403193612775"/>
     <path d="M 152.823,335.833 C 151.164,339.644 143.229,343.794 142.511,342.279 C 140.553,338.227 129.292,332.503 132.844,325.295 C 156.884,310.564 188.457,263.822 190.436,265.869 C 190.58,266.016 176.61,300.967 176.511,301.294 C 184.047,300.977 155.15,336.408 152.823,335.833 Z" stroke="none" fill="url(#LinearGradient_29)" stroke-width="0.379" marker-start="none" marker-end="none" stroke-miterlimit="79.8403193612775"/>
     <path d="M 187.123,295.429 C 187.495,301.479 189.573,310.945 195.606,311.509 C 205.798,312.446 213.568,296.93 214.618,287.432 C 216.714,268.52 207.803,240.711 204.39,228.933 C 195.479,241.434 198.661,261.412 194.021,277.207 C 192.185,283.436 186.728,288.949 187.123,295.429 Z" stroke="none" fill="url(#LinearGradient_30)" stroke-width="0.379" marker-start="none" marker-end="none" stroke-miterlimit="79.8403193612775"/>
     <path d="M 185.007,415.354 C 181.947,416.258 178.982,413.244 175.976,412.188 C 172.589,408.636 165.037,401.418 162.398,402.189 C 160.912,393.891 155.751,394.025 151.698,389.305 C 151.385,382.439 144.938,381.138 143.024,375.441 C 140.699,368.557 134.546,362 128.705,360.297 C 126.011,352.583 118.858,344.999 112.423,343.092 C 109.297,336.582 107.307,334.496 105.758,329.765 C 104.399,325.596 102.707,318.721 103.542,316.818 C 108.545,319.408 109.067,338.197 115.863,342.946 C 128.778,342.728 126.025,355.955 134.169,359.668 C 137.389,361.132 143.778,365.07 146.674,374.19 C 152.114,375.089 151.557,389.206 156.963,388.283 C 160.19,387.737 161.993,397.14 167.094,398.939 C 174.921,401.671 172.798,406.601 176.627,409.373 C 179.471,411.435 185.397,410.33 186.244,413.757 C 186.408,414.408 185.651,415.169 185.007,415.354 Z" stroke="none" fill="url(#LinearGradient_31)" stroke-width="0.379" marker-start="none" marker-end="none" stroke-miterlimit="79.8403193612775"/>
     <path d="M 189.912,411.488 C 186.917,412.137 184.707,408.497 181.705,407.418 C 178.086,406.672 174.104,402.564 169.962,396.046 C 168.46,387.752 163.927,393.93 159.06,382.75 C 158.77,375.89 150.225,380.009 150.611,368.298 C 148.734,359.193 139.873,356.427 134.041,354.721 C 131.337,347.009 123.15,341.433 116.725,339.525 C 113.588,333.015 121.535,332.186 118.862,331.484 C 115.377,334.667 107.341,317.973 108.032,313.147 C 112.945,316.094 119.48,324.806 119.874,330.478 C 117.432,332.676 114.337,336.615 117.328,338.731 C 137.412,333.584 132.017,353.972 140.753,351.998 C 146.632,350.676 154.029,354.623 153.453,366.933 C 158.888,367.814 162.419,374.133 162.538,379.59 C 171.743,385.182 168.842,389.566 172.227,393.459 C 177.657,399.716 178.289,401.647 182.336,404.608 C 185.195,406.688 191.179,405.567 191.963,408.991 C 192.203,410.034 190.968,411.257 189.912,411.488 Z" stroke="none" fill="url(#LinearGradient_32)" stroke-width="0.379" marker-start="none" marker-end="none" stroke-miterlimit="79.8403193612775"/>
     <path d="M 188.371,393.688 C 189.161,393.279 191.899,389.675 192.068,388.916 C 192.737,385.931 185.815,375.894 182.487,382.503 C 181.855,383.739 180.766,382.572 180.903,380.268 C 180.998,378.503 182.29,376.53 181.375,375.016 C 179.397,371.737 171.579,369.229 170.752,370.621 C 169.982,371.915 171.854,368.016 171.424,366.805 C 170.041,363.078 164.062,362.715 162.247,359.196 C 160.909,356.605 163.082,352.976 161.565,350.496 C 160.257,348.361 157.096,344.956 155.176,346.56 C 152.297,348.946 153.446,354.417 159.905,353.292 C 162.529,352.846 161.959,359.243 159.997,360.764 C 157.525,363.975 165.57,379.623 169.118,371.401 C 169.918,369.561 166.689,376.083 167.819,378.047 C 169.605,381.19 172.51,387.803 178.049,381.634 C 179.216,382.583 179.474,384.316 180.415,385.503 C 177.94,388.705 185.015,395.502 188.371,393.688 Z" stroke="none" fill="url(#LinearGradient_33)" stroke-width="0.379" marker-start="none" marker-end="none" stroke-miterlimit="79.8403193612775"/>
     <path d="M 185.272,370.634 C 184.776,373.22 179.057,372.438 177.618,370.319 C 176.301,368.385 177.628,364.072 179.948,363.687 C 182.826,363.224 186.153,366.203 185.272,370.634 Z" stroke="none" fill="url(#LinearGradient_34)" stroke-width="0.379" marker-start="none" marker-end="none" stroke-miterlimit="79.8403193612775"/>
     <path d="M 197.889,380.053 C 196.015,381.902 187.229,378.805 187.644,375.03 C 188.108,370.587 197.572,368.509 200.595,371.788 C 202.583,373.904 199.71,378.238 197.889,380.053 Z" stroke="none" fill="url(#LinearGradient_35)" stroke-width="0.379" marker-start="none" marker-end="none" stroke-miterlimit="79.8403193612775"/>
     <path d="M 207.977,378.751 C 206.104,380.609 203.432,383.263 201.9,381.614 C 199.254,378.816 203.708,370.652 207.473,371.483 C 209.849,372.004 209.798,376.935 207.977,378.751 Z" stroke="none" fill="url(#LinearGradient_36)" stroke-width="0.379" marker-start="none" marker-end="none" stroke-miterlimit="79.8403193612775"/>
     <path d="M 186.843,347.348 C 184.994,349.212 181.053,353.967 177.941,352.516 C 174.857,351.098 172.695,346.285 176.182,342.499 C 178.54,339.95 185.213,334.026 188.831,336.897 C 191.611,339.08 188.665,345.535 186.843,347.348 Z" stroke="none" fill="url(#LinearGradient_37)" stroke-width="0.379" marker-start="none" marker-end="none" stroke-miterlimit="79.8403193612775"/>
     <path d="M 201.377,347.368 C 199.518,349.235 186.454,356.265 188.25,352.004 C 190.284,347.202 192.852,340.226 194.033,339.381 C 197.398,337.028 200.482,325.844 203.865,330.65 C 205.441,332.899 203.199,345.554 201.377,347.368 Z" stroke="none" fill="url(#LinearGradient_38)" stroke-width="0.379" marker-start="none" marker-end="none" stroke-miterlimit="79.8403193612775"/>
     <path d="M 210.664,347.908 C 208.805,349.774 200.644,354.389 202.437,350.118 C 204.461,345.319 207.477,331.917 207.718,329.304 C 211.065,326.926 208.335,325.557 211.741,330.369 C 213.32,332.626 212.486,346.093 210.664,347.908 Z" stroke="none" fill="url(#LinearGradient_39)" stroke-width="0.379" marker-start="none" marker-end="none" stroke-miterlimit="79.8403193612775"/>
     <path d="M 178.979,333.103 C 177.126,334.956 173.308,335.621 170.69,334.584 C 167.699,333.399 161.462,330.611 164.95,326.828 C 167.321,324.284 175.525,315.154 180.422,318.394 C 184.534,321.1 180.819,331.282 178.979,333.103 Z" stroke="none" fill="url(#LinearGradient_40)" stroke-width="0.379" marker-start="none" marker-end="none" stroke-miterlimit="79.8403193612775"/>
     <path d="M 158.241,330.567 C 156.388,332.421 150.01,338.007 145.721,336.342 C 141.159,334.586 136.498,326.602 139.985,322.817 C 144.653,321.077 150.3,321.361 152.931,320.592 C 156.541,319.539 160.06,328.742 158.241,330.567 Z" stroke="none" fill="url(#LinearGradient_41)" stroke-width="0.379" marker-start="none" marker-end="none" stroke-miterlimit="79.8403193612775"/>
     <path d="M 201.913,298.528 C 198.512,297.66 196.068,301.05 193.003,301.822 C 188.347,302.991 186.29,294.68 189.796,290.891 C 190.549,290.068 192.948,291.328 198.384,292.218 C 198.668,286.561 213.249,279.94 213.833,285.779 C 214.527,292.912 204.423,299.159 201.913,298.528 Z" stroke="none" fill="url(#LinearGradient_42)" stroke-width="0.379" marker-start="none" marker-end="none" stroke-miterlimit="79.8403193612775"/>
     <path d="M 148.139,304.371 C 146.468,308.174 136.019,317.454 135.294,315.949 C 133.336,311.899 128.795,319.591 131.584,308.735 C 132.346,307.909 120.293,310.723 123.843,303.505 C 147.893,288.771 184.21,235.639 186.206,237.671 C 186.351,237.829 186.344,254.489 186.255,254.814 C 193.772,254.505 150.462,304.959 148.139,304.371 Z" stroke="none" fill="url(#LinearGradient_43)" stroke-width="0.379" marker-start="none" marker-end="none" stroke-miterlimit="79.8403193612775"/>
     <path d="M 148.139,304.371 C 146.468,308.174 143.332,311.035 142.608,309.532 C 140.657,305.47 136.779,312.579 139.566,301.714 C 140.318,300.891 129.915,303.447 133.457,296.241 C 133.753,290.601 152.218,287.878 154.219,289.928 C 154.353,290.079 154.041,290.421 153.947,290.769 C 161.471,290.445 150.462,304.959 148.139,304.371 Z" stroke="none" fill="url(#LinearGradient_44)" stroke-width="0.379" marker-start="none" marker-end="none" stroke-miterlimit="79.8403193612775"/>
     <path d="M 217.551,333.073 C 219.003,357.326 212.263,362.296 212.636,357.67 C 213.242,350.176 213.49,334.029 213.74,331.415 C 217.09,329.046 214.16,328.269 217.551,333.073 Z" stroke="none" fill="url(#LinearGradient_45)" stroke-width="0.379" marker-start="none" marker-end="none" stroke-miterlimit="79.8403193612775"/>
     <path d="M 96.162,317.869 C 107.841,310.391 120.868,304.729 131.185,295.495 C 158,271.475 176.346,239.44 198.933,211.399" fill="none" stroke="#000000" stroke-width="1.059" stroke-miterlimit="79.8403193612775"/>
     <path d="M 104.256,343.412 C 151.149,320.543 163.451,287.294 193.059,259.25" fill="none" stroke="#000000" stroke-width="1.059" stroke-miterlimit="79.8403193612775"/>
     <path d="M 201.822,211.088 C 196.116,250.395 186.27,284.237 184.691,329.041 C 183.948,338.342 151.636,364.49 133.26,373.404" fill="none" stroke="#000000" stroke-width="1.059" stroke-miterlimit="79.8403193612775"/>
     <path d="M 120.34,362.617 C 144.123,345.768 160.585,332.546 186.984,297.456" fill="none" stroke="#000000" stroke-width="1.059" stroke-miterlimit="79.8403193612775"/>
     <path d="M 144.426,389.021 C 164.203,379.773 177.999,367.265 189.157,351.253 C 198.531,337.82 200.348,320.454 205.936,305.058" fill="none" stroke="#000000" stroke-width="1.059" stroke-miterlimit="79.8403193612775"/>
     <path d="M 154.156,400.231 C 166.483,389.609 181.931,379.276 191.152,368.392 C 217.789,336.924 203.24,324.586 209.288,302.697" fill="none" stroke="#000000" stroke-width="1.059" stroke-miterlimit="79.8403193612775"/>
     <path d="M 171.191,414.302 C 181.196,402.016 192.751,390.875 201.231,377.467 C 221.562,345.301 208.789,325.818 212.589,299.997" fill="none" stroke="#000000" stroke-width="1.059" stroke-miterlimit="79.8403193612775"/>
     <path d="M 124.817,299.308 C 129.596,281.333 146.327,267.219 159.202,252.898 C 171.672,239.038 197.43,204.379 200.407,215.03 C 204.815,216.528 172.346,248.941 153.202,271.46 C 137.312,290.163 126.62,297.427 124.817,299.308 Z" stroke="none" fill="url(#LinearGradient_46)" stroke-width="1.059" marker-start="none" marker-end="none" stroke-miterlimit="79.8403193612775"/>
     <path d="M 201.487,221.368 C 203.036,219.647 200.555,213.77 203.112,213.88 C 226.459,240.7 223.748,320.37 219.569,338.04 C 222.268,318.832 213.332,233.583 201.487,221.368 Z" stroke="none" fill="url(#LinearGradient_47)" stroke-width="1.059" marker-start="none" marker-end="none" stroke-miterlimit="79.8403193612775"/>
     <path d="M 192.478,173.651 C 187.733,163.308 176.4,135.001 181.271,102.794 C 183.254,87.28 173.809,78.105 171.995,64.914 C 177.149,58.933 180.703,44.372 188.163,44.315 C 195.903,50.54 204.043,37.978 208.063,38.875 C 213.706,44.235 229.315,42.825 234.803,44.945 C 239.176,50.117 254.771,49.894 259.37,51.557 C 265.651,57.015 271.789,58.513 281.477,62.194 C 284.644,65.081 294.778,69.504 300.26,75.031 C 306.541,81.378 312.658,87.647 314.586,89.664 C 321.85,97.198 315.195,97.206 319.95,102.11 C 322.499,108.631 320.76,102.854 321.245,112.137 C 322.751,120.822 306.403,137.402 286.295,159.527 C 265.704,177.421 236.559,190.418 227.164,204.207 C 212.7,194.768 195.119,179.973 192.478,173.651 Z" stroke="#000000" fill="#ffff00" stroke-width="0.379" marker-start="none" marker-end="none" stroke-miterlimit="79.8403193612775"/>
     <path d="M 199.103,176.761 C 180.456,149.785 179.893,121.792 185.412,94.62 C 181.683,82.399 177.871,72.107 173.544,65.4 C 175.947,66.867 180.981,65.296 178.183,56.232 C 180.422,54.233 189.366,62.091 185.13,44.778 C 205.37,52.437 204.995,40.361 208.531,39.619 C 216.313,52.625 226.021,54.842 236.901,43.004 C 244.225,65.866 256.298,50.187 260.645,50.945 C 263.697,65.698 273.017,62.854 279.659,60.634 C 285.376,81.608 295.393,70.292 300.555,73.315 C 301.139,92.096 312.064,85.32 316.143,90.138 C 312.883,95.538 317.046,94.305 317.035,100.82 C 317.045,104.245 316.949,108.745 320.093,110.965 C 320.308,112.19 320.17,114.683 319.674,116.233 C 315.639,139.601 313.382,132.7 291.918,152.859 C 271.138,173.445 236.657,193.022 226.118,205.132 C 218.744,207.163 203.475,183.092 199.103,176.761 Z" stroke="none" fill="url(#LinearGradient_48)" stroke-width="0.379" marker-start="none" marker-end="none" stroke-miterlimit="79.8403193612775"/>
     <path d="M 263.28,169.25 C 266.288,166.103 260.157,164.291 256.015,165.642 C 248.976,166.881 234.492,181.685 232.711,196.329 C 240.462,186.099 258.975,173.731 263.28,169.25 Z" stroke="none" fill="url(#LinearGradient_49)" stroke-width="0.379" marker-start="none" marker-end="none" stroke-miterlimit="79.8403193612775"/>
     <path d="M 237.139,86.553 C 242.312,115.636 224.238,181.748 223.483,194.666" fill="none" stroke="#ff42af" stroke-width="1.779" stroke-miterlimit="79.8403193612775"/>
     <path d="M 247.754,159.827 C 208.453,175.335 209.793,156.543 205.655,157.904 C 176.74,153.724 212.7,195.192 227.06,195.26 C 240.722,195.316 236.284,170.975 247.754,159.827 Z" stroke="none" fill="url(#LinearGradient_50)" stroke-width="1.779" marker-start="none" marker-end="none" stroke-miterlimit="79.8403193612775"/>
     <path d="M 274.692,97.918 C 268.878,130.191 247.479,166.744 232.499,187.564" fill="none" stroke="#ff42af" stroke-width="1.779" stroke-miterlimit="79.8403193612775"/>
     <path d="M 180.409,73.764 C 184.179,79.202 185.39,92.421 192.626,97.694 C 197.923,101.531 206.899,104.877 211.985,100.797 C 214.928,98.422 207.654,91.077 213.504,89.381 C 214.044,89.236 213.037,88.338 212.747,87.877 C 206.593,77.84 199.485,87.692 180.409,73.764 Z" stroke="none" fill="url(#LinearGradient_51)" stroke-width="1.779" marker-start="none" marker-end="none" stroke-miterlimit="79.8403193612775"/>
     <path d="M 317.429,119.054 C 314.919,128.208 295.147,147.88 296.711,138.556 C 298.056,130.46 300.131,127.355 298.747,121.97 C 284.994,131.443 291.625,108.756 288.398,102.332 C 273.433,118.2 277.548,101.106 274.972,95.099 C 262.766,110.834 263.576,105.098 258.711,85.221 C 244.878,107.999 244.534,99.777 236.918,80.026 C 224.597,117.952 216.158,69.204 215.001,76.534 C 212.18,94.398 202.497,76.01 196.345,75.001 C 192.141,74.309 185.185,76.013 183.947,71.944 C 182.459,66.98 193.538,65.589 194.459,60.505 C 195.137,56.75 188.192,53.128 190.201,49.896 C 193.658,44.34 194.851,59.84 209.793,48.434 C 214.244,45 216.463,55.07 222.413,56.981 C 226.216,58.187 233.736,50.76 237.196,51.694 C 244.125,53.551 246.272,66.094 257.007,60.143 C 262.81,72.573 269.936,66.217 276.411,69.24 C 282.66,72.149 284.971,81.561 295.164,77.953 C 301.218,95.865 312.913,87.941 310.498,95.257 C 307.311,104.904 319.606,111.086 317.429,119.054 Z" stroke="none" fill="url(#LinearGradient_52)" stroke-width="1.779" marker-start="none" marker-end="none" stroke-miterlimit="79.8403193612775"/>
     <path d="M 189.354,47.474 C 196.272,49.717 201.189,53.293 208.713,44.458 C 215.889,53.36 228.428,55.055 236.221,50.952 C 241.617,57.434 250.197,60.006 254.805,56.304 C 261.409,55.451 262.817,70.324 277.554,64.512 C 283.716,69.877 282.666,79.415 297.484,75.415 C 303.407,79.538 300.353,90.144 311.936,92.437 C 312.097,96.079 319.831,109.224 317.462,110.543 C 316.263,111.206 311.948,106.009 309.932,94.767 C 298.798,89.785 298.814,86.84 296.336,78.27 C 286.295,82.209 276.796,71.208 276.402,67.358 C 259.083,74.538 261.902,62.101 254.921,59.047 C 243.635,66.946 240.185,52.104 235.266,54.492 C 224.42,59.715 212.781,52.663 209.509,48.303 C 205.665,50.723 203.784,52.398 200.488,53.46 C 199.685,53.707 199.541,54.098 197.977,53.71 C 191.326,52.038 186.478,46.517 189.354,47.474 Z" stroke="none" fill="url(#LinearGradient_53)" stroke-width="1.779" marker-start="none" marker-end="none" stroke-miterlimit="79.8403193612775"/>
     <path d="M 313.253,105.398 C 301.453,116.046 298.776,127.781 305.147,133.421 C 310.352,136.259 313.583,124.891 317.48,120.437 C 308.566,129.262 304.534,128.595 313.253,105.398 Z" stroke="none" fill="url(#LinearGradient_54)" stroke-width="1.779" marker-start="none" marker-end="none" stroke-miterlimit="79.8403193612775"/>
     <path d="M 299.723,92.032 C 289.185,102.909 291.278,113.746 295.755,116.614 C 300.183,119.183 306.134,106.071 310.578,102.452 C 300.759,109.843 292.097,112.75 299.723,92.032 Z" stroke="none" fill="url(#LinearGradient_55)" stroke-width="1.779" marker-start="none" marker-end="none" stroke-miterlimit="79.8403193612775"/>
     <path d="M 280.92,80.899 C 271.658,91.982 279.775,100.416 282.391,100.478 C 286.021,102.774 294.963,92.969 296.426,87.628 C 289.734,94.24 274.419,99.131 280.92,80.899 Z" stroke="none" fill="url(#LinearGradient_56)" stroke-width="1.779" marker-start="none" marker-end="none" stroke-miterlimit="79.8403193612775"/>
     <path d="M 263.113,73.776 C 255.104,85.091 264.574,94.632 265.334,91.911 C 268.175,93.965 272.39,89.072 277.004,82.967 C 276.785,85.624 257.697,89.542 263.113,73.776 Z" stroke="none" fill="url(#LinearGradient_57)" stroke-width="1.779" marker-start="none" marker-end="none" stroke-miterlimit="79.8403193612775"/>
     <path d="M 240.246,68.675 C 237.982,79.979 241.352,87.398 248.26,87.789 C 254.585,88.131 259.464,76.92 257.471,71.119 C 256.139,74.759 246.015,89.988 240.246,68.675 Z" stroke="none" fill="url(#LinearGradient_58)" stroke-width="1.779" marker-start="none" marker-end="none" stroke-miterlimit="79.8403193612775"/>
     <path d="M 237.018,64.561 C 229.09,79.717 225.968,80.505 215.587,65.298 C 216.865,66.819 221.564,85.777 228.275,85.475 C 233.859,84.017 237.205,76.626 237.018,64.561 Z" stroke="none" fill="url(#LinearGradient_59)" stroke-width="1.779" marker-start="none" marker-end="none" stroke-miterlimit="79.8403193612775"/>
     <path d="M 207.003,58.285 C 205.704,57.878 201.884,55.301 205.03,54.724 C 208.552,53.603 206.856,50.455 213.68,54.078 C 223.843,62.613 224.734,57.259 238.661,58.611 C 244.778,65.613 252.424,68.406 258.345,67.012 C 264.181,75.861 272.28,74.833 277.492,76.271 C 281.102,82.001 291.141,83.527 294.845,82.668 C 299.305,91.865 306.206,96.046 309.207,100.822 C 310.417,102.744 310.892,108.861 311.5,108.697 C 312.938,116.056 315.631,114.824 317.423,119.375 C 311.701,119.235 313.767,118.795 310.621,114.059 C 310.971,113.011 311.093,107.221 308.346,103.239 C 304.518,105.644 295.339,87.05 292.924,86.808 C 280.012,92.545 281.286,79.756 275.84,79.987 C 272.785,80.104 263.822,77.416 257.541,68.304 C 251.205,69.727 242.226,73.154 237.171,60.078 C 232.008,61.983 223.192,73.411 211.254,56.149 C 203.439,53.382 208.518,58.758 207.003,58.285 Z" stroke="none" fill="url(#LinearGradient_60)" stroke-width="1.779" marker-start="none" marker-end="none" stroke-miterlimit="79.8403193612775"/>
     <path d="M 211.956,59.532 C 207.754,71.524 202.34,76.85 194.459,60.505 C 194.952,61.761 197.667,77.919 204.949,78.427 C 213.433,74.936 209.89,67.874 211.956,59.532 Z" stroke="none" fill="url(#LinearGradient_61)" stroke-width="1.779" marker-start="none" marker-end="none" stroke-miterlimit="79.8403193612775"/>
     <path d="M 181.098,69.314 C 180.805,70.303 182.19,84.054 190.039,85.404 C 201.418,79.852 194.529,66.078 195.495,60.238 C 192.563,72.445 188.839,87.373 181.098,69.314 Z" stroke="none" fill="url(#LinearGradient_62)" stroke-width="1.779" marker-start="none" marker-end="none" stroke-miterlimit="79.8403193612775"/>
     <path d="M 207.023,55.349 C 204.099,68.901 199.394,58.755 195.92,61.004 C 190.951,64.213 187.81,73.598 182.103,72.088 C 179.663,71.449 175.919,65.413 179.285,65.068 C 181.807,64.825 185.921,69.696 192.65,56.662 C 203.186,60.688 202.602,53.855 207.023,55.349 Z" stroke="none" fill="url(#LinearGradient_63)" stroke-width="1.779" marker-start="none" marker-end="none" stroke-miterlimit="79.8403193612775"/>
     <path d="M 187.526,46.95 C 208.347,88.955 217.374,148.76 219.86,201.915" fill="none" stroke="#ff42af" stroke-width="1.059" stroke-miterlimit="79.8403193612775"/>
     <path d="M 295.169,146.964 C 294.819,144.697 289.932,145.586 289.296,143.407 C 285.579,130.457 279.078,140.602 277.582,136.303 C 273.731,125.056 269.034,131.278 266,127.496 C 256.412,115.432 250.993,127.293 248.626,131.2 C 248.26,127.405 255.48,118.436 240.596,116.532 C 238.349,116.763 237.985,122.846 237.833,121.085 C 236.601,106.981 225.766,110.163 222.751,109.274 C 208.41,105.03 214.848,96.579 208.708,97.194 C 201.13,97.936 192.261,93.174 194.3,97.524 C 196.354,101.931 203.451,102.914 207.439,116.909 C 208.97,122.264 216.92,122.831 221.366,126.244 C 222.945,123.635 225.984,140.618 234.752,137.91 C 236.032,139.512 235.863,142.468 237.731,143.291 C 239.053,143.858 240.496,142.103 241.919,142.271 C 244.96,142.602 245.173,144.243 250.128,146.349 C 252.783,147.48 256.089,141.289 258.225,143.264 C 269.678,153.75 269.294,142.267 270.613,146.323 C 272.805,152.983 279.307,151.132 281.144,155.381 C 282.199,157.769 278.452,162.171 280.853,163.205 C 285.302,158.799 296.245,154.088 295.169,146.964 Z" stroke="none" fill="url(#LinearGradient_64)" stroke-width="1.059" marker-start="none" marker-end="none" stroke-miterlimit="79.8403193612775"/>
     <path d="M 299.043,74.509 C 305.214,90.733 309.779,85.178 315.146,90.508 C 292.519,154.251 280.353,156.682 229.232,201.342" fill="none" stroke="#000000" stroke-width="1.059" stroke-miterlimit="79.8403193612775"/>
     <path d="M 299.043,74.509 C 295.243,104.263 285.678,122.229 278.371,135.003 C 261.486,164.535 242.843,174.266 225.952,203.819" fill="none" stroke="#000000" stroke-width="1.059" stroke-miterlimit="79.8403193612775"/>
     <path d="M 279.119,63.325 C 281.527,115.838 253.419,156.98 225.692,202.771" fill="none" stroke="#000000" stroke-width="1.059" stroke-miterlimit="79.8403193612775"/>
     <path d="M 259.048,53.828 C 262.4,86.963 257.824,128.977 236.985,143.864 C 229.665,164.18 228.829,182.731 223.995,202.625" fill="none" stroke="#000000" stroke-width="1.059" stroke-miterlimit="79.8403193612775"/>
     <path d="M 236.368,47.185 C 245.458,111.467 233.66,147.057 222.957,202.884" fill="none" stroke="#000000" stroke-width="1.059" stroke-miterlimit="79.8403193612775"/>
     <path d="M 207.146,41.049 C 223.472,96.345 228,145.419 221.603,202.97" fill="none" stroke="#000000" stroke-width="1.059" stroke-miterlimit="79.8403193612775"/>
     <path d="M 185.499,92.287 C 193.038,105.121 196.026,111.546 204.262,125.206 C 193.808,116.512 191.427,108.764 185.247,106.304 C 186.109,111.051 206.162,138.944 211.168,151.412 C 204.859,143.653 194.552,129.533 188.813,126.054 C 193.595,137.608 210.202,159.488 213.8,182.098 C 207.277,182.484 189.892,159.012 184.892,143.83 C 179.523,127.513 184.765,101.577 185.499,92.287 Z" stroke="none" fill="url(#LinearGradient_65)" stroke-width="1.059" marker-start="none" marker-end="none" stroke-miterlimit="79.8403193612775"/>
     <path d="M 167.963,180.021 C 156.822,177.981 131.27,166.623 99.593,165.835 C 83.959,166.617 82.406,150.354 69.406,147.52 C 63.035,152.214 42.464,153.34 41.845,160.785 C 47.444,168.983 34.312,176.104 34.884,180.196 C 39.796,186.227 34.392,200.726 36.079,206.351 C 40.906,211.131 36.047,224.843 37.342,229.548 C 42.325,236.223 45.387,240.412 48.328,250.359 C 50.945,253.745 54.221,265.28 59.292,271.166 C 65.127,277.933 75.43,288.222 77.307,290.318 C 84.276,298.138 84.791,291.497 89.32,296.605 C 95.614,299.678 89.991,297.482 99.198,298.685 C 107.725,300.867 125.531,285.853 149.153,267.484 C 168.57,248.342 183.791,220.282 198.256,211.995 C 202.296,205.484 178.049,186.734 167.963,180.021 Z" stroke="#000000" fill="#ffff00" stroke-width="0.379" marker-start="none" marker-end="none" stroke-miterlimit="79.8403193612775"/>
     <path d="M 170.44,185.661 C 139.183,174.955 108.692,165.906 93.28,166.816 C 90.802,165.411 79.174,151.191 63.99,147.827 C 65.28,150.316 63.324,155.211 54.499,151.732 C 52.335,153.815 59.484,163.346 42.537,157.774 C 48.625,178.543 36.608,177.248 35.594,180.72 C 47.958,189.471 47.864,195.906 35.204,205.83 C 57.463,214.906 37.449,224.28 37.875,228.679 C 52.332,232.851 49.657,244.245 46.939,250.702 C 67.414,257.998 56.68,265.801 59.292,271.166 C 77.991,273.204 73.175,287.463 77.664,291.91 C 83.294,289.05 81.757,293.119 88.25,293.622 C 91.655,293.888 96.159,294.157 98.132,297.449 C 99.343,297.755 101.819,297.804 103.409,297.439 C 127.02,295.216 120.307,292.424 142.086,272.593 C 164.197,253.452 186.379,220.591 199.255,211.012 C 201.847,203.813 177.734,188.144 170.44,185.661 Z" stroke="#000000" fill="url(#LinearGradient_66)" stroke-width="0.379" marker-start="none" marker-end="none" stroke-miterlimit="79.8403193612775"/>
     <path d="M 160.607,245.294 C 157.248,248.049 155.91,241.803 157.584,237.78 C 159.354,230.844 175.232,217.56 189.97,216.882 C 179.169,223.853 165.421,241.359 160.607,245.294 Z" stroke="none" fill="url(#LinearGradient_67)" stroke-width="0.379" marker-start="none" marker-end="none" stroke-miterlimit="79.8403193612775"/>
     <path d="M 80.179,212.862 C 108.777,220.254 176.088,207.337 189.024,207.579" fill="none" stroke="#ff42af" stroke-width="1.779" stroke-miterlimit="79.8403193612775"/>
     <path d="M 152.432,229.089 C 170.903,191.118 152.21,189.297 153.747,186.967 C 140.107,163.866 187.956,191.309 198.899,208.954 C 198.513,225.822 164.416,218.498 152.432,229.089 Z" stroke="none" fill="url(#LinearGradient_68)" stroke-width="1.779" marker-start="none" marker-end="none" stroke-miterlimit="79.8403193612775"/>
     <path d="M 88.606,251.166 C 121.24,247.877 159.348,229.354 181.239,216.028" fill="none" stroke="#ff42af" stroke-width="1.779" stroke-miterlimit="79.8403193612775"/>
     <path d="M 71.808,155.303 C 76.931,159.498 90.025,161.716 94.715,169.341 C 98.145,174.901 100.797,184.119 96.32,188.884 C 93.733,191.627 86.974,183.814 84.841,189.513 C 84.628,190.036 83.812,188.961 83.381,188.631 C 73.856,181.727 84.218,175.402 71.808,155.303 Z" stroke="none" fill="url(#LinearGradient_69)" stroke-width="1.779" marker-start="none" marker-end="none" stroke-miterlimit="79.8403193612775"/>
     <path d="M 106.397,295.415 C 115.72,293.625 136.86,275.417 127.434,276.249 C 119.252,276.978 116.017,278.809 110.741,277.018 C 121.24,264.029 98.112,268.897 91.955,265.177 C 108.925,251.485 91.574,254.273 85.766,251.236 C 102.412,240.271 96.628,240.634 77.186,234.25 C 100.963,222.239 92.799,221.254 73.681,212.144 C 112.456,202.771 64.499,190.608 71.9,190.019 C 89.92,188.573 72.324,177.499 71.816,171.289 C 71.447,167.061 73.663,160.241 69.709,158.703 C 64.879,156.835 62.646,167.757 57.487,168.293 C 53.696,168.67 50.624,161.472 47.253,163.226 C 41.449,166.246 56.822,168.628 44.272,182.654 C 40.529,186.838 50.388,189.812 51.827,195.898 C 52.753,199.77 44.756,206.691 45.414,210.221 C 46.731,217.282 59.088,220.382 52.325,230.626 C 64.266,237.379 57.364,243.986 59.897,250.678 C 62.302,257.124 71.514,260.158 67.139,270.043 C 84.531,277.463 75.711,288.5 83.211,286.661 C 93.067,284.23 98.29,296.96 106.397,295.415 Z" stroke="none" fill="url(#LinearGradient_70)" stroke-width="1.779" marker-start="none" marker-end="none" stroke-miterlimit="79.8403193612775"/>
     <path d="M 44.897,162.203 C 46.609,169.27 49.791,174.442 40.407,181.259 C 48.73,189.109 49.449,201.734 44.747,209.2 C 50.796,215.071 52.715,223.832 48.663,228.132 C 47.293,234.672 62.015,237.208 55.094,251.452 C 59.959,258.002 69.557,257.692 64.435,272.156 C 68.089,278.392 78.877,276.156 80.285,287.873 C 83.902,288.308 96.419,297.05 97.911,294.785 C 98.663,293.65 93.827,288.945 82.762,286.066 C 78.648,274.572 75.714,274.365 67.352,271.258 C 72.061,261.534 61.82,251.209 58.014,250.531 C 66.502,233.796 53.883,235.655 51.38,228.458 C 60.131,217.823 45.608,213.255 48.363,208.519 C 54.405,198.093 48.263,185.942 44.182,182.357 C 46.893,178.73 48.709,176.968 50.011,173.761 C 50.321,172.985 50.724,172.864 50.453,171.281 C 49.3,164.52 44.188,159.254 44.897,162.203 Z" stroke="none" fill="url(#LinearGradient_71)" stroke-width="1.779" marker-start="none" marker-end="none" stroke-miterlimit="79.8403193612775"/>
     <path d="M 93.094,290.187 C 104.619,279.242 116.533,277.49 121.661,284.283 C 124.095,289.687 112.518,292.031 107.762,295.566 C 117.258,287.36 116.908,283.282 93.094,290.187 Z" stroke="none" fill="url(#LinearGradient_72)" stroke-width="1.779" marker-start="none" marker-end="none" stroke-miterlimit="79.8403193612775"/>
     <path d="M 80.821,275.685 C 92.473,266.021 103.119,268.919 105.615,273.622 C 107.845,278.22 94.32,283.147 90.364,287.307 C 98.498,278.081 102.07,269.676 80.821,275.685 Z" stroke="none" fill="url(#LinearGradient_73)" stroke-width="1.779" marker-start="none" marker-end="none" stroke-miterlimit="79.8403193612775"/>
     <path d="M 71.165,256.08 C 82.927,247.68 90.72,256.417 90.59,259.052 C 92.604,262.848 82.11,271.001 76.668,272.058 C 83.792,265.889 94.12,256.197 71.165,256.08 Z" stroke="none" fill="url(#LinearGradient_74)" stroke-width="1.779" marker-start="none" marker-end="none" stroke-miterlimit="79.8403193612775"/>
     <path d="M 65.434,237.759 C 77.329,230.659 86.121,240.837 83.356,241.373 C 85.175,244.374 79.976,248.214 73.518,252.311 C 76.198,252.305 81.568,233.602 65.434,237.759 Z" stroke="none" fill="url(#LinearGradient_75)" stroke-width="1.779" marker-start="none" marker-end="none" stroke-miterlimit="79.8403193612775"/>
     <path d="M 62.133,214.562 C 73.569,213.188 80.712,217.118 80.556,224.015 C 80.4,230.373 68.844,234.38 63.217,231.935 C 66.958,230.9 82.929,221.981 62.133,214.562 Z" stroke="none" fill="url(#LinearGradient_76)" stroke-width="1.779" marker-start="none" marker-end="none" stroke-miterlimit="79.8403193612775"/>
     <path d="M 58.255,211.039 C 74,204.313 75.008,201.246 60.658,189.725 C 62.07,191.126 80.608,197.267 79.783,203.949 C 77.912,209.391 70.288,212.154 58.255,211.039 Z" stroke="none" fill="url(#LinearGradient_77)" stroke-width="1.779" marker-start="none" marker-end="none" stroke-miterlimit="79.8403193612775"/>
     <path d="M 54.319,180.618 C 54.029,179.309 51.738,175.295 50.934,178.39 C 49.533,181.81 46.512,179.889 49.62,186.953 C 57.327,197.754 51.924,198.221 52.204,212.217 C 58.716,218.877 60.911,226.705 59.067,232.48 C 67.443,238.99 65.802,246.99 66.825,252.297 C 72.238,256.341 72.993,266.472 71.866,270.097 C 80.674,275.248 84.318,282.459 88.843,285.81 C 90.678,287.171 96.728,288.103 96.527,288.706 C 103.751,290.7 102.317,293.3 106.699,295.426 C 107.01,289.721 106.415,291.745 101.941,288.236 C 100.855,288.505 95.092,288.179 91.331,285.122 C 94.015,281.511 76.18,270.937 76.145,268.493 C 82.86,256.065 70.002,256.341 70.653,250.936 C 71.006,247.901 69.025,238.752 60.415,231.797 C 62.323,225.6 66.433,216.885 53.783,210.851 C 56.087,205.853 68.154,197.93 51.853,184.698 C 49.701,176.691 54.673,182.168 54.319,180.618 Z" stroke="none" fill="url(#LinearGradient_78)" stroke-width="1.779" marker-start="none" marker-end="none" stroke-miterlimit="79.8403193612775"/>
     <path d="M 55.187,185.665 C 67.459,182.4 73.194,177.421 57.487,168.293 C 58.711,168.876 74.611,172.825 74.564,180.128 C 70.427,188.322 63.635,184.235 55.187,185.665 Z" stroke="none" fill="url(#LinearGradient_79)" stroke-width="1.779" marker-start="none" marker-end="none" stroke-miterlimit="79.8403193612775"/>
     <path d="M 67.312,155.641 C 68.323,155.432 81.934,157.885 82.681,165.792 C 76.259,176.722 63.061,168.804 57.162,169.313 C 69.539,167.325 84.716,164.769 67.312,155.641 Z" stroke="none" fill="url(#LinearGradient_80)" stroke-width="1.779" marker-start="none" marker-end="none" stroke-miterlimit="79.8403193612775"/>
     <path d="M 51.394,180.41 C 65.151,178.546 55.358,173.08 57.887,169.781 C 61.464,165.092 71.046,162.684 70.007,156.886 C 69.563,154.386 63.82,150.192 63.232,153.518 C 62.79,155.997 67.312,160.498 53.809,166.196 C 57.023,177.003 50.239,175.916 51.394,180.41 Z" stroke="none" fill="url(#LinearGradient_81)" stroke-width="1.779" marker-start="none" marker-end="none" stroke-miterlimit="79.8403193612775"/>
     <path d="M 44.522,160.346 C 84.809,184.345 143.72,197.966 196.54,204.526" fill="none" stroke="#ff42af" stroke-width="1.059" stroke-miterlimit="79.8403193612775"/>
     <path d="M 135.928,275.377 C 133.704,274.846 134.983,270.05 132.832,269.251 C 120.218,264.541 130.84,258.83 126.658,257.023 C 115.74,252.305 122.317,248.105 118.777,244.8 C 107.496,234.296 119.72,229.812 123.806,227.752 C 120.054,227.082 110.563,233.609 109.81,218.631 C 110.212,216.39 116.291,216.507 114.557,216.216 C 100.584,213.892 104.59,203.331 103.934,200.268 C 100.808,185.627 91.904,191.405 92.983,185.327 C 94.313,177.825 90.245,168.625 94.432,170.99 C 98.656,173.376 99.087,180.53 112.723,185.574 C 117.957,187.522 117.905,195.498 120.966,200.184 C 118.241,201.57 134.95,205.912 131.578,214.439 C 133.062,215.842 136.035,215.882 136.69,217.818 C 137.17,219.181 135.302,220.48 135.357,221.915 C 135.463,224.971 137.078,225.315 138.799,230.413 C 139.722,233.157 133.283,235.974 135.086,238.254 C 144.678,250.484 133.258,249.214 137.185,250.841 C 143.668,253.542 141.321,259.877 145.413,262.048 C 147.711,263.275 152.401,259.882 153.242,262.358 C 148.492,266.451 142.959,276.998 135.928,275.377 Z" stroke="none" fill="url(#LinearGradient_82)" stroke-width="1.059" marker-start="none" marker-end="none" stroke-miterlimit="79.8403193612775"/>
     <path d="M 63.405,273.644 C 79.086,281.058 73.211,285.164 78.126,290.936 C 143.411,273.284 146.763,261.365 195.24,213.831" fill="none" stroke="#000000" stroke-width="1.059" stroke-miterlimit="79.8403193612775"/>
     <path d="M 61.172,271.614 C 83.787,271.958 111.995,263.996 125.31,257.707 C 156.056,243.151 167.186,225.302 197.949,210.741" fill="none" stroke="#000000" stroke-width="1.059" stroke-miterlimit="79.8403193612775"/>
     <path d="M 53.776,252.912 C 105.947,259.368 149.146,234.508 196.931,210.415" fill="none" stroke="#000000" stroke-width="1.059" stroke-miterlimit="79.8403193612775"/>
     <path d="M 45.866,232.175 C 78.65,238.081 120.888,236.736 137.339,217.117 C 158.159,211.399 176.718,211.994 196.918,208.709" fill="none" stroke="#000000" stroke-width="1.059" stroke-miterlimit="79.8403193612775"/>
     <path d="M 36.702,205.657 C 99.121,224.63 140.771,214.051 197.264,207.684" fill="none" stroke="#000000" stroke-width="1.059" stroke-miterlimit="79.8403193612775"/>
     <path d="M 37.113,179.442 C 90.997,199.983 139.577,208.293 197.445,206.32" fill="none" stroke="#000000" stroke-width="1.059" stroke-miterlimit="79.8403193612775"/>
     <path d="M 91.071,166.032 C 103.278,174.546 108.273,173.796 121.247,183.044 C 113.385,171.966 111.51,177.512 109.533,171.158 C 114.19,172.381 134.799,186 146.849,191.967 C 139.593,185.075 133.175,183.382 130.144,177.383 C 141.294,183.045 154.973,191.639 177.254,196.95 C 178.122,190.473 161.003,178.742 149.211,176.899 C 137.076,175.013 99.537,164.473 91.071,166.032 Z" stroke="none" fill="url(#LinearGradient_83)" stroke-width="1.059" marker-start="none" marker-end="none" stroke-miterlimit="79.8403193612775"/>
     <path d="M 227.461,239.654 C 225.924,240.947 222.827,239.438 221.69,237.787 C 220.959,236.721 220.476,234.852 221.88,233.906 C 223.613,232.767 225.376,232.967 226.552,233.996 C 227.997,235.245 228.908,238.406 227.461,239.654 Z" stroke="#000000" fill="url(#RadialGradient_1)" stroke-width="0.379" marker-start="none" marker-end="none" stroke-miterlimit="79.8403193612775"/>
     <path d="M 191.905,173.599 C 187.059,174.787 180.117,182.368 178.446,186.089 C 182.079,185.931 184.204,193.84 184.862,192.048 C 185.735,189.629 194.084,181.71 197.975,181.121 C 200.242,180.771 192.066,177.242 191.905,173.599 Z" stroke="none" fill="url(#LinearGradient_84)" stroke-width="0.379" marker-start="none" marker-end="none" stroke-miterlimit="79.8403193612775"/>
     <path d="M 187.202,164.84 C 182.354,166.028 172.432,176.541 170.781,180.258 C 174.415,180.1 176.767,186.664 177.422,184.862 C 178.285,182.446 186.719,173.409 190.63,172.823 C 192.87,172.48 187.354,168.486 187.202,164.84 Z" stroke="none" fill="url(#LinearGradient_85)" stroke-width="0.379" marker-start="none" marker-end="none" stroke-miterlimit="79.8403193612775"/>
     <path d="M 182.041,158.77 C 177.191,159.949 164.483,174.08 162.83,177.796 C 166.464,177.638 170.666,178.249 171.321,176.447 C 172.183,174.031 177.931,167.485 181.824,166.906 C 184.089,166.546 182.199,162.404 182.041,158.77 Z" stroke="none" fill="url(#LinearGradient_86)" stroke-width="0.379" marker-start="none" marker-end="none" stroke-miterlimit="79.8403193612775"/>
     <path d="M 175.488,153.034 C 170.641,154.224 159.853,167.144 158.187,170.843 C 161.833,170.692 163.596,173.367 164.255,171.575 C 165.127,169.156 171.642,161.305 175.539,160.736 C 177.803,160.376 175.643,156.658 175.488,153.034 Z" stroke="none" fill="url(#LinearGradient_87)" stroke-width="0.379" marker-start="none" marker-end="none" stroke-miterlimit="79.8403193612775"/>
     <path d="M 169.809,147.809 C 164.952,149.001 154.862,161.744 153.203,165.473 C 156.824,165.308 158.531,168.887 159.177,167.088 C 160.06,164.676 164.485,157.554 168.374,156.965 C 170.643,156.624 169.956,151.445 169.809,147.809 Z" stroke="none" fill="url(#LinearGradient_88)" stroke-width="0.379" marker-start="none" marker-end="none" stroke-miterlimit="79.8403193612775"/>
     <path d="M 163.17,143.184 C 158.324,144.372 150.572,153.257 148.906,156.956 C 152.552,156.804 155.038,160.238 155.69,158.427 C 156.584,156.012 158.668,152.552 162.558,151.963 C 164.819,151.634 163.331,146.827 163.17,143.184 Z" stroke="none" fill="url(#LinearGradient_89)" stroke-width="0.379" marker-start="none" marker-end="none" stroke-miterlimit="79.8403193612775"/>
     <path d="M 226.921,213.127 C 222.072,214.314 215.11,221.89 213.461,225.617 C 212.717,230.092 218.172,232.437 219.884,231.564 C 223.032,229.951 231.746,223.303 230.641,218.185 C 230.163,215.942 227.082,216.77 226.921,213.127 Z" stroke="none" fill="url(#LinearGradient_90)" stroke-width="0.379" marker-start="none" marker-end="none" stroke-miterlimit="79.8403193612775"/>
     <path d="M 201.932,185.369 C 197.087,186.558 191.499,191.776 189.836,195.495 C 189.095,199.981 201.331,220.788 209.953,222.696 C 213.398,223.458 225.987,209.537 224.889,204.405 C 224.405,202.142 208.791,189.544 201.932,185.369 Z" stroke="none" fill="url(#LinearGradient_91)" stroke-width="0.379" marker-start="none" marker-end="none" stroke-miterlimit="79.8403193612775"/>
    </g>
   </g>
  </g>
 </g>
</svg>
