<?xml version="1.0" standalone="no"?>
<!-- Generator: Xara Xtreme (www.xara.com), SVG filter version: 0.4 -->
<!DOCTYPE svg PUBLIC "-//W3C//DTD SVG 1.1//EN" "http://www.w3.org/Graphics/SVG/1.1/DTD/svg11.dtd">
<svg stroke-width="0.501" stroke-linejoin="bevel" fill-rule="evenodd" xmlns:xlink="http://www.w3.org/1999/xlink" xmlns="http://www.w3.org/2000/svg" version="1.1" width="123.75pt" height="450pt" viewBox="0 0 123.75 450">
 <defs>
  <marker id="DefaultArrow2" markerUnits="strokeWidth" viewBox="0 0 1 1" markerWidth="1" markerHeight="1" overflow="visible" orient="auto">
   <!-- REF_ARROW_STRAIGHT (-2) -->
   <g transform="scale(0.0092592592)">
    <!-- 1/108 -->
    <path d="M -9 54 L -9 -54 L 117 0 z"/>
   </g>
  </marker>
  <marker id="DefaultArrow3" markerUnits="strokeWidth" viewBox="0 0 1 1" markerWidth="1" markerHeight="1" overflow="visible" orient="auto">
   <!-- REF_ARROW_ANGLED -->
   <g transform="scale(0.0092592592)">
    <path d="M -27 54 L -9 0 L -27 -54 L 135 0 z"/>
   </g>
  </marker>
  <marker id="DefaultArrow4" markerUnits="strokeWidth" viewBox="0 0 1 1" markerWidth="1" markerHeight="1" overflow="visible" orient="auto">
   <!-- REF_ARROW_ROUNDED -->
   <g transform="scale(0.0092592592)">
    <path d="M -9,0 L -9,-45 C -9,-51.708 2.808,-56.580 9,-54 L 117,-9 C 120.916,-7.369 126.000,-4.242 126,0 C 126,4.242 120.916,7.369 117,9 L 9,54 C 2.808,56.580 -9,51.708 -9,45 z"/>
   </g>
  </marker>
  <marker id="DefaultArrow5" markerUnits="strokeWidth" viewBox="0 0 1 1" markerWidth="1" markerHeight="1" overflow="visible" orient="auto">
   <!-- REF_ARROW_SPOT -->
   <g transform="scale(0.0092592592)">
    <path d="M -54, 0 C -54,29.807 -29.807,54 0,54 C 29.807,54 54,29.807 54,0 C 54,-29.807 29.807,-54 0,-54 C -29.807,-54 -54,-29.807 -54,0 z"/>
   </g>
  </marker>
  <marker id="DefaultArrow6" markerUnits="strokeWidth" viewBox="0 0 1 1" markerWidth="1" markerHeight="1" overflow="visible" orient="auto">
   <!-- REF_ARROW_DIAMOND -->
   <g transform="scale(0.0092592592)">
    <path d="M -63,0 L 0,63 L 63,0 L 0,-63 z"/>
   </g>
  </marker>
  <marker id="DefaultArrow7" markerUnits="strokeWidth" viewBox="0 0 1 1" markerWidth="1" markerHeight="1" overflow="visible" orient="auto">
   <!-- REF_ARROW_FEATHER -->
   <g transform="scale(0.0092592592)">
    <path d="M 18,-54 L 108,-54 L 63,0 L 108,54 L 18, 54 L -36,0 z"/>
   </g>
  </marker>
  <marker id="DefaultArrow8" markerUnits="strokeWidth" viewBox="0 0 1 1" markerWidth="1" markerHeight="1" overflow="visible" orient="auto">
   <!-- REF_ARROW_FEATHER2 -->
   <g transform="scale(0.0092592592)">
    <path d="M -36,0 L 18,-54 L 54,-54 L 18,-18 L 27,-18 L 63,-54 L 99,-54 L 63,-18 L 72,-18 L 108,-54 L 144,-54 L 90,0 L 144,54 L 108,54 L 72,18 L 63,18 L 99,54 L 63,54 L 27,18 L 18,18 L 54,54 L 18,54 z"/>
   </g>
  </marker>
  <marker id="DefaultArrow9" markerUnits="strokeWidth" viewBox="0 0 1 1" markerWidth="1" markerHeight="1" overflow="visible" orient="auto">
   <!-- REF_ARROW_HOLLOWDIAMOND -->
   <g transform="scale(0.0092592592)">
    <path d="M 0,45 L -45,0 L 0, -45 L 45, 0 z M 0, 63 L-63, 0 L 0, -63 L 63, 0 z"/>
   </g>
  </marker>
  <radialGradient id="RadialGradient" gradientUnits="userSpaceOnUse" cx="0" cy="0" r="204.527" gradientTransform="translate(50.706 187.452) rotate(105.69)" spreadMethod="pad">
   <stop offset="0" stop-color="#006710"/>
   <stop offset="1" stop-color="#09c80b"/>
  </radialGradient>
 </defs>
 <g id="Document" fill="none" stroke="black" font-family="Times New Roman" font-size="16" transform="scale(1 -1)">
  <g id="Spread" transform="translate(0 -450)">
   <g id="Layer 1">
    <path d="M 83.657,440.847 C 83.952,439.962 83.067,439.077 82.772,438.192 L 83.657,440.847 Z M 78.642,436.422 L 79.527,436.127 L 78.642,436.127 L 78.642,436.422 Z M 72.766,432.192 C 72.97,432.198 73.17,432.195 73.374,432.189 C 76.226,432.103 79.176,431.065 81.592,429.932 C 91.622,424.327 96.932,413.413 100.472,403.088 C 103.717,393.943 105.487,383.913 106.076,373.884 C 107.256,373.294 109.321,374.769 110.501,375.949 C 111.386,376.538 112.271,378.603 113.156,376.833 C 115.221,371.819 111.681,367.099 108.731,363.559 C 109.026,360.609 111.386,358.249 112.271,355.594 C 112.271,352.939 115.221,350.579 113.451,347.924 C 110.796,347.039 110.206,342.024 106.666,344.089 L 106.076,343.794 C 104.602,336.125 103.127,327.865 100.767,321.08 C 102.242,320.49 102.537,322.555 103.422,323.44 C 107.256,328.455 107.846,336.42 106.371,342.024 C 108.141,341.729 108.436,339.369 109.026,337.895 C 111.091,325.505 101.357,316.655 94.572,308.1 L 96.047,308.1 C 96.932,306.625 94.277,303.97 96.637,303.675 C 102.242,306.625 106.666,312.23 109.911,317.54 C 110.501,318.425 111.681,318.425 112.566,318.13 C 114.041,315.475 111.681,312.82 112.566,309.575 C 113.156,303.38 111.681,297.776 111.091,291.581 C 110.206,289.221 107.846,287.156 106.371,285.091 C 105.192,278.896 110.796,277.421 113.451,272.996 C 114.041,268.866 109.026,271.521 106.961,269.751 C 101.652,270.046 97.227,260.017 91.917,267.096 C 88.967,269.456 87.787,273.291 88.672,277.126 C 88.672,277.716 88.377,278.306 87.492,278.306 L 86.312,278.011 L 85.722,280.666 L 79.527,270.636 L 78.347,270.931 C 78.642,263.852 79.822,255.297 77.462,247.922 L 75.102,248.217 C 77.167,246.152 80.117,246.742 82.772,245.857 C 84.542,241.137 89.852,239.957 94.277,238.777 C 96.731,235.939 100.085,235.697 103.481,235.68 L 104.935,235.68 C 108.805,235.68 112.566,235.532 114.926,231.697 C 114.926,229.927 112.861,230.222 112.271,229.632 C 105.192,229.042 104.602,218.718 96.932,218.718 C 93.392,217.833 89.262,219.308 87.492,215.178 C 86.017,210.753 80.412,211.048 78.347,206.623 C 75.102,206.033 73.922,210.458 70.677,211.638 C 66.548,215.178 66.548,220.783 67.728,225.503 L 70.382,227.568 C 68.318,229.337 64.483,229.042 61.533,228.452 C 60.648,228.747 60.648,229.927 61.238,230.222 C 63.598,231.402 65.958,230.812 68.613,230.812 C 64.188,235.532 67.433,242.612 69.792,247.627 C 69.792,248.807 70.087,249.987 71.562,250.282 C 72.742,250.282 74.512,248.217 75.102,249.987 L 75.397,260.312 L 74.807,260.902 C 61.533,238.482 52.683,213.703 48.848,188.039 C 52.683,188.629 56.223,190.988 59.468,192.758 C 58.583,192.463 57.993,193.348 57.993,194.233 L 66.843,213.998 C 67.728,213.703 68.907,213.113 68.907,211.933 C 66.548,205.738 64.483,199.248 60.943,193.643 C 62.418,192.463 65.958,193.938 66.548,191.283 C 65.368,186.269 66.253,180.664 64.483,175.944 C 64.778,171.814 66.843,167.094 64.188,163.554 C 60.943,158.539 55.928,154.114 49.733,155.294 L 46.783,156.474 C 46.488,153.524 46.783,149.985 47.078,146.74 L 48.553,146.74 C 52.978,137.89 54.748,126.385 52.978,116.65 C 53.568,116.945 53.863,118.715 54.748,117.83 C 61.533,105.441 74.217,94.821 88.967,96.886 C 95.457,97.181 101.947,101.606 104.897,107.506 C 106.371,109.866 106.961,112.816 106.961,116.061 C 104.012,117.24 104.307,113.406 104.307,111.636 C 104.012,110.456 105.192,108.391 104.012,107.801 C 100.177,110.161 97.227,105.441 93.392,108.096 C 90.737,110.751 88.672,113.996 86.902,117.24 C 83.657,115.471 85.427,119.895 83.952,121.075 C 82.772,119.895 84.247,118.125 83.067,116.65 C 81.297,111.931 76.282,109.866 71.857,109.571 C 68.318,109.866 67.728,113.701 65.073,115.176 C 62.418,116.65 58.583,115.471 57.403,118.715 C 57.108,123.435 64.483,124.32 62.713,128.745 C 59.173,131.99 60.058,137.3 60.058,141.725 C 63.008,142.61 65.073,140.545 67.728,140.84 L 73.627,141.135 C 76.872,146.15 82.182,149.985 87.492,152.05 C 90.737,160.309 99.587,161.194 105.487,167.389 C 106.961,166.799 106.961,164.734 106.961,163.554 C 105.782,158.244 101.947,153.524 103.717,147.92 C 102.242,142.905 106.961,138.185 104.012,134.055 L 106.371,127.86 C 109.026,127.565 113.156,127.27 114.926,124.32 C 114.926,122.255 112.566,122.845 111.976,121.075 L 108.731,117.24 C 110.796,110.161 105.782,103.081 100.767,98.656 C 92.507,91.576 78.937,93.051 70.382,97.476 L 60.353,104.556 C 62.713,99.541 57.108,95.116 58.878,90.101 C 58.583,88.921 58.288,87.741 57.108,87.741 L 50.323,88.331 C 48.553,89.806 47.373,93.641 44.423,91.576 C 42.063,89.806 39.998,88.036 37.343,86.561 C 44.128,77.417 50.323,69.157 58.878,62.077 C 59.763,61.782 59.468,62.667 60.058,62.962 C 65.663,65.912 72.742,65.912 78.937,66.207 C 86.902,65.912 95.457,63.257 99.587,55.587 C 102.537,49.982 102.537,42.017 98.407,37.003 C 98.702,36.708 98.702,36.413 98.997,36.413 C 99.292,37.003 99.292,37.888 100.177,37.888 C 104.897,36.118 109.911,33.463 112.861,29.333 L 112.271,28.153 C 115.516,26.088 121.121,25.793 120.236,20.483 C 118.466,19.303 116.696,21.073 114.926,21.368 C 106.961,25.498 98.997,30.218 91.622,35.528 C 92.212,34.938 91.622,33.168 90.147,33.463 C 84.542,33.168 79.232,36.413 76.872,41.428 C 76.282,42.607 77.757,42.607 77.757,43.197 C 75.102,45.557 71.857,47.327 68.613,49.097 L 68.318,48.802 C 68.613,48.212 69.497,47.622 69.202,46.737 L 68.023,45.852 C 68.613,44.967 70.677,46.147 70.087,44.377 C 69.497,43.787 67.728,43.787 67.138,44.672 C 65.368,45.852 67.138,47.032 67.138,48.802 C 67.728,48.802 68.318,49.687 67.728,49.982 C 67.433,50.277 66.843,50.572 66.843,50.277 C 66.548,47.622 62.418,48.802 62.418,45.557 C 63.303,39.658 68.613,35.528 71.562,30.808 C 75.692,24.023 89.262,28.448 86.902,17.533 C 83.657,14.878 79.232,17.533 75.692,17.533 C 74.512,14.288 71.857,11.633 68.318,11.043 C 66.548,8.683 63.598,8.683 60.943,9.863 C 57.698,11.633 54.748,16.648 50.028,14.878 C 47.373,13.993 44.128,13.108 41.178,14.583 C 37.343,18.123 32.918,20.188 29.969,24.908 C 31.444,27.563 34.393,25.203 36.458,25.498 C 44.423,21.958 53.568,17.828 62.123,21.958 C 64.483,23.728 67.728,26.678 66.843,30.218 C 65.368,36.708 55.338,43.197 61.828,49.982 L 64.778,51.457 C 61.533,55.292 57.403,57.947 53.863,61.192 C 52.978,58.537 49.733,60.602 47.668,60.602 C 42.653,62.372 37.638,65.322 34.983,70.337 C 33.213,73.582 31.738,77.712 32.918,81.546 C 34.393,80.071 34.098,76.827 35.278,74.467 C 38.228,68.567 45.013,63.257 51.208,63.552 C 45.603,70.632 38.228,77.417 34.393,85.381 C 32.623,85.676 31.738,83.316 29.969,83.316 C 24.954,83.611 21.119,80.366 16.694,80.661 C 15.809,85.381 22.004,86.266 22.004,90.986 C 22.299,95.411 23.774,99.541 26.134,103.376 L 24.659,103.671 C 18.759,114.881 14.334,126.975 12.564,139.66 C 10.204,139.66 8.434,136.12 6.074,138.775 C 5.189,141.725 8.434,143.495 8.434,146.74 C 7.549,150.87 10.204,154.114 12.859,157.359 C 11.679,160.899 7.254,161.784 5.779,165.324 C 4.894,167.684 2.829,169.749 3.419,172.404 L 9.319,175.354 C 10.204,175.354 11.679,175.944 12.269,176.534 C 10.499,177.419 10.499,180.074 11.089,182.139 C 10.794,183.024 11.974,183.909 12.564,183.909 C 12.269,190.399 7.844,195.413 5.189,201.018 C 2.534,208.098 2.829,216.653 6.959,222.848 C 7.549,223.438 8.729,223.438 9.024,222.848 C 11.089,217.833 11.384,211.638 16.989,208.688 C 21.119,207.803 23.774,203.673 27.314,201.608 C 30.559,200.133 33.803,198.953 36.163,196.298 C 34.688,202.493 36.163,210.163 37.048,216.653 C 40.293,234.057 47.963,249.987 57.108,264.737 C 42.358,254.707 33.213,239.367 26.134,224.323 L 20.234,209.573 C 19.939,208.983 18.759,208.983 18.464,209.573 L 18.169,210.753 C 24.954,236.712 43.538,262.377 67.728,276.536 C 66.548,276.536 66.843,278.306 67.138,278.896 C 67.728,279.486 68.613,280.076 69.202,279.486 C 71.857,284.796 63.598,287.451 66.253,292.761 C 68.613,293.941 70.972,292.761 73.037,293.056 C 76.282,294.236 79.527,294.531 82.477,293.646 C 84.542,293.646 86.607,297.481 88.377,294.826 C 90.737,298.071 92.212,302.495 92.212,306.035 C 89.262,303.38 86.312,300.136 83.362,298.071 L 82.182,298.661 C 81.002,297.776 82.182,293.941 79.527,295.416 C 78.642,298.071 80.707,300.726 80.117,303.675 C 80.117,308.69 79.527,313.115 75.987,316.36 C 74.512,315.18 75.692,313.115 74.807,311.64 C 72.742,309.87 70.087,309.28 68.318,307.215 C 63.008,308.69 64.188,314.885 63.303,319.31 C 60.353,321.375 56.813,322.85 55.928,326.685 C 55.633,328.75 55.043,331.11 56.223,332.88 C 58.583,332.88 60.058,330.52 62.418,330.225 L 75.987,328.455 C 79.527,326.98 82.772,323.145 86.607,322.85 C 87.197,322.26 87.787,321.965 87.492,321.08 C 84.247,321.08 82.772,316.95 79.527,316.95 C 78.642,314.885 81.002,313.115 81.297,311.05 C 83.067,307.51 81.297,302.79 82.772,299.841 L 84.837,303.085 C 89.262,307.805 95.752,311.935 98.997,317.835 L 97.817,317.835 C 99.587,326.685 101.947,336.125 103.422,344.974 C 101.062,345.859 97.817,343.204 95.457,345.269 C 93.097,347.039 92.507,351.169 88.967,351.169 C 87.492,351.169 85.132,350.579 85.427,352.939 C 85.427,356.184 88.967,357.954 90.737,360.904 L 95.162,362.379 C 97.227,366.804 100.472,371.524 105.487,373.294 L 104.012,373.884 C 100.472,392.763 98.407,413.707 81.592,426.687 C 78.347,428.457 74.217,430.227 70.677,428.457 C 68.907,427.867 68.318,426.097 67.433,424.622 C 67.138,421.967 68.613,419.607 70.972,418.427 C 75.692,414.887 79.822,422.262 84.247,418.427 C 86.607,416.362 86.902,412.823 84.542,410.758 C 83.657,409.578 81.887,408.988 80.412,409.873 C 79.822,410.758 78.642,411.348 79.232,412.528 C 80.707,413.413 82.182,411.643 83.657,413.118 C 84.542,413.707 83.952,415.182 83.952,415.772 C 80.412,419.607 76.577,414.592 73.037,415.182 C 69.202,415.477 65.958,418.427 64.483,421.672 C 64.188,424.917 64.483,427.572 66.843,429.932 C 68.391,431.372 70.232,432.021 72.158,432.162 C 72.362,432.177 72.562,432.189 72.766,432.192 Z M 101.357,358.249 L 99.882,357.069 C 100.472,355.594 101.062,352.644 99.882,351.169 C 101.357,350.874 101.357,348.514 103.127,348.809 L 101.947,351.169 C 104.012,354.414 99.882,354.709 101.357,358.249 Z M 27.83,328.086 C 32.918,328.234 38.081,327.127 42.358,324.915 C 54.748,319.015 66.548,308.395 71.267,295.416 L 70.972,293.941 L 69.792,293.941 C 61.533,310.165 45.603,326.685 26.429,325.8 C 22.004,325.21 17.284,323.735 14.039,319.9 C 9.909,315.475 9.909,308.395 12.269,303.085 C 15.809,294.826 23.774,288.926 33.213,288.631 C 35.573,288.631 37.638,290.106 38.818,291.876 C 39.408,294.236 37.638,296.006 35.868,296.891 C 32.328,297.481 28.199,297.186 26.134,301.021 C 24.954,302.79 24.364,305.445 25.249,307.51 C 27.019,310.165 30.264,311.05 33.508,311.345 C 38.818,310.755 44.423,307.51 45.898,302.2 C 46.193,300.431 46.193,298.071 44.423,296.891 C 41.768,298.071 45.013,300.726 43.243,302.79 C 42.063,305.15 39.408,307.805 37.048,308.69 C 34.393,309.28 30.559,309.87 28.199,308.1 C 26.429,307.215 26.134,304.56 27.019,303.085 C 30.854,298.956 39.113,301.611 40.588,294.826 C 41.473,291.876 39.998,288.926 37.048,287.746 C 29.674,284.796 22.594,288.631 16.989,293.056 C 10.204,298.956 6.664,307.51 8.729,316.065 C 9.909,319.015 11.679,321.67 13.744,323.735 C 17.726,326.537 22.741,327.939 27.83,328.086 Z M 66.843,324.03 L 65.958,323.735 L 67.728,322.85 L 66.843,324.03 Z M 69.792,321.965 C 69.497,321.67 69.202,321.375 69.497,321.08 C 70.677,320.785 72.742,320.785 73.037,319.31 C 73.627,319.605 75.102,320.195 74.807,321.08 C 73.332,318.72 71.562,321.965 69.792,321.965 Z M 106.076,301.611 L 106.076,301.021 L 106.371,301.611 L 106.076,301.611 Z M 101.652,296.891 L 101.652,296.006 L 103.127,296.596 L 101.652,296.891 Z M 101.357,295.711 L 101.357,294.826 L 101.652,294.826 L 101.652,295.711 L 101.357,295.711 Z M 99.758,291.345 C 99.716,291.342 99.66,291.324 99.587,291.286 C 99.292,291.286 98.702,290.991 98.997,290.696 L 99.882,290.401 C 99.66,290.622 99.938,291.177 99.84,291.315 C 99.826,291.339 99.799,291.351 99.758,291.345 Z M 98.112,290.106 C 97.817,289.811 97.522,289.516 97.817,289.221 L 98.702,290.106 L 98.112,290.106 Z M 96.932,287.451 C 96.342,286.566 95.457,286.861 94.572,286.861 C 94.867,285.091 93.392,283.616 92.507,282.141 C 94.277,282.141 94.572,283.616 96.047,283.321 C 94.867,284.796 96.932,286.861 96.932,287.451 Z M 77.167,284.796 L 77.167,283.911 L 78.347,284.206 L 78.347,284.796 L 77.167,284.796 Z M 99.66,284.28 C 99.513,284.28 99.439,284.206 99.587,283.911 L 100.472,283.616 C 100.177,283.911 100.472,284.206 100.177,284.206 C 100.029,284.206 99.808,284.28 99.66,284.28 Z M 91.917,281.551 L 89.557,280.371 C 91.327,279.486 92.212,277.716 93.392,276.831 C 95.752,278.306 90.737,279.486 91.917,281.551 Z M 69.497,278.601 L 68.613,277.126 L 69.202,277.126 C 69.792,277.126 70.382,276.831 70.677,276.241 C 70.972,273.586 67.728,273.881 66.253,272.111 C 64.778,270.931 61.238,270.046 62.123,267.686 C 51.503,251.462 41.768,234.647 39.703,215.178 C 43.833,219.603 47.963,225.208 53.568,227.862 L 54.158,227.568 C 54.453,226.978 54.158,226.093 53.863,225.503 C 43.833,218.423 38.818,207.508 37.638,195.708 L 36.458,195.708 C 37.638,193.053 38.523,190.104 41.178,188.334 C 42.948,188.039 44.718,186.859 46.488,187.744 C 46.193,188.334 45.603,188.629 45.603,189.219 C 50.323,216.653 59.173,242.612 73.922,265.916 L 74.807,265.621 C 75.397,268.276 73.332,272.406 75.692,274.471 C 73.627,275.651 70.382,275.651 69.497,278.601 Z M 78.642,275.356 C 76.282,274.766 77.757,273.586 78.347,272.406 L 78.642,275.356 Z M 93.687,274.471 C 93.687,273.586 94.867,272.406 94.277,271.521 C 95.162,272.701 93.687,273.586 93.687,274.471 Z M 112.077,269.241 C 112.658,269.229 113.342,268.683 113.746,268.276 C 115.811,264.737 117.581,260.607 115.811,255.887 C 114.926,252.937 112.271,251.167 109.616,250.282 C 102.537,247.922 98.112,254.412 92.802,257.067 C 91.327,257.362 89.557,257.067 88.672,255.592 C 88.377,253.232 89.852,251.757 91.622,251.167 L 93.466,251.167 C 94.056,251.093 94.572,250.872 94.867,250.282 C 94.867,249.397 94.277,248.807 93.392,248.512 C 91.032,248.807 88.377,249.397 87.492,252.052 C 86.607,254.412 87.197,257.657 89.852,258.837 C 98.407,260.902 101.947,248.217 110.796,253.822 C 115.516,257.952 112.861,264.147 111.386,268.866 C 111.572,269.144 111.814,269.247 112.077,269.241 Z M 75.692,237.007 C 75.102,236.122 75.692,236.417 75.692,235.532 L 76.282,237.007 L 75.692,237.007 Z M 74.217,230.222 C 73.037,229.042 73.332,227.862 74.512,226.683 C 74.217,228.157 75.692,227.862 76.282,228.452 C 78.642,227.862 81.887,224.913 83.657,227.862 C 83.657,229.337 81.887,229.042 81.002,228.452 L 77.279,228.452 C 75.987,228.6 74.807,229.042 74.217,230.222 Z M 91.622,226.978 C 91.327,226.978 91.032,226.978 91.032,226.683 C 91.327,226.683 91.622,226.388 91.917,226.683 L 91.622,226.978 Z M 75.397,224.323 C 75.102,223.733 75.692,223.438 75.987,223.143 L 75.987,224.323 L 75.397,224.323 Z M 12.269,203.378 C 12.269,202.788 12.269,202.493 11.974,202.198 C 12.859,201.313 13.449,200.723 14.629,200.428 L 12.269,203.378 Z M 23.479,196.888 L 23.184,196.593 L 23.184,196.298 L 23.774,196.888 L 23.479,196.888 Z M 21.709,189.809 C 20.529,187.449 24.069,186.859 24.659,185.679 L 24.659,188.629 C 23.774,187.154 22.004,188.924 21.709,189.809 Z M 56.518,183.614 L 56.223,183.319 C 55.928,183.614 54.158,180.664 53.273,182.729 L 52.683,180.369 C 54.158,181.549 56.518,181.254 56.518,183.614 Z M 32.328,174.469 L 31.149,172.699 C 34.688,170.634 36.753,165.914 37.343,162.079 C 36.753,161.784 35.573,161.784 34.983,162.079 L 34.983,160.899 C 34.393,158.539 37.343,161.489 37.933,159.129 C 39.998,159.719 40.293,162.079 42.358,162.374 L 41.178,164.144 L 39.408,163.259 C 36.753,165.029 37.343,167.094 35.868,169.159 C 34.098,170.929 35.278,174.174 32.328,174.469 Z M 44.128,173.289 C 43.538,172.404 44.718,171.224 44.128,170.044 C 46.193,170.044 45.898,172.109 46.488,173.289 L 44.128,173.289 Z M 27.314,173.289 C 27.609,172.109 28.789,172.699 29.084,172.994 L 27.314,173.289 Z M 28.494,163.849 C 28.494,163.259 28.789,162.669 29.084,163.259 L 29.084,163.554 C 29.084,163.849 28.789,163.849 28.494,163.849 Z M 34.688,160.309 L 34.098,159.719 L 34.688,160.014 L 34.688,160.309 Z M 42.541,158.067 C 42.444,158.07 42.346,158.067 42.249,158.061 C 41.473,158.023 40.736,157.802 40.293,157.359 C 40.588,153.819 39.998,149.985 37.933,147.33 C 37.638,139.955 36.753,131.4 37.343,124.32 L 38.523,124.91 C 40.588,126.09 43.243,124.91 45.013,123.73 C 45.308,125.205 44.423,126.68 43.833,128.155 C 42.948,136.71 42.358,145.855 42.948,154.114 C 42.358,155.294 44.128,156.769 45.013,156.769 L 44.423,157.654 C 43.907,157.914 43.223,158.059 42.541,158.067 Z M 22.594,153.819 C 22.889,153.23 22.594,152.64 23.184,152.64 L 24.364,153.819 L 22.594,153.819 Z M 95.457,153.23 C 95.162,152.935 95.457,152.345 95.752,152.05 C 96.047,152.345 96.342,153.23 95.457,153.23 Z M 35.278,144.085 C 30.559,139.66 24.954,140.84 19.054,139.66 C 17.284,139.07 15.514,141.135 14.334,139.66 L 14.924,139.365 C 18.464,127.565 22.299,115.766 27.314,104.851 L 29.084,107.211 C 30.559,112.521 23.479,115.766 24.954,121.37 C 26.429,125.795 32.033,121.96 35.278,122.845 C 35.868,123.435 34.983,123.435 34.983,123.73 C 34.098,130.81 34.688,137.3 35.278,144.085 Z M 86.017,137.005 C 85.427,137.005 85.132,136.415 84.542,136.71 L 84.542,135.53 L 86.312,137.005 L 86.017,137.005 Z M 48.848,136.71 C 48.848,135.235 48.848,133.17 50.028,132.58 C 49.438,133.76 50.028,135.825 48.848,136.71 Z M 49.733,131.99 C 50.028,130.515 50.028,128.745 51.208,127.565 C 50.618,129.04 50.618,131.105 49.733,131.99 Z M 102.242,129.925 C 102.242,129.04 102.832,128.155 103.717,127.86 C 103.717,129.04 103.127,129.63 102.242,129.925 Z M 86.607,129.04 L 86.312,128.745 C 85.722,127.565 84.837,128.745 84.247,128.745 C 83.952,127.86 84.247,126.975 84.542,126.385 C 85.722,126.975 86.607,127.27 87.197,128.45 L 86.607,129.04 Z M 48.553,124.025 C 47.963,123.435 47.668,121.96 46.488,122.255 C 46.783,119.6 48.848,117.24 49.438,114.881 C 50.028,117.24 51.503,119.6 50.913,122.55 L 50.028,122.255 C 49.438,122.845 48.848,123.435 48.553,124.025 Z M 92.66,122.126 C 92.619,122.126 92.578,122.123 92.536,122.114 C 92.064,122.016 91.843,121.297 91.622,121.075 L 93.392,121.37 L 93.097,121.96 C 92.932,122.072 92.787,122.123 92.66,122.126 Z M 81.002,121.075 L 80.117,119.6 L 82.477,119.6 L 81.002,121.075 Z M 71.267,120.19 L 71.267,119.6 C 72.152,119.895 72.152,119.305 72.447,120.19 L 71.267,120.19 Z M 52.683,116.061 L 50.028,112.226 L 54.453,112.521 L 52.683,116.061 Z M 97.817,114.881 L 97.817,114.291 L 98.112,114.881 L 97.817,114.881 Z M 49.143,112.521 C 48.553,112.226 47.668,111.046 47.078,110.161 C 45.898,107.211 45.308,111.931 43.833,109.866 C 45.013,107.211 42.358,105.736 40.588,103.966 C 42.063,103.376 42.948,104.261 43.538,105.736 C 44.423,106.031 45.603,107.801 46.488,106.326 C 47.963,106.916 47.078,107.801 46.783,108.981 C 47.668,110.161 48.848,111.341 49.438,111.931 C 49.143,112.226 49.143,112.521 49.143,112.521 Z M 39.556,112.131 C 39.408,112.134 39.261,112.078 39.113,111.931 L 38.818,111.046 L 40.883,111.341 C 40.441,111.562 39.998,112.116 39.556,112.131 Z M 40.293,103.671 C 39.408,103.081 36.458,103.081 37.343,101.016 L 38.523,101.606 C 37.933,103.376 39.998,102.196 40.293,103.671 Z M 37.048,100.426 L 35.868,98.951 C 36.458,98.656 37.048,99.836 37.048,100.426 Z M 42.948,89.216 C 45.013,85.086 47.078,80.956 47.963,76.237 C 45.603,77.122 45.013,80.661 43.538,83.021 C 43.243,85.086 40.588,87.741 42.948,89.216 Z M 55.633,86.856 C 60.058,83.906 61.238,78.302 64.188,73.877 L 67.433,67.092 C 66.843,65.322 65.073,65.912 63.893,66.502 C 60.648,72.992 56.223,78.597 54.158,85.676 C 54.453,86.266 54.748,86.856 55.633,86.856 Z M 77.633,61.286 C 77.268,61.289 76.902,61.286 76.542,61.266 C 75.102,61.192 73.775,60.897 73.037,60.012 C 79.822,51.457 86.902,44.377 96.047,38.773 L 96.047,39.658 C 98.407,43.197 99.587,47.917 97.817,52.047 C 94.572,58.832 87.492,60.897 80.707,61.192 C 79.822,61.192 78.731,61.278 77.633,61.286 Z M 68.907,60.012 L 63.303,58.832 C 66.253,55.292 70.677,52.932 74.807,50.277 C 73.037,52.932 70.382,55.882 68.613,58.537 L 68.907,60.012 Z M 69.146,43.221 C 69.253,43.224 69.371,43.218 69.497,43.197 L 70.677,43.197 L 70.677,41.428 L 72.447,42.312 C 73.332,41.428 72.152,40.543 72.152,39.953 C 71.267,39.363 70.087,39.363 68.907,39.953 C 68.356,40.784 67.545,43.168 69.146,43.221 Z M 82.182,43.197 C 82.182,41.133 80.117,42.607 79.527,42.312 C 81.592,38.478 85.722,36.708 89.852,36.413 C 87.787,38.773 85.132,41.133 82.182,43.197 Z M 75.692,39.068 C 76.282,39.068 76.282,37.888 75.987,37.298 C 75.397,37.003 74.807,37.298 74.512,37.888 L 75.692,39.068 Z M 72.447,38.773 C 72.447,38.478 72.226,38.109 72.117,37.74 L 72.079,37.245 L 72.158,37.032 L 72.256,36.888 L 72.447,36.708 C 72.412,36.708 72.365,36.74 72.315,36.799 L 72.256,36.888 L 72.194,36.944 C 72.135,37.026 72.096,37.109 72.076,37.197 L 72.079,37.245 L 71.896,37.74 C 71.784,38.256 71.857,38.773 72.447,38.773 Z M 74.217,36.118 C 74.512,36.118 74.807,35.823 74.807,35.528 L 73.627,35.823 C 73.922,36.118 73.922,36.118 74.217,36.118 Z M 70.382,27.268 C 69.792,26.973 69.792,27.268 69.497,27.268 L 68.907,26.088 C 69.497,26.088 70.677,26.383 70.382,27.268 Z" fill="url(#RadialGradient)" stroke-linejoin="miter" stroke-width="2.949" stroke="none" marker-start="none" marker-end="none" stroke-miterlimit="79.8403193612775"/>
   </g>
  </g>
 </g>
</svg>
