<?xml version="1.0" standalone="no"?>
<!-- Generator: Xara Xtreme (www.xara.com), SVG filter version: 0.4 -->
<!DOCTYPE svg PUBLIC "-//W3C//DTD SVG 1.1//EN" "http://www.w3.org/Graphics/SVG/1.1/DTD/svg11.dtd">
<svg stroke-width="0.501" stroke-linejoin="bevel" fill-rule="evenodd" xmlns:xlink="http://www.w3.org/1999/xlink" xmlns="http://www.w3.org/2000/svg" version="1.1" width="123.75pt" height="450pt" viewBox="0 0 123.75 450">
 <defs>
  <marker id="DefaultArrow2" markerUnits="strokeWidth" viewBox="0 0 1 1" markerWidth="1" markerHeight="1" overflow="visible" orient="auto">
   <!-- REF_ARROW_STRAIGHT (-2) -->
   <g transform="scale(0.0092592592)">
    <!-- 1/108 -->
    <path d="M -9 54 L -9 -54 L 117 0 z"/>
   </g>
  </marker>
  <marker id="DefaultArrow3" markerUnits="strokeWidth" viewBox="0 0 1 1" markerWidth="1" markerHeight="1" overflow="visible" orient="auto">
   <!-- REF_ARROW_ANGLED -->
   <g transform="scale(0.0092592592)">
    <path d="M -27 54 L -9 0 L -27 -54 L 135 0 z"/>
   </g>
  </marker>
  <marker id="DefaultArrow4" markerUnits="strokeWidth" viewBox="0 0 1 1" markerWidth="1" markerHeight="1" overflow="visible" orient="auto">
   <!-- REF_ARROW_ROUNDED -->
   <g transform="scale(0.0092592592)">
    <path d="M -9,0 L -9,-45 C -9,-51.708 2.808,-56.580 9,-54 L 117,-9 C 120.916,-7.369 126.000,-4.242 126,0 C 126,4.242 120.916,7.369 117,9 L 9,54 C 2.808,56.580 -9,51.708 -9,45 z"/>
   </g>
  </marker>
  <marker id="DefaultArrow5" markerUnits="strokeWidth" viewBox="0 0 1 1" markerWidth="1" markerHeight="1" overflow="visible" orient="auto">
   <!-- REF_ARROW_SPOT -->
   <g transform="scale(0.0092592592)">
    <path d="M -54, 0 C -54,29.807 -29.807,54 0,54 C 29.807,54 54,29.807 54,0 C 54,-29.807 29.807,-54 0,-54 C -29.807,-54 -54,-29.807 -54,0 z"/>
   </g>
  </marker>
  <marker id="DefaultArrow6" markerUnits="strokeWidth" viewBox="0 0 1 1" markerWidth="1" markerHeight="1" overflow="visible" orient="auto">
   <!-- REF_ARROW_DIAMOND -->
   <g transform="scale(0.0092592592)">
    <path d="M -63,0 L 0,63 L 63,0 L 0,-63 z"/>
   </g>
  </marker>
  <marker id="DefaultArrow7" markerUnits="strokeWidth" viewBox="0 0 1 1" markerWidth="1" markerHeight="1" overflow="visible" orient="auto">
   <!-- REF_ARROW_FEATHER -->
   <g transform="scale(0.0092592592)">
    <path d="M 18,-54 L 108,-54 L 63,0 L 108,54 L 18, 54 L -36,0 z"/>
   </g>
  </marker>
  <marker id="DefaultArrow8" markerUnits="strokeWidth" viewBox="0 0 1 1" markerWidth="1" markerHeight="1" overflow="visible" orient="auto">
   <!-- REF_ARROW_FEATHER2 -->
   <g transform="scale(0.0092592592)">
    <path d="M -36,0 L 18,-54 L 54,-54 L 18,-18 L 27,-18 L 63,-54 L 99,-54 L 63,-18 L 72,-18 L 108,-54 L 144,-54 L 90,0 L 144,54 L 108,54 L 72,18 L 63,18 L 99,54 L 63,54 L 27,18 L 18,18 L 54,54 L 18,54 z"/>
   </g>
  </marker>
  <marker id="DefaultArrow9" markerUnits="strokeWidth" viewBox="0 0 1 1" markerWidth="1" markerHeight="1" overflow="visible" orient="auto">
   <!-- REF_ARROW_HOLLOWDIAMOND -->
   <g transform="scale(0.0092592592)">
    <path d="M 0,45 L -45,0 L 0, -45 L 45, 0 z M 0, 63 L-63, 0 L 0, -63 L 63, 0 z"/>
   </g>
  </marker>
  <radialGradient id="RadialGradient" gradientUnits="userSpaceOnUse" cx="72.99" cy="262.52" r="204.527" spreadMethod="pad">
   <stop offset="0" stop-color="#006710"/>
   <stop offset="1" stop-color="#09c80b"/>
  </radialGradient>
 </defs>
 <g id="Document" fill="none" stroke="black" font-family="Times New Roman" font-size="16" transform="scale(1 -1)">
  <g id="Spread" transform="translate(0 -450)">
   <g id="Layer 1">
    <path d="M 40.039,9.125 C 39.744,10.01 40.629,10.895 40.924,11.78 L 40.039,9.125 Z M 45.054,13.55 L 44.169,13.845 L 45.054,13.845 L 45.054,13.55 Z M 50.93,17.78 C 50.726,17.774 50.526,17.777 50.322,17.783 C 47.47,17.869 44.52,18.907 42.104,20.04 C 32.074,25.645 26.764,36.559 23.224,46.884 C 19.979,56.029 18.209,66.059 17.62,76.088 C 16.44,76.678 14.375,75.203 13.195,74.023 C 12.31,73.434 11.425,71.369 10.54,73.139 C 8.475,78.153 12.015,82.873 14.965,86.413 C 14.67,89.363 12.31,91.723 11.425,94.378 C 11.425,97.033 8.475,99.393 10.245,102.048 C 12.9,102.933 13.49,107.948 17.03,105.883 L 17.62,106.178 C 19.094,113.847 20.569,122.107 22.929,128.892 C 21.454,129.482 21.159,127.417 20.274,126.532 C 16.44,121.517 15.85,113.552 17.325,107.948 C 15.555,108.243 15.26,110.603 14.67,112.077 C 12.605,124.467 22.339,133.317 29.124,141.872 L 27.649,141.872 C 26.764,143.347 29.419,146.002 27.059,146.297 C 21.454,143.347 17.03,137.742 13.785,132.432 C 13.195,131.547 12.015,131.547 11.13,131.842 C 9.655,134.497 12.015,137.152 11.13,140.397 C 10.54,146.592 12.015,152.196 12.605,158.391 C 13.49,160.751 15.85,162.816 17.325,164.881 C 18.504,171.076 12.9,172.551 10.245,176.976 C 9.655,181.106 14.67,178.451 16.735,180.221 C 22.044,179.926 26.469,189.955 31.779,182.876 C 34.729,180.516 35.909,176.681 35.024,172.846 C 35.024,172.256 35.319,171.666 36.204,171.666 L 37.384,171.961 L 37.974,169.306 L 44.169,179.336 L 45.349,179.041 C 45.054,186.12 43.874,194.675 46.234,202.05 L 48.594,201.755 C 46.529,203.82 43.579,203.23 40.924,204.115 C 39.154,208.835 33.844,210.015 29.419,211.195 C 26.965,214.033 23.611,214.275 20.215,214.292 L 18.761,214.292 C 14.891,214.292 11.13,214.44 8.77,218.275 C 8.77,220.045 10.835,219.75 11.425,220.34 C 18.504,220.93 19.094,231.254 26.764,231.254 C 30.304,232.139 34.434,230.664 36.204,234.794 C 37.679,239.219 43.284,238.924 45.349,243.349 C 48.594,243.939 49.774,239.514 53.019,238.334 C 57.148,234.794 57.148,229.189 55.968,224.469 L 53.314,222.404 C 55.378,220.635 59.213,220.93 62.163,221.52 C 63.048,221.225 63.048,220.045 62.458,219.75 C 60.098,218.57 57.738,219.16 55.083,219.16 C 59.508,214.44 56.263,207.36 53.904,202.345 C 53.904,201.165 53.609,199.985 52.134,199.69 C 50.954,199.69 49.184,201.755 48.594,199.985 L 48.299,189.66 L 48.889,189.07 C 62.163,211.49 71.013,236.269 74.848,261.933 C 71.013,261.343 67.473,258.984 64.228,257.214 C 65.113,257.509 65.703,256.624 65.703,255.739 L 56.853,235.974 C 55.968,236.269 54.789,236.859 54.789,238.039 C 57.148,244.234 59.213,250.724 62.753,256.329 C 61.278,257.509 57.738,256.034 57.148,258.689 C 58.328,263.703 57.443,269.308 59.213,274.028 C 58.918,278.158 56.853,282.878 59.508,286.418 C 62.753,291.433 67.768,295.858 73.963,294.678 L 76.913,293.498 C 77.208,296.448 76.913,299.987 76.618,303.232 L 75.143,303.232 C 70.718,312.082 68.948,323.587 70.718,333.322 C 70.128,333.027 69.833,331.257 68.948,332.142 C 62.163,344.531 49.479,355.151 34.729,353.086 C 28.239,352.791 21.749,348.366 18.799,342.466 C 17.325,340.106 16.735,337.156 16.735,333.911 C 19.684,332.732 19.389,336.566 19.389,338.336 C 19.684,339.516 18.504,341.581 19.684,342.171 C 23.519,339.811 26.469,344.531 30.304,341.876 C 32.959,339.221 35.024,335.976 36.794,332.732 C 40.039,334.501 38.269,330.077 39.744,328.897 C 40.924,330.077 39.449,331.847 40.629,333.322 C 42.399,338.041 47.414,340.106 51.839,340.401 C 55.378,340.106 55.968,336.271 58.623,334.796 C 61.278,333.322 65.113,334.501 66.293,331.257 C 66.588,326.537 59.213,325.652 60.983,321.227 C 64.523,317.982 63.638,312.672 63.638,308.247 C 60.688,307.362 58.623,309.427 55.968,309.132 L 50.069,308.837 C 46.824,303.822 41.514,299.987 36.204,297.922 C 32.959,289.663 24.109,288.778 18.209,282.583 C 16.735,283.173 16.735,285.238 16.735,286.418 C 17.914,291.728 21.749,296.448 19.979,302.052 C 21.454,307.067 16.735,311.787 19.684,315.917 L 17.325,322.112 C 14.67,322.407 10.54,322.702 8.77,325.652 C 8.77,327.717 11.13,327.127 11.72,328.897 L 14.965,332.732 C 12.9,339.811 17.914,346.891 22.929,351.316 C 31.189,358.396 44.759,356.921 53.314,352.496 L 63.343,345.416 C 60.983,350.431 66.588,354.856 64.818,359.871 C 65.113,361.051 65.408,362.231 66.588,362.231 L 73.373,361.641 C 75.143,360.166 76.323,356.331 79.273,358.396 C 81.633,360.166 83.698,361.936 86.353,363.411 C 79.568,372.555 73.373,380.815 64.818,387.895 C 63.933,388.19 64.228,387.305 63.638,387.01 C 58.033,384.06 50.954,384.06 44.759,383.765 C 36.794,384.06 28.239,386.715 24.109,394.385 C 21.159,399.99 21.159,407.955 25.289,412.969 C 24.994,413.264 24.994,413.559 24.699,413.559 C 24.404,412.969 24.404,412.084 23.519,412.084 C 18.799,413.854 13.785,416.509 10.835,420.639 L 11.425,421.819 C 8.18,423.884 2.575,424.179 3.46,429.489 C 5.23,430.669 7,428.899 8.77,428.604 C 16.735,424.474 24.699,419.754 32.074,414.444 C 31.484,415.034 32.074,416.804 33.549,416.509 C 39.154,416.804 44.464,413.559 46.824,408.544 C 47.414,407.365 45.939,407.365 45.939,406.775 C 48.594,404.415 51.839,402.645 55.083,400.875 L 55.378,401.17 C 55.083,401.76 54.199,402.35 54.494,403.235 L 55.673,404.12 C 55.083,405.005 53.019,403.825 53.609,405.595 C 54.199,406.185 55.968,406.185 56.558,405.3 C 58.328,404.12 56.558,402.94 56.558,401.17 C 55.968,401.17 55.378,400.285 55.968,399.99 C 56.263,399.695 56.853,399.4 56.853,399.695 C 57.148,402.35 61.278,401.17 61.278,404.415 C 60.393,410.314 55.083,414.444 52.134,419.164 C 48.004,425.949 34.434,421.524 36.794,432.439 C 40.039,435.094 44.464,432.439 48.004,432.439 C 49.184,435.684 51.839,438.339 55.378,438.929 C 57.148,441.289 60.098,441.289 62.753,440.109 C 65.998,438.339 68.948,433.324 73.668,435.094 C 76.323,435.979 79.568,436.864 82.518,435.389 C 86.353,431.849 90.778,429.784 93.727,425.064 C 92.252,422.409 89.303,424.769 87.238,424.474 C 79.273,428.014 70.128,432.144 61.573,428.014 C 59.213,426.244 55.968,423.294 56.853,419.754 C 58.328,413.264 68.358,406.775 61.868,399.99 L 58.918,398.515 C 62.163,394.68 66.293,392.025 69.833,388.78 C 70.718,391.435 73.963,389.37 76.028,389.37 C 81.043,387.6 86.058,384.65 88.713,379.635 C 90.483,376.39 91.958,372.26 90.778,368.426 C 89.303,369.901 89.598,373.145 88.418,375.505 C 85.468,381.405 78.683,386.715 72.488,386.42 C 78.093,379.34 85.468,372.555 89.303,364.591 C 91.073,364.296 91.958,366.656 93.727,366.656 C 98.742,366.361 102.577,369.606 107.002,369.311 C 107.887,364.591 101.692,363.706 101.692,358.986 C 101.397,354.561 99.922,350.431 97.562,346.596 L 99.037,346.301 C 104.937,335.091 109.362,322.997 111.132,310.312 C 113.492,310.312 115.262,313.852 117.622,311.197 C 118.507,308.247 115.262,306.477 115.262,303.232 C 116.147,299.102 113.492,295.858 110.837,292.613 C 112.017,289.073 116.442,288.188 117.917,284.648 C 118.802,282.288 120.867,280.223 120.277,277.568 L 114.377,274.618 C 113.492,274.618 112.017,274.028 111.427,273.438 C 113.197,272.553 113.197,269.898 112.607,267.833 C 112.902,266.948 111.722,266.063 111.132,266.063 C 111.427,259.573 115.852,254.559 118.507,248.954 C 121.162,241.874 120.867,233.319 116.737,227.124 C 116.147,226.534 114.967,226.534 114.672,227.124 C 112.607,232.139 112.312,238.334 106.707,241.284 C 102.577,242.169 99.922,246.299 96.382,248.364 C 93.137,249.839 89.893,251.019 87.533,253.674 C 89.008,247.479 87.533,239.809 86.648,233.319 C 83.403,215.915 75.733,199.985 66.588,185.235 C 81.338,195.265 90.483,210.605 97.562,225.649 L 103.462,240.399 C 103.757,240.989 104.937,240.989 105.232,240.399 L 105.527,239.219 C 98.742,213.26 80.158,187.595 55.968,173.436 C 57.148,173.436 56.853,171.666 56.558,171.076 C 55.968,170.486 55.083,169.896 54.494,170.486 C 51.839,165.176 60.098,162.521 57.443,157.211 C 55.083,156.031 52.724,157.211 50.659,156.916 C 47.414,155.736 44.169,155.441 41.219,156.326 C 39.154,156.326 37.089,152.491 35.319,155.146 C 32.959,151.901 31.484,147.477 31.484,143.937 C 34.434,146.592 37.384,149.836 40.334,151.901 L 41.514,151.311 C 42.694,152.196 41.514,156.031 44.169,154.556 C 45.054,151.901 42.989,149.246 43.579,146.297 C 43.579,141.282 44.169,136.857 47.709,133.612 C 49.184,134.792 48.004,136.857 48.889,138.332 C 50.954,140.102 53.609,140.692 55.378,142.757 C 60.688,141.282 59.508,135.087 60.393,130.662 C 63.343,128.597 66.883,127.122 67.768,123.287 C 68.063,121.222 68.653,118.862 67.473,117.092 C 65.113,117.092 63.638,119.452 61.278,119.747 L 47.709,121.517 C 44.169,122.992 40.924,126.827 37.089,127.122 C 36.499,127.712 35.909,128.007 36.204,128.892 C 39.449,128.892 40.924,133.022 44.169,133.022 C 45.054,135.087 42.694,136.857 42.399,138.922 C 40.629,142.462 42.399,147.182 40.924,150.131 L 38.859,146.887 C 34.434,142.167 27.944,138.037 24.699,132.137 L 25.879,132.137 C 24.109,123.287 21.749,113.847 20.274,104.998 C 22.634,104.113 25.879,106.768 28.239,104.703 C 30.599,102.933 31.189,98.803 34.729,98.803 C 36.204,98.803 38.564,99.393 38.269,97.033 C 38.269,93.788 34.729,92.018 32.959,89.068 L 28.534,87.593 C 26.469,83.168 23.224,78.448 18.209,76.678 L 19.684,76.088 C 23.224,57.209 25.289,36.265 42.104,23.285 C 45.349,21.515 49.479,19.745 53.019,21.515 C 54.789,22.105 55.378,23.875 56.263,25.35 C 56.558,28.005 55.083,30.365 52.724,31.545 C 48.004,35.085 43.874,27.71 39.449,31.545 C 37.089,33.61 36.794,37.149 39.154,39.214 C 40.039,40.394 41.809,40.984 43.284,40.099 C 43.874,39.214 45.054,38.624 44.464,37.444 C 42.989,36.559 41.514,38.329 40.039,36.854 C 39.154,36.265 39.744,34.79 39.744,34.2 C 43.284,30.365 47.119,35.38 50.659,34.79 C 54.494,34.495 57.738,31.545 59.213,28.3 C 59.508,25.055 59.213,22.4 56.853,20.04 C 55.305,18.6 53.464,17.951 51.538,17.81 C 51.334,17.795 51.134,17.783 50.93,17.78 Z M 22.339,91.723 L 23.814,92.903 C 23.224,94.378 22.634,97.328 23.814,98.803 C 22.339,99.098 22.339,101.458 20.569,101.163 L 21.749,98.803 C 19.684,95.558 23.814,95.263 22.339,91.723 Z M 95.866,121.886 C 90.778,121.738 85.615,122.845 81.338,125.057 C 68.948,130.957 57.148,141.577 52.429,154.556 L 52.724,156.031 L 53.904,156.031 C 62.163,139.807 78.093,123.287 97.267,124.172 C 101.692,124.762 106.412,126.237 109.657,130.072 C 113.787,134.497 113.787,141.577 111.427,146.887 C 107.887,155.146 99.922,161.046 90.483,161.341 C 88.123,161.341 86.058,159.866 84.878,158.096 C 84.288,155.736 86.058,153.966 87.828,153.081 C 91.368,152.491 95.497,152.786 97.562,148.951 C 98.742,147.182 99.332,144.527 98.447,142.462 C 96.677,139.807 93.432,138.922 90.188,138.627 C 84.878,139.217 79.273,142.462 77.798,147.772 C 77.503,149.541 77.503,151.901 79.273,153.081 C 81.928,151.901 78.683,149.246 80.453,147.182 C 81.633,144.822 84.288,142.167 86.648,141.282 C 89.303,140.692 93.137,140.102 95.497,141.872 C 97.267,142.757 97.562,145.412 96.677,146.887 C 92.842,151.016 84.583,148.361 83.108,155.146 C 82.223,158.096 83.698,161.046 86.648,162.226 C 94.022,165.176 101.102,161.341 106.707,156.916 C 113.492,151.016 117.032,142.462 114.967,133.907 C 113.787,130.957 112.017,128.302 109.952,126.237 C 105.97,123.435 100.955,122.033 95.866,121.886 Z M 56.853,125.942 L 57.738,126.237 L 55.968,127.122 L 56.853,125.942 Z M 53.904,128.007 C 54.199,128.302 54.494,128.597 54.199,128.892 C 53.019,129.187 50.954,129.187 50.659,130.662 C 50.069,130.367 48.594,129.777 48.889,128.892 C 50.364,131.252 52.134,128.007 53.904,128.007 Z M 17.62,148.361 L 17.62,148.951 L 17.325,148.361 L 17.62,148.361 Z M 22.044,153.081 L 22.044,153.966 L 20.569,153.376 L 22.044,153.081 Z M 22.339,154.261 L 22.339,155.146 L 22.044,155.146 L 22.044,154.261 L 22.339,154.261 Z M 23.938,158.627 C 23.98,158.63 24.036,158.648 24.109,158.686 C 24.404,158.686 24.994,158.981 24.699,159.276 L 23.814,159.571 C 24.036,159.35 23.758,158.795 23.856,158.657 C 23.87,158.633 23.897,158.621 23.938,158.627 Z M 25.584,159.866 C 25.879,160.161 26.174,160.456 25.879,160.751 L 24.994,159.866 L 25.584,159.866 Z M 26.764,162.521 C 27.354,163.406 28.239,163.111 29.124,163.111 C 28.829,164.881 30.304,166.356 31.189,167.831 C 29.419,167.831 29.124,166.356 27.649,166.651 C 28.829,165.176 26.764,163.111 26.764,162.521 Z M 46.529,165.176 L 46.529,166.061 L 45.349,165.766 L 45.349,165.176 L 46.529,165.176 Z M 24.036,165.692 C 24.183,165.692 24.257,165.766 24.109,166.061 L 23.224,166.356 C 23.519,166.061 23.224,165.766 23.519,165.766 C 23.667,165.766 23.888,165.692 24.036,165.692 Z M 31.779,168.421 L 34.139,169.601 C 32.369,170.486 31.484,172.256 30.304,173.141 C 27.944,171.666 32.959,170.486 31.779,168.421 Z M 54.199,171.371 L 55.083,172.846 L 54.494,172.846 C 53.904,172.846 53.314,173.141 53.019,173.731 C 52.724,176.386 55.968,176.091 57.443,177.861 C 58.918,179.041 62.458,179.926 61.573,182.286 C 72.193,198.51 81.928,215.325 83.993,234.794 C 79.863,230.369 75.733,224.764 70.128,222.11 L 69.538,222.404 C 69.243,222.994 69.538,223.879 69.833,224.469 C 79.863,231.549 84.878,242.464 86.058,254.264 L 87.238,254.264 C 86.058,256.919 85.173,259.868 82.518,261.638 C 80.748,261.933 78.978,263.113 77.208,262.228 C 77.503,261.638 78.093,261.343 78.093,260.753 C 73.373,233.319 64.523,207.36 49.774,184.056 L 48.889,184.351 C 48.299,181.696 50.364,177.566 48.004,175.501 C 50.069,174.321 53.314,174.321 54.199,171.371 Z M 45.054,174.616 C 47.414,175.206 45.939,176.386 45.349,177.566 L 45.054,174.616 Z M 30.009,175.501 C 30.009,176.386 28.829,177.566 29.419,178.451 C 28.534,177.271 30.009,176.386 30.009,175.501 Z M 11.619,180.731 C 11.038,180.743 10.354,181.289 9.95,181.696 C 7.885,185.235 6.115,189.365 7.885,194.085 C 8.77,197.035 11.425,198.805 14.08,199.69 C 21.159,202.05 25.584,195.56 30.894,192.905 C 32.369,192.61 34.139,192.905 35.024,194.38 C 35.319,196.74 33.844,198.215 32.074,198.805 L 30.23,198.805 C 29.64,198.879 29.124,199.1 28.829,199.69 C 28.829,200.575 29.419,201.165 30.304,201.46 C 32.664,201.165 35.319,200.575 36.204,197.92 C 37.089,195.56 36.499,192.315 33.844,191.135 C 25.289,189.07 21.749,201.755 12.9,196.15 C 8.18,192.02 10.835,185.825 12.31,181.106 C 12.124,180.828 11.882,180.725 11.619,180.731 Z M 48.004,212.965 C 48.594,213.85 48.004,213.555 48.004,214.44 L 47.414,212.965 L 48.004,212.965 Z M 49.479,219.75 C 50.659,220.93 50.364,222.11 49.184,223.289 C 49.479,221.815 48.004,222.11 47.414,221.52 C 45.054,222.11 41.809,225.059 40.039,222.11 C 40.039,220.635 41.809,220.93 42.694,221.52 L 46.417,221.52 C 47.709,221.372 48.889,220.93 49.479,219.75 Z M 32.074,222.994 C 32.369,222.994 32.664,222.994 32.664,223.289 C 32.369,223.289 32.074,223.584 31.779,223.289 L 32.074,222.994 Z M 48.299,225.649 C 48.594,226.239 48.004,226.534 47.709,226.829 L 47.709,225.649 L 48.299,225.649 Z M 111.427,246.594 C 111.427,247.184 111.427,247.479 111.722,247.774 C 110.837,248.659 110.247,249.249 109.067,249.544 L 111.427,246.594 Z M 100.217,253.084 L 100.512,253.379 L 100.512,253.674 L 99.922,253.084 L 100.217,253.084 Z M 101.987,260.163 C 103.167,262.523 99.627,263.113 99.037,264.293 L 99.037,261.343 C 99.922,262.818 101.692,261.048 101.987,260.163 Z M 67.178,266.358 L 67.473,266.653 C 67.768,266.358 69.538,269.308 70.423,267.243 L 71.013,269.603 C 69.538,268.423 67.178,268.718 67.178,266.358 Z M 91.368,275.503 L 92.547,277.273 C 89.008,279.338 86.943,284.058 86.353,287.893 C 86.943,288.188 88.123,288.188 88.713,287.893 L 88.713,289.073 C 89.303,291.433 86.353,288.483 85.763,290.843 C 83.698,290.253 83.403,287.893 81.338,287.598 L 82.518,285.828 L 84.288,286.713 C 86.943,284.943 86.353,282.878 87.828,280.813 C 89.598,279.043 88.418,275.798 91.368,275.503 Z M 79.568,276.683 C 80.158,277.568 78.978,278.748 79.568,279.928 C 77.503,279.928 77.798,277.863 77.208,276.683 L 79.568,276.683 Z M 96.382,276.683 C 96.087,277.863 94.907,277.273 94.612,276.978 L 96.382,276.683 Z M 95.202,286.123 C 95.202,286.713 94.907,287.303 94.612,286.713 L 94.612,286.418 C 94.612,286.123 94.907,286.123 95.202,286.123 Z M 89.008,289.663 L 89.598,290.253 L 89.008,289.958 L 89.008,289.663 Z M 81.155,291.905 C 81.252,291.902 81.35,291.905 81.447,291.911 C 82.223,291.949 82.96,292.17 83.403,292.613 C 83.108,296.153 83.698,299.987 85.763,302.642 C 86.058,310.017 86.943,318.572 86.353,325.652 L 85.173,325.062 C 83.108,323.882 80.453,325.062 78.683,326.242 C 78.388,324.767 79.273,323.292 79.863,321.817 C 80.748,313.262 81.338,304.117 80.748,295.858 C 81.338,294.678 79.568,293.203 78.683,293.203 L 79.273,292.318 C 79.789,292.058 80.473,291.913 81.155,291.905 Z M 101.102,296.153 C 100.807,296.742 101.102,297.332 100.512,297.332 L 99.332,296.153 L 101.102,296.153 Z M 28.239,296.742 C 28.534,297.037 28.239,297.627 27.944,297.922 C 27.649,297.627 27.354,296.742 28.239,296.742 Z M 88.418,305.887 C 93.137,310.312 98.742,309.132 104.642,310.312 C 106.412,310.902 108.182,308.837 109.362,310.312 L 108.772,310.607 C 105.232,322.407 101.397,334.206 96.382,345.121 L 94.612,342.761 C 93.137,337.451 100.217,334.206 98.742,328.602 C 97.267,324.177 91.663,328.012 88.418,327.127 C 87.828,326.537 88.713,326.537 88.713,326.242 C 89.598,319.162 89.008,312.672 88.418,305.887 Z M 37.679,312.967 C 38.269,312.967 38.564,313.557 39.154,313.262 L 39.154,314.442 L 37.384,312.967 L 37.679,312.967 Z M 74.848,313.262 C 74.848,314.737 74.848,316.802 73.668,317.392 C 74.258,316.212 73.668,314.147 74.848,313.262 Z M 73.963,317.982 C 73.668,319.457 73.668,321.227 72.488,322.407 C 73.078,320.932 73.078,318.867 73.963,317.982 Z M 21.454,320.047 C 21.454,320.932 20.864,321.817 19.979,322.112 C 19.979,320.932 20.569,320.342 21.454,320.047 Z M 37.089,320.932 L 37.384,321.227 C 37.974,322.407 38.859,321.227 39.449,321.227 C 39.744,322.112 39.449,322.997 39.154,323.587 C 37.974,322.997 37.089,322.702 36.499,321.522 L 37.089,320.932 Z M 75.143,325.947 C 75.733,326.537 76.028,328.012 77.208,327.717 C 76.913,330.372 74.848,332.732 74.258,335.091 C 73.668,332.732 72.193,330.372 72.783,327.422 L 73.668,327.717 C 74.258,327.127 74.848,326.537 75.143,325.947 Z M 31.036,327.846 C 31.077,327.846 31.118,327.849 31.16,327.858 C 31.632,327.956 31.853,328.675 32.074,328.897 L 30.304,328.602 L 30.599,328.012 C 30.764,327.9 30.909,327.849 31.036,327.846 Z M 42.694,328.897 L 43.579,330.372 L 41.219,330.372 L 42.694,328.897 Z M 52.429,329.782 L 52.429,330.372 C 51.544,330.077 51.544,330.667 51.249,329.782 L 52.429,329.782 Z M 71.013,333.911 L 73.668,337.746 L 69.243,337.451 L 71.013,333.911 Z M 25.879,335.091 L 25.879,335.681 L 25.584,335.091 L 25.879,335.091 Z M 74.553,337.451 C 75.143,337.746 76.028,338.926 76.618,339.811 C 77.798,342.761 78.388,338.041 79.863,340.106 C 78.683,342.761 81.338,344.236 83.108,346.006 C 81.633,346.596 80.748,345.711 80.158,344.236 C 79.273,343.941 78.093,342.171 77.208,343.646 C 75.733,343.056 76.618,342.171 76.913,340.991 C 76.028,339.811 74.848,338.631 74.258,338.041 C 74.553,337.746 74.553,337.451 74.553,337.451 Z M 84.14,337.841 C 84.288,337.838 84.435,337.894 84.583,338.041 L 84.878,338.926 L 82.813,338.631 C 83.255,338.41 83.698,337.856 84.14,337.841 Z M 83.403,346.301 C 84.288,346.891 87.238,346.891 86.353,348.956 L 85.173,348.366 C 85.763,346.596 83.698,347.776 83.403,346.301 Z M 86.648,349.546 L 87.828,351.021 C 87.238,351.316 86.648,350.136 86.648,349.546 Z M 80.748,360.756 C 78.683,364.886 76.618,369.016 75.733,373.735 C 78.093,372.85 78.683,369.311 80.158,366.951 C 80.453,364.886 83.108,362.231 80.748,360.756 Z M 68.063,363.116 C 63.638,366.066 62.458,371.67 59.508,376.095 L 56.263,382.88 C 56.853,384.65 58.623,384.06 59.803,383.47 C 63.048,376.98 67.473,371.375 69.538,364.296 C 69.243,363.706 68.948,363.116 68.063,363.116 Z M 46.063,388.686 C 46.428,388.683 46.794,388.686 47.154,388.706 C 48.594,388.78 49.921,389.075 50.659,389.96 C 43.874,398.515 36.794,405.595 27.649,411.199 L 27.649,410.314 C 25.289,406.775 24.109,402.055 25.879,397.925 C 29.124,391.14 36.204,389.075 42.989,388.78 C 43.874,388.78 44.965,388.694 46.063,388.686 Z M 54.789,389.96 L 60.393,391.14 C 57.443,394.68 53.019,397.04 48.889,399.695 C 50.659,397.04 53.314,394.09 55.083,391.435 L 54.789,389.96 Z M 54.55,406.751 C 54.443,406.748 54.325,406.754 54.199,406.775 L 53.019,406.775 L 53.019,408.544 L 51.249,407.66 C 50.364,408.544 51.544,409.429 51.544,410.019 C 52.429,410.609 53.609,410.609 54.789,410.019 C 55.34,409.188 56.151,406.804 54.55,406.751 Z M 41.514,406.775 C 41.514,408.839 43.579,407.365 44.169,407.66 C 42.104,411.494 37.974,413.264 33.844,413.559 C 35.909,411.199 38.564,408.839 41.514,406.775 Z M 48.004,410.904 C 47.414,410.904 47.414,412.084 47.709,412.674 C 48.299,412.969 48.889,412.674 49.184,412.084 L 48.004,410.904 Z M 51.249,411.199 C 51.249,411.494 51.47,411.863 51.579,412.232 L 51.617,412.727 L 51.538,412.94 L 51.44,413.084 L 51.249,413.264 C 51.284,413.264 51.331,413.232 51.381,413.173 L 51.44,413.084 L 51.502,413.028 C 51.561,412.946 51.6,412.863 51.62,412.775 L 51.617,412.727 L 51.8,412.232 C 51.912,411.716 51.839,411.199 51.249,411.199 Z M 49.479,413.854 C 49.184,413.854 48.889,414.149 48.889,414.444 L 50.069,414.149 C 49.774,413.854 49.774,413.854 49.479,413.854 Z M 53.314,422.704 C 53.904,422.999 53.904,422.704 54.199,422.704 L 54.789,423.884 C 54.199,423.884 53.019,423.589 53.314,422.704 Z" fill="url(#RadialGradient)" stroke-linejoin="miter" stroke-width="2.949" stroke="none" marker-start="none" marker-end="none" stroke-miterlimit="79.8403193612775"/>
   </g>
  </g>
 </g>
</svg>
