<?xml version="1.0" standalone="no"?>
<!-- Generator: Xara Xtreme (www.xara.com), SVG filter version: 0.4 -->
<!DOCTYPE svg PUBLIC "-//W3C//DTD SVG 1.1//EN" "http://www.w3.org/Graphics/SVG/1.1/DTD/svg11.dtd">
<svg stroke-width="0.501" stroke-linejoin="bevel" fill-rule="evenodd" xmlns:xlink="http://www.w3.org/1999/xlink" xmlns="http://www.w3.org/2000/svg" version="1.1" width="450pt" height="123.75pt" viewBox="0 0 450 123.75">
 <defs>
  <marker id="DefaultArrow2" markerUnits="strokeWidth" viewBox="0 0 1 1" markerWidth="1" markerHeight="1" overflow="visible" orient="auto">
   <!-- REF_ARROW_STRAIGHT (-2) -->
   <g transform="scale(0.0092592592)">
    <!-- 1/108 -->
    <path d="M -9 54 L -9 -54 L 117 0 z"/>
   </g>
  </marker>
  <marker id="DefaultArrow3" markerUnits="strokeWidth" viewBox="0 0 1 1" markerWidth="1" markerHeight="1" overflow="visible" orient="auto">
   <!-- REF_ARROW_ANGLED -->
   <g transform="scale(0.0092592592)">
    <path d="M -27 54 L -9 0 L -27 -54 L 135 0 z"/>
   </g>
  </marker>
  <marker id="DefaultArrow4" markerUnits="strokeWidth" viewBox="0 0 1 1" markerWidth="1" markerHeight="1" overflow="visible" orient="auto">
   <!-- REF_ARROW_ROUNDED -->
   <g transform="scale(0.0092592592)">
    <path d="M -9,0 L -9,-45 C -9,-51.708 2.808,-56.580 9,-54 L 117,-9 C 120.916,-7.369 126.000,-4.242 126,0 C 126,4.242 120.916,7.369 117,9 L 9,54 C 2.808,56.580 -9,51.708 -9,45 z"/>
   </g>
  </marker>
  <marker id="DefaultArrow5" markerUnits="strokeWidth" viewBox="0 0 1 1" markerWidth="1" markerHeight="1" overflow="visible" orient="auto">
   <!-- REF_ARROW_SPOT -->
   <g transform="scale(0.0092592592)">
    <path d="M -54, 0 C -54,29.807 -29.807,54 0,54 C 29.807,54 54,29.807 54,0 C 54,-29.807 29.807,-54 0,-54 C -29.807,-54 -54,-29.807 -54,0 z"/>
   </g>
  </marker>
  <marker id="DefaultArrow6" markerUnits="strokeWidth" viewBox="0 0 1 1" markerWidth="1" markerHeight="1" overflow="visible" orient="auto">
   <!-- REF_ARROW_DIAMOND -->
   <g transform="scale(0.0092592592)">
    <path d="M -63,0 L 0,63 L 63,0 L 0,-63 z"/>
   </g>
  </marker>
  <marker id="DefaultArrow7" markerUnits="strokeWidth" viewBox="0 0 1 1" markerWidth="1" markerHeight="1" overflow="visible" orient="auto">
   <!-- REF_ARROW_FEATHER -->
   <g transform="scale(0.0092592592)">
    <path d="M 18,-54 L 108,-54 L 63,0 L 108,54 L 18, 54 L -36,0 z"/>
   </g>
  </marker>
  <marker id="DefaultArrow8" markerUnits="strokeWidth" viewBox="0 0 1 1" markerWidth="1" markerHeight="1" overflow="visible" orient="auto">
   <!-- REF_ARROW_FEATHER2 -->
   <g transform="scale(0.0092592592)">
    <path d="M -36,0 L 18,-54 L 54,-54 L 18,-18 L 27,-18 L 63,-54 L 99,-54 L 63,-18 L 72,-18 L 108,-54 L 144,-54 L 90,0 L 144,54 L 108,54 L 72,18 L 63,18 L 99,54 L 63,54 L 27,18 L 18,18 L 54,54 L 18,54 z"/>
   </g>
  </marker>
  <marker id="DefaultArrow9" markerUnits="strokeWidth" viewBox="0 0 1 1" markerWidth="1" markerHeight="1" overflow="visible" orient="auto">
   <!-- REF_ARROW_HOLLOWDIAMOND -->
   <g transform="scale(0.0092592592)">
    <path d="M 0,45 L -45,0 L 0, -45 L 45, 0 z M 0, 63 L-63, 0 L 0, -63 L 63, 0 z"/>
   </g>
  </marker>
  <radialGradient id="RadialGradient" gradientUnits="userSpaceOnUse" cx="0" cy="0" r="204.527" gradientTransform="translate(262.519 50.759) rotate(-164.31)" spreadMethod="pad">
   <stop offset="0" stop-color="#006710"/>
   <stop offset="1" stop-color="#09c80b"/>
  </radialGradient>
 </defs>
 <g id="Document" fill="none" stroke="black" font-family="Times New Roman" font-size="16" transform="scale(1 -1)">
  <g id="Spread" transform="translate(0 -123.75)">
   <g id="Layer 1">
    <path d="M 9.124,83.71 C 10.009,84.005 10.894,83.12 11.779,82.825 L 9.124,83.71 Z M 13.549,78.695 L 13.844,79.58 L 13.844,78.695 L 13.549,78.695 Z M 17.779,72.819 C 17.773,73.023 17.776,73.223 17.782,73.427 C 17.868,76.279 18.906,79.229 20.039,81.645 C 25.644,91.675 36.558,96.985 46.883,100.525 C 56.028,103.77 66.058,105.54 76.087,106.129 C 76.677,107.309 75.202,109.374 74.022,110.554 C 73.433,111.439 71.368,112.324 73.138,113.209 C 78.152,115.274 82.872,111.734 86.412,108.784 C 89.362,109.079 91.722,111.439 94.377,112.324 C 97.032,112.324 99.392,115.274 102.047,113.504 C 102.932,110.849 107.947,110.259 105.882,106.719 L 106.177,106.129 C 113.846,104.655 122.106,103.18 128.891,100.82 C 129.481,102.295 127.416,102.59 126.531,103.475 C 121.516,107.309 113.551,107.899 107.947,106.424 C 108.242,108.194 110.602,108.489 112.076,109.079 C 124.466,111.144 133.316,101.41 141.871,94.625 L 141.871,96.1 C 143.346,96.985 146.001,94.33 146.296,96.69 C 143.346,102.295 137.741,106.719 132.431,109.964 C 131.546,110.554 131.546,111.734 131.841,112.619 C 134.496,114.094 137.151,111.734 140.396,112.619 C 146.591,113.209 152.195,111.734 158.39,111.144 C 160.75,110.259 162.815,107.899 164.88,106.424 C 171.075,105.245 172.55,110.849 176.975,113.504 C 181.105,114.094 178.45,109.079 180.22,107.014 C 179.925,101.705 189.954,97.28 182.875,91.97 C 180.515,89.02 176.68,87.84 172.845,88.725 C 172.255,88.725 171.665,88.43 171.665,87.545 L 171.96,86.365 L 169.305,85.775 L 179.335,79.58 L 179.04,78.4 C 186.119,78.695 194.674,79.875 202.049,77.515 L 201.754,75.155 C 203.819,77.22 203.229,80.17 204.114,82.825 C 208.834,84.595 210.014,89.905 211.194,94.33 C 214.032,96.784 214.274,100.138 214.291,103.534 L 214.291,104.988 C 214.291,108.858 214.439,112.619 218.274,114.979 C 220.044,114.979 219.749,112.914 220.339,112.324 C 220.929,105.245 231.253,104.655 231.253,96.985 C 232.138,93.445 230.663,89.315 234.793,87.545 C 239.218,86.07 238.923,80.465 243.348,78.4 C 243.938,75.155 239.513,73.975 238.333,70.73 C 234.793,66.601 229.188,66.601 224.468,67.781 L 222.403,70.435 C 220.634,68.371 220.929,64.536 221.519,61.586 C 221.224,60.701 220.044,60.701 219.749,61.291 C 218.569,63.651 219.159,66.011 219.159,68.666 C 214.439,64.241 207.359,67.486 202.344,69.845 C 201.164,69.845 199.984,70.14 199.689,71.615 C 199.689,72.795 201.754,74.565 199.984,75.155 L 189.659,75.45 L 189.069,74.86 C 211.489,61.586 236.268,52.736 261.932,48.901 C 261.342,52.736 258.983,56.276 257.213,59.521 C 257.508,58.636 256.623,58.046 255.738,58.046 L 235.973,66.896 C 236.268,67.781 236.858,68.96 238.038,68.96 C 244.233,66.601 250.723,64.536 256.328,60.996 C 257.508,62.471 256.033,66.011 258.688,66.601 C 263.702,65.421 269.307,66.306 274.027,64.536 C 278.157,64.831 282.877,66.896 286.417,64.241 C 291.432,60.996 295.857,55.981 294.677,49.786 L 293.497,46.836 C 296.447,46.541 299.986,46.836 303.231,47.131 L 303.231,48.606 C 312.081,53.031 323.586,54.801 333.321,53.031 C 333.026,53.621 331.256,53.916 332.141,54.801 C 344.53,61.586 355.15,74.27 353.085,89.02 C 352.79,95.51 348.365,102 342.465,104.95 C 340.105,106.424 337.155,107.014 333.91,107.014 C 332.731,104.065 336.565,104.36 338.335,104.36 C 339.515,104.065 341.58,105.245 342.17,104.065 C 339.81,100.23 344.53,97.28 341.875,93.445 C 339.22,90.79 335.975,88.725 332.731,86.955 C 334.5,83.71 330.076,85.48 328.896,84.005 C 330.076,82.825 331.846,84.3 333.321,83.12 C 338.04,81.35 340.105,76.335 340.4,71.91 C 340.105,68.371 336.27,67.781 334.795,65.126 C 333.321,62.471 334.5,58.636 331.256,57.456 C 326.536,57.161 325.651,64.536 321.226,62.766 C 317.981,59.226 312.671,60.111 308.246,60.111 C 307.361,63.061 309.426,65.126 309.131,67.781 L 308.836,73.68 C 303.821,76.925 299.986,82.235 297.921,87.545 C 289.662,90.79 288.777,99.64 282.582,105.54 C 283.172,107.014 285.237,107.014 286.417,107.014 C 291.727,105.835 296.447,102 302.051,103.77 C 307.066,102.295 311.786,107.014 315.916,104.065 L 322.111,106.424 C 322.406,109.079 322.701,113.209 325.651,114.979 C 327.716,114.979 327.126,112.619 328.896,112.029 L 332.731,108.784 C 339.81,110.849 346.89,105.835 351.315,100.82 C 358.395,92.56 356.92,78.99 352.495,70.435 L 345.415,60.406 C 350.43,62.766 354.855,57.161 359.87,58.931 C 361.05,58.636 362.23,58.341 362.23,57.161 L 361.64,50.376 C 360.165,48.606 356.33,47.426 358.395,44.476 C 360.165,42.116 361.935,40.051 363.41,37.396 C 372.554,44.181 380.814,50.376 387.894,58.931 C 388.189,59.816 387.304,59.521 387.009,60.111 C 384.059,65.716 384.059,72.795 383.764,78.99 C 384.059,86.955 386.714,95.51 394.384,99.64 C 399.989,102.59 407.954,102.59 412.968,98.46 C 413.263,98.755 413.558,98.755 413.558,99.05 C 412.968,99.345 412.083,99.345 412.083,100.23 C 413.853,104.95 416.508,109.964 420.638,112.914 L 421.818,112.324 C 423.883,115.569 424.178,121.174 429.488,120.289 C 430.668,118.519 428.898,116.749 428.603,114.979 C 424.473,107.014 419.753,99.05 414.443,91.675 C 415.033,92.265 416.803,91.675 416.508,90.2 C 416.803,84.595 413.558,79.285 408.543,76.925 C 407.364,76.335 407.364,77.81 406.774,77.81 C 404.414,75.155 402.644,71.91 400.874,68.666 L 401.169,68.371 C 401.759,68.666 402.349,69.55 403.234,69.255 L 404.119,68.076 C 405.004,68.666 403.824,70.73 405.594,70.14 C 406.184,69.55 406.184,67.781 405.299,67.191 C 404.119,65.421 402.939,67.191 401.169,67.191 C 401.169,67.781 400.284,68.371 399.989,67.781 C 399.694,67.486 399.399,66.896 399.694,66.896 C 402.349,66.601 401.169,62.471 404.414,62.471 C 410.313,63.356 414.443,68.666 419.163,71.615 C 425.948,75.745 421.523,89.315 432.438,86.955 C 435.093,83.71 432.438,79.285 432.438,75.745 C 435.683,74.565 438.338,71.91 438.928,68.371 C 441.288,66.601 441.288,63.651 440.108,60.996 C 438.338,57.751 433.323,54.801 435.093,50.081 C 435.978,47.426 436.863,44.181 435.388,41.231 C 431.848,37.396 429.783,32.971 425.063,30.022 C 422.408,31.497 424.768,34.446 424.473,36.511 C 428.013,44.476 432.143,53.621 428.013,62.176 C 426.243,64.536 423.293,67.781 419.753,66.896 C 413.263,65.421 406.774,55.391 399.989,61.881 L 398.514,64.831 C 394.679,61.586 392.024,57.456 388.779,53.916 C 391.434,53.031 389.369,49.786 389.369,47.721 C 387.599,42.706 384.649,37.691 379.634,35.036 C 376.389,33.266 372.259,31.791 368.425,32.971 C 369.9,34.446 373.144,34.151 375.504,35.331 C 381.404,38.281 386.714,45.066 386.419,51.261 C 379.339,45.656 372.554,38.281 364.59,34.446 C 364.295,32.676 366.655,31.791 366.655,30.022 C 366.36,25.007 369.605,21.172 369.31,16.747 C 364.59,15.862 363.705,22.057 358.985,22.057 C 354.56,22.352 350.43,23.827 346.595,26.187 L 346.3,24.712 C 335.09,18.812 322.996,14.387 310.311,12.617 C 310.311,10.257 313.851,8.487 311.196,6.127 C 308.246,5.242 306.476,8.487 303.231,8.487 C 299.101,7.602 295.857,10.257 292.612,12.912 C 289.072,11.732 288.187,7.307 284.647,5.832 C 282.287,4.947 280.222,2.882 277.567,3.472 L 274.617,9.372 C 274.617,10.257 274.027,11.732 273.437,12.322 C 272.552,10.552 269.897,10.552 267.832,11.142 C 266.947,10.847 266.062,12.027 266.062,12.617 C 259.572,12.322 254.558,7.897 248.953,5.242 C 241.873,2.587 233.318,2.882 227.123,7.012 C 226.533,7.602 226.533,8.782 227.123,9.077 C 232.138,11.142 238.333,11.437 241.283,17.042 C 242.168,21.172 246.298,23.827 248.363,27.367 C 249.838,30.612 251.018,33.856 253.673,36.216 C 247.478,34.741 239.808,36.216 233.318,37.101 C 215.914,40.346 199.984,48.016 185.234,57.161 C 195.264,42.411 210.604,33.266 225.648,26.187 L 240.398,20.287 C 240.988,19.992 240.988,18.812 240.398,18.517 L 239.218,18.222 C 213.259,25.007 187.594,43.591 173.435,67.781 C 173.435,66.601 171.665,66.896 171.075,67.191 C 170.485,67.781 169.895,68.666 170.485,69.255 C 165.175,71.91 162.52,63.651 157.21,66.306 C 156.03,68.666 157.21,71.025 156.915,73.09 C 155.735,76.335 155.44,79.58 156.325,82.53 C 156.325,84.595 152.49,86.66 155.145,88.43 C 151.9,90.79 147.476,92.265 143.936,92.265 C 146.591,89.315 149.835,86.365 151.9,83.415 L 151.31,82.235 C 152.195,81.055 156.03,82.235 154.555,79.58 C 151.9,78.695 149.245,80.76 146.296,80.17 C 141.281,80.17 136.856,79.58 133.611,76.04 C 134.791,74.565 136.856,75.745 138.331,74.86 C 140.101,72.795 140.691,70.14 142.756,68.371 C 141.281,63.061 135.086,64.241 130.661,63.356 C 128.596,60.406 127.121,56.866 123.286,55.981 C 121.221,55.686 118.861,55.096 117.091,56.276 C 117.091,58.636 119.451,60.111 119.746,62.471 L 121.516,76.04 C 122.991,79.58 126.826,82.825 127.121,86.66 C 127.711,87.25 128.006,87.84 128.891,87.545 C 128.891,84.3 133.021,82.825 133.021,79.58 C 135.086,78.695 136.856,81.055 138.921,81.35 C 142.461,83.12 147.181,81.35 150.13,82.825 L 146.886,84.89 C 142.166,89.315 138.036,95.805 132.136,99.05 L 132.136,97.87 C 123.286,99.64 113.846,102 104.997,103.475 C 104.112,101.115 106.767,97.87 104.702,95.51 C 102.932,93.15 98.802,92.56 98.802,89.02 C 98.802,87.545 99.392,85.185 97.032,85.48 C 93.787,85.48 92.017,89.02 89.067,90.79 L 87.592,95.215 C 83.167,97.28 78.447,100.525 76.677,105.54 L 76.087,104.065 C 57.208,100.525 36.264,98.46 23.284,81.645 C 21.514,78.4 19.744,74.27 21.514,70.73 C 22.104,68.96 23.874,68.371 25.349,67.486 C 28.004,67.191 30.364,68.666 31.544,71.025 C 35.084,75.745 27.709,79.875 31.544,84.3 C 33.609,86.66 37.148,86.955 39.213,84.595 C 40.393,83.71 40.983,81.94 40.098,80.465 C 39.213,79.875 38.623,78.695 37.443,79.285 C 36.558,80.76 38.328,82.235 36.853,83.71 C 36.264,84.595 34.789,84.005 34.199,84.005 C 30.364,80.465 35.379,76.63 34.789,73.09 C 34.494,69.255 31.544,66.011 28.299,64.536 C 25.054,64.241 22.399,64.536 20.039,66.896 C 18.599,68.444 17.95,70.285 17.809,72.211 C 17.794,72.415 17.782,72.615 17.779,72.819 Z M 91.722,101.41 L 92.902,99.935 C 94.377,100.525 97.327,101.115 98.802,99.935 C 99.097,101.41 101.457,101.41 101.162,103.18 L 98.802,102 C 95.557,104.065 95.262,99.935 91.722,101.41 Z M 121.885,27.883 C 121.737,32.971 122.844,38.134 125.056,42.411 C 130.956,54.801 141.576,66.601 154.555,71.32 L 156.03,71.025 L 156.03,69.845 C 139.806,61.586 123.286,45.656 124.171,26.482 C 124.761,22.057 126.236,17.337 130.071,14.092 C 134.496,9.962 141.576,9.962 146.886,12.322 C 155.145,15.862 161.045,23.827 161.34,33.266 C 161.34,35.626 159.865,37.691 158.095,38.871 C 155.735,39.461 153.965,37.691 153.08,35.921 C 152.49,32.381 152.785,28.252 148.95,26.187 C 147.181,25.007 144.526,24.417 142.461,25.302 C 139.806,27.072 138.921,30.317 138.626,33.561 C 139.216,38.871 142.461,44.476 147.771,45.951 C 149.54,46.246 151.9,46.246 153.08,44.476 C 151.9,41.821 149.245,45.066 147.181,43.296 C 144.821,42.116 142.166,39.461 141.281,37.101 C 140.691,34.446 140.101,30.612 141.871,28.252 C 142.756,26.482 145.411,26.187 146.886,27.072 C 151.015,30.907 148.36,39.166 155.145,40.641 C 158.095,41.526 161.045,40.051 162.225,37.101 C 165.175,29.727 161.34,22.647 156.915,17.042 C 151.015,10.257 142.461,6.717 133.906,8.782 C 130.956,9.962 128.301,11.732 126.236,13.797 C 123.434,17.779 122.032,22.794 121.885,27.883 Z M 125.941,66.896 L 126.236,66.011 L 127.121,67.781 L 125.941,66.896 Z M 128.006,69.845 C 128.301,69.55 128.596,69.255 128.891,69.55 C 129.186,70.73 129.186,72.795 130.661,73.09 C 130.366,73.68 129.776,75.155 128.891,74.86 C 131.251,73.385 128.006,71.615 128.006,69.845 Z M 148.36,106.129 L 148.95,106.129 L 148.36,106.424 L 148.36,106.129 Z M 153.08,101.705 L 153.965,101.705 L 153.375,103.18 L 153.08,101.705 Z M 154.26,101.41 L 155.145,101.41 L 155.145,101.705 L 154.26,101.705 L 154.26,101.41 Z M 158.626,99.811 C 158.629,99.769 158.647,99.713 158.685,99.64 C 158.685,99.345 158.98,98.755 159.275,99.05 L 159.57,99.935 C 159.349,99.713 158.794,99.991 158.656,99.893 C 158.632,99.879 158.62,99.852 158.626,99.811 Z M 159.865,98.165 C 160.16,97.87 160.455,97.575 160.75,97.87 L 159.865,98.755 L 159.865,98.165 Z M 162.52,96.985 C 163.405,96.395 163.11,95.51 163.11,94.625 C 164.88,94.92 166.355,93.445 167.83,92.56 C 167.83,94.33 166.355,94.625 166.65,96.1 C 165.175,94.92 163.11,96.985 162.52,96.985 Z M 165.175,77.22 L 166.06,77.22 L 165.765,78.4 L 165.175,78.4 L 165.175,77.22 Z M 165.691,99.713 C 165.691,99.566 165.765,99.492 166.06,99.64 L 166.355,100.525 C 166.06,100.23 165.765,100.525 165.765,100.23 C 165.765,100.082 165.691,99.861 165.691,99.713 Z M 168.42,91.97 L 169.6,89.61 C 170.485,91.38 172.255,92.265 173.14,93.445 C 171.665,95.805 170.485,90.79 168.42,91.97 Z M 171.37,69.55 L 172.845,68.666 L 172.845,69.255 C 172.845,69.845 173.14,70.435 173.73,70.73 C 176.385,71.025 176.09,67.781 177.86,66.306 C 179.04,64.831 179.925,61.291 182.285,62.176 C 198.509,51.556 215.324,41.821 234.793,39.756 C 230.368,43.886 224.763,48.016 222.109,53.621 L 222.403,54.211 C 222.993,54.506 223.878,54.211 224.468,53.916 C 231.548,43.886 242.463,38.871 254.263,37.691 L 254.263,36.511 C 256.918,37.691 259.867,38.576 261.637,41.231 C 261.932,43.001 263.112,44.771 262.227,46.541 C 261.637,46.246 261.342,45.656 260.752,45.656 C 233.318,50.376 207.359,59.226 184.055,73.975 L 184.35,74.86 C 181.695,75.45 177.565,73.385 175.5,75.745 C 174.32,73.68 174.32,70.435 171.37,69.55 Z M 174.615,78.695 C 175.205,76.335 176.385,77.81 177.565,78.4 L 174.615,78.695 Z M 175.5,93.74 C 176.385,93.74 177.565,94.92 178.45,94.33 C 177.27,95.215 176.385,93.74 175.5,93.74 Z M 180.73,112.13 C 180.742,112.711 181.288,113.395 181.695,113.799 C 185.234,115.864 189.364,117.634 194.084,115.864 C 197.034,114.979 198.804,112.324 199.689,109.669 C 202.049,102.59 195.559,98.165 192.904,92.855 C 192.609,91.38 192.904,89.61 194.379,88.725 C 196.739,88.43 198.214,89.905 198.804,91.675 L 198.804,93.519 C 198.878,94.109 199.099,94.625 199.689,94.92 C 200.574,94.92 201.164,94.33 201.459,93.445 C 201.164,91.085 200.574,88.43 197.919,87.545 C 195.559,86.66 192.314,87.25 191.134,89.905 C 189.069,98.46 201.754,102 196.149,110.849 C 192.019,115.569 185.824,112.914 181.105,111.439 C 180.827,111.625 180.724,111.867 180.73,112.13 Z M 212.964,75.745 C 213.849,75.155 213.554,75.745 214.439,75.745 L 212.964,76.335 L 212.964,75.745 Z M 219.749,74.27 C 220.929,73.09 222.109,73.385 223.288,74.565 C 221.814,74.27 222.109,75.745 221.519,76.335 C 222.109,78.695 225.058,81.94 222.109,83.71 C 220.634,83.71 220.929,81.94 221.519,81.055 L 221.519,77.332 C 221.371,76.04 220.929,74.86 219.749,74.27 Z M 222.993,91.675 C 222.993,91.38 222.993,91.085 223.288,91.085 C 223.288,91.38 223.583,91.675 223.288,91.97 L 222.993,91.675 Z M 225.648,75.45 C 226.238,75.155 226.533,75.745 226.828,76.04 L 225.648,76.04 L 225.648,75.45 Z M 246.593,12.322 C 247.183,12.322 247.478,12.322 247.773,12.027 C 248.658,12.912 249.248,13.502 249.543,14.682 L 246.593,12.322 Z M 253.083,23.532 L 253.378,23.237 L 253.673,23.237 L 253.083,23.827 L 253.083,23.532 Z M 260.162,21.762 C 262.522,20.582 263.112,24.122 264.292,24.712 L 261.342,24.712 C 262.817,23.827 261.047,22.057 260.162,21.762 Z M 266.357,56.571 L 266.652,56.276 C 266.357,55.981 269.307,54.211 267.242,53.326 L 269.602,52.736 C 268.422,54.211 268.717,56.571 266.357,56.571 Z M 275.502,32.381 L 277.272,31.202 C 279.337,34.741 284.057,36.806 287.892,37.396 C 288.187,36.806 288.187,35.626 287.892,35.036 L 289.072,35.036 C 291.432,34.446 288.482,37.396 290.842,37.986 C 290.252,40.051 287.892,40.346 287.597,42.411 L 285.827,41.231 L 286.712,39.461 C 284.942,36.806 282.877,37.396 280.812,35.921 C 279.042,34.151 275.797,35.331 275.502,32.381 Z M 276.682,44.181 C 277.567,43.591 278.747,44.771 279.927,44.181 C 279.927,46.246 277.862,45.951 276.682,46.541 L 276.682,44.181 Z M 276.682,27.367 C 277.862,27.662 277.272,28.842 276.977,29.137 L 276.682,27.367 Z M 286.122,28.547 C 286.712,28.547 287.302,28.842 286.712,29.137 L 286.417,29.137 C 286.122,29.137 286.122,28.842 286.122,28.547 Z M 289.662,34.741 L 290.252,34.151 L 289.957,34.741 L 289.662,34.741 Z M 291.904,42.594 C 291.901,42.497 291.904,42.399 291.91,42.302 C 291.948,41.526 292.169,40.789 292.612,40.346 C 296.152,40.641 299.986,40.051 302.641,37.986 C 310.016,37.691 318.571,36.806 325.651,37.396 L 325.061,38.576 C 323.881,40.641 325.061,43.296 326.241,45.066 C 324.766,45.361 323.291,44.476 321.816,43.886 C 313.261,43.001 304.116,42.411 295.857,43.001 C 294.677,42.411 293.202,44.181 293.202,45.066 L 292.317,44.476 C 292.057,43.96 291.912,43.276 291.904,42.594 Z M 296.152,22.647 C 296.741,22.942 297.331,22.647 297.331,23.237 L 296.152,24.417 L 296.152,22.647 Z M 296.741,95.51 C 297.036,95.215 297.626,95.51 297.921,95.805 C 297.626,96.1 296.741,96.395 296.741,95.51 Z M 305.886,35.331 C 310.311,30.612 309.131,25.007 310.311,19.107 C 310.901,17.337 308.836,15.567 310.311,14.387 L 310.606,14.977 C 322.406,18.517 334.205,22.352 345.12,27.367 L 342.76,29.137 C 337.45,30.612 334.205,23.532 328.601,25.007 C 324.176,26.482 328.011,32.086 327.126,35.331 C 326.536,35.921 326.536,35.036 326.241,35.036 C 319.161,34.151 312.671,34.741 305.886,35.331 Z M 312.966,86.07 C 312.966,85.48 313.556,85.185 313.261,84.595 L 314.441,84.595 L 312.966,86.365 L 312.966,86.07 Z M 313.261,48.901 C 314.736,48.901 316.801,48.901 317.391,50.081 C 316.211,49.491 314.146,50.081 313.261,48.901 Z M 317.981,49.786 C 319.456,50.081 321.226,50.081 322.406,51.261 C 320.931,50.671 318.866,50.671 317.981,49.786 Z M 320.046,102.295 C 320.931,102.295 321.816,102.885 322.111,103.77 C 320.931,103.77 320.341,103.18 320.046,102.295 Z M 320.931,86.66 L 321.226,86.365 C 322.406,85.775 321.226,84.89 321.226,84.3 C 322.111,84.005 322.996,84.3 323.586,84.595 C 322.996,85.775 322.701,86.66 321.521,87.25 L 320.931,86.66 Z M 325.946,48.606 C 326.536,48.016 328.011,47.721 327.716,46.541 C 330.371,46.836 332.731,48.901 335.09,49.491 C 332.731,50.081 330.371,51.556 327.421,50.966 L 327.716,50.081 C 327.126,49.491 326.536,48.901 325.946,48.606 Z M 327.845,92.713 C 327.845,92.672 327.848,92.631 327.857,92.589 C 327.955,92.117 328.674,91.896 328.896,91.675 L 328.601,93.445 L 328.011,93.15 C 327.899,92.985 327.848,92.84 327.845,92.713 Z M 328.896,81.055 L 330.371,80.17 L 330.371,82.53 L 328.896,81.055 Z M 329.781,71.32 L 330.371,71.32 C 330.076,72.205 330.666,72.205 329.781,72.5 L 329.781,71.32 Z M 333.91,52.736 L 337.745,50.081 L 337.45,54.506 L 333.91,52.736 Z M 335.09,97.87 L 335.68,97.87 L 335.09,98.165 L 335.09,97.87 Z M 337.45,49.196 C 337.745,48.606 338.925,47.721 339.81,47.131 C 342.76,45.951 338.04,45.361 340.105,43.886 C 342.76,45.066 344.235,42.411 346.005,40.641 C 346.595,42.116 345.71,43.001 344.235,43.591 C 343.94,44.476 342.17,45.656 343.645,46.541 C 343.055,48.016 342.17,47.131 340.99,46.836 C 339.81,47.721 338.63,48.901 338.04,49.491 C 337.745,49.196 337.45,49.196 337.45,49.196 Z M 337.84,39.609 C 337.837,39.461 337.893,39.314 338.04,39.166 L 338.925,38.871 L 338.63,40.936 C 338.409,40.494 337.855,40.051 337.84,39.609 Z M 346.3,40.346 C 346.89,39.461 346.89,36.511 348.955,37.396 L 348.365,38.576 C 346.595,37.986 347.775,40.051 346.3,40.346 Z M 349.545,37.101 L 351.02,35.921 C 351.315,36.511 350.135,37.101 349.545,37.101 Z M 360.755,43.001 C 364.885,45.066 369.015,47.131 373.734,48.016 C 372.849,45.656 369.31,45.066 366.95,43.591 C 364.885,43.296 362.23,40.641 360.755,43.001 Z M 363.115,55.686 C 366.065,60.111 371.669,61.291 376.094,64.241 L 382.879,67.486 C 384.649,66.896 384.059,65.126 383.469,63.946 C 376.979,60.701 371.374,56.276 364.295,54.211 C 363.705,54.506 363.115,54.801 363.115,55.686 Z M 388.685,77.686 C 388.682,77.321 388.685,76.955 388.705,76.595 C 388.779,75.155 389.074,73.828 389.959,73.09 C 398.514,79.875 405.594,86.955 411.198,96.1 L 410.313,96.1 C 406.774,98.46 402.054,99.64 397.924,97.87 C 391.139,94.625 389.074,87.545 388.779,80.76 C 388.779,79.875 388.693,78.784 388.685,77.686 Z M 389.959,68.96 L 391.139,63.356 C 394.679,66.306 397.039,70.73 399.694,74.86 C 397.039,73.09 394.089,70.435 391.434,68.666 L 389.959,68.96 Z M 406.75,69.199 C 406.747,69.306 406.753,69.424 406.774,69.55 L 406.774,70.73 L 408.543,70.73 L 407.659,72.5 C 408.543,73.385 409.428,72.205 410.018,72.205 C 410.608,71.32 410.608,70.14 410.018,68.96 C 409.187,68.409 406.803,67.598 406.75,69.199 Z M 406.774,82.235 C 408.838,82.235 407.364,80.17 407.659,79.58 C 411.493,81.645 413.263,85.775 413.558,89.905 C 411.198,87.84 408.838,85.185 406.774,82.235 Z M 410.903,75.745 C 410.903,76.335 412.083,76.335 412.673,76.04 C 412.968,75.45 412.673,74.86 412.083,74.565 L 410.903,75.745 Z M 411.198,72.5 C 411.493,72.5 411.862,72.279 412.231,72.17 L 412.726,72.132 L 412.939,72.211 L 413.083,72.309 L 413.263,72.5 C 413.263,72.465 413.231,72.418 413.172,72.368 L 413.083,72.309 L 413.027,72.247 C 412.945,72.188 412.862,72.149 412.774,72.129 L 412.726,72.132 L 412.231,71.949 C 411.715,71.837 411.198,71.91 411.198,72.5 Z M 413.853,74.27 C 413.853,74.565 414.148,74.86 414.443,74.86 L 414.148,73.68 C 413.853,73.975 413.853,73.975 413.853,74.27 Z M 422.703,70.435 C 422.998,69.845 422.703,69.845 422.703,69.55 L 423.883,68.96 C 423.883,69.55 423.588,70.73 422.703,70.435 Z" fill="url(#RadialGradient)" stroke-linejoin="miter" stroke-width="2.949" stroke="none" marker-start="none" marker-end="none" stroke-miterlimit="79.8403193612775"/>
   </g>
  </g>
 </g>
</svg>
